G75*
%MOIN*%
%OFA0B0*%
%FSLAX24Y24*%
%IPPOS*%
%LPD*%
%AMOC8*
5,1,8,0,0,1.08239X$1,22.5*
%
%ADD10C,0.0634*%
%ADD11R,0.0634X0.0634*%
%ADD12C,0.1360*%
%ADD13C,0.0680*%
%ADD14R,0.0671X0.0671*%
%ADD15C,0.0476*%
D10*
X004660Y003033D03*
X005660Y003533D03*
X004660Y004033D03*
X005660Y004533D03*
X004660Y005033D03*
X005660Y005533D03*
X004660Y006033D03*
X004660Y011033D03*
X005660Y011533D03*
X004660Y012033D03*
X005660Y012533D03*
X004660Y013033D03*
X005660Y013533D03*
X004660Y014033D03*
X004660Y019033D03*
X005660Y019533D03*
X004660Y020033D03*
X005660Y020533D03*
X004660Y021033D03*
X004660Y022033D03*
X005660Y021533D03*
X025260Y021033D03*
X025260Y022033D03*
X026260Y021533D03*
X026260Y022533D03*
X026260Y020533D03*
X025260Y020033D03*
X026260Y019533D03*
X026260Y014533D03*
X025260Y014033D03*
X026260Y013533D03*
X025260Y013033D03*
X026260Y012533D03*
X025260Y012033D03*
X026260Y011533D03*
X026260Y006533D03*
X025260Y006033D03*
X026260Y005533D03*
X025260Y005033D03*
X026260Y004533D03*
X025260Y004033D03*
X026260Y003533D03*
D11*
X025260Y003033D03*
X025260Y011033D03*
X025260Y019033D03*
X005660Y022533D03*
X005660Y014533D03*
X005660Y006533D03*
D12*
X008160Y007033D03*
X008160Y010533D03*
X008160Y015033D03*
X008160Y018533D03*
X008160Y023033D03*
X022760Y023033D03*
X022760Y018533D03*
X022760Y015033D03*
X022760Y010533D03*
X022760Y007033D03*
X022760Y002533D03*
X008160Y002533D03*
D13*
X002260Y001183D02*
X001660Y001183D01*
X001660Y002183D02*
X002260Y002183D01*
X002260Y003183D02*
X001660Y003183D01*
X001660Y004183D02*
X002260Y004183D01*
X002260Y005183D02*
X001660Y005183D01*
X001660Y006183D02*
X002260Y006183D01*
X002260Y007183D02*
X001660Y007183D01*
X001660Y008183D02*
X002260Y008183D01*
X002260Y009183D02*
X001660Y009183D01*
X001660Y010183D02*
X002260Y010183D01*
X002260Y011183D02*
X001660Y011183D01*
X001660Y012183D02*
X002260Y012183D01*
X002260Y013183D02*
X001660Y013183D01*
X001660Y014183D02*
X002260Y014183D01*
X002260Y015183D02*
X001660Y015183D01*
X001660Y016183D02*
X002260Y016183D01*
X002260Y017183D02*
X001660Y017183D01*
X001660Y018183D02*
X002260Y018183D01*
X002260Y019183D02*
X001660Y019183D01*
X001660Y020183D02*
X002260Y020183D01*
X002260Y021183D02*
X001660Y021183D01*
X001660Y022183D02*
X002260Y022183D01*
X002260Y023183D02*
X001660Y023183D01*
X001660Y024183D02*
X002260Y024183D01*
X014160Y023983D02*
X014160Y024583D01*
X015160Y024583D02*
X015160Y023983D01*
X016160Y023983D02*
X016160Y024583D01*
X018360Y024683D02*
X018960Y024683D01*
X018960Y023683D02*
X018360Y023683D01*
X027660Y023183D02*
X028260Y023183D01*
X028260Y022183D02*
X027660Y022183D01*
X027660Y021183D02*
X028260Y021183D01*
X028260Y020183D02*
X027660Y020183D01*
X027660Y019183D02*
X028260Y019183D01*
X028260Y018183D02*
X027660Y018183D01*
X027660Y017183D02*
X028260Y017183D01*
X028260Y016183D02*
X027660Y016183D01*
X027660Y015183D02*
X028260Y015183D01*
X028260Y014183D02*
X027660Y014183D01*
X027660Y013183D02*
X028260Y013183D01*
X028260Y012183D02*
X027660Y012183D01*
X027660Y011183D02*
X028260Y011183D01*
X028260Y010183D02*
X027660Y010183D01*
X027660Y009183D02*
X028260Y009183D01*
X028260Y008183D02*
X027660Y008183D01*
X027660Y007183D02*
X028260Y007183D01*
X028260Y006183D02*
X027660Y006183D01*
X027660Y005183D02*
X028260Y005183D01*
X028260Y004183D02*
X027660Y004183D01*
X027660Y003183D02*
X028260Y003183D01*
X028260Y002183D02*
X027660Y002183D01*
X027660Y001183D02*
X028260Y001183D01*
X028260Y024183D02*
X027660Y024183D01*
D14*
X018260Y021472D03*
X017460Y021472D03*
X016660Y021472D03*
X015860Y021472D03*
X015860Y020094D03*
X016660Y020094D03*
X017460Y020094D03*
X018260Y020094D03*
X014060Y020094D03*
X013260Y020094D03*
X012460Y020094D03*
X011660Y020094D03*
X011660Y021472D03*
X012460Y021472D03*
X013260Y021472D03*
X014060Y021472D03*
X014060Y013472D03*
X013260Y013472D03*
X012460Y013472D03*
X011660Y013472D03*
X011660Y012094D03*
X012460Y012094D03*
X013260Y012094D03*
X014060Y012094D03*
X015860Y012094D03*
X016660Y012094D03*
X017460Y012094D03*
X018260Y012094D03*
X018260Y013472D03*
X017460Y013472D03*
X016660Y013472D03*
X015860Y013472D03*
X015860Y005472D03*
X016660Y005472D03*
X017460Y005472D03*
X018260Y005472D03*
X018260Y004094D03*
X017460Y004094D03*
X016660Y004094D03*
X015860Y004094D03*
X014060Y004094D03*
X013260Y004094D03*
X012460Y004094D03*
X011660Y004094D03*
X011660Y005472D03*
X012460Y005472D03*
X013260Y005472D03*
X014060Y005472D03*
D15*
X014060Y007383D03*
X013260Y007383D03*
X012460Y007383D03*
X011660Y007383D03*
X010160Y004283D03*
X015860Y007283D03*
X016660Y007283D03*
X017460Y007283D03*
X018260Y007283D03*
X018460Y009983D03*
X019160Y012283D03*
X018260Y015083D03*
X017460Y015083D03*
X016660Y015083D03*
X015860Y015083D03*
X014060Y014883D03*
X013260Y014883D03*
X012460Y014883D03*
X011660Y014883D03*
X018660Y018883D03*
X019160Y021283D03*
X017560Y022883D03*
X016960Y022883D03*
X016160Y022883D03*
X015360Y022883D03*
X014060Y023083D03*
X013260Y023083D03*
X012460Y023083D03*
X011660Y023083D03*
X022160Y005283D03*
X019160Y004283D03*
X018760Y001983D03*
M02*
