%
M48
M72
T01C0.0236
T02C0.0354
T03C0.0400
T04C0.1280
%
T01
X10160Y4283
X11660Y7383
X12460Y7383
X13260Y7383
X14060Y7383
X15860Y7283
X16660Y7283
X17460Y7283
X18260Y7283
X18460Y9983
X19160Y12283
X18260Y15083
X17460Y15083
X16660Y15083
X15860Y15083
X14060Y14883
X13260Y14883
X12460Y14883
X11660Y14883
X18660Y18883
X19160Y21283
X17560Y22883
X16960Y22883
X16160Y22883
X15360Y22883
X14060Y23083
X13260Y23083
X12460Y23083
X11660Y23083
X22160Y5283
X19160Y4283
X18760Y1983
T02
X25260Y3033
X26260Y3533
X25260Y4033
X26260Y4533
X25260Y5033
X26260Y5533
X25260Y6033
X26260Y6533
X25260Y11033
X26260Y11533
X25260Y12033
X26260Y12533
X25260Y13033
X26260Y13533
X25260Y14033
X26260Y14533
X25260Y19033
X26260Y19533
X25260Y20033
X26260Y20533
X25260Y21033
X25260Y22033
X26260Y21533
X26260Y22533
X5660Y22533
X5660Y21533
X4660Y21033
X4660Y22033
X5660Y20533
X4660Y20033
X5660Y19533
X4660Y19033
X5660Y14533
X4660Y14033
X5660Y13533
X4660Y13033
X5660Y12533
X4660Y12033
X5660Y11533
X4660Y11033
X5660Y6533
X4660Y6033
X5660Y5533
X4660Y5033
X5660Y4533
X4660Y4033
X5660Y3533
X4660Y3033
T03
X1960Y1183
X1960Y2183
X1960Y3183
X1960Y4183
X1960Y5183
X1960Y6183
X1960Y7183
X1960Y8183
X1960Y9183
X1960Y10183
X1960Y11183
X1960Y12183
X1960Y13183
X1960Y14183
X1960Y15183
X1960Y16183
X1960Y17183
X1960Y18183
X1960Y19183
X1960Y20183
X1960Y21183
X1960Y22183
X1960Y23183
X1960Y24183
X14160Y24283
X15160Y24283
X16160Y24283
X18660Y24683
X18660Y23683
X27960Y23183
X27960Y22183
X27960Y21183
X27960Y20183
X27960Y19183
X27960Y18183
X27960Y17183
X27960Y16183
X27960Y15183
X27960Y14183
X27960Y13183
X27960Y12183
X27960Y11183
X27960Y10183
X27960Y9183
X27960Y8183
X27960Y7183
X27960Y6183
X27960Y5183
X27960Y4183
X27960Y3183
X27960Y2183
X27960Y1183
X27960Y24183
T04
X22760Y23033
X22760Y18533
X22760Y15033
X22760Y10533
X22760Y7033
X22760Y2533
X8160Y2533
X8160Y7033
X8160Y10533
X8160Y15033
X8160Y18533
X8160Y23033
M30
