G75*
%MOIN*%
%OFA0B0*%
%FSLAX24Y24*%
%IPPOS*%
%LPD*%
%AMOC8*
5,1,8,0,0,1.08239X$1,22.5*
%
%ADD10C,0.0634*%
%ADD11R,0.0634X0.0634*%
%ADD12C,0.1360*%
%ADD13C,0.0680*%
%ADD14R,0.0316X0.0946*%
%ADD15R,0.0513X0.0474*%
%ADD16R,0.0474X0.0513*%
%ADD17C,0.0476*%
D10*
X004660Y003033D03*
X005660Y003533D03*
X004660Y004033D03*
X005660Y004533D03*
X004660Y005033D03*
X005660Y005533D03*
X004660Y006033D03*
X004660Y011033D03*
X005660Y011533D03*
X004660Y012033D03*
X005660Y012533D03*
X004660Y013033D03*
X005660Y013533D03*
X004660Y014033D03*
X004660Y019033D03*
X005660Y019533D03*
X004660Y020033D03*
X005660Y020533D03*
X004660Y021033D03*
X004660Y022033D03*
X005660Y021533D03*
X025260Y021033D03*
X025260Y022033D03*
X026260Y021533D03*
X026260Y022533D03*
X026260Y020533D03*
X025260Y020033D03*
X026260Y019533D03*
X026260Y014533D03*
X025260Y014033D03*
X026260Y013533D03*
X025260Y013033D03*
X026260Y012533D03*
X025260Y012033D03*
X026260Y011533D03*
X026260Y006533D03*
X025260Y006033D03*
X026260Y005533D03*
X025260Y005033D03*
X026260Y004533D03*
X025260Y004033D03*
X026260Y003533D03*
D11*
X025260Y003033D03*
X025260Y011033D03*
X025260Y019033D03*
X005660Y022533D03*
X005660Y014533D03*
X005660Y006533D03*
D12*
X008160Y007033D03*
X008160Y010533D03*
X008160Y015033D03*
X008160Y018533D03*
X008160Y023033D03*
X022760Y023033D03*
X022760Y018533D03*
X022760Y015033D03*
X022760Y010533D03*
X022760Y007033D03*
X022760Y002533D03*
X008160Y002533D03*
D13*
X002260Y001183D02*
X001660Y001183D01*
X001660Y002183D02*
X002260Y002183D01*
X002260Y003183D02*
X001660Y003183D01*
X001660Y004183D02*
X002260Y004183D01*
X002260Y005183D02*
X001660Y005183D01*
X001660Y006183D02*
X002260Y006183D01*
X002260Y007183D02*
X001660Y007183D01*
X001660Y008183D02*
X002260Y008183D01*
X002260Y009183D02*
X001660Y009183D01*
X001660Y010183D02*
X002260Y010183D01*
X002260Y011183D02*
X001660Y011183D01*
X001660Y012183D02*
X002260Y012183D01*
X002260Y013183D02*
X001660Y013183D01*
X001660Y014183D02*
X002260Y014183D01*
X002260Y015183D02*
X001660Y015183D01*
X001660Y016183D02*
X002260Y016183D01*
X002260Y017183D02*
X001660Y017183D01*
X001660Y018183D02*
X002260Y018183D01*
X002260Y019183D02*
X001660Y019183D01*
X001660Y020183D02*
X002260Y020183D01*
X002260Y021183D02*
X001660Y021183D01*
X001660Y022183D02*
X002260Y022183D01*
X002260Y023183D02*
X001660Y023183D01*
X001660Y024183D02*
X002260Y024183D01*
X014160Y023983D02*
X014160Y024583D01*
X015160Y024583D02*
X015160Y023983D01*
X016160Y023983D02*
X016160Y024583D01*
X018360Y024683D02*
X018960Y024683D01*
X018960Y023683D02*
X018360Y023683D01*
X027660Y023183D02*
X028260Y023183D01*
X028260Y022183D02*
X027660Y022183D01*
X027660Y021183D02*
X028260Y021183D01*
X028260Y020183D02*
X027660Y020183D01*
X027660Y019183D02*
X028260Y019183D01*
X028260Y018183D02*
X027660Y018183D01*
X027660Y017183D02*
X028260Y017183D01*
X028260Y016183D02*
X027660Y016183D01*
X027660Y015183D02*
X028260Y015183D01*
X028260Y014183D02*
X027660Y014183D01*
X027660Y013183D02*
X028260Y013183D01*
X028260Y012183D02*
X027660Y012183D01*
X027660Y011183D02*
X028260Y011183D01*
X028260Y010183D02*
X027660Y010183D01*
X027660Y009183D02*
X028260Y009183D01*
X028260Y008183D02*
X027660Y008183D01*
X027660Y007183D02*
X028260Y007183D01*
X028260Y006183D02*
X027660Y006183D01*
X027660Y005183D02*
X028260Y005183D01*
X028260Y004183D02*
X027660Y004183D01*
X027660Y003183D02*
X028260Y003183D01*
X028260Y002183D02*
X027660Y002183D01*
X027660Y001183D02*
X028260Y001183D01*
X028260Y024183D02*
X027660Y024183D01*
D14*
X017160Y020401D03*
X016660Y020401D03*
X016160Y020401D03*
X015660Y020401D03*
X015160Y020401D03*
X014660Y020401D03*
X014160Y020401D03*
X013660Y020401D03*
X013160Y020401D03*
X013160Y017566D03*
X013660Y017566D03*
X014160Y017566D03*
X014660Y017566D03*
X015160Y017566D03*
X015660Y017566D03*
X016160Y017566D03*
X016660Y017566D03*
X017160Y017566D03*
X017160Y012301D03*
X016660Y012301D03*
X016160Y012301D03*
X015660Y012301D03*
X015160Y012301D03*
X014660Y012301D03*
X014160Y012301D03*
X013660Y012301D03*
X013160Y012301D03*
X013160Y009466D03*
X013660Y009466D03*
X014160Y009466D03*
X014660Y009466D03*
X015160Y009466D03*
X015660Y009466D03*
X016160Y009466D03*
X016660Y009466D03*
X017160Y009466D03*
X017260Y004601D03*
X016760Y004601D03*
X016260Y004601D03*
X015760Y004601D03*
X015260Y004601D03*
X014760Y004601D03*
X014260Y004601D03*
X013760Y004601D03*
X013260Y004601D03*
X013260Y001766D03*
X013760Y001766D03*
X014260Y001766D03*
X014760Y001766D03*
X015260Y001766D03*
X015760Y001766D03*
X016260Y001766D03*
X016760Y001766D03*
X017260Y001766D03*
D15*
X017460Y006049D03*
X017460Y006718D03*
X016660Y006718D03*
X016660Y006049D03*
X018260Y006049D03*
X018260Y006718D03*
X013260Y006718D03*
X013260Y006049D03*
X012460Y006049D03*
X012460Y006718D03*
X011660Y006718D03*
X011660Y006049D03*
X011660Y013449D03*
X011660Y014118D03*
X012460Y014118D03*
X013260Y014118D03*
X013260Y013449D03*
X012460Y013449D03*
X016660Y013749D03*
X016660Y014418D03*
X017460Y014418D03*
X017460Y013749D03*
X018260Y013749D03*
X018260Y014418D03*
X017960Y021649D03*
X017960Y022318D03*
X017260Y022318D03*
X017260Y021649D03*
X016260Y021549D03*
X016260Y022218D03*
X013260Y022418D03*
X012460Y022418D03*
X012460Y021749D03*
X013260Y021749D03*
X011660Y021749D03*
X011660Y022418D03*
D16*
X013825Y022183D03*
X014495Y022183D03*
X015025Y022183D03*
X015695Y022183D03*
X015895Y014183D03*
X015225Y014183D03*
X014695Y014183D03*
X014025Y014183D03*
X014025Y006683D03*
X014695Y006683D03*
X015225Y006683D03*
X015895Y006683D03*
D17*
X015860Y007283D03*
X016660Y007283D03*
X017460Y007283D03*
X018260Y007283D03*
X018460Y009983D03*
X019160Y012283D03*
X018260Y015083D03*
X017460Y015083D03*
X016660Y015083D03*
X015860Y015083D03*
X014060Y014883D03*
X013260Y014883D03*
X012460Y014883D03*
X011660Y014883D03*
X018660Y018883D03*
X019160Y021283D03*
X017560Y022883D03*
X016960Y022883D03*
X016160Y022883D03*
X015360Y022883D03*
X014060Y023083D03*
X013260Y023083D03*
X012460Y023083D03*
X011660Y023083D03*
X011660Y007383D03*
X012460Y007383D03*
X013260Y007383D03*
X014060Y007383D03*
X010160Y004283D03*
X018760Y001983D03*
X019160Y004283D03*
X022160Y005283D03*
M02*
