G75*
%MOIN*%
%OFA0B0*%
%FSLAX24Y24*%
%IPPOS*%
%LPD*%
%AMOC8*
5,1,8,0,0,1.08239X$1,22.5*
%
%ADD10C,0.1080*%
%ADD11OC8,0.1080*%
%ADD12R,0.0474X0.0513*%
%ADD13C,0.0965*%
%ADD14R,0.2521X0.2206*%
%ADD15R,0.0710X0.0474*%
%ADD16C,0.0680*%
%ADD17R,0.0380X0.0380*%
%ADD18R,0.0513X0.0474*%
%ADD19C,0.0720*%
%ADD20OC8,0.0720*%
%ADD21C,0.0700*%
%ADD22R,0.0660X0.0220*%
%ADD23C,0.0790*%
D10*
X010050Y002400D03*
D11*
X010050Y004400D03*
D12*
X003150Y002065D03*
X003150Y002735D03*
X003150Y003565D03*
X003150Y004235D03*
X003150Y005565D03*
X003150Y006235D03*
X003150Y007065D03*
X003150Y007735D03*
X016915Y008200D03*
X017585Y008200D03*
X010185Y023100D03*
X009515Y023100D03*
D13*
X021508Y007100D02*
X022393Y007100D01*
X027508Y007100D02*
X028393Y007100D01*
D14*
X005466Y006400D03*
X005466Y002900D03*
D15*
X008340Y002002D03*
X008340Y003798D03*
X008340Y005502D03*
X008340Y007298D03*
D16*
X009650Y007400D02*
X010250Y007400D01*
X010250Y006400D02*
X009650Y006400D01*
X009650Y008400D02*
X010250Y008400D01*
X018450Y007200D02*
X018450Y006600D01*
X019450Y006600D02*
X019450Y007200D01*
X020450Y007200D02*
X020450Y006600D01*
D17*
X009740Y020980D03*
X009380Y021834D03*
X010136Y021834D03*
D18*
X010950Y014535D03*
X010950Y013865D03*
X011750Y007435D03*
X011750Y006765D03*
X018650Y017565D03*
X018650Y018235D03*
D19*
X027630Y018400D02*
X028270Y018400D01*
X028270Y017400D02*
X027630Y017400D01*
X027630Y016400D02*
X028270Y016400D01*
X028270Y015400D02*
X027630Y015400D01*
X027630Y014400D02*
X028270Y014400D01*
X028270Y013400D02*
X027630Y013400D01*
X027630Y012400D02*
X028270Y012400D01*
X028270Y011400D02*
X027630Y011400D01*
X027630Y010400D02*
X028270Y010400D01*
X028270Y009400D02*
X027630Y009400D01*
X027630Y008400D02*
X028270Y008400D01*
X028270Y019400D02*
X027630Y019400D01*
X027630Y020400D02*
X028270Y020400D01*
X028270Y021400D02*
X027630Y021400D01*
X027630Y022400D02*
X028270Y022400D01*
X028270Y023400D02*
X027630Y023400D01*
X027630Y024400D02*
X028270Y024400D01*
X028270Y025400D02*
X027630Y025400D01*
X027630Y026400D02*
X028270Y026400D01*
X028270Y027400D02*
X027630Y027400D01*
X027630Y028400D02*
X028270Y028400D01*
X028270Y029400D02*
X027630Y029400D01*
X027630Y030400D02*
X028270Y030400D01*
X028270Y031400D02*
X027630Y031400D01*
X018970Y030900D02*
X018330Y030900D01*
X018330Y031900D02*
X018970Y031900D01*
X010470Y031400D02*
X009830Y031400D01*
X009830Y030400D02*
X010470Y030400D01*
X002270Y030400D02*
X001630Y030400D01*
X001630Y029400D02*
X002270Y029400D01*
X002270Y028400D02*
X001630Y028400D01*
X001630Y027400D02*
X002270Y027400D01*
X002270Y026400D02*
X001630Y026400D01*
X001630Y025400D02*
X002270Y025400D01*
X002270Y024400D02*
X001630Y024400D01*
X001630Y023400D02*
X002270Y023400D01*
X002270Y022400D02*
X001630Y022400D01*
X001630Y021400D02*
X002270Y021400D01*
X002270Y020400D02*
X001630Y020400D01*
X001630Y019400D02*
X002270Y019400D01*
X002270Y018400D02*
X001630Y018400D01*
X001630Y017400D02*
X002270Y017400D01*
X002270Y016400D02*
X001630Y016400D01*
X001630Y015400D02*
X002270Y015400D01*
X002270Y014400D02*
X001630Y014400D01*
X001630Y013400D02*
X002270Y013400D01*
X002270Y012400D02*
X001630Y012400D01*
X001630Y011400D02*
X002270Y011400D01*
X002270Y010400D02*
X001630Y010400D01*
X001630Y009400D02*
X002270Y009400D01*
X002270Y008400D02*
X001630Y008400D01*
X012950Y007720D02*
X012950Y007080D01*
X013950Y007080D02*
X013950Y007720D01*
X014950Y007720D02*
X014950Y007080D01*
X015950Y007080D02*
X015950Y007720D01*
X002270Y031400D02*
X001630Y031400D01*
D20*
X005750Y031400D03*
X006750Y031400D03*
X007750Y031400D03*
X007750Y030400D03*
X006750Y030400D03*
X005750Y030400D03*
X008750Y030400D03*
X008750Y031400D03*
D21*
X011450Y031400D03*
X011450Y030400D03*
X011450Y029400D03*
X011450Y028400D03*
X011450Y027400D03*
X011450Y026400D03*
X011450Y025400D03*
X011450Y024400D03*
X011450Y023400D03*
X011450Y022400D03*
X011450Y021400D03*
X011450Y020400D03*
X011450Y019400D03*
X011450Y018400D03*
X012450Y018400D03*
X013450Y018400D03*
X014450Y018400D03*
X014450Y019400D03*
X014450Y020400D03*
X014450Y021400D03*
X014450Y022400D03*
X014450Y023400D03*
X014450Y024400D03*
X014450Y025400D03*
X015450Y025400D03*
X015450Y024400D03*
X015450Y023400D03*
X015450Y022400D03*
X015450Y021400D03*
X015450Y020400D03*
X015450Y019400D03*
X015450Y018400D03*
X016450Y018400D03*
X017450Y018400D03*
X017450Y019400D03*
X017450Y020400D03*
X017450Y021400D03*
X017450Y022400D03*
X017450Y023400D03*
X017450Y024400D03*
X017450Y025400D03*
X017450Y026400D03*
X017450Y027400D03*
X017450Y028400D03*
X017450Y029400D03*
X017450Y030400D03*
X016450Y030400D03*
X017450Y031400D03*
X016450Y028400D03*
X016450Y027400D03*
X016450Y026400D03*
D22*
X015600Y017300D03*
X015600Y017040D03*
X015600Y016780D03*
X015600Y016530D03*
X015600Y016270D03*
X015600Y016020D03*
X015600Y015760D03*
X015600Y015500D03*
X015600Y014800D03*
X015600Y014540D03*
X015600Y014280D03*
X015600Y014030D03*
X015600Y013770D03*
X015600Y013520D03*
X015600Y013260D03*
X015600Y013000D03*
X015600Y012060D03*
X015600Y011810D03*
X015600Y011550D03*
X015600Y011300D03*
X015600Y011040D03*
X015600Y010780D03*
X015600Y010530D03*
X015600Y010270D03*
X015600Y010020D03*
X015600Y009760D03*
X015600Y009500D03*
X015600Y009250D03*
X015600Y008990D03*
X015600Y008740D03*
X013300Y008740D03*
X013300Y008990D03*
X013300Y009250D03*
X013300Y009500D03*
X013300Y009760D03*
X013300Y010020D03*
X013300Y010270D03*
X013300Y010530D03*
X013300Y010780D03*
X013300Y011040D03*
X013300Y011300D03*
X013300Y011550D03*
X013300Y011810D03*
X013300Y012060D03*
X013300Y013000D03*
X013300Y013260D03*
X013300Y013520D03*
X013300Y013770D03*
X013300Y014030D03*
X013300Y014280D03*
X013300Y014540D03*
X013300Y014800D03*
X013300Y015500D03*
X013300Y015760D03*
X013300Y016020D03*
X013300Y016270D03*
X013300Y016530D03*
X013300Y016780D03*
X013300Y017040D03*
X013300Y017300D03*
D23*
X013250Y003105D02*
X013250Y002395D01*
X015250Y002395D02*
X015250Y003105D01*
X017250Y003105D02*
X017250Y002395D01*
X019250Y002395D02*
X019250Y003105D01*
X021850Y003105D02*
X021850Y002395D01*
X023850Y002395D02*
X023850Y003105D01*
X025850Y003105D02*
X025850Y002395D01*
X027850Y002395D02*
X027850Y003105D01*
M02*
