%
M48
M72
T01C0.0236
T02C0.0360
T03C0.0380
T04C0.0400
T05C0.0470
T06C0.0590
%
T01
X2050Y3400
X1950Y6900
X7950Y12900
X8950Y12900
X9950Y12400
X10950Y12900
X11450Y11800
X12450Y11300
X12250Y13200
X11950Y14900
X12450Y15400
X11850Y16200
X11150Y16900
X10250Y16000
X12450Y17400
X13950Y17200
X13950Y15900
X13950Y15100
X14450Y14400
X14150Y13400
X16450Y12200
X16950Y11700
X17450Y11200
X18650Y11000
X18650Y12300
X20450Y13700
X20450Y14300
X20450Y14900
X19450Y15900
X19950Y16400
X18450Y15900
X18450Y15000
X16450Y15000
X16350Y17500
X16950Y17800
X16650Y20000
X16450Y20900
X19250Y23100
X18950Y24400
X16450Y24900
X15450Y26900
X13950Y28400
X13950Y29400
X12950Y29400
X12450Y29900
X12650Y31100
X14950Y29900
X16450Y31400
X17450Y32400
X21350Y30400
X24950Y29900
X21450Y23900
X19450Y18900
X22450Y14900
X24950Y16900
X19650Y8000
X23850Y6800
X24650Y6800
X11950Y4900
X11950Y2500
X8450Y2900
X11450Y8400
X7450Y13900
X7950Y17900
X7650Y18700
X9250Y20600
X10650Y22300
X7450Y24400
X3950Y21900
X3850Y28800
X10250Y29500
X13050Y27700
T02
X9950Y8400
X9950Y7400
X9950Y6400
X18450Y6900
X19450Y6900
X20450Y6900
T03
X17450Y18400
X17450Y19400
X17450Y20400
X17450Y21400
X17450Y22400
X17450Y23400
X17450Y24400
X17450Y25400
X17450Y26400
X17450Y27400
X17450Y28400
X17450Y29400
X17450Y30400
X16450Y30400
X17450Y31400
X16450Y28400
X16450Y27400
X16450Y26400
X15450Y25400
X15450Y24400
X15450Y23400
X15450Y22400
X15450Y21400
X15450Y20400
X15450Y19400
X15450Y18400
X14450Y18400
X14450Y19400
X14450Y20400
X14450Y21400
X14450Y22400
X14450Y23400
X14450Y24400
X14450Y25400
X11450Y25400
X11450Y24400
X11450Y23400
X11450Y22400
X11450Y21400
X11450Y20400
X11450Y19400
X11450Y18400
X12450Y18400
X13450Y18400
X16450Y18400
X11450Y26400
X11450Y27400
X11450Y28400
X11450Y29400
X11450Y30400
X11450Y31400
T04
X10150Y31400
X10150Y30400
X8750Y30400
X8750Y31400
X7750Y31400
X6750Y31400
X5750Y31400
X5750Y30400
X6750Y30400
X7750Y30400
X1950Y30400
X1950Y29400
X1950Y28400
X1950Y27400
X1950Y26400
X1950Y25400
X1950Y24400
X1950Y23400
X1950Y22400
X1950Y21400
X1950Y20400
X1950Y19400
X1950Y18400
X1950Y17400
X1950Y16400
X1950Y15400
X1950Y14400
X1950Y13400
X1950Y12400
X1950Y11400
X1950Y10400
X1950Y9400
X1950Y8400
X10050Y4400
X10050Y2400
X12950Y7400
X13950Y7400
X14950Y7400
X15950Y7400
X27950Y8400
X27950Y9400
X27950Y10400
X27950Y11400
X27950Y12400
X27950Y13400
X27950Y14400
X27950Y15400
X27950Y16400
X27950Y17400
X27950Y18400
X27950Y19400
X27950Y20400
X27950Y21400
X27950Y22400
X27950Y23400
X27950Y24400
X27950Y25400
X27950Y26400
X27950Y27400
X27950Y28400
X27950Y29400
X27950Y30400
X27950Y31400
X1950Y31400
T05
X13250Y2750
X15250Y2750
X17250Y2750
X19250Y2750
X21850Y2750
X23850Y2750
X25850Y2750
X27850Y2750
T06
X27950Y7100
X21950Y7100
M30
