G75*
%MOIN*%
%OFA0B0*%
%FSLAX24Y24*%
%IPPOS*%
%LPD*%
%AMOC8*
5,1,8,0,0,1.08239X$1,22.5*
%
%ADD10C,0.1080*%
%ADD11OC8,0.1080*%
%ADD12C,0.0965*%
%ADD13C,0.0680*%
%ADD14C,0.0720*%
%ADD15OC8,0.0720*%
%ADD16C,0.0700*%
%ADD17C,0.0674*%
%ADD18R,0.0674X0.0674*%
%ADD19C,0.1360*%
%ADD20C,0.0790*%
D10*
X030204Y002500D03*
D11*
X030204Y004500D03*
D12*
X033261Y003500D02*
X034146Y003500D01*
X039261Y003500D02*
X040146Y003500D01*
D13*
X027204Y006700D02*
X027204Y007300D01*
X026204Y007300D02*
X026204Y006700D01*
X025204Y006700D02*
X025204Y007300D01*
X017204Y007300D02*
X017204Y006700D01*
X016204Y006700D02*
X016204Y007300D01*
X015204Y007300D02*
X015204Y006700D01*
D14*
X009024Y006500D02*
X008384Y006500D01*
X008384Y007500D02*
X009024Y007500D01*
X009024Y008500D02*
X008384Y008500D01*
X008384Y009500D02*
X009024Y009500D01*
X009024Y010500D02*
X008384Y010500D01*
X008384Y011500D02*
X009024Y011500D01*
X009024Y012500D02*
X008384Y012500D01*
X008384Y013500D02*
X009024Y013500D01*
X009024Y015500D02*
X008384Y015500D01*
X008384Y016500D02*
X009024Y016500D01*
X009024Y017500D02*
X008384Y017500D01*
X008384Y018500D02*
X009024Y018500D01*
X009024Y019500D02*
X008384Y019500D01*
X008384Y020500D02*
X009024Y020500D01*
X009024Y021500D02*
X008384Y021500D01*
X008384Y022500D02*
X009024Y022500D01*
X009024Y024500D02*
X008384Y024500D01*
X008384Y025500D02*
X009024Y025500D01*
X009024Y026500D02*
X008384Y026500D01*
X008384Y027500D02*
X009024Y027500D01*
X009024Y028500D02*
X008384Y028500D01*
X008384Y029500D02*
X009024Y029500D01*
X009024Y030500D02*
X008384Y030500D01*
X008384Y031500D02*
X009024Y031500D01*
X016584Y031500D02*
X017224Y031500D01*
X017224Y030500D02*
X016584Y030500D01*
X034384Y030500D02*
X035024Y030500D01*
X035024Y031500D02*
X034384Y031500D01*
X034384Y029500D02*
X035024Y029500D01*
X035024Y028500D02*
X034384Y028500D01*
X034384Y027500D02*
X035024Y027500D01*
X035024Y026500D02*
X034384Y026500D01*
X034384Y025500D02*
X035024Y025500D01*
X035024Y024500D02*
X034384Y024500D01*
X034384Y022500D02*
X035024Y022500D01*
X035024Y021500D02*
X034384Y021500D01*
X034384Y020500D02*
X035024Y020500D01*
X035024Y019500D02*
X034384Y019500D01*
X034384Y018500D02*
X035024Y018500D01*
X035024Y017500D02*
X034384Y017500D01*
X034384Y016500D02*
X035024Y016500D01*
X035024Y015500D02*
X034384Y015500D01*
X034384Y013500D02*
X035024Y013500D01*
X035024Y012500D02*
X034384Y012500D01*
X034384Y011500D02*
X035024Y011500D01*
X035024Y010500D02*
X034384Y010500D01*
X034384Y009500D02*
X035024Y009500D01*
X035024Y008500D02*
X034384Y008500D01*
X034384Y007500D02*
X035024Y007500D01*
X035024Y006500D02*
X034384Y006500D01*
X022704Y007180D02*
X022704Y007820D01*
X021704Y007820D02*
X021704Y007180D01*
X020704Y007180D02*
X020704Y007820D01*
X019704Y007820D02*
X019704Y007180D01*
D15*
X015504Y030500D03*
X014504Y030500D03*
X013504Y030500D03*
X013504Y031500D03*
X014504Y031500D03*
X015504Y031500D03*
X012504Y031500D03*
X012504Y030500D03*
D16*
X018204Y030500D03*
X018204Y031500D03*
X018204Y029500D03*
X018204Y028500D03*
X018204Y027500D03*
X018204Y026500D03*
X018204Y025500D03*
X018204Y024500D03*
X018204Y023500D03*
X018204Y022500D03*
X018204Y021500D03*
X018204Y020500D03*
X018204Y019500D03*
X018204Y018500D03*
X019204Y018500D03*
X020204Y018500D03*
X021204Y018500D03*
X022204Y018500D03*
X023204Y018500D03*
X024204Y018500D03*
X024204Y019500D03*
X024204Y020500D03*
X024204Y021500D03*
X024204Y022500D03*
X024204Y023500D03*
X024204Y024500D03*
X024204Y025500D03*
X024204Y026500D03*
X023204Y026500D03*
X023204Y027500D03*
X024204Y027500D03*
X024204Y028500D03*
X023204Y028500D03*
X024204Y029500D03*
X024204Y030500D03*
X023204Y030500D03*
X024204Y031500D03*
X022204Y025500D03*
X022204Y024500D03*
X022204Y023500D03*
X022204Y022500D03*
X022204Y021500D03*
X022204Y020500D03*
X022204Y019500D03*
X021204Y019500D03*
X021204Y020500D03*
X021204Y021500D03*
X021204Y022500D03*
X021204Y023500D03*
X021204Y024500D03*
X021204Y025500D03*
D17*
X006704Y026250D03*
X005704Y026750D03*
X006704Y027250D03*
X005704Y027750D03*
X006704Y028250D03*
X005704Y028750D03*
X006704Y029250D03*
X006704Y020250D03*
X005704Y019750D03*
X006704Y019250D03*
X005704Y018750D03*
X006704Y018250D03*
X005704Y017750D03*
X006704Y017250D03*
X006704Y011250D03*
X005704Y010750D03*
X006704Y010250D03*
X005704Y009750D03*
X006704Y009250D03*
X005704Y008750D03*
X006704Y008250D03*
X036704Y008750D03*
X037704Y009250D03*
X036704Y009750D03*
X037704Y010250D03*
X036704Y010750D03*
X037704Y011250D03*
X036704Y011750D03*
X036704Y017750D03*
X037704Y018250D03*
X036704Y018750D03*
X037704Y019250D03*
X036704Y019750D03*
X037704Y020250D03*
X036704Y020750D03*
X036704Y027250D03*
X037704Y027750D03*
X036704Y028250D03*
X037704Y028750D03*
X036704Y029250D03*
X037704Y029750D03*
X036704Y030250D03*
D18*
X037704Y026750D03*
X037704Y017250D03*
X037704Y008250D03*
X005704Y011750D03*
X005704Y020750D03*
X005704Y029750D03*
D19*
X003204Y030250D03*
X003204Y025750D03*
X003204Y021250D03*
X003204Y016750D03*
X003204Y012250D03*
X003204Y007750D03*
X040204Y007750D03*
X040204Y012250D03*
X040204Y016750D03*
X040204Y021250D03*
X040204Y026250D03*
X040204Y030750D03*
D20*
X024204Y003105D02*
X024204Y002395D01*
X022204Y002395D02*
X022204Y003105D01*
X020204Y003105D02*
X020204Y002395D01*
X018204Y002395D02*
X018204Y003105D01*
M02*
