G75*
%MOIN*%
%OFA0B0*%
%FSLAX24Y24*%
%IPPOS*%
%LPD*%
%AMOC8*
5,1,8,0,0,1.08239X$1,22.5*
%
%ADD10C,0.1080*%
%ADD11OC8,0.1080*%
%ADD12C,0.0670*%
%ADD13C,0.1360*%
%ADD14C,0.0674*%
%ADD15R,0.0674X0.0674*%
%ADD16C,0.0790*%
%ADD17C,0.0792*%
%ADD18C,0.0720*%
%ADD19C,0.0965*%
%ADD20R,0.0671X0.0671*%
%ADD21R,0.0474X0.0513*%
%ADD22C,0.0680*%
D10*
X022704Y004442D03*
D11*
X022704Y002442D03*
D12*
X010704Y006042D03*
X009704Y006042D03*
X010204Y005042D03*
X009204Y005042D03*
D13*
X003204Y001942D03*
X003204Y006442D03*
X008454Y008542D03*
X011454Y008542D03*
D14*
X006704Y005442D03*
X005704Y004942D03*
X006704Y004442D03*
X005704Y003942D03*
X006704Y003442D03*
X005704Y002942D03*
X006704Y002442D03*
D15*
X005704Y005942D03*
D16*
X021720Y009087D02*
X021720Y009797D01*
X023688Y009797D02*
X023688Y009087D01*
X027849Y007692D02*
X028559Y007692D01*
X028559Y005692D02*
X027849Y005692D01*
X027849Y003692D02*
X028559Y003692D01*
X028559Y001692D02*
X027849Y001692D01*
D17*
X020306Y002192D03*
X008298Y002192D03*
D18*
X012954Y006372D02*
X012954Y007012D01*
X013954Y007012D02*
X013954Y006372D01*
X014954Y006372D02*
X014954Y007012D01*
X022204Y007012D02*
X022204Y006372D01*
X023204Y006372D02*
X023204Y007012D01*
X025134Y003692D02*
X025774Y003692D01*
X025774Y002692D02*
X025134Y002692D01*
X025134Y001692D02*
X025774Y001692D01*
X006774Y008192D02*
X006134Y008192D01*
X006134Y009192D02*
X006774Y009192D01*
D19*
X019454Y009249D02*
X019454Y010134D01*
X019454Y004134D02*
X019454Y003249D01*
D20*
X027265Y009192D03*
X028643Y009192D03*
D21*
X026038Y009192D03*
X025369Y009192D03*
D22*
X025154Y007692D02*
X025754Y007692D01*
X025754Y006692D02*
X025154Y006692D01*
X025154Y005692D02*
X025754Y005692D01*
M02*
