G75*
%MOIN*%
%OFA0B0*%
%FSLAX24Y24*%
%IPPOS*%
%LPD*%
%AMOC8*
5,1,8,0,0,1.08239X$1,22.5*
%
%ADD10C,0.0100*%
%ADD11C,0.0070*%
%ADD12C,0.0030*%
%ADD13C,0.0080*%
%ADD14C,0.0200*%
%ADD15C,0.0020*%
%ADD16C,0.0010*%
%ADD17C,0.0040*%
%ADD18R,0.0197X0.0374*%
%ADD19R,0.1140X0.0340*%
%ADD20R,0.0300X0.0340*%
%ADD21C,0.0079*%
%ADD22C,0.0060*%
%ADD23R,0.0340X0.0160*%
%ADD24C,0.0300*%
%ADD25R,0.0300X0.0200*%
%ADD26R,0.0300X0.0400*%
D10*
X029194Y000945D02*
X029194Y001252D01*
X029194Y001098D02*
X029654Y001098D01*
X029501Y000945D01*
X029424Y000736D02*
X029424Y000429D01*
X029577Y000583D02*
X029271Y000583D01*
X029194Y001461D02*
X029501Y001768D01*
X029577Y001768D01*
X029654Y001691D01*
X029654Y001537D01*
X029577Y001461D01*
X029194Y001461D02*
X029194Y001768D01*
X029347Y001976D02*
X029194Y002130D01*
X029347Y002283D01*
X029654Y002283D01*
X029654Y001976D02*
X029347Y001976D01*
X029271Y002945D02*
X029194Y003022D01*
X029194Y003175D01*
X029271Y003252D01*
X029424Y003252D01*
X029424Y003098D01*
X029577Y002945D02*
X029271Y002945D01*
X029577Y002945D02*
X029654Y003022D01*
X029654Y003175D01*
X029577Y003252D01*
X029654Y003461D02*
X029194Y003461D01*
X029194Y003768D02*
X029654Y003461D01*
X029654Y003768D02*
X029194Y003768D01*
X029194Y003976D02*
X029194Y004206D01*
X029271Y004283D01*
X029577Y004283D01*
X029654Y004206D01*
X029654Y003976D01*
X029194Y003976D01*
X029271Y004695D02*
X029194Y004772D01*
X029194Y004925D01*
X029271Y005002D01*
X029424Y005002D01*
X029424Y004848D01*
X029577Y004695D02*
X029271Y004695D01*
X029577Y004695D02*
X029654Y004772D01*
X029654Y004925D01*
X029577Y005002D01*
X029654Y005211D02*
X029194Y005211D01*
X029194Y005518D02*
X029654Y005211D01*
X029654Y005518D02*
X029194Y005518D01*
X029194Y005726D02*
X029194Y005956D01*
X029271Y006033D01*
X029577Y006033D01*
X029654Y005956D01*
X029654Y005726D01*
X029194Y005726D01*
X029424Y006429D02*
X029424Y006736D01*
X029577Y006583D02*
X029271Y006583D01*
X029194Y006945D02*
X029194Y007252D01*
X029194Y007098D02*
X029654Y007098D01*
X029501Y006945D01*
X029577Y007461D02*
X029654Y007537D01*
X029654Y007691D01*
X029577Y007768D01*
X029501Y007768D01*
X029194Y007461D01*
X029194Y007768D01*
X029347Y007976D02*
X029194Y008130D01*
X029347Y008283D01*
X029654Y008283D01*
X029654Y007976D02*
X029347Y007976D01*
D11*
X024559Y003752D02*
X024559Y003532D01*
X024669Y003642D02*
X024449Y003642D01*
X024300Y003697D02*
X024190Y003807D01*
X024190Y003477D01*
X024300Y003477D02*
X024080Y003477D01*
X023932Y003477D02*
X023712Y003697D01*
X023712Y003752D01*
X023767Y003807D01*
X023877Y003807D01*
X023932Y003752D01*
X023564Y003807D02*
X023564Y003587D01*
X023454Y003477D01*
X023344Y003587D01*
X023344Y003807D01*
X023712Y003477D02*
X023932Y003477D01*
X023932Y002807D02*
X023767Y002807D01*
X023712Y002752D01*
X023712Y002532D01*
X023767Y002477D01*
X023932Y002477D01*
X023932Y002807D01*
X024080Y002807D02*
X024080Y002477D01*
X024300Y002807D01*
X024300Y002477D01*
X024449Y002532D02*
X024449Y002642D01*
X024559Y002642D01*
X024669Y002532D02*
X024614Y002477D01*
X024504Y002477D01*
X024449Y002532D01*
X024669Y002532D02*
X024669Y002752D01*
X024614Y002807D01*
X024504Y002807D01*
X024449Y002752D01*
X024190Y001807D02*
X024190Y001477D01*
X024300Y001477D02*
X024080Y001477D01*
X023932Y001477D02*
X023712Y001697D01*
X023712Y001752D01*
X023767Y001807D01*
X023877Y001807D01*
X023932Y001752D01*
X024190Y001807D02*
X024300Y001697D01*
X024449Y001642D02*
X024669Y001642D01*
X024559Y001752D02*
X024559Y001532D01*
X023932Y001477D02*
X023712Y001477D01*
X023564Y001587D02*
X023454Y001477D01*
X023344Y001587D01*
X023344Y001807D01*
X023564Y001807D02*
X023564Y001587D01*
D12*
X010394Y000707D02*
X010201Y000707D01*
X010297Y000707D02*
X010297Y000997D01*
X010394Y000900D01*
X010495Y000997D02*
X010689Y000997D01*
X010592Y000997D02*
X010592Y000707D01*
X024201Y007755D02*
X024249Y007707D01*
X024346Y007707D01*
X024394Y007755D01*
X024394Y007852D02*
X024297Y007900D01*
X024249Y007900D01*
X024201Y007852D01*
X024201Y007755D01*
X024394Y007852D02*
X024394Y007997D01*
X024201Y007997D01*
X024495Y007997D02*
X024689Y007707D01*
X024495Y007707D02*
X024689Y007997D01*
X016778Y009185D02*
X016730Y009137D01*
X016633Y009137D01*
X016585Y009185D01*
X016483Y009137D02*
X016290Y009330D01*
X016290Y009379D01*
X016338Y009427D01*
X016435Y009427D01*
X016483Y009379D01*
X016585Y009379D02*
X016633Y009427D01*
X016730Y009427D01*
X016778Y009379D01*
X016778Y009185D01*
X016483Y009137D02*
X016290Y009137D01*
X014439Y009255D02*
X014390Y009207D01*
X014294Y009207D01*
X014245Y009255D01*
X014245Y009449D01*
X014439Y009255D01*
X014439Y009449D01*
X014390Y009497D01*
X014294Y009497D01*
X014245Y009449D01*
X014144Y009449D02*
X014096Y009497D01*
X013999Y009497D01*
X013951Y009449D01*
X013951Y009400D01*
X013999Y009352D01*
X014096Y009352D01*
X014144Y009400D01*
X014144Y009449D01*
X014096Y009352D02*
X014144Y009304D01*
X014144Y009255D01*
X014096Y009207D01*
X013999Y009207D01*
X013951Y009255D01*
X013951Y009304D01*
X013999Y009352D01*
X013849Y009207D02*
X013656Y009497D01*
X013555Y009449D02*
X013506Y009497D01*
X013410Y009497D01*
X013361Y009449D01*
X013361Y009400D01*
X013555Y009207D01*
X013361Y009207D01*
X013260Y009255D02*
X013067Y009449D01*
X013067Y009255D01*
X013115Y009207D01*
X013212Y009207D01*
X013260Y009255D01*
X013260Y009449D01*
X013212Y009497D01*
X013115Y009497D01*
X013067Y009449D01*
X012966Y009400D02*
X012869Y009497D01*
X012869Y009207D01*
X012966Y009207D02*
X012772Y009207D01*
X012671Y009352D02*
X012477Y009352D01*
X012526Y009207D02*
X012526Y009497D01*
X012671Y009352D01*
D13*
X012732Y009982D02*
X012592Y009982D01*
X012522Y010052D01*
X012522Y010192D01*
X012592Y010262D01*
X012732Y010262D01*
X012802Y010192D01*
X012802Y010052D01*
X012732Y009982D01*
X012969Y009982D02*
X013039Y010052D01*
X013039Y010332D01*
X013109Y010262D02*
X012969Y010262D01*
X013289Y010192D02*
X013360Y010262D01*
X013500Y010262D01*
X013570Y010192D01*
X013570Y010052D01*
X013500Y009982D01*
X013360Y009982D01*
X013289Y010052D01*
X013289Y010192D01*
X013743Y010262D02*
X013813Y010262D01*
X013953Y010122D01*
X013953Y009982D02*
X013953Y010262D01*
X014134Y010192D02*
X014204Y010122D01*
X014414Y010122D01*
X014414Y009982D02*
X014414Y010402D01*
X014204Y010402D01*
X014134Y010332D01*
X014134Y010192D01*
X012342Y010192D02*
X012342Y010052D01*
X012272Y009982D01*
X012062Y009982D01*
X011882Y010052D02*
X011882Y010192D01*
X011812Y010262D01*
X011671Y010262D01*
X011601Y010192D01*
X011601Y010122D01*
X011882Y010122D01*
X011882Y010052D02*
X011812Y009982D01*
X011671Y009982D01*
X011421Y009982D02*
X011281Y009982D01*
X011351Y009982D02*
X011351Y010402D01*
X011421Y010402D01*
X011114Y010402D02*
X011044Y010402D01*
X011044Y009982D01*
X011114Y009982D02*
X010974Y009982D01*
X010347Y009982D02*
X010347Y010402D01*
X010207Y010262D01*
X010067Y010402D01*
X010067Y009982D01*
X009887Y010052D02*
X009817Y009982D01*
X009676Y009982D01*
X009606Y010052D01*
X009606Y010192D01*
X009676Y010262D01*
X009817Y010262D01*
X009887Y010192D01*
X009887Y010052D01*
X009426Y010052D02*
X009426Y010192D01*
X009356Y010262D01*
X009146Y010262D01*
X009146Y010402D02*
X009146Y009982D01*
X009356Y009982D01*
X009426Y010052D01*
X008966Y010052D02*
X008966Y010262D01*
X008686Y010262D02*
X008686Y009982D01*
X008896Y009982D01*
X008966Y010052D01*
X008505Y009982D02*
X008365Y009982D01*
X008435Y009982D02*
X008435Y010402D01*
X008505Y010402D01*
X008198Y010192D02*
X008128Y010262D01*
X007988Y010262D01*
X007918Y010192D01*
X007918Y010122D01*
X008198Y010122D01*
X008198Y010052D02*
X008128Y009982D01*
X007988Y009982D01*
X008198Y010052D02*
X008198Y010192D01*
X012062Y010262D02*
X012272Y010262D01*
X012342Y010192D01*
X017104Y007982D02*
X017104Y005402D01*
X019464Y005402D01*
X019463Y007982D01*
X019464Y007982D02*
X017104Y007982D01*
X019504Y007702D02*
X019504Y005682D01*
X019784Y005682D01*
X019964Y005862D01*
X019964Y007522D01*
X019784Y007702D01*
X019504Y007702D01*
X013804Y003482D02*
X011444Y003482D01*
X011444Y000902D01*
X013804Y000902D01*
X013804Y003482D01*
X011404Y003202D02*
X011404Y001182D01*
X011124Y001182D01*
X010944Y001362D01*
X010944Y003022D01*
X011124Y003202D01*
X011404Y003202D01*
D14*
X023837Y010425D02*
X023837Y010959D01*
X024104Y010692D02*
X023570Y010692D01*
X021854Y010692D02*
X021320Y010692D01*
D15*
X015444Y005702D02*
X015394Y005752D01*
X015294Y005752D01*
X015244Y005702D01*
X015149Y005752D02*
X015049Y005752D01*
X015099Y005752D02*
X015099Y005452D01*
X015149Y005452D02*
X015049Y005452D01*
X014953Y005502D02*
X014903Y005452D01*
X014803Y005452D01*
X014753Y005502D01*
X014753Y005602D01*
X014853Y005602D01*
X014953Y005702D02*
X014953Y005502D01*
X015244Y005502D02*
X015244Y005552D01*
X015294Y005602D01*
X015394Y005602D01*
X015444Y005652D01*
X015444Y005702D01*
X015444Y005502D02*
X015394Y005452D01*
X015294Y005452D01*
X015244Y005502D01*
X014953Y005702D02*
X014903Y005752D01*
X014803Y005752D01*
X014753Y005702D01*
X014344Y005702D02*
X014294Y005752D01*
X014194Y005752D01*
X014144Y005702D01*
X014144Y005602D02*
X014244Y005602D01*
X014144Y005602D02*
X014144Y005502D01*
X014194Y005452D01*
X014294Y005452D01*
X014344Y005502D01*
X014344Y005702D01*
X014049Y005752D02*
X013849Y005452D01*
X013849Y005752D01*
X013754Y005752D02*
X013604Y005752D01*
X013554Y005702D01*
X013554Y005502D01*
X013604Y005452D01*
X013754Y005452D01*
X013754Y005752D01*
X014049Y005752D02*
X014049Y005452D01*
X013244Y005502D02*
X013194Y005452D01*
X013094Y005452D01*
X013044Y005502D01*
X013044Y005602D01*
X013094Y005652D01*
X013144Y005652D01*
X013244Y005602D01*
X013244Y005752D01*
X013044Y005752D01*
X012949Y005752D02*
X012949Y005552D01*
X012849Y005452D01*
X012749Y005552D01*
X012749Y005752D01*
D16*
X003699Y007697D02*
X003699Y007927D01*
X003584Y007927D01*
X003545Y007889D01*
X003545Y007812D01*
X003584Y007774D01*
X003699Y007774D01*
X003478Y007697D02*
X003401Y007774D01*
X003324Y007697D01*
X003324Y007927D01*
X003257Y007927D02*
X003180Y007850D01*
X003103Y007927D01*
X003103Y007697D01*
X003036Y007697D02*
X002882Y007697D01*
X002959Y007697D02*
X002959Y007927D01*
X003036Y007850D01*
X003257Y007927D02*
X003257Y007697D01*
X003478Y007697D02*
X003478Y007927D01*
X003536Y009447D02*
X003382Y009447D01*
X003315Y009485D02*
X003276Y009447D01*
X003200Y009447D01*
X003161Y009485D01*
X003161Y009639D01*
X003200Y009677D01*
X003276Y009677D01*
X003315Y009639D01*
X003315Y009485D01*
X003094Y009485D02*
X003055Y009447D01*
X002979Y009447D01*
X002940Y009485D01*
X002940Y009562D01*
X003017Y009562D01*
X002940Y009639D02*
X002979Y009677D01*
X003055Y009677D01*
X003094Y009639D01*
X003094Y009485D01*
X002873Y009447D02*
X002719Y009447D01*
X002796Y009447D02*
X002796Y009677D01*
X002873Y009600D01*
X003536Y009677D02*
X003536Y009447D01*
X003603Y009447D02*
X003603Y009600D01*
X003680Y009677D01*
X003757Y009600D01*
X003757Y009447D01*
X003824Y009447D02*
X003824Y009677D01*
X003757Y009562D02*
X003603Y009562D01*
X003824Y009447D02*
X003978Y009677D01*
X003978Y009447D01*
X004045Y009447D02*
X004045Y009600D01*
X004122Y009677D01*
X004199Y009600D01*
X004199Y009447D01*
X004199Y009562D02*
X004045Y009562D01*
D17*
X013916Y005346D02*
X013993Y005422D01*
X014147Y005422D01*
X014223Y005346D01*
X014377Y005346D02*
X014454Y005422D01*
X014607Y005422D01*
X014684Y005346D01*
X014684Y005039D01*
X014607Y004962D01*
X014454Y004962D01*
X014377Y005039D01*
X014223Y005039D02*
X014147Y004962D01*
X013993Y004962D01*
X013916Y005039D01*
X013916Y005115D01*
X013993Y005192D01*
X014070Y005192D01*
X013993Y005192D02*
X013916Y005269D01*
X013916Y005346D01*
X014314Y004862D02*
X014594Y004862D01*
X014594Y004527D02*
X014314Y004527D01*
X017087Y004712D02*
X017394Y004712D01*
X017241Y004712D02*
X017241Y005172D01*
X017394Y005019D01*
X017548Y005096D02*
X017624Y005172D01*
X017778Y005172D01*
X017855Y005096D01*
X017855Y004789D01*
X017778Y004712D01*
X017624Y004712D01*
X017548Y004789D01*
X018008Y004712D02*
X018161Y004712D01*
X018085Y004712D02*
X018085Y005172D01*
X018161Y005172D02*
X018008Y005172D01*
X016857Y003229D02*
X016934Y003153D01*
X016934Y002999D01*
X016857Y002922D01*
X016857Y002769D02*
X016704Y002769D01*
X016627Y002692D01*
X016627Y002462D01*
X016474Y002462D02*
X016934Y002462D01*
X016934Y002692D01*
X016857Y002769D01*
X016627Y002615D02*
X016474Y002769D01*
X016474Y002922D02*
X016781Y003229D01*
X016857Y003229D01*
X016474Y003229D02*
X016474Y002922D01*
X023627Y006212D02*
X023934Y006212D01*
X023780Y006212D02*
X023780Y006672D01*
X023934Y006519D01*
X016594Y008522D02*
X016314Y008522D01*
X016314Y008857D02*
X016594Y008857D01*
D18*
X016682Y008690D03*
X016222Y008690D03*
X014685Y004694D03*
X014225Y004694D03*
D19*
X016494Y005792D03*
X016494Y007592D03*
X014414Y003092D03*
X014414Y001292D03*
D20*
X013994Y002192D03*
X016914Y006692D03*
D21*
X019504Y006674D02*
X019964Y006674D01*
X019964Y006751D02*
X019504Y006751D01*
X019504Y006828D02*
X019964Y006828D01*
X019964Y006905D02*
X019504Y006905D01*
X019504Y006982D02*
X019964Y006982D01*
X019964Y007059D02*
X019504Y007059D01*
X019504Y007136D02*
X019964Y007136D01*
X019964Y007214D02*
X019504Y007214D01*
X019504Y007291D02*
X019964Y007291D01*
X019964Y007368D02*
X019504Y007368D01*
X019504Y007445D02*
X019964Y007445D01*
X019964Y007522D02*
X019784Y007702D01*
X019504Y007702D01*
X019504Y005682D01*
X019784Y005682D01*
X019964Y005862D01*
X019964Y007522D01*
X019963Y007522D02*
X019504Y007522D01*
X019504Y007599D02*
X019886Y007599D01*
X019809Y007677D02*
X019504Y007677D01*
X019504Y006596D02*
X019964Y006596D01*
X019964Y006519D02*
X019504Y006519D01*
X019504Y006442D02*
X019964Y006442D01*
X019964Y006365D02*
X019504Y006365D01*
X019504Y006288D02*
X019964Y006288D01*
X019964Y006211D02*
X019504Y006211D01*
X019504Y006133D02*
X019964Y006133D01*
X019964Y006056D02*
X019504Y006056D01*
X019504Y005979D02*
X019964Y005979D01*
X019964Y005902D02*
X019504Y005902D01*
X019504Y005825D02*
X019927Y005825D01*
X019849Y005748D02*
X019504Y005748D01*
X011404Y003202D02*
X011404Y001182D01*
X011124Y001182D01*
X010944Y001362D01*
X010944Y003022D01*
X011124Y003202D01*
X011404Y003202D01*
X011404Y003201D02*
X011123Y003201D01*
X011046Y003124D02*
X011404Y003124D01*
X011404Y003047D02*
X010969Y003047D01*
X010944Y002970D02*
X011404Y002970D01*
X011404Y002893D02*
X010944Y002893D01*
X010944Y002815D02*
X011404Y002815D01*
X011404Y002738D02*
X010944Y002738D01*
X010944Y002661D02*
X011404Y002661D01*
X011404Y002584D02*
X010944Y002584D01*
X010944Y002507D02*
X011404Y002507D01*
X011404Y002430D02*
X010944Y002430D01*
X010944Y002352D02*
X011404Y002352D01*
X011404Y002275D02*
X010944Y002275D01*
X010944Y002198D02*
X011404Y002198D01*
X011404Y002121D02*
X010944Y002121D01*
X010944Y002044D02*
X011404Y002044D01*
X011404Y001967D02*
X010944Y001967D01*
X010944Y001889D02*
X011404Y001889D01*
X011404Y001812D02*
X010944Y001812D01*
X010944Y001735D02*
X011404Y001735D01*
X011404Y001658D02*
X010944Y001658D01*
X010944Y001581D02*
X011404Y001581D01*
X011404Y001504D02*
X010944Y001504D01*
X010944Y001427D02*
X011404Y001427D01*
X011404Y001349D02*
X010956Y001349D01*
X011034Y001272D02*
X011404Y001272D01*
X011404Y001195D02*
X011111Y001195D01*
D22*
X016064Y002522D02*
X016064Y002862D01*
X016344Y002862D02*
X016344Y002522D01*
X021704Y007442D02*
X021704Y008442D01*
X022704Y008442D01*
X023704Y008442D01*
X023704Y007442D01*
X022704Y007442D01*
X021704Y007442D01*
X022704Y007442D02*
X022704Y008442D01*
D23*
X016204Y002942D03*
X016204Y002442D03*
D24*
X022204Y008692D02*
X022204Y010942D01*
X023204Y010942D02*
X023204Y008692D01*
D25*
X023204Y008542D03*
X022204Y008542D03*
D26*
X022204Y007242D03*
X023204Y007242D03*
M02*
