%
M48
M72
T01C0.0236
T02C0.0350
T03C0.0354
T04C0.0360
T05C0.0400
T06C0.0470
T07C0.0472
T08C0.0590
T09C0.1280
%
T01
X4954Y1692
X16204Y6692
X16204Y9692
X17954Y9692
X5954Y10442
X21204Y3192
X17954Y1692
T02
X10204Y5042
X9204Y5042
X9704Y6042
X10704Y6042
T03
X6704Y5442
X5704Y5942
X5704Y4942
X6704Y4442
X5704Y3942
X6704Y3442
X5704Y2942
X6704Y2442
T04
X25454Y5692
X25454Y6692
X25454Y7692
T05
X23204Y6692
X22204Y6692
X22704Y4442
X25454Y3692
X25454Y2692
X25454Y1692
X22704Y2442
X14954Y6692
X13954Y6692
X12954Y6692
X6454Y8192
X6454Y9192
T06
X21720Y9442
X23688Y9442
X28204Y7692
X28204Y5692
X28204Y3692
X28204Y1692
T07
X20306Y2192
X8298Y2192
T08
X19454Y3692
X19454Y9692
T09
X3204Y1942
X3204Y6442
X8454Y8542
X11454Y8542
M30
