G75*
%MOIN*%
%OFA0B0*%
%FSLAX24Y24*%
%IPPOS*%
%LPD*%
%AMOC8*
5,1,8,0,0,1.08239X$1,22.5*
%
%ADD10C,0.1000*%
%ADD11OC8,0.1000*%
%ADD12R,0.0433X0.0394*%
%ADD13C,0.0590*%
%ADD14C,0.0594*%
%ADD15R,0.0594X0.0594*%
%ADD16R,0.2441X0.2126*%
%ADD17R,0.0630X0.0394*%
%ADD18C,0.0710*%
%ADD19C,0.0712*%
%ADD20C,0.0640*%
%ADD21C,0.0885*%
%ADD22C,0.0600*%
%ADD23C,0.0320*%
%ADD24C,0.0240*%
%ADD25C,0.0120*%
%ADD26C,0.0436*%
D10*
X022704Y004442D03*
D11*
X022704Y002442D03*
D12*
X016204Y002357D03*
X016204Y003027D03*
X014788Y004692D03*
X014119Y004692D03*
X016119Y008692D03*
X016788Y008692D03*
D13*
X010704Y006042D03*
X009704Y006042D03*
X010204Y005042D03*
X009204Y005042D03*
D14*
X006704Y005442D03*
X005704Y004942D03*
X006704Y004442D03*
X005704Y003942D03*
X006704Y003442D03*
X005704Y002942D03*
X006704Y002442D03*
D15*
X005704Y005942D03*
D16*
X011970Y002192D03*
X018938Y006692D03*
D17*
X016064Y007590D03*
X016064Y005794D03*
X014844Y003090D03*
X014844Y001294D03*
D18*
X027849Y001692D02*
X028559Y001692D01*
X028559Y003692D02*
X027849Y003692D01*
X027849Y005692D02*
X028559Y005692D01*
X028559Y007692D02*
X027849Y007692D01*
X023688Y009087D02*
X023688Y009797D01*
X021720Y009797D02*
X021720Y009087D01*
D19*
X020306Y002192D03*
X008298Y002192D03*
D20*
X012954Y006372D02*
X012954Y007012D01*
X013954Y007012D02*
X013954Y006372D01*
X014954Y006372D02*
X014954Y007012D01*
X022204Y007012D02*
X022204Y006372D01*
X023204Y006372D02*
X023204Y007012D01*
X025134Y003692D02*
X025774Y003692D01*
X025774Y002692D02*
X025134Y002692D01*
X025134Y001692D02*
X025774Y001692D01*
X006774Y008192D02*
X006134Y008192D01*
X006134Y009192D02*
X006774Y009192D01*
D21*
X019454Y009249D02*
X019454Y010134D01*
X019454Y004134D02*
X019454Y003249D01*
D22*
X025154Y005692D02*
X025754Y005692D01*
X025754Y006692D02*
X025154Y006692D01*
X025154Y007692D02*
X025754Y007692D01*
D23*
X018454Y003692D02*
X016351Y005794D01*
X016064Y005794D01*
X012954Y006692D02*
X012954Y007692D01*
X013454Y008192D01*
X014954Y008192D01*
X015454Y007692D01*
X015962Y007692D01*
X016064Y007590D01*
X012954Y006692D02*
X012304Y006042D01*
X010704Y006042D01*
X009704Y006042D02*
X009704Y006442D01*
X009954Y006692D01*
X009954Y009192D01*
X008954Y010192D01*
X006954Y010192D01*
X006454Y009692D01*
X006454Y009192D01*
X005954Y009192D01*
X004454Y007692D01*
X004454Y004692D01*
X005204Y003942D01*
X005704Y003942D01*
X008298Y002192D02*
X011970Y002192D01*
X014844Y003090D02*
X016141Y003090D01*
X016204Y003027D01*
X018454Y003692D02*
X019454Y003692D01*
D24*
X014844Y003302D02*
X014844Y003090D01*
X014844Y003302D02*
X014454Y003692D01*
X008954Y003692D01*
X007954Y004692D01*
X007954Y005692D01*
X007454Y006192D01*
X006454Y007192D01*
X006454Y008192D01*
X005954Y006192D02*
X005704Y005942D01*
X005954Y006192D02*
X007454Y006192D01*
X013954Y006692D02*
X013954Y004857D01*
X014119Y004692D01*
X014788Y004692D02*
X014954Y004857D01*
X014954Y006692D01*
X016064Y007590D02*
X016064Y008637D01*
X016119Y008692D01*
D25*
X002254Y010888D02*
X002254Y000492D01*
X029524Y000492D01*
X029524Y010888D01*
X002254Y010888D01*
X002254Y010857D02*
X029524Y010857D01*
X029446Y010888D02*
X029446Y000492D01*
X029524Y000547D02*
X002254Y000547D01*
X002309Y000492D02*
X002309Y001645D01*
X002322Y001614D02*
X002254Y001614D01*
X002254Y001732D02*
X002273Y001732D01*
X002264Y001755D02*
X002407Y001409D01*
X002671Y001145D01*
X003017Y001002D01*
X003391Y001002D01*
X003736Y001145D01*
X004001Y001409D01*
X004144Y001755D01*
X004144Y002129D01*
X004001Y002474D01*
X003736Y002739D01*
X003391Y002882D01*
X003017Y002882D01*
X002671Y002739D01*
X002407Y002474D01*
X002264Y002129D01*
X002264Y001755D01*
X002254Y001851D02*
X002264Y001851D01*
X002254Y001969D02*
X002264Y001969D01*
X002254Y002088D02*
X002264Y002088D01*
X002254Y002206D02*
X002296Y002206D01*
X002309Y002239D02*
X002309Y006145D01*
X002321Y006117D02*
X002254Y006117D01*
X002254Y006235D02*
X002272Y006235D01*
X002264Y006255D02*
X002407Y005909D01*
X002671Y005645D01*
X003017Y005502D01*
X003391Y005502D01*
X003736Y005645D01*
X003994Y005903D01*
X003994Y004600D01*
X004064Y004431D01*
X004193Y004302D01*
X004943Y003552D01*
X005112Y003482D01*
X005319Y003482D01*
X005359Y003442D01*
X005198Y003280D01*
X005107Y003061D01*
X005107Y002823D01*
X005198Y002604D01*
X005366Y002436D01*
X005585Y002345D01*
X005823Y002345D01*
X006042Y002436D01*
X006107Y002500D01*
X006107Y002323D01*
X006198Y002104D01*
X006366Y001936D01*
X006585Y001845D01*
X006823Y001845D01*
X007042Y001936D01*
X007210Y002104D01*
X007301Y002323D01*
X007301Y002561D01*
X007210Y002780D01*
X007048Y002942D01*
X007210Y003104D01*
X007301Y003323D01*
X007301Y003561D01*
X007210Y003780D01*
X007048Y003942D01*
X007210Y004104D01*
X007301Y004323D01*
X007301Y004561D01*
X007210Y004780D01*
X007048Y004942D01*
X007210Y005104D01*
X007301Y005323D01*
X007301Y005561D01*
X007213Y005772D01*
X007280Y005772D01*
X007534Y005518D01*
X007534Y004608D01*
X007598Y004454D01*
X007716Y004336D01*
X008716Y003336D01*
X008870Y003272D01*
X010449Y003272D01*
X010449Y002652D01*
X008766Y002652D01*
X008670Y002748D01*
X008429Y002848D01*
X008168Y002848D01*
X007927Y002748D01*
X007742Y002564D01*
X007642Y002322D01*
X007642Y002061D01*
X007742Y001820D01*
X007927Y001636D01*
X008168Y001536D01*
X008429Y001536D01*
X008670Y001636D01*
X008766Y001732D01*
X010449Y001732D01*
X010449Y001069D01*
X010495Y000959D01*
X010579Y000875D01*
X010689Y000829D01*
X013250Y000829D01*
X013360Y000875D01*
X013444Y000959D01*
X013490Y001069D01*
X013490Y003272D01*
X014229Y003272D01*
X014229Y002833D01*
X014274Y002723D01*
X014359Y002638D01*
X014469Y002593D01*
X015218Y002593D01*
X015307Y002630D01*
X015763Y002630D01*
X015817Y002575D01*
X015827Y002571D01*
X015827Y002396D01*
X016165Y002396D01*
X016165Y002319D01*
X015827Y002319D01*
X015827Y002139D01*
X015838Y002099D01*
X015859Y002062D01*
X015889Y002032D01*
X015925Y002011D01*
X015966Y002000D01*
X016165Y002000D01*
X016165Y002319D01*
X016242Y002319D01*
X016242Y002000D01*
X016441Y002000D01*
X016482Y002011D01*
X016519Y002032D01*
X016548Y002062D01*
X016569Y002099D01*
X016580Y002139D01*
X016580Y002319D01*
X016242Y002319D01*
X016242Y002396D01*
X016580Y002396D01*
X016580Y002571D01*
X016590Y002575D01*
X016675Y002660D01*
X016720Y002770D01*
X016720Y003283D01*
X016675Y003393D01*
X016590Y003478D01*
X016480Y003523D01*
X016295Y003523D01*
X016232Y003550D01*
X015307Y003550D01*
X015218Y003586D01*
X015153Y003586D01*
X014810Y003930D01*
X014692Y004048D01*
X014537Y004112D01*
X009128Y004112D01*
X008374Y004866D01*
X008374Y005775D01*
X008310Y005930D01*
X007810Y006430D01*
X006874Y007366D01*
X006874Y007572D01*
X006897Y007572D01*
X007125Y007666D01*
X007299Y007841D01*
X007394Y008069D01*
X007394Y008315D01*
X007299Y008543D01*
X007151Y008692D01*
X007299Y008841D01*
X007394Y009069D01*
X007394Y009315D01*
X007299Y009543D01*
X007127Y009715D01*
X007144Y009732D01*
X008763Y009732D01*
X009494Y009001D01*
X009494Y006882D01*
X009443Y006832D01*
X009314Y006702D01*
X009244Y006533D01*
X009244Y006423D01*
X009199Y006379D01*
X009109Y006160D01*
X009109Y005924D01*
X009199Y005705D01*
X009267Y005637D01*
X009085Y005637D01*
X008867Y005546D01*
X008699Y005379D01*
X008609Y005160D01*
X008609Y004924D01*
X008699Y004705D01*
X008867Y004538D01*
X009085Y004447D01*
X009322Y004447D01*
X009541Y004538D01*
X009708Y004705D01*
X009779Y004876D01*
X009782Y004867D01*
X009815Y004803D01*
X009857Y004746D01*
X009907Y004695D01*
X009698Y004695D01*
X009656Y004653D02*
X009656Y004112D01*
X009538Y004112D02*
X009538Y004536D01*
X009580Y004576D02*
X013743Y004576D01*
X013743Y004654D02*
X013743Y004474D01*
X013754Y004433D01*
X013775Y004397D01*
X013804Y004367D01*
X013841Y004346D01*
X013882Y004335D01*
X014081Y004335D01*
X014081Y004653D01*
X014158Y004653D01*
X014158Y004335D01*
X014313Y004335D01*
X014318Y004325D01*
X014402Y004241D01*
X014512Y004195D01*
X015065Y004195D01*
X015175Y004241D01*
X015259Y004325D01*
X015305Y004435D01*
X015305Y004614D01*
X015310Y004619D01*
X015374Y004774D01*
X015374Y005915D01*
X015449Y005990D01*
X015449Y005538D01*
X015495Y005428D01*
X015579Y005343D01*
X015689Y005297D01*
X016198Y005297D01*
X018064Y003431D01*
X018193Y003302D01*
X018362Y003232D01*
X018711Y003232D01*
X018711Y003102D01*
X018824Y002829D01*
X019033Y002620D01*
X019306Y002507D01*
X019601Y002507D01*
X019758Y002572D01*
X019750Y002564D01*
X019650Y002322D01*
X019650Y002061D01*
X019750Y001820D01*
X019934Y001636D01*
X020176Y001536D01*
X020437Y001536D01*
X020678Y001636D01*
X020862Y001820D01*
X020962Y002061D01*
X020962Y002322D01*
X020862Y002564D01*
X020678Y002748D01*
X020437Y002848D01*
X020176Y002848D01*
X020051Y002796D01*
X020083Y002829D01*
X020196Y003102D01*
X020196Y004282D01*
X020083Y004555D01*
X019874Y004764D01*
X019601Y004877D01*
X019306Y004877D01*
X019033Y004764D01*
X018824Y004555D01*
X018711Y004282D01*
X018711Y004152D01*
X018644Y004152D01*
X016612Y006184D01*
X016609Y006186D01*
X016549Y006245D01*
X016439Y006291D01*
X015689Y006291D01*
X015579Y006245D01*
X015568Y006234D01*
X015574Y006249D01*
X015574Y007135D01*
X015568Y007150D01*
X015579Y007138D01*
X015689Y007093D01*
X016439Y007093D01*
X016549Y007138D01*
X016633Y007223D01*
X016679Y007333D01*
X016679Y007846D01*
X016633Y007956D01*
X016549Y008041D01*
X016484Y008068D01*
X016484Y008232D01*
X016506Y008241D01*
X016590Y008325D01*
X016594Y008335D01*
X016750Y008335D01*
X016750Y008653D01*
X016827Y008653D01*
X016827Y008335D01*
X017026Y008335D01*
X017067Y008346D01*
X017103Y008367D01*
X017133Y008397D01*
X017154Y008433D01*
X017165Y008474D01*
X017165Y008654D01*
X016827Y008654D01*
X016827Y008730D01*
X017165Y008730D01*
X017165Y008910D01*
X017154Y008951D01*
X017133Y008987D01*
X017103Y009017D01*
X017067Y009038D01*
X017026Y009049D01*
X016827Y009049D01*
X016827Y008730D01*
X016750Y008730D01*
X016750Y009049D01*
X016594Y009049D01*
X016590Y009059D01*
X016506Y009143D01*
X016395Y009189D01*
X015843Y009189D01*
X015733Y009143D01*
X015648Y009059D01*
X015603Y008948D01*
X015603Y008435D01*
X015644Y008335D01*
X015644Y008152D01*
X015214Y008582D01*
X015045Y008652D01*
X013362Y008652D01*
X013193Y008582D01*
X013064Y008452D01*
X012564Y007952D01*
X012494Y007783D01*
X012494Y007429D01*
X012428Y007363D01*
X012334Y007135D01*
X012334Y006722D01*
X012113Y006502D01*
X011085Y006502D01*
X011041Y006546D01*
X010822Y006637D01*
X010585Y006637D01*
X010396Y006559D01*
X010414Y006600D01*
X010414Y009283D01*
X010344Y009452D01*
X009214Y010582D01*
X009045Y010652D01*
X006862Y010652D01*
X006693Y010582D01*
X006564Y010452D01*
X006064Y009952D01*
X006005Y009809D01*
X005783Y009718D01*
X005608Y009543D01*
X005575Y009464D01*
X005564Y009452D01*
X004064Y007952D01*
X003994Y007783D01*
X003994Y006981D01*
X003736Y007239D01*
X003391Y007382D01*
X003017Y007382D01*
X002671Y007239D01*
X002407Y006974D01*
X002264Y006629D01*
X002264Y006255D01*
X002254Y006354D02*
X002264Y006354D01*
X002254Y006472D02*
X002264Y006472D01*
X002254Y006591D02*
X002264Y006591D01*
X002254Y006709D02*
X002297Y006709D01*
X002309Y006739D02*
X002309Y010888D01*
X002428Y010888D02*
X002428Y006995D01*
X002395Y006946D02*
X002254Y006946D01*
X002254Y006828D02*
X002346Y006828D01*
X002254Y007065D02*
X002497Y007065D01*
X002546Y007114D02*
X002546Y010888D01*
X002665Y010888D02*
X002665Y007232D01*
X002616Y007183D02*
X002254Y007183D01*
X002254Y007302D02*
X002824Y007302D01*
X002783Y007285D02*
X002783Y010888D01*
X002902Y010888D02*
X002902Y007334D01*
X003020Y007382D02*
X003020Y010888D01*
X003139Y010888D02*
X003139Y007382D01*
X003257Y007382D02*
X003257Y010888D01*
X003376Y010888D02*
X003376Y007382D01*
X003494Y007339D02*
X003494Y010888D01*
X003613Y010888D02*
X003613Y007290D01*
X003584Y007302D02*
X003994Y007302D01*
X003994Y007420D02*
X002254Y007420D01*
X002254Y007539D02*
X003994Y007539D01*
X003994Y007657D02*
X002254Y007657D01*
X002254Y007776D02*
X003994Y007776D01*
X004040Y007894D02*
X002254Y007894D01*
X002254Y008013D02*
X004124Y008013D01*
X004087Y007975D02*
X004087Y010888D01*
X004205Y010888D02*
X004205Y008094D01*
X004243Y008131D02*
X002254Y008131D01*
X002254Y008250D02*
X004361Y008250D01*
X004324Y008212D02*
X004324Y010888D01*
X004442Y010888D02*
X004442Y008331D01*
X004480Y008368D02*
X002254Y008368D01*
X002254Y008487D02*
X004598Y008487D01*
X004561Y008449D02*
X004561Y010888D01*
X004679Y010888D02*
X004679Y008568D01*
X004717Y008605D02*
X002254Y008605D01*
X002254Y008724D02*
X004835Y008724D01*
X004798Y008686D02*
X004798Y010888D01*
X004916Y010888D02*
X004916Y008805D01*
X004954Y008842D02*
X002254Y008842D01*
X002254Y008961D02*
X005072Y008961D01*
X005035Y008923D02*
X005035Y010888D01*
X005153Y010888D02*
X005153Y009042D01*
X005191Y009079D02*
X002254Y009079D01*
X002254Y009198D02*
X005309Y009198D01*
X005272Y009160D02*
X005272Y010888D01*
X005390Y010888D02*
X005390Y009279D01*
X005428Y009316D02*
X002254Y009316D01*
X002254Y009435D02*
X005546Y009435D01*
X005509Y009397D02*
X005509Y010888D01*
X005627Y010888D02*
X005627Y009562D01*
X005618Y009553D02*
X002254Y009553D01*
X002254Y009672D02*
X005737Y009672D01*
X005746Y009681D02*
X005746Y010888D01*
X005864Y010888D02*
X005864Y009751D01*
X005959Y009790D02*
X002254Y009790D01*
X002254Y009909D02*
X006046Y009909D01*
X006101Y009990D02*
X006101Y010888D01*
X005983Y010888D02*
X005983Y009800D01*
X006139Y010027D02*
X002254Y010027D01*
X002254Y010146D02*
X006257Y010146D01*
X006220Y010108D02*
X006220Y010888D01*
X006338Y010888D02*
X006338Y010227D01*
X006376Y010264D02*
X002254Y010264D01*
X002254Y010383D02*
X006494Y010383D01*
X006457Y010345D02*
X006457Y010888D01*
X006575Y010888D02*
X006575Y010464D01*
X006613Y010501D02*
X002254Y010501D01*
X002254Y010620D02*
X006785Y010620D01*
X006812Y010631D02*
X006812Y010888D01*
X006694Y010888D02*
X006694Y010582D01*
X006931Y010652D02*
X006931Y010888D01*
X007049Y010888D02*
X007049Y010652D01*
X007168Y010652D02*
X007168Y010888D01*
X007286Y010888D02*
X007286Y010652D01*
X007405Y010652D02*
X007405Y010888D01*
X007523Y010888D02*
X007523Y010652D01*
X007642Y010652D02*
X007642Y010888D01*
X007760Y010888D02*
X007760Y010652D01*
X007879Y010652D02*
X007879Y010888D01*
X007997Y010888D02*
X007997Y010652D01*
X008116Y010652D02*
X008116Y010888D01*
X008234Y010888D02*
X008234Y010652D01*
X008353Y010652D02*
X008353Y010888D01*
X008471Y010888D02*
X008471Y010652D01*
X008590Y010652D02*
X008590Y010888D01*
X008708Y010888D02*
X008708Y010652D01*
X008827Y010652D02*
X008827Y010888D01*
X008945Y010888D02*
X008945Y010652D01*
X009064Y010644D02*
X009064Y010888D01*
X009182Y010888D02*
X009182Y010595D01*
X009122Y010620D02*
X019097Y010620D01*
X019061Y010594D02*
X018994Y010527D01*
X018938Y010450D01*
X018895Y010366D01*
X018866Y010276D01*
X018851Y010182D01*
X018851Y009752D01*
X019394Y009752D01*
X019394Y010735D01*
X019313Y010722D01*
X019222Y010693D01*
X019138Y010650D01*
X019061Y010594D01*
X019018Y010551D02*
X019018Y010888D01*
X019136Y010888D02*
X019136Y010649D01*
X019255Y010703D02*
X019255Y010888D01*
X019373Y010888D02*
X019373Y010732D01*
X019394Y010620D02*
X019514Y010620D01*
X019514Y010735D02*
X019514Y009752D01*
X020056Y009752D01*
X020056Y010182D01*
X020041Y010276D01*
X020012Y010366D01*
X019969Y010450D01*
X019913Y010527D01*
X019846Y010594D01*
X019770Y010650D01*
X019685Y010693D01*
X019595Y010722D01*
X019514Y010735D01*
X019610Y010717D02*
X019610Y010888D01*
X019492Y010888D02*
X019492Y009752D01*
X019514Y009752D02*
X019394Y009752D01*
X019394Y009632D01*
X019514Y009632D01*
X019514Y009752D01*
X019514Y009790D02*
X019394Y009790D01*
X019373Y009752D02*
X019373Y009632D01*
X019394Y009632D02*
X018851Y009632D01*
X018851Y009202D01*
X018866Y009108D01*
X018895Y009018D01*
X018938Y008934D01*
X018994Y008857D01*
X019061Y008790D01*
X019138Y008734D01*
X019222Y008691D01*
X019313Y008662D01*
X019394Y008649D01*
X019394Y009632D01*
X019394Y009672D02*
X010124Y009672D01*
X010130Y009666D02*
X010130Y010888D01*
X010012Y010888D02*
X010012Y009784D01*
X010006Y009790D02*
X018851Y009790D01*
X018899Y009752D02*
X018899Y009632D01*
X018851Y009553D02*
X010243Y009553D01*
X010249Y009547D02*
X010249Y010888D01*
X010367Y010888D02*
X010367Y009396D01*
X010351Y009435D02*
X011153Y009435D01*
X011197Y009453D02*
X011197Y010888D01*
X011315Y010888D02*
X011315Y009482D01*
X011267Y009482D02*
X010921Y009339D01*
X010657Y009074D01*
X010514Y008729D01*
X010514Y008355D01*
X010657Y008009D01*
X010921Y007745D01*
X011267Y007602D01*
X011641Y007602D01*
X011986Y007745D01*
X012251Y008009D01*
X012394Y008355D01*
X012394Y008729D01*
X012251Y009074D01*
X011986Y009339D01*
X011641Y009482D01*
X011267Y009482D01*
X011434Y009482D02*
X011434Y010888D01*
X011552Y010888D02*
X011552Y009482D01*
X011671Y009469D02*
X011671Y010888D01*
X011789Y010888D02*
X011789Y009420D01*
X011754Y009435D02*
X018851Y009435D01*
X018851Y009316D02*
X012009Y009316D01*
X012026Y009299D02*
X012026Y010888D01*
X011908Y010888D02*
X011908Y009371D01*
X012127Y009198D02*
X018852Y009198D01*
X018876Y009079D02*
X016569Y009079D01*
X016529Y009119D02*
X016529Y010888D01*
X016411Y010888D02*
X016411Y009182D01*
X016292Y009189D02*
X016292Y010888D01*
X016174Y010888D02*
X016174Y009189D01*
X016055Y009189D02*
X016055Y010888D01*
X015937Y010888D02*
X015937Y009189D01*
X015818Y009179D02*
X015818Y010888D01*
X015700Y010888D02*
X015700Y009110D01*
X015669Y009079D02*
X012246Y009079D01*
X012263Y009044D02*
X012263Y010888D01*
X012145Y010888D02*
X012145Y009180D01*
X012298Y008961D02*
X015608Y008961D01*
X015603Y008842D02*
X012347Y008842D01*
X012382Y008758D02*
X012382Y010888D01*
X012500Y010888D02*
X012500Y007799D01*
X012494Y007776D02*
X012017Y007776D01*
X012026Y007785D02*
X012026Y006502D01*
X011908Y006502D02*
X011908Y007713D01*
X011789Y007663D02*
X011789Y006502D01*
X011671Y006502D02*
X011671Y007614D01*
X011775Y007657D02*
X012494Y007657D01*
X012494Y007539D02*
X010414Y007539D01*
X010414Y007657D02*
X011133Y007657D01*
X011078Y007680D02*
X011078Y006509D01*
X011197Y006502D02*
X011197Y007631D01*
X011315Y007602D02*
X011315Y006502D01*
X011434Y006502D02*
X011434Y007602D01*
X011552Y007602D02*
X011552Y006502D01*
X012145Y006533D02*
X012145Y007904D01*
X012136Y007894D02*
X012540Y007894D01*
X012619Y008007D02*
X012619Y010888D01*
X012737Y010888D02*
X012737Y008126D01*
X012743Y008131D02*
X012301Y008131D01*
X012263Y008040D02*
X012263Y006652D01*
X012321Y006709D02*
X010414Y006709D01*
X010410Y006591D02*
X010474Y006591D01*
X010486Y006596D02*
X010486Y010888D01*
X010604Y010888D02*
X010604Y008947D01*
X010610Y008961D02*
X010414Y008961D01*
X010414Y009079D02*
X010662Y009079D01*
X010723Y009140D02*
X010723Y010888D01*
X010841Y010888D02*
X010841Y009259D01*
X010899Y009316D02*
X010400Y009316D01*
X010414Y009198D02*
X010780Y009198D01*
X010960Y009355D02*
X010960Y010888D01*
X011078Y010888D02*
X011078Y009404D01*
X009893Y009903D02*
X009893Y010888D01*
X009775Y010888D02*
X009775Y010021D01*
X009769Y010027D02*
X018851Y010027D01*
X018851Y009909D02*
X009887Y009909D01*
X009656Y010140D02*
X009656Y010888D01*
X009538Y010888D02*
X009538Y010258D01*
X009532Y010264D02*
X018864Y010264D01*
X018899Y010373D02*
X018899Y010888D01*
X018781Y010888D02*
X018781Y007915D01*
X018878Y007915D02*
X017696Y007915D01*
X017656Y007904D01*
X017619Y007883D01*
X017590Y007853D01*
X017568Y007817D01*
X017558Y007776D01*
X017558Y006752D01*
X018878Y006752D01*
X018878Y007915D01*
X018878Y007894D02*
X018998Y007894D01*
X018998Y007915D02*
X018998Y006752D01*
X018878Y006752D01*
X018878Y006632D01*
X017558Y006632D01*
X017558Y005608D01*
X017568Y005567D01*
X017590Y005531D01*
X017619Y005501D01*
X017656Y005480D01*
X017696Y005469D01*
X018878Y005469D01*
X018878Y006632D01*
X018998Y006632D01*
X018998Y006752D01*
X020319Y006752D01*
X020319Y007776D01*
X020308Y007817D01*
X020287Y007853D01*
X020257Y007883D01*
X020220Y007904D01*
X020180Y007915D01*
X018998Y007915D01*
X019018Y007915D02*
X019018Y008833D01*
X019009Y008842D02*
X017165Y008842D01*
X017122Y008730D02*
X017122Y008654D01*
X017165Y008605D02*
X021275Y008605D01*
X021269Y008611D02*
X021269Y000492D01*
X021151Y000492D02*
X021151Y008748D01*
X021161Y008724D02*
X019750Y008724D01*
X019770Y008734D02*
X019846Y008790D01*
X019913Y008857D01*
X019969Y008934D01*
X020012Y009018D01*
X020041Y009108D01*
X020056Y009202D01*
X020056Y009632D01*
X019514Y009632D01*
X019514Y008649D01*
X019595Y008662D01*
X019685Y008691D01*
X019770Y008734D01*
X019729Y008713D02*
X019729Y007915D01*
X019847Y007915D02*
X019847Y008791D01*
X019899Y008842D02*
X021112Y008842D01*
X021065Y008957D02*
X021164Y008716D01*
X021348Y008532D01*
X021589Y008432D01*
X021850Y008432D01*
X022091Y008532D01*
X022275Y008716D01*
X022375Y008957D01*
X022375Y009927D01*
X022275Y010168D01*
X022091Y010352D01*
X021850Y010452D01*
X021589Y010452D01*
X021348Y010352D01*
X021164Y010168D01*
X021065Y009927D01*
X021065Y008957D01*
X021065Y008961D02*
X019983Y008961D01*
X019966Y008929D02*
X019966Y007915D01*
X020084Y007915D02*
X020084Y010888D01*
X019966Y010888D02*
X019966Y010455D01*
X019932Y010501D02*
X029524Y010501D01*
X029524Y010383D02*
X023985Y010383D01*
X023995Y010379D02*
X023995Y010888D01*
X024113Y010888D02*
X024113Y010298D01*
X024147Y010264D02*
X029524Y010264D01*
X029524Y010146D02*
X024252Y010146D01*
X024243Y010168D02*
X024059Y010352D01*
X023818Y010452D01*
X023558Y010452D01*
X023317Y010352D01*
X023133Y010168D01*
X023033Y009927D01*
X023033Y008957D01*
X023133Y008716D01*
X023317Y008532D01*
X023558Y008432D01*
X023818Y008432D01*
X024059Y008532D01*
X024243Y008716D01*
X024343Y008957D01*
X024343Y009927D01*
X024243Y010168D01*
X024232Y010179D02*
X024232Y010888D01*
X024350Y010888D02*
X024350Y000492D01*
X024232Y000492D02*
X024232Y008704D01*
X024247Y008724D02*
X029524Y008724D01*
X029524Y008842D02*
X024296Y008842D01*
X024343Y008961D02*
X029524Y008961D01*
X029524Y009079D02*
X024343Y009079D01*
X024343Y009198D02*
X029524Y009198D01*
X029524Y009316D02*
X024343Y009316D01*
X024343Y009435D02*
X029524Y009435D01*
X029524Y009553D02*
X024343Y009553D01*
X024343Y009672D02*
X029524Y009672D01*
X029524Y009790D02*
X024343Y009790D01*
X024343Y009909D02*
X029524Y009909D01*
X029524Y010027D02*
X024302Y010027D01*
X023402Y010388D02*
X023402Y010888D01*
X023284Y010888D02*
X023284Y010319D01*
X023229Y010264D02*
X022178Y010264D01*
X022217Y010225D02*
X022217Y010888D01*
X022099Y010888D02*
X022099Y010344D01*
X022016Y010383D02*
X023391Y010383D01*
X023521Y010437D02*
X023521Y010888D01*
X023639Y010888D02*
X023639Y010452D01*
X023758Y010452D02*
X023758Y010888D01*
X023876Y010888D02*
X023876Y010428D01*
X023165Y010201D02*
X023165Y010888D01*
X023047Y010888D02*
X023047Y009961D01*
X023033Y009909D02*
X022375Y009909D01*
X022336Y010021D02*
X022336Y010888D01*
X022454Y010888D02*
X022454Y007579D01*
X022552Y007539D02*
X022856Y007539D01*
X022853Y007538D02*
X022704Y007389D01*
X022555Y007538D01*
X022327Y007632D01*
X022080Y007632D01*
X021853Y007538D01*
X021678Y007363D01*
X021584Y007135D01*
X021584Y006249D01*
X021678Y006021D01*
X021853Y005846D01*
X022080Y005752D01*
X022327Y005752D01*
X022555Y005846D01*
X022704Y005995D01*
X022853Y005846D01*
X023080Y005752D01*
X023327Y005752D01*
X023555Y005846D01*
X023729Y006021D01*
X023824Y006249D01*
X023824Y007135D01*
X023729Y007363D01*
X023555Y007538D01*
X023327Y007632D01*
X023080Y007632D01*
X022853Y007538D01*
X022810Y007495D02*
X022810Y010888D01*
X022928Y010888D02*
X022928Y007569D01*
X023047Y007618D02*
X023047Y008923D01*
X023033Y008961D02*
X022375Y008961D01*
X022336Y008863D02*
X022336Y007628D01*
X022217Y007632D02*
X022217Y008658D01*
X022164Y008605D02*
X023243Y008605D01*
X023284Y008565D02*
X023284Y007632D01*
X023165Y007632D02*
X023165Y008683D01*
X023129Y008724D02*
X022278Y008724D01*
X022327Y008842D02*
X023080Y008842D01*
X023033Y009079D02*
X022375Y009079D01*
X022375Y009198D02*
X023033Y009198D01*
X023033Y009316D02*
X022375Y009316D01*
X022375Y009435D02*
X023033Y009435D01*
X023033Y009553D02*
X022375Y009553D01*
X022375Y009672D02*
X023033Y009672D01*
X023033Y009790D02*
X022375Y009790D01*
X022333Y010027D02*
X023075Y010027D01*
X023124Y010146D02*
X022284Y010146D01*
X021980Y010398D02*
X021980Y010888D01*
X021862Y010888D02*
X021862Y010447D01*
X021743Y010452D02*
X021743Y010888D01*
X021625Y010888D02*
X021625Y010452D01*
X021506Y010418D02*
X021506Y010888D01*
X021388Y010888D02*
X021388Y010368D01*
X021423Y010383D02*
X020003Y010383D01*
X020043Y010264D02*
X021261Y010264D01*
X021269Y010273D02*
X021269Y010888D01*
X021151Y010888D02*
X021151Y010136D01*
X021155Y010146D02*
X020056Y010146D01*
X020056Y010027D02*
X021106Y010027D01*
X021065Y009909D02*
X020056Y009909D01*
X020056Y009790D02*
X021065Y009790D01*
X021065Y009672D02*
X019514Y009672D01*
X019492Y009632D02*
X019492Y007915D01*
X019610Y007915D02*
X019610Y008667D01*
X019514Y008724D02*
X019394Y008724D01*
X019373Y008652D02*
X019373Y007915D01*
X019255Y007915D02*
X019255Y008681D01*
X019158Y008724D02*
X016827Y008724D01*
X016885Y008730D02*
X016885Y008654D01*
X016827Y008605D02*
X016750Y008605D01*
X016766Y008653D02*
X016766Y006030D01*
X016798Y005998D02*
X017558Y005998D01*
X017558Y005880D02*
X016916Y005880D01*
X016885Y005911D02*
X016885Y008335D01*
X016827Y008368D02*
X016750Y008368D01*
X016648Y008335D02*
X016648Y007921D01*
X016659Y007894D02*
X017639Y007894D01*
X017596Y007859D02*
X017596Y010888D01*
X017714Y010888D02*
X017714Y007915D01*
X017833Y007915D02*
X017833Y010888D01*
X017951Y010888D02*
X017951Y007915D01*
X018070Y007915D02*
X018070Y010888D01*
X018188Y010888D02*
X018188Y007915D01*
X018307Y007915D02*
X018307Y010888D01*
X018425Y010888D02*
X018425Y007915D01*
X018544Y007915D02*
X018544Y010888D01*
X018662Y010888D02*
X018662Y007915D01*
X018878Y007776D02*
X018998Y007776D01*
X018998Y007657D02*
X018878Y007657D01*
X018878Y007539D02*
X018998Y007539D01*
X018998Y007420D02*
X018878Y007420D01*
X018878Y007302D02*
X018998Y007302D01*
X018998Y007183D02*
X018878Y007183D01*
X018878Y007065D02*
X018998Y007065D01*
X018998Y006946D02*
X018878Y006946D01*
X018878Y006828D02*
X018998Y006828D01*
X019018Y006752D02*
X019018Y006632D01*
X018998Y006632D02*
X020319Y006632D01*
X020319Y005608D01*
X020308Y005567D01*
X020287Y005531D01*
X020257Y005501D01*
X020220Y005480D01*
X020180Y005469D01*
X018998Y005469D01*
X018998Y006632D01*
X018998Y006591D02*
X018878Y006591D01*
X018899Y006632D02*
X018899Y004630D01*
X018846Y004576D02*
X018220Y004576D01*
X018188Y004608D02*
X018188Y005469D01*
X018070Y005469D02*
X018070Y004726D01*
X018101Y004695D02*
X018964Y004695D01*
X019018Y004749D02*
X019018Y005469D01*
X018998Y005524D02*
X018878Y005524D01*
X018781Y005469D02*
X018781Y004450D01*
X018784Y004458D02*
X018338Y004458D01*
X018307Y004489D02*
X018307Y005469D01*
X018425Y005469D02*
X018425Y004371D01*
X018457Y004339D02*
X018735Y004339D01*
X018711Y004221D02*
X018575Y004221D01*
X018544Y004252D02*
X018544Y005469D01*
X018662Y005469D02*
X018662Y004152D01*
X017714Y003781D02*
X017714Y000492D01*
X017596Y000492D02*
X017596Y003899D01*
X017630Y003865D02*
X014874Y003865D01*
X014870Y003869D02*
X014870Y004195D01*
X014752Y004195D02*
X014752Y003988D01*
X014756Y003984D02*
X017511Y003984D01*
X017477Y004018D02*
X017477Y000492D01*
X017359Y000492D02*
X017359Y004136D01*
X017393Y004102D02*
X014560Y004102D01*
X014515Y004112D02*
X014515Y004195D01*
X014450Y004221D02*
X009019Y004221D01*
X009064Y004176D02*
X009064Y004456D01*
X009059Y004458D02*
X008782Y004458D01*
X008827Y004413D02*
X008827Y004577D01*
X008828Y004576D02*
X008663Y004576D01*
X008708Y004531D02*
X008708Y004696D01*
X008709Y004695D02*
X008545Y004695D01*
X008590Y004650D02*
X008590Y007602D01*
X008641Y007602D02*
X008986Y007745D01*
X009251Y008009D01*
X009394Y008355D01*
X009394Y008729D01*
X009251Y009074D01*
X008986Y009339D01*
X008641Y009482D01*
X008267Y009482D01*
X007921Y009339D01*
X007657Y009074D01*
X007514Y008729D01*
X007514Y008355D01*
X007657Y008009D01*
X007921Y007745D01*
X008267Y007602D01*
X008641Y007602D01*
X008708Y007630D02*
X008708Y005388D01*
X008726Y005406D02*
X008374Y005406D01*
X008374Y005524D02*
X008845Y005524D01*
X008827Y005506D02*
X008827Y007679D01*
X008775Y007657D02*
X009494Y007657D01*
X009494Y007539D02*
X006874Y007539D01*
X006931Y007586D02*
X006931Y007309D01*
X006938Y007302D02*
X009494Y007302D01*
X009494Y007420D02*
X006874Y007420D01*
X007049Y007635D02*
X007049Y007190D01*
X007056Y007183D02*
X009494Y007183D01*
X009494Y007065D02*
X007175Y007065D01*
X007168Y007072D02*
X007168Y007709D01*
X007104Y007657D02*
X008133Y007657D01*
X008116Y007664D02*
X008116Y006124D01*
X008123Y006117D02*
X009109Y006117D01*
X009109Y005998D02*
X008241Y005998D01*
X008234Y006005D02*
X008234Y007615D01*
X008353Y007602D02*
X008353Y005826D01*
X008331Y005880D02*
X009127Y005880D01*
X009176Y005761D02*
X008374Y005761D01*
X008374Y005643D02*
X009261Y005643D01*
X009182Y005637D02*
X009182Y005746D01*
X009064Y005628D02*
X009064Y007823D01*
X009017Y007776D02*
X009494Y007776D01*
X009494Y007894D02*
X009136Y007894D01*
X009182Y007941D02*
X009182Y006338D01*
X009189Y006354D02*
X007886Y006354D01*
X007879Y006361D02*
X007879Y007788D01*
X007890Y007776D02*
X007235Y007776D01*
X007286Y007828D02*
X007286Y006953D01*
X007293Y006946D02*
X009494Y006946D01*
X009443Y006832D02*
X009443Y006832D01*
X009439Y006828D02*
X007412Y006828D01*
X007405Y006835D02*
X007405Y009732D01*
X007523Y009732D02*
X007523Y008752D01*
X007514Y008724D02*
X007183Y008724D01*
X007168Y008709D02*
X007168Y008675D01*
X007237Y008605D02*
X007514Y008605D01*
X007514Y008487D02*
X007323Y008487D01*
X007286Y008556D02*
X007286Y008828D01*
X007300Y008842D02*
X007561Y008842D01*
X007610Y008961D02*
X007349Y008961D01*
X007394Y009079D02*
X007662Y009079D01*
X007642Y009038D02*
X007642Y009732D01*
X007760Y009732D02*
X007760Y009178D01*
X007780Y009198D02*
X007394Y009198D01*
X007393Y009316D02*
X007899Y009316D01*
X007879Y009296D02*
X007879Y009732D01*
X007997Y009732D02*
X007997Y009370D01*
X008116Y009419D02*
X008116Y009732D01*
X008234Y009732D02*
X008234Y009468D01*
X008153Y009435D02*
X007344Y009435D01*
X007289Y009553D02*
X008942Y009553D01*
X008945Y009550D02*
X008945Y009356D01*
X009009Y009316D02*
X009179Y009316D01*
X009182Y009313D02*
X009182Y009143D01*
X009127Y009198D02*
X009297Y009198D01*
X009301Y009194D02*
X009301Y008953D01*
X009298Y008961D02*
X009494Y008961D01*
X009494Y008842D02*
X009347Y008842D01*
X009394Y008724D02*
X009494Y008724D01*
X009494Y008605D02*
X009394Y008605D01*
X009394Y008487D02*
X009494Y008487D01*
X009494Y008368D02*
X009394Y008368D01*
X009350Y008250D02*
X009494Y008250D01*
X009494Y008131D02*
X009301Y008131D01*
X009301Y008130D02*
X009301Y006671D01*
X009321Y006709D02*
X007530Y006709D01*
X007523Y006716D02*
X007523Y008332D01*
X007514Y008368D02*
X007372Y008368D01*
X007394Y008250D02*
X007557Y008250D01*
X007606Y008131D02*
X007394Y008131D01*
X007371Y008013D02*
X007655Y008013D01*
X007642Y008046D02*
X007642Y006598D01*
X007649Y006591D02*
X009268Y006591D01*
X009244Y006472D02*
X007767Y006472D01*
X007760Y006479D02*
X007760Y007906D01*
X007772Y007894D02*
X007322Y007894D01*
X007997Y007714D02*
X007997Y006242D01*
X008004Y006235D02*
X009140Y006235D01*
X009419Y006808D02*
X009419Y009076D01*
X009416Y009079D02*
X009246Y009079D01*
X009064Y009261D02*
X009064Y009431D01*
X009060Y009435D02*
X008754Y009435D01*
X008708Y009454D02*
X008708Y009732D01*
X008590Y009732D02*
X008590Y009482D01*
X008471Y009482D02*
X008471Y009732D01*
X008353Y009732D02*
X008353Y009482D01*
X008827Y009405D02*
X008827Y009668D01*
X008823Y009672D02*
X007171Y009672D01*
X007168Y009675D02*
X007168Y009732D01*
X007286Y009732D02*
X007286Y009556D01*
X009413Y010383D02*
X018904Y010383D01*
X018976Y010501D02*
X009295Y010501D01*
X009301Y010495D02*
X009301Y010888D01*
X009419Y010888D02*
X009419Y010377D01*
X009650Y010146D02*
X018851Y010146D01*
X019394Y010146D02*
X019514Y010146D01*
X019514Y010264D02*
X019394Y010264D01*
X019394Y010383D02*
X019514Y010383D01*
X019514Y010501D02*
X019394Y010501D01*
X019811Y010620D02*
X029524Y010620D01*
X029524Y010738D02*
X002254Y010738D01*
X003731Y010888D02*
X003731Y007241D01*
X003792Y007183D02*
X003994Y007183D01*
X003994Y007065D02*
X003910Y007065D01*
X003968Y007007D02*
X003968Y010888D01*
X003850Y010888D02*
X003850Y007125D01*
X002370Y005998D02*
X002254Y005998D01*
X002254Y005880D02*
X002436Y005880D01*
X002428Y005889D02*
X002428Y002495D01*
X002394Y002443D02*
X002254Y002443D01*
X002254Y002325D02*
X002345Y002325D01*
X002254Y002562D02*
X002494Y002562D01*
X002546Y002614D02*
X002546Y005770D01*
X002555Y005761D02*
X002254Y005761D01*
X002254Y005643D02*
X002676Y005643D01*
X002665Y005652D02*
X002665Y002732D01*
X002613Y002680D02*
X002254Y002680D01*
X002254Y002799D02*
X002816Y002799D01*
X002783Y002785D02*
X002783Y005599D01*
X002902Y005550D02*
X002902Y002834D01*
X003020Y002882D02*
X003020Y005502D01*
X002962Y005524D02*
X002254Y005524D01*
X002254Y005406D02*
X003994Y005406D01*
X003994Y005524D02*
X003445Y005524D01*
X003494Y005545D02*
X003494Y002839D01*
X003591Y002799D02*
X005117Y002799D01*
X005153Y002710D02*
X005153Y000492D01*
X005035Y000492D02*
X005035Y003514D01*
X005045Y003510D02*
X002254Y003510D01*
X002254Y003628D02*
X004867Y003628D01*
X004916Y003579D02*
X004916Y000492D01*
X004798Y000492D02*
X004798Y003697D01*
X004748Y003747D02*
X002254Y003747D01*
X002254Y003865D02*
X004630Y003865D01*
X004679Y003816D02*
X004679Y000492D01*
X004561Y000492D02*
X004561Y003934D01*
X004511Y003984D02*
X002254Y003984D01*
X002254Y004102D02*
X004393Y004102D01*
X004442Y004053D02*
X004442Y000492D01*
X004324Y000492D02*
X004324Y004171D01*
X004274Y004221D02*
X002254Y004221D01*
X002254Y004339D02*
X004156Y004339D01*
X004205Y004290D02*
X004205Y000492D01*
X004087Y000492D02*
X004087Y001617D01*
X004085Y001614D02*
X007979Y001614D01*
X007997Y001606D02*
X007997Y000492D01*
X007879Y000492D02*
X007879Y001683D01*
X007830Y001732D02*
X004134Y001732D01*
X004144Y001851D02*
X006570Y001851D01*
X006575Y001849D02*
X006575Y000492D01*
X006457Y000492D02*
X006457Y001898D01*
X006338Y001963D02*
X006338Y000492D01*
X006220Y000492D02*
X006220Y002081D01*
X006213Y002088D02*
X004144Y002088D01*
X004144Y001969D02*
X006332Y001969D01*
X006694Y001845D02*
X006694Y000492D01*
X006812Y000492D02*
X006812Y001845D01*
X006837Y001851D02*
X007729Y001851D01*
X007760Y001802D02*
X007760Y000492D01*
X007642Y000492D02*
X007642Y004410D01*
X007596Y004458D02*
X007301Y004458D01*
X007301Y004339D02*
X007712Y004339D01*
X007760Y004291D02*
X007760Y002582D01*
X007741Y002562D02*
X007300Y002562D01*
X007286Y002596D02*
X007286Y003288D01*
X007280Y003273D02*
X008868Y003273D01*
X008827Y003290D02*
X008827Y002652D01*
X008738Y002680D02*
X010449Y002680D01*
X010367Y002652D02*
X010367Y003272D01*
X010249Y003272D02*
X010249Y002652D01*
X010130Y002652D02*
X010130Y003272D01*
X010012Y003272D02*
X010012Y002652D01*
X009893Y002652D02*
X009893Y003272D01*
X009775Y003272D02*
X009775Y002652D01*
X009656Y002652D02*
X009656Y003272D01*
X009538Y003272D02*
X009538Y002652D01*
X009419Y002652D02*
X009419Y003272D01*
X009301Y003272D02*
X009301Y002652D01*
X009182Y002652D02*
X009182Y003272D01*
X009064Y003272D02*
X009064Y002652D01*
X008945Y002652D02*
X008945Y003272D01*
X008708Y003343D02*
X008708Y002710D01*
X008590Y002781D02*
X008590Y003462D01*
X008542Y003510D02*
X007301Y003510D01*
X007286Y003596D02*
X007286Y004288D01*
X007259Y004221D02*
X007831Y004221D01*
X007879Y004173D02*
X007879Y002700D01*
X007859Y002680D02*
X007251Y002680D01*
X007191Y002799D02*
X008049Y002799D01*
X007997Y002778D02*
X007997Y004054D01*
X007949Y004102D02*
X007209Y004102D01*
X007168Y004061D02*
X007168Y003822D01*
X007125Y003865D02*
X008186Y003865D01*
X008234Y003817D02*
X008234Y002848D01*
X008353Y002848D02*
X008353Y003699D01*
X008305Y003747D02*
X007224Y003747D01*
X007273Y003628D02*
X008423Y003628D01*
X008471Y003580D02*
X008471Y002831D01*
X008548Y002799D02*
X010449Y002799D01*
X010449Y002917D02*
X007073Y002917D01*
X007049Y002941D02*
X007049Y002943D01*
X007142Y003036D02*
X010449Y003036D01*
X010449Y003154D02*
X007231Y003154D01*
X007168Y003061D02*
X007168Y002822D01*
X008116Y002827D02*
X008116Y003936D01*
X008068Y003984D02*
X007090Y003984D01*
X007049Y003943D02*
X007049Y003941D01*
X007301Y003391D02*
X008660Y003391D01*
X009182Y004112D02*
X009182Y004447D01*
X009301Y004447D02*
X009301Y004112D01*
X009419Y004112D02*
X009419Y004487D01*
X009349Y004458D02*
X013747Y004458D01*
X013804Y004368D02*
X013804Y004112D01*
X013922Y004112D02*
X013922Y004335D01*
X013865Y004339D02*
X008900Y004339D01*
X008945Y004294D02*
X008945Y004505D01*
X008471Y004768D02*
X008471Y007602D01*
X008945Y007728D02*
X008945Y005579D01*
X008661Y005287D02*
X008374Y005287D01*
X008374Y005169D02*
X008612Y005169D01*
X008609Y005050D02*
X008374Y005050D01*
X008374Y004932D02*
X008609Y004932D01*
X008654Y004813D02*
X008426Y004813D01*
X007534Y004813D02*
X007177Y004813D01*
X007168Y004822D02*
X007168Y005061D01*
X007157Y005050D02*
X007534Y005050D01*
X007534Y004932D02*
X007058Y004932D01*
X007049Y004941D02*
X007049Y004943D01*
X007237Y005169D02*
X007534Y005169D01*
X007534Y005287D02*
X007286Y005287D01*
X007286Y005288D02*
X007286Y004596D01*
X007294Y004576D02*
X007547Y004576D01*
X007534Y004695D02*
X007245Y004695D01*
X007301Y005406D02*
X007534Y005406D01*
X007527Y005524D02*
X007301Y005524D01*
X007286Y005596D02*
X007286Y005765D01*
X007290Y005761D02*
X007218Y005761D01*
X007267Y005643D02*
X007409Y005643D01*
X007405Y005647D02*
X007405Y000492D01*
X007523Y000492D02*
X007523Y005528D01*
X009640Y005447D02*
X009708Y005379D01*
X009779Y005208D01*
X009782Y005217D01*
X009815Y005280D01*
X009857Y005338D01*
X009907Y005389D01*
X009965Y005431D01*
X010029Y005464D01*
X010097Y005486D01*
X010168Y005497D01*
X010176Y005497D01*
X010176Y005069D01*
X010231Y005069D01*
X010659Y005069D01*
X010659Y005078D01*
X010648Y005148D01*
X010625Y005217D01*
X010593Y005280D01*
X010551Y005338D01*
X010500Y005389D01*
X010442Y005431D01*
X010378Y005464D01*
X010310Y005486D01*
X010240Y005497D01*
X010231Y005497D01*
X010231Y005069D01*
X010231Y005014D01*
X010231Y004587D01*
X010240Y004587D01*
X010310Y004598D01*
X010378Y004620D01*
X010442Y004653D01*
X010500Y004695D01*
X010551Y004746D01*
X010593Y004803D01*
X010625Y004867D01*
X010648Y004935D01*
X010659Y005006D01*
X010659Y005014D01*
X010231Y005014D01*
X010176Y005014D01*
X010176Y004587D01*
X010168Y004587D01*
X010097Y004598D01*
X010029Y004620D01*
X009965Y004653D01*
X009907Y004695D01*
X009893Y004709D02*
X009893Y004112D01*
X009775Y004112D02*
X009775Y004866D01*
X009753Y004813D02*
X009810Y004813D01*
X010176Y004813D02*
X010231Y004813D01*
X010231Y004695D02*
X010176Y004695D01*
X010130Y004593D02*
X010130Y004112D01*
X010012Y004112D02*
X010012Y004629D01*
X010249Y004588D02*
X010249Y004112D01*
X010367Y004112D02*
X010367Y004617D01*
X010486Y004684D02*
X010486Y004112D01*
X010604Y004112D02*
X010604Y004826D01*
X010598Y004813D02*
X013743Y004813D01*
X013743Y004730D02*
X013743Y004910D01*
X013754Y004951D01*
X013775Y004987D01*
X013804Y005017D01*
X013841Y005038D01*
X013882Y005049D01*
X014081Y005049D01*
X014081Y004730D01*
X014081Y004654D01*
X013743Y004654D01*
X013804Y004654D02*
X013804Y004730D01*
X013743Y004730D02*
X014081Y004730D01*
X014158Y004730D01*
X014158Y005049D01*
X014313Y005049D01*
X014318Y005059D01*
X014402Y005143D01*
X014512Y005189D01*
X014534Y005189D01*
X014534Y005915D01*
X014428Y006021D01*
X014377Y006145D01*
X014364Y006120D01*
X014320Y006059D01*
X014266Y006006D01*
X014205Y005961D01*
X014138Y005927D01*
X014066Y005904D01*
X013994Y005892D01*
X013994Y006652D01*
X013914Y006652D01*
X013914Y005892D01*
X013841Y005904D01*
X013770Y005927D01*
X013702Y005961D01*
X013641Y006006D01*
X013588Y006059D01*
X013543Y006120D01*
X013531Y006145D01*
X013479Y006021D01*
X013305Y005846D01*
X013077Y005752D01*
X012830Y005752D01*
X012713Y005801D01*
X012564Y005652D01*
X012395Y005582D01*
X011085Y005582D01*
X011041Y005538D01*
X010822Y005447D01*
X010585Y005447D01*
X010367Y005538D01*
X010204Y005700D01*
X010041Y005538D01*
X009822Y005447D01*
X009640Y005447D01*
X009656Y005447D02*
X009656Y005431D01*
X009681Y005406D02*
X009931Y005406D01*
X009893Y005375D02*
X009893Y005476D01*
X010012Y005455D02*
X010012Y005525D01*
X010009Y005524D02*
X010398Y005524D01*
X010367Y005537D02*
X010367Y005467D01*
X010486Y005488D02*
X010486Y005399D01*
X010477Y005406D02*
X014534Y005406D01*
X014534Y005524D02*
X011009Y005524D01*
X010960Y005504D02*
X010960Y004112D01*
X011078Y004112D02*
X011078Y005575D01*
X011197Y005582D02*
X011197Y004112D01*
X011315Y004112D02*
X011315Y005582D01*
X011434Y005582D02*
X011434Y004112D01*
X011552Y004112D02*
X011552Y005582D01*
X011671Y005582D02*
X011671Y004112D01*
X011789Y004112D02*
X011789Y005582D01*
X011908Y005582D02*
X011908Y004112D01*
X012026Y004112D02*
X012026Y005582D01*
X012145Y005582D02*
X012145Y004112D01*
X012263Y004112D02*
X012263Y005582D01*
X012382Y005582D02*
X012382Y004112D01*
X012500Y004112D02*
X012500Y005625D01*
X012543Y005643D02*
X014534Y005643D01*
X014534Y005761D02*
X013100Y005761D01*
X013093Y005758D02*
X013093Y004112D01*
X013211Y004112D02*
X013211Y005808D01*
X013330Y005871D02*
X013330Y004112D01*
X013448Y004112D02*
X013448Y005990D01*
X013457Y005998D02*
X013651Y005998D01*
X013685Y005974D02*
X013685Y004112D01*
X013567Y004112D02*
X013567Y006088D01*
X013546Y006117D02*
X013519Y006117D01*
X013339Y005880D02*
X014534Y005880D01*
X014515Y005934D02*
X014515Y005189D01*
X014464Y005169D02*
X010641Y005169D01*
X010604Y005258D02*
X010604Y005447D01*
X010723Y005447D02*
X010723Y004112D01*
X010841Y004112D02*
X010841Y005455D01*
X010588Y005287D02*
X014534Y005287D01*
X014396Y005137D02*
X014396Y006098D01*
X014388Y006117D02*
X014362Y006117D01*
X014278Y006017D02*
X014278Y005049D01*
X014314Y005050D02*
X010231Y005050D01*
X010249Y005069D02*
X010249Y005014D01*
X010231Y004932D02*
X010176Y004932D01*
X010367Y005014D02*
X010367Y005069D01*
X010486Y005069D02*
X010486Y005014D01*
X010604Y005014D02*
X010604Y005069D01*
X010646Y004932D02*
X013749Y004932D01*
X013804Y005016D02*
X013804Y005916D01*
X013914Y005998D02*
X013994Y005998D01*
X014041Y005900D02*
X014041Y005049D01*
X014159Y005049D02*
X014159Y005938D01*
X014256Y005998D02*
X014450Y005998D01*
X013994Y006117D02*
X013914Y006117D01*
X013914Y006235D02*
X013994Y006235D01*
X013994Y006354D02*
X013914Y006354D01*
X013914Y006472D02*
X013994Y006472D01*
X013994Y006591D02*
X013914Y006591D01*
X013922Y006652D02*
X013922Y005049D01*
X014081Y004932D02*
X014158Y004932D01*
X014158Y004813D02*
X014081Y004813D01*
X014041Y004730D02*
X014041Y004654D01*
X014081Y004695D02*
X010500Y004695D01*
X010231Y005169D02*
X010176Y005169D01*
X010176Y005287D02*
X010231Y005287D01*
X010231Y005406D02*
X010176Y005406D01*
X010130Y005491D02*
X010130Y005627D01*
X010146Y005643D02*
X010261Y005643D01*
X010249Y005655D02*
X010249Y005495D01*
X009775Y005447D02*
X009775Y005218D01*
X009746Y005287D02*
X009820Y005287D01*
X012619Y005706D02*
X012619Y004112D01*
X012737Y004112D02*
X012737Y005791D01*
X012674Y005761D02*
X012807Y005761D01*
X012856Y005752D02*
X012856Y004112D01*
X012974Y004112D02*
X012974Y005752D01*
X012202Y006591D02*
X010933Y006591D01*
X010960Y006580D02*
X010960Y007729D01*
X010890Y007776D02*
X010414Y007776D01*
X010414Y007894D02*
X010772Y007894D01*
X010723Y007944D02*
X010723Y006637D01*
X010841Y006629D02*
X010841Y007825D01*
X010655Y008013D02*
X010414Y008013D01*
X010414Y008131D02*
X010606Y008131D01*
X010604Y008136D02*
X010604Y006637D01*
X010414Y006828D02*
X012334Y006828D01*
X012334Y006946D02*
X010414Y006946D01*
X010414Y007065D02*
X012334Y007065D01*
X012354Y007183D02*
X010414Y007183D01*
X010414Y007302D02*
X012403Y007302D01*
X012382Y007251D02*
X012382Y008326D01*
X012394Y008368D02*
X012980Y008368D01*
X012974Y008363D02*
X012974Y010888D01*
X012856Y010888D02*
X012856Y008244D01*
X012861Y008250D02*
X012350Y008250D01*
X012394Y008487D02*
X013098Y008487D01*
X013093Y008481D02*
X013093Y010888D01*
X013211Y010888D02*
X013211Y008589D01*
X013250Y008605D02*
X012394Y008605D01*
X012394Y008724D02*
X015603Y008724D01*
X015603Y008605D02*
X015157Y008605D01*
X015107Y008626D02*
X015107Y010888D01*
X014989Y010888D02*
X014989Y008652D01*
X014870Y008652D02*
X014870Y010888D01*
X014752Y010888D02*
X014752Y008652D01*
X014633Y008652D02*
X014633Y010888D01*
X014515Y010888D02*
X014515Y008652D01*
X014396Y008652D02*
X014396Y010888D01*
X014278Y010888D02*
X014278Y008652D01*
X014159Y008652D02*
X014159Y010888D01*
X014041Y010888D02*
X014041Y008652D01*
X013922Y008652D02*
X013922Y010888D01*
X013804Y010888D02*
X013804Y008652D01*
X013685Y008652D02*
X013685Y010888D01*
X013567Y010888D02*
X013567Y008652D01*
X013448Y008652D02*
X013448Y010888D01*
X013330Y010888D02*
X013330Y008638D01*
X012624Y008013D02*
X012252Y008013D01*
X013414Y007501D02*
X013644Y007732D01*
X014763Y007732D01*
X014863Y007632D01*
X014830Y007632D01*
X014603Y007538D01*
X014428Y007363D01*
X014377Y007239D01*
X014364Y007264D01*
X014320Y007325D01*
X014266Y007378D01*
X014205Y007422D01*
X014138Y007457D01*
X014066Y007480D01*
X013994Y007492D01*
X013994Y006732D01*
X013914Y006732D01*
X013914Y007492D01*
X013841Y007480D01*
X013770Y007457D01*
X013702Y007422D01*
X013641Y007378D01*
X013588Y007325D01*
X013543Y007264D01*
X013531Y007239D01*
X013479Y007363D01*
X013414Y007429D01*
X013414Y007501D01*
X013448Y007536D02*
X013448Y007394D01*
X013422Y007420D02*
X013699Y007420D01*
X013685Y007410D02*
X013685Y007732D01*
X013804Y007732D02*
X013804Y007468D01*
X013914Y007420D02*
X013994Y007420D01*
X014041Y007484D02*
X014041Y007732D01*
X014159Y007732D02*
X014159Y007446D01*
X014208Y007420D02*
X014485Y007420D01*
X014515Y007450D02*
X014515Y007732D01*
X014633Y007732D02*
X014633Y007550D01*
X014606Y007539D02*
X013451Y007539D01*
X013567Y007654D02*
X013567Y007296D01*
X013571Y007302D02*
X013505Y007302D01*
X013914Y007302D02*
X013994Y007302D01*
X013994Y007183D02*
X013914Y007183D01*
X013914Y007065D02*
X013994Y007065D01*
X013994Y006946D02*
X013914Y006946D01*
X013914Y006828D02*
X013994Y006828D01*
X013922Y006732D02*
X013922Y007732D01*
X014278Y007732D02*
X014278Y007367D01*
X014336Y007302D02*
X014403Y007302D01*
X014396Y007286D02*
X014396Y007732D01*
X014752Y007732D02*
X014752Y007599D01*
X014838Y007657D02*
X013570Y007657D01*
X012485Y007420D02*
X010414Y007420D01*
X009494Y008013D02*
X009252Y008013D01*
X010414Y008250D02*
X010557Y008250D01*
X010514Y008368D02*
X010414Y008368D01*
X010414Y008487D02*
X010514Y008487D01*
X010514Y008605D02*
X010414Y008605D01*
X010414Y008724D02*
X010514Y008724D01*
X010561Y008842D02*
X010414Y008842D01*
X015226Y008570D02*
X015226Y010888D01*
X015344Y010888D02*
X015344Y008452D01*
X015309Y008487D02*
X015603Y008487D01*
X015630Y008368D02*
X015428Y008368D01*
X015463Y008333D02*
X015463Y010888D01*
X015581Y010888D02*
X015581Y008215D01*
X015546Y008250D02*
X015644Y008250D01*
X016484Y008131D02*
X024745Y008131D01*
X024706Y008093D02*
X024706Y010888D01*
X024824Y010888D02*
X024824Y008205D01*
X024814Y008201D02*
X024645Y008032D01*
X024554Y007811D01*
X024554Y007573D01*
X024645Y007352D01*
X024805Y007192D01*
X024645Y007032D01*
X024554Y006811D01*
X024554Y006573D01*
X024645Y006352D01*
X024814Y006183D01*
X024974Y006117D01*
X023769Y006117D01*
X023758Y006089D02*
X023758Y000492D01*
X023876Y000492D02*
X023876Y008456D01*
X023951Y008487D02*
X029524Y008487D01*
X029524Y008605D02*
X024133Y008605D01*
X024113Y008586D02*
X024113Y000492D01*
X023995Y000492D02*
X023995Y008505D01*
X023758Y008432D02*
X023758Y007294D01*
X023755Y007302D02*
X024695Y007302D01*
X024706Y007291D02*
X024706Y007093D01*
X024678Y007065D02*
X023824Y007065D01*
X023824Y006946D02*
X024610Y006946D01*
X024587Y006892D02*
X024587Y007492D01*
X024568Y007539D02*
X023552Y007539D01*
X023521Y007552D02*
X023521Y008447D01*
X023425Y008487D02*
X021983Y008487D01*
X021980Y008486D02*
X021980Y007590D01*
X022099Y007632D02*
X022099Y008540D01*
X021862Y008437D02*
X021862Y007541D01*
X021856Y007539D02*
X020319Y007539D01*
X020319Y007657D02*
X024554Y007657D01*
X024554Y007776D02*
X020319Y007776D01*
X020237Y007894D02*
X024588Y007894D01*
X024587Y007892D02*
X024587Y010888D01*
X024469Y010888D02*
X024469Y000492D01*
X024587Y000492D02*
X024587Y001391D01*
X024593Y001377D02*
X015319Y001377D01*
X015319Y001333D02*
X015319Y001512D01*
X015308Y001553D01*
X015287Y001589D01*
X015257Y001619D01*
X015220Y001640D01*
X015180Y001651D01*
X014882Y001651D01*
X014882Y001333D01*
X014805Y001333D01*
X014805Y001651D01*
X014508Y001651D01*
X014467Y001640D01*
X014430Y001619D01*
X014401Y001589D01*
X014379Y001553D01*
X014369Y001512D01*
X014369Y001333D01*
X014805Y001333D01*
X014805Y001256D01*
X014369Y001256D01*
X014369Y001076D01*
X014379Y001036D01*
X014401Y000999D01*
X014430Y000969D01*
X014467Y000948D01*
X014508Y000937D01*
X014805Y000937D01*
X014805Y001256D01*
X014882Y001256D01*
X014882Y001333D01*
X015319Y001333D01*
X015319Y001256D02*
X014882Y001256D01*
X014882Y000937D01*
X015180Y000937D01*
X015220Y000948D01*
X015257Y000969D01*
X015287Y000999D01*
X015308Y001036D01*
X015319Y001076D01*
X015319Y001256D01*
X015226Y001256D02*
X015226Y001333D01*
X015107Y001333D02*
X015107Y001256D01*
X014989Y001256D02*
X014989Y001333D01*
X014882Y001377D02*
X014805Y001377D01*
X014752Y001333D02*
X014752Y001256D01*
X014805Y001258D02*
X013490Y001258D01*
X013490Y001140D02*
X014369Y001140D01*
X014396Y001256D02*
X014396Y001333D01*
X014369Y001377D02*
X013490Y001377D01*
X013490Y001495D02*
X014369Y001495D01*
X014396Y001582D02*
X014396Y002623D01*
X014317Y002680D02*
X013490Y002680D01*
X013490Y002562D02*
X015827Y002562D01*
X015818Y002575D02*
X015818Y000492D01*
X015700Y000492D02*
X015700Y002630D01*
X015581Y002630D02*
X015581Y000492D01*
X015463Y000492D02*
X015463Y002630D01*
X015344Y002630D02*
X015344Y000492D01*
X015226Y000492D02*
X015226Y000952D01*
X015299Y001021D02*
X029524Y001021D01*
X029524Y000903D02*
X013388Y000903D01*
X013330Y000862D02*
X013330Y000492D01*
X013448Y000492D02*
X013448Y000969D01*
X013470Y001021D02*
X014388Y001021D01*
X014396Y001007D02*
X014396Y000492D01*
X014278Y000492D02*
X014278Y002719D01*
X014243Y002799D02*
X013490Y002799D01*
X013490Y002917D02*
X014229Y002917D01*
X014229Y003036D02*
X013490Y003036D01*
X013490Y003154D02*
X014229Y003154D01*
X014159Y003272D02*
X014159Y000492D01*
X014041Y000492D02*
X014041Y003272D01*
X013922Y003272D02*
X013922Y000492D01*
X013804Y000492D02*
X013804Y003272D01*
X013685Y003272D02*
X013685Y000492D01*
X013567Y000492D02*
X013567Y003272D01*
X014993Y003747D02*
X017748Y003747D01*
X017833Y003662D02*
X017833Y000492D01*
X017951Y000492D02*
X017951Y003544D01*
X017985Y003510D02*
X016513Y003510D01*
X016529Y003503D02*
X016529Y004966D01*
X016563Y004932D02*
X015374Y004932D01*
X015374Y005050D02*
X016445Y005050D01*
X016411Y005084D02*
X016411Y003523D01*
X016292Y003525D02*
X016292Y005203D01*
X016326Y005169D02*
X015374Y005169D01*
X015374Y005287D02*
X016208Y005287D01*
X016174Y005297D02*
X016174Y003550D01*
X016055Y003550D02*
X016055Y005297D01*
X015937Y005297D02*
X015937Y003550D01*
X015818Y003550D02*
X015818Y005297D01*
X015700Y005297D02*
X015700Y003550D01*
X015581Y003550D02*
X015581Y005342D01*
X015516Y005406D02*
X015374Y005406D01*
X015374Y005524D02*
X015455Y005524D01*
X015463Y005505D02*
X015463Y003550D01*
X015344Y003550D02*
X015344Y004703D01*
X015341Y004695D02*
X016800Y004695D01*
X016766Y004729D02*
X016766Y000492D01*
X016648Y000492D02*
X016648Y002633D01*
X016683Y002680D02*
X018973Y002680D01*
X019018Y002635D02*
X019018Y000492D01*
X019136Y000492D02*
X019136Y002577D01*
X019173Y002562D02*
X016580Y002562D01*
X016580Y002443D02*
X019700Y002443D01*
X019729Y002513D02*
X019729Y002560D01*
X019734Y002562D02*
X019749Y002562D01*
X019610Y002511D02*
X019610Y000492D01*
X019492Y000492D02*
X019492Y002507D01*
X019373Y002507D02*
X019373Y000492D01*
X019255Y000492D02*
X019255Y002528D01*
X018899Y002754D02*
X018899Y000492D01*
X018781Y000492D02*
X018781Y002934D01*
X018788Y002917D02*
X016720Y002917D01*
X016720Y002799D02*
X018854Y002799D01*
X018739Y003036D02*
X016720Y003036D01*
X016720Y003154D02*
X018711Y003154D01*
X018662Y003232D02*
X018662Y000492D01*
X018544Y000492D02*
X018544Y003232D01*
X018425Y003232D02*
X018425Y000492D01*
X018307Y000492D02*
X018307Y003255D01*
X018263Y003273D02*
X016720Y003273D01*
X016675Y003391D02*
X018104Y003391D01*
X018070Y003425D02*
X018070Y000492D01*
X018188Y000492D02*
X018188Y003307D01*
X018064Y003431D02*
X018064Y003431D01*
X017867Y003628D02*
X015111Y003628D01*
X015107Y003632D02*
X015107Y004213D01*
X015127Y004221D02*
X017274Y004221D01*
X017240Y004255D02*
X017240Y000492D01*
X017122Y000492D02*
X017122Y004373D01*
X017156Y004339D02*
X015265Y004339D01*
X015226Y004292D02*
X015226Y003583D01*
X014989Y003751D02*
X014989Y004195D01*
X014633Y004195D02*
X014633Y004072D01*
X014396Y004112D02*
X014396Y004246D01*
X014278Y004335D02*
X014278Y004112D01*
X014159Y004112D02*
X014159Y004335D01*
X014158Y004339D02*
X014081Y004339D01*
X014041Y004335D02*
X014041Y004112D01*
X014081Y004458D02*
X014158Y004458D01*
X014158Y004576D02*
X014081Y004576D01*
X013922Y004654D02*
X013922Y004730D01*
X015305Y004576D02*
X016919Y004576D01*
X016885Y004610D02*
X016885Y000492D01*
X017003Y000492D02*
X017003Y004492D01*
X017037Y004458D02*
X015305Y004458D01*
X015374Y004813D02*
X016682Y004813D01*
X016648Y004847D02*
X016648Y003420D01*
X015226Y002596D02*
X015226Y001637D01*
X015262Y001614D02*
X019987Y001614D01*
X019966Y001623D02*
X019966Y000492D01*
X020084Y000492D02*
X020084Y001574D01*
X020203Y001536D02*
X020203Y000492D01*
X020321Y000492D02*
X020321Y001536D01*
X020440Y001537D02*
X020440Y000492D01*
X020558Y000492D02*
X020558Y001586D01*
X020626Y001614D02*
X024514Y001614D01*
X024514Y001569D02*
X024608Y001341D01*
X024783Y001166D01*
X025010Y001072D01*
X025897Y001072D01*
X026125Y001166D01*
X026299Y001341D01*
X026394Y001569D01*
X026394Y001815D01*
X026299Y002043D01*
X026125Y002218D01*
X026001Y002269D01*
X026025Y002281D01*
X026086Y002326D01*
X026140Y002379D01*
X026184Y002440D01*
X026219Y002508D01*
X026242Y002580D01*
X026253Y002652D01*
X025494Y002652D01*
X025494Y002732D01*
X026253Y002732D01*
X026242Y002804D01*
X026219Y002876D01*
X026184Y002944D01*
X026140Y003005D01*
X026086Y003058D01*
X026025Y003102D01*
X026001Y003115D01*
X026125Y003166D01*
X026299Y003341D01*
X026394Y003569D01*
X026394Y003815D01*
X026299Y004043D01*
X026125Y004218D01*
X025897Y004312D01*
X025010Y004312D01*
X024783Y004218D01*
X024608Y004043D01*
X024514Y003815D01*
X024514Y003569D01*
X024608Y003341D01*
X024783Y003166D01*
X024907Y003115D01*
X024882Y003102D01*
X024821Y003058D01*
X024768Y003005D01*
X024723Y002944D01*
X024689Y002876D01*
X024666Y002804D01*
X024654Y002732D01*
X025414Y002732D01*
X025414Y002652D01*
X024654Y002652D01*
X024666Y002580D01*
X024689Y002508D01*
X024723Y002440D01*
X024768Y002379D01*
X024821Y002326D01*
X024882Y002281D01*
X024907Y002269D01*
X024783Y002218D01*
X024608Y002043D01*
X024514Y001815D01*
X024514Y001569D01*
X024544Y001495D02*
X015319Y001495D01*
X014882Y001495D02*
X014805Y001495D01*
X014805Y001614D02*
X014882Y001614D01*
X014989Y001651D02*
X014989Y002593D01*
X015107Y002593D02*
X015107Y001651D01*
X014752Y001651D02*
X014752Y002593D01*
X014870Y002593D02*
X014870Y001333D01*
X014882Y001258D02*
X024690Y001258D01*
X024706Y001243D02*
X024706Y000492D01*
X024824Y000492D02*
X024824Y001149D01*
X024846Y001140D02*
X015319Y001140D01*
X015107Y000937D02*
X015107Y000492D01*
X014989Y000492D02*
X014989Y000937D01*
X014882Y001021D02*
X014805Y001021D01*
X014752Y000937D02*
X014752Y000492D01*
X014870Y000492D02*
X014870Y001256D01*
X014882Y001140D02*
X014805Y001140D01*
X014633Y001256D02*
X014633Y001333D01*
X014515Y001333D02*
X014515Y001256D01*
X014515Y000937D02*
X014515Y000492D01*
X014633Y000492D02*
X014633Y000937D01*
X015937Y000492D02*
X015937Y002008D01*
X016055Y002000D02*
X016055Y000492D01*
X016174Y000492D02*
X016174Y002319D01*
X016165Y002325D02*
X013490Y002325D01*
X013490Y002443D02*
X015827Y002443D01*
X015937Y002396D02*
X015937Y002319D01*
X016055Y002319D02*
X016055Y002396D01*
X016242Y002325D02*
X019651Y002325D01*
X019650Y002206D02*
X016580Y002206D01*
X016563Y002088D02*
X019650Y002088D01*
X019688Y001969D02*
X013490Y001969D01*
X013490Y001851D02*
X019737Y001851D01*
X019729Y001871D02*
X019729Y000492D01*
X019847Y000492D02*
X019847Y001723D01*
X019838Y001732D02*
X013490Y001732D01*
X013490Y001614D02*
X014425Y001614D01*
X014515Y001651D02*
X014515Y002593D01*
X014633Y002593D02*
X014633Y001651D01*
X013490Y002088D02*
X015844Y002088D01*
X015827Y002206D02*
X013490Y002206D01*
X016165Y002206D02*
X016242Y002206D01*
X016242Y002088D02*
X016165Y002088D01*
X016292Y002000D02*
X016292Y000492D01*
X016411Y000492D02*
X016411Y002000D01*
X016529Y002043D02*
X016529Y000492D01*
X013211Y000492D02*
X013211Y000829D01*
X013093Y000829D02*
X013093Y000492D01*
X012974Y000492D02*
X012974Y000829D01*
X012856Y000829D02*
X012856Y000492D01*
X012737Y000492D02*
X012737Y000829D01*
X012619Y000829D02*
X012619Y000492D01*
X012500Y000492D02*
X012500Y000829D01*
X012382Y000829D02*
X012382Y000492D01*
X012263Y000492D02*
X012263Y000829D01*
X012145Y000829D02*
X012145Y000492D01*
X012026Y000492D02*
X012026Y000829D01*
X011908Y000829D02*
X011908Y000492D01*
X011789Y000492D02*
X011789Y000829D01*
X011671Y000829D02*
X011671Y000492D01*
X011552Y000492D02*
X011552Y000829D01*
X011434Y000829D02*
X011434Y000492D01*
X011315Y000492D02*
X011315Y000829D01*
X011197Y000829D02*
X011197Y000492D01*
X011078Y000492D02*
X011078Y000829D01*
X010960Y000829D02*
X010960Y000492D01*
X010841Y000492D02*
X010841Y000829D01*
X010723Y000829D02*
X010723Y000492D01*
X010604Y000492D02*
X010604Y000864D01*
X010551Y000903D02*
X002254Y000903D01*
X002254Y001021D02*
X002970Y001021D01*
X003020Y001002D02*
X003020Y000492D01*
X002902Y000492D02*
X002902Y001050D01*
X002783Y001099D02*
X002783Y000492D01*
X002665Y000492D02*
X002665Y001152D01*
X002684Y001140D02*
X002254Y001140D01*
X002254Y001258D02*
X002558Y001258D01*
X002546Y001270D02*
X002546Y000492D01*
X002428Y000492D02*
X002428Y001389D01*
X002439Y001377D02*
X002254Y001377D01*
X002254Y001495D02*
X002371Y001495D01*
X003139Y001002D02*
X003139Y000492D01*
X003257Y000492D02*
X003257Y001002D01*
X003376Y001002D02*
X003376Y000492D01*
X003494Y000492D02*
X003494Y001045D01*
X003438Y001021D02*
X010469Y001021D01*
X010486Y000981D02*
X010486Y000492D01*
X010367Y000492D02*
X010367Y001732D01*
X010249Y001732D02*
X010249Y000492D01*
X010130Y000492D02*
X010130Y001732D01*
X010012Y001732D02*
X010012Y000492D01*
X009893Y000492D02*
X009893Y001732D01*
X009775Y001732D02*
X009775Y000492D01*
X009656Y000492D02*
X009656Y001732D01*
X009538Y001732D02*
X009538Y000492D01*
X009419Y000492D02*
X009419Y001732D01*
X009301Y001732D02*
X009301Y000492D01*
X009182Y000492D02*
X009182Y001732D01*
X009064Y001732D02*
X009064Y000492D01*
X008945Y000492D02*
X008945Y001732D01*
X008827Y001732D02*
X008827Y000492D01*
X008708Y000492D02*
X008708Y001674D01*
X008618Y001614D02*
X010449Y001614D01*
X010449Y001495D02*
X004036Y001495D01*
X003968Y001377D02*
X003968Y000492D01*
X003850Y000492D02*
X003850Y001259D01*
X003850Y001258D02*
X010449Y001258D01*
X010449Y001140D02*
X003724Y001140D01*
X003731Y001143D02*
X003731Y000492D01*
X003613Y000492D02*
X003613Y001094D01*
X003968Y001377D02*
X010449Y001377D01*
X008590Y001602D02*
X008590Y000492D01*
X008471Y000492D02*
X008471Y001553D01*
X008353Y001536D02*
X008353Y000492D01*
X008234Y000492D02*
X008234Y001536D01*
X008116Y001557D02*
X008116Y000492D01*
X007286Y000492D02*
X007286Y002288D01*
X007301Y002325D02*
X007643Y002325D01*
X007642Y002206D02*
X007253Y002206D01*
X007194Y002088D02*
X007642Y002088D01*
X007680Y001969D02*
X007076Y001969D01*
X007049Y001943D02*
X007049Y000492D01*
X006931Y000492D02*
X006931Y001890D01*
X007168Y002061D02*
X007168Y000492D01*
X006101Y000492D02*
X006101Y002495D01*
X006107Y002443D02*
X006050Y002443D01*
X005983Y002411D02*
X005983Y000492D01*
X005864Y000492D02*
X005864Y002362D01*
X005746Y002345D02*
X005746Y000492D01*
X005627Y000492D02*
X005627Y002345D01*
X005509Y002376D02*
X005509Y000492D01*
X005390Y000492D02*
X005390Y002425D01*
X005358Y002443D02*
X004013Y002443D01*
X003968Y002507D02*
X003968Y005877D01*
X003971Y005880D02*
X003994Y005880D01*
X003994Y005761D02*
X003853Y005761D01*
X003850Y005759D02*
X003850Y002625D01*
X003795Y002680D02*
X005166Y002680D01*
X005239Y002562D02*
X003913Y002562D01*
X003731Y002741D02*
X003731Y005643D01*
X003994Y005643D01*
X003613Y005594D02*
X003613Y002790D01*
X003376Y002882D02*
X003376Y005502D01*
X003257Y005502D02*
X003257Y002882D01*
X003139Y002882D02*
X003139Y005502D01*
X003994Y005287D02*
X002254Y005287D01*
X002254Y005169D02*
X003994Y005169D01*
X003994Y005050D02*
X002254Y005050D01*
X002254Y004932D02*
X003994Y004932D01*
X003994Y004813D02*
X002254Y004813D01*
X002254Y004695D02*
X003994Y004695D01*
X004004Y004576D02*
X002254Y004576D01*
X002254Y004458D02*
X004053Y004458D01*
X004087Y004408D02*
X004087Y002267D01*
X004063Y002325D02*
X006107Y002325D01*
X006155Y002206D02*
X004112Y002206D01*
X005272Y002529D02*
X005272Y000492D01*
X002254Y000666D02*
X029524Y000666D01*
X029524Y000784D02*
X002254Y000784D01*
X007301Y002443D02*
X007692Y002443D01*
X005309Y003391D02*
X002254Y003391D01*
X002254Y003273D02*
X005195Y003273D01*
X005153Y003173D02*
X005153Y003482D01*
X005272Y003482D02*
X005272Y003354D01*
X005145Y003154D02*
X002254Y003154D01*
X002254Y003036D02*
X005107Y003036D01*
X005107Y002917D02*
X002254Y002917D01*
X015374Y005643D02*
X015449Y005643D01*
X015449Y005761D02*
X015374Y005761D01*
X015374Y005880D02*
X015449Y005880D01*
X015568Y006235D02*
X015569Y006235D01*
X015581Y006246D02*
X015581Y007137D01*
X015574Y007065D02*
X017558Y007065D01*
X017558Y007183D02*
X016594Y007183D01*
X016529Y007130D02*
X016529Y006254D01*
X016559Y006235D02*
X017558Y006235D01*
X017558Y006117D02*
X016679Y006117D01*
X016648Y006148D02*
X016648Y007258D01*
X016666Y007302D02*
X017558Y007302D01*
X017558Y007420D02*
X016679Y007420D01*
X016679Y007539D02*
X017558Y007539D01*
X017558Y007657D02*
X016679Y007657D01*
X016679Y007776D02*
X017558Y007776D01*
X016577Y008013D02*
X024637Y008013D01*
X024814Y008201D02*
X025034Y008292D01*
X025873Y008292D01*
X026094Y008201D01*
X026262Y008032D01*
X026354Y007811D01*
X026354Y007573D01*
X026262Y007352D01*
X026102Y007192D01*
X026262Y007032D01*
X026354Y006811D01*
X026354Y006573D01*
X026262Y006352D01*
X026094Y006183D01*
X025933Y006117D01*
X025995Y006085D01*
X026053Y006043D01*
X026105Y005992D01*
X026147Y005933D01*
X026180Y005869D01*
X026202Y005800D01*
X026214Y005728D01*
X026214Y005722D01*
X025484Y005722D01*
X025484Y005662D01*
X026214Y005662D01*
X026214Y005656D01*
X026202Y005584D01*
X026180Y005515D01*
X026147Y005451D01*
X026105Y005392D01*
X026053Y005341D01*
X025995Y005299D01*
X025930Y005266D01*
X025861Y005243D01*
X025790Y005232D01*
X025484Y005232D01*
X025484Y005662D01*
X025424Y005662D01*
X025424Y005232D01*
X025118Y005232D01*
X025046Y005243D01*
X024977Y005266D01*
X024913Y005299D01*
X024854Y005341D01*
X024803Y005392D01*
X024760Y005451D01*
X024727Y005515D01*
X024705Y005584D01*
X024694Y005656D01*
X024694Y005662D01*
X025424Y005662D01*
X025424Y005722D01*
X024694Y005722D01*
X024694Y005728D01*
X024705Y005800D01*
X024727Y005869D01*
X024760Y005933D01*
X024803Y005992D01*
X024854Y006043D01*
X024913Y006085D01*
X024974Y006117D01*
X024943Y006130D02*
X024943Y006101D01*
X024824Y006179D02*
X024824Y006013D01*
X024810Y005998D02*
X023707Y005998D01*
X023639Y005931D02*
X023639Y000492D01*
X023521Y000492D02*
X023521Y005832D01*
X023589Y005880D02*
X024733Y005880D01*
X024706Y005802D02*
X024706Y006291D01*
X024762Y006235D02*
X023818Y006235D01*
X023824Y006354D02*
X024644Y006354D01*
X024595Y006472D02*
X023824Y006472D01*
X023824Y006591D02*
X024554Y006591D01*
X024587Y006492D02*
X024587Y003993D01*
X024584Y003984D02*
X023377Y003984D01*
X023382Y003989D02*
X023504Y004283D01*
X023504Y004601D01*
X023382Y004895D01*
X023157Y005120D01*
X022863Y005242D01*
X022545Y005242D01*
X022251Y005120D01*
X022026Y004895D01*
X021904Y004601D01*
X021904Y004283D01*
X022026Y003989D01*
X022251Y003764D01*
X022545Y003642D01*
X022863Y003642D01*
X023157Y003764D01*
X023382Y003989D01*
X023402Y004038D02*
X023402Y000492D01*
X023284Y000492D02*
X023284Y002089D01*
X023283Y002088D02*
X024653Y002088D01*
X024706Y002141D02*
X024706Y002475D01*
X024722Y002443D02*
X022744Y002443D01*
X022744Y002482D02*
X022744Y002402D01*
X023364Y002402D01*
X023364Y002169D01*
X022977Y001782D01*
X022744Y001782D01*
X022744Y002402D01*
X022664Y002402D01*
X022664Y001782D01*
X022430Y001782D01*
X022044Y002169D01*
X022044Y002402D01*
X022664Y002402D01*
X022664Y002482D01*
X022664Y003102D01*
X022430Y003102D01*
X022044Y002715D01*
X022044Y002482D01*
X022664Y002482D01*
X022744Y002482D01*
X023364Y002482D01*
X023364Y002715D01*
X022977Y003102D01*
X022744Y003102D01*
X022744Y002482D01*
X022691Y002482D02*
X022691Y003642D01*
X022573Y003642D02*
X022573Y003102D01*
X022664Y003036D02*
X022744Y003036D01*
X022810Y003102D02*
X022810Y003642D01*
X022928Y003669D02*
X022928Y003102D01*
X023043Y003036D02*
X024799Y003036D01*
X024824Y003060D02*
X024824Y003149D01*
X024811Y003154D02*
X020196Y003154D01*
X020196Y003273D02*
X024676Y003273D01*
X024706Y003243D02*
X024706Y002909D01*
X024710Y002917D02*
X023162Y002917D01*
X023165Y002914D02*
X023165Y003772D01*
X023116Y003747D02*
X024514Y003747D01*
X024514Y003628D02*
X020196Y003628D01*
X020196Y003510D02*
X024538Y003510D01*
X024587Y003391D02*
X020196Y003391D01*
X020196Y003747D02*
X022291Y003747D01*
X022336Y003728D02*
X022336Y003007D01*
X022364Y003036D02*
X020169Y003036D01*
X020120Y002917D02*
X022246Y002917D01*
X022217Y002889D02*
X022217Y003797D01*
X022149Y003865D02*
X020196Y003865D01*
X020196Y003984D02*
X022030Y003984D01*
X022099Y003916D02*
X022099Y002770D01*
X022127Y002799D02*
X020555Y002799D01*
X020558Y002798D02*
X020558Y010888D01*
X020440Y010888D02*
X020440Y002847D01*
X020321Y002848D02*
X020321Y010888D01*
X020203Y010888D02*
X020203Y007909D01*
X020319Y007420D02*
X021735Y007420D01*
X021743Y007428D02*
X021743Y008432D01*
X021625Y008432D02*
X021625Y007234D01*
X021604Y007183D02*
X020319Y007183D01*
X020319Y007065D02*
X021584Y007065D01*
X021584Y006946D02*
X020319Y006946D01*
X020319Y006828D02*
X021584Y006828D01*
X021584Y006709D02*
X018998Y006709D01*
X018899Y006752D02*
X018899Y009011D01*
X018925Y008961D02*
X017148Y008961D01*
X017122Y008998D02*
X017122Y010888D01*
X017240Y010888D02*
X017240Y005556D01*
X017272Y005524D02*
X017596Y005524D01*
X017596Y005200D01*
X017627Y005169D02*
X022368Y005169D01*
X022336Y005155D02*
X022336Y005756D01*
X022350Y005761D02*
X023057Y005761D01*
X023047Y005766D02*
X023047Y005166D01*
X023039Y005169D02*
X029524Y005169D01*
X029524Y005287D02*
X028878Y005287D01*
X028894Y005299D02*
X028952Y005356D01*
X028999Y005422D01*
X029036Y005494D01*
X029061Y005571D01*
X029071Y005634D01*
X028261Y005634D01*
X028261Y003749D01*
X029071Y003749D01*
X029061Y003813D01*
X029036Y003890D01*
X028999Y003962D01*
X028952Y004027D01*
X028894Y004085D01*
X028829Y004132D01*
X028756Y004169D01*
X028679Y004194D01*
X028599Y004207D01*
X028261Y004207D01*
X028261Y003749D01*
X028261Y003634D01*
X028261Y002347D01*
X028379Y002347D02*
X028379Y003177D01*
X028261Y003177D02*
X028599Y003177D01*
X028679Y003190D01*
X028756Y003215D01*
X028829Y003251D01*
X028894Y003299D01*
X028952Y003356D01*
X028999Y003422D01*
X029036Y003494D01*
X029061Y003571D01*
X029071Y003634D01*
X028261Y003634D01*
X028261Y003177D01*
X028261Y003273D02*
X028146Y003273D01*
X028146Y003177D02*
X028146Y003634D01*
X028261Y003634D01*
X028261Y003628D02*
X028146Y003628D01*
X028146Y003634D02*
X027336Y003634D01*
X027346Y003571D01*
X027372Y003494D01*
X027408Y003422D01*
X027456Y003356D01*
X027513Y003299D01*
X027579Y003251D01*
X027651Y003215D01*
X027728Y003190D01*
X027808Y003177D01*
X028146Y003177D01*
X028142Y003177D02*
X028142Y002347D01*
X028024Y002347D02*
X028024Y003177D01*
X027905Y003177D02*
X027905Y002347D01*
X027787Y002347D02*
X027787Y003180D01*
X027668Y003209D02*
X027668Y002326D01*
X027665Y002325D02*
X026085Y002325D01*
X026128Y002367D02*
X026128Y002215D01*
X026136Y002206D02*
X027437Y002206D01*
X027431Y002201D02*
X027431Y003390D01*
X027431Y003391D02*
X026320Y003391D01*
X026365Y003499D02*
X026365Y001885D01*
X026379Y001851D02*
X027206Y001851D01*
X027194Y001824D02*
X027194Y007560D01*
X027194Y007562D02*
X027293Y007321D01*
X027478Y007137D01*
X027718Y007037D01*
X028689Y007037D01*
X028930Y007137D01*
X029114Y007321D01*
X029214Y007562D01*
X029214Y007822D01*
X029114Y008063D01*
X028930Y008247D01*
X028689Y008347D01*
X027718Y008347D01*
X027478Y008247D01*
X027293Y008063D01*
X027194Y007822D01*
X027194Y007562D01*
X027203Y007539D02*
X026340Y007539D01*
X026354Y007657D02*
X027194Y007657D01*
X027194Y007776D02*
X026354Y007776D01*
X026319Y007894D02*
X027224Y007894D01*
X027194Y007824D02*
X027194Y010888D01*
X027076Y010888D02*
X027076Y000492D01*
X027194Y000492D02*
X027194Y001560D01*
X027194Y001562D02*
X027293Y001321D01*
X027478Y001137D01*
X027718Y001037D01*
X028689Y001037D01*
X028930Y001137D01*
X029114Y001321D01*
X029214Y001562D01*
X029214Y001822D01*
X029114Y002063D01*
X028930Y002247D01*
X028689Y002347D01*
X027718Y002347D01*
X027478Y002247D01*
X027293Y002063D01*
X027194Y001822D01*
X027194Y001562D01*
X027194Y001614D02*
X026394Y001614D01*
X026394Y001732D02*
X027194Y001732D01*
X027221Y001495D02*
X026363Y001495D01*
X026365Y001499D02*
X026365Y000492D01*
X026483Y000492D02*
X026483Y010888D01*
X026365Y010888D02*
X026365Y003885D01*
X026373Y003865D02*
X027364Y003865D01*
X027372Y003890D02*
X027346Y003813D01*
X027336Y003749D01*
X028146Y003749D01*
X028146Y003634D01*
X028142Y003634D02*
X028142Y003749D01*
X028146Y003749D02*
X028146Y004207D01*
X027808Y004207D01*
X027728Y004194D01*
X027651Y004169D01*
X027579Y004132D01*
X027513Y004085D01*
X027456Y004027D01*
X027408Y003962D01*
X027372Y003890D01*
X027424Y003984D02*
X026324Y003984D01*
X026246Y004096D02*
X026246Y006336D01*
X026263Y006354D02*
X029524Y006354D01*
X029524Y006472D02*
X026312Y006472D01*
X026354Y006591D02*
X029524Y006591D01*
X029524Y006709D02*
X026354Y006709D01*
X026347Y006828D02*
X029524Y006828D01*
X029524Y006946D02*
X026298Y006946D01*
X026246Y007048D02*
X026246Y007336D01*
X026212Y007302D02*
X027312Y007302D01*
X027313Y007302D02*
X027313Y002082D01*
X027318Y002088D02*
X026255Y002088D01*
X026246Y002096D02*
X026246Y002607D01*
X026246Y002652D02*
X026246Y002732D01*
X026246Y002777D02*
X026246Y003288D01*
X026232Y003273D02*
X027549Y003273D01*
X027550Y003273D02*
X027550Y002277D01*
X027255Y001969D02*
X026330Y001969D01*
X026009Y002265D02*
X026009Y002273D01*
X026186Y002443D02*
X029524Y002443D01*
X029524Y002325D02*
X028742Y002325D01*
X028735Y002328D02*
X028735Y003208D01*
X028616Y003180D02*
X028616Y002347D01*
X028498Y002347D02*
X028498Y003177D01*
X028261Y003391D02*
X028146Y003391D01*
X028146Y003510D02*
X028261Y003510D01*
X028379Y003634D02*
X028379Y003749D01*
X028261Y003749D02*
X028146Y003749D01*
X028146Y003747D02*
X026394Y003747D01*
X026394Y003628D02*
X027337Y003628D01*
X027431Y003634D02*
X027431Y003749D01*
X027550Y003749D02*
X027550Y003634D01*
X027668Y003634D02*
X027668Y003749D01*
X027787Y003749D02*
X027787Y003634D01*
X027905Y003634D02*
X027905Y003749D01*
X028024Y003749D02*
X028024Y003634D01*
X028261Y003747D02*
X029524Y003747D01*
X029524Y003628D02*
X029070Y003628D01*
X028972Y003634D02*
X028972Y003749D01*
X028853Y003749D02*
X028853Y003634D01*
X028735Y003634D02*
X028735Y003749D01*
X028616Y003749D02*
X028616Y003634D01*
X028498Y003634D02*
X028498Y003749D01*
X028261Y003865D02*
X028146Y003865D01*
X028146Y003984D02*
X028261Y003984D01*
X028261Y004102D02*
X028146Y004102D01*
X028142Y004207D02*
X028142Y005177D01*
X028146Y005177D02*
X028146Y005634D01*
X028261Y005634D01*
X028261Y005177D01*
X028599Y005177D01*
X028679Y005190D01*
X028756Y005215D01*
X028829Y005251D01*
X028894Y005299D01*
X028853Y005269D02*
X028853Y004114D01*
X028870Y004102D02*
X029524Y004102D01*
X029524Y003984D02*
X028983Y003984D01*
X028972Y004000D02*
X028972Y005384D01*
X028988Y005406D02*
X029524Y005406D01*
X029524Y005524D02*
X029046Y005524D01*
X028972Y005634D02*
X028972Y005749D01*
X029069Y005761D02*
X029524Y005761D01*
X029524Y005643D02*
X028261Y005643D01*
X028261Y005634D02*
X028261Y005749D01*
X028261Y007037D01*
X028379Y007037D02*
X028379Y006207D01*
X028261Y006207D02*
X028599Y006207D01*
X028679Y006194D01*
X028756Y006169D01*
X028829Y006132D01*
X028894Y006085D01*
X028952Y006027D01*
X028999Y005962D01*
X029036Y005890D01*
X029061Y005813D01*
X029071Y005749D01*
X028261Y005749D01*
X028146Y005749D01*
X028146Y005634D01*
X027336Y005634D01*
X027346Y005571D01*
X027372Y005494D01*
X027408Y005422D01*
X027456Y005356D01*
X027513Y005299D01*
X027579Y005251D01*
X027651Y005215D01*
X027728Y005190D01*
X027808Y005177D01*
X028146Y005177D01*
X028146Y005287D02*
X028261Y005287D01*
X028261Y005406D02*
X028146Y005406D01*
X028146Y005524D02*
X028261Y005524D01*
X028379Y005634D02*
X028379Y005749D01*
X028261Y005749D02*
X028261Y006207D01*
X028261Y006117D02*
X028146Y006117D01*
X028146Y006207D02*
X027808Y006207D01*
X027728Y006194D01*
X027651Y006169D01*
X027579Y006132D01*
X027513Y006085D01*
X027456Y006027D01*
X027408Y005962D01*
X027372Y005890D01*
X027346Y005813D01*
X027336Y005749D01*
X028146Y005749D01*
X028146Y006207D01*
X028142Y006207D02*
X028142Y007037D01*
X028024Y007037D02*
X028024Y006207D01*
X027905Y006207D02*
X027905Y007037D01*
X027787Y007037D02*
X027787Y006204D01*
X027668Y006175D02*
X027668Y007058D01*
X027651Y007065D02*
X026229Y007065D01*
X026128Y007166D02*
X026128Y007217D01*
X026111Y007183D02*
X027431Y007183D01*
X027431Y005994D01*
X027435Y005998D02*
X026098Y005998D01*
X026128Y005960D02*
X026128Y006217D01*
X026146Y006235D02*
X029524Y006235D01*
X029524Y006117D02*
X028850Y006117D01*
X028853Y006114D02*
X028853Y007105D01*
X028757Y007065D02*
X029524Y007065D01*
X029524Y007183D02*
X028977Y007183D01*
X028972Y007179D02*
X028972Y006000D01*
X028973Y005998D02*
X029524Y005998D01*
X029524Y005880D02*
X029039Y005880D01*
X028853Y005749D02*
X028853Y005634D01*
X028735Y005634D02*
X028735Y005749D01*
X028616Y005749D02*
X028616Y005634D01*
X028498Y005634D02*
X028498Y005749D01*
X028261Y005761D02*
X028146Y005761D01*
X028142Y005749D02*
X028142Y005634D01*
X028146Y005643D02*
X026212Y005643D01*
X026128Y005662D02*
X026128Y005722D01*
X026209Y005761D02*
X027338Y005761D01*
X027431Y005749D02*
X027431Y005634D01*
X027550Y005634D02*
X027550Y005749D01*
X027668Y005749D02*
X027668Y005634D01*
X027787Y005634D02*
X027787Y005749D01*
X027905Y005749D02*
X027905Y005634D01*
X028024Y005634D02*
X028024Y005749D01*
X028146Y005880D02*
X028261Y005880D01*
X028261Y005998D02*
X028146Y005998D01*
X028498Y006207D02*
X028498Y007037D01*
X028616Y007037D02*
X028616Y006204D01*
X028735Y006176D02*
X028735Y007056D01*
X029090Y007297D02*
X029090Y002087D01*
X029089Y002088D02*
X029524Y002088D01*
X029524Y002206D02*
X028971Y002206D01*
X028972Y002205D02*
X028972Y003384D01*
X028977Y003391D02*
X029524Y003391D01*
X029524Y003273D02*
X028858Y003273D01*
X028853Y003269D02*
X028853Y002279D01*
X029153Y001969D02*
X029524Y001969D01*
X029524Y001851D02*
X029202Y001851D01*
X029209Y001834D02*
X029209Y007550D01*
X029204Y007539D02*
X029524Y007539D01*
X029524Y007657D02*
X029214Y007657D01*
X029214Y007776D02*
X029524Y007776D01*
X029524Y007894D02*
X029184Y007894D01*
X029209Y007834D02*
X029209Y010888D01*
X029327Y010888D02*
X029327Y000492D01*
X029209Y000492D02*
X029209Y001550D01*
X029186Y001495D02*
X029524Y001495D01*
X029524Y001377D02*
X029137Y001377D01*
X029090Y001297D02*
X029090Y000492D01*
X028972Y000492D02*
X028972Y001179D01*
X028933Y001140D02*
X029524Y001140D01*
X029524Y001258D02*
X029052Y001258D01*
X028853Y001105D02*
X028853Y000492D01*
X028735Y000492D02*
X028735Y001056D01*
X028616Y001037D02*
X028616Y000492D01*
X028498Y000492D02*
X028498Y001037D01*
X028379Y001037D02*
X028379Y000492D01*
X028261Y000492D02*
X028261Y001037D01*
X028142Y001037D02*
X028142Y000492D01*
X028024Y000492D02*
X028024Y001037D01*
X027905Y001037D02*
X027905Y000492D01*
X027787Y000492D02*
X027787Y001037D01*
X027668Y001058D02*
X027668Y000492D01*
X027550Y000492D02*
X027550Y001107D01*
X027474Y001140D02*
X026061Y001140D01*
X026009Y001118D02*
X026009Y000492D01*
X025891Y000492D02*
X025891Y001072D01*
X025772Y001072D02*
X025772Y000492D01*
X025654Y000492D02*
X025654Y001072D01*
X025535Y001072D02*
X025535Y000492D01*
X025417Y000492D02*
X025417Y001072D01*
X025298Y001072D02*
X025298Y000492D01*
X025180Y000492D02*
X025180Y001072D01*
X025061Y001072D02*
X025061Y000492D01*
X024943Y000492D02*
X024943Y001100D01*
X026128Y001169D02*
X026128Y000492D01*
X026246Y000492D02*
X026246Y001288D01*
X026217Y001258D02*
X027356Y001258D01*
X027313Y001302D02*
X027313Y000492D01*
X027431Y000492D02*
X027431Y001183D01*
X027270Y001377D02*
X026314Y001377D01*
X024587Y001993D02*
X024587Y003391D01*
X024535Y003865D02*
X023259Y003865D01*
X023284Y003891D02*
X023284Y002795D01*
X023280Y002799D02*
X024665Y002799D01*
X024706Y002732D02*
X024706Y002652D01*
X024671Y002562D02*
X023364Y002562D01*
X023284Y002482D02*
X023284Y002402D01*
X023364Y002325D02*
X024822Y002325D01*
X024824Y002323D02*
X024824Y002235D01*
X024771Y002206D02*
X023364Y002206D01*
X023165Y002402D02*
X023165Y002482D01*
X023047Y002482D02*
X023047Y002402D01*
X022928Y002402D02*
X022928Y002482D01*
X022810Y002482D02*
X022810Y002402D01*
X022744Y002325D02*
X022664Y002325D01*
X022691Y002402D02*
X022691Y000492D01*
X022573Y000492D02*
X022573Y001782D01*
X022664Y001851D02*
X022744Y001851D01*
X022810Y001782D02*
X022810Y000492D01*
X022928Y000492D02*
X022928Y001782D01*
X023046Y001851D02*
X024529Y001851D01*
X024514Y001732D02*
X020775Y001732D01*
X020795Y001753D02*
X020795Y000492D01*
X020677Y000492D02*
X020677Y001635D01*
X020875Y001851D02*
X022361Y001851D01*
X022336Y001877D02*
X022336Y000492D01*
X022454Y000492D02*
X022454Y001782D01*
X022664Y001969D02*
X022744Y001969D01*
X022744Y002088D02*
X022664Y002088D01*
X022664Y002206D02*
X022744Y002206D01*
X022664Y002443D02*
X020912Y002443D01*
X020914Y002440D02*
X020914Y010888D01*
X021032Y010888D02*
X021032Y000492D01*
X020914Y000492D02*
X020914Y001944D01*
X020924Y001969D02*
X022243Y001969D01*
X022217Y001995D02*
X022217Y000492D01*
X022099Y000492D02*
X022099Y002114D01*
X022124Y002088D02*
X020962Y002088D01*
X020962Y002206D02*
X022044Y002206D01*
X022044Y002325D02*
X020961Y002325D01*
X020863Y002562D02*
X022044Y002562D01*
X022099Y002482D02*
X022099Y002402D01*
X022217Y002402D02*
X022217Y002482D01*
X022336Y002482D02*
X022336Y002402D01*
X022454Y002402D02*
X022454Y002482D01*
X022573Y002482D02*
X022573Y002402D01*
X022664Y002562D02*
X022744Y002562D01*
X022744Y002680D02*
X022664Y002680D01*
X022664Y002799D02*
X022744Y002799D01*
X022744Y002917D02*
X022664Y002917D01*
X023047Y003032D02*
X023047Y003718D01*
X022454Y003679D02*
X022454Y003102D01*
X022044Y002680D02*
X020746Y002680D01*
X020795Y002631D02*
X020795Y010888D01*
X020677Y010888D02*
X020677Y002749D01*
X020203Y002848D02*
X020203Y005475D01*
X020280Y005524D02*
X024725Y005524D01*
X024706Y005582D02*
X024706Y004141D01*
X024667Y004102D02*
X023429Y004102D01*
X023478Y004221D02*
X024791Y004221D01*
X024824Y004235D02*
X024824Y005371D01*
X024793Y005406D02*
X017390Y005406D01*
X017359Y005437D02*
X017359Y010888D01*
X017477Y010888D02*
X017477Y005319D01*
X017509Y005287D02*
X024934Y005287D01*
X024943Y005283D02*
X024943Y004284D01*
X025061Y004312D02*
X025061Y005241D01*
X025180Y005232D02*
X025180Y004312D01*
X025298Y004312D02*
X025298Y005232D01*
X025417Y005232D02*
X025417Y004312D01*
X025535Y004312D02*
X025535Y005232D01*
X025484Y005287D02*
X025424Y005287D01*
X025424Y005406D02*
X025484Y005406D01*
X025484Y005524D02*
X025424Y005524D01*
X025424Y005643D02*
X025484Y005643D01*
X025535Y005662D02*
X025535Y005722D01*
X025417Y005722D02*
X025417Y005662D01*
X025298Y005662D02*
X025298Y005722D01*
X025180Y005722D02*
X025180Y005662D01*
X025061Y005662D02*
X025061Y005722D01*
X024943Y005722D02*
X024943Y005662D01*
X024824Y005662D02*
X024824Y005722D01*
X024706Y005722D02*
X024706Y005662D01*
X024696Y005643D02*
X020319Y005643D01*
X020319Y005761D02*
X022057Y005761D01*
X022099Y005752D02*
X022099Y004968D01*
X022062Y004932D02*
X017864Y004932D01*
X017833Y004963D02*
X017833Y005469D01*
X017951Y005469D02*
X017951Y004845D01*
X017983Y004813D02*
X019153Y004813D01*
X019136Y004807D02*
X019136Y005469D01*
X019255Y005469D02*
X019255Y004856D01*
X019373Y004877D02*
X019373Y005469D01*
X019492Y005469D02*
X019492Y004877D01*
X019610Y004873D02*
X019610Y005469D01*
X019729Y005469D02*
X019729Y004824D01*
X019755Y004813D02*
X021992Y004813D01*
X021980Y004786D02*
X021980Y005793D01*
X021862Y005842D02*
X021862Y000492D01*
X021980Y000492D02*
X021980Y004098D01*
X021978Y004102D02*
X020196Y004102D01*
X020196Y004221D02*
X021929Y004221D01*
X021904Y004339D02*
X020173Y004339D01*
X020123Y004458D02*
X021904Y004458D01*
X021904Y004576D02*
X020062Y004576D01*
X020084Y004552D02*
X020084Y005469D01*
X019966Y005469D02*
X019966Y004672D01*
X019943Y004695D02*
X021943Y004695D01*
X022181Y005050D02*
X017746Y005050D01*
X017714Y005082D02*
X017714Y005469D01*
X017558Y005643D02*
X017153Y005643D01*
X017122Y005674D02*
X017122Y008386D01*
X017105Y008368D02*
X029524Y008368D01*
X029524Y008250D02*
X028923Y008250D01*
X028972Y008205D02*
X028972Y010888D01*
X029090Y010888D02*
X029090Y008087D01*
X029046Y008131D02*
X029524Y008131D01*
X029524Y008013D02*
X029135Y008013D01*
X028853Y008279D02*
X028853Y010888D01*
X028735Y010888D02*
X028735Y008328D01*
X028616Y008347D02*
X028616Y010888D01*
X028498Y010888D02*
X028498Y008347D01*
X028379Y008347D02*
X028379Y010888D01*
X028261Y010888D02*
X028261Y008347D01*
X028142Y008347D02*
X028142Y010888D01*
X028024Y010888D02*
X028024Y008347D01*
X027905Y008347D02*
X027905Y010888D01*
X027787Y010888D02*
X027787Y008347D01*
X027668Y008326D02*
X027668Y010888D01*
X027550Y010888D02*
X027550Y008277D01*
X027484Y008250D02*
X025974Y008250D01*
X026009Y008236D02*
X026009Y010888D01*
X025891Y010888D02*
X025891Y008285D01*
X025772Y008292D02*
X025772Y010888D01*
X025654Y010888D02*
X025654Y008292D01*
X025535Y008292D02*
X025535Y010888D01*
X025417Y010888D02*
X025417Y008292D01*
X025298Y008292D02*
X025298Y010888D01*
X025180Y010888D02*
X025180Y008292D01*
X025061Y008292D02*
X025061Y010888D01*
X024943Y010888D02*
X024943Y008254D01*
X024933Y008250D02*
X016515Y008250D01*
X016529Y008264D02*
X016529Y008049D01*
X017003Y008335D02*
X017003Y005793D01*
X017035Y005761D02*
X017558Y005761D01*
X016411Y006291D02*
X016411Y007093D01*
X016292Y007093D02*
X016292Y006291D01*
X016174Y006291D02*
X016174Y007093D01*
X016055Y007093D02*
X016055Y006291D01*
X015937Y006291D02*
X015937Y007093D01*
X015818Y007093D02*
X015818Y006291D01*
X015700Y006291D02*
X015700Y007093D01*
X015574Y006946D02*
X017558Y006946D01*
X017558Y006828D02*
X015574Y006828D01*
X015574Y006709D02*
X018878Y006709D01*
X018781Y006752D02*
X018781Y006632D01*
X018662Y006632D02*
X018662Y006752D01*
X018544Y006752D02*
X018544Y006632D01*
X018425Y006632D02*
X018425Y006752D01*
X018307Y006752D02*
X018307Y006632D01*
X018188Y006632D02*
X018188Y006752D01*
X018070Y006752D02*
X018070Y006632D01*
X017951Y006632D02*
X017951Y006752D01*
X017833Y006752D02*
X017833Y006632D01*
X017714Y006632D02*
X017714Y006752D01*
X017596Y006752D02*
X017596Y006632D01*
X017558Y006591D02*
X015574Y006591D01*
X015574Y006472D02*
X017558Y006472D01*
X017558Y006354D02*
X015574Y006354D01*
X018878Y006354D02*
X018998Y006354D01*
X018998Y006472D02*
X018878Y006472D01*
X019136Y006632D02*
X019136Y006752D01*
X019255Y006752D02*
X019255Y006632D01*
X019373Y006632D02*
X019373Y006752D01*
X019492Y006752D02*
X019492Y006632D01*
X019610Y006632D02*
X019610Y006752D01*
X019729Y006752D02*
X019729Y006632D01*
X019847Y006632D02*
X019847Y006752D01*
X019966Y006752D02*
X019966Y006632D01*
X020084Y006632D02*
X020084Y006752D01*
X020203Y006752D02*
X020203Y006632D01*
X020319Y006591D02*
X021584Y006591D01*
X021584Y006472D02*
X020319Y006472D01*
X020319Y006354D02*
X021584Y006354D01*
X021589Y006235D02*
X020319Y006235D01*
X020319Y006117D02*
X021638Y006117D01*
X021625Y006150D02*
X021625Y000492D01*
X021743Y000492D02*
X021743Y005956D01*
X021700Y005998D02*
X020319Y005998D01*
X020319Y005880D02*
X021819Y005880D01*
X022217Y005752D02*
X022217Y005087D01*
X022454Y005205D02*
X022454Y005805D01*
X022573Y005864D02*
X022573Y005242D01*
X022691Y005242D02*
X022691Y005983D01*
X022589Y005880D02*
X022819Y005880D01*
X022810Y005889D02*
X022810Y005242D01*
X022928Y005215D02*
X022928Y005815D01*
X023165Y005752D02*
X023165Y005112D01*
X023227Y005050D02*
X029524Y005050D01*
X029524Y004932D02*
X023345Y004932D01*
X023284Y004993D02*
X023284Y005752D01*
X023350Y005761D02*
X024699Y005761D01*
X025654Y005722D02*
X025654Y005662D01*
X025772Y005662D02*
X025772Y005722D01*
X025891Y005722D02*
X025891Y005662D01*
X026009Y005662D02*
X026009Y005722D01*
X026183Y005524D02*
X027362Y005524D01*
X027420Y005406D02*
X026115Y005406D01*
X026128Y005424D02*
X026128Y004215D01*
X026117Y004221D02*
X029524Y004221D01*
X029524Y004339D02*
X023504Y004339D01*
X023504Y004458D02*
X029524Y004458D01*
X029524Y004576D02*
X023504Y004576D01*
X023465Y004695D02*
X029524Y004695D01*
X029524Y004813D02*
X023416Y004813D01*
X023402Y004846D02*
X023402Y005783D01*
X023824Y006709D02*
X024554Y006709D01*
X024561Y006828D02*
X023824Y006828D01*
X023804Y007183D02*
X024797Y007183D01*
X024617Y007420D02*
X023672Y007420D01*
X023639Y007453D02*
X023639Y008432D01*
X023402Y008496D02*
X023402Y007601D01*
X022735Y007420D02*
X022672Y007420D01*
X022691Y007401D02*
X022691Y010888D01*
X022573Y010888D02*
X022573Y007520D01*
X021653Y007302D02*
X020319Y007302D01*
X019136Y007915D02*
X019136Y008735D01*
X019394Y008842D02*
X019514Y008842D01*
X019514Y008961D02*
X019394Y008961D01*
X019394Y009079D02*
X019514Y009079D01*
X019514Y009198D02*
X019394Y009198D01*
X019394Y009316D02*
X019514Y009316D01*
X019514Y009435D02*
X019394Y009435D01*
X019394Y009553D02*
X019514Y009553D01*
X019610Y009632D02*
X019610Y009752D01*
X019729Y009752D02*
X019729Y009632D01*
X019847Y009632D02*
X019847Y009752D01*
X019966Y009752D02*
X019966Y009632D01*
X020056Y009553D02*
X021065Y009553D01*
X021065Y009435D02*
X020056Y009435D01*
X020056Y009316D02*
X021065Y009316D01*
X021065Y009198D02*
X020056Y009198D01*
X020032Y009079D02*
X021065Y009079D01*
X021388Y008515D02*
X021388Y000492D01*
X021506Y000492D02*
X021506Y008466D01*
X021456Y008487D02*
X017165Y008487D01*
X017003Y008654D02*
X017003Y008730D01*
X016827Y008842D02*
X016750Y008842D01*
X016766Y008730D02*
X016766Y010888D01*
X016648Y010888D02*
X016648Y009049D01*
X016750Y008961D02*
X016827Y008961D01*
X016885Y009049D02*
X016885Y010888D01*
X017003Y010888D02*
X017003Y009049D01*
X016827Y008487D02*
X016750Y008487D01*
X019018Y009632D02*
X019018Y009752D01*
X019136Y009752D02*
X019136Y009632D01*
X019255Y009632D02*
X019255Y009752D01*
X019394Y009909D02*
X019514Y009909D01*
X019514Y010027D02*
X019394Y010027D01*
X019847Y010593D02*
X019847Y010888D01*
X019729Y010888D02*
X019729Y010670D01*
X026128Y010888D02*
X026128Y008166D01*
X026163Y008131D02*
X027362Y008131D01*
X027313Y008082D02*
X027313Y010888D01*
X027431Y010888D02*
X027431Y008201D01*
X027273Y008013D02*
X026270Y008013D01*
X026246Y008048D02*
X026246Y010888D01*
X026602Y010888D02*
X026602Y000492D01*
X026720Y000492D02*
X026720Y010888D01*
X026839Y010888D02*
X026839Y000492D01*
X026957Y000492D02*
X026957Y010888D01*
X027252Y007420D02*
X026291Y007420D01*
X027550Y007107D02*
X027550Y006111D01*
X027558Y006117D02*
X025934Y006117D01*
X026009Y006148D02*
X026009Y006075D01*
X026174Y005880D02*
X027368Y005880D01*
X027431Y005390D02*
X027431Y003994D01*
X027538Y004102D02*
X026240Y004102D01*
X026009Y004265D02*
X026009Y005309D01*
X025973Y005287D02*
X027529Y005287D01*
X027550Y005273D02*
X027550Y004111D01*
X027668Y004175D02*
X027668Y005209D01*
X027787Y005180D02*
X027787Y004204D01*
X027905Y004207D02*
X027905Y005177D01*
X028024Y005177D02*
X028024Y004207D01*
X028379Y004207D02*
X028379Y005177D01*
X028498Y005177D02*
X028498Y004207D01*
X028616Y004204D02*
X028616Y005180D01*
X028735Y005208D02*
X028735Y004176D01*
X029044Y003865D02*
X029524Y003865D01*
X029524Y003510D02*
X029041Y003510D01*
X029524Y003154D02*
X026096Y003154D01*
X026128Y003169D02*
X026128Y003017D01*
X026109Y003036D02*
X029524Y003036D01*
X029524Y002917D02*
X026198Y002917D01*
X026243Y002799D02*
X029524Y002799D01*
X029524Y002680D02*
X025494Y002680D01*
X025535Y002652D02*
X025535Y002732D01*
X025654Y002732D02*
X025654Y002652D01*
X025772Y002652D02*
X025772Y002732D01*
X025891Y002732D02*
X025891Y002652D01*
X026009Y002652D02*
X026009Y002732D01*
X026128Y002732D02*
X026128Y002652D01*
X026236Y002562D02*
X029524Y002562D01*
X029524Y001732D02*
X029214Y001732D01*
X029214Y001614D02*
X029524Y001614D01*
X026009Y003111D02*
X026009Y003118D01*
X026369Y003510D02*
X027366Y003510D01*
X025298Y002732D02*
X025298Y002652D01*
X025180Y002652D02*
X025180Y002732D01*
X025061Y002732D02*
X025061Y002652D01*
X024943Y002652D02*
X024943Y002732D01*
X024824Y002732D02*
X024824Y002652D01*
X025414Y002680D02*
X023364Y002680D01*
X023165Y001970D02*
X023165Y000492D01*
X023047Y000492D02*
X023047Y001852D01*
X023165Y001969D02*
X024578Y001969D01*
X020084Y002810D02*
X020084Y002831D01*
X020057Y002799D02*
X020053Y002799D01*
X016529Y002396D02*
X016529Y002319D01*
X016411Y002319D02*
X016411Y002396D01*
X016292Y002396D02*
X016292Y002319D01*
X019847Y004775D02*
X019847Y005469D01*
X018998Y005643D02*
X018878Y005643D01*
X018878Y005761D02*
X018998Y005761D01*
X018998Y005880D02*
X018878Y005880D01*
X018878Y005998D02*
X018998Y005998D01*
X018998Y006117D02*
X018878Y006117D01*
X018878Y006235D02*
X018998Y006235D01*
X025654Y005232D02*
X025654Y004312D01*
X025772Y004312D02*
X025772Y005232D01*
X025891Y005253D02*
X025891Y004312D01*
X029095Y007302D02*
X029524Y007302D01*
X029524Y007420D02*
X029155Y007420D01*
D26*
X021204Y003192D03*
X017954Y001692D03*
X016204Y006692D03*
X016204Y009692D03*
X017954Y009692D03*
X005954Y010442D03*
X004954Y001692D03*
M02*
