G75*
%MOIN*%
%OFA0B0*%
%FSLAX24Y24*%
%IPPOS*%
%LPD*%
%AMOC8*
5,1,8,0,0,1.08239X$1,22.5*
%
%ADD10C,0.0060*%
%ADD11C,0.0050*%
%ADD12R,0.0200X0.0200*%
%ADD13C,0.0080*%
%ADD14C,0.0040*%
%ADD15R,0.0197X0.0524*%
%ADD16R,0.0340X0.0160*%
%ADD17R,0.0160X0.0340*%
D10*
X001460Y000933D02*
X001460Y001433D01*
X001710Y001683D01*
X001460Y001933D01*
X001460Y002433D01*
X001710Y002683D01*
X001460Y002933D01*
X001460Y003433D01*
X001710Y003683D01*
X001460Y003933D01*
X001460Y004433D01*
X001710Y004683D01*
X001460Y004933D01*
X001460Y005433D01*
X001710Y005683D01*
X001460Y005933D01*
X001460Y006433D01*
X001710Y006683D01*
X001460Y006933D01*
X001460Y007433D01*
X001710Y007683D01*
X001460Y007933D01*
X001460Y008433D01*
X001710Y008683D01*
X002210Y008683D01*
X002460Y008433D01*
X002460Y007933D01*
X002210Y007683D01*
X002460Y007433D01*
X002460Y006933D01*
X002210Y006683D01*
X002460Y006433D01*
X002460Y005933D01*
X002210Y005683D01*
X002460Y005433D01*
X002460Y004933D01*
X002210Y004683D01*
X002460Y004433D01*
X002460Y003933D01*
X002210Y003683D01*
X002460Y003433D01*
X002460Y002933D01*
X002210Y002683D01*
X002460Y002433D01*
X002460Y001933D01*
X002210Y001683D01*
X002460Y001433D01*
X002460Y000933D01*
X002210Y000683D01*
X001710Y000683D01*
X001460Y000933D01*
X005989Y003027D02*
X005989Y003240D01*
X005989Y003134D02*
X006523Y003134D01*
X006630Y003027D01*
X006630Y002920D01*
X006523Y002813D01*
X006523Y003458D02*
X006416Y003565D01*
X006416Y003885D01*
X006310Y003885D02*
X006630Y003885D01*
X006630Y003565D01*
X006523Y003458D01*
X006203Y003565D02*
X006203Y003778D01*
X006310Y003885D01*
X006310Y004102D02*
X006523Y004102D01*
X006630Y004209D01*
X006630Y004529D01*
X006630Y004747D02*
X005989Y004747D01*
X006203Y004529D02*
X006203Y004209D01*
X006310Y004102D01*
X006416Y004747D02*
X006203Y005067D01*
X006416Y004747D02*
X006630Y005067D01*
X006523Y005929D02*
X006630Y006035D01*
X006630Y006249D01*
X006523Y006356D01*
X006416Y006356D01*
X006310Y006249D01*
X006310Y006142D01*
X006310Y006249D02*
X006203Y006356D01*
X006096Y006356D01*
X005989Y006249D01*
X005989Y006035D01*
X006096Y005929D01*
X002460Y008933D02*
X002210Y008683D01*
X001710Y008683D01*
X001460Y008933D01*
X001460Y009433D01*
X001710Y009683D01*
X001460Y009933D01*
X001460Y010433D01*
X001710Y010683D01*
X001460Y010933D01*
X001460Y011433D01*
X001710Y011683D01*
X001460Y011933D01*
X001460Y012433D01*
X001710Y012683D01*
X001460Y012933D01*
X001460Y013433D01*
X001710Y013683D01*
X001460Y013933D01*
X001460Y014433D01*
X001710Y014683D01*
X001460Y014933D01*
X001460Y015433D01*
X001710Y015683D01*
X001460Y015933D01*
X001460Y016433D01*
X001710Y016683D01*
X002210Y016683D01*
X002460Y016433D01*
X002460Y015933D01*
X002210Y015683D01*
X002460Y015433D01*
X002460Y014933D01*
X002210Y014683D01*
X002460Y014433D01*
X002460Y013933D01*
X002210Y013683D01*
X002460Y013433D01*
X002460Y012933D01*
X002210Y012683D01*
X002460Y012433D01*
X002460Y011933D01*
X002210Y011683D01*
X002460Y011433D01*
X002460Y010933D01*
X002210Y010683D01*
X002460Y010433D01*
X002460Y009933D01*
X002210Y009683D01*
X002460Y009433D01*
X002460Y008933D01*
X006489Y011527D02*
X006489Y011740D01*
X006489Y011634D02*
X007023Y011634D01*
X007130Y011527D01*
X007130Y011420D01*
X007023Y011313D01*
X007023Y011958D02*
X006916Y012065D01*
X006916Y012385D01*
X006810Y012385D02*
X007130Y012385D01*
X007130Y012065D01*
X007023Y011958D01*
X006703Y012065D02*
X006703Y012278D01*
X006810Y012385D01*
X006810Y012602D02*
X007023Y012602D01*
X007130Y012709D01*
X007130Y013029D01*
X007130Y013247D02*
X006489Y013247D01*
X006703Y013029D02*
X006703Y012709D01*
X006810Y012602D01*
X006916Y013247D02*
X006703Y013567D01*
X006916Y013247D02*
X007130Y013567D01*
X007130Y014429D02*
X006703Y014856D01*
X006596Y014856D01*
X006489Y014749D01*
X006489Y014535D01*
X006596Y014429D01*
X007130Y014429D02*
X007130Y014856D01*
X011520Y013953D02*
X011520Y013613D01*
X011800Y013613D02*
X011800Y013953D01*
X012320Y013953D02*
X012320Y013613D01*
X012600Y013613D02*
X012600Y013953D01*
X013120Y013953D02*
X013120Y013613D01*
X013400Y013613D02*
X013400Y013953D01*
X014190Y014043D02*
X014530Y014043D01*
X014530Y014323D02*
X014190Y014323D01*
X015390Y014323D02*
X015730Y014323D01*
X015730Y014043D02*
X015390Y014043D01*
X016520Y013913D02*
X016520Y014253D01*
X016800Y014253D02*
X016800Y013913D01*
X017320Y013913D02*
X017320Y014253D01*
X017600Y014253D02*
X017600Y013913D01*
X018120Y013913D02*
X018120Y014253D01*
X018400Y014253D02*
X018400Y013913D01*
X022889Y014069D02*
X023210Y014069D01*
X023103Y014282D01*
X023103Y014389D01*
X023210Y014496D01*
X023423Y014496D01*
X023530Y014389D01*
X023530Y014176D01*
X023423Y014069D01*
X022889Y014069D02*
X022889Y014496D01*
X023103Y013207D02*
X023316Y012887D01*
X023530Y013207D01*
X023530Y012887D02*
X022889Y012887D01*
X023103Y012670D02*
X023103Y012349D01*
X023210Y012243D01*
X023423Y012243D01*
X023530Y012349D01*
X023530Y012670D01*
X023530Y012025D02*
X023210Y012025D01*
X023103Y011918D01*
X023103Y011705D01*
X023316Y011705D02*
X023316Y012025D01*
X023530Y012025D02*
X023530Y011705D01*
X023423Y011598D01*
X023316Y011705D01*
X023423Y011274D02*
X022889Y011274D01*
X022889Y011380D02*
X022889Y011167D01*
X023423Y011274D02*
X023530Y011167D01*
X023530Y011060D01*
X023423Y010953D01*
X027460Y010933D02*
X027460Y011433D01*
X027710Y011683D01*
X027460Y011933D01*
X027460Y012433D01*
X027710Y012683D01*
X027460Y012933D01*
X027460Y013433D01*
X027710Y013683D01*
X027460Y013933D01*
X027460Y014433D01*
X027710Y014683D01*
X027460Y014933D01*
X027460Y015433D01*
X027710Y015683D01*
X027460Y015933D01*
X027460Y016433D01*
X027710Y016683D01*
X028210Y016683D01*
X028460Y016433D01*
X028460Y015933D01*
X028210Y015683D01*
X028460Y015433D01*
X028460Y014933D01*
X028210Y014683D01*
X028460Y014433D01*
X028460Y013933D01*
X028210Y013683D01*
X028460Y013433D01*
X028460Y012933D01*
X028210Y012683D01*
X028460Y012433D01*
X028460Y011933D01*
X028210Y011683D01*
X028460Y011433D01*
X028460Y010933D01*
X028210Y010683D01*
X028460Y010433D01*
X028460Y009933D01*
X028210Y009683D01*
X028460Y009433D01*
X028460Y008933D01*
X028210Y008683D01*
X028460Y008433D01*
X028460Y007933D01*
X028210Y007683D01*
X028460Y007433D01*
X028460Y006933D01*
X028210Y006683D01*
X028460Y006433D01*
X028460Y005933D01*
X028210Y005683D01*
X028460Y005433D01*
X028460Y004933D01*
X028210Y004683D01*
X028460Y004433D01*
X028460Y003933D01*
X028210Y003683D01*
X028460Y003433D01*
X028460Y002933D01*
X028210Y002683D01*
X028460Y002433D01*
X028460Y001933D01*
X028210Y001683D01*
X028460Y001433D01*
X028460Y000933D01*
X028210Y000683D01*
X027710Y000683D01*
X027460Y000933D01*
X027460Y001433D01*
X027710Y001683D01*
X027460Y001933D01*
X027460Y002433D01*
X027710Y002683D01*
X027460Y002933D01*
X027460Y003433D01*
X027710Y003683D01*
X027460Y003933D01*
X027460Y004433D01*
X027710Y004683D01*
X027460Y004933D01*
X027460Y005433D01*
X027710Y005683D01*
X027460Y005933D01*
X027460Y006433D01*
X027710Y006683D01*
X027460Y006933D01*
X027460Y007433D01*
X027710Y007683D01*
X027460Y007933D01*
X027460Y008433D01*
X027710Y008683D01*
X028210Y008683D01*
X027710Y008683D01*
X027460Y008933D01*
X027460Y009433D01*
X027710Y009683D01*
X027460Y009933D01*
X027460Y010433D01*
X027710Y010683D01*
X027460Y010933D01*
X023423Y006396D02*
X023316Y006396D01*
X023210Y006289D01*
X023210Y005969D01*
X023423Y005969D01*
X023530Y006076D01*
X023530Y006289D01*
X023423Y006396D01*
X022996Y006182D02*
X023210Y005969D01*
X022996Y006182D02*
X022889Y006396D01*
X023103Y005107D02*
X023316Y004787D01*
X023530Y005107D01*
X023530Y004787D02*
X022889Y004787D01*
X023103Y004570D02*
X023103Y004249D01*
X023210Y004143D01*
X023423Y004143D01*
X023530Y004249D01*
X023530Y004570D01*
X023530Y003925D02*
X023210Y003925D01*
X023103Y003818D01*
X023103Y003605D01*
X023316Y003605D02*
X023316Y003925D01*
X023530Y003925D02*
X023530Y003605D01*
X023423Y003498D01*
X023316Y003605D01*
X023423Y003174D02*
X022889Y003174D01*
X022889Y003280D02*
X022889Y003067D01*
X023423Y003174D02*
X023530Y003067D01*
X023530Y002960D01*
X023423Y002853D01*
X018400Y006213D02*
X018400Y006553D01*
X018120Y006553D02*
X018120Y006213D01*
X017600Y006213D02*
X017600Y006553D01*
X017320Y006553D02*
X017320Y006213D01*
X016800Y006213D02*
X016800Y006553D01*
X016520Y006553D02*
X016520Y006213D01*
X015730Y006543D02*
X015390Y006543D01*
X015390Y006823D02*
X015730Y006823D01*
X014530Y006823D02*
X014190Y006823D01*
X014190Y006543D02*
X014530Y006543D01*
X013400Y006553D02*
X013400Y006213D01*
X013120Y006213D02*
X013120Y006553D01*
X012600Y006553D02*
X012600Y006213D01*
X012320Y006213D02*
X012320Y006553D01*
X011800Y006553D02*
X011800Y006213D01*
X011520Y006213D02*
X011520Y006553D01*
X002210Y016683D02*
X001710Y016683D01*
X001460Y016933D01*
X001460Y017433D01*
X001710Y017683D01*
X001460Y017933D01*
X001460Y018433D01*
X001710Y018683D01*
X001460Y018933D01*
X001460Y019433D01*
X001710Y019683D01*
X001460Y019933D01*
X001460Y020433D01*
X001710Y020683D01*
X001460Y020933D01*
X001460Y021433D01*
X001710Y021683D01*
X001460Y021933D01*
X001460Y022433D01*
X001710Y022683D01*
X001460Y022933D01*
X001460Y023433D01*
X001710Y023683D01*
X001460Y023933D01*
X001460Y024433D01*
X001710Y024683D01*
X002210Y024683D01*
X002460Y024433D01*
X002460Y023933D01*
X002210Y023683D01*
X002460Y023433D01*
X002460Y022933D01*
X002210Y022683D01*
X002460Y022433D01*
X002460Y021933D01*
X002210Y021683D01*
X002460Y021433D01*
X002460Y020933D01*
X002210Y020683D01*
X002460Y020433D01*
X002460Y019933D01*
X002210Y019683D01*
X002460Y019433D01*
X002460Y018933D01*
X002210Y018683D01*
X002460Y018433D01*
X002460Y017933D01*
X002210Y017683D01*
X002460Y017433D01*
X002460Y016933D01*
X002210Y016683D01*
X006389Y019427D02*
X006389Y019640D01*
X006389Y019534D02*
X006923Y019534D01*
X007030Y019427D01*
X007030Y019320D01*
X006923Y019213D01*
X006923Y019858D02*
X006816Y019965D01*
X006816Y020285D01*
X006710Y020285D02*
X007030Y020285D01*
X007030Y019965D01*
X006923Y019858D01*
X006603Y019965D02*
X006603Y020178D01*
X006710Y020285D01*
X006710Y020502D02*
X006603Y020609D01*
X006603Y020929D01*
X006816Y021147D02*
X006603Y021467D01*
X006816Y021147D02*
X007030Y021467D01*
X007030Y021147D02*
X006389Y021147D01*
X007030Y020929D02*
X007030Y020609D01*
X006923Y020502D01*
X006710Y020502D01*
X006603Y022329D02*
X006389Y022542D01*
X007030Y022542D01*
X007030Y022329D02*
X007030Y022756D01*
X011520Y022253D02*
X011520Y021913D01*
X011800Y021913D02*
X011800Y022253D01*
X012320Y022253D02*
X012320Y021913D01*
X012600Y021913D02*
X012600Y022253D01*
X013120Y022253D02*
X013120Y021913D01*
X013400Y021913D02*
X013400Y022253D01*
X013990Y022323D02*
X014330Y022323D01*
X014330Y022043D02*
X013990Y022043D01*
X015190Y022043D02*
X015530Y022043D01*
X015530Y022323D02*
X015190Y022323D01*
X016120Y022053D02*
X016120Y021713D01*
X016400Y021713D02*
X016400Y022053D01*
X017120Y022153D02*
X017120Y021813D01*
X017400Y021813D02*
X017400Y022153D01*
X017820Y022153D02*
X017820Y021813D01*
X018100Y021813D02*
X018100Y022153D01*
X018410Y023183D02*
X018160Y023433D01*
X018160Y023933D01*
X018410Y024183D01*
X018160Y024433D01*
X018160Y024933D01*
X018410Y025183D01*
X018910Y025183D01*
X019160Y024933D01*
X019160Y024433D01*
X018910Y024183D01*
X019160Y023933D01*
X019160Y023433D01*
X018910Y023183D01*
X018410Y023183D01*
X018410Y024183D02*
X018910Y024183D01*
X016660Y024033D02*
X016410Y023783D01*
X015910Y023783D01*
X015660Y024033D01*
X015410Y023783D01*
X014910Y023783D01*
X014660Y024033D01*
X014410Y023783D01*
X013910Y023783D01*
X013660Y024033D01*
X013660Y024533D01*
X013910Y024783D01*
X014410Y024783D01*
X014660Y024533D01*
X014910Y024783D01*
X015410Y024783D01*
X015660Y024533D01*
X015910Y024783D01*
X016410Y024783D01*
X016660Y024533D01*
X016660Y024033D01*
X015660Y024033D02*
X015660Y024533D01*
X014660Y024533D02*
X014660Y024033D01*
X022989Y022389D02*
X023310Y022069D01*
X023310Y022496D01*
X023630Y022389D02*
X022989Y022389D01*
X023203Y021207D02*
X023416Y020887D01*
X023630Y021207D01*
X023630Y020887D02*
X022989Y020887D01*
X023203Y020670D02*
X023203Y020349D01*
X023310Y020243D01*
X023523Y020243D01*
X023630Y020349D01*
X023630Y020670D01*
X023630Y020025D02*
X023310Y020025D01*
X023203Y019918D01*
X023203Y019705D01*
X023416Y019705D02*
X023416Y020025D01*
X023630Y020025D02*
X023630Y019705D01*
X023523Y019598D01*
X023416Y019705D01*
X023523Y019274D02*
X022989Y019274D01*
X022989Y019380D02*
X022989Y019167D01*
X023523Y019274D02*
X023630Y019167D01*
X023630Y019060D01*
X023523Y018953D01*
X027460Y018933D02*
X027460Y019433D01*
X027710Y019683D01*
X027460Y019933D01*
X027460Y020433D01*
X027710Y020683D01*
X027460Y020933D01*
X027460Y021433D01*
X027710Y021683D01*
X027460Y021933D01*
X027460Y022433D01*
X027710Y022683D01*
X027460Y022933D01*
X027460Y023433D01*
X027710Y023683D01*
X027460Y023933D01*
X027460Y024433D01*
X027710Y024683D01*
X028210Y024683D01*
X028460Y024433D01*
X028460Y023933D01*
X028210Y023683D01*
X028460Y023433D01*
X028460Y022933D01*
X028210Y022683D01*
X028460Y022433D01*
X028460Y021933D01*
X028210Y021683D01*
X028460Y021433D01*
X028460Y020933D01*
X028210Y020683D01*
X028460Y020433D01*
X028460Y019933D01*
X028210Y019683D01*
X028460Y019433D01*
X028460Y018933D01*
X028210Y018683D01*
X028460Y018433D01*
X028460Y017933D01*
X028210Y017683D01*
X028460Y017433D01*
X028460Y016933D01*
X028210Y016683D01*
X027710Y016683D01*
X027460Y016933D01*
X027460Y017433D01*
X027710Y017683D01*
X027460Y017933D01*
X027460Y018433D01*
X027710Y018683D01*
X027460Y018933D01*
D11*
X028635Y017158D02*
X029085Y017158D01*
X029085Y017008D02*
X029085Y017309D01*
X028785Y017008D02*
X028635Y017158D01*
X027285Y016184D02*
X027285Y016033D01*
X027210Y015958D01*
X027135Y015958D01*
X027060Y016033D01*
X027060Y016184D01*
X027135Y016259D01*
X027210Y016259D01*
X027285Y016184D01*
X027060Y016184D02*
X026985Y016259D01*
X026910Y016259D01*
X026835Y016184D01*
X026835Y016033D01*
X026910Y015958D01*
X026985Y015958D01*
X027060Y016033D01*
X029085Y009309D02*
X029085Y009008D01*
X029085Y009158D02*
X028635Y009158D01*
X028785Y009008D01*
X027285Y008184D02*
X027285Y008033D01*
X027210Y007958D01*
X027135Y007958D01*
X027060Y008033D01*
X027060Y008184D01*
X027135Y008259D01*
X027210Y008259D01*
X027285Y008184D01*
X027060Y008184D02*
X026985Y008259D01*
X026910Y008259D01*
X026835Y008184D01*
X026835Y008033D01*
X026910Y007958D01*
X026985Y007958D01*
X027060Y008033D01*
X029085Y001309D02*
X029085Y001008D01*
X029085Y001158D02*
X028635Y001158D01*
X028785Y001008D01*
X003085Y001073D02*
X003010Y000998D01*
X002935Y000998D01*
X002860Y001073D01*
X002860Y001223D01*
X002935Y001298D01*
X003010Y001298D01*
X003085Y001223D01*
X003085Y001073D01*
X002860Y001073D02*
X002785Y000998D01*
X002710Y000998D01*
X002635Y001073D01*
X002635Y001223D01*
X002710Y001298D01*
X002785Y001298D01*
X002860Y001223D01*
X001285Y007948D02*
X001285Y008248D01*
X001285Y008098D02*
X000835Y008098D01*
X000985Y007948D01*
X002635Y009073D02*
X002635Y009223D01*
X002710Y009298D01*
X002785Y009298D01*
X002860Y009223D01*
X002860Y009073D01*
X002785Y008998D01*
X002710Y008998D01*
X002635Y009073D01*
X002860Y009073D02*
X002935Y008998D01*
X003010Y008998D01*
X003085Y009073D01*
X003085Y009223D01*
X003010Y009298D01*
X002935Y009298D01*
X002860Y009223D01*
X001285Y015948D02*
X001285Y016248D01*
X001285Y016098D02*
X000835Y016098D01*
X000985Y015948D01*
X002635Y017073D02*
X002635Y017223D01*
X002710Y017298D01*
X002785Y017298D01*
X002860Y017223D01*
X002860Y017073D01*
X002785Y016998D01*
X002710Y016998D01*
X002635Y017073D01*
X002860Y017073D02*
X002935Y016998D01*
X003010Y016998D01*
X003085Y017073D01*
X003085Y017223D01*
X003010Y017298D01*
X002935Y017298D01*
X002860Y017223D01*
X001285Y023948D02*
X001285Y024248D01*
X001285Y024098D02*
X000835Y024098D01*
X000985Y023948D01*
X026835Y024033D02*
X026835Y024184D01*
X026910Y024259D01*
X026985Y024259D01*
X027060Y024184D01*
X027060Y024033D01*
X026985Y023958D01*
X026910Y023958D01*
X026835Y024033D01*
X027060Y024033D02*
X027135Y023958D01*
X027210Y023958D01*
X027285Y024033D01*
X027285Y024184D01*
X027210Y024259D01*
X027135Y024259D01*
X027060Y024184D01*
D12*
X027960Y024183D03*
X027960Y023183D03*
X027960Y022183D03*
X027960Y021183D03*
X027960Y020183D03*
X027960Y019183D03*
X027960Y018183D03*
X027960Y017183D03*
X027960Y016183D03*
X027960Y015183D03*
X027960Y014183D03*
X027960Y013183D03*
X027960Y012183D03*
X027960Y011183D03*
X027960Y010183D03*
X027960Y009183D03*
X027960Y008183D03*
X027960Y007183D03*
X027960Y006183D03*
X027960Y005183D03*
X027960Y004183D03*
X027960Y003183D03*
X027960Y002183D03*
X027960Y001183D03*
X001960Y001183D03*
X001960Y002183D03*
X001960Y003183D03*
X001960Y004183D03*
X001960Y005183D03*
X001960Y006183D03*
X001960Y007183D03*
X001960Y008183D03*
X001960Y009183D03*
X001960Y010183D03*
X001960Y011183D03*
X001960Y012183D03*
X001960Y013183D03*
X001960Y014183D03*
X001960Y015183D03*
X001960Y016183D03*
X001960Y017183D03*
X001960Y018183D03*
X001960Y019183D03*
X001960Y020183D03*
X001960Y021183D03*
X001960Y022183D03*
X001960Y023183D03*
X001960Y024183D03*
X014160Y024283D03*
X015160Y024283D03*
X016160Y024283D03*
X018660Y024683D03*
X018660Y023683D03*
D13*
X017869Y020168D02*
X012451Y020168D01*
X012451Y017798D01*
X017869Y017798D01*
X017869Y020168D01*
X017869Y012068D02*
X012451Y012068D01*
X012451Y009698D01*
X017869Y009698D01*
X017869Y012068D01*
X017969Y004368D02*
X012551Y004368D01*
X012551Y001998D01*
X017969Y001998D01*
X017969Y004368D01*
D14*
X013490Y002510D02*
X013490Y002203D01*
X013490Y002357D02*
X013030Y002357D01*
X013183Y002203D01*
X013083Y009903D02*
X012930Y010057D01*
X013390Y010057D01*
X013390Y010210D02*
X013390Y009903D01*
X013390Y018003D02*
X013390Y018310D01*
X013390Y018157D02*
X012930Y018157D01*
X013083Y018003D01*
X018680Y022857D02*
X019140Y022857D01*
X019140Y023010D02*
X019140Y022703D01*
X018833Y022703D02*
X018680Y022857D01*
X017027Y024303D02*
X016720Y024303D01*
X016873Y024303D02*
X016873Y024764D01*
X016720Y024610D01*
D15*
X016660Y020470D03*
X016160Y020470D03*
X015660Y020470D03*
X015160Y020470D03*
X014660Y020470D03*
X014160Y020470D03*
X013660Y020470D03*
X013160Y020470D03*
X013160Y017497D03*
X013660Y017497D03*
X014160Y017497D03*
X014660Y017497D03*
X015160Y017497D03*
X015660Y017497D03*
X016160Y017497D03*
X016660Y017497D03*
X017160Y017497D03*
X017160Y020470D03*
X017160Y012370D03*
X016660Y012370D03*
X016160Y012370D03*
X015660Y012370D03*
X015160Y012370D03*
X014660Y012370D03*
X014160Y012370D03*
X013660Y012370D03*
X013160Y012370D03*
X013160Y009397D03*
X013660Y009397D03*
X014160Y009397D03*
X014660Y009397D03*
X015160Y009397D03*
X015660Y009397D03*
X016160Y009397D03*
X016660Y009397D03*
X017160Y009397D03*
X017260Y004670D03*
X016760Y004670D03*
X016260Y004670D03*
X015760Y004670D03*
X015260Y004670D03*
X014760Y004670D03*
X014260Y004670D03*
X013760Y004670D03*
X013260Y004670D03*
X013260Y001697D03*
X013760Y001697D03*
X014260Y001697D03*
X014760Y001697D03*
X015260Y001697D03*
X015760Y001697D03*
X016260Y001697D03*
X016760Y001697D03*
X017260Y001697D03*
D16*
X017460Y006133D03*
X017460Y006633D03*
X016660Y006633D03*
X016660Y006133D03*
X018260Y006133D03*
X018260Y006633D03*
X013260Y006633D03*
X013260Y006133D03*
X012460Y006133D03*
X012460Y006633D03*
X011660Y006633D03*
X011660Y006133D03*
X011660Y013533D03*
X011660Y014033D03*
X012460Y014033D03*
X012460Y013533D03*
X013260Y013533D03*
X013260Y014033D03*
X016660Y013833D03*
X016660Y014333D03*
X017460Y014333D03*
X017460Y013833D03*
X018260Y013833D03*
X018260Y014333D03*
X017960Y021733D03*
X017960Y022233D03*
X017260Y022233D03*
X017260Y021733D03*
X016260Y021633D03*
X016260Y022133D03*
X013260Y022333D03*
X013260Y021833D03*
X012460Y021833D03*
X012460Y022333D03*
X011660Y022333D03*
X011660Y021833D03*
D17*
X013910Y022183D03*
X014410Y022183D03*
X015110Y022183D03*
X015610Y022183D03*
X015810Y014183D03*
X015310Y014183D03*
X014610Y014183D03*
X014110Y014183D03*
X014110Y006683D03*
X014610Y006683D03*
X015310Y006683D03*
X015810Y006683D03*
M02*
