G75*
%MOIN*%
%OFA0B0*%
%FSLAX24Y24*%
%IPPOS*%
%LPD*%
%AMOC8*
5,1,8,0,0,1.08239X$1,22.5*
%
%ADD10C,0.0020*%
%ADD11C,0.0080*%
%ADD12C,0.0040*%
D10*
X003434Y001107D02*
X003471Y001071D01*
X003581Y001071D01*
X003581Y001291D01*
X003471Y001291D01*
X003434Y001254D01*
X003434Y001107D01*
X003655Y001071D02*
X003655Y001291D01*
X003802Y001291D02*
X003655Y001071D01*
X003802Y001071D02*
X003802Y001291D01*
X003876Y001254D02*
X003913Y001291D01*
X003986Y001291D01*
X004023Y001254D01*
X004023Y001107D01*
X003986Y001071D01*
X003913Y001071D01*
X003876Y001107D01*
X003876Y001181D01*
X003950Y001181D01*
X006293Y001144D02*
X006366Y001071D01*
X006439Y001144D01*
X006439Y001291D01*
X006514Y001254D02*
X006514Y001217D01*
X006550Y001181D01*
X006514Y001144D01*
X006514Y001107D01*
X006550Y001071D01*
X006624Y001071D01*
X006660Y001107D01*
X006734Y001107D02*
X006734Y001071D01*
X006771Y001071D01*
X006771Y001107D01*
X006734Y001107D01*
X006845Y001107D02*
X006882Y001071D01*
X006955Y001071D01*
X006992Y001107D01*
X006918Y001181D02*
X006882Y001181D01*
X006845Y001144D01*
X006845Y001107D01*
X006882Y001181D02*
X006845Y001217D01*
X006845Y001254D01*
X006882Y001291D01*
X006955Y001291D01*
X006992Y001254D01*
X006660Y001254D02*
X006624Y001291D01*
X006550Y001291D01*
X006514Y001254D01*
X006550Y001181D02*
X006587Y001181D01*
X006293Y001144D02*
X006293Y001291D01*
X006413Y002592D02*
X006340Y002666D01*
X006340Y002812D01*
X006487Y002812D02*
X006487Y002666D01*
X006413Y002592D01*
X006561Y002629D02*
X006561Y002702D01*
X006598Y002739D01*
X006634Y002739D01*
X006708Y002702D01*
X006708Y002812D01*
X006561Y002812D01*
X006561Y002629D02*
X006598Y002592D01*
X006671Y002592D01*
X006708Y002629D01*
X006687Y003576D02*
X006577Y003576D01*
X006540Y003613D01*
X006540Y003760D01*
X006577Y003797D01*
X006687Y003797D01*
X006687Y003576D01*
X006761Y003613D02*
X006798Y003576D01*
X006871Y003576D01*
X006908Y003613D01*
X006871Y003687D02*
X006798Y003687D01*
X006761Y003650D01*
X006761Y003613D01*
X006871Y003687D02*
X006908Y003723D01*
X006908Y003760D01*
X006871Y003797D01*
X006798Y003797D01*
X006761Y003760D01*
X006466Y003723D02*
X006392Y003797D01*
X006319Y003723D01*
X006319Y003576D01*
X006466Y003576D02*
X006466Y003723D01*
X006466Y003687D02*
X006319Y003687D01*
X003860Y003723D02*
X003824Y003687D01*
X003750Y003687D01*
X003714Y003650D01*
X003714Y003613D01*
X003750Y003576D01*
X003824Y003576D01*
X003860Y003613D01*
X003860Y003723D02*
X003860Y003760D01*
X003824Y003797D01*
X003750Y003797D01*
X003714Y003760D01*
X003639Y003760D02*
X003639Y003613D01*
X003603Y003576D01*
X003529Y003576D01*
X003493Y003613D01*
X003418Y003576D02*
X003272Y003576D01*
X003418Y003576D02*
X003418Y003797D01*
X003493Y003760D02*
X003529Y003797D01*
X003603Y003797D01*
X003639Y003760D01*
X003603Y002812D02*
X003566Y002776D01*
X003566Y002702D01*
X003603Y002666D01*
X003713Y002666D01*
X003640Y002666D02*
X003566Y002592D01*
X003492Y002592D02*
X003345Y002739D01*
X003345Y002776D01*
X003382Y002812D01*
X003455Y002812D01*
X003492Y002776D01*
X003603Y002812D02*
X003713Y002812D01*
X003713Y002592D01*
X003787Y002592D02*
X003860Y002592D01*
X003824Y002592D02*
X003824Y002812D01*
X003860Y002812D02*
X003787Y002812D01*
X003492Y002592D02*
X003345Y002592D01*
X007475Y005815D02*
X007548Y005742D01*
X007621Y005815D01*
X007621Y005962D01*
X007695Y005962D02*
X007842Y005962D01*
X007842Y005852D01*
X007769Y005889D01*
X007732Y005889D01*
X007695Y005852D01*
X007695Y005779D01*
X007732Y005742D01*
X007806Y005742D01*
X007842Y005779D01*
X007475Y005815D02*
X007475Y005962D01*
X008435Y005925D02*
X008435Y005779D01*
X008471Y005742D01*
X008581Y005742D01*
X008581Y005962D01*
X008471Y005962D01*
X008435Y005925D01*
X008656Y005962D02*
X008656Y005742D01*
X008802Y005962D01*
X008802Y005742D01*
X008877Y005779D02*
X008877Y005852D01*
X008950Y005852D01*
X009023Y005925D02*
X009023Y005779D01*
X008987Y005742D01*
X008913Y005742D01*
X008877Y005779D01*
X008877Y005925D02*
X008913Y005962D01*
X008987Y005962D01*
X009023Y005925D01*
X009443Y005925D02*
X009480Y005962D01*
X009553Y005962D01*
X009590Y005925D01*
X009590Y005779D01*
X009553Y005742D01*
X009480Y005742D01*
X009443Y005779D01*
X009443Y005852D01*
X009516Y005852D01*
X009664Y005742D02*
X009737Y005742D01*
X009700Y005742D02*
X009700Y005962D01*
X009664Y005962D02*
X009737Y005962D01*
X009811Y005925D02*
X009848Y005962D01*
X009921Y005962D01*
X009958Y005925D01*
X009958Y005889D01*
X009921Y005852D01*
X009848Y005852D01*
X009811Y005815D01*
X009811Y005779D01*
X009848Y005742D01*
X009921Y005742D01*
X009958Y005779D01*
D11*
X008313Y003650D02*
X008313Y003580D01*
X008563Y003580D02*
X008843Y003580D01*
X008703Y003580D02*
X008703Y003160D01*
X008383Y003160D02*
X008243Y003160D01*
X008313Y003160D02*
X008313Y003440D01*
X008383Y003440D01*
X008076Y003440D02*
X007866Y003440D01*
X007796Y003370D01*
X007796Y003230D01*
X007866Y003160D01*
X008076Y003160D01*
X008076Y003020D02*
X008076Y003440D01*
X009484Y003370D02*
X009484Y003300D01*
X009764Y003300D01*
X009764Y003230D02*
X009764Y003370D01*
X009694Y003440D01*
X009554Y003440D01*
X009484Y003370D01*
X009694Y003160D02*
X009764Y003230D01*
X009694Y003160D02*
X009554Y003160D01*
X009931Y003160D02*
X010071Y003160D01*
X010001Y003160D02*
X010001Y003580D01*
X010071Y003580D01*
X010251Y003440D02*
X010461Y003440D01*
X010532Y003370D01*
X010532Y003230D01*
X010461Y003160D01*
X010251Y003160D01*
X010712Y003160D02*
X010712Y003370D01*
X010782Y003440D01*
X010922Y003440D01*
X011159Y003440D02*
X011299Y003440D01*
X011229Y003510D02*
X011229Y003230D01*
X011159Y003160D01*
X010992Y003230D02*
X010922Y003300D01*
X010712Y003300D01*
X010922Y003160D02*
X010992Y003230D01*
X010922Y003160D02*
X010712Y003160D01*
X011479Y003160D02*
X011479Y003370D01*
X011549Y003440D01*
X011759Y003440D01*
X011759Y003160D01*
X011939Y003300D02*
X012220Y003300D01*
X012220Y003230D02*
X012220Y003370D01*
X012150Y003440D01*
X012009Y003440D01*
X011939Y003370D01*
X011939Y003300D01*
X012009Y003160D02*
X012150Y003160D01*
X012220Y003230D01*
X012540Y003160D02*
X012540Y003580D01*
X012680Y003580D02*
X012400Y003580D01*
D12*
X012346Y002840D02*
X012279Y002840D01*
X012246Y002807D01*
X012246Y002773D01*
X012279Y002740D01*
X012346Y002740D01*
X012379Y002773D01*
X012379Y002807D01*
X012346Y002840D01*
X012467Y002807D02*
X012600Y002673D01*
X012567Y002640D01*
X012500Y002640D01*
X012467Y002673D01*
X012467Y002807D01*
X012500Y002840D01*
X012567Y002840D01*
X012600Y002807D01*
X012600Y002673D01*
X012379Y002673D02*
X012379Y002707D01*
X012346Y002740D01*
X012279Y002740D02*
X012246Y002707D01*
X012246Y002673D01*
X012279Y002640D01*
X012346Y002640D01*
X012379Y002673D01*
X012158Y002640D02*
X012025Y002840D01*
X011937Y002807D02*
X011904Y002840D01*
X011837Y002840D01*
X011804Y002807D01*
X011804Y002773D01*
X011937Y002640D01*
X011804Y002640D01*
X011716Y002673D02*
X011583Y002807D01*
X011583Y002673D01*
X011616Y002640D01*
X011683Y002640D01*
X011716Y002673D01*
X011716Y002807D01*
X011683Y002840D01*
X011616Y002840D01*
X011583Y002807D01*
X011495Y002773D02*
X011428Y002840D01*
X011428Y002640D01*
X011362Y002640D02*
X011495Y002640D01*
X011274Y002740D02*
X011141Y002740D01*
X011174Y002840D02*
X011274Y002740D01*
X011174Y002640D02*
X011174Y002840D01*
M02*
