G75*
%MOIN*%
%OFA0B0*%
%FSLAX24Y24*%
%IPPOS*%
%LPD*%
%AMOC8*
5,1,8,0,0,1.08239X$1,22.5*
%
%ADD10C,0.0060*%
%ADD11C,0.0040*%
%ADD12C,0.0020*%
%ADD13C,0.0030*%
%ADD14R,0.0900X0.0250*%
%ADD15R,0.0374X0.0197*%
%ADD16C,0.0500*%
%ADD17R,0.0300X0.2200*%
%ADD18R,0.0350X0.0500*%
%ADD19C,0.0080*%
%ADD20R,0.1140X0.0340*%
%ADD21R,0.0300X0.0340*%
%ADD22C,0.0079*%
%ADD23C,0.0050*%
%ADD24R,0.0240X0.0240*%
%ADD25C,0.0098*%
%ADD26R,0.0157X0.0177*%
%ADD27R,0.0128X0.0069*%
%ADD28R,0.0079X0.0079*%
%ADD29R,0.0340X0.0160*%
%ADD30R,0.0160X0.0340*%
%ADD31R,0.0200X0.0200*%
%ADD32C,0.0000*%
%ADD33R,0.0450X0.0502*%
%ADD34R,0.0450X0.0492*%
%ADD35C,0.0100*%
D10*
X002964Y002330D02*
X002964Y002670D01*
X003244Y002670D02*
X003244Y002330D01*
X003378Y006030D02*
X003378Y006457D01*
X003592Y006671D01*
X003805Y006457D01*
X003805Y006030D01*
X004023Y006137D02*
X004023Y006564D01*
X004130Y006671D01*
X004343Y006671D01*
X004450Y006564D01*
X004667Y006671D02*
X004667Y006030D01*
X004667Y006244D02*
X005094Y006671D01*
X004774Y006350D02*
X005094Y006030D01*
X004450Y006137D02*
X004343Y006030D01*
X004130Y006030D01*
X004023Y006137D01*
X003805Y006350D02*
X003378Y006350D01*
X003161Y006671D02*
X002947Y006671D01*
X003054Y006671D02*
X003054Y006137D01*
X002947Y006030D01*
X002841Y006030D01*
X002734Y006137D01*
X005957Y006137D02*
X006063Y006030D01*
X006277Y006030D01*
X006384Y006137D01*
X006384Y006244D01*
X006277Y006350D01*
X006170Y006350D01*
X006277Y006350D02*
X006384Y006457D01*
X006384Y006564D01*
X006277Y006671D01*
X006063Y006671D01*
X005957Y006564D01*
X008204Y006750D02*
X008204Y006250D01*
X008454Y006000D01*
X008954Y006000D01*
X009204Y006250D01*
X009204Y006750D01*
X008954Y007000D01*
X009204Y007250D01*
X009204Y007750D01*
X008954Y008000D01*
X009204Y008250D01*
X009204Y008750D01*
X008954Y009000D01*
X009204Y009250D01*
X009204Y009750D01*
X008954Y010000D01*
X009204Y010250D01*
X009204Y010750D01*
X008954Y011000D01*
X009204Y011250D01*
X009204Y011750D01*
X008954Y012000D01*
X009204Y012250D01*
X009204Y012750D01*
X008954Y013000D01*
X009204Y013250D01*
X009204Y013750D01*
X008954Y014000D01*
X008454Y014000D01*
X008204Y013750D01*
X008204Y013250D01*
X008454Y013000D01*
X008204Y012750D01*
X008204Y012250D01*
X008454Y012000D01*
X008204Y011750D01*
X008204Y011250D01*
X008454Y011000D01*
X008204Y010750D01*
X008204Y010250D01*
X008454Y010000D01*
X008204Y009750D01*
X008204Y009250D01*
X008454Y009000D01*
X008204Y008750D01*
X008204Y008250D01*
X008454Y008000D01*
X008204Y007750D01*
X008204Y007250D01*
X008454Y007000D01*
X008204Y006750D01*
X010464Y002670D02*
X010464Y002330D01*
X010744Y002330D02*
X010744Y002670D01*
X014704Y006600D02*
X014804Y006500D01*
X015604Y006500D01*
X015704Y006600D01*
X015804Y006500D01*
X016604Y006500D01*
X016704Y006600D01*
X016804Y006500D01*
X017604Y006500D01*
X017704Y006600D01*
X017704Y007400D01*
X017604Y007500D01*
X016804Y007500D01*
X016704Y007400D01*
X016604Y007500D01*
X015804Y007500D01*
X015704Y007400D01*
X015604Y007500D01*
X014804Y007500D01*
X014704Y007400D01*
X014704Y006600D01*
X017204Y004750D02*
X021204Y004750D01*
X021204Y002050D01*
X021854Y002050D01*
X022554Y002050D01*
X023854Y002050D01*
X024554Y002050D01*
X025204Y002050D01*
X025204Y001100D01*
X017204Y001100D01*
X017204Y002050D01*
X017854Y002050D01*
X018554Y002050D01*
X019854Y002050D01*
X020554Y002050D01*
X021204Y002050D01*
X019614Y002750D02*
X019616Y002798D01*
X019622Y002846D01*
X019632Y002893D01*
X019645Y002939D01*
X019662Y002984D01*
X019683Y003027D01*
X019708Y003069D01*
X019735Y003108D01*
X019766Y003145D01*
X019800Y003180D01*
X019836Y003211D01*
X019875Y003240D01*
X019916Y003265D01*
X019959Y003287D01*
X020003Y003305D01*
X020049Y003319D01*
X020096Y003330D01*
X020144Y003337D01*
X020192Y003340D01*
X020240Y003339D01*
X020288Y003334D01*
X020335Y003325D01*
X020382Y003313D01*
X020427Y003296D01*
X020471Y003276D01*
X020513Y003253D01*
X020553Y003226D01*
X020590Y003196D01*
X020625Y003163D01*
X020658Y003127D01*
X020687Y003089D01*
X020713Y003048D01*
X020736Y003006D01*
X020755Y002962D01*
X020770Y002916D01*
X020782Y002870D01*
X020790Y002822D01*
X020794Y002774D01*
X020794Y002726D01*
X020790Y002678D01*
X020782Y002630D01*
X020770Y002584D01*
X020755Y002538D01*
X020736Y002494D01*
X020713Y002452D01*
X020687Y002411D01*
X020658Y002373D01*
X020625Y002337D01*
X020590Y002304D01*
X020553Y002274D01*
X020513Y002247D01*
X020471Y002224D01*
X020427Y002204D01*
X020382Y002187D01*
X020335Y002175D01*
X020288Y002166D01*
X020240Y002161D01*
X020192Y002160D01*
X020144Y002163D01*
X020096Y002170D01*
X020049Y002181D01*
X020003Y002195D01*
X019959Y002213D01*
X019916Y002235D01*
X019875Y002260D01*
X019836Y002289D01*
X019800Y002320D01*
X019766Y002355D01*
X019735Y002392D01*
X019708Y002431D01*
X019683Y002473D01*
X019662Y002516D01*
X019645Y002561D01*
X019632Y002607D01*
X019622Y002654D01*
X019616Y002702D01*
X019614Y002750D01*
X017614Y002750D02*
X017616Y002798D01*
X017622Y002846D01*
X017632Y002893D01*
X017645Y002939D01*
X017662Y002984D01*
X017683Y003027D01*
X017708Y003069D01*
X017735Y003108D01*
X017766Y003145D01*
X017800Y003180D01*
X017836Y003211D01*
X017875Y003240D01*
X017916Y003265D01*
X017959Y003287D01*
X018003Y003305D01*
X018049Y003319D01*
X018096Y003330D01*
X018144Y003337D01*
X018192Y003340D01*
X018240Y003339D01*
X018288Y003334D01*
X018335Y003325D01*
X018382Y003313D01*
X018427Y003296D01*
X018471Y003276D01*
X018513Y003253D01*
X018553Y003226D01*
X018590Y003196D01*
X018625Y003163D01*
X018658Y003127D01*
X018687Y003089D01*
X018713Y003048D01*
X018736Y003006D01*
X018755Y002962D01*
X018770Y002916D01*
X018782Y002870D01*
X018790Y002822D01*
X018794Y002774D01*
X018794Y002726D01*
X018790Y002678D01*
X018782Y002630D01*
X018770Y002584D01*
X018755Y002538D01*
X018736Y002494D01*
X018713Y002452D01*
X018687Y002411D01*
X018658Y002373D01*
X018625Y002337D01*
X018590Y002304D01*
X018553Y002274D01*
X018513Y002247D01*
X018471Y002224D01*
X018427Y002204D01*
X018382Y002187D01*
X018335Y002175D01*
X018288Y002166D01*
X018240Y002161D01*
X018192Y002160D01*
X018144Y002163D01*
X018096Y002170D01*
X018049Y002181D01*
X018003Y002195D01*
X017959Y002213D01*
X017916Y002235D01*
X017875Y002260D01*
X017836Y002289D01*
X017800Y002320D01*
X017766Y002355D01*
X017735Y002392D01*
X017708Y002431D01*
X017683Y002473D01*
X017662Y002516D01*
X017645Y002561D01*
X017632Y002607D01*
X017622Y002654D01*
X017616Y002702D01*
X017614Y002750D01*
X017204Y002050D02*
X017204Y004650D01*
X017204Y004750D01*
X017204Y004650D02*
X025204Y004650D01*
X025204Y002050D01*
X025964Y002330D02*
X025964Y002670D01*
X026244Y002670D02*
X026244Y002330D01*
X023614Y002750D02*
X023616Y002798D01*
X023622Y002846D01*
X023632Y002893D01*
X023645Y002939D01*
X023662Y002984D01*
X023683Y003027D01*
X023708Y003069D01*
X023735Y003108D01*
X023766Y003145D01*
X023800Y003180D01*
X023836Y003211D01*
X023875Y003240D01*
X023916Y003265D01*
X023959Y003287D01*
X024003Y003305D01*
X024049Y003319D01*
X024096Y003330D01*
X024144Y003337D01*
X024192Y003340D01*
X024240Y003339D01*
X024288Y003334D01*
X024335Y003325D01*
X024382Y003313D01*
X024427Y003296D01*
X024471Y003276D01*
X024513Y003253D01*
X024553Y003226D01*
X024590Y003196D01*
X024625Y003163D01*
X024658Y003127D01*
X024687Y003089D01*
X024713Y003048D01*
X024736Y003006D01*
X024755Y002962D01*
X024770Y002916D01*
X024782Y002870D01*
X024790Y002822D01*
X024794Y002774D01*
X024794Y002726D01*
X024790Y002678D01*
X024782Y002630D01*
X024770Y002584D01*
X024755Y002538D01*
X024736Y002494D01*
X024713Y002452D01*
X024687Y002411D01*
X024658Y002373D01*
X024625Y002337D01*
X024590Y002304D01*
X024553Y002274D01*
X024513Y002247D01*
X024471Y002224D01*
X024427Y002204D01*
X024382Y002187D01*
X024335Y002175D01*
X024288Y002166D01*
X024240Y002161D01*
X024192Y002160D01*
X024144Y002163D01*
X024096Y002170D01*
X024049Y002181D01*
X024003Y002195D01*
X023959Y002213D01*
X023916Y002235D01*
X023875Y002260D01*
X023836Y002289D01*
X023800Y002320D01*
X023766Y002355D01*
X023735Y002392D01*
X023708Y002431D01*
X023683Y002473D01*
X023662Y002516D01*
X023645Y002561D01*
X023632Y002607D01*
X023622Y002654D01*
X023616Y002702D01*
X023614Y002750D01*
X021614Y002750D02*
X021616Y002798D01*
X021622Y002846D01*
X021632Y002893D01*
X021645Y002939D01*
X021662Y002984D01*
X021683Y003027D01*
X021708Y003069D01*
X021735Y003108D01*
X021766Y003145D01*
X021800Y003180D01*
X021836Y003211D01*
X021875Y003240D01*
X021916Y003265D01*
X021959Y003287D01*
X022003Y003305D01*
X022049Y003319D01*
X022096Y003330D01*
X022144Y003337D01*
X022192Y003340D01*
X022240Y003339D01*
X022288Y003334D01*
X022335Y003325D01*
X022382Y003313D01*
X022427Y003296D01*
X022471Y003276D01*
X022513Y003253D01*
X022553Y003226D01*
X022590Y003196D01*
X022625Y003163D01*
X022658Y003127D01*
X022687Y003089D01*
X022713Y003048D01*
X022736Y003006D01*
X022755Y002962D01*
X022770Y002916D01*
X022782Y002870D01*
X022790Y002822D01*
X022794Y002774D01*
X022794Y002726D01*
X022790Y002678D01*
X022782Y002630D01*
X022770Y002584D01*
X022755Y002538D01*
X022736Y002494D01*
X022713Y002452D01*
X022687Y002411D01*
X022658Y002373D01*
X022625Y002337D01*
X022590Y002304D01*
X022553Y002274D01*
X022513Y002247D01*
X022471Y002224D01*
X022427Y002204D01*
X022382Y002187D01*
X022335Y002175D01*
X022288Y002166D01*
X022240Y002161D01*
X022192Y002160D01*
X022144Y002163D01*
X022096Y002170D01*
X022049Y002181D01*
X022003Y002195D01*
X021959Y002213D01*
X021916Y002235D01*
X021875Y002260D01*
X021836Y002289D01*
X021800Y002320D01*
X021766Y002355D01*
X021735Y002392D01*
X021708Y002431D01*
X021683Y002473D01*
X021662Y002516D01*
X021645Y002561D01*
X021632Y002607D01*
X021622Y002654D01*
X021616Y002702D01*
X021614Y002750D01*
X022004Y004120D02*
X022006Y004148D01*
X022012Y004175D01*
X022021Y004201D01*
X022034Y004226D01*
X022051Y004249D01*
X022070Y004269D01*
X022092Y004286D01*
X022116Y004300D01*
X022142Y004310D01*
X022169Y004317D01*
X022197Y004320D01*
X022225Y004319D01*
X022252Y004314D01*
X022279Y004305D01*
X022304Y004293D01*
X022327Y004278D01*
X022348Y004259D01*
X022366Y004238D01*
X022381Y004214D01*
X022392Y004188D01*
X022400Y004162D01*
X022404Y004134D01*
X022404Y004106D01*
X022400Y004078D01*
X022392Y004052D01*
X022381Y004026D01*
X022366Y004002D01*
X022348Y003981D01*
X022327Y003962D01*
X022304Y003947D01*
X022279Y003935D01*
X022252Y003926D01*
X022225Y003921D01*
X022197Y003920D01*
X022169Y003923D01*
X022142Y003930D01*
X022116Y003940D01*
X022092Y003954D01*
X022070Y003971D01*
X022051Y003991D01*
X022034Y004014D01*
X022021Y004039D01*
X022012Y004065D01*
X022006Y004092D01*
X022004Y004120D01*
X021204Y004750D02*
X025204Y004750D01*
X025204Y004650D01*
X024004Y004120D02*
X024006Y004148D01*
X024012Y004175D01*
X024021Y004201D01*
X024034Y004226D01*
X024051Y004249D01*
X024070Y004269D01*
X024092Y004286D01*
X024116Y004300D01*
X024142Y004310D01*
X024169Y004317D01*
X024197Y004320D01*
X024225Y004319D01*
X024252Y004314D01*
X024279Y004305D01*
X024304Y004293D01*
X024327Y004278D01*
X024348Y004259D01*
X024366Y004238D01*
X024381Y004214D01*
X024392Y004188D01*
X024400Y004162D01*
X024404Y004134D01*
X024404Y004106D01*
X024400Y004078D01*
X024392Y004052D01*
X024381Y004026D01*
X024366Y004002D01*
X024348Y003981D01*
X024327Y003962D01*
X024304Y003947D01*
X024279Y003935D01*
X024252Y003926D01*
X024225Y003921D01*
X024197Y003920D01*
X024169Y003923D01*
X024142Y003930D01*
X024116Y003940D01*
X024092Y003954D01*
X024070Y003971D01*
X024051Y003991D01*
X024034Y004014D01*
X024021Y004039D01*
X024012Y004065D01*
X024006Y004092D01*
X024004Y004120D01*
X024804Y006500D02*
X024704Y006600D01*
X024704Y007400D01*
X024804Y007500D01*
X025604Y007500D01*
X025704Y007400D01*
X025804Y007500D01*
X026604Y007500D01*
X026704Y007400D01*
X026804Y007500D01*
X027604Y007500D01*
X027704Y007400D01*
X027704Y006600D01*
X027604Y006500D01*
X026804Y006500D01*
X026704Y006600D01*
X026604Y006500D01*
X025804Y006500D01*
X025704Y006600D01*
X025604Y006500D01*
X024804Y006500D01*
X023204Y007250D02*
X023204Y007750D01*
X022954Y008000D01*
X022454Y008000D01*
X022204Y007750D01*
X021954Y008000D01*
X021454Y008000D01*
X021204Y007750D01*
X020954Y008000D01*
X020454Y008000D01*
X020204Y007750D01*
X019954Y008000D01*
X019454Y008000D01*
X019204Y007750D01*
X019204Y007250D01*
X019454Y007000D01*
X019954Y007000D01*
X020204Y007250D01*
X020454Y007000D01*
X020954Y007000D01*
X021204Y007250D01*
X021454Y007000D01*
X021954Y007000D01*
X022204Y007250D01*
X022454Y007000D01*
X022954Y007000D01*
X023204Y007250D01*
X023834Y008160D02*
X024174Y008160D01*
X024174Y008440D02*
X023834Y008440D01*
X022094Y008570D02*
X022094Y008640D01*
X022094Y008570D02*
X020314Y008570D01*
X020314Y008640D01*
X019644Y009850D02*
X019244Y009850D01*
X018574Y008440D02*
X018234Y008440D01*
X018234Y008160D02*
X018574Y008160D01*
X022764Y010100D02*
X023164Y010100D01*
X022094Y012360D02*
X022094Y012430D01*
X021324Y012430D01*
X021084Y012430D01*
X020314Y012430D01*
X020314Y012360D01*
X020464Y013000D02*
X021944Y013000D01*
X022784Y013360D02*
X023184Y013360D01*
X021944Y015000D02*
X021324Y015000D01*
X021084Y015000D01*
X020464Y015000D01*
X020464Y015500D02*
X021944Y015500D01*
X021324Y015000D02*
X021322Y014979D01*
X021317Y014959D01*
X021308Y014940D01*
X021296Y014923D01*
X021281Y014908D01*
X021264Y014896D01*
X021245Y014887D01*
X021225Y014882D01*
X021204Y014880D01*
X021183Y014882D01*
X021163Y014887D01*
X021144Y014896D01*
X021127Y014908D01*
X021112Y014923D01*
X021100Y014940D01*
X021091Y014959D01*
X021086Y014979D01*
X021084Y015000D01*
X022784Y015860D02*
X023184Y015860D01*
X021944Y017500D02*
X021324Y017500D01*
X021084Y017500D01*
X020464Y017500D01*
X021084Y017500D02*
X021086Y017479D01*
X021091Y017459D01*
X021100Y017440D01*
X021112Y017423D01*
X021127Y017408D01*
X021144Y017396D01*
X021163Y017387D01*
X021183Y017382D01*
X021204Y017380D01*
X021225Y017382D01*
X021245Y017387D01*
X021264Y017396D01*
X021281Y017408D01*
X021296Y017423D01*
X021308Y017440D01*
X021317Y017459D01*
X021322Y017479D01*
X021324Y017500D01*
X021324Y012430D02*
X021322Y012409D01*
X021317Y012389D01*
X021308Y012370D01*
X021296Y012353D01*
X021281Y012338D01*
X021264Y012326D01*
X021245Y012317D01*
X021225Y012312D01*
X021204Y012310D01*
X021183Y012312D01*
X021163Y012317D01*
X021144Y012326D01*
X021127Y012338D01*
X021112Y012353D01*
X021100Y012370D01*
X021091Y012389D01*
X021086Y012409D01*
X021084Y012430D01*
X020004Y004120D02*
X020006Y004148D01*
X020012Y004175D01*
X020021Y004201D01*
X020034Y004226D01*
X020051Y004249D01*
X020070Y004269D01*
X020092Y004286D01*
X020116Y004300D01*
X020142Y004310D01*
X020169Y004317D01*
X020197Y004320D01*
X020225Y004319D01*
X020252Y004314D01*
X020279Y004305D01*
X020304Y004293D01*
X020327Y004278D01*
X020348Y004259D01*
X020366Y004238D01*
X020381Y004214D01*
X020392Y004188D01*
X020400Y004162D01*
X020404Y004134D01*
X020404Y004106D01*
X020400Y004078D01*
X020392Y004052D01*
X020381Y004026D01*
X020366Y004002D01*
X020348Y003981D01*
X020327Y003962D01*
X020304Y003947D01*
X020279Y003935D01*
X020252Y003926D01*
X020225Y003921D01*
X020197Y003920D01*
X020169Y003923D01*
X020142Y003930D01*
X020116Y003940D01*
X020092Y003954D01*
X020070Y003971D01*
X020051Y003991D01*
X020034Y004014D01*
X020021Y004039D01*
X020012Y004065D01*
X020006Y004092D01*
X020004Y004120D01*
X018004Y004120D02*
X018006Y004148D01*
X018012Y004175D01*
X018021Y004201D01*
X018034Y004226D01*
X018051Y004249D01*
X018070Y004269D01*
X018092Y004286D01*
X018116Y004300D01*
X018142Y004310D01*
X018169Y004317D01*
X018197Y004320D01*
X018225Y004319D01*
X018252Y004314D01*
X018279Y004305D01*
X018304Y004293D01*
X018327Y004278D01*
X018348Y004259D01*
X018366Y004238D01*
X018381Y004214D01*
X018392Y004188D01*
X018400Y004162D01*
X018404Y004134D01*
X018404Y004106D01*
X018400Y004078D01*
X018392Y004052D01*
X018381Y004026D01*
X018366Y004002D01*
X018348Y003981D01*
X018327Y003962D01*
X018304Y003947D01*
X018279Y003935D01*
X018252Y003926D01*
X018225Y003921D01*
X018197Y003920D01*
X018169Y003923D01*
X018142Y003930D01*
X018116Y003940D01*
X018092Y003954D01*
X018070Y003971D01*
X018051Y003991D01*
X018034Y004014D01*
X018021Y004039D01*
X018012Y004065D01*
X018006Y004092D01*
X018004Y004120D01*
X029554Y002000D02*
X029854Y002000D01*
X029704Y002150D02*
X029704Y001850D01*
X030204Y002850D02*
X030204Y003050D01*
X030204Y003150D01*
X029754Y003150D01*
X029754Y003400D01*
X030654Y003400D01*
X030654Y003150D01*
X030204Y003150D01*
X028204Y003500D02*
X028206Y003589D01*
X028212Y003678D01*
X028222Y003767D01*
X028236Y003855D01*
X028253Y003942D01*
X028275Y004028D01*
X028301Y004114D01*
X028330Y004198D01*
X028363Y004281D01*
X028399Y004362D01*
X028440Y004442D01*
X028483Y004519D01*
X028530Y004595D01*
X028581Y004668D01*
X028634Y004739D01*
X028691Y004808D01*
X028751Y004874D01*
X028814Y004938D01*
X028879Y004998D01*
X028947Y005056D01*
X029018Y005110D01*
X029091Y005161D01*
X029166Y005209D01*
X029243Y005254D01*
X029322Y005295D01*
X029403Y005332D01*
X029485Y005366D01*
X029569Y005397D01*
X029654Y005423D01*
X029740Y005446D01*
X029827Y005464D01*
X029915Y005479D01*
X030004Y005490D01*
X030093Y005497D01*
X030182Y005500D01*
X030271Y005499D01*
X030360Y005494D01*
X030448Y005485D01*
X030537Y005472D01*
X030624Y005455D01*
X030711Y005435D01*
X030797Y005410D01*
X030881Y005382D01*
X030964Y005350D01*
X031046Y005314D01*
X031126Y005275D01*
X031204Y005232D01*
X031280Y005186D01*
X031354Y005136D01*
X031426Y005083D01*
X031495Y005027D01*
X031562Y004968D01*
X031626Y004906D01*
X031687Y004842D01*
X031746Y004774D01*
X031801Y004704D01*
X031853Y004632D01*
X031902Y004557D01*
X031947Y004481D01*
X031989Y004402D01*
X032027Y004322D01*
X032062Y004240D01*
X032093Y004156D01*
X032121Y004071D01*
X032144Y003985D01*
X032164Y003898D01*
X032180Y003811D01*
X032192Y003722D01*
X032200Y003634D01*
X032204Y003545D01*
X032204Y003455D01*
X032200Y003366D01*
X032192Y003278D01*
X032180Y003189D01*
X032164Y003102D01*
X032144Y003015D01*
X032121Y002929D01*
X032093Y002844D01*
X032062Y002760D01*
X032027Y002678D01*
X031989Y002598D01*
X031947Y002519D01*
X031902Y002443D01*
X031853Y002368D01*
X031801Y002296D01*
X031746Y002226D01*
X031687Y002158D01*
X031626Y002094D01*
X031562Y002032D01*
X031495Y001973D01*
X031426Y001917D01*
X031354Y001864D01*
X031280Y001814D01*
X031204Y001768D01*
X031126Y001725D01*
X031046Y001686D01*
X030964Y001650D01*
X030881Y001618D01*
X030797Y001590D01*
X030711Y001565D01*
X030624Y001545D01*
X030537Y001528D01*
X030448Y001515D01*
X030360Y001506D01*
X030271Y001501D01*
X030182Y001500D01*
X030093Y001503D01*
X030004Y001510D01*
X029915Y001521D01*
X029827Y001536D01*
X029740Y001554D01*
X029654Y001577D01*
X029569Y001603D01*
X029485Y001634D01*
X029403Y001668D01*
X029322Y001705D01*
X029243Y001746D01*
X029166Y001791D01*
X029091Y001839D01*
X029018Y001890D01*
X028947Y001944D01*
X028879Y002002D01*
X028814Y002062D01*
X028751Y002126D01*
X028691Y002192D01*
X028634Y002261D01*
X028581Y002332D01*
X028530Y002405D01*
X028483Y002481D01*
X028440Y002558D01*
X028399Y002638D01*
X028363Y002719D01*
X028330Y002802D01*
X028301Y002886D01*
X028275Y002972D01*
X028253Y003058D01*
X028236Y003145D01*
X028222Y003233D01*
X028212Y003322D01*
X028206Y003411D01*
X028204Y003500D01*
X030204Y003750D02*
X030204Y003950D01*
X030204Y004150D01*
X033234Y005137D02*
X033661Y005564D01*
X033661Y005137D01*
X033554Y005030D01*
X033341Y005030D01*
X033234Y005137D01*
X033234Y005564D01*
X033341Y005671D01*
X033554Y005671D01*
X033661Y005564D01*
X033878Y005564D02*
X033985Y005671D01*
X034199Y005671D01*
X034305Y005564D01*
X034305Y005457D01*
X034199Y005350D01*
X033985Y005350D01*
X033878Y005457D01*
X033878Y005564D01*
X033985Y005350D02*
X033878Y005244D01*
X033878Y005137D01*
X033985Y005030D01*
X034199Y005030D01*
X034305Y005137D01*
X034305Y005244D01*
X034199Y005350D01*
X034523Y005030D02*
X034950Y005671D01*
X035167Y005457D02*
X035381Y005671D01*
X035381Y005030D01*
X035594Y005030D02*
X035167Y005030D01*
X035812Y005350D02*
X036239Y005350D01*
X036132Y005030D02*
X036132Y005671D01*
X035812Y005350D01*
X034954Y006000D02*
X035204Y006250D01*
X035204Y006750D01*
X034954Y007000D01*
X035204Y007250D01*
X035204Y007750D01*
X034954Y008000D01*
X035204Y008250D01*
X035204Y008750D01*
X034954Y009000D01*
X035204Y009250D01*
X035204Y009750D01*
X034954Y010000D01*
X035204Y010250D01*
X035204Y010750D01*
X034954Y011000D01*
X035204Y011250D01*
X035204Y011750D01*
X034954Y012000D01*
X035204Y012250D01*
X035204Y012750D01*
X034954Y013000D01*
X035204Y013250D01*
X035204Y013750D01*
X034954Y014000D01*
X034454Y014000D01*
X034204Y013750D01*
X034204Y013250D01*
X034454Y013000D01*
X034204Y012750D01*
X034204Y012250D01*
X034454Y012000D01*
X034204Y011750D01*
X034204Y011250D01*
X034454Y011000D01*
X034204Y010750D01*
X034204Y010250D01*
X034454Y010000D01*
X034204Y009750D01*
X034204Y009250D01*
X034454Y009000D01*
X034204Y008750D01*
X034204Y008250D01*
X034454Y008000D01*
X034204Y007750D01*
X034204Y007250D01*
X034454Y007000D01*
X034204Y006750D01*
X034204Y006250D01*
X034454Y006000D01*
X034954Y006000D01*
X034704Y004600D02*
X038704Y004600D01*
X038704Y002400D01*
X034704Y002400D01*
X034704Y004600D01*
X036204Y003500D02*
X036704Y003500D01*
X036704Y003250D01*
X036854Y003250D01*
X036854Y003320D01*
X036704Y003500D02*
X036704Y003750D01*
X036554Y003750D01*
X036554Y003680D01*
X036704Y003500D02*
X037604Y003500D01*
X037154Y003270D02*
X036704Y003500D01*
X037154Y003730D01*
X037154Y003270D01*
X037746Y002171D02*
X038066Y002171D01*
X038173Y002064D01*
X038173Y001957D01*
X038066Y001850D01*
X037746Y001850D01*
X038066Y001850D02*
X038173Y001744D01*
X038173Y001637D01*
X038066Y001530D01*
X037746Y001530D01*
X037746Y002171D01*
X038390Y001850D02*
X038390Y001637D01*
X038497Y001530D01*
X038710Y001530D01*
X038817Y001637D01*
X038817Y001850D01*
X038710Y001957D01*
X038497Y001957D01*
X038390Y001850D01*
X039035Y001637D02*
X039141Y001744D01*
X039462Y001744D01*
X039462Y001850D02*
X039462Y001530D01*
X039141Y001530D01*
X039035Y001637D01*
X039141Y001957D02*
X039355Y001957D01*
X039462Y001850D01*
X039679Y001744D02*
X039893Y001957D01*
X040000Y001957D01*
X040216Y001850D02*
X040323Y001957D01*
X040643Y001957D01*
X040643Y002171D02*
X040643Y001530D01*
X040323Y001530D01*
X040216Y001637D01*
X040216Y001850D01*
X039679Y001957D02*
X039679Y001530D01*
X036884Y001530D02*
X036563Y001530D01*
X036457Y001637D01*
X036457Y001957D01*
X036239Y001850D02*
X036239Y001530D01*
X036239Y001850D02*
X036132Y001957D01*
X035812Y001957D01*
X035812Y001530D01*
X035594Y001637D02*
X035488Y001744D01*
X035274Y001744D01*
X035167Y001850D01*
X035274Y001957D01*
X035594Y001957D01*
X035594Y001637D02*
X035488Y001530D01*
X035167Y001530D01*
X034950Y001744D02*
X034523Y001744D01*
X034523Y001850D02*
X034630Y001957D01*
X034843Y001957D01*
X034950Y001850D01*
X034950Y001744D01*
X034843Y001530D02*
X034630Y001530D01*
X034523Y001637D01*
X034523Y001850D01*
X034305Y001850D02*
X034305Y001744D01*
X033878Y001744D01*
X033878Y001850D02*
X033985Y001957D01*
X034199Y001957D01*
X034305Y001850D01*
X034199Y001530D02*
X033985Y001530D01*
X033878Y001637D01*
X033878Y001850D01*
X033661Y002171D02*
X033234Y002171D01*
X033447Y002171D02*
X033447Y001530D01*
X036670Y001316D02*
X036777Y001316D01*
X036884Y001423D01*
X036884Y001957D01*
X037341Y006030D02*
X037234Y006137D01*
X037341Y006030D02*
X037447Y006030D01*
X037554Y006137D01*
X037554Y006671D01*
X037447Y006671D02*
X037661Y006671D01*
X037878Y006457D02*
X038092Y006671D01*
X038305Y006457D01*
X038305Y006030D01*
X038523Y006137D02*
X038630Y006030D01*
X038843Y006030D01*
X038950Y006137D01*
X039167Y006244D02*
X039594Y006671D01*
X039167Y006671D02*
X039167Y006030D01*
X039274Y006350D02*
X039594Y006030D01*
X038950Y006564D02*
X038843Y006671D01*
X038630Y006671D01*
X038523Y006564D01*
X038523Y006137D01*
X038305Y006350D02*
X037878Y006350D01*
X037878Y006457D02*
X037878Y006030D01*
X040457Y006137D02*
X040563Y006030D01*
X040777Y006030D01*
X040884Y006137D01*
X040884Y006244D01*
X040777Y006350D01*
X040457Y006350D01*
X040457Y006137D01*
X040457Y006350D02*
X040670Y006564D01*
X040884Y006671D01*
X040777Y015030D02*
X040563Y015030D01*
X040457Y015137D01*
X040457Y015350D02*
X040670Y015457D01*
X040777Y015457D01*
X040884Y015350D01*
X040884Y015137D01*
X040777Y015030D01*
X040457Y015350D02*
X040457Y015671D01*
X040884Y015671D01*
X039594Y015671D02*
X039167Y015244D01*
X039274Y015350D02*
X039594Y015030D01*
X039167Y015030D02*
X039167Y015671D01*
X038950Y015564D02*
X038843Y015671D01*
X038630Y015671D01*
X038523Y015564D01*
X038523Y015137D01*
X038630Y015030D01*
X038843Y015030D01*
X038950Y015137D01*
X038305Y015030D02*
X038305Y015457D01*
X038092Y015671D01*
X037878Y015457D01*
X037878Y015030D01*
X037878Y015350D02*
X038305Y015350D01*
X037661Y015671D02*
X037447Y015671D01*
X037554Y015671D02*
X037554Y015137D01*
X037447Y015030D01*
X037341Y015030D01*
X037234Y015137D01*
X035204Y015250D02*
X035204Y015750D01*
X034954Y016000D01*
X035204Y016250D01*
X035204Y016750D01*
X034954Y017000D01*
X035204Y017250D01*
X035204Y017750D01*
X034954Y018000D01*
X035204Y018250D01*
X035204Y018750D01*
X034954Y019000D01*
X035204Y019250D01*
X035204Y019750D01*
X034954Y020000D01*
X035204Y020250D01*
X035204Y020750D01*
X034954Y021000D01*
X035204Y021250D01*
X035204Y021750D01*
X034954Y022000D01*
X035204Y022250D01*
X035204Y022750D01*
X034954Y023000D01*
X034454Y023000D01*
X034204Y022750D01*
X034204Y022250D01*
X034454Y022000D01*
X034204Y021750D01*
X034204Y021250D01*
X034454Y021000D01*
X034204Y020750D01*
X034204Y020250D01*
X034454Y020000D01*
X034204Y019750D01*
X034204Y019250D01*
X034454Y019000D01*
X034204Y018750D01*
X034204Y018250D01*
X034454Y018000D01*
X034204Y017750D01*
X034204Y017250D01*
X034454Y017000D01*
X034204Y016750D01*
X034204Y016250D01*
X034454Y016000D01*
X034204Y015750D01*
X034204Y015250D01*
X034454Y015000D01*
X034954Y015000D01*
X035204Y015250D01*
X034954Y024000D02*
X034454Y024000D01*
X034204Y024250D01*
X034204Y024750D01*
X034454Y025000D01*
X034204Y025250D01*
X034204Y025750D01*
X034454Y026000D01*
X034204Y026250D01*
X034204Y026750D01*
X034454Y027000D01*
X034204Y027250D01*
X034204Y027750D01*
X034454Y028000D01*
X034204Y028250D01*
X034204Y028750D01*
X034454Y029000D01*
X034204Y029250D01*
X034204Y029750D01*
X034454Y030000D01*
X034204Y030250D01*
X034204Y030750D01*
X034454Y031000D01*
X034204Y031250D01*
X034204Y031750D01*
X034454Y032000D01*
X034954Y032000D01*
X035204Y031750D01*
X035204Y031250D01*
X034954Y031000D01*
X035204Y030750D01*
X035204Y030250D01*
X034954Y030000D01*
X035204Y029750D01*
X035204Y029250D01*
X034954Y029000D01*
X035204Y028750D01*
X035204Y028250D01*
X034954Y028000D01*
X035204Y027750D01*
X035204Y027250D01*
X034954Y027000D01*
X035204Y026750D01*
X035204Y026250D01*
X034954Y026000D01*
X035204Y025750D01*
X035204Y025250D01*
X034954Y025000D01*
X035204Y024750D01*
X035204Y024250D01*
X034954Y024000D01*
X037234Y024637D02*
X037341Y024530D01*
X037447Y024530D01*
X037554Y024637D01*
X037554Y025171D01*
X037447Y025171D02*
X037661Y025171D01*
X037878Y024957D02*
X038092Y025171D01*
X038305Y024957D01*
X038305Y024530D01*
X038523Y024637D02*
X038630Y024530D01*
X038843Y024530D01*
X038950Y024637D01*
X039167Y024744D02*
X039594Y025171D01*
X039167Y025171D02*
X039167Y024530D01*
X039274Y024850D02*
X039594Y024530D01*
X038950Y025064D02*
X038843Y025171D01*
X038630Y025171D01*
X038523Y025064D01*
X038523Y024637D01*
X038305Y024850D02*
X037878Y024850D01*
X037878Y024957D02*
X037878Y024530D01*
X040457Y024850D02*
X040884Y024850D01*
X040777Y024530D02*
X040777Y025171D01*
X040457Y024850D01*
X017404Y030250D02*
X017404Y030750D01*
X017154Y031000D01*
X017404Y031250D01*
X017404Y031750D01*
X017154Y032000D01*
X016654Y032000D01*
X016404Y031750D01*
X016404Y031250D01*
X016654Y031000D01*
X017154Y031000D01*
X016654Y031000D02*
X016404Y030750D01*
X016404Y030250D01*
X016654Y030000D01*
X017154Y030000D01*
X017404Y030250D01*
X016004Y030250D02*
X016004Y031750D01*
X015754Y032000D01*
X015254Y032000D01*
X015004Y031750D01*
X014754Y032000D01*
X014254Y032000D01*
X014004Y031750D01*
X013754Y032000D01*
X013254Y032000D01*
X013004Y031750D01*
X012754Y032000D01*
X012254Y032000D01*
X012004Y031750D01*
X012004Y030250D01*
X012254Y030000D01*
X012754Y030000D01*
X013004Y030250D01*
X013254Y030000D01*
X013754Y030000D01*
X014004Y030250D01*
X014254Y030000D01*
X014754Y030000D01*
X015004Y030250D01*
X015254Y030000D01*
X015754Y030000D01*
X016004Y030250D01*
X009204Y030250D02*
X008954Y030000D01*
X009204Y029750D01*
X009204Y029250D01*
X008954Y029000D01*
X009204Y028750D01*
X009204Y028250D01*
X008954Y028000D01*
X009204Y027750D01*
X009204Y027250D01*
X008954Y027000D01*
X009204Y026750D01*
X009204Y026250D01*
X008954Y026000D01*
X009204Y025750D01*
X009204Y025250D01*
X008954Y025000D01*
X009204Y024750D01*
X009204Y024250D01*
X008954Y024000D01*
X008454Y024000D01*
X008204Y024250D01*
X008204Y024750D01*
X008454Y025000D01*
X008204Y025250D01*
X008204Y025750D01*
X008454Y026000D01*
X008204Y026250D01*
X008204Y026750D01*
X008454Y027000D01*
X008204Y027250D01*
X008204Y027750D01*
X008454Y028000D01*
X008204Y028250D01*
X008204Y028750D01*
X008454Y029000D01*
X008204Y029250D01*
X008204Y029750D01*
X008454Y030000D01*
X008204Y030250D01*
X008204Y030750D01*
X008454Y031000D01*
X008204Y031250D01*
X008204Y031750D01*
X008454Y032000D01*
X008954Y032000D01*
X009204Y031750D01*
X009204Y031250D01*
X008954Y031000D01*
X009204Y030750D01*
X009204Y030250D01*
X006170Y024671D02*
X006170Y024030D01*
X005957Y024030D02*
X006384Y024030D01*
X005957Y024457D02*
X006170Y024671D01*
X005094Y024671D02*
X004667Y024244D01*
X004774Y024350D02*
X005094Y024030D01*
X004667Y024030D02*
X004667Y024671D01*
X004450Y024564D02*
X004343Y024671D01*
X004130Y024671D01*
X004023Y024564D01*
X004023Y024137D01*
X004130Y024030D01*
X004343Y024030D01*
X004450Y024137D01*
X003805Y024030D02*
X003805Y024457D01*
X003592Y024671D01*
X003378Y024457D01*
X003378Y024030D01*
X003378Y024350D02*
X003805Y024350D01*
X003161Y024671D02*
X002947Y024671D01*
X003054Y024671D02*
X003054Y024137D01*
X002947Y024030D01*
X002841Y024030D01*
X002734Y024137D01*
X008204Y022750D02*
X008204Y022250D01*
X008454Y022000D01*
X008204Y021750D01*
X008204Y021250D01*
X008454Y021000D01*
X008204Y020750D01*
X008204Y020250D01*
X008454Y020000D01*
X008204Y019750D01*
X008204Y019250D01*
X008454Y019000D01*
X008204Y018750D01*
X008204Y018250D01*
X008454Y018000D01*
X008204Y017750D01*
X008204Y017250D01*
X008454Y017000D01*
X008204Y016750D01*
X008204Y016250D01*
X008454Y016000D01*
X008204Y015750D01*
X008204Y015250D01*
X008454Y015000D01*
X008954Y015000D01*
X009204Y015250D01*
X009204Y015750D01*
X008954Y016000D01*
X009204Y016250D01*
X009204Y016750D01*
X008954Y017000D01*
X009204Y017250D01*
X009204Y017750D01*
X008954Y018000D01*
X009204Y018250D01*
X009204Y018750D01*
X008954Y019000D01*
X009204Y019250D01*
X009204Y019750D01*
X008954Y020000D01*
X009204Y020250D01*
X009204Y020750D01*
X008954Y021000D01*
X009204Y021250D01*
X009204Y021750D01*
X008954Y022000D01*
X009204Y022250D01*
X009204Y022750D01*
X008954Y023000D01*
X008454Y023000D01*
X008204Y022750D01*
X016434Y023060D02*
X016774Y023060D01*
X016774Y023340D02*
X016434Y023340D01*
X006384Y015564D02*
X006277Y015671D01*
X006063Y015671D01*
X005957Y015564D01*
X006384Y015564D02*
X006384Y015457D01*
X005957Y015030D01*
X006384Y015030D01*
X005094Y015030D02*
X004774Y015350D01*
X004667Y015244D02*
X005094Y015671D01*
X004667Y015671D02*
X004667Y015030D01*
X004450Y015137D02*
X004343Y015030D01*
X004130Y015030D01*
X004023Y015137D01*
X004023Y015564D01*
X004130Y015671D01*
X004343Y015671D01*
X004450Y015564D01*
X003805Y015457D02*
X003805Y015030D01*
X003805Y015350D02*
X003378Y015350D01*
X003378Y015457D02*
X003592Y015671D01*
X003805Y015457D01*
X003378Y015457D02*
X003378Y015030D01*
X003054Y015137D02*
X003054Y015671D01*
X002947Y015671D02*
X003161Y015671D01*
X003054Y015137D02*
X002947Y015030D01*
X002841Y015030D01*
X002734Y015137D01*
D11*
X002809Y004910D02*
X002809Y003690D01*
X003399Y003690D02*
X003399Y004910D01*
X004339Y004640D02*
X004339Y004360D01*
X004674Y004360D02*
X004674Y004640D01*
X004674Y002640D02*
X004674Y002360D01*
X004339Y002360D02*
X004339Y002640D01*
X010309Y003690D02*
X010309Y004910D01*
X010899Y004910D02*
X010899Y003690D01*
X011839Y004360D02*
X011839Y004640D01*
X012174Y004640D02*
X012174Y004360D01*
X012174Y002640D02*
X012174Y002360D01*
X011839Y002360D02*
X011839Y002640D01*
X017224Y005250D02*
X017531Y005250D01*
X017684Y005327D02*
X017838Y005480D01*
X017838Y005020D01*
X017991Y005020D02*
X017684Y005020D01*
X017377Y005097D02*
X017377Y005404D01*
X018145Y005404D02*
X018221Y005480D01*
X018375Y005480D01*
X018451Y005404D01*
X018451Y005327D01*
X018145Y005020D01*
X018451Y005020D01*
X019724Y005097D02*
X019801Y005020D01*
X019954Y005020D01*
X020031Y005097D01*
X020031Y005250D01*
X019877Y005250D01*
X019724Y005097D02*
X019724Y005404D01*
X019801Y005480D01*
X019954Y005480D01*
X020031Y005404D01*
X020184Y005480D02*
X020491Y005020D01*
X020491Y005480D01*
X020645Y005480D02*
X020875Y005480D01*
X020951Y005404D01*
X020951Y005097D01*
X020875Y005020D01*
X020645Y005020D01*
X020645Y005480D01*
X020184Y005480D02*
X020184Y005020D01*
X021724Y005097D02*
X021801Y005020D01*
X021954Y005020D01*
X022031Y005097D01*
X022031Y005250D01*
X021877Y005250D01*
X021724Y005097D02*
X021724Y005404D01*
X021801Y005480D01*
X021954Y005480D01*
X022031Y005404D01*
X022184Y005480D02*
X022491Y005020D01*
X022491Y005480D01*
X022645Y005480D02*
X022645Y005020D01*
X022875Y005020D01*
X022951Y005097D01*
X022951Y005404D01*
X022875Y005480D01*
X022645Y005480D01*
X022184Y005480D02*
X022184Y005020D01*
X023624Y005250D02*
X023931Y005250D01*
X024084Y005327D02*
X024238Y005480D01*
X024238Y005020D01*
X024391Y005020D02*
X024084Y005020D01*
X023777Y005097D02*
X023777Y005404D01*
X024545Y005404D02*
X024621Y005480D01*
X024775Y005480D01*
X024851Y005404D01*
X024851Y005327D01*
X024545Y005020D01*
X024851Y005020D01*
X025809Y004910D02*
X025809Y003690D01*
X026399Y003690D02*
X026399Y004910D01*
X014570Y029020D02*
X014417Y029020D01*
X014494Y029020D02*
X014494Y029480D01*
X014570Y029480D02*
X014417Y029480D01*
X014263Y029404D02*
X014263Y029250D01*
X014187Y029173D01*
X013956Y029173D01*
X013956Y029020D02*
X013956Y029480D01*
X014187Y029480D01*
X014263Y029404D01*
X013803Y029404D02*
X013726Y029480D01*
X013573Y029480D01*
X013496Y029404D01*
X013496Y029327D01*
X013573Y029250D01*
X013726Y029250D01*
X013803Y029173D01*
X013803Y029097D01*
X013726Y029020D01*
X013573Y029020D01*
X013496Y029097D01*
X016923Y029673D02*
X017384Y029673D01*
X017384Y029520D02*
X017384Y029827D01*
X017077Y029520D02*
X016923Y029673D01*
X016991Y032120D02*
X016991Y032427D01*
X016838Y032580D01*
X016684Y032427D01*
X016684Y032120D01*
X016531Y032197D02*
X016531Y032580D01*
X016684Y032350D02*
X016991Y032350D01*
X017145Y032273D02*
X017375Y032273D01*
X017451Y032350D01*
X017451Y032504D01*
X017375Y032580D01*
X017145Y032580D01*
X017145Y032120D01*
X017298Y032273D02*
X017451Y032120D01*
X017758Y032120D02*
X017758Y032580D01*
X017605Y032580D02*
X017912Y032580D01*
X016531Y032197D02*
X016454Y032120D01*
X016301Y032120D01*
X016224Y032197D01*
X016224Y032580D01*
D12*
X014840Y032390D02*
X014766Y032390D01*
X014803Y032390D02*
X014803Y032170D01*
X014766Y032170D02*
X014840Y032170D01*
X014692Y032207D02*
X014656Y032170D01*
X014582Y032170D01*
X014545Y032207D01*
X014471Y032207D02*
X014471Y032353D01*
X014435Y032390D01*
X014361Y032390D01*
X014324Y032353D01*
X014324Y032207D01*
X014361Y032170D01*
X014435Y032170D01*
X014471Y032207D01*
X014545Y032317D02*
X014582Y032280D01*
X014656Y032280D01*
X014692Y032243D01*
X014692Y032207D01*
X014692Y032353D02*
X014656Y032390D01*
X014582Y032390D01*
X014545Y032353D01*
X014545Y032317D01*
X014250Y032390D02*
X014250Y032170D01*
X014103Y032170D02*
X014103Y032390D01*
X014177Y032317D01*
X014250Y032390D01*
X013840Y032390D02*
X013840Y032170D01*
X013693Y032390D01*
X013693Y032170D01*
X013619Y032207D02*
X013582Y032170D01*
X013508Y032170D01*
X013472Y032207D01*
X013398Y032207D02*
X013361Y032170D01*
X013288Y032170D01*
X013251Y032207D01*
X013251Y032353D01*
X013288Y032390D01*
X013361Y032390D01*
X013398Y032353D01*
X013472Y032353D02*
X013472Y032317D01*
X013508Y032280D01*
X013582Y032280D01*
X013619Y032243D01*
X013619Y032207D01*
X013619Y032353D02*
X013582Y032390D01*
X013508Y032390D01*
X013472Y032353D01*
X011940Y031890D02*
X011940Y031743D01*
X011866Y031670D01*
X011793Y031743D01*
X011793Y031890D01*
X011719Y031853D02*
X011719Y031817D01*
X011682Y031780D01*
X011719Y031743D01*
X011719Y031707D01*
X011682Y031670D01*
X011608Y031670D01*
X011572Y031707D01*
X011498Y031707D02*
X011498Y031670D01*
X011461Y031670D01*
X011461Y031707D01*
X011498Y031707D01*
X011387Y031707D02*
X011350Y031670D01*
X011277Y031670D01*
X011240Y031707D01*
X011314Y031780D02*
X011350Y031780D01*
X011387Y031743D01*
X011387Y031707D01*
X011350Y031780D02*
X011387Y031817D01*
X011387Y031853D01*
X011350Y031890D01*
X011277Y031890D01*
X011240Y031853D01*
X011166Y031780D02*
X011019Y031780D01*
X011093Y031853D02*
X011093Y031707D01*
X010666Y031590D02*
X010666Y031370D01*
X010593Y031370D02*
X010740Y031370D01*
X010593Y031517D02*
X010666Y031590D01*
X010519Y031333D02*
X010372Y031333D01*
X010298Y031370D02*
X010298Y031590D01*
X010224Y031517D01*
X010151Y031590D01*
X010151Y031370D01*
X010077Y031370D02*
X010077Y031590D01*
X009930Y031590D02*
X009930Y031370D01*
X010003Y031443D01*
X010077Y031370D01*
X009856Y031480D02*
X009856Y031553D01*
X009819Y031590D01*
X009709Y031590D01*
X009709Y031370D01*
X009709Y031443D02*
X009819Y031443D01*
X009856Y031480D01*
X009635Y031590D02*
X009488Y031590D01*
X009488Y031370D01*
X009488Y031480D02*
X009561Y031480D01*
X009488Y030590D02*
X009635Y030590D01*
X009709Y030590D02*
X009819Y030590D01*
X009856Y030553D01*
X009856Y030480D01*
X009819Y030443D01*
X009709Y030443D01*
X009709Y030370D02*
X009709Y030590D01*
X009561Y030480D02*
X009488Y030480D01*
X009488Y030370D02*
X009488Y030590D01*
X009930Y030590D02*
X009930Y030370D01*
X010003Y030443D01*
X010077Y030370D01*
X010077Y030590D01*
X010151Y030590D02*
X010224Y030517D01*
X010298Y030590D01*
X010298Y030370D01*
X010372Y030333D02*
X010519Y030333D01*
X010593Y030370D02*
X010740Y030517D01*
X010740Y030553D01*
X010703Y030590D01*
X010629Y030590D01*
X010593Y030553D01*
X010593Y030370D02*
X010740Y030370D01*
X011251Y030153D02*
X011251Y030007D01*
X011288Y029970D01*
X011361Y029970D01*
X011398Y030007D01*
X011398Y030080D01*
X011324Y030080D01*
X011251Y030153D02*
X011288Y030190D01*
X011361Y030190D01*
X011398Y030153D01*
X011472Y030190D02*
X011619Y029970D01*
X011619Y030190D01*
X011693Y030190D02*
X011803Y030190D01*
X011840Y030153D01*
X011840Y030007D01*
X011803Y029970D01*
X011693Y029970D01*
X011693Y030190D01*
X011472Y030190D02*
X011472Y029970D01*
X010666Y029590D02*
X010666Y029370D01*
X010593Y029370D02*
X010740Y029370D01*
X010593Y029517D02*
X010666Y029590D01*
X010519Y029333D02*
X010372Y029333D01*
X010298Y029370D02*
X010298Y029590D01*
X010224Y029517D01*
X010151Y029590D01*
X010151Y029370D01*
X010077Y029370D02*
X010077Y029590D01*
X009930Y029590D02*
X009930Y029370D01*
X010003Y029443D01*
X010077Y029370D01*
X009856Y029480D02*
X009856Y029553D01*
X009819Y029590D01*
X009709Y029590D01*
X009709Y029370D01*
X009709Y029443D02*
X009819Y029443D01*
X009856Y029480D01*
X009635Y029443D02*
X009635Y029407D01*
X009598Y029370D01*
X009525Y029370D01*
X009488Y029407D01*
X009525Y029480D02*
X009598Y029480D01*
X009635Y029443D01*
X009635Y029553D02*
X009598Y029590D01*
X009525Y029590D01*
X009488Y029553D01*
X009488Y029517D01*
X009525Y029480D01*
X009525Y028590D02*
X009488Y028553D01*
X009488Y028517D01*
X009525Y028480D01*
X009598Y028480D01*
X009635Y028443D01*
X009635Y028407D01*
X009598Y028370D01*
X009525Y028370D01*
X009488Y028407D01*
X009525Y028590D02*
X009598Y028590D01*
X009635Y028553D01*
X009709Y028590D02*
X009819Y028590D01*
X009856Y028553D01*
X009856Y028480D01*
X009819Y028443D01*
X009709Y028443D01*
X009709Y028370D02*
X009709Y028590D01*
X009930Y028590D02*
X009930Y028370D01*
X010003Y028443D01*
X010077Y028370D01*
X010077Y028590D01*
X010151Y028590D02*
X010224Y028517D01*
X010298Y028590D01*
X010298Y028370D01*
X010372Y028333D02*
X010519Y028333D01*
X010593Y028370D02*
X010740Y028517D01*
X010740Y028553D01*
X010703Y028590D01*
X010629Y028590D01*
X010593Y028553D01*
X010593Y028370D02*
X010740Y028370D01*
X010151Y028370D02*
X010151Y028590D01*
X010188Y027590D02*
X010151Y027553D01*
X010151Y027407D01*
X010188Y027370D01*
X010261Y027370D01*
X010298Y027407D01*
X010298Y027480D01*
X010224Y027480D01*
X010298Y027553D02*
X010261Y027590D01*
X010188Y027590D01*
X010077Y027370D02*
X009930Y027370D01*
X009930Y027590D01*
X009856Y027590D02*
X009856Y027370D01*
X009709Y027590D01*
X009709Y027370D01*
X009635Y027370D02*
X009635Y027517D01*
X009561Y027590D01*
X009488Y027517D01*
X009488Y027370D01*
X009488Y027480D02*
X009635Y027480D01*
X010372Y027333D02*
X010519Y027333D01*
X010593Y027370D02*
X010740Y027370D01*
X010666Y027370D02*
X010666Y027590D01*
X010593Y027517D01*
X010629Y026590D02*
X010593Y026553D01*
X010629Y026590D02*
X010703Y026590D01*
X010740Y026553D01*
X010740Y026517D01*
X010593Y026370D01*
X010740Y026370D01*
X010519Y026333D02*
X010372Y026333D01*
X010298Y026407D02*
X010298Y026480D01*
X010224Y026480D01*
X010151Y026407D02*
X010188Y026370D01*
X010261Y026370D01*
X010298Y026407D01*
X010298Y026553D02*
X010261Y026590D01*
X010188Y026590D01*
X010151Y026553D01*
X010151Y026407D01*
X010077Y026370D02*
X009930Y026370D01*
X009930Y026590D01*
X009856Y026590D02*
X009856Y026370D01*
X009709Y026590D01*
X009709Y026370D01*
X009635Y026370D02*
X009635Y026517D01*
X009561Y026590D01*
X009488Y026517D01*
X009488Y026370D01*
X009488Y026480D02*
X009635Y026480D01*
X010188Y025590D02*
X010151Y025553D01*
X010151Y025517D01*
X010188Y025480D01*
X010261Y025480D01*
X010298Y025443D01*
X010298Y025407D01*
X010261Y025370D01*
X010188Y025370D01*
X010151Y025407D01*
X010188Y025590D02*
X010261Y025590D01*
X010298Y025553D01*
X010372Y025553D02*
X010372Y025407D01*
X010408Y025370D01*
X010482Y025370D01*
X010519Y025407D01*
X010593Y025370D02*
X010740Y025370D01*
X010593Y025370D02*
X010593Y025590D01*
X010519Y025553D02*
X010482Y025590D01*
X010408Y025590D01*
X010372Y025553D01*
X010372Y024590D02*
X010482Y024590D01*
X010519Y024553D01*
X010519Y024407D01*
X010482Y024370D01*
X010372Y024370D01*
X010372Y024590D01*
X010298Y024553D02*
X010261Y024590D01*
X010188Y024590D01*
X010151Y024553D01*
X010151Y024517D01*
X010188Y024480D01*
X010261Y024480D01*
X010298Y024443D01*
X010298Y024407D01*
X010261Y024370D01*
X010188Y024370D01*
X010151Y024407D01*
X010593Y024370D02*
X010593Y024517D01*
X010666Y024590D01*
X010740Y024517D01*
X010740Y024370D01*
X010740Y024480D02*
X010593Y024480D01*
X010666Y022590D02*
X010666Y022370D01*
X010593Y022370D02*
X010740Y022370D01*
X010593Y022517D02*
X010666Y022590D01*
X010519Y022333D02*
X010372Y022333D01*
X010298Y022370D02*
X010298Y022590D01*
X010224Y022517D01*
X010151Y022590D01*
X010151Y022370D01*
X010077Y022370D02*
X010077Y022590D01*
X009930Y022590D02*
X009930Y022370D01*
X010003Y022443D01*
X010077Y022370D01*
X009856Y022480D02*
X009856Y022553D01*
X009819Y022590D01*
X009709Y022590D01*
X009709Y022370D01*
X009709Y022443D02*
X009819Y022443D01*
X009856Y022480D01*
X009635Y022590D02*
X009488Y022590D01*
X009488Y022370D01*
X009488Y022480D02*
X009561Y022480D01*
X009488Y021590D02*
X009635Y021590D01*
X009709Y021590D02*
X009819Y021590D01*
X009856Y021553D01*
X009856Y021480D01*
X009819Y021443D01*
X009709Y021443D01*
X009709Y021370D02*
X009709Y021590D01*
X009561Y021480D02*
X009488Y021480D01*
X009488Y021370D02*
X009488Y021590D01*
X009930Y021590D02*
X009930Y021370D01*
X010003Y021443D01*
X010077Y021370D01*
X010077Y021590D01*
X010151Y021590D02*
X010224Y021517D01*
X010298Y021590D01*
X010298Y021370D01*
X010372Y021333D02*
X010519Y021333D01*
X010593Y021370D02*
X010740Y021517D01*
X010740Y021553D01*
X010703Y021590D01*
X010629Y021590D01*
X010593Y021553D01*
X010593Y021370D02*
X010740Y021370D01*
X010151Y021370D02*
X010151Y021590D01*
X010151Y020590D02*
X010224Y020517D01*
X010298Y020590D01*
X010298Y020370D01*
X010372Y020333D02*
X010519Y020333D01*
X010593Y020370D02*
X010740Y020370D01*
X010666Y020370D02*
X010666Y020590D01*
X010593Y020517D01*
X010151Y020590D02*
X010151Y020370D01*
X010077Y020370D02*
X010077Y020590D01*
X009930Y020590D02*
X009930Y020370D01*
X010003Y020443D01*
X010077Y020370D01*
X009856Y020480D02*
X009856Y020553D01*
X009819Y020590D01*
X009709Y020590D01*
X009709Y020370D01*
X009709Y020443D02*
X009819Y020443D01*
X009856Y020480D01*
X009635Y020443D02*
X009635Y020407D01*
X009598Y020370D01*
X009525Y020370D01*
X009488Y020407D01*
X009525Y020480D02*
X009598Y020480D01*
X009635Y020443D01*
X009635Y020553D02*
X009598Y020590D01*
X009525Y020590D01*
X009488Y020553D01*
X009488Y020517D01*
X009525Y020480D01*
X009525Y019590D02*
X009488Y019553D01*
X009488Y019517D01*
X009525Y019480D01*
X009598Y019480D01*
X009635Y019443D01*
X009635Y019407D01*
X009598Y019370D01*
X009525Y019370D01*
X009488Y019407D01*
X009525Y019590D02*
X009598Y019590D01*
X009635Y019553D01*
X009709Y019590D02*
X009709Y019370D01*
X009709Y019443D02*
X009819Y019443D01*
X009856Y019480D01*
X009856Y019553D01*
X009819Y019590D01*
X009709Y019590D01*
X009930Y019590D02*
X009930Y019370D01*
X010003Y019443D01*
X010077Y019370D01*
X010077Y019590D01*
X010151Y019590D02*
X010224Y019517D01*
X010298Y019590D01*
X010298Y019370D01*
X010372Y019333D02*
X010519Y019333D01*
X010593Y019370D02*
X010740Y019517D01*
X010740Y019553D01*
X010703Y019590D01*
X010629Y019590D01*
X010593Y019553D01*
X010593Y019370D02*
X010740Y019370D01*
X010151Y019370D02*
X010151Y019590D01*
X010188Y018590D02*
X010151Y018553D01*
X010151Y018407D01*
X010188Y018370D01*
X010261Y018370D01*
X010298Y018407D01*
X010298Y018480D01*
X010224Y018480D01*
X010298Y018553D02*
X010261Y018590D01*
X010188Y018590D01*
X010077Y018370D02*
X009930Y018370D01*
X009930Y018590D01*
X009856Y018590D02*
X009856Y018370D01*
X009709Y018590D01*
X009709Y018370D01*
X009635Y018370D02*
X009635Y018517D01*
X009561Y018590D01*
X009488Y018517D01*
X009488Y018370D01*
X009488Y018480D02*
X009635Y018480D01*
X010372Y018333D02*
X010519Y018333D01*
X010593Y018370D02*
X010740Y018370D01*
X010666Y018370D02*
X010666Y018590D01*
X010593Y018517D01*
X010629Y017590D02*
X010593Y017553D01*
X010629Y017590D02*
X010703Y017590D01*
X010740Y017553D01*
X010740Y017517D01*
X010593Y017370D01*
X010740Y017370D01*
X010519Y017333D02*
X010372Y017333D01*
X010298Y017407D02*
X010298Y017480D01*
X010224Y017480D01*
X010151Y017407D02*
X010188Y017370D01*
X010261Y017370D01*
X010298Y017407D01*
X010298Y017553D02*
X010261Y017590D01*
X010188Y017590D01*
X010151Y017553D01*
X010151Y017407D01*
X010077Y017370D02*
X009930Y017370D01*
X009930Y017590D01*
X009856Y017590D02*
X009856Y017370D01*
X009709Y017590D01*
X009709Y017370D01*
X009635Y017370D02*
X009635Y017517D01*
X009561Y017590D01*
X009488Y017517D01*
X009488Y017370D01*
X009488Y017480D02*
X009635Y017480D01*
X010188Y016590D02*
X010151Y016553D01*
X010151Y016517D01*
X010188Y016480D01*
X010261Y016480D01*
X010298Y016443D01*
X010298Y016407D01*
X010261Y016370D01*
X010188Y016370D01*
X010151Y016407D01*
X010188Y016590D02*
X010261Y016590D01*
X010298Y016553D01*
X010372Y016553D02*
X010372Y016407D01*
X010408Y016370D01*
X010482Y016370D01*
X010519Y016407D01*
X010593Y016370D02*
X010740Y016370D01*
X010593Y016370D02*
X010593Y016590D01*
X010519Y016553D02*
X010482Y016590D01*
X010408Y016590D01*
X010372Y016553D01*
X010372Y015590D02*
X010482Y015590D01*
X010519Y015553D01*
X010519Y015407D01*
X010482Y015370D01*
X010372Y015370D01*
X010372Y015590D01*
X010298Y015553D02*
X010261Y015590D01*
X010188Y015590D01*
X010151Y015553D01*
X010151Y015517D01*
X010188Y015480D01*
X010261Y015480D01*
X010298Y015443D01*
X010298Y015407D01*
X010261Y015370D01*
X010188Y015370D01*
X010151Y015407D01*
X010593Y015370D02*
X010593Y015517D01*
X010666Y015590D01*
X010740Y015517D01*
X010740Y015370D01*
X010740Y015480D02*
X010593Y015480D01*
X010666Y013590D02*
X010666Y013370D01*
X010593Y013370D02*
X010740Y013370D01*
X010593Y013517D02*
X010666Y013590D01*
X010519Y013333D02*
X010372Y013333D01*
X010298Y013370D02*
X010298Y013590D01*
X010224Y013517D01*
X010151Y013590D01*
X010151Y013370D01*
X010077Y013370D02*
X010077Y013590D01*
X009930Y013590D02*
X009930Y013370D01*
X010003Y013443D01*
X010077Y013370D01*
X009856Y013480D02*
X009819Y013443D01*
X009709Y013443D01*
X009709Y013370D02*
X009709Y013590D01*
X009819Y013590D01*
X009856Y013553D01*
X009856Y013480D01*
X009635Y013443D02*
X009635Y013407D01*
X009598Y013370D01*
X009525Y013370D01*
X009488Y013407D01*
X009525Y013480D02*
X009598Y013480D01*
X009635Y013443D01*
X009635Y013553D02*
X009598Y013590D01*
X009525Y013590D01*
X009488Y013553D01*
X009488Y013517D01*
X009525Y013480D01*
X009525Y012590D02*
X009488Y012553D01*
X009488Y012517D01*
X009525Y012480D01*
X009598Y012480D01*
X009635Y012443D01*
X009635Y012407D01*
X009598Y012370D01*
X009525Y012370D01*
X009488Y012407D01*
X009525Y012590D02*
X009598Y012590D01*
X009635Y012553D01*
X009709Y012590D02*
X009819Y012590D01*
X009856Y012553D01*
X009856Y012480D01*
X009819Y012443D01*
X009709Y012443D01*
X009709Y012370D02*
X009709Y012590D01*
X009930Y012590D02*
X009930Y012370D01*
X010003Y012443D01*
X010077Y012370D01*
X010077Y012590D01*
X010151Y012590D02*
X010224Y012517D01*
X010298Y012590D01*
X010298Y012370D01*
X010372Y012333D02*
X010519Y012333D01*
X010593Y012370D02*
X010740Y012517D01*
X010740Y012553D01*
X010703Y012590D01*
X010629Y012590D01*
X010593Y012553D01*
X010593Y012370D02*
X010740Y012370D01*
X010151Y012370D02*
X010151Y012590D01*
X010151Y011590D02*
X010224Y011517D01*
X010298Y011590D01*
X010298Y011370D01*
X010372Y011333D02*
X010519Y011333D01*
X010593Y011407D02*
X010629Y011370D01*
X010703Y011370D01*
X010740Y011407D01*
X010740Y011443D01*
X010703Y011480D01*
X010666Y011480D01*
X010703Y011480D02*
X010740Y011517D01*
X010740Y011553D01*
X010703Y011590D01*
X010629Y011590D01*
X010593Y011553D01*
X010151Y011590D02*
X010151Y011370D01*
X010077Y011370D02*
X010077Y011590D01*
X009930Y011590D02*
X009930Y011370D01*
X010003Y011443D01*
X010077Y011370D01*
X009856Y011480D02*
X009819Y011443D01*
X009709Y011443D01*
X009709Y011370D02*
X009709Y011590D01*
X009819Y011590D01*
X009856Y011553D01*
X009856Y011480D01*
X009635Y011443D02*
X009635Y011407D01*
X009598Y011370D01*
X009525Y011370D01*
X009488Y011407D01*
X009525Y011480D02*
X009598Y011480D01*
X009635Y011443D01*
X009635Y011553D02*
X009598Y011590D01*
X009525Y011590D01*
X009488Y011553D01*
X009488Y011517D01*
X009525Y011480D01*
X009525Y010590D02*
X009488Y010553D01*
X009488Y010517D01*
X009525Y010480D01*
X009598Y010480D01*
X009635Y010443D01*
X009635Y010407D01*
X009598Y010370D01*
X009525Y010370D01*
X009488Y010407D01*
X009525Y010590D02*
X009598Y010590D01*
X009635Y010553D01*
X009709Y010590D02*
X009819Y010590D01*
X009856Y010553D01*
X009856Y010480D01*
X009819Y010443D01*
X009709Y010443D01*
X009709Y010370D02*
X009709Y010590D01*
X009930Y010590D02*
X009930Y010370D01*
X010003Y010443D01*
X010077Y010370D01*
X010077Y010590D01*
X010151Y010590D02*
X010224Y010517D01*
X010298Y010590D01*
X010298Y010370D01*
X010372Y010333D02*
X010519Y010333D01*
X010593Y010480D02*
X010740Y010480D01*
X010703Y010370D02*
X010703Y010590D01*
X010593Y010480D01*
X010151Y010370D02*
X010151Y010590D01*
X010188Y009590D02*
X010151Y009553D01*
X010151Y009407D01*
X010188Y009370D01*
X010261Y009370D01*
X010298Y009407D01*
X010298Y009480D01*
X010224Y009480D01*
X010298Y009553D02*
X010261Y009590D01*
X010188Y009590D01*
X010077Y009370D02*
X009930Y009370D01*
X009930Y009590D01*
X009856Y009590D02*
X009856Y009370D01*
X009709Y009590D01*
X009709Y009370D01*
X009635Y009370D02*
X009635Y009517D01*
X009561Y009590D01*
X009488Y009517D01*
X009488Y009370D01*
X009488Y009480D02*
X009635Y009480D01*
X010372Y009333D02*
X010519Y009333D01*
X010593Y009370D02*
X010740Y009370D01*
X010666Y009370D02*
X010666Y009590D01*
X010593Y009517D01*
X010629Y008590D02*
X010593Y008553D01*
X010629Y008590D02*
X010703Y008590D01*
X010740Y008553D01*
X010740Y008517D01*
X010593Y008370D01*
X010740Y008370D01*
X010519Y008333D02*
X010372Y008333D01*
X010298Y008407D02*
X010298Y008480D01*
X010224Y008480D01*
X010151Y008407D02*
X010188Y008370D01*
X010261Y008370D01*
X010298Y008407D01*
X010298Y008553D02*
X010261Y008590D01*
X010188Y008590D01*
X010151Y008553D01*
X010151Y008407D01*
X010077Y008370D02*
X009930Y008370D01*
X009930Y008590D01*
X009856Y008590D02*
X009856Y008370D01*
X009709Y008590D01*
X009709Y008370D01*
X009635Y008370D02*
X009635Y008517D01*
X009561Y008590D01*
X009488Y008517D01*
X009488Y008370D01*
X009488Y008480D02*
X009635Y008480D01*
X010188Y007590D02*
X010151Y007553D01*
X010151Y007517D01*
X010188Y007480D01*
X010261Y007480D01*
X010298Y007443D01*
X010298Y007407D01*
X010261Y007370D01*
X010188Y007370D01*
X010151Y007407D01*
X010188Y007590D02*
X010261Y007590D01*
X010298Y007553D01*
X010372Y007553D02*
X010372Y007407D01*
X010408Y007370D01*
X010482Y007370D01*
X010519Y007407D01*
X010593Y007370D02*
X010740Y007370D01*
X010593Y007370D02*
X010593Y007590D01*
X010519Y007553D02*
X010482Y007590D01*
X010408Y007590D01*
X010372Y007553D01*
X010372Y006590D02*
X010482Y006590D01*
X010519Y006553D01*
X010519Y006407D01*
X010482Y006370D01*
X010372Y006370D01*
X010372Y006590D01*
X010298Y006553D02*
X010261Y006590D01*
X010188Y006590D01*
X010151Y006553D01*
X010151Y006517D01*
X010188Y006480D01*
X010261Y006480D01*
X010298Y006443D01*
X010298Y006407D01*
X010261Y006370D01*
X010188Y006370D01*
X010151Y006407D01*
X010593Y006370D02*
X010593Y006517D01*
X010666Y006590D01*
X010740Y006517D01*
X010740Y006370D01*
X010740Y006480D02*
X010593Y006480D01*
X014924Y007770D02*
X014998Y007770D01*
X014961Y007770D02*
X014961Y007990D01*
X014924Y007990D02*
X014998Y007990D01*
X015072Y007990D02*
X015219Y007770D01*
X015219Y007990D01*
X015293Y007990D02*
X015440Y007990D01*
X015366Y007990D02*
X015366Y007770D01*
X015072Y007770D02*
X015072Y007990D01*
X016851Y007990D02*
X016851Y007807D01*
X016888Y007770D01*
X016961Y007770D01*
X016998Y007807D01*
X016998Y007990D01*
X017072Y007953D02*
X017108Y007990D01*
X017182Y007990D01*
X017219Y007953D01*
X017182Y007880D02*
X017219Y007843D01*
X017219Y007807D01*
X017182Y007770D01*
X017108Y007770D01*
X017072Y007807D01*
X017108Y007880D02*
X017182Y007880D01*
X017108Y007880D02*
X017072Y007917D01*
X017072Y007953D01*
X017293Y007990D02*
X017293Y007770D01*
X017403Y007770D01*
X017440Y007807D01*
X017440Y007843D01*
X017403Y007880D01*
X017293Y007880D01*
X017403Y007880D02*
X017440Y007917D01*
X017440Y007953D01*
X017403Y007990D01*
X017293Y007990D01*
X019351Y006553D02*
X019351Y006407D01*
X019388Y006370D01*
X019461Y006370D01*
X019498Y006407D01*
X019498Y006480D01*
X019424Y006480D01*
X019351Y006553D02*
X019388Y006590D01*
X019461Y006590D01*
X019498Y006553D01*
X019572Y006590D02*
X019719Y006370D01*
X019719Y006590D01*
X019793Y006590D02*
X019903Y006590D01*
X019940Y006553D01*
X019940Y006407D01*
X019903Y006370D01*
X019793Y006370D01*
X019793Y006590D01*
X019572Y006590D02*
X019572Y006370D01*
X020351Y006407D02*
X020388Y006370D01*
X020461Y006370D01*
X020498Y006407D01*
X020498Y006443D01*
X020461Y006480D01*
X020388Y006480D01*
X020351Y006517D01*
X020351Y006553D01*
X020388Y006590D01*
X020461Y006590D01*
X020498Y006553D01*
X020572Y006590D02*
X020682Y006590D01*
X020719Y006553D01*
X020719Y006407D01*
X020682Y006370D01*
X020572Y006370D01*
X020572Y006590D01*
X020793Y006517D02*
X020866Y006590D01*
X020940Y006517D01*
X020940Y006370D01*
X020940Y006480D02*
X020793Y006480D01*
X020793Y006517D02*
X020793Y006370D01*
X021351Y006407D02*
X021388Y006370D01*
X021461Y006370D01*
X021498Y006407D01*
X021498Y006443D01*
X021461Y006480D01*
X021388Y006480D01*
X021351Y006517D01*
X021351Y006553D01*
X021388Y006590D01*
X021461Y006590D01*
X021498Y006553D01*
X021572Y006553D02*
X021572Y006407D01*
X021608Y006370D01*
X021682Y006370D01*
X021719Y006407D01*
X021793Y006370D02*
X021940Y006370D01*
X021793Y006370D02*
X021793Y006590D01*
X021719Y006553D02*
X021682Y006590D01*
X021608Y006590D01*
X021572Y006553D01*
X022319Y006480D02*
X022466Y006480D01*
X022393Y006553D02*
X022393Y006407D01*
X022540Y006407D02*
X022577Y006370D01*
X022650Y006370D01*
X022687Y006407D01*
X022687Y006443D01*
X022650Y006480D01*
X022614Y006480D01*
X022650Y006480D02*
X022687Y006517D01*
X022687Y006553D01*
X022650Y006590D01*
X022577Y006590D01*
X022540Y006553D01*
X022761Y006407D02*
X022798Y006407D01*
X022798Y006370D01*
X022761Y006370D01*
X022761Y006407D01*
X022872Y006407D02*
X022908Y006370D01*
X022982Y006370D01*
X023019Y006407D01*
X023019Y006443D01*
X022982Y006480D01*
X022945Y006480D01*
X022982Y006480D02*
X023019Y006517D01*
X023019Y006553D01*
X022982Y006590D01*
X022908Y006590D01*
X022872Y006553D01*
X023093Y006590D02*
X023093Y006443D01*
X023166Y006370D01*
X023240Y006443D01*
X023240Y006590D01*
X024851Y007770D02*
X024851Y007990D01*
X024961Y007990D01*
X024998Y007953D01*
X024998Y007880D01*
X024961Y007843D01*
X024851Y007843D01*
X024924Y007843D02*
X024998Y007770D01*
X025072Y007770D02*
X025219Y007770D01*
X025293Y007807D02*
X025329Y007770D01*
X025403Y007770D01*
X025440Y007807D01*
X025440Y007880D01*
X025366Y007880D01*
X025293Y007953D02*
X025293Y007807D01*
X025293Y007953D02*
X025329Y007990D01*
X025403Y007990D01*
X025440Y007953D01*
X025219Y007990D02*
X025072Y007990D01*
X025072Y007770D01*
X025072Y007880D02*
X025145Y007880D01*
X026588Y007990D02*
X026735Y007990D01*
X026661Y007990D02*
X026661Y007770D01*
X026809Y007770D02*
X026956Y007770D01*
X027030Y007770D02*
X027177Y007770D01*
X027251Y007770D02*
X027251Y007990D01*
X027398Y007770D01*
X027398Y007990D01*
X027472Y007953D02*
X027508Y007990D01*
X027582Y007990D01*
X027619Y007953D01*
X027693Y007953D02*
X027766Y007880D01*
X027766Y007770D01*
X027766Y007880D02*
X027840Y007953D01*
X027840Y007990D01*
X027693Y007990D02*
X027693Y007953D01*
X027619Y007843D02*
X027619Y007807D01*
X027582Y007770D01*
X027508Y007770D01*
X027472Y007807D01*
X027508Y007880D02*
X027582Y007880D01*
X027619Y007843D01*
X027508Y007880D02*
X027472Y007917D01*
X027472Y007953D01*
X027177Y007990D02*
X027030Y007990D01*
X027030Y007770D01*
X027030Y007880D02*
X027103Y007880D01*
X026956Y007990D02*
X026809Y007990D01*
X026809Y007770D01*
X026809Y007880D02*
X026882Y007880D01*
X032614Y007593D02*
X032614Y007557D01*
X032650Y007520D01*
X032724Y007520D01*
X032761Y007483D01*
X032761Y007447D01*
X032724Y007410D01*
X032650Y007410D01*
X032614Y007447D01*
X032614Y007593D02*
X032650Y007630D01*
X032724Y007630D01*
X032761Y007593D01*
X032835Y007630D02*
X032835Y007410D01*
X032835Y007483D02*
X032945Y007483D01*
X032982Y007520D01*
X032982Y007593D01*
X032945Y007630D01*
X032835Y007630D01*
X033056Y007630D02*
X033056Y007410D01*
X033129Y007483D01*
X033203Y007410D01*
X033203Y007630D01*
X033277Y007630D02*
X033350Y007557D01*
X033424Y007630D01*
X033424Y007410D01*
X033498Y007373D02*
X033645Y007373D01*
X033719Y007410D02*
X033866Y007557D01*
X033866Y007593D01*
X033829Y007630D01*
X033755Y007630D01*
X033719Y007593D01*
X033719Y007410D02*
X033866Y007410D01*
X033277Y007410D02*
X033277Y007630D01*
X033498Y008373D02*
X033645Y008373D01*
X033719Y008447D02*
X033755Y008410D01*
X033829Y008410D01*
X033866Y008447D01*
X033866Y008483D01*
X033829Y008520D01*
X033792Y008520D01*
X033829Y008520D02*
X033866Y008557D01*
X033866Y008593D01*
X033829Y008630D01*
X033755Y008630D01*
X033719Y008593D01*
X033424Y008630D02*
X033424Y008410D01*
X033277Y008410D02*
X033277Y008630D01*
X033350Y008557D01*
X033424Y008630D01*
X033203Y008630D02*
X033203Y008410D01*
X033129Y008483D01*
X033056Y008410D01*
X033056Y008630D01*
X032982Y008593D02*
X032982Y008520D01*
X032945Y008483D01*
X032835Y008483D01*
X032835Y008410D02*
X032835Y008630D01*
X032945Y008630D01*
X032982Y008593D01*
X032761Y008593D02*
X032724Y008630D01*
X032650Y008630D01*
X032614Y008593D01*
X032614Y008557D01*
X032650Y008520D01*
X032724Y008520D01*
X032761Y008483D01*
X032761Y008447D01*
X032724Y008410D01*
X032650Y008410D01*
X032614Y008447D01*
X032650Y009410D02*
X032614Y009447D01*
X032650Y009410D02*
X032724Y009410D01*
X032761Y009447D01*
X032761Y009483D01*
X032724Y009520D01*
X032650Y009520D01*
X032614Y009557D01*
X032614Y009593D01*
X032650Y009630D01*
X032724Y009630D01*
X032761Y009593D01*
X032835Y009630D02*
X032835Y009410D01*
X032835Y009483D02*
X032945Y009483D01*
X032982Y009520D01*
X032982Y009593D01*
X032945Y009630D01*
X032835Y009630D01*
X033056Y009630D02*
X033056Y009410D01*
X033129Y009483D01*
X033203Y009410D01*
X033203Y009630D01*
X033277Y009630D02*
X033350Y009557D01*
X033424Y009630D01*
X033424Y009410D01*
X033498Y009373D02*
X033645Y009373D01*
X033719Y009520D02*
X033866Y009520D01*
X033829Y009410D02*
X033829Y009630D01*
X033719Y009520D01*
X033277Y009410D02*
X033277Y009630D01*
X033498Y010373D02*
X033645Y010373D01*
X033719Y010410D02*
X033866Y010410D01*
X033792Y010410D02*
X033792Y010630D01*
X033719Y010557D01*
X033424Y010593D02*
X033387Y010630D01*
X033313Y010630D01*
X033277Y010593D01*
X033277Y010447D01*
X033313Y010410D01*
X033387Y010410D01*
X033424Y010447D01*
X033424Y010520D01*
X033350Y010520D01*
X033203Y010410D02*
X033056Y010410D01*
X033056Y010630D01*
X032982Y010630D02*
X032982Y010410D01*
X032835Y010630D01*
X032835Y010410D01*
X032761Y010410D02*
X032761Y010557D01*
X032687Y010630D01*
X032614Y010557D01*
X032614Y010410D01*
X032614Y010520D02*
X032761Y010520D01*
X032761Y011410D02*
X032761Y011557D01*
X032687Y011630D01*
X032614Y011557D01*
X032614Y011410D01*
X032614Y011520D02*
X032761Y011520D01*
X032835Y011410D02*
X032835Y011630D01*
X032982Y011410D01*
X032982Y011630D01*
X033056Y011630D02*
X033056Y011410D01*
X033203Y011410D01*
X033277Y011447D02*
X033313Y011410D01*
X033387Y011410D01*
X033424Y011447D01*
X033424Y011520D01*
X033350Y011520D01*
X033277Y011593D02*
X033277Y011447D01*
X033277Y011593D02*
X033313Y011630D01*
X033387Y011630D01*
X033424Y011593D01*
X033498Y011373D02*
X033645Y011373D01*
X033719Y011410D02*
X033866Y011557D01*
X033866Y011593D01*
X033829Y011630D01*
X033755Y011630D01*
X033719Y011593D01*
X033719Y011410D02*
X033866Y011410D01*
X033203Y012410D02*
X033056Y012410D01*
X033056Y012630D01*
X032982Y012593D02*
X032945Y012630D01*
X032871Y012630D01*
X032835Y012593D01*
X032835Y012447D01*
X032871Y012410D01*
X032945Y012410D01*
X032982Y012447D01*
X032761Y012447D02*
X032724Y012410D01*
X032650Y012410D01*
X032614Y012447D01*
X032650Y012520D02*
X032724Y012520D01*
X032761Y012483D01*
X032761Y012447D01*
X032650Y012520D02*
X032614Y012557D01*
X032614Y012593D01*
X032650Y012630D01*
X032724Y012630D01*
X032761Y012593D01*
X032724Y013410D02*
X032650Y013410D01*
X032614Y013447D01*
X032650Y013520D02*
X032724Y013520D01*
X032761Y013483D01*
X032761Y013447D01*
X032724Y013410D01*
X032835Y013410D02*
X032945Y013410D01*
X032982Y013447D01*
X032982Y013593D01*
X032945Y013630D01*
X032835Y013630D01*
X032835Y013410D01*
X032761Y013593D02*
X032724Y013630D01*
X032650Y013630D01*
X032614Y013593D01*
X032614Y013557D01*
X032650Y013520D01*
X033056Y013520D02*
X033203Y013520D01*
X033203Y013557D02*
X033203Y013410D01*
X033203Y013557D02*
X033129Y013630D01*
X033056Y013557D01*
X033056Y013410D01*
X033056Y015410D02*
X033129Y015483D01*
X033203Y015410D01*
X033203Y015630D01*
X033277Y015630D02*
X033350Y015557D01*
X033424Y015630D01*
X033424Y015410D01*
X033498Y015373D02*
X033645Y015373D01*
X033719Y015410D02*
X033866Y015410D01*
X033792Y015410D02*
X033792Y015630D01*
X033719Y015557D01*
X033277Y015630D02*
X033277Y015410D01*
X033056Y015410D02*
X033056Y015630D01*
X032982Y015593D02*
X032982Y015520D01*
X032945Y015483D01*
X032835Y015483D01*
X032835Y015410D02*
X032835Y015630D01*
X032945Y015630D01*
X032982Y015593D01*
X032761Y015630D02*
X032614Y015630D01*
X032614Y015410D01*
X032614Y015520D02*
X032687Y015520D01*
X032614Y016410D02*
X032614Y016630D01*
X032761Y016630D01*
X032835Y016630D02*
X032945Y016630D01*
X032982Y016593D01*
X032982Y016520D01*
X032945Y016483D01*
X032835Y016483D01*
X032835Y016410D02*
X032835Y016630D01*
X032687Y016520D02*
X032614Y016520D01*
X033056Y016630D02*
X033056Y016410D01*
X033129Y016483D01*
X033203Y016410D01*
X033203Y016630D01*
X033277Y016630D02*
X033350Y016557D01*
X033424Y016630D01*
X033424Y016410D01*
X033498Y016373D02*
X033645Y016373D01*
X033719Y016410D02*
X033866Y016557D01*
X033866Y016593D01*
X033829Y016630D01*
X033755Y016630D01*
X033719Y016593D01*
X033719Y016410D02*
X033866Y016410D01*
X033277Y016410D02*
X033277Y016630D01*
X033498Y017373D02*
X033645Y017373D01*
X033719Y017410D02*
X033866Y017410D01*
X033792Y017410D02*
X033792Y017630D01*
X033719Y017557D01*
X033424Y017630D02*
X033424Y017410D01*
X033277Y017410D02*
X033277Y017630D01*
X033350Y017557D01*
X033424Y017630D01*
X033203Y017630D02*
X033203Y017410D01*
X033129Y017483D01*
X033056Y017410D01*
X033056Y017630D01*
X032982Y017593D02*
X032982Y017520D01*
X032945Y017483D01*
X032835Y017483D01*
X032835Y017410D02*
X032835Y017630D01*
X032945Y017630D01*
X032982Y017593D01*
X032761Y017593D02*
X032724Y017630D01*
X032650Y017630D01*
X032614Y017593D01*
X032614Y017557D01*
X032650Y017520D01*
X032724Y017520D01*
X032761Y017483D01*
X032761Y017447D01*
X032724Y017410D01*
X032650Y017410D01*
X032614Y017447D01*
X032650Y018410D02*
X032614Y018447D01*
X032650Y018410D02*
X032724Y018410D01*
X032761Y018447D01*
X032761Y018483D01*
X032724Y018520D01*
X032650Y018520D01*
X032614Y018557D01*
X032614Y018593D01*
X032650Y018630D01*
X032724Y018630D01*
X032761Y018593D01*
X032835Y018630D02*
X032945Y018630D01*
X032982Y018593D01*
X032982Y018520D01*
X032945Y018483D01*
X032835Y018483D01*
X032835Y018410D02*
X032835Y018630D01*
X033056Y018630D02*
X033056Y018410D01*
X033129Y018483D01*
X033203Y018410D01*
X033203Y018630D01*
X033277Y018630D02*
X033350Y018557D01*
X033424Y018630D01*
X033424Y018410D01*
X033498Y018373D02*
X033645Y018373D01*
X033719Y018410D02*
X033866Y018557D01*
X033866Y018593D01*
X033829Y018630D01*
X033755Y018630D01*
X033719Y018593D01*
X033719Y018410D02*
X033866Y018410D01*
X033277Y018410D02*
X033277Y018630D01*
X033498Y019373D02*
X033645Y019373D01*
X033719Y019410D02*
X033866Y019410D01*
X033792Y019410D02*
X033792Y019630D01*
X033719Y019557D01*
X033424Y019593D02*
X033387Y019630D01*
X033313Y019630D01*
X033277Y019593D01*
X033277Y019447D01*
X033313Y019410D01*
X033387Y019410D01*
X033424Y019447D01*
X033424Y019520D01*
X033350Y019520D01*
X033203Y019410D02*
X033056Y019410D01*
X033056Y019630D01*
X032982Y019630D02*
X032982Y019410D01*
X032835Y019630D01*
X032835Y019410D01*
X032761Y019410D02*
X032761Y019557D01*
X032687Y019630D01*
X032614Y019557D01*
X032614Y019410D01*
X032614Y019520D02*
X032761Y019520D01*
X032761Y020410D02*
X032761Y020557D01*
X032687Y020630D01*
X032614Y020557D01*
X032614Y020410D01*
X032614Y020520D02*
X032761Y020520D01*
X032835Y020410D02*
X032835Y020630D01*
X032982Y020410D01*
X032982Y020630D01*
X033056Y020630D02*
X033056Y020410D01*
X033203Y020410D01*
X033277Y020447D02*
X033313Y020410D01*
X033387Y020410D01*
X033424Y020447D01*
X033424Y020520D01*
X033350Y020520D01*
X033277Y020593D02*
X033277Y020447D01*
X033277Y020593D02*
X033313Y020630D01*
X033387Y020630D01*
X033424Y020593D01*
X033498Y020373D02*
X033645Y020373D01*
X033719Y020410D02*
X033866Y020557D01*
X033866Y020593D01*
X033829Y020630D01*
X033755Y020630D01*
X033719Y020593D01*
X033719Y020410D02*
X033866Y020410D01*
X033203Y021410D02*
X033056Y021410D01*
X033056Y021630D01*
X032982Y021593D02*
X032945Y021630D01*
X032871Y021630D01*
X032835Y021593D01*
X032835Y021447D01*
X032871Y021410D01*
X032945Y021410D01*
X032982Y021447D01*
X032761Y021447D02*
X032724Y021410D01*
X032650Y021410D01*
X032614Y021447D01*
X032650Y021520D02*
X032724Y021520D01*
X032761Y021483D01*
X032761Y021447D01*
X032650Y021520D02*
X032614Y021557D01*
X032614Y021593D01*
X032650Y021630D01*
X032724Y021630D01*
X032761Y021593D01*
X032724Y022410D02*
X032650Y022410D01*
X032614Y022447D01*
X032650Y022520D02*
X032724Y022520D01*
X032761Y022483D01*
X032761Y022447D01*
X032724Y022410D01*
X032835Y022410D02*
X032945Y022410D01*
X032982Y022447D01*
X032982Y022593D01*
X032945Y022630D01*
X032835Y022630D01*
X032835Y022410D01*
X032761Y022593D02*
X032724Y022630D01*
X032650Y022630D01*
X032614Y022593D01*
X032614Y022557D01*
X032650Y022520D01*
X033056Y022520D02*
X033203Y022520D01*
X033203Y022557D02*
X033203Y022410D01*
X033203Y022557D02*
X033129Y022630D01*
X033056Y022557D01*
X033056Y022410D01*
X033056Y024410D02*
X033129Y024483D01*
X033203Y024410D01*
X033203Y024630D01*
X033277Y024630D02*
X033350Y024557D01*
X033424Y024630D01*
X033424Y024410D01*
X033498Y024373D02*
X033645Y024373D01*
X033719Y024410D02*
X033866Y024410D01*
X033792Y024410D02*
X033792Y024630D01*
X033719Y024557D01*
X033277Y024630D02*
X033277Y024410D01*
X033056Y024410D02*
X033056Y024630D01*
X032982Y024593D02*
X032982Y024520D01*
X032945Y024483D01*
X032835Y024483D01*
X032835Y024410D02*
X032835Y024630D01*
X032945Y024630D01*
X032982Y024593D01*
X032761Y024630D02*
X032614Y024630D01*
X032614Y024410D01*
X032614Y024520D02*
X032687Y024520D01*
X032614Y025410D02*
X032614Y025630D01*
X032761Y025630D01*
X032835Y025630D02*
X032945Y025630D01*
X032982Y025593D01*
X032982Y025520D01*
X032945Y025483D01*
X032835Y025483D01*
X032835Y025410D02*
X032835Y025630D01*
X032687Y025520D02*
X032614Y025520D01*
X033056Y025630D02*
X033056Y025410D01*
X033129Y025483D01*
X033203Y025410D01*
X033203Y025630D01*
X033277Y025630D02*
X033350Y025557D01*
X033424Y025630D01*
X033424Y025410D01*
X033498Y025373D02*
X033645Y025373D01*
X033719Y025410D02*
X033866Y025557D01*
X033866Y025593D01*
X033829Y025630D01*
X033755Y025630D01*
X033719Y025593D01*
X033719Y025410D02*
X033866Y025410D01*
X033277Y025410D02*
X033277Y025630D01*
X033498Y026373D02*
X033645Y026373D01*
X033719Y026410D02*
X033866Y026410D01*
X033792Y026410D02*
X033792Y026630D01*
X033719Y026557D01*
X033424Y026630D02*
X033424Y026410D01*
X033277Y026410D02*
X033277Y026630D01*
X033350Y026557D01*
X033424Y026630D01*
X033203Y026630D02*
X033203Y026410D01*
X033129Y026483D01*
X033056Y026410D01*
X033056Y026630D01*
X032982Y026593D02*
X032982Y026520D01*
X032945Y026483D01*
X032835Y026483D01*
X032835Y026410D02*
X032835Y026630D01*
X032945Y026630D01*
X032982Y026593D01*
X032761Y026593D02*
X032724Y026630D01*
X032650Y026630D01*
X032614Y026593D01*
X032614Y026557D01*
X032650Y026520D01*
X032724Y026520D01*
X032761Y026483D01*
X032761Y026447D01*
X032724Y026410D01*
X032650Y026410D01*
X032614Y026447D01*
X032650Y027410D02*
X032614Y027447D01*
X032650Y027410D02*
X032724Y027410D01*
X032761Y027447D01*
X032761Y027483D01*
X032724Y027520D01*
X032650Y027520D01*
X032614Y027557D01*
X032614Y027593D01*
X032650Y027630D01*
X032724Y027630D01*
X032761Y027593D01*
X032835Y027630D02*
X032945Y027630D01*
X032982Y027593D01*
X032982Y027520D01*
X032945Y027483D01*
X032835Y027483D01*
X032835Y027410D02*
X032835Y027630D01*
X033056Y027630D02*
X033056Y027410D01*
X033129Y027483D01*
X033203Y027410D01*
X033203Y027630D01*
X033277Y027630D02*
X033350Y027557D01*
X033424Y027630D01*
X033424Y027410D01*
X033498Y027373D02*
X033645Y027373D01*
X033719Y027410D02*
X033866Y027557D01*
X033866Y027593D01*
X033829Y027630D01*
X033755Y027630D01*
X033719Y027593D01*
X033719Y027410D02*
X033866Y027410D01*
X033277Y027410D02*
X033277Y027630D01*
X033498Y028373D02*
X033645Y028373D01*
X033719Y028410D02*
X033866Y028410D01*
X033792Y028410D02*
X033792Y028630D01*
X033719Y028557D01*
X033424Y028593D02*
X033387Y028630D01*
X033313Y028630D01*
X033277Y028593D01*
X033277Y028447D01*
X033313Y028410D01*
X033387Y028410D01*
X033424Y028447D01*
X033424Y028520D01*
X033350Y028520D01*
X033203Y028410D02*
X033056Y028410D01*
X033056Y028630D01*
X032982Y028630D02*
X032982Y028410D01*
X032835Y028630D01*
X032835Y028410D01*
X032761Y028410D02*
X032761Y028557D01*
X032687Y028630D01*
X032614Y028557D01*
X032614Y028410D01*
X032614Y028520D02*
X032761Y028520D01*
X032761Y029410D02*
X032761Y029557D01*
X032687Y029630D01*
X032614Y029557D01*
X032614Y029410D01*
X032614Y029520D02*
X032761Y029520D01*
X032835Y029410D02*
X032835Y029630D01*
X032982Y029410D01*
X032982Y029630D01*
X033056Y029630D02*
X033056Y029410D01*
X033203Y029410D01*
X033277Y029447D02*
X033313Y029410D01*
X033387Y029410D01*
X033424Y029447D01*
X033424Y029520D01*
X033350Y029520D01*
X033277Y029593D02*
X033277Y029447D01*
X033277Y029593D02*
X033313Y029630D01*
X033387Y029630D01*
X033424Y029593D01*
X033498Y029373D02*
X033645Y029373D01*
X033719Y029410D02*
X033866Y029557D01*
X033866Y029593D01*
X033829Y029630D01*
X033755Y029630D01*
X033719Y029593D01*
X033719Y029410D02*
X033866Y029410D01*
X033203Y030410D02*
X033056Y030410D01*
X033056Y030630D01*
X032982Y030593D02*
X032945Y030630D01*
X032871Y030630D01*
X032835Y030593D01*
X032835Y030447D01*
X032871Y030410D01*
X032945Y030410D01*
X032982Y030447D01*
X032761Y030447D02*
X032724Y030410D01*
X032650Y030410D01*
X032614Y030447D01*
X032650Y030520D02*
X032724Y030520D01*
X032761Y030483D01*
X032761Y030447D01*
X032650Y030520D02*
X032614Y030557D01*
X032614Y030593D01*
X032650Y030630D01*
X032724Y030630D01*
X032761Y030593D01*
X032724Y031410D02*
X032650Y031410D01*
X032614Y031447D01*
X032650Y031520D02*
X032724Y031520D01*
X032761Y031483D01*
X032761Y031447D01*
X032724Y031410D01*
X032835Y031410D02*
X032945Y031410D01*
X032982Y031447D01*
X032982Y031593D01*
X032945Y031630D01*
X032835Y031630D01*
X032835Y031410D01*
X032761Y031593D02*
X032724Y031630D01*
X032650Y031630D01*
X032614Y031593D01*
X032614Y031557D01*
X032650Y031520D01*
X033056Y031520D02*
X033203Y031520D01*
X033203Y031557D02*
X033203Y031410D01*
X033203Y031557D02*
X033129Y031630D01*
X033056Y031557D01*
X033056Y031410D01*
X016334Y031136D02*
X016114Y030989D01*
X016150Y030915D02*
X016224Y030915D01*
X016260Y030878D01*
X016260Y030768D01*
X016260Y030841D02*
X016334Y030915D01*
X016334Y030989D02*
X016114Y031136D01*
X016150Y030915D02*
X016114Y030878D01*
X016114Y030768D01*
X016334Y030768D01*
X016334Y030136D02*
X016114Y029989D01*
X016114Y029915D02*
X016114Y029768D01*
X016114Y029841D02*
X016334Y029841D01*
X016334Y029989D02*
X016114Y030136D01*
X015840Y029853D02*
X015840Y029707D01*
X015803Y029670D01*
X015729Y029670D01*
X015693Y029707D01*
X015693Y029853D01*
X015729Y029890D01*
X015803Y029890D01*
X015840Y029853D01*
X015619Y029853D02*
X015582Y029890D01*
X015508Y029890D01*
X015472Y029853D01*
X015472Y029817D01*
X015508Y029780D01*
X015582Y029780D01*
X015619Y029743D01*
X015619Y029707D01*
X015582Y029670D01*
X015508Y029670D01*
X015472Y029707D01*
X015398Y029670D02*
X015324Y029670D01*
X015361Y029670D02*
X015361Y029890D01*
X015324Y029890D02*
X015398Y029890D01*
X015250Y029890D02*
X015250Y029670D01*
X015103Y029670D02*
X015103Y029890D01*
X015177Y029817D01*
X015250Y029890D01*
X014740Y029890D02*
X014593Y029743D01*
X014629Y029780D02*
X014740Y029670D01*
X014593Y029670D02*
X014593Y029890D01*
X014519Y029853D02*
X014482Y029890D01*
X014408Y029890D01*
X014372Y029853D01*
X014372Y029707D01*
X014408Y029670D01*
X014482Y029670D01*
X014519Y029707D01*
X014298Y029707D02*
X014261Y029670D01*
X014188Y029670D01*
X014151Y029707D01*
X014188Y029780D02*
X014261Y029780D01*
X014298Y029743D01*
X014298Y029707D01*
X014188Y029780D02*
X014151Y029817D01*
X014151Y029853D01*
X014188Y029890D01*
X014261Y029890D01*
X014298Y029853D01*
X013640Y029890D02*
X013493Y029890D01*
X013493Y029670D01*
X013640Y029670D01*
X013566Y029780D02*
X013493Y029780D01*
X013419Y029707D02*
X013382Y029670D01*
X013309Y029670D01*
X013272Y029707D01*
X013272Y029853D01*
X013309Y029890D01*
X013382Y029890D01*
X013419Y029853D01*
X011682Y031780D02*
X011645Y031780D01*
X011572Y031853D02*
X011608Y031890D01*
X011682Y031890D01*
X011719Y031853D01*
X010151Y030590D02*
X010151Y030370D01*
X032650Y006630D02*
X032614Y006593D01*
X032614Y006557D01*
X032650Y006520D01*
X032724Y006520D01*
X032761Y006483D01*
X032761Y006447D01*
X032724Y006410D01*
X032650Y006410D01*
X032614Y006447D01*
X032650Y006630D02*
X032724Y006630D01*
X032761Y006593D01*
X032835Y006630D02*
X032835Y006410D01*
X032835Y006483D02*
X032945Y006483D01*
X032982Y006520D01*
X032982Y006593D01*
X032945Y006630D01*
X032835Y006630D01*
X033056Y006630D02*
X033056Y006410D01*
X033129Y006483D01*
X033203Y006410D01*
X033203Y006630D01*
X033277Y006630D02*
X033350Y006557D01*
X033424Y006630D01*
X033424Y006410D01*
X033498Y006373D02*
X033645Y006373D01*
X033719Y006410D02*
X033866Y006410D01*
X033792Y006410D02*
X033792Y006630D01*
X033719Y006557D01*
X033277Y006630D02*
X033277Y006410D01*
D13*
X027182Y008363D02*
X027134Y008315D01*
X027037Y008315D01*
X026988Y008363D01*
X026988Y008557D01*
X027037Y008605D01*
X027134Y008605D01*
X027182Y008557D01*
X026887Y008557D02*
X026839Y008605D01*
X026742Y008605D01*
X026694Y008557D01*
X026594Y008605D02*
X026497Y008605D01*
X026546Y008605D02*
X026546Y008315D01*
X026594Y008315D02*
X026497Y008315D01*
X026694Y008315D02*
X026887Y008508D01*
X026887Y008557D01*
X026887Y008315D02*
X026694Y008315D01*
X026102Y008315D02*
X026102Y008605D01*
X026005Y008508D01*
X025908Y008605D01*
X025908Y008315D01*
X025807Y008315D02*
X025807Y008605D01*
X025613Y008605D02*
X025613Y008315D01*
X025710Y008412D01*
X025807Y008315D01*
X025512Y008460D02*
X025464Y008412D01*
X025319Y008412D01*
X025319Y008315D02*
X025319Y008605D01*
X025464Y008605D01*
X025512Y008557D01*
X025512Y008460D01*
X021882Y006157D02*
X021834Y006205D01*
X021737Y006205D01*
X021688Y006157D01*
X021688Y005963D01*
X021737Y005915D01*
X021834Y005915D01*
X021882Y005963D01*
X021587Y005915D02*
X021394Y005915D01*
X021587Y006108D01*
X021587Y006157D01*
X021539Y006205D01*
X021442Y006205D01*
X021394Y006157D01*
X021294Y006205D02*
X021197Y006205D01*
X021246Y006205D02*
X021246Y005915D01*
X021294Y005915D02*
X021197Y005915D01*
X020802Y005915D02*
X020802Y006205D01*
X020705Y006108D01*
X020608Y006205D01*
X020608Y005915D01*
X020507Y005915D02*
X020507Y006205D01*
X020313Y006205D02*
X020313Y005915D01*
X020410Y006012D01*
X020507Y005915D01*
X020212Y006060D02*
X020164Y006012D01*
X020019Y006012D01*
X020019Y005915D02*
X020019Y006205D01*
X020164Y006205D01*
X020212Y006157D01*
X020212Y006060D01*
X017664Y008315D02*
X017567Y008412D01*
X017616Y008412D02*
X017471Y008412D01*
X017471Y008315D02*
X017471Y008605D01*
X017616Y008605D01*
X017664Y008557D01*
X017664Y008460D01*
X017616Y008412D01*
X017369Y008315D02*
X017369Y008605D01*
X017176Y008605D02*
X017176Y008315D01*
X017273Y008412D01*
X017369Y008315D01*
X017075Y008460D02*
X017026Y008412D01*
X016881Y008412D01*
X016881Y008315D02*
X016881Y008605D01*
X017026Y008605D01*
X017075Y008557D01*
X017075Y008460D01*
X016486Y008557D02*
X016486Y008605D01*
X016486Y008557D02*
X016389Y008460D01*
X016389Y008315D01*
X016389Y008460D02*
X016292Y008557D01*
X016292Y008605D01*
X016191Y008557D02*
X016143Y008605D01*
X016046Y008605D01*
X015997Y008557D01*
X015997Y008508D01*
X016046Y008460D01*
X016143Y008460D01*
X016191Y008412D01*
X016191Y008363D01*
X016143Y008315D01*
X016046Y008315D01*
X015997Y008363D01*
X015896Y008315D02*
X015896Y008605D01*
X015703Y008605D02*
X015896Y008315D01*
X015703Y008315D02*
X015703Y008605D01*
X015602Y008605D02*
X015408Y008605D01*
X015408Y008315D01*
X015602Y008315D01*
X015505Y008460D02*
X015408Y008460D01*
X015307Y008315D02*
X015113Y008315D01*
X015113Y008605D01*
X015307Y008605D01*
X015210Y008460D02*
X015113Y008460D01*
X015012Y008605D02*
X014819Y008605D01*
X014916Y008605D02*
X014916Y008315D01*
X019739Y012343D02*
X020052Y012657D01*
X019739Y012343D01*
X019896Y012343D02*
X019896Y012657D01*
X019896Y012343D01*
X020052Y012343D02*
X019739Y012657D01*
X020052Y012343D01*
X020052Y012500D02*
X019739Y012500D01*
X020052Y012500D01*
X020052Y015073D02*
X019739Y015387D01*
X020052Y015073D01*
X019896Y015073D02*
X019896Y015387D01*
X019896Y015073D01*
X019739Y015073D02*
X020052Y015387D01*
X019739Y015073D01*
X019739Y015230D02*
X020052Y015230D01*
X019739Y015230D01*
X019739Y017573D02*
X020052Y017887D01*
X019739Y017573D01*
X019896Y017573D02*
X019896Y017887D01*
X019896Y017573D01*
X020052Y017573D02*
X019739Y017887D01*
X020052Y017573D01*
X020052Y017730D02*
X019739Y017730D01*
X020052Y017730D01*
D14*
X030204Y003725D03*
D15*
X012006Y004272D03*
X012006Y004732D03*
X012006Y002732D03*
X012006Y002272D03*
X004506Y002272D03*
X004506Y002732D03*
X004506Y004272D03*
X004506Y004732D03*
D16*
X033704Y003500D02*
X034254Y003500D01*
X039154Y003500D02*
X039704Y003500D01*
D17*
X035204Y003500D03*
D18*
X034529Y003500D03*
X038879Y003500D03*
D19*
X035944Y007037D02*
X043268Y007037D01*
X043268Y012963D01*
X035944Y012963D01*
X035944Y007037D01*
X026301Y004891D02*
X026299Y004864D01*
X026294Y004838D01*
X026285Y004813D01*
X026272Y004789D01*
X026257Y004767D01*
X026238Y004747D01*
X026218Y004730D01*
X026195Y004716D01*
X026170Y004705D01*
X026144Y004698D01*
X026117Y004694D01*
X026091Y004694D01*
X026064Y004698D01*
X026038Y004705D01*
X026013Y004716D01*
X025990Y004730D01*
X025970Y004747D01*
X025951Y004767D01*
X025936Y004789D01*
X025923Y004813D01*
X025914Y004838D01*
X025909Y004864D01*
X025907Y004891D01*
X025907Y003709D02*
X025909Y003736D01*
X025914Y003762D01*
X025923Y003787D01*
X025936Y003811D01*
X025951Y003833D01*
X025970Y003853D01*
X025990Y003870D01*
X026013Y003884D01*
X026038Y003895D01*
X026064Y003902D01*
X026091Y003906D01*
X026117Y003906D01*
X026144Y003902D01*
X026170Y003895D01*
X026195Y003884D01*
X026218Y003870D01*
X026238Y003853D01*
X026257Y003833D01*
X026272Y003811D01*
X026285Y003787D01*
X026294Y003762D01*
X026299Y003736D01*
X026301Y003709D01*
X015554Y004790D02*
X015554Y002210D01*
X013194Y002210D01*
X013194Y004790D01*
X015554Y004790D01*
X013154Y004510D02*
X013154Y002490D01*
X012874Y002490D01*
X012694Y002670D01*
X012694Y004330D01*
X012874Y004510D01*
X013154Y004510D01*
X010801Y004891D02*
X010799Y004864D01*
X010794Y004838D01*
X010785Y004813D01*
X010772Y004789D01*
X010757Y004767D01*
X010738Y004747D01*
X010718Y004730D01*
X010695Y004716D01*
X010670Y004705D01*
X010644Y004698D01*
X010617Y004694D01*
X010591Y004694D01*
X010564Y004698D01*
X010538Y004705D01*
X010513Y004716D01*
X010490Y004730D01*
X010470Y004747D01*
X010451Y004767D01*
X010436Y004789D01*
X010423Y004813D01*
X010414Y004838D01*
X010409Y004864D01*
X010407Y004891D01*
X010407Y003709D02*
X010409Y003736D01*
X010414Y003762D01*
X010423Y003787D01*
X010436Y003811D01*
X010451Y003833D01*
X010470Y003853D01*
X010490Y003870D01*
X010513Y003884D01*
X010538Y003895D01*
X010564Y003902D01*
X010591Y003906D01*
X010617Y003906D01*
X010644Y003902D01*
X010670Y003895D01*
X010695Y003884D01*
X010718Y003870D01*
X010738Y003853D01*
X010757Y003833D01*
X010772Y003811D01*
X010785Y003787D01*
X010794Y003762D01*
X010799Y003736D01*
X010801Y003709D01*
X008054Y004790D02*
X008054Y002210D01*
X005694Y002210D01*
X005694Y004790D01*
X008054Y004790D01*
X005654Y004510D02*
X005654Y002490D01*
X005374Y002490D01*
X005194Y002670D01*
X005194Y004330D01*
X005374Y004510D01*
X005654Y004510D01*
X003301Y004891D02*
X003299Y004864D01*
X003294Y004838D01*
X003285Y004813D01*
X003272Y004789D01*
X003257Y004767D01*
X003238Y004747D01*
X003218Y004730D01*
X003195Y004716D01*
X003170Y004705D01*
X003144Y004698D01*
X003117Y004694D01*
X003091Y004694D01*
X003064Y004698D01*
X003038Y004705D01*
X003013Y004716D01*
X002990Y004730D01*
X002970Y004747D01*
X002951Y004767D01*
X002936Y004789D01*
X002923Y004813D01*
X002914Y004838D01*
X002909Y004864D01*
X002907Y004891D01*
X002907Y003709D02*
X002909Y003736D01*
X002914Y003762D01*
X002923Y003787D01*
X002936Y003811D01*
X002951Y003833D01*
X002970Y003853D01*
X002990Y003870D01*
X003013Y003884D01*
X003038Y003895D01*
X003064Y003902D01*
X003091Y003906D01*
X003117Y003906D01*
X003144Y003902D01*
X003170Y003895D01*
X003195Y003884D01*
X003218Y003870D01*
X003238Y003853D01*
X003257Y003833D01*
X003272Y003811D01*
X003285Y003787D01*
X003294Y003762D01*
X003299Y003736D01*
X003301Y003709D01*
X000140Y007037D02*
X007463Y007037D01*
X007463Y012963D01*
X000140Y012963D01*
X000140Y007037D01*
X000140Y016037D02*
X007463Y016037D01*
X007463Y021963D01*
X000140Y021963D01*
X000140Y016037D01*
X000140Y025037D02*
X007463Y025037D01*
X007463Y030963D01*
X000140Y030963D01*
X000140Y025037D01*
X015990Y021730D02*
X015990Y021280D01*
X017040Y021280D01*
X017040Y021730D01*
X015990Y021730D01*
X017704Y018000D02*
X017704Y032000D01*
X020704Y032000D01*
X020704Y031500D01*
X021704Y031500D01*
X021704Y032000D01*
X024704Y032000D01*
X024704Y018000D01*
X017704Y018000D01*
X035944Y016037D02*
X043268Y016037D01*
X043268Y021963D01*
X035944Y021963D01*
X035944Y016037D01*
X035944Y025537D02*
X043268Y025537D01*
X043268Y031463D01*
X035944Y031463D01*
X035944Y025537D01*
D20*
X016164Y004400D03*
X016164Y002600D03*
X008664Y002600D03*
X008664Y004400D03*
D21*
X008244Y003500D03*
X015744Y003500D03*
D22*
X013154Y003469D02*
X012694Y003469D01*
X012694Y003392D02*
X013154Y003392D01*
X013154Y003315D02*
X012694Y003315D01*
X012694Y003238D02*
X013154Y003238D01*
X013154Y003161D02*
X012694Y003161D01*
X012694Y003083D02*
X013154Y003083D01*
X013154Y003006D02*
X012694Y003006D01*
X012694Y002929D02*
X013154Y002929D01*
X013154Y002852D02*
X012694Y002852D01*
X012694Y002775D02*
X013154Y002775D01*
X013154Y002698D02*
X012694Y002698D01*
X012694Y002670D02*
X012694Y004330D01*
X012874Y004510D01*
X013154Y004510D01*
X013154Y002490D01*
X012874Y002490D01*
X012694Y002670D01*
X012743Y002620D02*
X013154Y002620D01*
X013154Y002543D02*
X012821Y002543D01*
X012694Y003546D02*
X013154Y003546D01*
X013154Y003623D02*
X012694Y003623D01*
X012694Y003701D02*
X013154Y003701D01*
X013154Y003778D02*
X012694Y003778D01*
X012694Y003855D02*
X013154Y003855D01*
X013154Y003932D02*
X012694Y003932D01*
X012694Y004009D02*
X013154Y004009D01*
X013154Y004086D02*
X012694Y004086D01*
X012694Y004164D02*
X013154Y004164D01*
X013154Y004241D02*
X012694Y004241D01*
X012694Y004318D02*
X013154Y004318D01*
X013154Y004395D02*
X012759Y004395D01*
X012836Y004472D02*
X013154Y004472D01*
X005654Y004472D02*
X005336Y004472D01*
X005374Y004510D02*
X005654Y004510D01*
X005654Y002490D01*
X005374Y002490D01*
X005194Y002670D01*
X005194Y004330D01*
X005374Y004510D01*
X005259Y004395D02*
X005654Y004395D01*
X005654Y004318D02*
X005194Y004318D01*
X005194Y004241D02*
X005654Y004241D01*
X005654Y004164D02*
X005194Y004164D01*
X005194Y004086D02*
X005654Y004086D01*
X005654Y004009D02*
X005194Y004009D01*
X005194Y003932D02*
X005654Y003932D01*
X005654Y003855D02*
X005194Y003855D01*
X005194Y003778D02*
X005654Y003778D01*
X005654Y003701D02*
X005194Y003701D01*
X005194Y003623D02*
X005654Y003623D01*
X005654Y003546D02*
X005194Y003546D01*
X005194Y003469D02*
X005654Y003469D01*
X005654Y003392D02*
X005194Y003392D01*
X005194Y003315D02*
X005654Y003315D01*
X005654Y003238D02*
X005194Y003238D01*
X005194Y003161D02*
X005654Y003161D01*
X005654Y003083D02*
X005194Y003083D01*
X005194Y003006D02*
X005654Y003006D01*
X005654Y002929D02*
X005194Y002929D01*
X005194Y002852D02*
X005654Y002852D01*
X005654Y002775D02*
X005194Y002775D01*
X005194Y002698D02*
X005654Y002698D01*
X005654Y002620D02*
X005243Y002620D01*
X005321Y002543D02*
X005654Y002543D01*
D23*
X009453Y006315D02*
X009529Y006315D01*
X009604Y006390D01*
X009604Y006540D01*
X009679Y006615D01*
X009754Y006615D01*
X009829Y006540D01*
X009829Y006390D01*
X009754Y006315D01*
X009679Y006315D01*
X009604Y006390D01*
X009604Y006540D02*
X009529Y006615D01*
X009453Y006615D01*
X009378Y006540D01*
X009378Y006390D01*
X009453Y006315D01*
X015229Y006202D02*
X015342Y006315D01*
X015342Y005975D01*
X015229Y005975D02*
X015456Y005975D01*
X016229Y005975D02*
X016456Y006202D01*
X016456Y006259D01*
X016399Y006315D01*
X016285Y006315D01*
X016229Y006259D01*
X016229Y005975D02*
X016456Y005975D01*
X017229Y006032D02*
X017285Y005975D01*
X017399Y005975D01*
X017456Y006032D01*
X017456Y006088D01*
X017399Y006145D01*
X017342Y006145D01*
X017399Y006145D02*
X017456Y006202D01*
X017456Y006259D01*
X017399Y006315D01*
X017285Y006315D01*
X017229Y006259D01*
X018779Y007275D02*
X019079Y007275D01*
X018929Y007275D02*
X018929Y007725D01*
X018779Y007575D01*
X023329Y007500D02*
X023629Y007500D01*
X023554Y007275D02*
X023554Y007725D01*
X023329Y007500D01*
X025229Y006202D02*
X025342Y006315D01*
X025342Y005975D01*
X025229Y005975D02*
X025456Y005975D01*
X026229Y005975D02*
X026456Y006202D01*
X026456Y006259D01*
X026399Y006315D01*
X026285Y006315D01*
X026229Y006259D01*
X026229Y005975D02*
X026456Y005975D01*
X027229Y006032D02*
X027285Y005975D01*
X027399Y005975D01*
X027456Y006032D01*
X027456Y006088D01*
X027399Y006145D01*
X027342Y006145D01*
X027399Y006145D02*
X027456Y006202D01*
X027456Y006259D01*
X027399Y006315D01*
X027285Y006315D01*
X027229Y006259D01*
X023724Y003955D02*
X023724Y003505D01*
X023799Y003730D02*
X023499Y003730D01*
X023724Y003955D01*
X021779Y003900D02*
X021779Y003825D01*
X021704Y003750D01*
X021779Y003675D01*
X021779Y003600D01*
X021704Y003525D01*
X021554Y003525D01*
X021479Y003600D01*
X021629Y003750D02*
X021704Y003750D01*
X021779Y003900D02*
X021704Y003975D01*
X021554Y003975D01*
X021479Y003900D01*
X019799Y003880D02*
X019724Y003955D01*
X019574Y003955D01*
X019499Y003880D01*
X019799Y003880D02*
X019799Y003805D01*
X019499Y003505D01*
X019799Y003505D01*
X017779Y003525D02*
X017479Y003525D01*
X017629Y003525D02*
X017629Y003975D01*
X017479Y003825D01*
X008029Y013265D02*
X008029Y013565D01*
X008029Y013415D02*
X007578Y013415D01*
X007729Y013265D01*
X009453Y015315D02*
X009529Y015315D01*
X009604Y015390D01*
X009604Y015540D01*
X009679Y015615D01*
X009754Y015615D01*
X009829Y015540D01*
X009829Y015390D01*
X009754Y015315D01*
X009679Y015315D01*
X009604Y015390D01*
X009604Y015540D02*
X009529Y015615D01*
X009453Y015615D01*
X009378Y015540D01*
X009378Y015390D01*
X009453Y015315D01*
X015051Y021325D02*
X014992Y021383D01*
X014992Y021617D01*
X015051Y021675D01*
X015167Y021675D01*
X015226Y021617D01*
X015226Y021383D01*
X015167Y021325D01*
X015051Y021325D01*
X015109Y021442D02*
X015226Y021325D01*
X015360Y021325D02*
X015594Y021325D01*
X015477Y021325D02*
X015477Y021675D01*
X015360Y021559D01*
X015477Y022075D02*
X015477Y022425D01*
X015360Y022425D02*
X015594Y022425D01*
X015226Y022425D02*
X014992Y022425D01*
X014992Y022075D01*
X015226Y022075D01*
X015109Y022250D02*
X014992Y022250D01*
X014857Y022425D02*
X014624Y022425D01*
X014624Y022075D01*
X014489Y022017D02*
X014256Y022017D01*
X014121Y022075D02*
X014121Y022425D01*
X014004Y022309D01*
X013887Y022425D01*
X013887Y022075D01*
X013752Y022075D02*
X013752Y022309D01*
X013636Y022425D01*
X013519Y022309D01*
X013519Y022075D01*
X013384Y022075D02*
X013267Y022192D01*
X013326Y022192D02*
X013151Y022192D01*
X013151Y022075D02*
X013151Y022425D01*
X013326Y022425D01*
X013384Y022367D01*
X013384Y022250D01*
X013326Y022192D01*
X013519Y022250D02*
X013752Y022250D01*
X013016Y022250D02*
X013016Y022133D01*
X012957Y022075D01*
X012841Y022075D01*
X012782Y022133D01*
X012782Y022367D01*
X012841Y022425D01*
X012957Y022425D01*
X013016Y022367D01*
X013016Y022250D02*
X012899Y022250D01*
X012647Y022133D02*
X012647Y022367D01*
X012589Y022425D01*
X012472Y022425D01*
X012414Y022367D01*
X012414Y022133D01*
X012472Y022075D01*
X012589Y022075D01*
X012647Y022133D01*
X012279Y022075D02*
X012162Y022192D01*
X012221Y022192D02*
X012046Y022192D01*
X012046Y022075D02*
X012046Y022425D01*
X012221Y022425D01*
X012279Y022367D01*
X012279Y022250D01*
X012221Y022192D01*
X011911Y022250D02*
X011852Y022192D01*
X011677Y022192D01*
X011677Y022075D02*
X011677Y022425D01*
X011852Y022425D01*
X011911Y022367D01*
X011911Y022250D01*
X014624Y022250D02*
X014741Y022250D01*
X009829Y024390D02*
X009754Y024315D01*
X009679Y024315D01*
X009604Y024390D01*
X009604Y024540D01*
X009679Y024615D01*
X009754Y024615D01*
X009829Y024540D01*
X009829Y024390D01*
X009604Y024390D02*
X009529Y024315D01*
X009453Y024315D01*
X009378Y024390D01*
X009378Y024540D01*
X009453Y024615D01*
X009529Y024615D01*
X009604Y024540D01*
X008029Y022565D02*
X008029Y022265D01*
X008029Y022415D02*
X007578Y022415D01*
X007729Y022265D01*
X000954Y022000D02*
X000954Y016000D01*
X000954Y013000D02*
X000954Y007000D01*
X017704Y018000D02*
X017704Y032000D01*
X024704Y032000D01*
X024704Y018000D01*
X017704Y018000D01*
X012629Y029375D02*
X012329Y029375D01*
X012479Y029375D02*
X012479Y029825D01*
X012329Y029675D01*
X015529Y032250D02*
X015529Y032325D01*
X015604Y032400D01*
X015754Y032400D01*
X015829Y032325D01*
X015829Y032250D01*
X015754Y032175D01*
X015604Y032175D01*
X015529Y032250D01*
X015604Y032400D02*
X015529Y032475D01*
X015529Y032550D01*
X015604Y032625D01*
X015754Y032625D01*
X015829Y032550D01*
X015829Y032475D01*
X015754Y032400D01*
X008029Y031565D02*
X008029Y031265D01*
X008029Y031415D02*
X007578Y031415D01*
X007729Y031265D01*
X000954Y031000D02*
X000954Y025000D01*
X033578Y022500D02*
X033653Y022575D01*
X033729Y022575D01*
X033804Y022500D01*
X033804Y022350D01*
X033729Y022275D01*
X033653Y022275D01*
X033578Y022350D01*
X033578Y022500D01*
X033804Y022500D02*
X033879Y022575D01*
X033954Y022575D01*
X034029Y022500D01*
X034029Y022350D01*
X033954Y022275D01*
X033879Y022275D01*
X033804Y022350D01*
X035529Y024325D02*
X035378Y024475D01*
X035829Y024475D01*
X035829Y024325D02*
X035829Y024625D01*
X042454Y025500D02*
X042454Y031500D01*
X034029Y031500D02*
X034029Y031350D01*
X033954Y031275D01*
X033879Y031275D01*
X033804Y031350D01*
X033804Y031500D01*
X033879Y031575D01*
X033954Y031575D01*
X034029Y031500D01*
X033804Y031500D02*
X033729Y031575D01*
X033653Y031575D01*
X033578Y031500D01*
X033578Y031350D01*
X033653Y031275D01*
X033729Y031275D01*
X033804Y031350D01*
X042454Y022000D02*
X042454Y016000D01*
X042454Y013000D02*
X042454Y007000D01*
X035829Y006625D02*
X035829Y006325D01*
X035829Y006475D02*
X035378Y006475D01*
X035529Y006325D01*
X033954Y013275D02*
X033879Y013275D01*
X033804Y013350D01*
X033804Y013500D01*
X033879Y013575D01*
X033954Y013575D01*
X034029Y013500D01*
X034029Y013350D01*
X033954Y013275D01*
X033804Y013350D02*
X033729Y013275D01*
X033653Y013275D01*
X033578Y013350D01*
X033578Y013500D01*
X033653Y013575D01*
X033729Y013575D01*
X033804Y013500D01*
X035529Y015325D02*
X035378Y015475D01*
X035829Y015475D01*
X035829Y015325D02*
X035829Y015625D01*
D24*
X027204Y007000D03*
X026204Y007000D03*
X025204Y007000D03*
X017204Y007000D03*
X016204Y007000D03*
X015204Y007000D03*
D25*
X010397Y004015D03*
X002897Y004015D03*
X025897Y004015D03*
D26*
X025868Y003759D03*
X026340Y003759D03*
X026340Y004841D03*
X025868Y004841D03*
X010840Y004841D03*
X010368Y004841D03*
X010368Y003759D03*
X010840Y003759D03*
X003340Y003759D03*
X002868Y003759D03*
X002868Y004841D03*
X003340Y004841D03*
D27*
X002932Y004728D03*
X003276Y003872D03*
X010432Y004728D03*
X010776Y003872D03*
X025932Y004728D03*
X026276Y003872D03*
D28*
X026104Y004300D03*
X010604Y004300D03*
X003104Y004300D03*
D29*
X003104Y002750D03*
X003104Y002250D03*
X010604Y002250D03*
X010604Y002750D03*
X026104Y002750D03*
X026104Y002250D03*
D30*
X024254Y008300D03*
X023754Y008300D03*
X018654Y008300D03*
X018154Y008300D03*
X016854Y023200D03*
X016354Y023200D03*
D31*
X008704Y022500D03*
X008704Y021500D03*
X008704Y020500D03*
X008704Y019500D03*
X008704Y018500D03*
X008704Y017500D03*
X008704Y016500D03*
X008704Y015500D03*
X008704Y013500D03*
X008704Y012500D03*
X008704Y011500D03*
X008704Y010500D03*
X008704Y009500D03*
X008704Y008500D03*
X008704Y007500D03*
X008704Y006500D03*
X019704Y007500D03*
X020704Y007500D03*
X021704Y007500D03*
X022704Y007500D03*
X034704Y007500D03*
X034704Y006500D03*
X034704Y008500D03*
X034704Y009500D03*
X034704Y010500D03*
X034704Y011500D03*
X034704Y012500D03*
X034704Y013500D03*
X034704Y015500D03*
X034704Y016500D03*
X034704Y017500D03*
X034704Y018500D03*
X034704Y019500D03*
X034704Y020500D03*
X034704Y021500D03*
X034704Y022500D03*
X034704Y024500D03*
X034704Y025500D03*
X034704Y026500D03*
X034704Y027500D03*
X034704Y028500D03*
X034704Y029500D03*
X034704Y030500D03*
X034704Y031500D03*
X016904Y031500D03*
X016904Y030500D03*
X015504Y030500D03*
X014504Y030500D03*
X013504Y030500D03*
X013504Y031500D03*
X014504Y031500D03*
X015504Y031500D03*
X012504Y031500D03*
X012504Y030500D03*
X008704Y030500D03*
X008704Y031500D03*
X008704Y029500D03*
X008704Y028500D03*
X008704Y027500D03*
X008704Y026500D03*
X008704Y025500D03*
X008704Y024500D03*
D32*
X019904Y017450D02*
X019904Y017340D01*
X020314Y017340D01*
X020314Y017450D01*
X019904Y017450D01*
X019904Y017200D02*
X019904Y017080D01*
X020314Y017080D01*
X020314Y017200D01*
X019904Y017200D01*
X019904Y016940D02*
X019904Y016820D01*
X020314Y016820D01*
X020314Y016940D01*
X019904Y016940D01*
X019904Y016690D02*
X019904Y016570D01*
X020314Y016570D01*
X020314Y016690D01*
X019904Y016690D01*
X019904Y016430D02*
X019904Y016310D01*
X020314Y016310D01*
X020314Y016430D01*
X019904Y016430D01*
X019904Y016180D02*
X019904Y016060D01*
X020314Y016060D01*
X020314Y016180D01*
X019904Y016180D01*
X019904Y015920D02*
X019904Y015800D01*
X020314Y015800D01*
X020314Y015920D01*
X019904Y015920D01*
X019904Y015660D02*
X019904Y015550D01*
X020314Y015550D01*
X020314Y015660D01*
X019904Y015660D01*
X020314Y015500D02*
X020314Y017500D01*
X021084Y017500D01*
X021324Y017500D01*
X022094Y017500D01*
X022094Y015500D01*
X020314Y015500D01*
X020314Y015000D02*
X020314Y013000D01*
X022094Y013000D01*
X022094Y015000D01*
X021324Y015000D01*
X021084Y015000D01*
X020314Y015000D01*
X020314Y014950D02*
X019904Y014950D01*
X019904Y014840D01*
X020314Y014840D01*
X020314Y014950D01*
X020314Y014700D02*
X019904Y014700D01*
X019904Y014580D01*
X020314Y014580D01*
X020314Y014700D01*
X020314Y014440D02*
X019904Y014440D01*
X019904Y014320D01*
X020314Y014320D01*
X020314Y014440D01*
X020314Y014190D02*
X019904Y014190D01*
X019904Y014070D01*
X020314Y014070D01*
X020314Y014190D01*
X020314Y013930D02*
X019904Y013930D01*
X019904Y013810D01*
X020314Y013810D01*
X020314Y013930D01*
X020314Y013680D02*
X019904Y013680D01*
X019904Y013560D01*
X020314Y013560D01*
X020314Y013680D01*
X020314Y013420D02*
X019904Y013420D01*
X019904Y013300D01*
X020314Y013300D01*
X020314Y013420D01*
X020314Y013160D02*
X019904Y013160D01*
X019904Y013050D01*
X020314Y013050D01*
X020314Y013160D01*
X020314Y012430D02*
X020314Y008570D01*
X022094Y008570D01*
X022094Y012430D01*
X021324Y012430D01*
X021084Y012430D01*
X020314Y012430D01*
X020314Y012220D02*
X019904Y012220D01*
X019904Y012100D01*
X020314Y012100D01*
X020314Y012220D01*
X020314Y011970D02*
X019904Y011970D01*
X019904Y011850D01*
X020314Y011850D01*
X020314Y011970D01*
X020314Y011710D02*
X019904Y011710D01*
X019904Y011590D01*
X020314Y011590D01*
X020314Y011710D01*
X020314Y011460D02*
X019904Y011460D01*
X019904Y011340D01*
X020314Y011340D01*
X020314Y011460D01*
X020314Y011200D02*
X019904Y011200D01*
X019904Y011080D01*
X020314Y011080D01*
X020314Y011200D01*
X020314Y010940D02*
X019904Y010940D01*
X019904Y010820D01*
X020314Y010820D01*
X020314Y010940D01*
X020314Y010690D02*
X019904Y010690D01*
X019904Y010570D01*
X020314Y010570D01*
X020314Y010690D01*
X020314Y010430D02*
X019904Y010430D01*
X019904Y010310D01*
X020314Y010310D01*
X020314Y010430D01*
X020314Y010180D02*
X019904Y010180D01*
X019904Y010060D01*
X020314Y010060D01*
X020314Y010180D01*
X020314Y009920D02*
X019904Y009920D01*
X019904Y009800D01*
X020314Y009800D01*
X020314Y009920D01*
X020314Y009660D02*
X019904Y009660D01*
X019904Y009540D01*
X020314Y009540D01*
X020314Y009660D01*
X020314Y009410D02*
X019904Y009410D01*
X019904Y009290D01*
X020314Y009290D01*
X020314Y009410D01*
X020314Y009150D02*
X019904Y009150D01*
X019904Y009030D01*
X020314Y009030D01*
X020314Y009150D01*
X020314Y008900D02*
X019904Y008900D01*
X019904Y008780D01*
X020314Y008780D01*
X020314Y008900D01*
X022094Y008900D02*
X022504Y008900D01*
X022504Y008780D01*
X022094Y008780D01*
X022094Y008900D01*
X022094Y009030D02*
X022504Y009030D01*
X022504Y009150D01*
X022094Y009150D01*
X022094Y009030D01*
X022094Y009290D02*
X022504Y009290D01*
X022504Y009410D01*
X022094Y009410D01*
X022094Y009290D01*
X022094Y009540D02*
X022504Y009540D01*
X022504Y009660D01*
X022094Y009660D01*
X022094Y009540D01*
X022094Y009800D02*
X022504Y009800D01*
X022504Y009920D01*
X022094Y009920D01*
X022094Y009800D01*
X022094Y010060D02*
X022504Y010060D01*
X022504Y010180D01*
X022094Y010180D01*
X022094Y010060D01*
X022094Y010310D02*
X022504Y010310D01*
X022504Y010430D01*
X022094Y010430D01*
X022094Y010310D01*
X022094Y010570D02*
X022504Y010570D01*
X022504Y010690D01*
X022094Y010690D01*
X022094Y010570D01*
X022094Y010820D02*
X022504Y010820D01*
X022504Y010940D01*
X022094Y010940D01*
X022094Y010820D01*
X022094Y011080D02*
X022504Y011080D01*
X022504Y011200D01*
X022094Y011200D01*
X022094Y011080D01*
X022094Y011340D02*
X022504Y011340D01*
X022504Y011460D01*
X022094Y011460D01*
X022094Y011340D01*
X022094Y011590D02*
X022504Y011590D01*
X022504Y011710D01*
X022094Y011710D01*
X022094Y011590D01*
X022094Y011850D02*
X022504Y011850D01*
X022504Y011970D01*
X022094Y011970D01*
X022094Y011850D01*
X022094Y012100D02*
X022504Y012100D01*
X022504Y012220D01*
X022094Y012220D01*
X022094Y012100D01*
X021324Y012430D02*
X021322Y012409D01*
X021317Y012389D01*
X021308Y012370D01*
X021296Y012353D01*
X021281Y012338D01*
X021264Y012326D01*
X021245Y012317D01*
X021225Y012312D01*
X021204Y012310D01*
X021183Y012312D01*
X021163Y012317D01*
X021144Y012326D01*
X021127Y012338D01*
X021112Y012353D01*
X021100Y012370D01*
X021091Y012389D01*
X021086Y012409D01*
X021084Y012430D01*
X022094Y013050D02*
X022504Y013050D01*
X022504Y013160D01*
X022094Y013160D01*
X022094Y013050D01*
X022094Y013300D02*
X022504Y013300D01*
X022504Y013420D01*
X022094Y013420D01*
X022094Y013300D01*
X022094Y013560D02*
X022504Y013560D01*
X022504Y013680D01*
X022094Y013680D01*
X022094Y013560D01*
X022094Y013810D02*
X022504Y013810D01*
X022504Y013930D01*
X022094Y013930D01*
X022094Y013810D01*
X022094Y014070D02*
X022504Y014070D01*
X022504Y014190D01*
X022094Y014190D01*
X022094Y014070D01*
X022094Y014320D02*
X022504Y014320D01*
X022504Y014440D01*
X022094Y014440D01*
X022094Y014320D01*
X022094Y014580D02*
X022504Y014580D01*
X022504Y014700D01*
X022094Y014700D01*
X022094Y014580D01*
X022094Y014840D02*
X022504Y014840D01*
X022504Y014950D01*
X022094Y014950D01*
X022094Y014840D01*
X022094Y015550D02*
X022504Y015550D01*
X022504Y015660D01*
X022094Y015660D01*
X022094Y015550D01*
X022094Y015800D02*
X022504Y015800D01*
X022504Y015920D01*
X022094Y015920D01*
X022094Y015800D01*
X022094Y016060D02*
X022504Y016060D01*
X022504Y016180D01*
X022094Y016180D01*
X022094Y016060D01*
X022094Y016310D02*
X022504Y016310D01*
X022504Y016430D01*
X022094Y016430D01*
X022094Y016310D01*
X022094Y016570D02*
X022504Y016570D01*
X022504Y016690D01*
X022094Y016690D01*
X022094Y016570D01*
X022094Y016820D02*
X022504Y016820D01*
X022504Y016940D01*
X022094Y016940D01*
X022094Y016820D01*
X022094Y017080D02*
X022504Y017080D01*
X022504Y017200D01*
X022094Y017200D01*
X022094Y017080D01*
X022094Y017340D02*
X022504Y017340D01*
X022504Y017450D01*
X022094Y017450D01*
X022094Y017340D01*
X021324Y017500D02*
X021322Y017479D01*
X021317Y017459D01*
X021308Y017440D01*
X021296Y017423D01*
X021281Y017408D01*
X021264Y017396D01*
X021245Y017387D01*
X021225Y017382D01*
X021204Y017380D01*
X021183Y017382D01*
X021163Y017387D01*
X021144Y017396D01*
X021127Y017408D01*
X021112Y017423D01*
X021100Y017440D01*
X021091Y017459D01*
X021086Y017479D01*
X021084Y017500D01*
X021084Y015000D02*
X021086Y014979D01*
X021091Y014959D01*
X021100Y014940D01*
X021112Y014923D01*
X021127Y014908D01*
X021144Y014896D01*
X021163Y014887D01*
X021183Y014882D01*
X021204Y014880D01*
X021225Y014882D01*
X021245Y014887D01*
X021264Y014896D01*
X021281Y014908D01*
X021296Y014923D01*
X021308Y014940D01*
X021317Y014959D01*
X021322Y014979D01*
X021324Y015000D01*
D33*
X001269Y015757D03*
X001269Y024757D03*
X001269Y006757D03*
X042138Y013243D03*
X042138Y022243D03*
X042138Y031743D03*
D34*
X042138Y025252D03*
X042138Y015752D03*
X042138Y006752D03*
X001269Y013248D03*
X001269Y022248D03*
X001269Y031248D03*
D35*
X018604Y003140D02*
X017814Y002350D01*
X019844Y002340D02*
X020594Y003140D01*
X021814Y002350D02*
X022604Y003140D01*
X023844Y002340D02*
X024594Y003140D01*
M02*
