%
M48
M72
T01C0.0236
T02C0.0354
T03C0.0360
T04C0.0380
T05C0.0400
T06C0.0470
T07C0.0590
T08C0.1280
%
T01
X4704Y6000
X14704Y13000
X15704Y13000
X16704Y12500
X17704Y13000
X19004Y13300
X18704Y15000
X19204Y15500
X18604Y16300
X17904Y17000
X17004Y16100
X19204Y17500
X20704Y17300
X20704Y16000
X20704Y15200
X21204Y14500
X20904Y13500
X23204Y12300
X23704Y11800
X24204Y11300
X25404Y11100
X25404Y12400
X27204Y13800
X27204Y14400
X27204Y15000
X26204Y16000
X26704Y16500
X25204Y16000
X25204Y15100
X23204Y15100
X23104Y17600
X23704Y17700
X26204Y19000
X23404Y20100
X23204Y21000
X25704Y23500
X28204Y24000
X23204Y25000
X22204Y27000
X20704Y28500
X21704Y30000
X19204Y30000
X19404Y31200
X16804Y26300
X14204Y24500
X10704Y21000
X14404Y18800
X14204Y17500
X14204Y14000
X16004Y20700
X10604Y28900
X5204Y15000
X28704Y8000
X28704Y6000
X32204Y5000
X37204Y13500
X31704Y17000
X29204Y15000
X37204Y23500
X31704Y30500
T02
X36704Y30250
X37704Y29750
X36704Y29250
X37704Y28750
X36704Y28250
X37704Y27750
X36704Y27250
X37704Y26750
X36704Y20750
X37704Y20250
X36704Y19750
X37704Y19250
X36704Y18750
X37704Y18250
X36704Y17750
X37704Y17250
X36704Y11750
X37704Y11250
X36704Y10750
X37704Y10250
X36704Y9750
X37704Y9250
X36704Y8750
X37704Y8250
X6704Y8250
X5704Y8750
X6704Y9250
X5704Y9750
X6704Y10250
X5704Y10750
X6704Y11250
X5704Y11750
X6704Y17250
X5704Y17750
X6704Y18250
X5704Y18750
X6704Y19250
X5704Y19750
X6704Y20250
X5704Y20750
X6704Y26250
X5704Y26750
X6704Y27250
X5704Y27750
X6704Y28250
X5704Y28750
X6704Y29250
X5704Y29750
T03
X15204Y7000
X16204Y7000
X17204Y7000
X25204Y7000
X26204Y7000
X27204Y7000
T04
X24204Y18500
X23204Y18500
X22204Y18500
X22204Y19500
X22204Y20500
X22204Y21500
X22204Y22500
X22204Y23500
X22204Y24500
X22204Y25500
X21204Y25500
X21204Y24500
X21204Y23500
X21204Y22500
X21204Y21500
X21204Y20500
X21204Y19500
X21204Y18500
X20204Y18500
X19204Y18500
X18204Y18500
X18204Y19500
X18204Y20500
X18204Y21500
X18204Y22500
X18204Y23500
X18204Y24500
X18204Y25500
X18204Y26500
X18204Y27500
X18204Y28500
X18204Y29500
X18204Y30500
X18204Y31500
X23204Y30500
X24204Y30500
X24204Y31500
X24204Y29500
X24204Y28500
X23204Y28500
X23204Y27500
X24204Y27500
X24204Y26500
X23204Y26500
X24204Y25500
X24204Y24500
X24204Y23500
X24204Y22500
X24204Y21500
X24204Y20500
X24204Y19500
T05
X34704Y19500
X34704Y18500
X34704Y17500
X34704Y16500
X34704Y15500
X34704Y13500
X34704Y12500
X34704Y11500
X34704Y10500
X34704Y9500
X34704Y8500
X34704Y7500
X34704Y6500
X30204Y4500
X30204Y2500
X22704Y7500
X21704Y7500
X20704Y7500
X19704Y7500
X8704Y7500
X8704Y6500
X8704Y8500
X8704Y9500
X8704Y10500
X8704Y11500
X8704Y12500
X8704Y13500
X8704Y15500
X8704Y16500
X8704Y17500
X8704Y18500
X8704Y19500
X8704Y20500
X8704Y21500
X8704Y22500
X8704Y24500
X8704Y25500
X8704Y26500
X8704Y27500
X8704Y28500
X8704Y29500
X8704Y30500
X8704Y31500
X12504Y31500
X13504Y31500
X14504Y31500
X15504Y31500
X15504Y30500
X14504Y30500
X13504Y30500
X12504Y30500
X16904Y30500
X16904Y31500
X34704Y31500
X34704Y30500
X34704Y29500
X34704Y28500
X34704Y27500
X34704Y26500
X34704Y25500
X34704Y24500
X34704Y22500
X34704Y21500
X34704Y20500
T06
X24204Y2750
X22204Y2750
X20204Y2750
X18204Y2750
T07
X33704Y3500
X39704Y3500
T08
X40204Y7750
X40204Y12250
X40204Y16750
X40204Y21250
X40204Y26250
X40204Y30750
X3204Y30250
X3204Y25750
X3204Y21250
X3204Y16750
X3204Y12250
X3204Y7750
M30
