G75*
%MOIN*%
%OFA0B0*%
%FSLAX24Y24*%
%IPPOS*%
%LPD*%
%AMOC8*
5,1,8,0,0,1.08239X$1,22.5*
%
%ADD10C,0.0020*%
%ADD11C,0.0030*%
%ADD12C,0.0040*%
%ADD13R,0.0197X0.0374*%
%ADD14R,0.0669X0.0295*%
%ADD15C,0.0060*%
%ADD16C,0.0300*%
%ADD17R,0.0300X0.0200*%
%ADD18R,0.0300X0.0400*%
%ADD19R,0.0340X0.0160*%
%ADD20C,0.0080*%
%ADD21C,0.0050*%
%ADD22R,0.0450X0.0502*%
%ADD23R,0.0450X0.0492*%
D10*
X004553Y003201D02*
X004516Y003237D01*
X004553Y003201D02*
X004626Y003201D01*
X004663Y003237D01*
X004663Y003274D01*
X004626Y003311D01*
X004553Y003311D01*
X004516Y003347D01*
X004516Y003384D01*
X004553Y003421D01*
X004626Y003421D01*
X004663Y003384D01*
X004737Y003384D02*
X004737Y003237D01*
X004774Y003201D01*
X004847Y003201D01*
X004884Y003237D01*
X004958Y003201D02*
X005105Y003201D01*
X004958Y003201D02*
X004958Y003421D01*
X004884Y003384D02*
X004847Y003421D01*
X004774Y003421D01*
X004737Y003384D01*
X004811Y004216D02*
X004884Y004290D01*
X004884Y004436D01*
X004737Y004436D02*
X004737Y004290D01*
X004811Y004216D01*
X004663Y004253D02*
X004626Y004216D01*
X004553Y004216D01*
X004516Y004253D01*
X004516Y004326D02*
X004590Y004363D01*
X004626Y004363D01*
X004663Y004326D01*
X004663Y004253D01*
X004516Y004326D02*
X004516Y004436D01*
X004663Y004436D01*
X004690Y005195D02*
X004653Y005195D01*
X004653Y005231D01*
X004690Y005231D01*
X004690Y005195D01*
X004763Y005231D02*
X004800Y005195D01*
X004873Y005195D01*
X004910Y005231D01*
X004910Y005268D01*
X004873Y005305D01*
X004837Y005305D01*
X004873Y005305D02*
X004910Y005341D01*
X004910Y005378D01*
X004873Y005415D01*
X004800Y005415D01*
X004763Y005378D01*
X004579Y005378D02*
X004579Y005341D01*
X004542Y005305D01*
X004579Y005268D01*
X004579Y005231D01*
X004542Y005195D01*
X004469Y005195D01*
X004432Y005231D01*
X004505Y005305D02*
X004542Y005305D01*
X004579Y005378D02*
X004542Y005415D01*
X004469Y005415D01*
X004432Y005378D01*
X004984Y005415D02*
X004984Y005268D01*
X005058Y005195D01*
X005131Y005268D01*
X005131Y005415D01*
X007601Y004878D02*
X007601Y004731D01*
X007637Y004695D01*
X007711Y004695D01*
X007748Y004731D01*
X007748Y004805D01*
X007674Y004805D01*
X007601Y004878D02*
X007637Y004915D01*
X007711Y004915D01*
X007748Y004878D01*
X007822Y004915D02*
X007969Y004695D01*
X007969Y004915D01*
X008043Y004915D02*
X008153Y004915D01*
X008190Y004878D01*
X008190Y004731D01*
X008153Y004695D01*
X008043Y004695D01*
X008043Y004915D01*
X007822Y004915D02*
X007822Y004695D01*
X007811Y003936D02*
X007921Y003936D01*
X007958Y003900D01*
X007958Y003826D01*
X007921Y003790D01*
X007811Y003790D01*
X007884Y003790D02*
X007958Y003716D01*
X008032Y003716D02*
X008178Y003863D01*
X008178Y003900D01*
X008142Y003936D01*
X008068Y003936D01*
X008032Y003900D01*
X007811Y003936D02*
X007811Y003716D01*
X007737Y003716D02*
X007663Y003716D01*
X007700Y003716D02*
X007700Y003936D01*
X007663Y003936D02*
X007737Y003936D01*
X008032Y003716D02*
X008178Y003716D01*
X008232Y002921D02*
X008305Y002847D01*
X008305Y002701D01*
X008305Y002811D02*
X008158Y002811D01*
X008158Y002847D02*
X008232Y002921D01*
X008158Y002847D02*
X008158Y002701D01*
X008084Y002737D02*
X008084Y002884D01*
X008047Y002921D01*
X007937Y002921D01*
X007937Y002701D01*
X008047Y002701D01*
X008084Y002737D01*
X007863Y002737D02*
X007863Y002774D01*
X007826Y002811D01*
X007753Y002811D01*
X007716Y002847D01*
X007716Y002884D01*
X007753Y002921D01*
X007826Y002921D01*
X007863Y002884D01*
X007863Y002737D02*
X007826Y002701D01*
X007753Y002701D01*
X007716Y002737D01*
X012274Y003027D02*
X012347Y003101D01*
X012494Y003101D01*
X012494Y003175D02*
X012274Y003322D01*
X012274Y003396D02*
X012274Y003506D01*
X012310Y003543D01*
X012457Y003543D01*
X012494Y003506D01*
X012494Y003396D01*
X012274Y003396D01*
X012274Y003175D02*
X012494Y003322D01*
X012384Y003101D02*
X012384Y002954D01*
X012347Y002954D02*
X012274Y003027D01*
X012347Y002954D02*
X012494Y002954D01*
X013554Y003644D02*
X013604Y003594D01*
X013654Y003644D01*
X013604Y003694D02*
X013604Y003594D01*
X013564Y003744D02*
X013664Y003810D01*
X013714Y003810D02*
X013714Y003744D01*
X013664Y003744D02*
X013564Y003810D01*
X013564Y003894D02*
X013580Y003894D01*
X013614Y003927D01*
X013664Y003927D01*
X013704Y003944D02*
X013804Y003944D01*
X013754Y003894D01*
X013804Y003944D02*
X013754Y003994D01*
X013614Y003927D02*
X013580Y003960D01*
X013564Y003960D01*
X013714Y003810D02*
X013730Y003810D01*
X013797Y003744D01*
X013814Y003744D01*
X013814Y003810D01*
X013744Y003694D02*
X013746Y003699D01*
X013750Y003703D01*
X013755Y003704D01*
X013761Y003702D01*
X013764Y003697D01*
X013764Y003691D01*
X013761Y003686D01*
X013755Y003684D01*
X013750Y003685D01*
X013746Y003689D01*
X013744Y003694D01*
X013704Y003694D02*
X013706Y003707D01*
X013711Y003720D01*
X013720Y003731D01*
X013731Y003738D01*
X013744Y003743D01*
X013757Y003744D01*
X013771Y003741D01*
X013783Y003735D01*
X013793Y003726D01*
X013800Y003714D01*
X013804Y003701D01*
X013804Y003687D01*
X013800Y003674D01*
X013793Y003662D01*
X013783Y003653D01*
X013771Y003647D01*
X013757Y003644D01*
X013744Y003645D01*
X013731Y003650D01*
X013720Y003657D01*
X013711Y003668D01*
X013706Y003681D01*
X013704Y003694D01*
X012494Y003617D02*
X012494Y003764D01*
X012457Y003838D02*
X012494Y003875D01*
X012494Y003948D01*
X012457Y003985D01*
X012420Y003985D01*
X012384Y003948D01*
X012384Y003911D01*
X012384Y003948D02*
X012347Y003985D01*
X012310Y003985D01*
X012274Y003948D01*
X012274Y003875D01*
X012310Y003838D01*
X012274Y003617D02*
X012494Y003617D01*
X012384Y004059D02*
X012384Y004206D01*
X012384Y004280D02*
X012274Y004280D01*
X012274Y004427D01*
X012347Y004390D02*
X012347Y004353D01*
X012384Y004280D01*
X012457Y004280D02*
X012494Y004317D01*
X012494Y004390D01*
X012457Y004427D01*
X012384Y004427D01*
X012347Y004390D01*
X012274Y004169D02*
X012384Y004059D01*
X012494Y004169D02*
X012274Y004169D01*
X011644Y006066D02*
X011681Y006103D01*
X011681Y006176D01*
X011607Y006176D01*
X011534Y006249D02*
X011534Y006103D01*
X011571Y006066D01*
X011644Y006066D01*
X011460Y006066D02*
X011387Y006066D01*
X011423Y006066D02*
X011423Y006286D01*
X011387Y006286D02*
X011460Y006286D01*
X011534Y006249D02*
X011571Y006286D01*
X011644Y006286D01*
X011681Y006249D01*
X011313Y006249D02*
X011276Y006286D01*
X011202Y006286D01*
X011166Y006249D01*
X011166Y006213D01*
X011202Y006176D01*
X011276Y006176D01*
X011313Y006139D01*
X011313Y006103D01*
X011276Y006066D01*
X011202Y006066D01*
X011166Y006103D01*
X010689Y006103D02*
X010689Y006249D01*
X010652Y006286D01*
X010542Y006286D01*
X010542Y006066D01*
X010652Y006066D01*
X010689Y006103D01*
X010468Y006066D02*
X010468Y006286D01*
X010321Y006286D02*
X010468Y006066D01*
X010321Y006066D02*
X010321Y006286D01*
X010247Y006249D02*
X010210Y006286D01*
X010137Y006286D01*
X010100Y006249D01*
X010100Y006103D01*
X010137Y006066D01*
X010210Y006066D01*
X010247Y006103D01*
X010247Y006176D01*
X010174Y006176D01*
X009549Y006139D02*
X009476Y006066D01*
X009402Y006139D01*
X009402Y006286D01*
X009328Y006286D02*
X009181Y006286D01*
X009181Y006176D01*
X009255Y006213D01*
X009292Y006213D01*
X009328Y006176D01*
X009328Y006103D01*
X009292Y006066D01*
X009218Y006066D01*
X009181Y006103D01*
X009549Y006139D02*
X009549Y006286D01*
D11*
X018219Y003976D02*
X018219Y003919D01*
X018247Y003891D01*
X018304Y003947D02*
X018304Y003976D01*
X018332Y004004D01*
X018360Y004004D01*
X018389Y003976D01*
X018389Y003919D01*
X018360Y003891D01*
X018304Y003976D02*
X018275Y004004D01*
X018247Y004004D01*
X018219Y003976D01*
X018647Y003888D02*
X018760Y003888D01*
X018789Y003917D01*
X018760Y003983D02*
X018704Y003983D01*
X018675Y004011D01*
X018675Y004068D01*
X018704Y004096D01*
X018732Y004096D01*
X018732Y003983D01*
X018760Y003983D02*
X018789Y004011D01*
X018789Y004068D01*
X018789Y004167D02*
X018675Y004167D01*
X018675Y004224D02*
X018675Y004252D01*
X018675Y004224D02*
X018732Y004167D01*
X018789Y004320D02*
X018789Y004377D01*
X018789Y004349D02*
X018619Y004349D01*
X018619Y004320D01*
X018704Y004443D02*
X018760Y004443D01*
X018789Y004472D01*
X018789Y004528D01*
X018760Y004557D01*
X018704Y004557D01*
X018675Y004528D01*
X018675Y004472D01*
X018704Y004443D01*
X018704Y004627D02*
X018760Y004627D01*
X018789Y004656D01*
X018789Y004712D01*
X018760Y004741D01*
X018704Y004741D01*
X018675Y004712D01*
X018675Y004656D01*
X018704Y004627D01*
X018675Y003917D02*
X018675Y003860D01*
X018704Y003789D02*
X018789Y003789D01*
X018789Y003704D01*
X018760Y003676D01*
X018732Y003704D01*
X018732Y003789D01*
X018704Y003789D02*
X018675Y003761D01*
X018675Y003704D01*
X018619Y003605D02*
X018789Y003605D01*
X018732Y003548D01*
X018789Y003492D01*
X018619Y003492D01*
X018619Y003421D02*
X018760Y003421D01*
X018789Y003393D01*
X018789Y003336D01*
X018760Y003308D01*
X018619Y003308D01*
X018389Y003272D02*
X018389Y003216D01*
X018389Y003244D02*
X018275Y003244D01*
X018275Y003216D01*
X018219Y003244D02*
X018190Y003244D01*
X018275Y003147D02*
X018275Y003119D01*
X018332Y003062D01*
X018389Y003062D02*
X018275Y003062D01*
X018304Y002991D02*
X018332Y002991D01*
X018332Y002878D01*
X018360Y002878D02*
X018304Y002878D01*
X018275Y002906D01*
X018275Y002963D01*
X018304Y002991D01*
X018389Y002963D02*
X018389Y002906D01*
X018360Y002878D01*
X018360Y002807D02*
X018389Y002779D01*
X018389Y002722D01*
X018360Y002694D01*
X018304Y002722D02*
X018304Y002779D01*
X018332Y002807D01*
X018360Y002807D01*
X018304Y002722D02*
X018275Y002694D01*
X018247Y002694D01*
X018219Y002722D01*
X018219Y002779D01*
X018247Y002807D01*
X018675Y002840D02*
X018675Y002755D01*
X018789Y002755D01*
X018789Y002684D02*
X018789Y002599D01*
X018760Y002571D01*
X018732Y002599D01*
X018732Y002684D01*
X018704Y002684D02*
X018789Y002684D01*
X018704Y002684D02*
X018675Y002656D01*
X018675Y002599D01*
X018675Y002840D02*
X018704Y002869D01*
X018789Y002869D01*
X018760Y002939D02*
X018704Y002939D01*
X018675Y002968D01*
X018675Y003053D01*
X018619Y003053D02*
X018789Y003053D01*
X018789Y002968D01*
X018760Y002939D01*
X018360Y003338D02*
X018304Y003338D01*
X018275Y003367D01*
X018275Y003423D01*
X018304Y003452D01*
X018332Y003452D01*
X018332Y003338D01*
X018360Y003338D02*
X018389Y003367D01*
X018389Y003423D01*
X018389Y003522D02*
X018389Y003608D01*
X018360Y003636D01*
X018332Y003608D01*
X018332Y003551D01*
X018304Y003522D01*
X018275Y003551D01*
X018275Y003636D01*
X018275Y002439D02*
X018275Y002354D01*
X018304Y002325D01*
X018360Y002325D01*
X018389Y002354D01*
X018389Y002439D01*
X018619Y002321D02*
X018619Y002264D01*
X018619Y002292D02*
X018789Y002292D01*
X018789Y002264D02*
X018789Y002321D01*
X018789Y002193D02*
X018675Y002193D01*
X018619Y002137D01*
X018675Y002080D01*
X018789Y002080D01*
X018760Y002009D02*
X018789Y001981D01*
X018789Y001896D01*
X018619Y001896D01*
X018619Y001981D01*
X018647Y002009D01*
X018675Y002009D01*
X018704Y001981D01*
X018704Y001896D01*
X018704Y001825D02*
X018732Y001797D01*
X018732Y001712D01*
X018789Y001712D02*
X018619Y001712D01*
X018619Y001797D01*
X018647Y001825D01*
X018704Y001825D01*
X018389Y001834D02*
X018389Y001948D01*
X018360Y002018D02*
X018304Y002018D01*
X018275Y002047D01*
X018275Y002104D01*
X018304Y002132D01*
X018360Y002132D01*
X018389Y002104D01*
X018389Y002047D01*
X018360Y002018D01*
X018275Y001948D02*
X018389Y001834D01*
X018360Y001764D02*
X018304Y001764D01*
X018275Y001735D01*
X018275Y001679D01*
X018304Y001650D01*
X018360Y001650D01*
X018389Y001679D01*
X018389Y001735D01*
X018360Y001764D01*
X018275Y001834D02*
X018275Y001948D01*
X018704Y001981D02*
X018732Y002009D01*
X018760Y002009D01*
X018704Y002080D02*
X018704Y002193D01*
X018389Y002203D02*
X018389Y002259D01*
X018389Y002231D02*
X018275Y002231D01*
X018275Y002203D01*
X018219Y002231D02*
X018190Y002231D01*
X019019Y002137D02*
X019075Y002080D01*
X019047Y002009D02*
X019160Y001896D01*
X019189Y001924D01*
X019189Y001981D01*
X019160Y002009D01*
X019047Y002009D01*
X019019Y001981D01*
X019019Y001924D01*
X019047Y001896D01*
X019160Y001896D01*
X019189Y001825D02*
X019189Y001712D01*
X019075Y001825D01*
X019047Y001825D01*
X019019Y001797D01*
X019019Y001740D01*
X019047Y001712D01*
X019019Y001641D02*
X019189Y001527D01*
X019189Y001457D02*
X019189Y001343D01*
X019189Y001400D02*
X019019Y001400D01*
X019075Y001343D01*
X019189Y001273D02*
X019189Y001159D01*
X019189Y001216D02*
X019019Y001216D01*
X019075Y001159D01*
X018789Y001159D02*
X018789Y001244D01*
X018760Y001273D01*
X018704Y001273D01*
X018675Y001244D01*
X018675Y001159D01*
X018619Y001159D02*
X018789Y001159D01*
X018389Y001159D02*
X018219Y001159D01*
X018304Y001159D02*
X018304Y001273D01*
X018275Y001343D02*
X018360Y001343D01*
X018389Y001372D01*
X018389Y001457D01*
X018417Y001457D02*
X018445Y001428D01*
X018445Y001400D01*
X018417Y001457D02*
X018275Y001457D01*
X018219Y001527D02*
X018219Y001556D01*
X018389Y001556D01*
X018389Y001584D02*
X018389Y001527D01*
X018675Y001457D02*
X018817Y001457D01*
X018845Y001428D01*
X018845Y001400D01*
X018789Y001372D02*
X018789Y001457D01*
X018789Y001372D02*
X018760Y001343D01*
X018675Y001343D01*
X018389Y001273D02*
X018219Y001273D01*
X019189Y002080D02*
X019189Y002193D01*
X019189Y002137D02*
X019019Y002137D01*
X019104Y002264D02*
X019104Y002377D01*
X019189Y002349D02*
X019019Y002349D01*
X019104Y002264D01*
D12*
X017984Y002329D02*
X017917Y002262D01*
X017917Y002295D02*
X017917Y002195D01*
X017984Y002195D02*
X017784Y002195D01*
X017784Y002295D01*
X017817Y002329D01*
X017884Y002329D01*
X017917Y002295D01*
X017984Y002115D02*
X017984Y002048D01*
X017984Y002081D02*
X017784Y002081D01*
X017784Y002048D02*
X017784Y002115D01*
X017624Y002155D02*
X017624Y002255D01*
X017524Y002255D01*
X017490Y002222D01*
X017490Y002155D01*
X017557Y002155D02*
X017557Y002255D01*
X017524Y002343D02*
X017590Y002343D01*
X017624Y002376D01*
X017624Y002476D01*
X017590Y002564D02*
X017624Y002597D01*
X017624Y002697D01*
X017590Y002785D02*
X017524Y002785D01*
X017490Y002818D01*
X017490Y002885D01*
X017524Y002918D01*
X017557Y002918D01*
X017557Y002785D01*
X017590Y002785D02*
X017624Y002818D01*
X017624Y002885D01*
X017624Y003006D02*
X017624Y003072D01*
X017624Y003039D02*
X017424Y003039D01*
X017424Y003006D01*
X017184Y003055D02*
X017024Y003055D01*
X017024Y003175D01*
X017064Y003215D01*
X017184Y003215D01*
X017490Y003186D02*
X017490Y003253D01*
X017524Y003286D01*
X017557Y003286D01*
X017557Y003153D01*
X017524Y003153D02*
X017490Y003186D01*
X017524Y003153D02*
X017590Y003153D01*
X017624Y003186D01*
X017624Y003253D01*
X017850Y003297D02*
X017884Y003263D01*
X017950Y003263D01*
X017984Y003297D01*
X017984Y003397D01*
X018017Y003397D02*
X017850Y003397D01*
X017850Y003297D01*
X018017Y003397D02*
X018051Y003364D01*
X018051Y003330D01*
X017984Y003176D02*
X017884Y003176D01*
X017850Y003143D01*
X017850Y003042D01*
X017984Y003042D01*
X017984Y002955D02*
X017884Y002955D01*
X017850Y002922D01*
X017850Y002855D01*
X017917Y002855D02*
X017950Y002822D01*
X017984Y002855D01*
X017984Y002955D01*
X017917Y002955D02*
X017917Y002855D01*
X017850Y002737D02*
X017850Y002704D01*
X017917Y002637D01*
X017984Y002637D02*
X017850Y002637D01*
X017590Y002564D02*
X017524Y002564D01*
X017490Y002597D01*
X017490Y002697D01*
X017184Y002705D02*
X017184Y002625D01*
X017184Y002665D02*
X017024Y002665D01*
X017024Y002625D01*
X016944Y002665D02*
X016904Y002665D01*
X017024Y002527D02*
X017024Y002407D01*
X017064Y002367D01*
X017104Y002407D01*
X017104Y002487D01*
X017144Y002527D01*
X017184Y002487D01*
X017184Y002367D01*
X017184Y002270D02*
X017064Y002270D01*
X017024Y002230D01*
X017024Y002109D01*
X017184Y002109D01*
X017104Y002012D02*
X017104Y001852D01*
X017144Y001852D02*
X017064Y001852D01*
X017024Y001892D01*
X017024Y001972D01*
X017064Y002012D01*
X017104Y002012D01*
X017184Y001972D02*
X017184Y001892D01*
X017144Y001852D01*
X017184Y001760D02*
X017144Y001720D01*
X016984Y001720D01*
X017024Y001680D02*
X017024Y001760D01*
X017424Y001680D02*
X017624Y001680D01*
X017624Y001599D02*
X017590Y001566D01*
X017457Y001566D01*
X017490Y001599D02*
X017490Y001532D01*
X017624Y001452D02*
X017624Y001385D01*
X017624Y001418D02*
X017490Y001418D01*
X017490Y001385D01*
X017424Y001418D02*
X017390Y001418D01*
X017490Y001298D02*
X017590Y001298D01*
X017624Y001264D01*
X017590Y001231D01*
X017624Y001197D01*
X017590Y001164D01*
X017490Y001164D01*
X017184Y001164D02*
X017184Y001324D01*
X017184Y001422D02*
X017024Y001582D01*
X017024Y001422D02*
X017184Y001582D01*
X017490Y001713D02*
X017490Y001780D01*
X017524Y001813D01*
X017624Y001813D01*
X017524Y001680D02*
X017490Y001713D01*
X017784Y001740D02*
X017984Y001740D01*
X017984Y001639D01*
X017950Y001606D01*
X017884Y001606D01*
X017850Y001639D01*
X017850Y001740D01*
X017884Y001519D02*
X017984Y001519D01*
X017884Y001519D02*
X017850Y001485D01*
X017850Y001385D01*
X017984Y001385D01*
X017984Y001298D02*
X017884Y001298D01*
X017850Y001264D01*
X017850Y001197D01*
X017917Y001197D02*
X017950Y001164D01*
X017984Y001197D01*
X017984Y001298D01*
X017917Y001298D02*
X017917Y001197D01*
X017184Y001164D02*
X016944Y001164D01*
X016944Y001324D01*
X017064Y001244D02*
X017064Y001164D01*
X016294Y001879D02*
X016014Y001879D01*
X016014Y002214D02*
X016294Y002214D01*
X017490Y002376D02*
X017524Y002343D01*
X017490Y002376D02*
X017490Y002476D01*
X017557Y002155D02*
X017590Y002122D01*
X017624Y002155D01*
X017144Y002797D02*
X017064Y002797D01*
X017024Y002837D01*
X017024Y002917D01*
X017064Y002957D01*
X017144Y002957D01*
X017184Y002917D01*
X017184Y002837D01*
X017144Y002797D01*
X017490Y003374D02*
X017624Y003374D01*
X017557Y003374D02*
X017490Y003441D01*
X017490Y003474D01*
X017524Y003558D02*
X017490Y003591D01*
X017490Y003658D01*
X017524Y003692D01*
X017590Y003692D01*
X017624Y003658D01*
X017624Y003591D01*
X017590Y003558D01*
X017524Y003558D01*
X017850Y003585D02*
X017850Y003518D01*
X017884Y003484D01*
X017950Y003484D01*
X017984Y003518D01*
X017984Y003585D01*
X017917Y003618D02*
X017884Y003618D01*
X017850Y003585D01*
X017917Y003618D02*
X017917Y003484D01*
X017624Y003779D02*
X017490Y003779D01*
X017490Y003812D01*
X017524Y003846D01*
X017490Y003879D01*
X017524Y003913D01*
X017624Y003913D01*
X017624Y003846D02*
X017524Y003846D01*
X017884Y003926D02*
X017884Y003993D01*
X017817Y003960D02*
X017784Y003993D01*
X017817Y003960D02*
X017984Y003960D01*
X017984Y004074D02*
X017984Y004140D01*
X017984Y004107D02*
X017850Y004107D01*
X017850Y004074D01*
X017784Y004107D02*
X017750Y004107D01*
X017624Y004067D02*
X017590Y004033D01*
X017457Y004033D01*
X017490Y004000D02*
X017490Y004067D01*
X017524Y004147D02*
X017490Y004181D01*
X017490Y004248D01*
X017524Y004281D01*
X017557Y004281D01*
X017557Y004147D01*
X017590Y004147D02*
X017524Y004147D01*
X017590Y004147D02*
X017624Y004181D01*
X017624Y004248D01*
X017850Y004221D02*
X017850Y004321D01*
X017884Y004355D01*
X017984Y004355D01*
X017984Y004221D02*
X017850Y004221D01*
X017624Y004368D02*
X017490Y004368D01*
X017557Y004368D02*
X017490Y004435D01*
X017490Y004469D01*
X017184Y004599D02*
X017144Y004559D01*
X017064Y004559D01*
X017024Y004599D01*
X017024Y004719D01*
X016944Y004719D02*
X017184Y004719D01*
X017184Y004599D01*
X017024Y004464D02*
X017024Y004424D01*
X017104Y004344D01*
X017184Y004344D02*
X017024Y004344D01*
X017064Y004246D02*
X017184Y004246D01*
X017184Y004126D01*
X017144Y004086D01*
X017104Y004126D01*
X017104Y004246D01*
X017064Y004246D02*
X017024Y004206D01*
X017024Y004126D01*
X017064Y003988D02*
X017024Y003948D01*
X017024Y003868D01*
X017064Y003828D01*
X017144Y003828D01*
X017184Y003868D01*
X017184Y003948D01*
X017144Y003988D01*
X017064Y003988D01*
X017104Y003731D02*
X017144Y003731D01*
X017184Y003691D01*
X017184Y003570D01*
X016944Y003570D01*
X016944Y003691D01*
X016984Y003731D01*
X017024Y003731D01*
X017064Y003691D01*
X017064Y003570D01*
X017064Y003691D02*
X017104Y003731D01*
X016464Y003414D02*
X016464Y004174D01*
X015844Y004174D02*
X015844Y003414D01*
X017850Y004475D02*
X017850Y004576D01*
X017784Y004576D02*
X017984Y004576D01*
X017984Y004475D01*
X017950Y004442D01*
X017884Y004442D01*
X017850Y004475D01*
X017884Y004663D02*
X017850Y004696D01*
X017850Y004763D01*
X017884Y004797D01*
X017917Y004797D01*
X017917Y004663D01*
X017950Y004663D02*
X017884Y004663D01*
X017950Y004663D02*
X017984Y004696D01*
X017984Y004763D01*
X017984Y004884D02*
X017850Y004884D01*
X017850Y004951D02*
X017850Y004984D01*
X017850Y004951D02*
X017917Y004884D01*
X015044Y005374D02*
X014764Y005374D01*
X014764Y005709D02*
X015044Y005709D01*
X012020Y005261D02*
X011713Y005261D01*
X011867Y005261D02*
X011867Y005721D01*
X011713Y005568D01*
D13*
X014675Y005542D03*
X015135Y005542D03*
X015922Y002046D03*
X016382Y002046D03*
D14*
X016154Y003272D03*
X016153Y004316D03*
D15*
X011904Y004491D02*
X011904Y003491D01*
X010904Y003491D01*
X009904Y003491D01*
X008904Y003491D01*
X008904Y004491D01*
X009904Y004491D01*
X009904Y003491D01*
X010904Y003491D02*
X010904Y004491D01*
X009904Y004491D01*
X010904Y004491D02*
X011904Y004491D01*
X012764Y001964D02*
X012764Y001624D01*
X013044Y001624D02*
X013044Y001964D01*
X014264Y001964D02*
X014264Y001624D01*
X014544Y001624D02*
X014544Y001964D01*
D16*
X011404Y000991D02*
X011404Y003241D01*
X010404Y003241D02*
X010404Y000991D01*
X009404Y000991D02*
X009404Y003241D01*
D17*
X009404Y003391D03*
X010404Y003391D03*
X011404Y003391D03*
D18*
X011404Y004691D03*
X010404Y004691D03*
X009404Y004691D03*
D19*
X012904Y002044D03*
X012904Y001544D03*
X014404Y001544D03*
X014404Y002044D03*
D20*
X014244Y002810D02*
X013929Y002810D01*
X013378Y002810D02*
X013063Y002810D01*
X013615Y003400D02*
X013617Y003412D01*
X013622Y003423D01*
X013631Y003432D01*
X013642Y003437D01*
X013654Y003439D01*
X013666Y003437D01*
X013677Y003432D01*
X013686Y003423D01*
X013691Y003412D01*
X013693Y003400D01*
X013691Y003388D01*
X013686Y003377D01*
X013677Y003368D01*
X013666Y003363D01*
X013654Y003361D01*
X013642Y003363D01*
X013631Y003368D01*
X013622Y003377D01*
X013617Y003388D01*
X013615Y003400D01*
X013378Y004778D02*
X013063Y004778D01*
X013929Y004778D02*
X014244Y004778D01*
X007463Y006557D02*
X000140Y006557D01*
X000140Y000631D01*
X007463Y000631D01*
X007463Y006557D01*
D21*
X013063Y004778D02*
X013063Y002810D01*
X014244Y002810D01*
X014244Y004778D01*
X013063Y004778D01*
X000954Y006594D02*
X000954Y000594D01*
D22*
X001269Y000351D03*
D23*
X001269Y006842D03*
M02*
