G75*
%MOIN*%
%OFA0B0*%
%FSLAX24Y24*%
%IPPOS*%
%LPD*%
%AMOC8*
5,1,8,0,0,1.08239X$1,22.5*
%
%ADD10C,0.0640*%
%ADD11C,0.0594*%
%ADD12R,0.0594X0.0594*%
%ADD13C,0.0240*%
%ADD14C,0.0436*%
D10*
X009404Y004921D02*
X009404Y005561D01*
X010404Y005561D02*
X010404Y004921D01*
X011404Y004921D02*
X011404Y005561D01*
D11*
X006704Y004844D03*
X005704Y004344D03*
X006704Y003844D03*
X005704Y003344D03*
X006704Y002844D03*
X005704Y002344D03*
X006704Y001844D03*
D12*
X005704Y005344D03*
D13*
X004204Y001145D02*
X004137Y000984D01*
X019464Y000984D01*
X019464Y006104D01*
X011884Y006104D01*
X011884Y006043D01*
X011980Y005946D01*
X012084Y005696D01*
X012084Y004786D01*
X011980Y004536D01*
X011789Y004344D01*
X011539Y004241D01*
X011269Y004241D01*
X011019Y004344D01*
X010827Y004536D01*
X010814Y004568D01*
X010756Y004509D01*
X010687Y004459D01*
X010611Y004421D01*
X010530Y004394D01*
X010446Y004381D01*
X010404Y004381D01*
X010404Y005241D01*
X010404Y005241D01*
X010404Y004381D01*
X010361Y004381D01*
X010277Y004394D01*
X010196Y004421D01*
X010121Y004459D01*
X010052Y004509D01*
X009993Y004568D01*
X009980Y004536D01*
X009789Y004344D01*
X009539Y004241D01*
X009269Y004241D01*
X009019Y004344D01*
X008827Y004536D01*
X008724Y004786D01*
X008724Y005696D01*
X008752Y005764D01*
X008503Y005764D01*
X007884Y005145D01*
X007884Y004580D01*
X007887Y004572D01*
X007884Y004485D01*
X007884Y004399D01*
X007880Y004390D01*
X007880Y004381D01*
X007844Y004302D01*
X007811Y004222D01*
X007804Y004216D01*
X007800Y004207D01*
X007737Y004148D01*
X007676Y004087D01*
X007667Y004084D01*
X007361Y003799D01*
X007361Y003713D01*
X007261Y003472D01*
X007133Y003344D01*
X007153Y003324D01*
X011699Y003324D01*
X011876Y003251D01*
X011904Y003222D01*
X011919Y003222D01*
X012131Y003134D01*
X012294Y002972D01*
X012382Y002759D01*
X012382Y002529D01*
X012380Y002524D01*
X013499Y002524D01*
X013676Y002451D01*
X013754Y002372D01*
X013769Y002372D01*
X013981Y002284D01*
X014144Y002122D01*
X014232Y001909D01*
X014232Y001679D01*
X014144Y001467D01*
X013981Y001304D01*
X013769Y001216D01*
X013539Y001216D01*
X013326Y001304D01*
X013164Y001467D01*
X013123Y001564D01*
X009141Y001564D01*
X009131Y001554D01*
X008919Y001466D01*
X008689Y001466D01*
X008476Y001554D01*
X008314Y001717D01*
X008226Y001929D01*
X008226Y002159D01*
X008311Y002364D01*
X007153Y002364D01*
X007133Y002344D01*
X007261Y002216D01*
X007361Y001975D01*
X007361Y001713D01*
X007261Y001472D01*
X007076Y001287D01*
X006834Y001187D01*
X006573Y001187D01*
X006332Y001287D01*
X006147Y001472D01*
X006047Y001713D01*
X006047Y001775D01*
X005834Y001687D01*
X005573Y001687D01*
X005332Y001787D01*
X005147Y001972D01*
X005047Y002213D01*
X005047Y002475D01*
X005147Y002716D01*
X005274Y002844D01*
X005147Y002972D01*
X005047Y003213D01*
X005047Y003475D01*
X005147Y003716D01*
X005274Y003844D01*
X005147Y003972D01*
X005047Y004213D01*
X005047Y004475D01*
X005147Y004716D01*
X005187Y004757D01*
X005101Y004843D01*
X005047Y004975D01*
X005047Y005713D01*
X005101Y005845D01*
X005203Y005946D01*
X005335Y006001D01*
X006073Y006001D01*
X006205Y005946D01*
X006306Y005845D01*
X006361Y005713D01*
X006361Y005233D01*
X006367Y005239D01*
X006433Y005286D01*
X006505Y005323D01*
X006583Y005349D01*
X006663Y005361D01*
X006704Y005361D01*
X006704Y004844D01*
X006704Y004844D01*
X006704Y005361D01*
X006744Y005361D01*
X006825Y005349D01*
X006902Y005323D01*
X006924Y005312D01*
X006924Y005440D01*
X006997Y005616D01*
X007132Y005751D01*
X007485Y006104D01*
X004178Y006104D01*
X004204Y006043D01*
X004204Y005645D01*
X004052Y005278D01*
X003770Y004996D01*
X003403Y004844D01*
X003005Y004844D01*
X002637Y004996D01*
X002356Y005278D01*
X002344Y005307D01*
X002344Y001881D01*
X002356Y001911D01*
X002637Y002192D01*
X003005Y002344D01*
X003403Y002344D01*
X003770Y002192D01*
X004052Y001911D01*
X004204Y001543D01*
X004204Y001145D01*
X004152Y001021D02*
X019464Y001021D01*
X019314Y000984D02*
X019314Y006104D01*
X019464Y006030D02*
X011897Y006030D01*
X011921Y006006D02*
X011921Y006104D01*
X012159Y006104D02*
X012159Y003106D01*
X012051Y003168D02*
X019464Y003168D01*
X019464Y003406D02*
X007195Y003406D01*
X007151Y003362D02*
X007151Y003326D01*
X007389Y003324D02*
X007389Y003826D01*
X007451Y003883D02*
X019464Y003883D01*
X019464Y003645D02*
X007332Y003645D01*
X006704Y003844D02*
X007404Y004494D01*
X007404Y005344D01*
X008304Y006244D01*
X011204Y006244D01*
X011404Y006044D01*
X011404Y005241D01*
X012084Y005314D02*
X019464Y005314D01*
X019464Y005076D02*
X012084Y005076D01*
X012084Y004837D02*
X019464Y004837D01*
X019464Y004599D02*
X012006Y004599D01*
X011921Y004476D02*
X011921Y003221D01*
X011682Y003324D02*
X011682Y004300D01*
X011805Y004360D02*
X019464Y004360D01*
X019464Y004122D02*
X007710Y004122D01*
X007628Y004047D02*
X007628Y003324D01*
X007866Y003324D02*
X007866Y004351D01*
X007870Y004360D02*
X009003Y004360D01*
X009059Y004328D02*
X009059Y003324D01*
X009297Y003324D02*
X009297Y004241D01*
X009536Y004241D02*
X009536Y003324D01*
X009774Y003324D02*
X009774Y004338D01*
X009805Y004360D02*
X011003Y004360D01*
X010967Y004396D02*
X010967Y003324D01*
X011205Y003324D02*
X011205Y004267D01*
X011444Y004241D02*
X011444Y003324D01*
X010728Y003324D02*
X010728Y004489D01*
X010490Y004388D02*
X010490Y003324D01*
X010251Y003324D02*
X010251Y004403D01*
X010404Y004599D02*
X010404Y004599D01*
X010013Y004548D02*
X010013Y003324D01*
X008820Y003324D02*
X008820Y004553D01*
X008801Y004599D02*
X007884Y004599D01*
X007884Y004837D02*
X008724Y004837D01*
X008724Y005076D02*
X007884Y005076D01*
X008053Y005314D02*
X008724Y005314D01*
X008724Y005553D02*
X008291Y005553D01*
X008343Y005605D02*
X008343Y003324D01*
X008105Y003324D02*
X008105Y005366D01*
X008582Y005764D02*
X008582Y003324D01*
X006704Y002844D02*
X011604Y002844D01*
X011804Y002644D01*
X011754Y002694D01*
X012311Y002929D02*
X019464Y002929D01*
X019464Y002691D02*
X012382Y002691D01*
X012398Y002524D02*
X012398Y006104D01*
X012636Y006104D02*
X012636Y002524D01*
X012875Y002524D02*
X012875Y006104D01*
X013113Y006104D02*
X013113Y002524D01*
X013352Y002524D02*
X013352Y006104D01*
X013590Y006104D02*
X013590Y002486D01*
X013673Y002452D02*
X019464Y002452D01*
X019464Y002214D02*
X014052Y002214D01*
X014067Y002198D02*
X014067Y006104D01*
X013829Y006104D02*
X013829Y002347D01*
X013404Y002044D02*
X013654Y001794D01*
X013404Y002044D02*
X008804Y002044D01*
X008248Y002214D02*
X007262Y002214D01*
X007151Y002326D02*
X007151Y002362D01*
X007389Y002364D02*
X007389Y000984D01*
X007151Y000984D02*
X007151Y001362D01*
X007010Y001260D02*
X013433Y001260D01*
X013352Y001293D02*
X013352Y000984D01*
X013590Y000984D02*
X013590Y001216D01*
X013829Y001241D02*
X013829Y000984D01*
X014067Y000984D02*
X014067Y001390D01*
X014157Y001498D02*
X019464Y001498D01*
X019464Y001260D02*
X013874Y001260D01*
X013151Y001498D02*
X008996Y001498D01*
X009059Y001524D02*
X009059Y000984D01*
X009297Y000984D02*
X009297Y001564D01*
X009536Y001564D02*
X009536Y000984D01*
X009774Y000984D02*
X009774Y001564D01*
X010013Y001564D02*
X010013Y000984D01*
X010251Y000984D02*
X010251Y001564D01*
X010490Y001564D02*
X010490Y000984D01*
X010728Y000984D02*
X010728Y001564D01*
X010967Y001564D02*
X010967Y000984D01*
X011205Y000984D02*
X011205Y001564D01*
X011444Y001564D02*
X011444Y000984D01*
X011682Y000984D02*
X011682Y001564D01*
X011921Y001564D02*
X011921Y000984D01*
X012159Y000984D02*
X012159Y001564D01*
X012398Y001564D02*
X012398Y000984D01*
X012636Y000984D02*
X012636Y001564D01*
X012875Y001564D02*
X012875Y000984D01*
X013113Y000984D02*
X013113Y001564D01*
X014232Y001737D02*
X019464Y001737D01*
X019464Y001975D02*
X014205Y001975D01*
X014306Y000984D02*
X014306Y006104D01*
X014544Y006104D02*
X014544Y000984D01*
X014783Y000984D02*
X014783Y006104D01*
X015021Y006104D02*
X015021Y000984D01*
X015260Y000984D02*
X015260Y006104D01*
X015498Y006104D02*
X015498Y000984D01*
X015737Y000984D02*
X015737Y006104D01*
X015975Y006104D02*
X015975Y000984D01*
X016214Y000984D02*
X016214Y006104D01*
X016452Y006104D02*
X016452Y000984D01*
X016691Y000984D02*
X016691Y006104D01*
X016929Y006104D02*
X016929Y000984D01*
X017168Y000984D02*
X017168Y006104D01*
X017406Y006104D02*
X017406Y000984D01*
X017645Y000984D02*
X017645Y006104D01*
X017883Y006104D02*
X017883Y000984D01*
X018122Y000984D02*
X018122Y006104D01*
X018360Y006104D02*
X018360Y000984D01*
X018599Y000984D02*
X018599Y006104D01*
X018837Y006104D02*
X018837Y000984D01*
X019076Y000984D02*
X019076Y006104D01*
X019464Y005791D02*
X012044Y005791D01*
X012084Y005553D02*
X019464Y005553D01*
X011954Y004194D02*
X011904Y004144D01*
X010404Y004837D02*
X010404Y004837D01*
X010404Y005076D02*
X010404Y005076D01*
X007410Y006030D02*
X004204Y006030D01*
X004289Y006104D02*
X004289Y000984D01*
X004527Y000984D02*
X004527Y006104D01*
X004766Y006104D02*
X004766Y000984D01*
X005004Y000984D02*
X005004Y006104D01*
X005243Y006104D02*
X005243Y005963D01*
X005481Y006001D02*
X005481Y006104D01*
X005720Y006104D02*
X005720Y006001D01*
X005958Y006001D02*
X005958Y006104D01*
X006197Y006104D02*
X006197Y005950D01*
X006435Y006104D02*
X006435Y005288D01*
X006487Y005314D02*
X006361Y005314D01*
X006674Y005361D02*
X006674Y006104D01*
X006912Y006104D02*
X006912Y005318D01*
X006920Y005314D02*
X006924Y005314D01*
X006704Y005314D02*
X006704Y005314D01*
X006704Y005076D02*
X006704Y005076D01*
X006971Y005553D02*
X006361Y005553D01*
X006329Y005791D02*
X007172Y005791D01*
X007151Y005770D02*
X007151Y006104D01*
X007389Y006104D02*
X007389Y006008D01*
X005079Y005791D02*
X004204Y005791D01*
X004165Y005553D02*
X005047Y005553D01*
X005047Y005314D02*
X004067Y005314D01*
X004050Y005276D02*
X004050Y001912D01*
X003987Y001975D02*
X005145Y001975D01*
X005243Y001876D02*
X005243Y000984D01*
X005481Y000984D02*
X005481Y001725D01*
X005453Y001737D02*
X004124Y001737D01*
X004204Y001498D02*
X006136Y001498D01*
X006197Y001422D02*
X006197Y000984D01*
X006435Y000984D02*
X006435Y001244D01*
X006398Y001260D02*
X004204Y001260D01*
X005720Y000984D02*
X005720Y001687D01*
X005954Y001737D02*
X006047Y001737D01*
X005958Y001738D02*
X005958Y000984D01*
X006674Y000984D02*
X006674Y001187D01*
X006912Y001219D02*
X006912Y000984D01*
X007628Y000984D02*
X007628Y002364D01*
X007866Y002364D02*
X007866Y000984D01*
X008105Y000984D02*
X008105Y002364D01*
X008226Y001975D02*
X007361Y001975D01*
X007361Y001737D02*
X008305Y001737D01*
X008343Y001687D02*
X008343Y000984D01*
X008582Y000984D02*
X008582Y001510D01*
X008611Y001498D02*
X007272Y001498D01*
X008820Y001466D02*
X008820Y000984D01*
X005047Y002214D02*
X003718Y002214D01*
X003812Y002150D02*
X003812Y005038D01*
X003849Y005076D02*
X005047Y005076D01*
X005107Y004837D02*
X002344Y004837D01*
X002619Y005014D02*
X002619Y002174D01*
X002690Y002214D02*
X002344Y002214D01*
X002344Y002452D02*
X005047Y002452D01*
X005136Y002691D02*
X002344Y002691D01*
X002344Y002929D02*
X005189Y002929D01*
X005243Y002876D02*
X005243Y002812D01*
X005066Y003168D02*
X002344Y003168D01*
X002344Y003406D02*
X005047Y003406D01*
X005117Y003645D02*
X002344Y003645D01*
X002344Y003883D02*
X005235Y003883D01*
X005243Y003876D02*
X005243Y003812D01*
X005085Y004122D02*
X002344Y004122D01*
X002344Y004360D02*
X005047Y004360D01*
X005098Y004599D02*
X002344Y004599D01*
X002858Y004905D02*
X002858Y002283D01*
X003096Y002344D02*
X003096Y004844D01*
X003335Y004844D02*
X003335Y002344D01*
X003573Y002273D02*
X003573Y004915D01*
X002558Y005076D02*
X002344Y005076D01*
X002381Y005253D02*
X002381Y001935D01*
X002344Y001975D02*
X002421Y001975D01*
D14*
X008054Y003594D03*
X008804Y002044D03*
X010954Y001194D03*
X013654Y001794D03*
X011804Y002644D03*
X011954Y004194D03*
X015054Y004194D03*
X012704Y005544D03*
X017454Y002544D03*
X017454Y001794D03*
M02*
