G75*
%MOIN*%
%OFA0B0*%
%FSLAX24Y24*%
%IPPOS*%
%LPD*%
%AMOC8*
5,1,8,0,0,1.08239X$1,22.5*
%
%ADD10C,0.0020*%
%ADD11C,0.0060*%
%ADD12C,0.0030*%
%ADD13C,0.0040*%
%ADD14C,0.0160*%
%ADD15R,0.0900X0.0250*%
%ADD16C,0.0050*%
%ADD17R,0.0374X0.0197*%
%ADD18C,0.0500*%
%ADD19R,0.0300X0.2200*%
%ADD20R,0.0350X0.0500*%
%ADD21C,0.0080*%
%ADD22R,0.0340X0.1140*%
%ADD23R,0.0340X0.0300*%
%ADD24C,0.0079*%
%ADD25C,0.0098*%
%ADD26R,0.0177X0.0157*%
%ADD27R,0.0069X0.0128*%
%ADD28R,0.0079X0.0079*%
%ADD29R,0.0157X0.0177*%
%ADD30R,0.0128X0.0069*%
%ADD31R,0.0160X0.0340*%
%ADD32R,0.0340X0.0160*%
%ADD33R,0.0200X0.0200*%
%ADD34C,0.0100*%
%ADD35R,0.0250X0.0900*%
%ADD36R,0.0502X0.0450*%
%ADD37R,0.0492X0.0450*%
D10*
X003190Y002737D02*
X003237Y002690D01*
X003330Y002690D01*
X003377Y002737D01*
X003377Y002924D01*
X003330Y002970D01*
X003237Y002970D01*
X003190Y002924D01*
X003190Y002737D01*
X003466Y002690D02*
X003466Y002970D01*
X003653Y002690D01*
X003653Y002970D01*
X004690Y004690D02*
X004690Y004970D01*
X004830Y004970D01*
X004877Y004924D01*
X004877Y004830D01*
X004830Y004783D01*
X004690Y004783D01*
X004783Y004783D02*
X004877Y004690D01*
X004966Y004737D02*
X005013Y004690D01*
X005106Y004690D01*
X005153Y004737D01*
X005153Y004783D01*
X005106Y004830D01*
X004966Y004830D01*
X004966Y004737D01*
X004966Y004830D02*
X005060Y004924D01*
X005153Y004970D01*
X011496Y005599D02*
X011776Y005599D01*
X011776Y005786D01*
X011776Y005876D02*
X011496Y005876D01*
X011496Y006063D01*
X011496Y006152D02*
X011496Y006292D01*
X011543Y006339D01*
X011730Y006339D01*
X011776Y006292D01*
X011776Y006152D01*
X011496Y006152D01*
X011636Y005969D02*
X011636Y005876D01*
X011776Y005876D02*
X011776Y006063D01*
X011730Y006428D02*
X011776Y006475D01*
X011776Y006568D01*
X011730Y006615D01*
X011636Y006615D01*
X011589Y006568D01*
X011589Y006522D01*
X011636Y006428D01*
X011496Y006428D01*
X011496Y006615D01*
X013440Y006481D02*
X013533Y006388D01*
X013486Y006298D02*
X013440Y006251D01*
X013440Y006158D01*
X013486Y006111D01*
X013673Y006111D01*
X013720Y006158D01*
X013720Y006251D01*
X013673Y006298D01*
X013720Y006388D02*
X013720Y006574D01*
X013720Y006664D02*
X013720Y006851D01*
X013720Y006757D02*
X013440Y006757D01*
X013533Y006664D01*
X013440Y006481D02*
X013720Y006481D01*
X013861Y005670D02*
X014001Y005670D01*
X014048Y005624D01*
X014048Y005530D01*
X014001Y005483D01*
X013861Y005483D01*
X013861Y005390D02*
X013861Y005670D01*
X013955Y005483D02*
X014048Y005390D01*
X014138Y005390D02*
X014324Y005390D01*
X014231Y005390D02*
X014231Y005670D01*
X014138Y005577D01*
X014414Y005530D02*
X014601Y005530D01*
X014554Y005390D02*
X014554Y005670D01*
X014414Y005530D01*
X014736Y006111D02*
X014923Y006111D01*
X014970Y006158D01*
X014970Y006251D01*
X014923Y006298D01*
X014970Y006388D02*
X014970Y006574D01*
X014970Y006664D02*
X014783Y006851D01*
X014736Y006851D01*
X014690Y006804D01*
X014690Y006710D01*
X014736Y006664D01*
X014690Y006481D02*
X014970Y006481D01*
X014970Y006664D02*
X014970Y006851D01*
X014690Y006481D02*
X014783Y006388D01*
X014736Y006298D02*
X014690Y006251D01*
X014690Y006158D01*
X014736Y006111D01*
X015496Y006152D02*
X015496Y006292D01*
X015543Y006339D01*
X015730Y006339D01*
X015776Y006292D01*
X015776Y006152D01*
X015496Y006152D01*
X015496Y006063D02*
X015496Y005876D01*
X015776Y005876D01*
X015776Y006063D01*
X015636Y005969D02*
X015636Y005876D01*
X015776Y005786D02*
X015776Y005599D01*
X015496Y005599D01*
X015636Y006428D02*
X015636Y006615D01*
X015776Y006568D02*
X015496Y006568D01*
X015636Y006428D01*
X017440Y006278D02*
X017440Y006184D01*
X017486Y006138D01*
X017673Y006138D01*
X017720Y006184D01*
X017720Y006278D01*
X017673Y006324D01*
X017673Y006414D02*
X017720Y006460D01*
X017720Y006554D01*
X017673Y006601D01*
X017627Y006601D01*
X017580Y006554D01*
X017580Y006414D01*
X017673Y006414D01*
X017580Y006414D02*
X017486Y006507D01*
X017440Y006601D01*
X017486Y006324D02*
X017440Y006278D01*
X017888Y005670D02*
X018028Y005670D01*
X018074Y005624D01*
X018074Y005530D01*
X018028Y005483D01*
X017888Y005483D01*
X017981Y005483D02*
X018074Y005390D01*
X018164Y005437D02*
X018210Y005390D01*
X018304Y005390D01*
X018351Y005437D01*
X018351Y005483D01*
X018304Y005530D01*
X018257Y005530D01*
X018304Y005530D02*
X018351Y005577D01*
X018351Y005624D01*
X018304Y005670D01*
X018210Y005670D01*
X018164Y005624D01*
X017888Y005670D02*
X017888Y005390D01*
X018690Y006184D02*
X018736Y006138D01*
X018923Y006138D01*
X018970Y006184D01*
X018970Y006278D01*
X018923Y006324D01*
X018923Y006414D02*
X018970Y006414D01*
X018923Y006414D02*
X018736Y006601D01*
X018690Y006601D01*
X018690Y006414D01*
X018736Y006324D02*
X018690Y006278D01*
X018690Y006184D01*
X019496Y006152D02*
X019496Y006292D01*
X019543Y006339D01*
X019730Y006339D01*
X019776Y006292D01*
X019776Y006152D01*
X019496Y006152D01*
X019496Y006063D02*
X019496Y005876D01*
X019776Y005876D01*
X019776Y006063D01*
X019636Y005969D02*
X019636Y005876D01*
X019776Y005786D02*
X019776Y005599D01*
X019496Y005599D01*
X019543Y006428D02*
X019496Y006475D01*
X019496Y006568D01*
X019543Y006615D01*
X019589Y006615D01*
X019636Y006568D01*
X019683Y006615D01*
X019730Y006615D01*
X019776Y006568D01*
X019776Y006475D01*
X019730Y006428D01*
X019636Y006522D02*
X019636Y006568D01*
X021440Y006554D02*
X021440Y006460D01*
X021486Y006414D01*
X021486Y006324D02*
X021440Y006278D01*
X021440Y006184D01*
X021486Y006138D01*
X021673Y006138D01*
X021720Y006184D01*
X021720Y006278D01*
X021673Y006324D01*
X021673Y006414D02*
X021720Y006460D01*
X021720Y006554D01*
X021673Y006601D01*
X021627Y006601D01*
X021580Y006554D01*
X021580Y006507D01*
X021580Y006554D02*
X021533Y006601D01*
X021486Y006601D01*
X021440Y006554D01*
X021888Y005670D02*
X022028Y005670D01*
X022074Y005624D01*
X022074Y005530D01*
X022028Y005483D01*
X021888Y005483D01*
X021981Y005483D02*
X022074Y005390D01*
X022164Y005390D02*
X022351Y005577D01*
X022351Y005624D01*
X022304Y005670D01*
X022210Y005670D01*
X022164Y005624D01*
X022164Y005390D02*
X022351Y005390D01*
X021888Y005390D02*
X021888Y005670D01*
X022690Y006184D02*
X022736Y006138D01*
X022923Y006138D01*
X022970Y006184D01*
X022970Y006278D01*
X022923Y006324D01*
X022923Y006414D02*
X022970Y006460D01*
X022970Y006554D01*
X022923Y006601D01*
X022830Y006601D01*
X022783Y006554D01*
X022783Y006507D01*
X022830Y006414D01*
X022690Y006414D01*
X022690Y006601D01*
X022736Y006324D02*
X022690Y006278D01*
X022690Y006184D01*
X023496Y006152D02*
X023496Y006292D01*
X023543Y006339D01*
X023730Y006339D01*
X023776Y006292D01*
X023776Y006152D01*
X023496Y006152D01*
X023496Y006063D02*
X023496Y005876D01*
X023776Y005876D01*
X023776Y006063D01*
X023636Y005969D02*
X023636Y005876D01*
X023776Y005786D02*
X023776Y005599D01*
X023496Y005599D01*
X023543Y006428D02*
X023496Y006475D01*
X023496Y006568D01*
X023543Y006615D01*
X023589Y006615D01*
X023776Y006428D01*
X023776Y006615D01*
X025440Y006554D02*
X025440Y006460D01*
X025486Y006414D01*
X025486Y006324D02*
X025440Y006278D01*
X025440Y006184D01*
X025486Y006138D01*
X025673Y006138D01*
X025720Y006184D01*
X025720Y006278D01*
X025673Y006324D01*
X025720Y006414D02*
X025533Y006601D01*
X025486Y006601D01*
X025440Y006554D01*
X025720Y006601D02*
X025720Y006414D01*
X025888Y005670D02*
X026028Y005670D01*
X026074Y005624D01*
X026074Y005530D01*
X026028Y005483D01*
X025888Y005483D01*
X025981Y005483D02*
X026074Y005390D01*
X026164Y005437D02*
X026210Y005390D01*
X026304Y005390D01*
X026351Y005437D01*
X026351Y005530D01*
X026304Y005577D01*
X026257Y005577D01*
X026164Y005530D01*
X026164Y005670D01*
X026351Y005670D01*
X026736Y006138D02*
X026923Y006138D01*
X026970Y006184D01*
X026970Y006278D01*
X026923Y006324D01*
X026830Y006414D02*
X026830Y006601D01*
X026970Y006554D02*
X026690Y006554D01*
X026830Y006414D01*
X026736Y006324D02*
X026690Y006278D01*
X026690Y006184D01*
X026736Y006138D01*
X025888Y005670D02*
X025888Y005390D01*
X016403Y003690D02*
X016216Y003690D01*
X016127Y003690D02*
X016033Y003783D01*
X016080Y003783D02*
X015940Y003783D01*
X015940Y003690D02*
X015940Y003970D01*
X016080Y003970D01*
X016127Y003924D01*
X016127Y003830D01*
X016080Y003783D01*
X016216Y003877D02*
X016310Y003970D01*
X016310Y003690D01*
X014311Y003207D02*
X014311Y003020D01*
X014311Y003113D02*
X014030Y003113D01*
X014124Y003020D01*
X014077Y002931D02*
X014030Y002884D01*
X014030Y002744D01*
X014311Y002744D01*
X014311Y002884D01*
X014264Y002931D01*
X014077Y002931D01*
X014030Y002654D02*
X014030Y002468D01*
X014311Y002468D01*
X014311Y002654D01*
X014170Y002561D02*
X014170Y002468D01*
X014311Y002378D02*
X014311Y002191D01*
X014030Y002191D01*
X005106Y013190D02*
X005106Y013470D01*
X004966Y013330D01*
X005153Y013330D01*
X004877Y013330D02*
X004830Y013283D01*
X004690Y013283D01*
X004690Y013190D02*
X004690Y013470D01*
X004830Y013470D01*
X004877Y013424D01*
X004877Y013330D01*
X004783Y013283D02*
X004877Y013190D01*
X003242Y020940D02*
X003242Y020987D01*
X003429Y021174D01*
X003429Y021220D01*
X003242Y021220D01*
X003060Y021220D02*
X003060Y020940D01*
X003153Y020940D02*
X002966Y020940D01*
X002877Y020940D02*
X002783Y021033D01*
X002830Y021033D02*
X002690Y021033D01*
X002690Y020940D02*
X002690Y021220D01*
X002830Y021220D01*
X002877Y021174D01*
X002877Y021080D01*
X002830Y021033D01*
X002966Y021127D02*
X003060Y021220D01*
X002153Y021940D02*
X002153Y022220D01*
X001966Y022220D02*
X002153Y021940D01*
X001966Y021940D02*
X001966Y022220D01*
X001877Y022174D02*
X001877Y021987D01*
X001830Y021940D01*
X001737Y021940D01*
X001690Y021987D01*
X001690Y022174D01*
X001737Y022220D01*
X001830Y022220D01*
X001877Y022174D01*
X004996Y022349D02*
X005276Y022349D01*
X005276Y022536D01*
X005276Y022626D02*
X005276Y022813D01*
X005276Y022902D02*
X005276Y023042D01*
X005230Y023089D01*
X005043Y023089D01*
X004996Y023042D01*
X004996Y022902D01*
X005276Y022902D01*
X005136Y022719D02*
X005136Y022626D01*
X004996Y022626D02*
X005276Y022626D01*
X004996Y022626D02*
X004996Y022813D01*
X005136Y023178D02*
X005136Y023318D01*
X005183Y023365D01*
X005230Y023365D01*
X005276Y023318D01*
X005276Y023225D01*
X005230Y023178D01*
X005136Y023178D01*
X005043Y023272D01*
X004996Y023365D01*
X006486Y021601D02*
X006533Y021601D01*
X006580Y021554D01*
X006580Y021460D01*
X006533Y021414D01*
X006486Y021414D01*
X006440Y021460D01*
X006440Y021554D01*
X006486Y021601D01*
X006580Y021554D02*
X006627Y021601D01*
X006673Y021601D01*
X006720Y021554D01*
X006720Y021460D01*
X006673Y021414D01*
X006627Y021414D01*
X006580Y021460D01*
X006580Y021324D02*
X006486Y021324D01*
X006440Y021278D01*
X006440Y021138D01*
X006720Y021138D01*
X006627Y021138D02*
X006627Y021278D01*
X006580Y021324D01*
X006627Y021231D02*
X006720Y021324D01*
X007440Y021278D02*
X007486Y021324D01*
X007580Y021324D01*
X007627Y021278D01*
X007627Y021138D01*
X007627Y021231D02*
X007720Y021324D01*
X007720Y021414D02*
X007673Y021414D01*
X007486Y021601D01*
X007440Y021601D01*
X007440Y021414D01*
X007440Y021278D02*
X007440Y021138D01*
X007720Y021138D01*
X003883Y026940D02*
X003789Y026940D01*
X003742Y026987D01*
X003742Y027033D01*
X003789Y027080D01*
X003883Y027080D01*
X003929Y027033D01*
X003929Y026987D01*
X003883Y026940D01*
X003883Y027080D02*
X003929Y027127D01*
X003929Y027174D01*
X003883Y027220D01*
X003789Y027220D01*
X003742Y027174D01*
X003742Y027127D01*
X003789Y027080D01*
X003746Y027099D02*
X004026Y027099D01*
X004026Y027286D01*
X004026Y027376D02*
X004026Y027563D01*
X004026Y027652D02*
X004026Y027792D01*
X003980Y027839D01*
X003793Y027839D01*
X003746Y027792D01*
X003746Y027652D01*
X004026Y027652D01*
X003886Y027469D02*
X003886Y027376D01*
X003746Y027376D02*
X004026Y027376D01*
X003746Y027376D02*
X003746Y027563D01*
X003746Y027928D02*
X003746Y028115D01*
X003793Y028115D01*
X003980Y027928D01*
X004026Y027928D01*
X003560Y027220D02*
X003560Y026940D01*
X003653Y026940D02*
X003466Y026940D01*
X003377Y026940D02*
X003283Y027033D01*
X003330Y027033D02*
X003190Y027033D01*
X003190Y026940D02*
X003190Y027220D01*
X003330Y027220D01*
X003377Y027174D01*
X003377Y027080D01*
X003330Y027033D01*
X003466Y027127D02*
X003560Y027220D01*
X002153Y026970D02*
X002153Y026690D01*
X001966Y026970D01*
X001966Y026690D01*
X001877Y026737D02*
X001877Y026924D01*
X001830Y026970D01*
X001737Y026970D01*
X001690Y026924D01*
X001690Y026737D01*
X001737Y026690D01*
X001830Y026690D01*
X001877Y026737D01*
X025940Y024351D02*
X025940Y024164D01*
X026080Y024164D01*
X026033Y024257D01*
X026033Y024304D01*
X026080Y024351D01*
X026173Y024351D01*
X026220Y024304D01*
X026220Y024210D01*
X026173Y024164D01*
X026220Y024074D02*
X026220Y023888D01*
X026220Y023798D02*
X026127Y023705D01*
X026127Y023751D02*
X026127Y023611D01*
X026220Y023611D02*
X025940Y023611D01*
X025940Y023751D01*
X025986Y023798D01*
X026080Y023798D01*
X026127Y023751D01*
X026033Y023888D02*
X025940Y023981D01*
X026220Y023981D01*
D11*
X026320Y025010D02*
X026320Y025350D01*
X026040Y025350D02*
X026040Y025010D01*
X026180Y028530D02*
X026180Y028830D01*
X026030Y028680D02*
X026330Y028680D01*
X025330Y029180D02*
X025130Y029180D01*
X025030Y029180D01*
X025030Y028730D01*
X024780Y028730D01*
X024780Y029630D01*
X025030Y029630D01*
X025030Y029180D01*
X022680Y029180D02*
X022682Y029269D01*
X022688Y029358D01*
X022698Y029447D01*
X022712Y029535D01*
X022729Y029622D01*
X022751Y029708D01*
X022777Y029794D01*
X022806Y029878D01*
X022839Y029961D01*
X022875Y030042D01*
X022916Y030122D01*
X022959Y030199D01*
X023006Y030275D01*
X023057Y030348D01*
X023110Y030419D01*
X023167Y030488D01*
X023227Y030554D01*
X023290Y030618D01*
X023355Y030678D01*
X023423Y030736D01*
X023494Y030790D01*
X023567Y030841D01*
X023642Y030889D01*
X023719Y030934D01*
X023798Y030975D01*
X023879Y031012D01*
X023961Y031046D01*
X024045Y031077D01*
X024130Y031103D01*
X024216Y031126D01*
X024303Y031144D01*
X024391Y031159D01*
X024480Y031170D01*
X024569Y031177D01*
X024658Y031180D01*
X024747Y031179D01*
X024836Y031174D01*
X024924Y031165D01*
X025013Y031152D01*
X025100Y031135D01*
X025187Y031115D01*
X025273Y031090D01*
X025357Y031062D01*
X025440Y031030D01*
X025522Y030994D01*
X025602Y030955D01*
X025680Y030912D01*
X025756Y030866D01*
X025830Y030816D01*
X025902Y030763D01*
X025971Y030707D01*
X026038Y030648D01*
X026102Y030586D01*
X026163Y030522D01*
X026222Y030454D01*
X026277Y030384D01*
X026329Y030312D01*
X026378Y030237D01*
X026423Y030161D01*
X026465Y030082D01*
X026503Y030002D01*
X026538Y029920D01*
X026569Y029836D01*
X026597Y029751D01*
X026620Y029665D01*
X026640Y029578D01*
X026656Y029491D01*
X026668Y029402D01*
X026676Y029314D01*
X026680Y029225D01*
X026680Y029135D01*
X026676Y029046D01*
X026668Y028958D01*
X026656Y028869D01*
X026640Y028782D01*
X026620Y028695D01*
X026597Y028609D01*
X026569Y028524D01*
X026538Y028440D01*
X026503Y028358D01*
X026465Y028278D01*
X026423Y028199D01*
X026378Y028123D01*
X026329Y028048D01*
X026277Y027976D01*
X026222Y027906D01*
X026163Y027838D01*
X026102Y027774D01*
X026038Y027712D01*
X025971Y027653D01*
X025902Y027597D01*
X025830Y027544D01*
X025756Y027494D01*
X025680Y027448D01*
X025602Y027405D01*
X025522Y027366D01*
X025440Y027330D01*
X025357Y027298D01*
X025273Y027270D01*
X025187Y027245D01*
X025100Y027225D01*
X025013Y027208D01*
X024924Y027195D01*
X024836Y027186D01*
X024747Y027181D01*
X024658Y027180D01*
X024569Y027183D01*
X024480Y027190D01*
X024391Y027201D01*
X024303Y027216D01*
X024216Y027234D01*
X024130Y027257D01*
X024045Y027283D01*
X023961Y027314D01*
X023879Y027348D01*
X023798Y027385D01*
X023719Y027426D01*
X023642Y027471D01*
X023567Y027519D01*
X023494Y027570D01*
X023423Y027624D01*
X023355Y027682D01*
X023290Y027742D01*
X023227Y027806D01*
X023167Y027872D01*
X023110Y027941D01*
X023057Y028012D01*
X023006Y028085D01*
X022959Y028161D01*
X022916Y028238D01*
X022875Y028318D01*
X022839Y028399D01*
X022806Y028482D01*
X022777Y028566D01*
X022751Y028652D01*
X022729Y028738D01*
X022712Y028825D01*
X022698Y028913D01*
X022688Y029002D01*
X022682Y029091D01*
X022680Y029180D01*
X024030Y029180D02*
X024230Y029180D01*
X024430Y029180D01*
X014600Y029242D02*
X014280Y028922D01*
X014386Y028815D02*
X013959Y029242D01*
X013959Y028815D02*
X014600Y028815D01*
X014493Y028598D02*
X014600Y028491D01*
X014600Y028278D01*
X014493Y028171D01*
X014066Y028171D01*
X013959Y028278D01*
X013959Y028491D01*
X014066Y028598D01*
X014173Y027953D02*
X014600Y027953D01*
X014280Y027953D02*
X014280Y027526D01*
X014173Y027526D02*
X013959Y027740D01*
X014173Y027953D01*
X014173Y027526D02*
X014600Y027526D01*
X014493Y027202D02*
X013959Y027202D01*
X013959Y027095D02*
X013959Y027309D01*
X014493Y027202D02*
X014600Y027095D01*
X014600Y026989D01*
X014493Y026882D01*
X013930Y024180D02*
X013430Y024180D01*
X013180Y023930D01*
X012930Y024180D01*
X012430Y024180D01*
X012180Y023930D01*
X011930Y024180D01*
X011430Y024180D01*
X011180Y023930D01*
X010930Y024180D01*
X010430Y024180D01*
X010180Y023930D01*
X009930Y024180D01*
X009430Y024180D01*
X009180Y023930D01*
X008930Y024180D01*
X008430Y024180D01*
X008180Y023930D01*
X007930Y024180D01*
X007430Y024180D01*
X007180Y023930D01*
X006930Y024180D01*
X006430Y024180D01*
X006180Y023930D01*
X006180Y023430D01*
X006430Y023180D01*
X006930Y023180D01*
X007180Y023430D01*
X007430Y023180D01*
X007930Y023180D01*
X008180Y023430D01*
X008430Y023180D01*
X008930Y023180D01*
X009180Y023430D01*
X009430Y023180D01*
X009930Y023180D01*
X010180Y023430D01*
X010430Y023180D01*
X010930Y023180D01*
X011180Y023430D01*
X011430Y023180D01*
X011930Y023180D01*
X012180Y023430D01*
X012430Y023180D01*
X012930Y023180D01*
X013180Y023430D01*
X013430Y023180D01*
X013930Y023180D01*
X014180Y023430D01*
X014180Y023930D01*
X013930Y024180D01*
X012430Y020680D02*
X011930Y020680D01*
X011680Y020430D01*
X011680Y019930D01*
X011930Y019680D01*
X011680Y019430D01*
X011680Y018930D01*
X011930Y018680D01*
X012430Y018680D01*
X012680Y018930D01*
X012680Y019430D01*
X012430Y019680D01*
X011930Y019680D01*
X012430Y019680D02*
X012680Y019930D01*
X012680Y020430D01*
X012430Y020680D01*
X014067Y016601D02*
X013960Y016494D01*
X013960Y016067D01*
X014067Y015960D01*
X014280Y015960D01*
X014387Y016067D01*
X014387Y016494D01*
X014280Y016601D01*
X014067Y016601D01*
X014605Y016601D02*
X014605Y016067D01*
X014711Y015960D01*
X014925Y015960D01*
X015032Y016067D01*
X015032Y016601D01*
X015249Y016601D02*
X015676Y016601D01*
X015463Y016601D02*
X015463Y015960D01*
X015430Y015680D02*
X015930Y015680D01*
X016180Y015430D01*
X016180Y013930D01*
X015930Y013680D01*
X015430Y013680D01*
X015180Y013930D01*
X015180Y015430D01*
X014930Y015680D01*
X014430Y015680D01*
X014180Y015430D01*
X013930Y015680D01*
X013430Y015680D01*
X013180Y015430D01*
X013180Y013930D01*
X013430Y013680D01*
X013930Y013680D01*
X014180Y013930D01*
X014180Y015430D01*
X015180Y015430D02*
X015430Y015680D01*
X016180Y015430D02*
X016430Y015680D01*
X016930Y015680D01*
X017180Y015430D01*
X017180Y013930D01*
X016930Y013680D01*
X016430Y013680D01*
X016180Y013930D01*
X017180Y013930D02*
X017430Y013680D01*
X017930Y013680D01*
X018180Y013930D01*
X018180Y015430D01*
X017930Y015680D01*
X017430Y015680D01*
X017180Y015430D01*
X017140Y015960D02*
X017140Y016601D01*
X017567Y015960D01*
X017567Y016601D01*
X016924Y016601D02*
X016710Y016601D01*
X016817Y016601D02*
X016817Y015960D01*
X016710Y015960D02*
X016924Y015960D01*
X015180Y013930D02*
X014930Y013680D01*
X014430Y013680D01*
X014180Y013930D01*
X012430Y012180D02*
X012680Y011930D01*
X012680Y011430D01*
X012430Y011180D01*
X012680Y010930D01*
X012680Y010430D01*
X012430Y010180D01*
X011930Y010180D01*
X011680Y010430D01*
X011680Y010930D01*
X011930Y011180D01*
X011680Y011430D01*
X011680Y011930D01*
X011930Y012180D01*
X012430Y012180D01*
X012430Y011180D02*
X011930Y011180D01*
X007650Y012317D02*
X007543Y012210D01*
X007650Y012317D02*
X007650Y012530D01*
X007543Y012637D01*
X007436Y012637D01*
X007330Y012530D01*
X007330Y012317D01*
X007223Y012210D01*
X007116Y012210D01*
X007009Y012317D01*
X007009Y012530D01*
X007116Y012637D01*
X007330Y012855D02*
X007543Y012855D01*
X007650Y012961D01*
X007650Y013175D01*
X007543Y013282D01*
X007330Y013282D01*
X007223Y013175D01*
X007223Y012961D01*
X007330Y012855D01*
X007223Y013499D02*
X007543Y013499D01*
X007650Y013606D01*
X007650Y013926D01*
X007223Y013926D01*
X007223Y014144D02*
X007223Y014464D01*
X007330Y014571D01*
X007650Y014571D01*
X007543Y014788D02*
X007330Y014788D01*
X007223Y014895D01*
X007223Y015215D01*
X007009Y015215D02*
X007650Y015215D01*
X007650Y014895D01*
X007543Y014788D01*
X007650Y014144D02*
X007223Y014144D01*
X005680Y013930D02*
X005430Y013680D01*
X004930Y013680D01*
X004680Y013930D01*
X004680Y014430D01*
X004930Y014680D01*
X004680Y014930D01*
X004680Y015430D01*
X004930Y015680D01*
X004680Y015930D01*
X004680Y016430D01*
X004930Y016680D01*
X004680Y016930D01*
X004680Y017430D01*
X004930Y017680D01*
X004680Y017930D01*
X004680Y018430D01*
X004930Y018680D01*
X004680Y018930D01*
X004680Y019430D01*
X004930Y019680D01*
X004680Y019930D01*
X004680Y020430D01*
X004930Y020680D01*
X005430Y020680D01*
X005680Y020430D01*
X005680Y019930D01*
X005430Y019680D01*
X005680Y019430D01*
X005680Y018930D01*
X005430Y018680D01*
X004930Y018680D01*
X005430Y018680D02*
X005680Y018430D01*
X005680Y017930D01*
X005430Y017680D01*
X005680Y017430D01*
X005680Y016930D01*
X005430Y016680D01*
X005680Y016430D01*
X005680Y015930D01*
X005430Y015680D01*
X004930Y015680D01*
X005430Y015680D02*
X005680Y015430D01*
X005680Y014930D01*
X005430Y014680D01*
X005680Y014430D01*
X005680Y013930D01*
X005430Y014680D02*
X004930Y014680D01*
X004320Y013850D02*
X004320Y013510D01*
X004040Y013510D02*
X004040Y013850D01*
X002880Y015330D02*
X002880Y015580D01*
X001980Y015580D01*
X001980Y015330D01*
X002430Y015330D01*
X002880Y015330D01*
X002430Y015330D02*
X002430Y015230D01*
X002430Y015030D01*
X000430Y015680D02*
X000432Y015769D01*
X000438Y015858D01*
X000448Y015947D01*
X000462Y016035D01*
X000479Y016122D01*
X000501Y016208D01*
X000527Y016294D01*
X000556Y016378D01*
X000589Y016461D01*
X000625Y016542D01*
X000666Y016622D01*
X000709Y016699D01*
X000756Y016775D01*
X000807Y016848D01*
X000860Y016919D01*
X000917Y016988D01*
X000977Y017054D01*
X001040Y017118D01*
X001105Y017178D01*
X001173Y017236D01*
X001244Y017290D01*
X001317Y017341D01*
X001392Y017389D01*
X001469Y017434D01*
X001548Y017475D01*
X001629Y017512D01*
X001711Y017546D01*
X001795Y017577D01*
X001880Y017603D01*
X001966Y017626D01*
X002053Y017644D01*
X002141Y017659D01*
X002230Y017670D01*
X002319Y017677D01*
X002408Y017680D01*
X002497Y017679D01*
X002586Y017674D01*
X002674Y017665D01*
X002763Y017652D01*
X002850Y017635D01*
X002937Y017615D01*
X003023Y017590D01*
X003107Y017562D01*
X003190Y017530D01*
X003272Y017494D01*
X003352Y017455D01*
X003430Y017412D01*
X003506Y017366D01*
X003580Y017316D01*
X003652Y017263D01*
X003721Y017207D01*
X003788Y017148D01*
X003852Y017086D01*
X003913Y017022D01*
X003972Y016954D01*
X004027Y016884D01*
X004079Y016812D01*
X004128Y016737D01*
X004173Y016661D01*
X004215Y016582D01*
X004253Y016502D01*
X004288Y016420D01*
X004319Y016336D01*
X004347Y016251D01*
X004370Y016165D01*
X004390Y016078D01*
X004406Y015991D01*
X004418Y015902D01*
X004426Y015814D01*
X004430Y015725D01*
X004430Y015635D01*
X004426Y015546D01*
X004418Y015458D01*
X004406Y015369D01*
X004390Y015282D01*
X004370Y015195D01*
X004347Y015109D01*
X004319Y015024D01*
X004288Y014940D01*
X004253Y014858D01*
X004215Y014778D01*
X004173Y014699D01*
X004128Y014623D01*
X004079Y014548D01*
X004027Y014476D01*
X003972Y014406D01*
X003913Y014338D01*
X003852Y014274D01*
X003788Y014212D01*
X003721Y014153D01*
X003652Y014097D01*
X003580Y014044D01*
X003506Y013994D01*
X003430Y013948D01*
X003352Y013905D01*
X003272Y013866D01*
X003190Y013830D01*
X003107Y013798D01*
X003023Y013770D01*
X002937Y013745D01*
X002850Y013725D01*
X002763Y013708D01*
X002674Y013695D01*
X002586Y013686D01*
X002497Y013681D01*
X002408Y013680D01*
X002319Y013683D01*
X002230Y013690D01*
X002141Y013701D01*
X002053Y013716D01*
X001966Y013734D01*
X001880Y013757D01*
X001795Y013783D01*
X001711Y013814D01*
X001629Y013848D01*
X001548Y013885D01*
X001469Y013926D01*
X001392Y013971D01*
X001317Y014019D01*
X001244Y014070D01*
X001173Y014124D01*
X001105Y014182D01*
X001040Y014242D01*
X000977Y014306D01*
X000917Y014372D01*
X000860Y014441D01*
X000807Y014512D01*
X000756Y014585D01*
X000709Y014661D01*
X000666Y014738D01*
X000625Y014818D01*
X000589Y014899D01*
X000556Y014982D01*
X000527Y015066D01*
X000501Y015152D01*
X000479Y015238D01*
X000462Y015325D01*
X000448Y015413D01*
X000438Y015502D01*
X000432Y015591D01*
X000430Y015680D01*
X001780Y014180D02*
X002080Y014180D01*
X001930Y014330D02*
X001930Y014030D01*
X002430Y015930D02*
X002430Y016130D01*
X002430Y016330D01*
X004930Y016680D02*
X005430Y016680D01*
X005430Y017680D02*
X004930Y017680D01*
X004930Y019680D02*
X005430Y019680D01*
X007009Y018762D02*
X007650Y018762D01*
X007650Y018655D02*
X007650Y018869D01*
X007543Y019085D02*
X007330Y019085D01*
X007223Y019192D01*
X007223Y019405D01*
X007330Y019512D01*
X007436Y019512D01*
X007436Y019085D01*
X007543Y019085D02*
X007650Y019192D01*
X007650Y019405D01*
X007009Y018762D02*
X007009Y018655D01*
X007223Y018438D02*
X007650Y018438D01*
X007650Y018118D01*
X007543Y018011D01*
X007223Y018011D01*
X007223Y017793D02*
X007223Y017473D01*
X007330Y017366D01*
X007543Y017366D01*
X007650Y017473D01*
X007650Y017793D01*
X007009Y017793D01*
X007330Y017149D02*
X007223Y017042D01*
X007223Y016829D01*
X007330Y016722D01*
X007543Y016722D01*
X007650Y016829D01*
X007650Y017042D01*
X007543Y017149D01*
X007330Y017149D01*
X007009Y016504D02*
X007650Y016504D01*
X007650Y016077D02*
X007009Y016077D01*
X007223Y016291D01*
X007009Y016504D01*
X005430Y012180D02*
X004930Y012180D01*
X004680Y011930D01*
X004680Y011430D01*
X004930Y011180D01*
X004680Y010930D01*
X004680Y010430D01*
X004930Y010180D01*
X005430Y010180D01*
X005680Y010430D01*
X005680Y010930D01*
X005430Y011180D01*
X004930Y011180D01*
X005430Y011180D02*
X005680Y011430D01*
X005680Y011930D01*
X005430Y012180D01*
X005430Y010180D02*
X005680Y009930D01*
X005680Y009430D01*
X005430Y009180D01*
X005680Y008930D01*
X005680Y008430D01*
X005430Y008180D01*
X005680Y007930D01*
X005680Y007430D01*
X005430Y007180D01*
X004930Y007180D01*
X004680Y007430D01*
X004680Y007930D01*
X004930Y008180D01*
X004680Y008430D01*
X004680Y008930D01*
X004930Y009180D01*
X004680Y009430D01*
X004680Y009930D01*
X004930Y010180D01*
X004930Y009180D02*
X005430Y009180D01*
X005430Y008180D02*
X004930Y008180D01*
X004930Y007180D02*
X004680Y006930D01*
X004680Y006430D01*
X004930Y006180D01*
X004680Y005930D01*
X004680Y005430D01*
X004930Y005180D01*
X005430Y005180D01*
X005680Y005430D01*
X005680Y005930D01*
X005430Y006180D01*
X004930Y006180D01*
X005430Y006180D02*
X005680Y006430D01*
X005680Y006930D01*
X005430Y007180D01*
X004320Y005350D02*
X004320Y005010D01*
X004040Y005010D02*
X004040Y005350D01*
X004180Y003930D02*
X003930Y003680D01*
X003930Y003180D01*
X004180Y002930D01*
X003930Y002680D01*
X003930Y002180D01*
X004180Y001930D01*
X003930Y001680D01*
X003930Y001180D01*
X004180Y000930D01*
X004680Y000930D01*
X004930Y001180D01*
X004930Y001680D01*
X004680Y001930D01*
X004180Y001930D01*
X004680Y001930D02*
X004930Y002180D01*
X004930Y002680D01*
X004680Y002930D01*
X004180Y002930D01*
X004680Y002930D02*
X004930Y003180D01*
X004930Y003680D01*
X004680Y003930D01*
X004180Y003930D01*
X005680Y003930D02*
X005680Y003830D01*
X013680Y003830D01*
X013680Y001230D01*
X013030Y001230D01*
X012330Y001230D01*
X011030Y001230D01*
X010330Y001230D01*
X009680Y001230D01*
X009680Y003930D01*
X005680Y003930D01*
X005680Y003830D02*
X005680Y001230D01*
X006330Y001230D01*
X007030Y001230D01*
X008330Y001230D01*
X009030Y001230D01*
X009680Y001230D01*
X008090Y001930D02*
X008092Y001978D01*
X008098Y002026D01*
X008108Y002073D01*
X008121Y002119D01*
X008138Y002164D01*
X008159Y002207D01*
X008184Y002249D01*
X008211Y002288D01*
X008242Y002325D01*
X008276Y002360D01*
X008312Y002391D01*
X008351Y002420D01*
X008392Y002445D01*
X008435Y002467D01*
X008479Y002485D01*
X008525Y002499D01*
X008572Y002510D01*
X008620Y002517D01*
X008668Y002520D01*
X008716Y002519D01*
X008764Y002514D01*
X008811Y002505D01*
X008858Y002493D01*
X008903Y002476D01*
X008947Y002456D01*
X008989Y002433D01*
X009029Y002406D01*
X009066Y002376D01*
X009101Y002343D01*
X009134Y002307D01*
X009163Y002269D01*
X009189Y002228D01*
X009212Y002186D01*
X009231Y002142D01*
X009246Y002096D01*
X009258Y002050D01*
X009266Y002002D01*
X009270Y001954D01*
X009270Y001906D01*
X009266Y001858D01*
X009258Y001810D01*
X009246Y001764D01*
X009231Y001718D01*
X009212Y001674D01*
X009189Y001632D01*
X009163Y001591D01*
X009134Y001553D01*
X009101Y001517D01*
X009066Y001484D01*
X009029Y001454D01*
X008989Y001427D01*
X008947Y001404D01*
X008903Y001384D01*
X008858Y001367D01*
X008811Y001355D01*
X008764Y001346D01*
X008716Y001341D01*
X008668Y001340D01*
X008620Y001343D01*
X008572Y001350D01*
X008525Y001361D01*
X008479Y001375D01*
X008435Y001393D01*
X008392Y001415D01*
X008351Y001440D01*
X008312Y001469D01*
X008276Y001500D01*
X008242Y001535D01*
X008211Y001572D01*
X008184Y001611D01*
X008159Y001653D01*
X008138Y001696D01*
X008121Y001741D01*
X008108Y001787D01*
X008098Y001834D01*
X008092Y001882D01*
X008090Y001930D01*
X006090Y001930D02*
X006092Y001978D01*
X006098Y002026D01*
X006108Y002073D01*
X006121Y002119D01*
X006138Y002164D01*
X006159Y002207D01*
X006184Y002249D01*
X006211Y002288D01*
X006242Y002325D01*
X006276Y002360D01*
X006312Y002391D01*
X006351Y002420D01*
X006392Y002445D01*
X006435Y002467D01*
X006479Y002485D01*
X006525Y002499D01*
X006572Y002510D01*
X006620Y002517D01*
X006668Y002520D01*
X006716Y002519D01*
X006764Y002514D01*
X006811Y002505D01*
X006858Y002493D01*
X006903Y002476D01*
X006947Y002456D01*
X006989Y002433D01*
X007029Y002406D01*
X007066Y002376D01*
X007101Y002343D01*
X007134Y002307D01*
X007163Y002269D01*
X007189Y002228D01*
X007212Y002186D01*
X007231Y002142D01*
X007246Y002096D01*
X007258Y002050D01*
X007266Y002002D01*
X007270Y001954D01*
X007270Y001906D01*
X007266Y001858D01*
X007258Y001810D01*
X007246Y001764D01*
X007231Y001718D01*
X007212Y001674D01*
X007189Y001632D01*
X007163Y001591D01*
X007134Y001553D01*
X007101Y001517D01*
X007066Y001484D01*
X007029Y001454D01*
X006989Y001427D01*
X006947Y001404D01*
X006903Y001384D01*
X006858Y001367D01*
X006811Y001355D01*
X006764Y001346D01*
X006716Y001341D01*
X006668Y001340D01*
X006620Y001343D01*
X006572Y001350D01*
X006525Y001361D01*
X006479Y001375D01*
X006435Y001393D01*
X006392Y001415D01*
X006351Y001440D01*
X006312Y001469D01*
X006276Y001500D01*
X006242Y001535D01*
X006211Y001572D01*
X006184Y001611D01*
X006159Y001653D01*
X006138Y001696D01*
X006121Y001741D01*
X006108Y001787D01*
X006098Y001834D01*
X006092Y001882D01*
X006090Y001930D01*
X005680Y001230D02*
X005680Y000280D01*
X013680Y000280D01*
X013680Y001230D01*
X012090Y001930D02*
X012092Y001978D01*
X012098Y002026D01*
X012108Y002073D01*
X012121Y002119D01*
X012138Y002164D01*
X012159Y002207D01*
X012184Y002249D01*
X012211Y002288D01*
X012242Y002325D01*
X012276Y002360D01*
X012312Y002391D01*
X012351Y002420D01*
X012392Y002445D01*
X012435Y002467D01*
X012479Y002485D01*
X012525Y002499D01*
X012572Y002510D01*
X012620Y002517D01*
X012668Y002520D01*
X012716Y002519D01*
X012764Y002514D01*
X012811Y002505D01*
X012858Y002493D01*
X012903Y002476D01*
X012947Y002456D01*
X012989Y002433D01*
X013029Y002406D01*
X013066Y002376D01*
X013101Y002343D01*
X013134Y002307D01*
X013163Y002269D01*
X013189Y002228D01*
X013212Y002186D01*
X013231Y002142D01*
X013246Y002096D01*
X013258Y002050D01*
X013266Y002002D01*
X013270Y001954D01*
X013270Y001906D01*
X013266Y001858D01*
X013258Y001810D01*
X013246Y001764D01*
X013231Y001718D01*
X013212Y001674D01*
X013189Y001632D01*
X013163Y001591D01*
X013134Y001553D01*
X013101Y001517D01*
X013066Y001484D01*
X013029Y001454D01*
X012989Y001427D01*
X012947Y001404D01*
X012903Y001384D01*
X012858Y001367D01*
X012811Y001355D01*
X012764Y001346D01*
X012716Y001341D01*
X012668Y001340D01*
X012620Y001343D01*
X012572Y001350D01*
X012525Y001361D01*
X012479Y001375D01*
X012435Y001393D01*
X012392Y001415D01*
X012351Y001440D01*
X012312Y001469D01*
X012276Y001500D01*
X012242Y001535D01*
X012211Y001572D01*
X012184Y001611D01*
X012159Y001653D01*
X012138Y001696D01*
X012121Y001741D01*
X012108Y001787D01*
X012098Y001834D01*
X012092Y001882D01*
X012090Y001930D01*
X010090Y001930D02*
X010092Y001978D01*
X010098Y002026D01*
X010108Y002073D01*
X010121Y002119D01*
X010138Y002164D01*
X010159Y002207D01*
X010184Y002249D01*
X010211Y002288D01*
X010242Y002325D01*
X010276Y002360D01*
X010312Y002391D01*
X010351Y002420D01*
X010392Y002445D01*
X010435Y002467D01*
X010479Y002485D01*
X010525Y002499D01*
X010572Y002510D01*
X010620Y002517D01*
X010668Y002520D01*
X010716Y002519D01*
X010764Y002514D01*
X010811Y002505D01*
X010858Y002493D01*
X010903Y002476D01*
X010947Y002456D01*
X010989Y002433D01*
X011029Y002406D01*
X011066Y002376D01*
X011101Y002343D01*
X011134Y002307D01*
X011163Y002269D01*
X011189Y002228D01*
X011212Y002186D01*
X011231Y002142D01*
X011246Y002096D01*
X011258Y002050D01*
X011266Y002002D01*
X011270Y001954D01*
X011270Y001906D01*
X011266Y001858D01*
X011258Y001810D01*
X011246Y001764D01*
X011231Y001718D01*
X011212Y001674D01*
X011189Y001632D01*
X011163Y001591D01*
X011134Y001553D01*
X011101Y001517D01*
X011066Y001484D01*
X011029Y001454D01*
X010989Y001427D01*
X010947Y001404D01*
X010903Y001384D01*
X010858Y001367D01*
X010811Y001355D01*
X010764Y001346D01*
X010716Y001341D01*
X010668Y001340D01*
X010620Y001343D01*
X010572Y001350D01*
X010525Y001361D01*
X010479Y001375D01*
X010435Y001393D01*
X010392Y001415D01*
X010351Y001440D01*
X010312Y001469D01*
X010276Y001500D01*
X010242Y001535D01*
X010211Y001572D01*
X010184Y001611D01*
X010159Y001653D01*
X010138Y001696D01*
X010121Y001741D01*
X010108Y001787D01*
X010098Y001834D01*
X010092Y001882D01*
X010090Y001930D01*
X010480Y003300D02*
X010482Y003328D01*
X010488Y003355D01*
X010497Y003381D01*
X010510Y003406D01*
X010527Y003429D01*
X010546Y003449D01*
X010568Y003466D01*
X010592Y003480D01*
X010618Y003490D01*
X010645Y003497D01*
X010673Y003500D01*
X010701Y003499D01*
X010728Y003494D01*
X010755Y003485D01*
X010780Y003473D01*
X010803Y003458D01*
X010824Y003439D01*
X010842Y003418D01*
X010857Y003394D01*
X010868Y003368D01*
X010876Y003342D01*
X010880Y003314D01*
X010880Y003286D01*
X010876Y003258D01*
X010868Y003232D01*
X010857Y003206D01*
X010842Y003182D01*
X010824Y003161D01*
X010803Y003142D01*
X010780Y003127D01*
X010755Y003115D01*
X010728Y003106D01*
X010701Y003101D01*
X010673Y003100D01*
X010645Y003103D01*
X010618Y003110D01*
X010592Y003120D01*
X010568Y003134D01*
X010546Y003151D01*
X010527Y003171D01*
X010510Y003194D01*
X010497Y003219D01*
X010488Y003245D01*
X010482Y003272D01*
X010480Y003300D01*
X009680Y003930D02*
X013680Y003930D01*
X013680Y003830D01*
X012480Y003300D02*
X012482Y003328D01*
X012488Y003355D01*
X012497Y003381D01*
X012510Y003406D01*
X012527Y003429D01*
X012546Y003449D01*
X012568Y003466D01*
X012592Y003480D01*
X012618Y003490D01*
X012645Y003497D01*
X012673Y003500D01*
X012701Y003499D01*
X012728Y003494D01*
X012755Y003485D01*
X012780Y003473D01*
X012803Y003458D01*
X012824Y003439D01*
X012842Y003418D01*
X012857Y003394D01*
X012868Y003368D01*
X012876Y003342D01*
X012880Y003314D01*
X012880Y003286D01*
X012876Y003258D01*
X012868Y003232D01*
X012857Y003206D01*
X012842Y003182D01*
X012824Y003161D01*
X012803Y003142D01*
X012780Y003127D01*
X012755Y003115D01*
X012728Y003106D01*
X012701Y003101D01*
X012673Y003100D01*
X012645Y003103D01*
X012618Y003110D01*
X012592Y003120D01*
X012568Y003134D01*
X012546Y003151D01*
X012527Y003171D01*
X012510Y003194D01*
X012497Y003219D01*
X012488Y003245D01*
X012482Y003272D01*
X012480Y003300D01*
X013010Y005040D02*
X013350Y005040D01*
X013350Y005320D02*
X013010Y005320D01*
X015010Y003570D02*
X015350Y003570D01*
X015350Y003290D02*
X015010Y003290D01*
X016680Y002780D02*
X020680Y002780D01*
X020680Y000580D01*
X016680Y000580D01*
X016680Y002780D01*
X018180Y001680D02*
X018680Y001680D01*
X018680Y001430D01*
X018830Y001430D01*
X018830Y001500D01*
X018680Y001680D02*
X018680Y001930D01*
X018530Y001930D01*
X018530Y001860D01*
X018680Y001680D02*
X019580Y001680D01*
X019130Y001450D02*
X018680Y001680D01*
X019130Y001910D01*
X019130Y001450D01*
X017350Y005040D02*
X017010Y005040D01*
X017010Y005320D02*
X017350Y005320D01*
X021010Y005320D02*
X021350Y005320D01*
X021350Y005040D02*
X021010Y005040D01*
X024230Y002530D02*
X024230Y002280D01*
X025130Y002280D01*
X025130Y002530D01*
X024680Y002530D01*
X024230Y002530D01*
X024680Y002530D02*
X024680Y002630D01*
X024680Y002830D01*
X022680Y002180D02*
X022682Y002269D01*
X022688Y002358D01*
X022698Y002447D01*
X022712Y002535D01*
X022729Y002622D01*
X022751Y002708D01*
X022777Y002794D01*
X022806Y002878D01*
X022839Y002961D01*
X022875Y003042D01*
X022916Y003122D01*
X022959Y003199D01*
X023006Y003275D01*
X023057Y003348D01*
X023110Y003419D01*
X023167Y003488D01*
X023227Y003554D01*
X023290Y003618D01*
X023355Y003678D01*
X023423Y003736D01*
X023494Y003790D01*
X023567Y003841D01*
X023642Y003889D01*
X023719Y003934D01*
X023798Y003975D01*
X023879Y004012D01*
X023961Y004046D01*
X024045Y004077D01*
X024130Y004103D01*
X024216Y004126D01*
X024303Y004144D01*
X024391Y004159D01*
X024480Y004170D01*
X024569Y004177D01*
X024658Y004180D01*
X024747Y004179D01*
X024836Y004174D01*
X024924Y004165D01*
X025013Y004152D01*
X025100Y004135D01*
X025187Y004115D01*
X025273Y004090D01*
X025357Y004062D01*
X025440Y004030D01*
X025522Y003994D01*
X025602Y003955D01*
X025680Y003912D01*
X025756Y003866D01*
X025830Y003816D01*
X025902Y003763D01*
X025971Y003707D01*
X026038Y003648D01*
X026102Y003586D01*
X026163Y003522D01*
X026222Y003454D01*
X026277Y003384D01*
X026329Y003312D01*
X026378Y003237D01*
X026423Y003161D01*
X026465Y003082D01*
X026503Y003002D01*
X026538Y002920D01*
X026569Y002836D01*
X026597Y002751D01*
X026620Y002665D01*
X026640Y002578D01*
X026656Y002491D01*
X026668Y002402D01*
X026676Y002314D01*
X026680Y002225D01*
X026680Y002135D01*
X026676Y002046D01*
X026668Y001958D01*
X026656Y001869D01*
X026640Y001782D01*
X026620Y001695D01*
X026597Y001609D01*
X026569Y001524D01*
X026538Y001440D01*
X026503Y001358D01*
X026465Y001278D01*
X026423Y001199D01*
X026378Y001123D01*
X026329Y001048D01*
X026277Y000976D01*
X026222Y000906D01*
X026163Y000838D01*
X026102Y000774D01*
X026038Y000712D01*
X025971Y000653D01*
X025902Y000597D01*
X025830Y000544D01*
X025756Y000494D01*
X025680Y000448D01*
X025602Y000405D01*
X025522Y000366D01*
X025440Y000330D01*
X025357Y000298D01*
X025273Y000270D01*
X025187Y000245D01*
X025100Y000225D01*
X025013Y000208D01*
X024924Y000195D01*
X024836Y000186D01*
X024747Y000181D01*
X024658Y000180D01*
X024569Y000183D01*
X024480Y000190D01*
X024391Y000201D01*
X024303Y000216D01*
X024216Y000234D01*
X024130Y000257D01*
X024045Y000283D01*
X023961Y000314D01*
X023879Y000348D01*
X023798Y000385D01*
X023719Y000426D01*
X023642Y000471D01*
X023567Y000519D01*
X023494Y000570D01*
X023423Y000624D01*
X023355Y000682D01*
X023290Y000742D01*
X023227Y000806D01*
X023167Y000872D01*
X023110Y000941D01*
X023057Y001012D01*
X023006Y001085D01*
X022959Y001161D01*
X022916Y001238D01*
X022875Y001318D01*
X022839Y001399D01*
X022806Y001482D01*
X022777Y001566D01*
X022751Y001652D01*
X022729Y001738D01*
X022712Y001825D01*
X022698Y001913D01*
X022688Y002002D01*
X022682Y002091D01*
X022680Y002180D01*
X024680Y001930D02*
X024680Y001730D01*
X024680Y001530D01*
X025180Y003530D02*
X025180Y003830D01*
X025330Y003680D02*
X025030Y003680D01*
X025010Y005040D02*
X025350Y005040D01*
X025350Y005320D02*
X025010Y005320D01*
X021930Y012430D02*
X021430Y012430D01*
X021180Y012680D01*
X020930Y012430D01*
X020430Y012430D01*
X020180Y012680D01*
X019930Y012430D01*
X019430Y012430D01*
X019180Y012680D01*
X019180Y013180D01*
X019430Y013430D01*
X019930Y013430D01*
X020180Y013180D01*
X020430Y013430D01*
X020930Y013430D01*
X021180Y013180D01*
X021430Y013430D01*
X021930Y013430D01*
X022180Y013180D01*
X022180Y012680D01*
X021930Y012430D01*
X021180Y012680D02*
X021180Y013180D01*
X020930Y013930D02*
X020430Y013930D01*
X020180Y014180D01*
X019930Y013930D01*
X019430Y013930D01*
X019180Y014180D01*
X019180Y014680D01*
X019430Y014930D01*
X019930Y014930D01*
X020180Y014680D01*
X020430Y014930D01*
X020930Y014930D01*
X021180Y014680D01*
X021430Y014930D01*
X021930Y014930D01*
X022180Y014680D01*
X022180Y014180D01*
X021930Y013930D01*
X021430Y013930D01*
X021180Y014180D01*
X020930Y013930D01*
X021180Y014180D02*
X021180Y014680D01*
X020930Y015430D02*
X020430Y015430D01*
X020180Y015680D01*
X019930Y015430D01*
X019430Y015430D01*
X019180Y015680D01*
X019180Y016180D01*
X019430Y016430D01*
X019930Y016430D01*
X020180Y016180D01*
X020430Y016430D01*
X020930Y016430D01*
X021180Y016180D01*
X021430Y016430D01*
X021930Y016430D01*
X022180Y016180D01*
X022180Y015680D01*
X021930Y015430D01*
X021430Y015430D01*
X021180Y015680D01*
X020930Y015430D01*
X021180Y015680D02*
X021180Y016180D01*
X020887Y016780D02*
X020460Y016780D01*
X019887Y016780D02*
X019460Y016780D01*
X019674Y016567D02*
X019674Y016994D01*
X020180Y016180D02*
X020180Y015680D01*
X020180Y014680D02*
X020180Y014180D01*
X020180Y013180D02*
X020180Y012680D01*
X008480Y003300D02*
X008482Y003328D01*
X008488Y003355D01*
X008497Y003381D01*
X008510Y003406D01*
X008527Y003429D01*
X008546Y003449D01*
X008568Y003466D01*
X008592Y003480D01*
X008618Y003490D01*
X008645Y003497D01*
X008673Y003500D01*
X008701Y003499D01*
X008728Y003494D01*
X008755Y003485D01*
X008780Y003473D01*
X008803Y003458D01*
X008824Y003439D01*
X008842Y003418D01*
X008857Y003394D01*
X008868Y003368D01*
X008876Y003342D01*
X008880Y003314D01*
X008880Y003286D01*
X008876Y003258D01*
X008868Y003232D01*
X008857Y003206D01*
X008842Y003182D01*
X008824Y003161D01*
X008803Y003142D01*
X008780Y003127D01*
X008755Y003115D01*
X008728Y003106D01*
X008701Y003101D01*
X008673Y003100D01*
X008645Y003103D01*
X008618Y003110D01*
X008592Y003120D01*
X008568Y003134D01*
X008546Y003151D01*
X008527Y003171D01*
X008510Y003194D01*
X008497Y003219D01*
X008488Y003245D01*
X008482Y003272D01*
X008480Y003300D01*
X006480Y003300D02*
X006482Y003328D01*
X006488Y003355D01*
X006497Y003381D01*
X006510Y003406D01*
X006527Y003429D01*
X006546Y003449D01*
X006568Y003466D01*
X006592Y003480D01*
X006618Y003490D01*
X006645Y003497D01*
X006673Y003500D01*
X006701Y003499D01*
X006728Y003494D01*
X006755Y003485D01*
X006780Y003473D01*
X006803Y003458D01*
X006824Y003439D01*
X006842Y003418D01*
X006857Y003394D01*
X006868Y003368D01*
X006876Y003342D01*
X006880Y003314D01*
X006880Y003286D01*
X006876Y003258D01*
X006868Y003232D01*
X006857Y003206D01*
X006842Y003182D01*
X006824Y003161D01*
X006803Y003142D01*
X006780Y003127D01*
X006755Y003115D01*
X006728Y003106D01*
X006701Y003101D01*
X006673Y003100D01*
X006645Y003103D01*
X006618Y003110D01*
X006592Y003120D01*
X006568Y003134D01*
X006546Y003151D01*
X006527Y003171D01*
X006510Y003194D01*
X006497Y003219D01*
X006488Y003245D01*
X006482Y003272D01*
X006480Y003300D01*
X002880Y006830D02*
X002880Y007080D01*
X001980Y007080D01*
X001980Y006830D01*
X002430Y006830D01*
X002880Y006830D01*
X002430Y006830D02*
X002430Y006730D01*
X002430Y006530D01*
X000430Y007180D02*
X000432Y007269D01*
X000438Y007358D01*
X000448Y007447D01*
X000462Y007535D01*
X000479Y007622D01*
X000501Y007708D01*
X000527Y007794D01*
X000556Y007878D01*
X000589Y007961D01*
X000625Y008042D01*
X000666Y008122D01*
X000709Y008199D01*
X000756Y008275D01*
X000807Y008348D01*
X000860Y008419D01*
X000917Y008488D01*
X000977Y008554D01*
X001040Y008618D01*
X001105Y008678D01*
X001173Y008736D01*
X001244Y008790D01*
X001317Y008841D01*
X001392Y008889D01*
X001469Y008934D01*
X001548Y008975D01*
X001629Y009012D01*
X001711Y009046D01*
X001795Y009077D01*
X001880Y009103D01*
X001966Y009126D01*
X002053Y009144D01*
X002141Y009159D01*
X002230Y009170D01*
X002319Y009177D01*
X002408Y009180D01*
X002497Y009179D01*
X002586Y009174D01*
X002674Y009165D01*
X002763Y009152D01*
X002850Y009135D01*
X002937Y009115D01*
X003023Y009090D01*
X003107Y009062D01*
X003190Y009030D01*
X003272Y008994D01*
X003352Y008955D01*
X003430Y008912D01*
X003506Y008866D01*
X003580Y008816D01*
X003652Y008763D01*
X003721Y008707D01*
X003788Y008648D01*
X003852Y008586D01*
X003913Y008522D01*
X003972Y008454D01*
X004027Y008384D01*
X004079Y008312D01*
X004128Y008237D01*
X004173Y008161D01*
X004215Y008082D01*
X004253Y008002D01*
X004288Y007920D01*
X004319Y007836D01*
X004347Y007751D01*
X004370Y007665D01*
X004390Y007578D01*
X004406Y007491D01*
X004418Y007402D01*
X004426Y007314D01*
X004430Y007225D01*
X004430Y007135D01*
X004426Y007046D01*
X004418Y006958D01*
X004406Y006869D01*
X004390Y006782D01*
X004370Y006695D01*
X004347Y006609D01*
X004319Y006524D01*
X004288Y006440D01*
X004253Y006358D01*
X004215Y006278D01*
X004173Y006199D01*
X004128Y006123D01*
X004079Y006048D01*
X004027Y005976D01*
X003972Y005906D01*
X003913Y005838D01*
X003852Y005774D01*
X003788Y005712D01*
X003721Y005653D01*
X003652Y005597D01*
X003580Y005544D01*
X003506Y005494D01*
X003430Y005448D01*
X003352Y005405D01*
X003272Y005366D01*
X003190Y005330D01*
X003107Y005298D01*
X003023Y005270D01*
X002937Y005245D01*
X002850Y005225D01*
X002763Y005208D01*
X002674Y005195D01*
X002586Y005186D01*
X002497Y005181D01*
X002408Y005180D01*
X002319Y005183D01*
X002230Y005190D01*
X002141Y005201D01*
X002053Y005216D01*
X001966Y005234D01*
X001880Y005257D01*
X001795Y005283D01*
X001711Y005314D01*
X001629Y005348D01*
X001548Y005385D01*
X001469Y005426D01*
X001392Y005471D01*
X001317Y005519D01*
X001244Y005570D01*
X001173Y005624D01*
X001105Y005682D01*
X001040Y005742D01*
X000977Y005806D01*
X000917Y005872D01*
X000860Y005941D01*
X000807Y006012D01*
X000756Y006085D01*
X000709Y006161D01*
X000666Y006238D01*
X000625Y006318D01*
X000589Y006399D01*
X000556Y006482D01*
X000527Y006566D01*
X000501Y006652D01*
X000479Y006738D01*
X000462Y006825D01*
X000448Y006913D01*
X000438Y007002D01*
X000432Y007091D01*
X000430Y007180D01*
X001780Y005680D02*
X002080Y005680D01*
X001930Y005830D02*
X001930Y005530D01*
X002430Y007430D02*
X002430Y007630D01*
X002430Y007830D01*
X003260Y021540D02*
X003600Y021540D01*
X003600Y021820D02*
X003260Y021820D01*
X003180Y022430D02*
X002930Y022680D01*
X002680Y022430D01*
X002180Y022430D01*
X001930Y022680D01*
X001680Y022430D01*
X001180Y022430D01*
X000930Y022680D01*
X000930Y023180D01*
X001180Y023430D01*
X001680Y023430D01*
X001930Y023180D01*
X002180Y023430D01*
X002680Y023430D01*
X002930Y023180D01*
X003180Y023430D01*
X003680Y023430D01*
X003930Y023180D01*
X003930Y022680D01*
X003680Y022430D01*
X003180Y022430D01*
X002930Y022680D02*
X002930Y023180D01*
X001930Y023180D02*
X001930Y022680D01*
X003260Y026290D02*
X003600Y026290D01*
X003600Y026570D02*
X003260Y026570D01*
X003180Y027180D02*
X002930Y027430D01*
X002680Y027180D01*
X002180Y027180D01*
X001930Y027430D01*
X001680Y027180D01*
X001180Y027180D01*
X000930Y027430D01*
X000930Y027930D01*
X001180Y028180D01*
X001680Y028180D01*
X001930Y027930D01*
X002180Y028180D01*
X002680Y028180D01*
X002930Y027930D01*
X003180Y028180D01*
X003680Y028180D01*
X003930Y027930D01*
X003930Y027430D01*
X003680Y027180D01*
X003180Y027180D01*
X002930Y027430D02*
X002930Y027930D01*
X001930Y027930D02*
X001930Y027430D01*
X006540Y022350D02*
X006540Y022010D01*
X006820Y022010D02*
X006820Y022350D01*
X007540Y022350D02*
X007540Y022010D01*
X007820Y022010D02*
X007820Y022350D01*
D12*
X021445Y017004D02*
X021445Y016942D01*
X021507Y016880D01*
X021630Y016880D01*
X021692Y016818D01*
X021692Y016757D01*
X021630Y016695D01*
X021507Y016695D01*
X021445Y016757D01*
X021445Y017004D02*
X021507Y017065D01*
X021630Y017065D01*
X021692Y017004D01*
X021813Y017065D02*
X021937Y017065D01*
X021875Y017065D02*
X021875Y016695D01*
X021813Y016695D02*
X021937Y016695D01*
X022059Y016757D02*
X022121Y016695D01*
X022244Y016695D01*
X022306Y016757D01*
X022306Y016880D01*
X022182Y016880D01*
X022059Y016757D02*
X022059Y017004D01*
X022121Y017065D01*
X022244Y017065D01*
X022306Y017004D01*
X005385Y003510D02*
X005340Y003555D01*
X005160Y003555D01*
X005115Y003510D01*
X005115Y003375D01*
X005385Y003375D01*
X005385Y003510D01*
X005385Y003279D02*
X005385Y003099D01*
X005115Y003099D01*
X005115Y003279D01*
X005250Y003189D02*
X005250Y003099D01*
X005385Y003003D02*
X005385Y002822D01*
X005115Y002822D01*
X005430Y002726D02*
X005430Y002546D01*
X005385Y002450D02*
X005295Y002360D01*
X005295Y002405D02*
X005295Y002270D01*
X005385Y002270D02*
X005115Y002270D01*
X005115Y002405D01*
X005160Y002450D01*
X005250Y002450D01*
X005295Y002405D01*
X005385Y002174D02*
X005385Y001994D01*
X005115Y001994D01*
X005115Y002174D01*
X005250Y002084D02*
X005250Y001994D01*
X005385Y001898D02*
X005115Y001898D01*
X005115Y001717D02*
X005385Y001717D01*
X005295Y001808D01*
X005385Y001898D01*
X005340Y001621D02*
X005160Y001621D01*
X005115Y001576D01*
X005115Y001486D01*
X005160Y001441D01*
X005340Y001441D01*
X005385Y001486D01*
X005385Y001576D01*
X005340Y001621D01*
X005250Y001345D02*
X005160Y001345D01*
X005115Y001300D01*
X005115Y001165D01*
X005385Y001165D01*
X005295Y001165D02*
X005295Y001300D01*
X005250Y001345D01*
D13*
X004410Y003990D02*
X004410Y004297D01*
X004410Y004143D02*
X003950Y004143D01*
X004103Y003990D01*
X003552Y009769D02*
X003629Y009846D01*
X003629Y009999D01*
X003552Y010076D01*
X003475Y010076D01*
X003398Y009999D01*
X003398Y009846D01*
X003322Y009769D01*
X003245Y009769D01*
X003168Y009846D01*
X003168Y009999D01*
X003245Y010076D01*
X003168Y010229D02*
X003168Y010459D01*
X003245Y010536D01*
X003398Y010536D01*
X003475Y010459D01*
X003475Y010229D01*
X003629Y010229D02*
X003168Y010229D01*
X003168Y010690D02*
X003629Y010690D01*
X003475Y010690D02*
X003168Y010997D01*
X003398Y011150D02*
X003398Y011457D01*
X003245Y011610D02*
X003168Y011687D01*
X003168Y011841D01*
X003245Y011917D01*
X003322Y011917D01*
X003629Y011610D01*
X003629Y011917D01*
X003629Y010997D02*
X003398Y010766D01*
X008200Y012200D02*
X008660Y012200D01*
X008430Y012200D02*
X008430Y012507D01*
X008353Y012660D02*
X008583Y012660D01*
X008660Y012737D01*
X008660Y012967D01*
X008737Y012967D02*
X008813Y012891D01*
X008813Y012814D01*
X008737Y012967D02*
X008353Y012967D01*
X008200Y013121D02*
X008200Y013198D01*
X008660Y013198D01*
X008660Y013274D02*
X008660Y013121D01*
X008583Y013428D02*
X008430Y013428D01*
X008353Y013504D01*
X008353Y013658D01*
X008430Y013735D01*
X008583Y013735D01*
X008660Y013658D01*
X008660Y013504D01*
X008583Y013428D01*
X008660Y013888D02*
X008660Y014195D01*
X008583Y014348D02*
X008430Y014348D01*
X008353Y014425D01*
X008353Y014579D01*
X008430Y014655D01*
X008583Y014655D01*
X008660Y014579D01*
X008660Y014425D01*
X008583Y014348D01*
X008353Y014195D02*
X008660Y013888D01*
X008353Y013888D02*
X008353Y014195D01*
X008353Y014809D02*
X008353Y014886D01*
X008660Y014886D01*
X008660Y014962D02*
X008660Y014809D01*
X008583Y015116D02*
X008430Y015116D01*
X008353Y015193D01*
X008353Y015423D01*
X008660Y015423D02*
X008660Y015193D01*
X008583Y015116D01*
X008200Y014886D02*
X008123Y014886D01*
X009200Y014962D02*
X009200Y015116D01*
X009200Y015039D02*
X009660Y015039D01*
X009660Y014962D02*
X009660Y015116D01*
X009660Y014809D02*
X009353Y014809D01*
X009200Y014655D01*
X009353Y014502D01*
X009660Y014502D01*
X009583Y014348D02*
X009660Y014272D01*
X009660Y014042D01*
X009200Y014042D01*
X009200Y014272D01*
X009276Y014348D01*
X009353Y014348D01*
X009430Y014272D01*
X009430Y014042D01*
X009430Y013888D02*
X009276Y013888D01*
X009200Y013811D01*
X009200Y013581D01*
X009660Y013581D01*
X009507Y013581D02*
X009507Y013811D01*
X009430Y013888D01*
X009430Y014272D02*
X009507Y014348D01*
X009583Y014348D01*
X009430Y014502D02*
X009430Y014809D01*
X009507Y015730D02*
X009353Y015883D01*
X009276Y015883D01*
X009200Y015806D01*
X009276Y015730D01*
X009353Y015730D01*
X009660Y016037D01*
X009507Y016037D02*
X009660Y015883D01*
X009660Y015806D01*
X009583Y015730D01*
X009507Y015730D01*
X009583Y016650D02*
X009200Y016650D01*
X009200Y016957D02*
X009583Y016957D01*
X009660Y016881D01*
X009660Y016727D01*
X009583Y016650D01*
X009660Y017111D02*
X009507Y017264D01*
X009660Y017418D01*
X009200Y017418D01*
X009353Y017648D02*
X009353Y017801D01*
X009430Y017878D01*
X009660Y017878D01*
X009660Y017648D01*
X009583Y017571D01*
X009507Y017648D01*
X009507Y017878D01*
X009353Y018032D02*
X009353Y018185D01*
X009276Y018108D02*
X009583Y018108D01*
X009660Y018185D01*
X009583Y018339D02*
X009430Y018339D01*
X009353Y018415D01*
X009353Y018569D01*
X009430Y018645D01*
X009507Y018645D01*
X009507Y018339D01*
X009583Y018339D02*
X009660Y018415D01*
X009660Y018569D01*
X009660Y018799D02*
X009353Y018799D01*
X009353Y018952D02*
X009353Y019029D01*
X009353Y018952D02*
X009507Y018799D01*
X009660Y019183D02*
X009660Y019336D01*
X009660Y019259D02*
X009200Y019259D01*
X009200Y019183D01*
X009430Y019490D02*
X009583Y019490D01*
X009660Y019566D01*
X009660Y019720D01*
X009583Y019796D01*
X009430Y019796D01*
X009353Y019720D01*
X009353Y019566D01*
X009430Y019490D01*
X009430Y019950D02*
X009583Y019950D01*
X009660Y020027D01*
X009660Y020180D01*
X009583Y020257D01*
X009430Y020257D01*
X009353Y020180D01*
X009353Y020027D01*
X009430Y019950D01*
X008660Y019259D02*
X008660Y019106D01*
X008583Y019029D01*
X008430Y019183D02*
X008430Y019259D01*
X008507Y019336D01*
X008583Y019336D01*
X008660Y019259D01*
X008430Y019259D02*
X008353Y019336D01*
X008276Y019336D01*
X008200Y019259D01*
X008200Y019106D01*
X008276Y019029D01*
X008353Y018415D02*
X008353Y018185D01*
X008430Y018108D01*
X008507Y018185D01*
X008507Y018339D01*
X008583Y018415D01*
X008660Y018339D01*
X008660Y018108D01*
X008507Y017955D02*
X008507Y017648D01*
X008583Y017648D02*
X008430Y017648D01*
X008353Y017725D01*
X008353Y017878D01*
X008430Y017955D01*
X008507Y017955D01*
X008660Y017878D02*
X008660Y017725D01*
X008583Y017648D01*
X008660Y017495D02*
X008660Y017341D01*
X008660Y017418D02*
X008353Y017418D01*
X008353Y017341D01*
X008353Y017188D02*
X008353Y017111D01*
X008507Y016957D01*
X008660Y016957D02*
X008353Y016957D01*
X008430Y016804D02*
X008507Y016804D01*
X008507Y016497D01*
X008583Y016497D02*
X008430Y016497D01*
X008353Y016574D01*
X008353Y016727D01*
X008430Y016804D01*
X008660Y016727D02*
X008660Y016574D01*
X008583Y016497D01*
X008583Y016344D02*
X008660Y016267D01*
X008660Y016113D01*
X008583Y016037D01*
X008430Y016113D02*
X008430Y016267D01*
X008507Y016344D01*
X008583Y016344D01*
X008430Y016113D02*
X008353Y016037D01*
X008276Y016037D01*
X008200Y016113D01*
X008200Y016267D01*
X008276Y016344D01*
X008200Y017418D02*
X008123Y017418D01*
X009200Y017111D02*
X009660Y017111D01*
X010430Y014348D02*
X010430Y014042D01*
X010200Y014272D01*
X010660Y014272D01*
X010660Y013888D02*
X010660Y013581D01*
X010660Y013735D02*
X010200Y013735D01*
X010353Y013581D01*
X010200Y013428D02*
X010660Y013121D01*
X010660Y012967D02*
X010660Y012660D01*
X010660Y012507D02*
X010660Y012200D01*
X010660Y012353D02*
X010200Y012353D01*
X010353Y012200D01*
X010353Y012660D02*
X010200Y012814D01*
X010660Y012814D01*
X009813Y012814D02*
X009813Y012891D01*
X009737Y012967D01*
X009353Y012967D01*
X009353Y012660D02*
X009583Y012660D01*
X009660Y012737D01*
X009660Y012967D01*
X009583Y012507D02*
X009430Y012507D01*
X009353Y012430D01*
X009353Y012200D01*
X009200Y012200D02*
X009660Y012200D01*
X009660Y012430D01*
X009583Y012507D01*
X008660Y012507D02*
X008200Y012507D01*
X011885Y006790D02*
X011885Y005570D01*
X012475Y005570D02*
X012475Y006790D01*
X013015Y006820D02*
X013015Y006540D01*
X013350Y006540D02*
X013350Y006820D01*
X014015Y006820D02*
X014015Y006540D01*
X014350Y006540D02*
X014350Y006820D01*
X015200Y008700D02*
X015200Y008853D01*
X015200Y008777D02*
X015660Y008777D01*
X015660Y008853D02*
X015660Y008700D01*
X015583Y009007D02*
X015660Y009084D01*
X015660Y009237D01*
X015583Y009314D01*
X015583Y009467D02*
X015660Y009544D01*
X015660Y009698D01*
X015583Y009774D01*
X015507Y009774D01*
X015430Y009698D01*
X015430Y009621D01*
X015430Y009698D02*
X015353Y009774D01*
X015276Y009774D01*
X015200Y009698D01*
X015200Y009544D01*
X015276Y009467D01*
X015276Y009314D02*
X015200Y009237D01*
X015200Y009084D01*
X015276Y009007D01*
X015583Y009007D01*
X017015Y006820D02*
X017015Y006540D01*
X017350Y006540D02*
X017350Y006820D01*
X018015Y006820D02*
X018015Y006540D01*
X018350Y006540D02*
X018350Y006820D01*
X019885Y006790D02*
X019885Y005570D01*
X020475Y005570D02*
X020475Y006790D01*
X021015Y006820D02*
X021015Y006540D01*
X021350Y006540D02*
X021350Y006820D01*
X022015Y006820D02*
X022015Y006540D01*
X022350Y006540D02*
X022350Y006820D01*
X023200Y008700D02*
X023200Y008853D01*
X023200Y008777D02*
X023660Y008777D01*
X023660Y008853D02*
X023660Y008700D01*
X023583Y009007D02*
X023276Y009007D01*
X023200Y009084D01*
X023200Y009237D01*
X023276Y009314D01*
X023353Y009467D02*
X023200Y009621D01*
X023660Y009621D01*
X023660Y009774D02*
X023660Y009467D01*
X023583Y009314D02*
X023660Y009237D01*
X023660Y009084D01*
X023583Y009007D01*
X025015Y006820D02*
X025015Y006540D01*
X025350Y006540D02*
X025350Y006820D01*
X026015Y006820D02*
X026015Y006540D01*
X026350Y006540D02*
X026350Y006820D01*
X024475Y006790D02*
X024475Y005570D01*
X023885Y005570D02*
X023885Y006790D01*
X019660Y008700D02*
X019660Y008853D01*
X019660Y008777D02*
X019200Y008777D01*
X019200Y008853D02*
X019200Y008700D01*
X019276Y009007D02*
X019583Y009007D01*
X019660Y009084D01*
X019660Y009237D01*
X019583Y009314D01*
X019660Y009467D02*
X019353Y009774D01*
X019276Y009774D01*
X019200Y009698D01*
X019200Y009544D01*
X019276Y009467D01*
X019276Y009314D02*
X019200Y009237D01*
X019200Y009084D01*
X019276Y009007D01*
X019660Y009467D02*
X019660Y009774D01*
X019007Y012450D02*
X018700Y012450D01*
X018853Y012450D02*
X018853Y012910D01*
X018700Y012757D01*
X018700Y013950D02*
X019007Y013950D01*
X018853Y013950D02*
X018853Y014410D01*
X018700Y014257D01*
X018700Y015450D02*
X019007Y015450D01*
X018853Y015450D02*
X018853Y015910D01*
X018700Y015757D01*
X016475Y006790D02*
X016475Y005570D01*
X015885Y005570D02*
X015885Y006790D01*
X015790Y002975D02*
X014570Y002975D01*
X014570Y002385D02*
X015790Y002385D01*
X003552Y018269D02*
X003629Y018346D01*
X003629Y018499D01*
X003552Y018576D01*
X003475Y018576D01*
X003398Y018499D01*
X003398Y018346D01*
X003322Y018269D01*
X003245Y018269D01*
X003168Y018346D01*
X003168Y018499D01*
X003245Y018576D01*
X003168Y018729D02*
X003168Y018959D01*
X003245Y019036D01*
X003398Y019036D01*
X003475Y018959D01*
X003475Y018729D01*
X003629Y018729D02*
X003168Y018729D01*
X003168Y019190D02*
X003629Y019190D01*
X003475Y019190D02*
X003168Y019497D01*
X003398Y019650D02*
X003398Y019957D01*
X003322Y020110D02*
X003168Y020264D01*
X003629Y020264D01*
X003629Y020417D02*
X003629Y020110D01*
X003629Y019497D02*
X003398Y019266D01*
X004135Y022320D02*
X004135Y023540D01*
X004725Y023540D02*
X004725Y022320D01*
X003629Y024019D02*
X003168Y024019D01*
X003168Y024249D01*
X003245Y024326D01*
X003398Y024326D01*
X003475Y024249D01*
X003475Y024019D01*
X003629Y024479D02*
X003168Y024479D01*
X003168Y024786D02*
X003629Y024786D01*
X003475Y024633D01*
X003629Y024479D01*
X003629Y024940D02*
X003168Y024940D01*
X003322Y025093D01*
X003168Y025247D01*
X003629Y025247D01*
X003629Y025400D02*
X003322Y025707D01*
X003245Y025707D01*
X003168Y025630D01*
X003168Y025477D01*
X003245Y025400D01*
X003629Y025400D02*
X003629Y025707D01*
X004135Y027070D02*
X004135Y028290D01*
X004725Y028290D02*
X004725Y027070D01*
X003629Y028769D02*
X003168Y028769D01*
X003168Y028999D01*
X003245Y029076D01*
X003398Y029076D01*
X003475Y028999D01*
X003475Y028769D01*
X003629Y029229D02*
X003168Y029229D01*
X003168Y029536D02*
X003629Y029536D01*
X003475Y029383D01*
X003629Y029229D01*
X003629Y029690D02*
X003168Y029690D01*
X003322Y029843D01*
X003168Y029997D01*
X003629Y029997D01*
X003629Y030150D02*
X003629Y030457D01*
X003629Y030304D02*
X003168Y030304D01*
X003322Y030150D01*
X000603Y027660D02*
X000603Y027200D01*
X000450Y027200D02*
X000757Y027200D01*
X000450Y027507D02*
X000603Y027660D01*
X000603Y022910D02*
X000450Y022757D01*
X000603Y022910D02*
X000603Y022450D01*
X000450Y022450D02*
X000757Y022450D01*
X017200Y030160D02*
X017507Y030160D01*
X017660Y030160D02*
X017660Y029700D01*
X017967Y029700D01*
X018121Y029700D02*
X018428Y029700D01*
X018581Y029700D02*
X018581Y030160D01*
X018888Y029700D01*
X018888Y030160D01*
X019042Y030084D02*
X019118Y030160D01*
X019272Y030160D01*
X019348Y030084D01*
X019502Y030084D02*
X019502Y030160D01*
X019502Y030084D02*
X019655Y029930D01*
X019655Y029700D01*
X019655Y029930D02*
X019809Y030084D01*
X019809Y030160D01*
X019348Y029853D02*
X019348Y029777D01*
X019272Y029700D01*
X019118Y029700D01*
X019042Y029777D01*
X019118Y029930D02*
X019272Y029930D01*
X019348Y029853D01*
X019118Y029930D02*
X019042Y030007D01*
X019042Y030084D01*
X018428Y030160D02*
X018121Y030160D01*
X018121Y029700D01*
X018121Y029930D02*
X018274Y029930D01*
X017967Y030160D02*
X017660Y030160D01*
X017660Y029930D02*
X017814Y029930D01*
X017353Y029700D02*
X017353Y030160D01*
D14*
X011180Y020680D02*
X011180Y011680D01*
X006680Y011680D01*
X006680Y020680D01*
X011180Y020680D01*
D15*
X002430Y015905D03*
X002430Y007405D03*
X024680Y001955D03*
D16*
X025785Y002009D02*
X025860Y001934D01*
X026160Y001934D01*
X026235Y002009D01*
X026235Y002159D01*
X026160Y002234D01*
X026235Y002395D02*
X026235Y002695D01*
X026235Y002545D02*
X025785Y002545D01*
X025935Y002395D01*
X025860Y002234D02*
X025785Y002159D01*
X025785Y002009D01*
X021966Y002455D02*
X021665Y002455D01*
X021816Y002455D02*
X021816Y002905D01*
X021665Y002755D01*
X021505Y002830D02*
X021505Y002530D01*
X021430Y002455D01*
X021205Y002455D01*
X021205Y002905D01*
X021430Y002905D01*
X021505Y002830D01*
X013450Y010393D02*
X013450Y010694D01*
X013375Y010854D02*
X013375Y011154D01*
X013450Y011314D02*
X013450Y011614D01*
X013375Y011775D02*
X013075Y012075D01*
X013000Y012075D01*
X012925Y012000D01*
X012925Y011850D01*
X013000Y011775D01*
X013375Y011775D02*
X013375Y012075D01*
X013075Y011154D02*
X013000Y011154D01*
X012925Y011079D01*
X012925Y010929D01*
X013000Y010854D01*
X013075Y011154D02*
X013375Y010854D01*
X013150Y010233D02*
X013000Y010233D01*
X012925Y010158D01*
X012925Y009933D01*
X013375Y009933D01*
X013225Y009933D02*
X013225Y010158D01*
X013150Y010233D01*
X012925Y009773D02*
X013375Y009773D01*
X013375Y009473D02*
X012925Y009473D01*
X013075Y009623D01*
X012925Y009773D01*
X013075Y009313D02*
X013375Y009313D01*
X013150Y009313D02*
X013150Y009012D01*
X013075Y009012D02*
X013375Y009012D01*
X013075Y009012D02*
X012925Y009162D01*
X013075Y009313D01*
X015403Y012880D02*
X015703Y012880D01*
X015863Y013030D02*
X015938Y012955D01*
X016089Y012955D01*
X016164Y013030D01*
X016324Y013030D02*
X016399Y012955D01*
X016549Y012955D01*
X016624Y013030D01*
X016624Y013330D01*
X016549Y013405D01*
X016399Y013405D01*
X016324Y013330D01*
X016324Y013030D01*
X016164Y013330D02*
X016089Y013405D01*
X015938Y013405D01*
X015863Y013330D01*
X015863Y013030D01*
X015243Y013030D02*
X015168Y012955D01*
X014943Y012955D01*
X014943Y013405D01*
X015168Y013405D01*
X015243Y013330D01*
X015243Y013255D01*
X015168Y013180D01*
X014943Y013180D01*
X014783Y013180D02*
X014482Y013180D01*
X014482Y013255D02*
X014632Y013405D01*
X014783Y013255D01*
X014783Y012955D01*
X015168Y013180D02*
X015243Y013105D01*
X015243Y013030D01*
X014482Y012955D02*
X014482Y013255D01*
X014322Y013405D02*
X014022Y013405D01*
X014172Y013405D02*
X014172Y012955D01*
X016784Y012955D02*
X016784Y013405D01*
X017084Y012955D01*
X017084Y013405D01*
X017245Y013405D02*
X017245Y012955D01*
X017545Y012955D02*
X017245Y013405D01*
X017545Y013405D02*
X017545Y012955D01*
X015180Y017180D02*
X015180Y031180D01*
X022180Y031180D01*
X022180Y017180D01*
X015180Y017180D01*
X013450Y018893D02*
X013450Y019194D01*
X013375Y019354D02*
X013375Y019654D01*
X013375Y019504D02*
X012925Y019504D01*
X013075Y019354D01*
X013450Y019814D02*
X013450Y020114D01*
X013375Y020275D02*
X013375Y020575D01*
X013375Y020275D02*
X013075Y020575D01*
X013000Y020575D01*
X012925Y020500D01*
X012925Y020350D01*
X013000Y020275D01*
X013000Y018733D02*
X013150Y018733D01*
X013225Y018658D01*
X013225Y018433D01*
X013375Y018433D02*
X012925Y018433D01*
X012925Y018658D01*
X013000Y018733D01*
X012925Y018273D02*
X013375Y018273D01*
X013375Y017973D02*
X012925Y017973D01*
X013075Y018123D01*
X012925Y018273D01*
X013075Y017813D02*
X013375Y017813D01*
X013150Y017813D02*
X013150Y017512D01*
X013075Y017512D02*
X013375Y017512D01*
X013075Y017512D02*
X012925Y017662D01*
X013075Y017813D01*
X013049Y022555D02*
X013124Y022630D01*
X013124Y022930D01*
X013049Y023005D01*
X012899Y023005D01*
X012824Y022930D01*
X012824Y022630D01*
X012899Y022555D01*
X013049Y022555D01*
X013284Y022630D02*
X013359Y022555D01*
X013509Y022555D01*
X013584Y022630D01*
X013584Y023005D01*
X013745Y023005D02*
X014045Y023005D01*
X013895Y023005D02*
X013895Y022555D01*
X013284Y022630D02*
X013284Y023005D01*
X012664Y023005D02*
X012664Y022555D01*
X012363Y023005D01*
X012363Y022555D01*
X012207Y022555D02*
X012056Y022555D01*
X012132Y022555D02*
X012132Y023005D01*
X012207Y023005D02*
X012056Y023005D01*
X011896Y022930D02*
X011896Y022780D01*
X011821Y022705D01*
X011596Y022705D01*
X011596Y022555D02*
X011596Y023005D01*
X011821Y023005D01*
X011896Y022930D01*
X013445Y024355D02*
X013745Y024355D01*
X013595Y024355D02*
X013595Y024805D01*
X013445Y024655D01*
X013180Y031430D02*
X007180Y031430D01*
X003019Y031269D02*
X003019Y028513D01*
X000814Y028513D01*
X000814Y031269D01*
X000263Y031269D01*
X000263Y028513D01*
X000814Y028513D01*
X000814Y026519D02*
X000263Y026519D01*
X000263Y023763D01*
X000814Y023763D01*
X000814Y026519D01*
X003019Y026519D01*
X003019Y023763D01*
X000814Y023763D01*
X000814Y020769D02*
X000263Y020769D01*
X000263Y018013D01*
X000814Y018013D01*
X000814Y020769D01*
X003019Y020769D01*
X003019Y018013D01*
X000814Y018013D01*
X001200Y016066D02*
X001125Y015991D01*
X001125Y015840D01*
X001200Y015765D01*
X001275Y015765D01*
X001350Y015840D01*
X001350Y016066D01*
X001500Y016066D02*
X001200Y016066D01*
X001500Y016066D02*
X001575Y015991D01*
X001575Y015840D01*
X001500Y015765D01*
X001500Y015605D02*
X001575Y015530D01*
X001575Y015380D01*
X001500Y015305D01*
X001200Y015305D01*
X001125Y015380D01*
X001125Y015530D01*
X001200Y015605D01*
X000814Y012269D02*
X000263Y012269D01*
X000263Y009513D01*
X000814Y009513D01*
X000814Y012269D01*
X003019Y012269D01*
X003019Y009513D01*
X000814Y009513D01*
X001200Y007566D02*
X001275Y007566D01*
X001350Y007491D01*
X001350Y007340D01*
X001275Y007265D01*
X001200Y007265D01*
X001125Y007340D01*
X001125Y007491D01*
X001200Y007566D01*
X001350Y007491D02*
X001425Y007566D01*
X001500Y007566D01*
X001575Y007491D01*
X001575Y007340D01*
X001500Y007265D01*
X001425Y007265D01*
X001350Y007340D01*
X001500Y007105D02*
X001575Y007030D01*
X001575Y006880D01*
X001500Y006805D01*
X001200Y006805D01*
X001125Y006880D01*
X001125Y007030D01*
X001200Y007105D01*
X005925Y009162D02*
X006075Y009313D01*
X006375Y009313D01*
X006375Y009473D02*
X005925Y009473D01*
X006075Y009623D01*
X005925Y009773D01*
X006375Y009773D01*
X006375Y009933D02*
X005925Y009933D01*
X005925Y010158D01*
X006000Y010233D01*
X006150Y010233D01*
X006225Y010158D01*
X006225Y009933D01*
X006450Y010393D02*
X006450Y010694D01*
X006375Y010854D02*
X006075Y011154D01*
X006000Y011154D01*
X005925Y011079D01*
X005925Y010929D01*
X006000Y010854D01*
X006375Y010854D02*
X006375Y011154D01*
X006450Y011314D02*
X006450Y011614D01*
X006375Y011775D02*
X006375Y012075D01*
X006375Y011925D02*
X005925Y011925D01*
X006075Y011775D01*
X006150Y009313D02*
X006150Y009012D01*
X006075Y009012D02*
X005925Y009162D01*
X006075Y009012D02*
X006375Y009012D01*
X006455Y004705D02*
X006680Y004705D01*
X006755Y004630D01*
X006755Y004480D01*
X006680Y004405D01*
X006455Y004405D01*
X006455Y004255D02*
X006455Y004705D01*
X006915Y004630D02*
X006915Y004330D01*
X006990Y004255D01*
X007141Y004255D01*
X007216Y004330D01*
X007216Y004630D01*
X007141Y004705D01*
X006990Y004705D01*
X006915Y004630D01*
X007376Y004705D02*
X007376Y004255D01*
X007526Y004405D01*
X007676Y004255D01*
X007676Y004705D01*
X007836Y004705D02*
X007836Y004255D01*
X008136Y004255D01*
X008297Y004255D02*
X008297Y004705D01*
X008522Y004705D01*
X008597Y004630D01*
X008597Y004480D01*
X008522Y004405D01*
X008297Y004405D01*
X008447Y004405D02*
X008597Y004255D01*
X008136Y004705D02*
X007836Y004705D01*
X007836Y004480D02*
X007986Y004480D01*
X008050Y003135D02*
X007975Y003060D01*
X008050Y003135D02*
X008200Y003135D01*
X008275Y003060D01*
X008275Y002985D01*
X007975Y002685D01*
X008275Y002685D01*
X009955Y002780D02*
X010030Y002705D01*
X010180Y002705D01*
X010255Y002780D01*
X010255Y002855D01*
X010180Y002930D01*
X010105Y002930D01*
X010180Y002930D02*
X010255Y003005D01*
X010255Y003080D01*
X010180Y003155D01*
X010030Y003155D01*
X009955Y003080D01*
X011975Y002910D02*
X012275Y002910D01*
X012200Y002685D02*
X012200Y003135D01*
X011975Y002910D01*
X006255Y002705D02*
X005955Y002705D01*
X006105Y002705D02*
X006105Y003155D01*
X005955Y003005D01*
X006075Y017512D02*
X005925Y017662D01*
X006075Y017813D01*
X006375Y017813D01*
X006375Y017973D02*
X005925Y017973D01*
X006075Y018123D01*
X005925Y018273D01*
X006375Y018273D01*
X006375Y018433D02*
X005925Y018433D01*
X005925Y018658D01*
X006000Y018733D01*
X006150Y018733D01*
X006225Y018658D01*
X006225Y018433D01*
X006150Y017813D02*
X006150Y017512D01*
X006075Y017512D02*
X006375Y017512D01*
X006450Y018893D02*
X006450Y019194D01*
X006375Y019354D02*
X006375Y019654D01*
X006375Y019504D02*
X005925Y019504D01*
X006075Y019354D01*
X006450Y019814D02*
X006450Y020114D01*
X006375Y020275D02*
X006375Y020575D01*
X006375Y020425D02*
X005925Y020425D01*
X006075Y020275D01*
X006570Y022555D02*
X006495Y022630D01*
X006495Y022705D01*
X006570Y022780D01*
X006720Y022780D01*
X006795Y022705D01*
X006795Y022630D01*
X006720Y022555D01*
X006570Y022555D01*
X006570Y022780D02*
X006495Y022855D01*
X006495Y022930D01*
X006570Y023005D01*
X006720Y023005D01*
X006795Y022930D01*
X006795Y022855D01*
X006720Y022780D01*
X003019Y031269D02*
X000814Y031269D01*
X022425Y015975D02*
X022425Y015675D01*
X022425Y015900D02*
X022725Y015900D01*
X022725Y015975D02*
X022725Y015675D01*
X022885Y015600D02*
X023186Y015600D01*
X023346Y015675D02*
X023646Y015675D01*
X023496Y015675D02*
X023496Y016125D01*
X023346Y015975D01*
X022725Y015975D02*
X022575Y016125D01*
X022425Y015975D01*
X022575Y014625D02*
X022725Y014475D01*
X022725Y014175D01*
X022885Y014100D02*
X023186Y014100D01*
X023346Y014175D02*
X023646Y014475D01*
X023646Y014550D01*
X023571Y014625D01*
X023421Y014625D01*
X023346Y014550D01*
X023346Y014175D02*
X023646Y014175D01*
X022725Y014400D02*
X022425Y014400D01*
X022425Y014475D02*
X022575Y014625D01*
X022425Y014475D02*
X022425Y014175D01*
X022575Y013125D02*
X022425Y012975D01*
X022425Y012675D01*
X022425Y012900D02*
X022725Y012900D01*
X022725Y012975D02*
X022725Y012675D01*
X022885Y012600D02*
X023186Y012600D01*
X023346Y012750D02*
X023421Y012675D01*
X023571Y012675D01*
X023646Y012750D01*
X023646Y012825D01*
X023571Y012900D01*
X023496Y012900D01*
X023571Y012900D02*
X023646Y012975D01*
X023646Y013050D01*
X023571Y013125D01*
X023421Y013125D01*
X023346Y013050D01*
X022725Y012975D02*
X022575Y013125D01*
X024049Y027625D02*
X024199Y027625D01*
X024274Y027700D01*
X024434Y027625D02*
X024734Y027625D01*
X024584Y027625D02*
X024584Y028075D01*
X024434Y027925D01*
X024274Y028000D02*
X024199Y028075D01*
X024049Y028075D01*
X023974Y028000D01*
X023974Y027700D01*
X024049Y027625D01*
X024895Y027700D02*
X024970Y027625D01*
X025120Y027625D01*
X025195Y027700D01*
X025195Y027775D01*
X025120Y027850D01*
X025045Y027850D01*
X025120Y027850D02*
X025195Y027925D01*
X025195Y028000D01*
X025120Y028075D01*
X024970Y028075D01*
X024895Y028000D01*
D17*
X025182Y006912D03*
X025182Y006452D03*
X026182Y006452D03*
X026182Y006912D03*
X022182Y006912D03*
X022182Y006452D03*
X021182Y006452D03*
X021182Y006912D03*
X018182Y006912D03*
X018182Y006452D03*
X017182Y006452D03*
X017182Y006912D03*
X014182Y006912D03*
X014182Y006452D03*
X013182Y006452D03*
X013182Y006912D03*
D18*
X015680Y001680D02*
X016230Y001680D01*
X021130Y001680D02*
X021680Y001680D01*
D19*
X017180Y001680D03*
D20*
X016505Y001680D03*
X020855Y001680D03*
D21*
X020377Y005589D02*
X020375Y005616D01*
X020370Y005642D01*
X020361Y005667D01*
X020348Y005691D01*
X020333Y005713D01*
X020314Y005733D01*
X020294Y005750D01*
X020271Y005764D01*
X020246Y005775D01*
X020220Y005782D01*
X020193Y005786D01*
X020167Y005786D01*
X020140Y005782D01*
X020114Y005775D01*
X020089Y005764D01*
X020066Y005750D01*
X020046Y005733D01*
X020027Y005713D01*
X020012Y005691D01*
X019999Y005667D01*
X019990Y005642D01*
X019985Y005616D01*
X019983Y005589D01*
X019983Y006771D02*
X019985Y006744D01*
X019990Y006718D01*
X019999Y006693D01*
X020012Y006669D01*
X020027Y006647D01*
X020046Y006627D01*
X020066Y006610D01*
X020089Y006596D01*
X020114Y006585D01*
X020140Y006578D01*
X020167Y006574D01*
X020193Y006574D01*
X020220Y006578D01*
X020246Y006585D01*
X020271Y006596D01*
X020294Y006610D01*
X020314Y006627D01*
X020333Y006647D01*
X020348Y006669D01*
X020361Y006693D01*
X020370Y006718D01*
X020375Y006744D01*
X020377Y006771D01*
X019890Y008830D02*
X019890Y011190D01*
X022470Y011190D01*
X022470Y008830D01*
X019890Y008830D01*
X018470Y008830D02*
X015890Y008830D01*
X015890Y011190D01*
X018470Y011190D01*
X018470Y008830D01*
X018190Y011230D02*
X016170Y011230D01*
X016170Y011510D01*
X016350Y011690D01*
X018010Y011690D01*
X018190Y011510D01*
X018190Y011230D01*
X020170Y011230D02*
X022190Y011230D01*
X022190Y011510D01*
X022010Y011690D01*
X020350Y011690D01*
X020170Y011510D01*
X020170Y011230D01*
X023890Y011190D02*
X026470Y011190D01*
X026470Y008830D01*
X023890Y008830D01*
X023890Y011190D01*
X024170Y011230D02*
X024170Y011510D01*
X024350Y011690D01*
X026010Y011690D01*
X026190Y011510D01*
X026190Y011230D01*
X024170Y011230D01*
X023983Y006771D02*
X023985Y006744D01*
X023990Y006718D01*
X023999Y006693D01*
X024012Y006669D01*
X024027Y006647D01*
X024046Y006627D01*
X024066Y006610D01*
X024089Y006596D01*
X024114Y006585D01*
X024140Y006578D01*
X024167Y006574D01*
X024193Y006574D01*
X024220Y006578D01*
X024246Y006585D01*
X024271Y006596D01*
X024294Y006610D01*
X024314Y006627D01*
X024333Y006647D01*
X024348Y006669D01*
X024361Y006693D01*
X024370Y006718D01*
X024375Y006744D01*
X024377Y006771D01*
X024377Y005589D02*
X024375Y005616D01*
X024370Y005642D01*
X024361Y005667D01*
X024348Y005691D01*
X024333Y005713D01*
X024314Y005733D01*
X024294Y005750D01*
X024271Y005764D01*
X024246Y005775D01*
X024220Y005782D01*
X024193Y005786D01*
X024167Y005786D01*
X024140Y005782D01*
X024114Y005775D01*
X024089Y005764D01*
X024066Y005750D01*
X024046Y005733D01*
X024027Y005713D01*
X024012Y005691D01*
X023999Y005667D01*
X023990Y005642D01*
X023985Y005616D01*
X023983Y005589D01*
X016377Y005589D02*
X016375Y005616D01*
X016370Y005642D01*
X016361Y005667D01*
X016348Y005691D01*
X016333Y005713D01*
X016314Y005733D01*
X016294Y005750D01*
X016271Y005764D01*
X016246Y005775D01*
X016220Y005782D01*
X016193Y005786D01*
X016167Y005786D01*
X016140Y005782D01*
X016114Y005775D01*
X016089Y005764D01*
X016066Y005750D01*
X016046Y005733D01*
X016027Y005713D01*
X016012Y005691D01*
X015999Y005667D01*
X015990Y005642D01*
X015985Y005616D01*
X015983Y005589D01*
X015983Y006771D02*
X015985Y006744D01*
X015990Y006718D01*
X015999Y006693D01*
X016012Y006669D01*
X016027Y006647D01*
X016046Y006627D01*
X016066Y006610D01*
X016089Y006596D01*
X016114Y006585D01*
X016140Y006578D01*
X016167Y006574D01*
X016193Y006574D01*
X016220Y006578D01*
X016246Y006585D01*
X016271Y006596D01*
X016294Y006610D01*
X016314Y006627D01*
X016333Y006647D01*
X016348Y006669D01*
X016361Y006693D01*
X016370Y006718D01*
X016375Y006744D01*
X016377Y006771D01*
X015771Y002877D02*
X015744Y002875D01*
X015718Y002870D01*
X015693Y002861D01*
X015669Y002848D01*
X015647Y002833D01*
X015627Y002814D01*
X015610Y002794D01*
X015596Y002771D01*
X015585Y002746D01*
X015578Y002720D01*
X015574Y002693D01*
X015574Y002667D01*
X015578Y002640D01*
X015585Y002614D01*
X015596Y002589D01*
X015610Y002566D01*
X015627Y002546D01*
X015647Y002527D01*
X015669Y002512D01*
X015693Y002499D01*
X015718Y002490D01*
X015744Y002485D01*
X015771Y002483D01*
X014589Y002483D02*
X014616Y002485D01*
X014642Y002490D01*
X014667Y002499D01*
X014691Y002512D01*
X014713Y002527D01*
X014733Y002546D01*
X014750Y002566D01*
X014764Y002589D01*
X014775Y002614D01*
X014782Y002640D01*
X014786Y002667D01*
X014786Y002693D01*
X014782Y002720D01*
X014775Y002746D01*
X014764Y002771D01*
X014750Y002794D01*
X014733Y002814D01*
X014713Y002833D01*
X014691Y002848D01*
X014667Y002861D01*
X014642Y002870D01*
X014616Y002875D01*
X014589Y002877D01*
X012377Y005589D02*
X012375Y005616D01*
X012370Y005642D01*
X012361Y005667D01*
X012348Y005691D01*
X012333Y005713D01*
X012314Y005733D01*
X012294Y005750D01*
X012271Y005764D01*
X012246Y005775D01*
X012220Y005782D01*
X012193Y005786D01*
X012167Y005786D01*
X012140Y005782D01*
X012114Y005775D01*
X012089Y005764D01*
X012066Y005750D01*
X012046Y005733D01*
X012027Y005713D01*
X012012Y005691D01*
X011999Y005667D01*
X011990Y005642D01*
X011985Y005616D01*
X011983Y005589D01*
X011983Y006771D02*
X011985Y006744D01*
X011990Y006718D01*
X011999Y006693D01*
X012012Y006669D01*
X012027Y006647D01*
X012046Y006627D01*
X012066Y006610D01*
X012089Y006596D01*
X012114Y006585D01*
X012140Y006578D01*
X012167Y006574D01*
X012193Y006574D01*
X012220Y006578D01*
X012246Y006585D01*
X012271Y006596D01*
X012294Y006610D01*
X012314Y006627D01*
X012333Y006647D01*
X012348Y006669D01*
X012361Y006693D01*
X012370Y006718D01*
X012375Y006744D01*
X012377Y006771D01*
X015180Y017180D02*
X015180Y031180D01*
X018180Y031180D01*
X018180Y030680D01*
X019180Y030680D01*
X019180Y031180D01*
X022180Y031180D01*
X022180Y017180D01*
X015180Y017180D01*
X013143Y024921D02*
X013143Y032244D01*
X007217Y032244D01*
X007217Y024921D01*
X013143Y024921D01*
X004627Y023521D02*
X004625Y023494D01*
X004620Y023468D01*
X004611Y023443D01*
X004598Y023419D01*
X004583Y023397D01*
X004564Y023377D01*
X004544Y023360D01*
X004521Y023346D01*
X004496Y023335D01*
X004470Y023328D01*
X004443Y023324D01*
X004417Y023324D01*
X004390Y023328D01*
X004364Y023335D01*
X004339Y023346D01*
X004316Y023360D01*
X004296Y023377D01*
X004277Y023397D01*
X004262Y023419D01*
X004249Y023443D01*
X004240Y023468D01*
X004235Y023494D01*
X004233Y023521D01*
X004233Y022339D02*
X004235Y022366D01*
X004240Y022392D01*
X004249Y022417D01*
X004262Y022441D01*
X004277Y022463D01*
X004296Y022483D01*
X004316Y022500D01*
X004339Y022514D01*
X004364Y022525D01*
X004390Y022532D01*
X004417Y022536D01*
X004443Y022536D01*
X004470Y022532D01*
X004496Y022525D01*
X004521Y022514D01*
X004544Y022500D01*
X004564Y022483D01*
X004583Y022463D01*
X004598Y022441D01*
X004611Y022417D01*
X004620Y022392D01*
X004625Y022366D01*
X004627Y022339D01*
X004627Y027089D02*
X004625Y027116D01*
X004620Y027142D01*
X004611Y027167D01*
X004598Y027191D01*
X004583Y027213D01*
X004564Y027233D01*
X004544Y027250D01*
X004521Y027264D01*
X004496Y027275D01*
X004470Y027282D01*
X004443Y027286D01*
X004417Y027286D01*
X004390Y027282D01*
X004364Y027275D01*
X004339Y027264D01*
X004316Y027250D01*
X004296Y027233D01*
X004277Y027213D01*
X004262Y027191D01*
X004249Y027167D01*
X004240Y027142D01*
X004235Y027116D01*
X004233Y027089D01*
X004233Y028271D02*
X004235Y028244D01*
X004240Y028218D01*
X004249Y028193D01*
X004262Y028169D01*
X004277Y028147D01*
X004296Y028127D01*
X004316Y028110D01*
X004339Y028096D01*
X004364Y028085D01*
X004390Y028078D01*
X004417Y028074D01*
X004443Y028074D01*
X004470Y028078D01*
X004496Y028085D01*
X004521Y028096D01*
X004544Y028110D01*
X004564Y028127D01*
X004583Y028147D01*
X004598Y028169D01*
X004611Y028193D01*
X004620Y028218D01*
X004625Y028244D01*
X004627Y028271D01*
D22*
X016280Y008220D03*
X018080Y008220D03*
X020280Y008220D03*
X022080Y008220D03*
X024280Y008220D03*
X026080Y008220D03*
D23*
X025180Y008640D03*
X021180Y008640D03*
X017180Y008640D03*
D24*
X018190Y011230D02*
X016170Y011230D01*
X016170Y011510D01*
X016350Y011690D01*
X018010Y011690D01*
X018190Y011510D01*
X018190Y011230D01*
X018190Y011291D02*
X016170Y011291D01*
X016170Y011368D02*
X018190Y011368D01*
X018190Y011446D02*
X016170Y011446D01*
X016183Y011523D02*
X018177Y011523D01*
X018100Y011600D02*
X016260Y011600D01*
X016337Y011677D02*
X018023Y011677D01*
X020170Y011510D02*
X020170Y011230D01*
X022190Y011230D01*
X022190Y011510D01*
X022010Y011690D01*
X020350Y011690D01*
X020170Y011510D01*
X020183Y011523D02*
X022177Y011523D01*
X022190Y011446D02*
X020170Y011446D01*
X020170Y011368D02*
X022190Y011368D01*
X022190Y011291D02*
X020170Y011291D01*
X020260Y011600D02*
X022100Y011600D01*
X022023Y011677D02*
X020337Y011677D01*
X024170Y011510D02*
X024170Y011230D01*
X026190Y011230D01*
X026190Y011510D01*
X026010Y011690D01*
X024350Y011690D01*
X024170Y011510D01*
X024183Y011523D02*
X026177Y011523D01*
X026190Y011446D02*
X024170Y011446D01*
X024170Y011368D02*
X026190Y011368D01*
X026190Y011291D02*
X024170Y011291D01*
X024260Y011600D02*
X026100Y011600D01*
X026023Y011677D02*
X024337Y011677D01*
D25*
X023973Y005895D03*
X019973Y005895D03*
X015973Y005895D03*
X015465Y002473D03*
X011973Y005895D03*
X004223Y022645D03*
X004223Y027395D03*
D26*
X014639Y002916D03*
X014639Y002444D03*
X015721Y002444D03*
X015721Y002916D03*
D27*
X015608Y002852D03*
X014752Y002508D03*
D28*
X015180Y002680D03*
X016180Y006180D03*
X020180Y006180D03*
X024180Y006180D03*
X012180Y006180D03*
X004430Y022930D03*
X004430Y027680D03*
D29*
X004194Y027139D03*
X004666Y027139D03*
X004666Y028221D03*
X004194Y028221D03*
X004194Y023471D03*
X004666Y023471D03*
X004666Y022389D03*
X004194Y022389D03*
X011944Y006721D03*
X012416Y006721D03*
X012416Y005639D03*
X011944Y005639D03*
X015944Y005639D03*
X016416Y005639D03*
X016416Y006721D03*
X015944Y006721D03*
X019944Y006721D03*
X020416Y006721D03*
X020416Y005639D03*
X019944Y005639D03*
X023944Y005639D03*
X024416Y005639D03*
X024416Y006721D03*
X023944Y006721D03*
D30*
X024008Y006608D03*
X024352Y005752D03*
X020352Y005752D03*
X020008Y006608D03*
X016352Y005752D03*
X016008Y006608D03*
X012352Y005752D03*
X012008Y006608D03*
X004602Y022502D03*
X004258Y023358D03*
X004602Y027252D03*
X004258Y028108D03*
D31*
X003680Y026430D03*
X003180Y026430D03*
X003180Y021680D03*
X003680Y021680D03*
X012930Y005180D03*
X013430Y005180D03*
X014930Y003430D03*
X015430Y003430D03*
X016930Y005180D03*
X017430Y005180D03*
X020930Y005180D03*
X021430Y005180D03*
X024930Y005180D03*
X025430Y005180D03*
D32*
X026180Y024930D03*
X026180Y025430D03*
X007680Y022430D03*
X007680Y021930D03*
X006680Y021930D03*
X006680Y022430D03*
X004180Y013930D03*
X004180Y013430D03*
X004180Y005430D03*
X004180Y004930D03*
D33*
X005180Y005680D03*
X005180Y006680D03*
X005180Y007680D03*
X005180Y008680D03*
X005180Y009680D03*
X005180Y010680D03*
X005180Y011680D03*
X005180Y014180D03*
X005180Y015180D03*
X005180Y016180D03*
X005180Y017180D03*
X005180Y018180D03*
X005180Y019180D03*
X005180Y020180D03*
X003430Y022930D03*
X002430Y022930D03*
X001430Y022930D03*
X001430Y027680D03*
X002430Y027680D03*
X003430Y027680D03*
X006680Y023680D03*
X007680Y023680D03*
X008680Y023680D03*
X009680Y023680D03*
X010680Y023680D03*
X011680Y023680D03*
X012680Y023680D03*
X013680Y023680D03*
X012180Y020180D03*
X012180Y019180D03*
X013680Y015180D03*
X013680Y014180D03*
X014680Y014180D03*
X014680Y015180D03*
X015680Y015180D03*
X015680Y014180D03*
X016680Y014180D03*
X016680Y015180D03*
X017680Y015180D03*
X017680Y014180D03*
X019680Y014430D03*
X020680Y014430D03*
X021680Y014430D03*
X021680Y012930D03*
X020680Y012930D03*
X019680Y012930D03*
X019680Y015930D03*
X020680Y015930D03*
X021680Y015930D03*
X012180Y011680D03*
X012180Y010680D03*
X004430Y003430D03*
X004430Y002430D03*
X004430Y001430D03*
D34*
X006290Y001530D02*
X007080Y002320D01*
X008320Y001520D02*
X009070Y002320D01*
X010290Y001530D02*
X011080Y002320D01*
X012320Y001520D02*
X013070Y002320D01*
D35*
X024455Y029180D03*
D36*
X006937Y031114D03*
D37*
X013428Y031114D03*
M02*
