G75*
%MOIN*%
%OFA0B0*%
%FSLAX24Y24*%
%IPPOS*%
%LPD*%
%AMOC8*
5,1,8,0,0,1.08239X$1,22.5*
%
%ADD10C,0.0060*%
%ADD11R,0.0900X0.0250*%
%ADD12C,0.0040*%
%ADD13R,0.0374X0.0197*%
%ADD14C,0.0500*%
%ADD15R,0.0300X0.2200*%
%ADD16R,0.0350X0.0500*%
%ADD17C,0.0080*%
%ADD18R,0.0340X0.1140*%
%ADD19R,0.0340X0.0300*%
%ADD20C,0.0079*%
%ADD21C,0.0098*%
%ADD22R,0.0177X0.0157*%
%ADD23R,0.0069X0.0128*%
%ADD24R,0.0079X0.0079*%
%ADD25R,0.0157X0.0177*%
%ADD26R,0.0128X0.0069*%
%ADD27R,0.0160X0.0340*%
%ADD28R,0.0340X0.0160*%
%ADD29C,0.0050*%
%ADD30R,0.0200X0.0200*%
%ADD31C,0.0100*%
%ADD32R,0.0250X0.0900*%
%ADD33R,0.0502X0.0450*%
%ADD34R,0.0492X0.0450*%
D10*
X003930Y001180D02*
X003930Y001680D01*
X004180Y001930D01*
X003930Y002180D01*
X003930Y002680D01*
X004180Y002930D01*
X003930Y003180D01*
X003930Y003680D01*
X004180Y003930D01*
X004680Y003930D01*
X004930Y003680D01*
X004930Y003180D01*
X004680Y002930D01*
X004930Y002680D01*
X004930Y002180D01*
X004680Y001930D01*
X004930Y001680D01*
X004930Y001180D01*
X004680Y000930D01*
X004180Y000930D01*
X003930Y001180D01*
X004180Y001930D02*
X004680Y001930D01*
X005680Y001230D02*
X006330Y001230D01*
X007030Y001230D01*
X008330Y001230D01*
X009030Y001230D01*
X009680Y001230D01*
X010330Y001230D01*
X011030Y001230D01*
X012330Y001230D01*
X013030Y001230D01*
X013680Y001230D01*
X013680Y000280D01*
X005680Y000280D01*
X005680Y001230D01*
X005680Y003830D01*
X005680Y003930D01*
X009680Y003930D01*
X009680Y001230D01*
X008090Y001930D02*
X008092Y001978D01*
X008098Y002026D01*
X008108Y002073D01*
X008121Y002119D01*
X008138Y002164D01*
X008159Y002207D01*
X008184Y002249D01*
X008211Y002288D01*
X008242Y002325D01*
X008276Y002360D01*
X008312Y002391D01*
X008351Y002420D01*
X008392Y002445D01*
X008435Y002467D01*
X008479Y002485D01*
X008525Y002499D01*
X008572Y002510D01*
X008620Y002517D01*
X008668Y002520D01*
X008716Y002519D01*
X008764Y002514D01*
X008811Y002505D01*
X008858Y002493D01*
X008903Y002476D01*
X008947Y002456D01*
X008989Y002433D01*
X009029Y002406D01*
X009066Y002376D01*
X009101Y002343D01*
X009134Y002307D01*
X009163Y002269D01*
X009189Y002228D01*
X009212Y002186D01*
X009231Y002142D01*
X009246Y002096D01*
X009258Y002050D01*
X009266Y002002D01*
X009270Y001954D01*
X009270Y001906D01*
X009266Y001858D01*
X009258Y001810D01*
X009246Y001764D01*
X009231Y001718D01*
X009212Y001674D01*
X009189Y001632D01*
X009163Y001591D01*
X009134Y001553D01*
X009101Y001517D01*
X009066Y001484D01*
X009029Y001454D01*
X008989Y001427D01*
X008947Y001404D01*
X008903Y001384D01*
X008858Y001367D01*
X008811Y001355D01*
X008764Y001346D01*
X008716Y001341D01*
X008668Y001340D01*
X008620Y001343D01*
X008572Y001350D01*
X008525Y001361D01*
X008479Y001375D01*
X008435Y001393D01*
X008392Y001415D01*
X008351Y001440D01*
X008312Y001469D01*
X008276Y001500D01*
X008242Y001535D01*
X008211Y001572D01*
X008184Y001611D01*
X008159Y001653D01*
X008138Y001696D01*
X008121Y001741D01*
X008108Y001787D01*
X008098Y001834D01*
X008092Y001882D01*
X008090Y001930D01*
X006090Y001930D02*
X006092Y001978D01*
X006098Y002026D01*
X006108Y002073D01*
X006121Y002119D01*
X006138Y002164D01*
X006159Y002207D01*
X006184Y002249D01*
X006211Y002288D01*
X006242Y002325D01*
X006276Y002360D01*
X006312Y002391D01*
X006351Y002420D01*
X006392Y002445D01*
X006435Y002467D01*
X006479Y002485D01*
X006525Y002499D01*
X006572Y002510D01*
X006620Y002517D01*
X006668Y002520D01*
X006716Y002519D01*
X006764Y002514D01*
X006811Y002505D01*
X006858Y002493D01*
X006903Y002476D01*
X006947Y002456D01*
X006989Y002433D01*
X007029Y002406D01*
X007066Y002376D01*
X007101Y002343D01*
X007134Y002307D01*
X007163Y002269D01*
X007189Y002228D01*
X007212Y002186D01*
X007231Y002142D01*
X007246Y002096D01*
X007258Y002050D01*
X007266Y002002D01*
X007270Y001954D01*
X007270Y001906D01*
X007266Y001858D01*
X007258Y001810D01*
X007246Y001764D01*
X007231Y001718D01*
X007212Y001674D01*
X007189Y001632D01*
X007163Y001591D01*
X007134Y001553D01*
X007101Y001517D01*
X007066Y001484D01*
X007029Y001454D01*
X006989Y001427D01*
X006947Y001404D01*
X006903Y001384D01*
X006858Y001367D01*
X006811Y001355D01*
X006764Y001346D01*
X006716Y001341D01*
X006668Y001340D01*
X006620Y001343D01*
X006572Y001350D01*
X006525Y001361D01*
X006479Y001375D01*
X006435Y001393D01*
X006392Y001415D01*
X006351Y001440D01*
X006312Y001469D01*
X006276Y001500D01*
X006242Y001535D01*
X006211Y001572D01*
X006184Y001611D01*
X006159Y001653D01*
X006138Y001696D01*
X006121Y001741D01*
X006108Y001787D01*
X006098Y001834D01*
X006092Y001882D01*
X006090Y001930D01*
X006480Y003300D02*
X006482Y003328D01*
X006488Y003355D01*
X006497Y003381D01*
X006510Y003406D01*
X006527Y003429D01*
X006546Y003449D01*
X006568Y003466D01*
X006592Y003480D01*
X006618Y003490D01*
X006645Y003497D01*
X006673Y003500D01*
X006701Y003499D01*
X006728Y003494D01*
X006755Y003485D01*
X006780Y003473D01*
X006803Y003458D01*
X006824Y003439D01*
X006842Y003418D01*
X006857Y003394D01*
X006868Y003368D01*
X006876Y003342D01*
X006880Y003314D01*
X006880Y003286D01*
X006876Y003258D01*
X006868Y003232D01*
X006857Y003206D01*
X006842Y003182D01*
X006824Y003161D01*
X006803Y003142D01*
X006780Y003127D01*
X006755Y003115D01*
X006728Y003106D01*
X006701Y003101D01*
X006673Y003100D01*
X006645Y003103D01*
X006618Y003110D01*
X006592Y003120D01*
X006568Y003134D01*
X006546Y003151D01*
X006527Y003171D01*
X006510Y003194D01*
X006497Y003219D01*
X006488Y003245D01*
X006482Y003272D01*
X006480Y003300D01*
X005680Y003830D02*
X013680Y003830D01*
X013680Y001230D01*
X012090Y001930D02*
X012092Y001978D01*
X012098Y002026D01*
X012108Y002073D01*
X012121Y002119D01*
X012138Y002164D01*
X012159Y002207D01*
X012184Y002249D01*
X012211Y002288D01*
X012242Y002325D01*
X012276Y002360D01*
X012312Y002391D01*
X012351Y002420D01*
X012392Y002445D01*
X012435Y002467D01*
X012479Y002485D01*
X012525Y002499D01*
X012572Y002510D01*
X012620Y002517D01*
X012668Y002520D01*
X012716Y002519D01*
X012764Y002514D01*
X012811Y002505D01*
X012858Y002493D01*
X012903Y002476D01*
X012947Y002456D01*
X012989Y002433D01*
X013029Y002406D01*
X013066Y002376D01*
X013101Y002343D01*
X013134Y002307D01*
X013163Y002269D01*
X013189Y002228D01*
X013212Y002186D01*
X013231Y002142D01*
X013246Y002096D01*
X013258Y002050D01*
X013266Y002002D01*
X013270Y001954D01*
X013270Y001906D01*
X013266Y001858D01*
X013258Y001810D01*
X013246Y001764D01*
X013231Y001718D01*
X013212Y001674D01*
X013189Y001632D01*
X013163Y001591D01*
X013134Y001553D01*
X013101Y001517D01*
X013066Y001484D01*
X013029Y001454D01*
X012989Y001427D01*
X012947Y001404D01*
X012903Y001384D01*
X012858Y001367D01*
X012811Y001355D01*
X012764Y001346D01*
X012716Y001341D01*
X012668Y001340D01*
X012620Y001343D01*
X012572Y001350D01*
X012525Y001361D01*
X012479Y001375D01*
X012435Y001393D01*
X012392Y001415D01*
X012351Y001440D01*
X012312Y001469D01*
X012276Y001500D01*
X012242Y001535D01*
X012211Y001572D01*
X012184Y001611D01*
X012159Y001653D01*
X012138Y001696D01*
X012121Y001741D01*
X012108Y001787D01*
X012098Y001834D01*
X012092Y001882D01*
X012090Y001930D01*
X010090Y001930D02*
X010092Y001978D01*
X010098Y002026D01*
X010108Y002073D01*
X010121Y002119D01*
X010138Y002164D01*
X010159Y002207D01*
X010184Y002249D01*
X010211Y002288D01*
X010242Y002325D01*
X010276Y002360D01*
X010312Y002391D01*
X010351Y002420D01*
X010392Y002445D01*
X010435Y002467D01*
X010479Y002485D01*
X010525Y002499D01*
X010572Y002510D01*
X010620Y002517D01*
X010668Y002520D01*
X010716Y002519D01*
X010764Y002514D01*
X010811Y002505D01*
X010858Y002493D01*
X010903Y002476D01*
X010947Y002456D01*
X010989Y002433D01*
X011029Y002406D01*
X011066Y002376D01*
X011101Y002343D01*
X011134Y002307D01*
X011163Y002269D01*
X011189Y002228D01*
X011212Y002186D01*
X011231Y002142D01*
X011246Y002096D01*
X011258Y002050D01*
X011266Y002002D01*
X011270Y001954D01*
X011270Y001906D01*
X011266Y001858D01*
X011258Y001810D01*
X011246Y001764D01*
X011231Y001718D01*
X011212Y001674D01*
X011189Y001632D01*
X011163Y001591D01*
X011134Y001553D01*
X011101Y001517D01*
X011066Y001484D01*
X011029Y001454D01*
X010989Y001427D01*
X010947Y001404D01*
X010903Y001384D01*
X010858Y001367D01*
X010811Y001355D01*
X010764Y001346D01*
X010716Y001341D01*
X010668Y001340D01*
X010620Y001343D01*
X010572Y001350D01*
X010525Y001361D01*
X010479Y001375D01*
X010435Y001393D01*
X010392Y001415D01*
X010351Y001440D01*
X010312Y001469D01*
X010276Y001500D01*
X010242Y001535D01*
X010211Y001572D01*
X010184Y001611D01*
X010159Y001653D01*
X010138Y001696D01*
X010121Y001741D01*
X010108Y001787D01*
X010098Y001834D01*
X010092Y001882D01*
X010090Y001930D01*
X010480Y003300D02*
X010482Y003328D01*
X010488Y003355D01*
X010497Y003381D01*
X010510Y003406D01*
X010527Y003429D01*
X010546Y003449D01*
X010568Y003466D01*
X010592Y003480D01*
X010618Y003490D01*
X010645Y003497D01*
X010673Y003500D01*
X010701Y003499D01*
X010728Y003494D01*
X010755Y003485D01*
X010780Y003473D01*
X010803Y003458D01*
X010824Y003439D01*
X010842Y003418D01*
X010857Y003394D01*
X010868Y003368D01*
X010876Y003342D01*
X010880Y003314D01*
X010880Y003286D01*
X010876Y003258D01*
X010868Y003232D01*
X010857Y003206D01*
X010842Y003182D01*
X010824Y003161D01*
X010803Y003142D01*
X010780Y003127D01*
X010755Y003115D01*
X010728Y003106D01*
X010701Y003101D01*
X010673Y003100D01*
X010645Y003103D01*
X010618Y003110D01*
X010592Y003120D01*
X010568Y003134D01*
X010546Y003151D01*
X010527Y003171D01*
X010510Y003194D01*
X010497Y003219D01*
X010488Y003245D01*
X010482Y003272D01*
X010480Y003300D01*
X009680Y003930D02*
X013680Y003930D01*
X013680Y003830D01*
X012480Y003300D02*
X012482Y003328D01*
X012488Y003355D01*
X012497Y003381D01*
X012510Y003406D01*
X012527Y003429D01*
X012546Y003449D01*
X012568Y003466D01*
X012592Y003480D01*
X012618Y003490D01*
X012645Y003497D01*
X012673Y003500D01*
X012701Y003499D01*
X012728Y003494D01*
X012755Y003485D01*
X012780Y003473D01*
X012803Y003458D01*
X012824Y003439D01*
X012842Y003418D01*
X012857Y003394D01*
X012868Y003368D01*
X012876Y003342D01*
X012880Y003314D01*
X012880Y003286D01*
X012876Y003258D01*
X012868Y003232D01*
X012857Y003206D01*
X012842Y003182D01*
X012824Y003161D01*
X012803Y003142D01*
X012780Y003127D01*
X012755Y003115D01*
X012728Y003106D01*
X012701Y003101D01*
X012673Y003100D01*
X012645Y003103D01*
X012618Y003110D01*
X012592Y003120D01*
X012568Y003134D01*
X012546Y003151D01*
X012527Y003171D01*
X012510Y003194D01*
X012497Y003219D01*
X012488Y003245D01*
X012482Y003272D01*
X012480Y003300D01*
X013010Y005040D02*
X013350Y005040D01*
X013350Y005320D02*
X013010Y005320D01*
X015010Y003570D02*
X015350Y003570D01*
X015350Y003290D02*
X015010Y003290D01*
X016680Y002780D02*
X020680Y002780D01*
X020680Y000580D01*
X016680Y000580D01*
X016680Y002780D01*
X018180Y001680D02*
X018680Y001680D01*
X018680Y001430D01*
X018830Y001430D01*
X018830Y001500D01*
X018680Y001680D02*
X018680Y001930D01*
X018530Y001930D01*
X018530Y001860D01*
X018680Y001680D02*
X019580Y001680D01*
X019130Y001450D02*
X018680Y001680D01*
X019130Y001910D01*
X019130Y001450D01*
X017350Y005040D02*
X017010Y005040D01*
X017010Y005320D02*
X017350Y005320D01*
X021010Y005320D02*
X021350Y005320D01*
X021350Y005040D02*
X021010Y005040D01*
X024230Y002530D02*
X024230Y002280D01*
X025130Y002280D01*
X025130Y002530D01*
X024680Y002530D01*
X024230Y002530D01*
X024680Y002530D02*
X024680Y002630D01*
X024680Y002830D01*
X022680Y002180D02*
X022682Y002269D01*
X022688Y002358D01*
X022698Y002447D01*
X022712Y002535D01*
X022729Y002622D01*
X022751Y002708D01*
X022777Y002794D01*
X022806Y002878D01*
X022839Y002961D01*
X022875Y003042D01*
X022916Y003122D01*
X022959Y003199D01*
X023006Y003275D01*
X023057Y003348D01*
X023110Y003419D01*
X023167Y003488D01*
X023227Y003554D01*
X023290Y003618D01*
X023355Y003678D01*
X023423Y003736D01*
X023494Y003790D01*
X023567Y003841D01*
X023642Y003889D01*
X023719Y003934D01*
X023798Y003975D01*
X023879Y004012D01*
X023961Y004046D01*
X024045Y004077D01*
X024130Y004103D01*
X024216Y004126D01*
X024303Y004144D01*
X024391Y004159D01*
X024480Y004170D01*
X024569Y004177D01*
X024658Y004180D01*
X024747Y004179D01*
X024836Y004174D01*
X024924Y004165D01*
X025013Y004152D01*
X025100Y004135D01*
X025187Y004115D01*
X025273Y004090D01*
X025357Y004062D01*
X025440Y004030D01*
X025522Y003994D01*
X025602Y003955D01*
X025680Y003912D01*
X025756Y003866D01*
X025830Y003816D01*
X025902Y003763D01*
X025971Y003707D01*
X026038Y003648D01*
X026102Y003586D01*
X026163Y003522D01*
X026222Y003454D01*
X026277Y003384D01*
X026329Y003312D01*
X026378Y003237D01*
X026423Y003161D01*
X026465Y003082D01*
X026503Y003002D01*
X026538Y002920D01*
X026569Y002836D01*
X026597Y002751D01*
X026620Y002665D01*
X026640Y002578D01*
X026656Y002491D01*
X026668Y002402D01*
X026676Y002314D01*
X026680Y002225D01*
X026680Y002135D01*
X026676Y002046D01*
X026668Y001958D01*
X026656Y001869D01*
X026640Y001782D01*
X026620Y001695D01*
X026597Y001609D01*
X026569Y001524D01*
X026538Y001440D01*
X026503Y001358D01*
X026465Y001278D01*
X026423Y001199D01*
X026378Y001123D01*
X026329Y001048D01*
X026277Y000976D01*
X026222Y000906D01*
X026163Y000838D01*
X026102Y000774D01*
X026038Y000712D01*
X025971Y000653D01*
X025902Y000597D01*
X025830Y000544D01*
X025756Y000494D01*
X025680Y000448D01*
X025602Y000405D01*
X025522Y000366D01*
X025440Y000330D01*
X025357Y000298D01*
X025273Y000270D01*
X025187Y000245D01*
X025100Y000225D01*
X025013Y000208D01*
X024924Y000195D01*
X024836Y000186D01*
X024747Y000181D01*
X024658Y000180D01*
X024569Y000183D01*
X024480Y000190D01*
X024391Y000201D01*
X024303Y000216D01*
X024216Y000234D01*
X024130Y000257D01*
X024045Y000283D01*
X023961Y000314D01*
X023879Y000348D01*
X023798Y000385D01*
X023719Y000426D01*
X023642Y000471D01*
X023567Y000519D01*
X023494Y000570D01*
X023423Y000624D01*
X023355Y000682D01*
X023290Y000742D01*
X023227Y000806D01*
X023167Y000872D01*
X023110Y000941D01*
X023057Y001012D01*
X023006Y001085D01*
X022959Y001161D01*
X022916Y001238D01*
X022875Y001318D01*
X022839Y001399D01*
X022806Y001482D01*
X022777Y001566D01*
X022751Y001652D01*
X022729Y001738D01*
X022712Y001825D01*
X022698Y001913D01*
X022688Y002002D01*
X022682Y002091D01*
X022680Y002180D01*
X024680Y001930D02*
X024680Y001730D01*
X024680Y001530D01*
X025180Y003530D02*
X025180Y003830D01*
X025330Y003680D02*
X025030Y003680D01*
X025010Y005040D02*
X025350Y005040D01*
X025350Y005320D02*
X025010Y005320D01*
X021930Y012430D02*
X021430Y012430D01*
X021180Y012680D01*
X020930Y012430D01*
X020430Y012430D01*
X020180Y012680D01*
X019930Y012430D01*
X019430Y012430D01*
X019180Y012680D01*
X019180Y013180D01*
X019430Y013430D01*
X019930Y013430D01*
X020180Y013180D01*
X020430Y013430D01*
X020930Y013430D01*
X021180Y013180D01*
X021430Y013430D01*
X021930Y013430D01*
X022180Y013180D01*
X022180Y012680D01*
X021930Y012430D01*
X021180Y012680D02*
X021180Y013180D01*
X020930Y013930D02*
X020430Y013930D01*
X020180Y014180D01*
X019930Y013930D01*
X019430Y013930D01*
X019180Y014180D01*
X019180Y014680D01*
X019430Y014930D01*
X019930Y014930D01*
X020180Y014680D01*
X020430Y014930D01*
X020930Y014930D01*
X021180Y014680D01*
X021430Y014930D01*
X021930Y014930D01*
X022180Y014680D01*
X022180Y014180D01*
X021930Y013930D01*
X021430Y013930D01*
X021180Y014180D01*
X020930Y013930D01*
X021180Y014180D02*
X021180Y014680D01*
X020930Y015430D02*
X020430Y015430D01*
X020180Y015680D01*
X019930Y015430D01*
X019430Y015430D01*
X019180Y015680D01*
X019180Y016180D01*
X019430Y016430D01*
X019930Y016430D01*
X020180Y016180D01*
X020430Y016430D01*
X020930Y016430D01*
X021180Y016180D01*
X021430Y016430D01*
X021930Y016430D01*
X022180Y016180D01*
X022180Y015680D01*
X021930Y015430D01*
X021430Y015430D01*
X021180Y015680D01*
X020930Y015430D01*
X021180Y015680D02*
X021180Y016180D01*
X020180Y016180D02*
X020180Y015680D01*
X020180Y014680D02*
X020180Y014180D01*
X020180Y013180D02*
X020180Y012680D01*
X018180Y013930D02*
X017930Y013680D01*
X017430Y013680D01*
X017180Y013930D01*
X017180Y015430D01*
X016930Y015680D01*
X016430Y015680D01*
X016180Y015430D01*
X016180Y013930D01*
X015930Y013680D01*
X015430Y013680D01*
X015180Y013930D01*
X015180Y015430D01*
X014930Y015680D01*
X014430Y015680D01*
X014180Y015430D01*
X013930Y015680D01*
X013430Y015680D01*
X013180Y015430D01*
X013180Y013930D01*
X013430Y013680D01*
X013930Y013680D01*
X014180Y013930D01*
X014180Y015430D01*
X015180Y015430D02*
X015430Y015680D01*
X015930Y015680D01*
X016180Y015430D01*
X017180Y015430D02*
X017430Y015680D01*
X017930Y015680D01*
X018180Y015430D01*
X018180Y013930D01*
X017180Y013930D02*
X016930Y013680D01*
X016430Y013680D01*
X016180Y013930D01*
X015180Y013930D02*
X014930Y013680D01*
X014430Y013680D01*
X014180Y013930D01*
X012430Y012180D02*
X012680Y011930D01*
X012680Y011430D01*
X012430Y011180D01*
X012680Y010930D01*
X012680Y010430D01*
X012430Y010180D01*
X011930Y010180D01*
X011680Y010430D01*
X011680Y010930D01*
X011930Y011180D01*
X011680Y011430D01*
X011680Y011930D01*
X011930Y012180D01*
X012430Y012180D01*
X012430Y011180D02*
X011930Y011180D01*
X005680Y010930D02*
X005680Y010430D01*
X005430Y010180D01*
X004930Y010180D01*
X004680Y010430D01*
X004680Y010930D01*
X004930Y011180D01*
X004680Y011430D01*
X004680Y011930D01*
X004930Y012180D01*
X005430Y012180D01*
X005680Y011930D01*
X005680Y011430D01*
X005430Y011180D01*
X005680Y010930D01*
X005430Y011180D02*
X004930Y011180D01*
X004930Y010180D02*
X004680Y009930D01*
X004680Y009430D01*
X004930Y009180D01*
X004680Y008930D01*
X004680Y008430D01*
X004930Y008180D01*
X004680Y007930D01*
X004680Y007430D01*
X004930Y007180D01*
X005430Y007180D01*
X005680Y007430D01*
X005680Y007930D01*
X005430Y008180D01*
X004930Y008180D01*
X005430Y008180D02*
X005680Y008430D01*
X005680Y008930D01*
X005430Y009180D01*
X004930Y009180D01*
X005430Y009180D02*
X005680Y009430D01*
X005680Y009930D01*
X005430Y010180D01*
X005430Y007180D02*
X005680Y006930D01*
X005680Y006430D01*
X005430Y006180D01*
X005680Y005930D01*
X005680Y005430D01*
X005430Y005180D01*
X004930Y005180D01*
X004680Y005430D01*
X004680Y005930D01*
X004930Y006180D01*
X004680Y006430D01*
X004680Y006930D01*
X004930Y007180D01*
X004930Y006180D02*
X005430Y006180D01*
X004320Y005350D02*
X004320Y005010D01*
X004040Y005010D02*
X004040Y005350D01*
X002880Y006830D02*
X002880Y007080D01*
X001980Y007080D01*
X001980Y006830D01*
X002430Y006830D01*
X002880Y006830D01*
X002430Y006830D02*
X002430Y006730D01*
X002430Y006530D01*
X000430Y007180D02*
X000432Y007269D01*
X000438Y007358D01*
X000448Y007447D01*
X000462Y007535D01*
X000479Y007622D01*
X000501Y007708D01*
X000527Y007794D01*
X000556Y007878D01*
X000589Y007961D01*
X000625Y008042D01*
X000666Y008122D01*
X000709Y008199D01*
X000756Y008275D01*
X000807Y008348D01*
X000860Y008419D01*
X000917Y008488D01*
X000977Y008554D01*
X001040Y008618D01*
X001105Y008678D01*
X001173Y008736D01*
X001244Y008790D01*
X001317Y008841D01*
X001392Y008889D01*
X001469Y008934D01*
X001548Y008975D01*
X001629Y009012D01*
X001711Y009046D01*
X001795Y009077D01*
X001880Y009103D01*
X001966Y009126D01*
X002053Y009144D01*
X002141Y009159D01*
X002230Y009170D01*
X002319Y009177D01*
X002408Y009180D01*
X002497Y009179D01*
X002586Y009174D01*
X002674Y009165D01*
X002763Y009152D01*
X002850Y009135D01*
X002937Y009115D01*
X003023Y009090D01*
X003107Y009062D01*
X003190Y009030D01*
X003272Y008994D01*
X003352Y008955D01*
X003430Y008912D01*
X003506Y008866D01*
X003580Y008816D01*
X003652Y008763D01*
X003721Y008707D01*
X003788Y008648D01*
X003852Y008586D01*
X003913Y008522D01*
X003972Y008454D01*
X004027Y008384D01*
X004079Y008312D01*
X004128Y008237D01*
X004173Y008161D01*
X004215Y008082D01*
X004253Y008002D01*
X004288Y007920D01*
X004319Y007836D01*
X004347Y007751D01*
X004370Y007665D01*
X004390Y007578D01*
X004406Y007491D01*
X004418Y007402D01*
X004426Y007314D01*
X004430Y007225D01*
X004430Y007135D01*
X004426Y007046D01*
X004418Y006958D01*
X004406Y006869D01*
X004390Y006782D01*
X004370Y006695D01*
X004347Y006609D01*
X004319Y006524D01*
X004288Y006440D01*
X004253Y006358D01*
X004215Y006278D01*
X004173Y006199D01*
X004128Y006123D01*
X004079Y006048D01*
X004027Y005976D01*
X003972Y005906D01*
X003913Y005838D01*
X003852Y005774D01*
X003788Y005712D01*
X003721Y005653D01*
X003652Y005597D01*
X003580Y005544D01*
X003506Y005494D01*
X003430Y005448D01*
X003352Y005405D01*
X003272Y005366D01*
X003190Y005330D01*
X003107Y005298D01*
X003023Y005270D01*
X002937Y005245D01*
X002850Y005225D01*
X002763Y005208D01*
X002674Y005195D01*
X002586Y005186D01*
X002497Y005181D01*
X002408Y005180D01*
X002319Y005183D01*
X002230Y005190D01*
X002141Y005201D01*
X002053Y005216D01*
X001966Y005234D01*
X001880Y005257D01*
X001795Y005283D01*
X001711Y005314D01*
X001629Y005348D01*
X001548Y005385D01*
X001469Y005426D01*
X001392Y005471D01*
X001317Y005519D01*
X001244Y005570D01*
X001173Y005624D01*
X001105Y005682D01*
X001040Y005742D01*
X000977Y005806D01*
X000917Y005872D01*
X000860Y005941D01*
X000807Y006012D01*
X000756Y006085D01*
X000709Y006161D01*
X000666Y006238D01*
X000625Y006318D01*
X000589Y006399D01*
X000556Y006482D01*
X000527Y006566D01*
X000501Y006652D01*
X000479Y006738D01*
X000462Y006825D01*
X000448Y006913D01*
X000438Y007002D01*
X000432Y007091D01*
X000430Y007180D01*
X001780Y005680D02*
X002080Y005680D01*
X001930Y005830D02*
X001930Y005530D01*
X002430Y007430D02*
X002430Y007630D01*
X002430Y007830D01*
X004180Y002930D02*
X004680Y002930D01*
X008480Y003300D02*
X008482Y003328D01*
X008488Y003355D01*
X008497Y003381D01*
X008510Y003406D01*
X008527Y003429D01*
X008546Y003449D01*
X008568Y003466D01*
X008592Y003480D01*
X008618Y003490D01*
X008645Y003497D01*
X008673Y003500D01*
X008701Y003499D01*
X008728Y003494D01*
X008755Y003485D01*
X008780Y003473D01*
X008803Y003458D01*
X008824Y003439D01*
X008842Y003418D01*
X008857Y003394D01*
X008868Y003368D01*
X008876Y003342D01*
X008880Y003314D01*
X008880Y003286D01*
X008876Y003258D01*
X008868Y003232D01*
X008857Y003206D01*
X008842Y003182D01*
X008824Y003161D01*
X008803Y003142D01*
X008780Y003127D01*
X008755Y003115D01*
X008728Y003106D01*
X008701Y003101D01*
X008673Y003100D01*
X008645Y003103D01*
X008618Y003110D01*
X008592Y003120D01*
X008568Y003134D01*
X008546Y003151D01*
X008527Y003171D01*
X008510Y003194D01*
X008497Y003219D01*
X008488Y003245D01*
X008482Y003272D01*
X008480Y003300D01*
X004320Y013510D02*
X004320Y013850D01*
X004040Y013850D02*
X004040Y013510D01*
X004680Y013930D02*
X004680Y014430D01*
X004930Y014680D01*
X004680Y014930D01*
X004680Y015430D01*
X004930Y015680D01*
X004680Y015930D01*
X004680Y016430D01*
X004930Y016680D01*
X004680Y016930D01*
X004680Y017430D01*
X004930Y017680D01*
X004680Y017930D01*
X004680Y018430D01*
X004930Y018680D01*
X004680Y018930D01*
X004680Y019430D01*
X004930Y019680D01*
X004680Y019930D01*
X004680Y020430D01*
X004930Y020680D01*
X005430Y020680D01*
X005680Y020430D01*
X005680Y019930D01*
X005430Y019680D01*
X005680Y019430D01*
X005680Y018930D01*
X005430Y018680D01*
X004930Y018680D01*
X005430Y018680D02*
X005680Y018430D01*
X005680Y017930D01*
X005430Y017680D01*
X005680Y017430D01*
X005680Y016930D01*
X005430Y016680D01*
X005680Y016430D01*
X005680Y015930D01*
X005430Y015680D01*
X004930Y015680D01*
X005430Y015680D02*
X005680Y015430D01*
X005680Y014930D01*
X005430Y014680D01*
X005680Y014430D01*
X005680Y013930D01*
X005430Y013680D01*
X004930Y013680D01*
X004680Y013930D01*
X004930Y014680D02*
X005430Y014680D01*
X005430Y016680D02*
X004930Y016680D01*
X004930Y017680D02*
X005430Y017680D01*
X005430Y019680D02*
X004930Y019680D01*
X003600Y021540D02*
X003260Y021540D01*
X003260Y021820D02*
X003600Y021820D01*
X003680Y022430D02*
X003180Y022430D01*
X002930Y022680D01*
X002680Y022430D01*
X002180Y022430D01*
X001930Y022680D01*
X001680Y022430D01*
X001180Y022430D01*
X000930Y022680D01*
X000930Y023180D01*
X001180Y023430D01*
X001680Y023430D01*
X001930Y023180D01*
X002180Y023430D01*
X002680Y023430D01*
X002930Y023180D01*
X003180Y023430D01*
X003680Y023430D01*
X003930Y023180D01*
X003930Y022680D01*
X003680Y022430D01*
X002930Y022680D02*
X002930Y023180D01*
X001930Y023180D02*
X001930Y022680D01*
X003260Y026290D02*
X003600Y026290D01*
X003600Y026570D02*
X003260Y026570D01*
X003180Y027180D02*
X002930Y027430D01*
X002680Y027180D01*
X002180Y027180D01*
X001930Y027430D01*
X001680Y027180D01*
X001180Y027180D01*
X000930Y027430D01*
X000930Y027930D01*
X001180Y028180D01*
X001680Y028180D01*
X001930Y027930D01*
X002180Y028180D01*
X002680Y028180D01*
X002930Y027930D01*
X003180Y028180D01*
X003680Y028180D01*
X003930Y027930D01*
X003930Y027430D01*
X003680Y027180D01*
X003180Y027180D01*
X002930Y027430D02*
X002930Y027930D01*
X001930Y027930D02*
X001930Y027430D01*
X006180Y023930D02*
X006180Y023430D01*
X006430Y023180D01*
X006930Y023180D01*
X007180Y023430D01*
X007430Y023180D01*
X007930Y023180D01*
X008180Y023430D01*
X008430Y023180D01*
X008930Y023180D01*
X009180Y023430D01*
X009430Y023180D01*
X009930Y023180D01*
X010180Y023430D01*
X010430Y023180D01*
X010930Y023180D01*
X011180Y023430D01*
X011430Y023180D01*
X011930Y023180D01*
X012180Y023430D01*
X012430Y023180D01*
X012930Y023180D01*
X013180Y023430D01*
X013430Y023180D01*
X013930Y023180D01*
X014180Y023430D01*
X014180Y023930D01*
X013930Y024180D01*
X013430Y024180D01*
X013180Y023930D01*
X012930Y024180D01*
X012430Y024180D01*
X012180Y023930D01*
X011930Y024180D01*
X011430Y024180D01*
X011180Y023930D01*
X010930Y024180D01*
X010430Y024180D01*
X010180Y023930D01*
X009930Y024180D01*
X009430Y024180D01*
X009180Y023930D01*
X008930Y024180D01*
X008430Y024180D01*
X008180Y023930D01*
X007930Y024180D01*
X007430Y024180D01*
X007180Y023930D01*
X006930Y024180D01*
X006430Y024180D01*
X006180Y023930D01*
X006540Y022350D02*
X006540Y022010D01*
X006820Y022010D02*
X006820Y022350D01*
X007540Y022350D02*
X007540Y022010D01*
X007820Y022010D02*
X007820Y022350D01*
X011680Y020430D02*
X011680Y019930D01*
X011930Y019680D01*
X011680Y019430D01*
X011680Y018930D01*
X011930Y018680D01*
X012430Y018680D01*
X012680Y018930D01*
X012680Y019430D01*
X012430Y019680D01*
X011930Y019680D01*
X012430Y019680D02*
X012680Y019930D01*
X012680Y020430D01*
X012430Y020680D01*
X011930Y020680D01*
X011680Y020430D01*
X002880Y015580D02*
X002880Y015330D01*
X002430Y015330D01*
X001980Y015330D01*
X001980Y015580D01*
X002880Y015580D01*
X000430Y015680D02*
X000432Y015769D01*
X000438Y015858D01*
X000448Y015947D01*
X000462Y016035D01*
X000479Y016122D01*
X000501Y016208D01*
X000527Y016294D01*
X000556Y016378D01*
X000589Y016461D01*
X000625Y016542D01*
X000666Y016622D01*
X000709Y016699D01*
X000756Y016775D01*
X000807Y016848D01*
X000860Y016919D01*
X000917Y016988D01*
X000977Y017054D01*
X001040Y017118D01*
X001105Y017178D01*
X001173Y017236D01*
X001244Y017290D01*
X001317Y017341D01*
X001392Y017389D01*
X001469Y017434D01*
X001548Y017475D01*
X001629Y017512D01*
X001711Y017546D01*
X001795Y017577D01*
X001880Y017603D01*
X001966Y017626D01*
X002053Y017644D01*
X002141Y017659D01*
X002230Y017670D01*
X002319Y017677D01*
X002408Y017680D01*
X002497Y017679D01*
X002586Y017674D01*
X002674Y017665D01*
X002763Y017652D01*
X002850Y017635D01*
X002937Y017615D01*
X003023Y017590D01*
X003107Y017562D01*
X003190Y017530D01*
X003272Y017494D01*
X003352Y017455D01*
X003430Y017412D01*
X003506Y017366D01*
X003580Y017316D01*
X003652Y017263D01*
X003721Y017207D01*
X003788Y017148D01*
X003852Y017086D01*
X003913Y017022D01*
X003972Y016954D01*
X004027Y016884D01*
X004079Y016812D01*
X004128Y016737D01*
X004173Y016661D01*
X004215Y016582D01*
X004253Y016502D01*
X004288Y016420D01*
X004319Y016336D01*
X004347Y016251D01*
X004370Y016165D01*
X004390Y016078D01*
X004406Y015991D01*
X004418Y015902D01*
X004426Y015814D01*
X004430Y015725D01*
X004430Y015635D01*
X004426Y015546D01*
X004418Y015458D01*
X004406Y015369D01*
X004390Y015282D01*
X004370Y015195D01*
X004347Y015109D01*
X004319Y015024D01*
X004288Y014940D01*
X004253Y014858D01*
X004215Y014778D01*
X004173Y014699D01*
X004128Y014623D01*
X004079Y014548D01*
X004027Y014476D01*
X003972Y014406D01*
X003913Y014338D01*
X003852Y014274D01*
X003788Y014212D01*
X003721Y014153D01*
X003652Y014097D01*
X003580Y014044D01*
X003506Y013994D01*
X003430Y013948D01*
X003352Y013905D01*
X003272Y013866D01*
X003190Y013830D01*
X003107Y013798D01*
X003023Y013770D01*
X002937Y013745D01*
X002850Y013725D01*
X002763Y013708D01*
X002674Y013695D01*
X002586Y013686D01*
X002497Y013681D01*
X002408Y013680D01*
X002319Y013683D01*
X002230Y013690D01*
X002141Y013701D01*
X002053Y013716D01*
X001966Y013734D01*
X001880Y013757D01*
X001795Y013783D01*
X001711Y013814D01*
X001629Y013848D01*
X001548Y013885D01*
X001469Y013926D01*
X001392Y013971D01*
X001317Y014019D01*
X001244Y014070D01*
X001173Y014124D01*
X001105Y014182D01*
X001040Y014242D01*
X000977Y014306D01*
X000917Y014372D01*
X000860Y014441D01*
X000807Y014512D01*
X000756Y014585D01*
X000709Y014661D01*
X000666Y014738D01*
X000625Y014818D01*
X000589Y014899D01*
X000556Y014982D01*
X000527Y015066D01*
X000501Y015152D01*
X000479Y015238D01*
X000462Y015325D01*
X000448Y015413D01*
X000438Y015502D01*
X000432Y015591D01*
X000430Y015680D01*
X001780Y014180D02*
X002080Y014180D01*
X001930Y014330D02*
X001930Y014030D01*
X002430Y015030D02*
X002430Y015230D01*
X002430Y015330D01*
X002430Y015930D02*
X002430Y016130D01*
X002430Y016330D01*
X024030Y029680D02*
X024230Y029680D01*
X024430Y029680D01*
X022680Y029680D02*
X022682Y029769D01*
X022688Y029858D01*
X022698Y029947D01*
X022712Y030035D01*
X022729Y030122D01*
X022751Y030208D01*
X022777Y030294D01*
X022806Y030378D01*
X022839Y030461D01*
X022875Y030542D01*
X022916Y030622D01*
X022959Y030699D01*
X023006Y030775D01*
X023057Y030848D01*
X023110Y030919D01*
X023167Y030988D01*
X023227Y031054D01*
X023290Y031118D01*
X023355Y031178D01*
X023423Y031236D01*
X023494Y031290D01*
X023567Y031341D01*
X023642Y031389D01*
X023719Y031434D01*
X023798Y031475D01*
X023879Y031512D01*
X023961Y031546D01*
X024045Y031577D01*
X024130Y031603D01*
X024216Y031626D01*
X024303Y031644D01*
X024391Y031659D01*
X024480Y031670D01*
X024569Y031677D01*
X024658Y031680D01*
X024747Y031679D01*
X024836Y031674D01*
X024924Y031665D01*
X025013Y031652D01*
X025100Y031635D01*
X025187Y031615D01*
X025273Y031590D01*
X025357Y031562D01*
X025440Y031530D01*
X025522Y031494D01*
X025602Y031455D01*
X025680Y031412D01*
X025756Y031366D01*
X025830Y031316D01*
X025902Y031263D01*
X025971Y031207D01*
X026038Y031148D01*
X026102Y031086D01*
X026163Y031022D01*
X026222Y030954D01*
X026277Y030884D01*
X026329Y030812D01*
X026378Y030737D01*
X026423Y030661D01*
X026465Y030582D01*
X026503Y030502D01*
X026538Y030420D01*
X026569Y030336D01*
X026597Y030251D01*
X026620Y030165D01*
X026640Y030078D01*
X026656Y029991D01*
X026668Y029902D01*
X026676Y029814D01*
X026680Y029725D01*
X026680Y029635D01*
X026676Y029546D01*
X026668Y029458D01*
X026656Y029369D01*
X026640Y029282D01*
X026620Y029195D01*
X026597Y029109D01*
X026569Y029024D01*
X026538Y028940D01*
X026503Y028858D01*
X026465Y028778D01*
X026423Y028699D01*
X026378Y028623D01*
X026329Y028548D01*
X026277Y028476D01*
X026222Y028406D01*
X026163Y028338D01*
X026102Y028274D01*
X026038Y028212D01*
X025971Y028153D01*
X025902Y028097D01*
X025830Y028044D01*
X025756Y027994D01*
X025680Y027948D01*
X025602Y027905D01*
X025522Y027866D01*
X025440Y027830D01*
X025357Y027798D01*
X025273Y027770D01*
X025187Y027745D01*
X025100Y027725D01*
X025013Y027708D01*
X024924Y027695D01*
X024836Y027686D01*
X024747Y027681D01*
X024658Y027680D01*
X024569Y027683D01*
X024480Y027690D01*
X024391Y027701D01*
X024303Y027716D01*
X024216Y027734D01*
X024130Y027757D01*
X024045Y027783D01*
X023961Y027814D01*
X023879Y027848D01*
X023798Y027885D01*
X023719Y027926D01*
X023642Y027971D01*
X023567Y028019D01*
X023494Y028070D01*
X023423Y028124D01*
X023355Y028182D01*
X023290Y028242D01*
X023227Y028306D01*
X023167Y028372D01*
X023110Y028441D01*
X023057Y028512D01*
X023006Y028585D01*
X022959Y028661D01*
X022916Y028738D01*
X022875Y028818D01*
X022839Y028899D01*
X022806Y028982D01*
X022777Y029066D01*
X022751Y029152D01*
X022729Y029238D01*
X022712Y029325D01*
X022698Y029413D01*
X022688Y029502D01*
X022682Y029591D01*
X022680Y029680D01*
X024780Y029230D02*
X025030Y029230D01*
X025030Y029680D01*
X025030Y030130D01*
X024780Y030130D01*
X024780Y029230D01*
X025030Y029680D02*
X025130Y029680D01*
X025330Y029680D01*
X026030Y029180D02*
X026330Y029180D01*
X026180Y029030D02*
X026180Y029330D01*
X026040Y025350D02*
X026040Y025010D01*
X026320Y025010D02*
X026320Y025350D01*
D11*
X024680Y001955D03*
X002430Y007405D03*
X002430Y015905D03*
D12*
X004135Y022320D02*
X004135Y023540D01*
X004725Y023540D02*
X004725Y022320D01*
X000757Y022450D02*
X000450Y022450D01*
X000603Y022450D02*
X000603Y022910D01*
X000450Y022757D01*
X000450Y027200D02*
X000757Y027200D01*
X000603Y027200D02*
X000603Y027660D01*
X000450Y027507D01*
X004135Y027070D02*
X004135Y028290D01*
X004725Y028290D02*
X004725Y027070D01*
X018700Y015757D02*
X018853Y015910D01*
X018853Y015450D01*
X018700Y015450D02*
X019007Y015450D01*
X018853Y014410D02*
X018853Y013950D01*
X018700Y013950D02*
X019007Y013950D01*
X018700Y014257D02*
X018853Y014410D01*
X018853Y012910D02*
X018853Y012450D01*
X018700Y012450D02*
X019007Y012450D01*
X018700Y012757D02*
X018853Y012910D01*
X018350Y006820D02*
X018350Y006540D01*
X018015Y006540D02*
X018015Y006820D01*
X017350Y006820D02*
X017350Y006540D01*
X017015Y006540D02*
X017015Y006820D01*
X016475Y006790D02*
X016475Y005570D01*
X015885Y005570D02*
X015885Y006790D01*
X014350Y006820D02*
X014350Y006540D01*
X014015Y006540D02*
X014015Y006820D01*
X013350Y006820D02*
X013350Y006540D01*
X013015Y006540D02*
X013015Y006820D01*
X012475Y006790D02*
X012475Y005570D01*
X011885Y005570D02*
X011885Y006790D01*
X014570Y002975D02*
X015790Y002975D01*
X015790Y002385D02*
X014570Y002385D01*
X019885Y005570D02*
X019885Y006790D01*
X020475Y006790D02*
X020475Y005570D01*
X021015Y006540D02*
X021015Y006820D01*
X021350Y006820D02*
X021350Y006540D01*
X022015Y006540D02*
X022015Y006820D01*
X022350Y006820D02*
X022350Y006540D01*
X023885Y006790D02*
X023885Y005570D01*
X024475Y005570D02*
X024475Y006790D01*
X025015Y006820D02*
X025015Y006540D01*
X025350Y006540D02*
X025350Y006820D01*
X026015Y006820D02*
X026015Y006540D01*
X026350Y006540D02*
X026350Y006820D01*
X004410Y004297D02*
X004410Y003990D01*
X004410Y004143D02*
X003950Y004143D01*
X004103Y003990D01*
D13*
X013182Y006452D03*
X013182Y006912D03*
X014182Y006912D03*
X014182Y006452D03*
X017182Y006452D03*
X017182Y006912D03*
X018182Y006912D03*
X018182Y006452D03*
X021182Y006452D03*
X021182Y006912D03*
X022182Y006912D03*
X022182Y006452D03*
X025182Y006452D03*
X025182Y006912D03*
X026182Y006912D03*
X026182Y006452D03*
D14*
X021680Y001680D02*
X021130Y001680D01*
X016230Y001680D02*
X015680Y001680D01*
D15*
X017180Y001680D03*
D16*
X016505Y001680D03*
X020855Y001680D03*
D17*
X020377Y005589D02*
X020375Y005616D01*
X020370Y005642D01*
X020361Y005667D01*
X020348Y005691D01*
X020333Y005713D01*
X020314Y005733D01*
X020294Y005750D01*
X020271Y005764D01*
X020246Y005775D01*
X020220Y005782D01*
X020193Y005786D01*
X020167Y005786D01*
X020140Y005782D01*
X020114Y005775D01*
X020089Y005764D01*
X020066Y005750D01*
X020046Y005733D01*
X020027Y005713D01*
X020012Y005691D01*
X019999Y005667D01*
X019990Y005642D01*
X019985Y005616D01*
X019983Y005589D01*
X019983Y006771D02*
X019985Y006744D01*
X019990Y006718D01*
X019999Y006693D01*
X020012Y006669D01*
X020027Y006647D01*
X020046Y006627D01*
X020066Y006610D01*
X020089Y006596D01*
X020114Y006585D01*
X020140Y006578D01*
X020167Y006574D01*
X020193Y006574D01*
X020220Y006578D01*
X020246Y006585D01*
X020271Y006596D01*
X020294Y006610D01*
X020314Y006627D01*
X020333Y006647D01*
X020348Y006669D01*
X020361Y006693D01*
X020370Y006718D01*
X020375Y006744D01*
X020377Y006771D01*
X019890Y008830D02*
X019890Y011190D01*
X022470Y011190D01*
X022470Y008830D01*
X019890Y008830D01*
X018470Y008830D02*
X015890Y008830D01*
X015890Y011190D01*
X018470Y011190D01*
X018470Y008830D01*
X018190Y011230D02*
X016170Y011230D01*
X016170Y011510D01*
X016350Y011690D01*
X018010Y011690D01*
X018190Y011510D01*
X018190Y011230D01*
X020170Y011230D02*
X022190Y011230D01*
X022190Y011510D01*
X022010Y011690D01*
X020350Y011690D01*
X020170Y011510D01*
X020170Y011230D01*
X023890Y011190D02*
X026470Y011190D01*
X026470Y008830D01*
X023890Y008830D01*
X023890Y011190D01*
X024170Y011230D02*
X024170Y011510D01*
X024350Y011690D01*
X026010Y011690D01*
X026190Y011510D01*
X026190Y011230D01*
X024170Y011230D01*
X023983Y006771D02*
X023985Y006744D01*
X023990Y006718D01*
X023999Y006693D01*
X024012Y006669D01*
X024027Y006647D01*
X024046Y006627D01*
X024066Y006610D01*
X024089Y006596D01*
X024114Y006585D01*
X024140Y006578D01*
X024167Y006574D01*
X024193Y006574D01*
X024220Y006578D01*
X024246Y006585D01*
X024271Y006596D01*
X024294Y006610D01*
X024314Y006627D01*
X024333Y006647D01*
X024348Y006669D01*
X024361Y006693D01*
X024370Y006718D01*
X024375Y006744D01*
X024377Y006771D01*
X024377Y005589D02*
X024375Y005616D01*
X024370Y005642D01*
X024361Y005667D01*
X024348Y005691D01*
X024333Y005713D01*
X024314Y005733D01*
X024294Y005750D01*
X024271Y005764D01*
X024246Y005775D01*
X024220Y005782D01*
X024193Y005786D01*
X024167Y005786D01*
X024140Y005782D01*
X024114Y005775D01*
X024089Y005764D01*
X024066Y005750D01*
X024046Y005733D01*
X024027Y005713D01*
X024012Y005691D01*
X023999Y005667D01*
X023990Y005642D01*
X023985Y005616D01*
X023983Y005589D01*
X016377Y005589D02*
X016375Y005616D01*
X016370Y005642D01*
X016361Y005667D01*
X016348Y005691D01*
X016333Y005713D01*
X016314Y005733D01*
X016294Y005750D01*
X016271Y005764D01*
X016246Y005775D01*
X016220Y005782D01*
X016193Y005786D01*
X016167Y005786D01*
X016140Y005782D01*
X016114Y005775D01*
X016089Y005764D01*
X016066Y005750D01*
X016046Y005733D01*
X016027Y005713D01*
X016012Y005691D01*
X015999Y005667D01*
X015990Y005642D01*
X015985Y005616D01*
X015983Y005589D01*
X015983Y006771D02*
X015985Y006744D01*
X015990Y006718D01*
X015999Y006693D01*
X016012Y006669D01*
X016027Y006647D01*
X016046Y006627D01*
X016066Y006610D01*
X016089Y006596D01*
X016114Y006585D01*
X016140Y006578D01*
X016167Y006574D01*
X016193Y006574D01*
X016220Y006578D01*
X016246Y006585D01*
X016271Y006596D01*
X016294Y006610D01*
X016314Y006627D01*
X016333Y006647D01*
X016348Y006669D01*
X016361Y006693D01*
X016370Y006718D01*
X016375Y006744D01*
X016377Y006771D01*
X015771Y002877D02*
X015744Y002875D01*
X015718Y002870D01*
X015693Y002861D01*
X015669Y002848D01*
X015647Y002833D01*
X015627Y002814D01*
X015610Y002794D01*
X015596Y002771D01*
X015585Y002746D01*
X015578Y002720D01*
X015574Y002693D01*
X015574Y002667D01*
X015578Y002640D01*
X015585Y002614D01*
X015596Y002589D01*
X015610Y002566D01*
X015627Y002546D01*
X015647Y002527D01*
X015669Y002512D01*
X015693Y002499D01*
X015718Y002490D01*
X015744Y002485D01*
X015771Y002483D01*
X014589Y002483D02*
X014616Y002485D01*
X014642Y002490D01*
X014667Y002499D01*
X014691Y002512D01*
X014713Y002527D01*
X014733Y002546D01*
X014750Y002566D01*
X014764Y002589D01*
X014775Y002614D01*
X014782Y002640D01*
X014786Y002667D01*
X014786Y002693D01*
X014782Y002720D01*
X014775Y002746D01*
X014764Y002771D01*
X014750Y002794D01*
X014733Y002814D01*
X014713Y002833D01*
X014691Y002848D01*
X014667Y002861D01*
X014642Y002870D01*
X014616Y002875D01*
X014589Y002877D01*
X012377Y005589D02*
X012375Y005616D01*
X012370Y005642D01*
X012361Y005667D01*
X012348Y005691D01*
X012333Y005713D01*
X012314Y005733D01*
X012294Y005750D01*
X012271Y005764D01*
X012246Y005775D01*
X012220Y005782D01*
X012193Y005786D01*
X012167Y005786D01*
X012140Y005782D01*
X012114Y005775D01*
X012089Y005764D01*
X012066Y005750D01*
X012046Y005733D01*
X012027Y005713D01*
X012012Y005691D01*
X011999Y005667D01*
X011990Y005642D01*
X011985Y005616D01*
X011983Y005589D01*
X011983Y006771D02*
X011985Y006744D01*
X011990Y006718D01*
X011999Y006693D01*
X012012Y006669D01*
X012027Y006647D01*
X012046Y006627D01*
X012066Y006610D01*
X012089Y006596D01*
X012114Y006585D01*
X012140Y006578D01*
X012167Y006574D01*
X012193Y006574D01*
X012220Y006578D01*
X012246Y006585D01*
X012271Y006596D01*
X012294Y006610D01*
X012314Y006627D01*
X012333Y006647D01*
X012348Y006669D01*
X012361Y006693D01*
X012370Y006718D01*
X012375Y006744D01*
X012377Y006771D01*
X015180Y017180D02*
X015180Y031180D01*
X018180Y031180D01*
X018180Y030680D01*
X019180Y030680D01*
X019180Y031180D01*
X022180Y031180D01*
X022180Y017180D01*
X015180Y017180D01*
X013143Y024921D02*
X013143Y032244D01*
X007217Y032244D01*
X007217Y024921D01*
X013143Y024921D01*
X004627Y023521D02*
X004625Y023494D01*
X004620Y023468D01*
X004611Y023443D01*
X004598Y023419D01*
X004583Y023397D01*
X004564Y023377D01*
X004544Y023360D01*
X004521Y023346D01*
X004496Y023335D01*
X004470Y023328D01*
X004443Y023324D01*
X004417Y023324D01*
X004390Y023328D01*
X004364Y023335D01*
X004339Y023346D01*
X004316Y023360D01*
X004296Y023377D01*
X004277Y023397D01*
X004262Y023419D01*
X004249Y023443D01*
X004240Y023468D01*
X004235Y023494D01*
X004233Y023521D01*
X004233Y022339D02*
X004235Y022366D01*
X004240Y022392D01*
X004249Y022417D01*
X004262Y022441D01*
X004277Y022463D01*
X004296Y022483D01*
X004316Y022500D01*
X004339Y022514D01*
X004364Y022525D01*
X004390Y022532D01*
X004417Y022536D01*
X004443Y022536D01*
X004470Y022532D01*
X004496Y022525D01*
X004521Y022514D01*
X004544Y022500D01*
X004564Y022483D01*
X004583Y022463D01*
X004598Y022441D01*
X004611Y022417D01*
X004620Y022392D01*
X004625Y022366D01*
X004627Y022339D01*
X004627Y027089D02*
X004625Y027116D01*
X004620Y027142D01*
X004611Y027167D01*
X004598Y027191D01*
X004583Y027213D01*
X004564Y027233D01*
X004544Y027250D01*
X004521Y027264D01*
X004496Y027275D01*
X004470Y027282D01*
X004443Y027286D01*
X004417Y027286D01*
X004390Y027282D01*
X004364Y027275D01*
X004339Y027264D01*
X004316Y027250D01*
X004296Y027233D01*
X004277Y027213D01*
X004262Y027191D01*
X004249Y027167D01*
X004240Y027142D01*
X004235Y027116D01*
X004233Y027089D01*
X004233Y028271D02*
X004235Y028244D01*
X004240Y028218D01*
X004249Y028193D01*
X004262Y028169D01*
X004277Y028147D01*
X004296Y028127D01*
X004316Y028110D01*
X004339Y028096D01*
X004364Y028085D01*
X004390Y028078D01*
X004417Y028074D01*
X004443Y028074D01*
X004470Y028078D01*
X004496Y028085D01*
X004521Y028096D01*
X004544Y028110D01*
X004564Y028127D01*
X004583Y028147D01*
X004598Y028169D01*
X004611Y028193D01*
X004620Y028218D01*
X004625Y028244D01*
X004627Y028271D01*
D18*
X016280Y008220D03*
X018080Y008220D03*
X020280Y008220D03*
X022080Y008220D03*
X024280Y008220D03*
X026080Y008220D03*
D19*
X025180Y008640D03*
X021180Y008640D03*
X017180Y008640D03*
D20*
X018190Y011230D02*
X016170Y011230D01*
X016170Y011510D01*
X016350Y011690D01*
X018010Y011690D01*
X018190Y011510D01*
X018190Y011230D01*
X018190Y011291D02*
X016170Y011291D01*
X016170Y011368D02*
X018190Y011368D01*
X018190Y011446D02*
X016170Y011446D01*
X016183Y011523D02*
X018177Y011523D01*
X018100Y011600D02*
X016260Y011600D01*
X016337Y011677D02*
X018023Y011677D01*
X020170Y011510D02*
X020170Y011230D01*
X022190Y011230D01*
X022190Y011510D01*
X022010Y011690D01*
X020350Y011690D01*
X020170Y011510D01*
X020183Y011523D02*
X022177Y011523D01*
X022190Y011446D02*
X020170Y011446D01*
X020170Y011368D02*
X022190Y011368D01*
X022190Y011291D02*
X020170Y011291D01*
X020260Y011600D02*
X022100Y011600D01*
X022023Y011677D02*
X020337Y011677D01*
X024170Y011510D02*
X024170Y011230D01*
X026190Y011230D01*
X026190Y011510D01*
X026010Y011690D01*
X024350Y011690D01*
X024170Y011510D01*
X024183Y011523D02*
X026177Y011523D01*
X026190Y011446D02*
X024170Y011446D01*
X024170Y011368D02*
X026190Y011368D01*
X026190Y011291D02*
X024170Y011291D01*
X024260Y011600D02*
X026100Y011600D01*
X026023Y011677D02*
X024337Y011677D01*
D21*
X023973Y005895D03*
X019973Y005895D03*
X015973Y005895D03*
X015465Y002473D03*
X011973Y005895D03*
X004223Y022645D03*
X004223Y027395D03*
D22*
X014639Y002916D03*
X014639Y002444D03*
X015721Y002444D03*
X015721Y002916D03*
D23*
X015608Y002852D03*
X014752Y002508D03*
D24*
X015180Y002680D03*
X016180Y006180D03*
X020180Y006180D03*
X024180Y006180D03*
X012180Y006180D03*
X004430Y022930D03*
X004430Y027680D03*
D25*
X004194Y027139D03*
X004666Y027139D03*
X004666Y028221D03*
X004194Y028221D03*
X004194Y023471D03*
X004666Y023471D03*
X004666Y022389D03*
X004194Y022389D03*
X011944Y006721D03*
X012416Y006721D03*
X012416Y005639D03*
X011944Y005639D03*
X015944Y005639D03*
X016416Y005639D03*
X016416Y006721D03*
X015944Y006721D03*
X019944Y006721D03*
X020416Y006721D03*
X020416Y005639D03*
X019944Y005639D03*
X023944Y005639D03*
X024416Y005639D03*
X024416Y006721D03*
X023944Y006721D03*
D26*
X024008Y006608D03*
X024352Y005752D03*
X020352Y005752D03*
X020008Y006608D03*
X016352Y005752D03*
X016008Y006608D03*
X012352Y005752D03*
X012008Y006608D03*
X004602Y022502D03*
X004258Y023358D03*
X004602Y027252D03*
X004258Y028108D03*
D27*
X003680Y026430D03*
X003180Y026430D03*
X003180Y021680D03*
X003680Y021680D03*
X012930Y005180D03*
X013430Y005180D03*
X014930Y003430D03*
X015430Y003430D03*
X016930Y005180D03*
X017430Y005180D03*
X020930Y005180D03*
X021430Y005180D03*
X024930Y005180D03*
X025430Y005180D03*
D28*
X026180Y024930D03*
X026180Y025430D03*
X007680Y022430D03*
X007680Y021930D03*
X006680Y021930D03*
X006680Y022430D03*
X004180Y013930D03*
X004180Y013430D03*
X004180Y005430D03*
X004180Y004930D03*
D29*
X005955Y003005D02*
X006105Y003155D01*
X006105Y002705D01*
X005955Y002705D02*
X006255Y002705D01*
X007975Y002685D02*
X008275Y002985D01*
X008275Y003060D01*
X008200Y003135D01*
X008050Y003135D01*
X007975Y003060D01*
X007975Y002685D02*
X008275Y002685D01*
X009955Y002780D02*
X010030Y002705D01*
X010180Y002705D01*
X010255Y002780D01*
X010255Y002855D01*
X010180Y002930D01*
X010105Y002930D01*
X010180Y002930D02*
X010255Y003005D01*
X010255Y003080D01*
X010180Y003155D01*
X010030Y003155D01*
X009955Y003080D01*
X011975Y002910D02*
X012275Y002910D01*
X012200Y002685D02*
X012200Y003135D01*
X011975Y002910D01*
X003019Y009513D02*
X003019Y012269D01*
X000814Y012269D01*
X000814Y009513D01*
X003019Y009513D01*
X000814Y009513D02*
X000263Y009513D01*
X000263Y012269D01*
X000814Y012269D01*
X000814Y018013D02*
X000263Y018013D01*
X000263Y020769D01*
X000814Y020769D01*
X000814Y018013D01*
X003019Y018013D01*
X003019Y020769D01*
X000814Y020769D01*
X000814Y023763D02*
X000263Y023763D01*
X000263Y026519D01*
X000814Y026519D01*
X000814Y023763D01*
X003019Y023763D01*
X003019Y026519D01*
X000814Y026519D01*
X000814Y028513D02*
X000263Y028513D01*
X000263Y031269D01*
X000814Y031269D01*
X000814Y028513D01*
X003019Y028513D01*
X003019Y031269D01*
X000814Y031269D01*
X007180Y031430D02*
X013180Y031430D01*
X015180Y031180D02*
X015180Y017180D01*
X022180Y017180D01*
X022180Y031180D01*
X015180Y031180D01*
X013595Y024805D02*
X013595Y024355D01*
X013445Y024355D02*
X013745Y024355D01*
X013445Y024655D02*
X013595Y024805D01*
X006795Y022930D02*
X006795Y022855D01*
X006720Y022780D01*
X006570Y022780D01*
X006495Y022855D01*
X006495Y022930D01*
X006570Y023005D01*
X006720Y023005D01*
X006795Y022930D01*
X006720Y022780D02*
X006795Y022705D01*
X006795Y022630D01*
X006720Y022555D01*
X006570Y022555D01*
X006495Y022630D01*
X006495Y022705D01*
X006570Y022780D01*
D30*
X006680Y023680D03*
X007680Y023680D03*
X008680Y023680D03*
X009680Y023680D03*
X010680Y023680D03*
X011680Y023680D03*
X012680Y023680D03*
X013680Y023680D03*
X012180Y020180D03*
X012180Y019180D03*
X013680Y015180D03*
X013680Y014180D03*
X014680Y014180D03*
X014680Y015180D03*
X015680Y015180D03*
X015680Y014180D03*
X016680Y014180D03*
X016680Y015180D03*
X017680Y015180D03*
X017680Y014180D03*
X019680Y014430D03*
X020680Y014430D03*
X021680Y014430D03*
X021680Y012930D03*
X020680Y012930D03*
X019680Y012930D03*
X019680Y015930D03*
X020680Y015930D03*
X021680Y015930D03*
X012180Y011680D03*
X012180Y010680D03*
X005180Y010680D03*
X005180Y009680D03*
X005180Y008680D03*
X005180Y007680D03*
X005180Y006680D03*
X005180Y005680D03*
X004430Y003430D03*
X004430Y002430D03*
X004430Y001430D03*
X005180Y011680D03*
X005180Y014180D03*
X005180Y015180D03*
X005180Y016180D03*
X005180Y017180D03*
X005180Y018180D03*
X005180Y019180D03*
X005180Y020180D03*
X003430Y022930D03*
X002430Y022930D03*
X001430Y022930D03*
X001430Y027680D03*
X002430Y027680D03*
X003430Y027680D03*
D31*
X007080Y002320D02*
X006290Y001530D01*
X008320Y001520D02*
X009070Y002320D01*
X010290Y001530D02*
X011080Y002320D01*
X012320Y001520D02*
X013070Y002320D01*
D32*
X024455Y029680D03*
D33*
X006937Y031114D03*
D34*
X013428Y031114D03*
M02*
