G75*
%MOIN*%
%OFA0B0*%
%FSLAX24Y24*%
%IPPOS*%
%LPD*%
%AMOC8*
5,1,8,0,0,1.08239X$1,22.5*
%
%ADD10C,0.0080*%
%ADD11R,0.1140X0.0340*%
%ADD12R,0.0300X0.0340*%
%ADD13C,0.0079*%
%ADD14C,0.0060*%
%ADD15R,0.0340X0.0160*%
%ADD16R,0.0200X0.0200*%
D10*
X006850Y007670D02*
X006670Y007850D01*
X006670Y009510D01*
X006850Y009690D01*
X007130Y009690D01*
X007130Y007670D01*
X006850Y007670D01*
X007170Y007390D02*
X009530Y007390D01*
X009530Y009970D01*
X007170Y009970D01*
X007170Y007390D01*
X005530Y024390D02*
X003170Y024390D01*
X003170Y026970D01*
X005530Y026970D01*
X005530Y024390D01*
X003130Y024670D02*
X003130Y026690D01*
X002850Y026690D01*
X002670Y026510D01*
X002670Y024850D01*
X002850Y024670D01*
X003130Y024670D01*
X003170Y028640D02*
X003170Y031220D01*
X005530Y031220D01*
X005530Y028640D01*
X003170Y028640D01*
X003130Y028920D02*
X002850Y028920D01*
X002670Y029100D01*
X002670Y030760D01*
X002850Y030940D01*
X003130Y030940D01*
X003130Y028920D01*
D11*
X006140Y029030D03*
X006140Y030830D03*
X006140Y026580D03*
X006140Y024780D03*
X010140Y009580D03*
X010140Y007780D03*
D12*
X009720Y008680D03*
X005720Y025680D03*
X005720Y029930D03*
D13*
X006670Y007850D02*
X006850Y007670D01*
X007130Y007670D01*
X007130Y009690D01*
X006850Y009690D01*
X006670Y009510D01*
X006670Y007850D01*
X006701Y007819D02*
X007130Y007819D01*
X007130Y007742D02*
X006778Y007742D01*
X006670Y007896D02*
X007130Y007896D01*
X007130Y007973D02*
X006670Y007973D01*
X006670Y008050D02*
X007130Y008050D01*
X007130Y008128D02*
X006670Y008128D01*
X006670Y008205D02*
X007130Y008205D01*
X007130Y008282D02*
X006670Y008282D01*
X006670Y008359D02*
X007130Y008359D01*
X007130Y008436D02*
X006670Y008436D01*
X006670Y008513D02*
X007130Y008513D01*
X007130Y008591D02*
X006670Y008591D01*
X006670Y008668D02*
X007130Y008668D01*
X007130Y008745D02*
X006670Y008745D01*
X006670Y008822D02*
X007130Y008822D01*
X007130Y008899D02*
X006670Y008899D01*
X006670Y008976D02*
X007130Y008976D01*
X007130Y009054D02*
X006670Y009054D01*
X006670Y009131D02*
X007130Y009131D01*
X007130Y009208D02*
X006670Y009208D01*
X006670Y009285D02*
X007130Y009285D01*
X007130Y009362D02*
X006670Y009362D01*
X006670Y009439D02*
X007130Y009439D01*
X007130Y009517D02*
X006677Y009517D01*
X006754Y009594D02*
X007130Y009594D01*
X007130Y009671D02*
X006831Y009671D01*
X003130Y024670D02*
X002850Y024670D01*
X002670Y024850D01*
X002670Y026510D01*
X002850Y026690D01*
X003130Y026690D01*
X003130Y024670D01*
X003130Y024717D02*
X002803Y024717D01*
X002725Y024795D02*
X003130Y024795D01*
X003130Y024872D02*
X002670Y024872D01*
X002670Y024949D02*
X003130Y024949D01*
X003130Y025026D02*
X002670Y025026D01*
X002670Y025103D02*
X003130Y025103D01*
X003130Y025180D02*
X002670Y025180D01*
X002670Y025258D02*
X003130Y025258D01*
X003130Y025335D02*
X002670Y025335D01*
X002670Y025412D02*
X003130Y025412D01*
X003130Y025489D02*
X002670Y025489D01*
X002670Y025566D02*
X003130Y025566D01*
X003130Y025643D02*
X002670Y025643D01*
X002670Y025721D02*
X003130Y025721D01*
X003130Y025798D02*
X002670Y025798D01*
X002670Y025875D02*
X003130Y025875D01*
X003130Y025952D02*
X002670Y025952D01*
X002670Y026029D02*
X003130Y026029D01*
X003130Y026106D02*
X002670Y026106D01*
X002670Y026183D02*
X003130Y026183D01*
X003130Y026261D02*
X002670Y026261D01*
X002670Y026338D02*
X003130Y026338D01*
X003130Y026415D02*
X002670Y026415D01*
X002670Y026492D02*
X003130Y026492D01*
X003130Y026569D02*
X002729Y026569D01*
X002806Y026646D02*
X003130Y026646D01*
X003130Y028920D02*
X002850Y028920D01*
X002670Y029100D01*
X002670Y030760D01*
X002850Y030940D01*
X003130Y030940D01*
X003130Y028920D01*
X003130Y028961D02*
X002809Y028961D01*
X002732Y029038D02*
X003130Y029038D01*
X003130Y029116D02*
X002670Y029116D01*
X002670Y029193D02*
X003130Y029193D01*
X003130Y029270D02*
X002670Y029270D01*
X002670Y029347D02*
X003130Y029347D01*
X003130Y029424D02*
X002670Y029424D01*
X002670Y029501D02*
X003130Y029501D01*
X003130Y029579D02*
X002670Y029579D01*
X002670Y029656D02*
X003130Y029656D01*
X003130Y029733D02*
X002670Y029733D01*
X002670Y029810D02*
X003130Y029810D01*
X003130Y029887D02*
X002670Y029887D01*
X002670Y029964D02*
X003130Y029964D01*
X003130Y030042D02*
X002670Y030042D01*
X002670Y030119D02*
X003130Y030119D01*
X003130Y030196D02*
X002670Y030196D01*
X002670Y030273D02*
X003130Y030273D01*
X003130Y030350D02*
X002670Y030350D01*
X002670Y030427D02*
X003130Y030427D01*
X003130Y030505D02*
X002670Y030505D01*
X002670Y030582D02*
X003130Y030582D01*
X003130Y030659D02*
X002670Y030659D01*
X002670Y030736D02*
X003130Y030736D01*
X003130Y030813D02*
X002723Y030813D01*
X002800Y030890D02*
X003130Y030890D01*
D14*
X007540Y026850D02*
X007540Y026510D01*
X007820Y026510D02*
X007820Y026850D01*
X009040Y027510D02*
X009040Y027850D01*
X009320Y027850D02*
X009320Y027510D01*
X009320Y030510D02*
X009320Y030850D01*
X009040Y030850D02*
X009040Y030510D01*
X010040Y030510D02*
X010040Y030850D01*
X010320Y030850D02*
X010320Y030510D01*
X024180Y027180D02*
X024180Y026680D01*
X024430Y026430D01*
X024180Y026180D01*
X024180Y025680D01*
X024430Y025430D01*
X024180Y025180D01*
X024180Y024680D01*
X024430Y024430D01*
X024180Y024180D01*
X024180Y023680D01*
X024430Y023430D01*
X024180Y023180D01*
X024180Y022680D01*
X024430Y022430D01*
X024930Y022430D01*
X025180Y022680D01*
X025180Y023180D01*
X024930Y023430D01*
X025180Y023680D01*
X025180Y024180D01*
X024930Y024430D01*
X024430Y024430D01*
X024930Y024430D02*
X025180Y024680D01*
X025180Y025180D01*
X024930Y025430D01*
X025180Y025680D01*
X025180Y026180D01*
X024930Y026430D01*
X025180Y026680D01*
X025180Y027180D01*
X024930Y027430D01*
X024430Y027430D01*
X024180Y027180D01*
X024430Y026430D02*
X024930Y026430D01*
X024930Y025430D02*
X024430Y025430D01*
X024430Y023430D02*
X024930Y023430D01*
X024930Y017180D02*
X024430Y017180D01*
X024180Y016930D01*
X024180Y016430D01*
X024430Y016180D01*
X024180Y015930D01*
X024180Y015430D01*
X024430Y015180D01*
X024180Y014930D01*
X024180Y014430D01*
X024430Y014180D01*
X024180Y013930D01*
X024180Y013430D01*
X024430Y013180D01*
X024180Y012930D01*
X024180Y012430D01*
X024430Y012180D01*
X024930Y012180D01*
X025180Y012430D01*
X025180Y012930D01*
X024930Y013180D01*
X025180Y013430D01*
X025180Y013930D01*
X024930Y014180D01*
X024430Y014180D01*
X024930Y014180D02*
X025180Y014430D01*
X025180Y014930D01*
X024930Y015180D01*
X025180Y015430D01*
X025180Y015930D01*
X024930Y016180D01*
X025180Y016430D01*
X025180Y016930D01*
X024930Y017180D01*
X024930Y016180D02*
X024430Y016180D01*
X024430Y015180D02*
X024930Y015180D01*
X024930Y013180D02*
X024430Y013180D01*
D15*
X010180Y030430D03*
X010180Y030930D03*
X009180Y030930D03*
X009180Y030430D03*
X009180Y027930D03*
X009180Y027430D03*
X007680Y026930D03*
X007680Y026430D03*
D16*
X024680Y025930D03*
X024680Y026930D03*
X024680Y024930D03*
X024680Y023930D03*
X024680Y022930D03*
X024680Y016680D03*
X024680Y015680D03*
X024680Y014680D03*
X024680Y013680D03*
X024680Y012680D03*
M02*
