G75*
%MOIN*%
%OFA0B0*%
%FSLAX24Y24*%
%IPPOS*%
%LPD*%
%AMOC8*
5,1,8,0,0,1.08239X$1,22.5*
%
%ADD10C,0.0100*%
%ADD11C,0.0030*%
%ADD12C,0.0080*%
%ADD13C,0.0200*%
%ADD14C,0.0020*%
%ADD15C,0.0010*%
%ADD16C,0.0040*%
%ADD17R,0.0197X0.0374*%
%ADD18R,0.1140X0.0340*%
%ADD19R,0.0300X0.0340*%
%ADD20C,0.0079*%
%ADD21R,0.0340X0.1140*%
%ADD22R,0.0340X0.0300*%
%ADD23C,0.0060*%
%ADD24R,0.0340X0.0160*%
%ADD25R,0.0160X0.0340*%
%ADD26C,0.0050*%
D10*
X025314Y002210D02*
X026114Y002960D01*
X026694Y003038D02*
X026847Y003191D01*
X027154Y003191D01*
X027214Y003197D02*
X026907Y003197D01*
X026754Y003350D01*
X026907Y003504D01*
X027214Y003504D01*
X027077Y003853D02*
X026771Y003853D01*
X026694Y003930D01*
X026694Y004083D01*
X026771Y004160D01*
X026924Y004160D01*
X026924Y004007D01*
X026984Y004053D02*
X026984Y004207D01*
X026831Y004207D01*
X026754Y004130D01*
X026754Y003977D01*
X026831Y003900D01*
X027137Y003900D01*
X027214Y003977D01*
X027214Y004130D01*
X027137Y004207D01*
X027077Y004160D02*
X027154Y004083D01*
X027154Y003930D01*
X027077Y003853D01*
X027154Y004369D02*
X026694Y004369D01*
X026754Y004416D02*
X027214Y004416D01*
X026754Y004723D01*
X027214Y004723D01*
X027154Y004676D02*
X026694Y004676D01*
X027154Y004369D01*
X027154Y004884D02*
X026694Y004884D01*
X026694Y005115D01*
X026771Y005191D01*
X027077Y005191D01*
X027154Y005115D01*
X027154Y004884D01*
X027214Y004931D02*
X027214Y005161D01*
X027137Y005238D01*
X026831Y005238D01*
X026754Y005161D01*
X026754Y004931D01*
X027214Y004931D01*
X026104Y004990D02*
X025314Y004200D01*
X026694Y003038D02*
X026847Y002884D01*
X027154Y002884D01*
X027214Y002911D02*
X027214Y002758D01*
X027137Y002681D01*
X027077Y002676D02*
X027154Y002599D01*
X027154Y002445D01*
X027077Y002369D01*
X027214Y002319D02*
X026754Y002319D01*
X026694Y002369D02*
X027001Y002676D01*
X027077Y002676D01*
X027214Y002911D02*
X027137Y002988D01*
X027061Y002988D01*
X026754Y002681D01*
X026754Y002988D01*
X026694Y002676D02*
X026694Y002369D01*
X026754Y002473D02*
X026754Y002166D01*
X026694Y002160D02*
X026694Y001853D01*
X026831Y001803D02*
X027137Y001803D01*
X027001Y001853D02*
X027154Y002007D01*
X026694Y002007D01*
X026984Y001957D02*
X026984Y001650D01*
X026924Y001644D02*
X026924Y001337D01*
X027077Y001491D02*
X026771Y001491D01*
X027061Y002166D02*
X027214Y002319D01*
X027077Y005603D02*
X026771Y005603D01*
X026694Y005680D01*
X026694Y005833D01*
X026771Y005910D01*
X026924Y005910D01*
X026924Y005757D01*
X026984Y005803D02*
X026984Y005957D01*
X026831Y005957D01*
X026754Y005880D01*
X026754Y005727D01*
X026831Y005650D01*
X027137Y005650D01*
X027214Y005727D01*
X027214Y005880D01*
X027137Y005957D01*
X027077Y005910D02*
X027154Y005833D01*
X027154Y005680D01*
X027077Y005603D01*
X027154Y006119D02*
X026694Y006119D01*
X026754Y006166D02*
X027214Y006166D01*
X026754Y006473D01*
X027214Y006473D01*
X027154Y006426D02*
X026694Y006426D01*
X027154Y006119D01*
X027154Y006634D02*
X026694Y006634D01*
X026694Y006865D01*
X026771Y006941D01*
X027077Y006941D01*
X027154Y006865D01*
X027154Y006634D01*
X027214Y006681D02*
X027214Y006911D01*
X027137Y006988D01*
X026831Y006988D01*
X026754Y006911D01*
X026754Y006681D01*
X027214Y006681D01*
X026114Y006960D02*
X025314Y006210D01*
X026924Y007337D02*
X026924Y007644D01*
X026984Y007707D02*
X026984Y007400D01*
X027077Y007491D02*
X026771Y007491D01*
X026831Y007553D02*
X027137Y007553D01*
X027001Y007853D02*
X027154Y008007D01*
X026694Y008007D01*
X026754Y008069D02*
X027214Y008069D01*
X027061Y007916D01*
X026754Y007916D02*
X026754Y008223D01*
X026694Y008160D02*
X026694Y007853D01*
X026694Y008369D02*
X027001Y008676D01*
X027077Y008676D01*
X027154Y008599D01*
X027154Y008445D01*
X027077Y008369D01*
X027137Y008431D02*
X027214Y008508D01*
X027214Y008661D01*
X027137Y008738D01*
X027061Y008738D01*
X026754Y008431D01*
X026754Y008738D01*
X026694Y008676D02*
X026694Y008369D01*
X026847Y008884D02*
X026694Y009038D01*
X026847Y009191D01*
X027154Y009191D01*
X027214Y009254D02*
X026907Y009254D01*
X026754Y009100D01*
X026907Y008947D01*
X027214Y008947D01*
X027154Y008884D02*
X026847Y008884D01*
X026104Y008990D02*
X025314Y008200D01*
D11*
X004171Y001010D02*
X003977Y001010D01*
X004026Y000865D02*
X004026Y001155D01*
X004171Y001010D01*
X004272Y000865D02*
X004466Y000865D01*
X004369Y000865D02*
X004369Y001155D01*
X004466Y001058D01*
X004567Y001107D02*
X004760Y000913D01*
X004712Y000865D01*
X004615Y000865D01*
X004567Y000913D01*
X004567Y001107D01*
X004615Y001155D01*
X004712Y001155D01*
X004760Y001107D01*
X004760Y000913D01*
X004861Y000865D02*
X005055Y000865D01*
X004861Y001058D01*
X004861Y001107D01*
X004910Y001155D01*
X005006Y001155D01*
X005055Y001107D01*
X005156Y001155D02*
X005349Y000865D01*
X005451Y000865D02*
X005644Y000865D01*
X005547Y000865D02*
X005547Y001155D01*
X005644Y001058D01*
X005842Y001155D02*
X005842Y000865D01*
X005939Y000865D02*
X005745Y000865D01*
X005939Y001058D02*
X005842Y001155D01*
X007035Y001010D02*
X007035Y000913D01*
X007084Y000865D01*
X007180Y000865D01*
X007229Y000913D01*
X007229Y001010D01*
X007180Y001058D01*
X007084Y001058D01*
X007035Y001010D01*
X007330Y001010D02*
X007330Y000913D01*
X007378Y000865D01*
X007475Y000865D01*
X007523Y000913D01*
X007523Y001010D01*
X007475Y001058D01*
X007378Y001058D01*
X007330Y001010D01*
X007623Y000865D02*
X007720Y000865D01*
X007672Y000865D02*
X007672Y001155D01*
X007720Y001155D01*
X007820Y001058D02*
X007869Y001058D01*
X007965Y000962D01*
X007965Y001058D02*
X007965Y000865D01*
X008067Y000962D02*
X008260Y000962D01*
X008260Y001010D02*
X008212Y001058D01*
X008115Y001058D01*
X008067Y001010D01*
X008067Y000962D01*
X008115Y000865D02*
X008212Y000865D01*
X008260Y000913D01*
X008260Y001010D01*
X008360Y001058D02*
X008457Y001058D01*
X008408Y001107D02*
X008408Y000913D01*
X008360Y000865D01*
X008558Y000865D02*
X008703Y000865D01*
X008751Y000913D01*
X008703Y000962D01*
X008558Y000962D01*
X008558Y001010D02*
X008558Y000865D01*
X008558Y001010D02*
X008606Y001058D01*
X008703Y001058D01*
X008852Y001155D02*
X008852Y000865D01*
X008949Y000962D01*
X009046Y000865D01*
X009046Y001155D01*
X009147Y001155D02*
X009147Y000913D01*
X009195Y000865D01*
X009292Y000865D01*
X009340Y000913D01*
X009340Y001155D01*
X009736Y000962D02*
X009833Y000865D01*
X009881Y000865D01*
X009930Y000913D01*
X009930Y000962D01*
X009833Y001058D01*
X009833Y001107D01*
X009881Y001155D01*
X009930Y001107D01*
X009930Y001058D01*
X009736Y000865D01*
X010324Y000865D02*
X010421Y000865D01*
X010372Y000865D02*
X010372Y001155D01*
X010324Y001155D02*
X010421Y001155D01*
X010522Y001058D02*
X010522Y000865D01*
X010522Y001010D02*
X010716Y001010D01*
X010716Y001058D02*
X010716Y000865D01*
X010817Y000913D02*
X010817Y000962D01*
X010865Y001010D01*
X011010Y001010D01*
X011111Y001010D02*
X011111Y001107D01*
X011160Y001155D01*
X011305Y001155D01*
X011305Y000865D01*
X011305Y000962D02*
X011160Y000962D01*
X011111Y001010D01*
X011010Y000865D02*
X010865Y000865D01*
X010817Y000913D01*
X010865Y001010D02*
X010817Y001058D01*
X010817Y001107D01*
X010865Y001155D01*
X011010Y001155D01*
X011010Y000865D01*
X010716Y001058D02*
X010619Y001155D01*
X010522Y001058D01*
X011701Y001058D02*
X011701Y000817D01*
X011749Y000768D01*
X011797Y000768D01*
X011846Y000865D02*
X011701Y000865D01*
X011846Y000865D02*
X011894Y000913D01*
X011894Y001058D01*
X011995Y001010D02*
X012044Y001058D01*
X012189Y001058D01*
X012189Y001155D02*
X012189Y000865D01*
X012044Y000865D01*
X011995Y000913D01*
X011995Y001010D01*
X011797Y006768D02*
X011749Y006768D01*
X011701Y006817D01*
X011701Y007058D01*
X011599Y007155D02*
X011551Y007155D01*
X011551Y006865D01*
X011599Y006865D02*
X011503Y006865D01*
X011403Y006913D02*
X011355Y006865D01*
X011258Y006865D01*
X011210Y006913D01*
X011210Y007010D01*
X011258Y007058D01*
X011355Y007058D01*
X011403Y007010D01*
X011403Y006913D01*
X011108Y006865D02*
X010915Y006865D01*
X010814Y006913D02*
X010765Y006865D01*
X010669Y006865D01*
X010620Y006913D01*
X010620Y007010D01*
X010669Y007058D01*
X010765Y007058D01*
X010814Y007010D01*
X010814Y006913D01*
X010915Y007058D02*
X011108Y006865D01*
X011108Y007058D02*
X010915Y007058D01*
X010519Y007058D02*
X010471Y007058D01*
X010471Y006865D01*
X010519Y006865D02*
X010422Y006865D01*
X010323Y006913D02*
X010274Y006865D01*
X010129Y006865D01*
X010129Y007058D02*
X010274Y007058D01*
X010323Y007010D01*
X010323Y006913D01*
X010471Y007155D02*
X010471Y007204D01*
X009733Y007107D02*
X009733Y007058D01*
X009685Y007010D01*
X009588Y007010D01*
X009540Y006962D01*
X009540Y006913D01*
X009588Y006865D01*
X009685Y006865D01*
X009733Y006913D01*
X009439Y006913D02*
X009439Y007010D01*
X009390Y007058D01*
X009294Y007058D01*
X009245Y007010D01*
X009245Y006962D01*
X009439Y006962D01*
X009439Y006913D02*
X009390Y006865D01*
X009294Y006865D01*
X009144Y006865D02*
X009144Y007058D01*
X009144Y006962D02*
X009047Y007058D01*
X008999Y007058D01*
X008899Y007058D02*
X008850Y007058D01*
X008850Y006865D01*
X008802Y006865D02*
X008899Y006865D01*
X008702Y006913D02*
X008702Y007010D01*
X008654Y007058D01*
X008557Y007058D01*
X008509Y007010D01*
X008509Y006962D01*
X008702Y006962D01*
X008702Y006913D02*
X008654Y006865D01*
X008557Y006865D01*
X008407Y006865D02*
X008262Y006865D01*
X008214Y006913D01*
X008262Y006962D01*
X008359Y006962D01*
X008407Y007010D01*
X008359Y007058D01*
X008214Y007058D01*
X007818Y007107D02*
X007770Y007155D01*
X007673Y007155D01*
X007625Y007107D01*
X007625Y007058D01*
X007673Y007010D01*
X007625Y006962D01*
X007625Y006913D01*
X007673Y006865D01*
X007770Y006865D01*
X007818Y006913D01*
X007721Y007010D02*
X007673Y007010D01*
X008850Y007155D02*
X008850Y007204D01*
X009540Y007107D02*
X009588Y007155D01*
X009685Y007155D01*
X009733Y007107D01*
X011701Y006865D02*
X011846Y006865D01*
X011894Y006913D01*
X011894Y007058D01*
X011995Y007010D02*
X012189Y007010D01*
X012189Y006865D02*
X012189Y007155D01*
X011995Y007155D02*
X011995Y006865D01*
D12*
X011884Y007390D02*
X012164Y007390D01*
X012164Y007810D01*
X011703Y007670D02*
X011703Y007460D01*
X011633Y007390D01*
X011423Y007390D01*
X011423Y007670D01*
X011243Y007670D02*
X011173Y007670D01*
X011103Y007600D01*
X011033Y007670D01*
X010963Y007600D01*
X010963Y007390D01*
X011103Y007390D02*
X011103Y007600D01*
X011243Y007670D02*
X011243Y007390D01*
X010783Y007390D02*
X010642Y007390D01*
X010713Y007390D02*
X010713Y007670D01*
X010783Y007670D01*
X010713Y007810D02*
X010713Y007880D01*
X010476Y007670D02*
X010265Y007670D01*
X010195Y007600D01*
X010195Y007390D01*
X010015Y007460D02*
X009945Y007390D01*
X009735Y007390D01*
X009735Y007600D01*
X009805Y007670D01*
X009945Y007670D01*
X010476Y007670D02*
X010476Y007390D01*
X010015Y007460D02*
X009945Y007530D01*
X009735Y007530D01*
X009485Y007460D02*
X009415Y007390D01*
X009485Y007460D02*
X009485Y007740D01*
X009555Y007670D02*
X009415Y007670D01*
X009248Y007670D02*
X009178Y007670D01*
X009178Y007390D01*
X009248Y007390D02*
X009108Y007390D01*
X008941Y007460D02*
X008871Y007390D01*
X008731Y007390D01*
X008661Y007460D01*
X008661Y007600D01*
X008731Y007670D01*
X008871Y007670D01*
X008941Y007600D01*
X008941Y007460D01*
X008481Y007390D02*
X008481Y007670D01*
X008270Y007670D01*
X008200Y007600D01*
X008200Y007390D01*
X007560Y007390D02*
X007560Y007810D01*
X007420Y007670D01*
X007280Y007810D01*
X007280Y007390D01*
X007099Y007460D02*
X007029Y007390D01*
X006889Y007390D01*
X006819Y007460D01*
X006819Y007600D01*
X006889Y007670D01*
X007029Y007670D01*
X007099Y007600D01*
X007099Y007460D01*
X006639Y007460D02*
X006639Y007600D01*
X006569Y007670D01*
X006359Y007670D01*
X006359Y007810D02*
X006359Y007390D01*
X006569Y007390D01*
X006639Y007460D01*
X006179Y007460D02*
X006179Y007670D01*
X005898Y007670D02*
X005898Y007390D01*
X006109Y007390D01*
X006179Y007460D01*
X005718Y007390D02*
X005578Y007390D01*
X005648Y007390D02*
X005648Y007810D01*
X005718Y007810D01*
X005411Y007600D02*
X005341Y007670D01*
X005201Y007670D01*
X005131Y007600D01*
X005131Y007530D01*
X005411Y007530D01*
X005411Y007460D02*
X005411Y007600D01*
X005411Y007460D02*
X005341Y007390D01*
X005201Y007390D01*
X009178Y007810D02*
X009178Y007880D01*
X015913Y008860D02*
X018494Y008860D01*
X018494Y006500D01*
X015914Y006500D01*
X015914Y008860D01*
X016194Y008900D02*
X018214Y008900D01*
X018214Y009180D01*
X018034Y009360D01*
X016374Y009360D01*
X016194Y009180D01*
X016194Y008900D01*
X013804Y004140D02*
X011444Y004140D01*
X011444Y001560D01*
X013804Y001560D01*
X013804Y004140D01*
X011404Y003860D02*
X011404Y001840D01*
X011124Y001840D01*
X010944Y002020D01*
X010944Y003680D01*
X011124Y003860D01*
X011404Y003860D01*
D13*
X022204Y009200D02*
X022204Y009734D01*
X022471Y009467D02*
X021937Y009467D01*
X020604Y009600D02*
X020070Y009600D01*
D14*
X015444Y007110D02*
X015444Y007060D01*
X015394Y007010D01*
X015294Y007010D01*
X015244Y006960D01*
X015244Y006910D01*
X015294Y006860D01*
X015394Y006860D01*
X015444Y006910D01*
X015149Y006860D02*
X015049Y006860D01*
X015099Y006860D02*
X015099Y007160D01*
X015149Y007160D02*
X015049Y007160D01*
X014953Y007110D02*
X014953Y006910D01*
X014903Y006860D01*
X014803Y006860D01*
X014753Y006910D01*
X014753Y007010D01*
X014853Y007010D01*
X014953Y007110D02*
X014903Y007160D01*
X014803Y007160D01*
X014753Y007110D01*
X014344Y007110D02*
X014344Y006910D01*
X014294Y006860D01*
X014194Y006860D01*
X014144Y006910D01*
X014144Y007010D01*
X014244Y007010D01*
X014344Y007110D02*
X014294Y007160D01*
X014194Y007160D01*
X014144Y007110D01*
X014049Y007160D02*
X013849Y006860D01*
X013849Y007160D01*
X013754Y007160D02*
X013604Y007160D01*
X013554Y007110D01*
X013554Y006910D01*
X013604Y006860D01*
X013754Y006860D01*
X013754Y007160D01*
X014049Y007160D02*
X014049Y006860D01*
X013244Y006910D02*
X013194Y006860D01*
X013094Y006860D01*
X013044Y006910D01*
X013044Y007010D01*
X013094Y007060D01*
X013144Y007060D01*
X013244Y007010D01*
X013244Y007160D01*
X013044Y007160D01*
X012949Y007160D02*
X012949Y006960D01*
X012849Y006860D01*
X012749Y006960D01*
X012749Y007160D01*
X015244Y007110D02*
X015294Y007160D01*
X015394Y007160D01*
X015444Y007110D01*
D15*
X005699Y008105D02*
X005699Y008335D01*
X005584Y008335D01*
X005545Y008297D01*
X005545Y008220D01*
X005584Y008182D01*
X005699Y008182D01*
X005478Y008105D02*
X005401Y008182D01*
X005324Y008105D01*
X005324Y008335D01*
X005257Y008335D02*
X005180Y008258D01*
X005103Y008335D01*
X005103Y008105D01*
X005036Y008105D02*
X004882Y008105D01*
X004959Y008105D02*
X004959Y008335D01*
X005036Y008258D01*
X005257Y008335D02*
X005257Y008105D01*
X005478Y008105D02*
X005478Y008335D01*
X005478Y009355D02*
X005478Y009585D01*
X005324Y009355D01*
X005324Y009585D01*
X005257Y009508D02*
X005180Y009585D01*
X005103Y009508D01*
X005103Y009355D01*
X005036Y009355D02*
X004882Y009355D01*
X004815Y009393D02*
X004776Y009355D01*
X004700Y009355D01*
X004661Y009393D01*
X004661Y009547D01*
X004700Y009585D01*
X004776Y009585D01*
X004815Y009547D01*
X004815Y009393D01*
X004594Y009393D02*
X004555Y009355D01*
X004479Y009355D01*
X004440Y009393D01*
X004440Y009470D01*
X004517Y009470D01*
X004440Y009547D02*
X004479Y009585D01*
X004555Y009585D01*
X004594Y009547D01*
X004594Y009393D01*
X004373Y009355D02*
X004219Y009355D01*
X004296Y009355D02*
X004296Y009585D01*
X004373Y009508D01*
X005036Y009585D02*
X005036Y009355D01*
X005103Y009470D02*
X005257Y009470D01*
X005257Y009508D02*
X005257Y009355D01*
X005545Y009355D02*
X005545Y009508D01*
X005622Y009585D01*
X005699Y009508D01*
X005699Y009355D01*
X005699Y009470D02*
X005545Y009470D01*
D16*
X014314Y009520D02*
X014594Y009520D01*
X014594Y009185D02*
X014314Y009185D01*
X017064Y004765D02*
X017344Y004765D01*
X017344Y004430D02*
X017064Y004430D01*
D17*
X016972Y004598D03*
X017432Y004598D03*
X014685Y009352D03*
X014225Y009352D03*
D18*
X014414Y003750D03*
X014414Y001950D03*
D19*
X013994Y002850D03*
D20*
X011404Y002838D02*
X010944Y002838D01*
X010944Y002915D02*
X011404Y002915D01*
X011404Y002992D02*
X010944Y002992D01*
X010944Y003069D02*
X011404Y003069D01*
X011404Y003146D02*
X010944Y003146D01*
X010944Y003223D02*
X011404Y003223D01*
X011404Y003301D02*
X010944Y003301D01*
X010944Y003378D02*
X011404Y003378D01*
X011404Y003455D02*
X010944Y003455D01*
X010944Y003532D02*
X011404Y003532D01*
X011404Y003609D02*
X010944Y003609D01*
X010944Y003680D02*
X010944Y002020D01*
X011124Y001840D01*
X011404Y001840D01*
X011404Y003860D01*
X011124Y003860D01*
X010944Y003680D01*
X010950Y003686D02*
X011404Y003686D01*
X011404Y003764D02*
X011027Y003764D01*
X011105Y003841D02*
X011404Y003841D01*
X011404Y002761D02*
X010944Y002761D01*
X010944Y002683D02*
X011404Y002683D01*
X011404Y002606D02*
X010944Y002606D01*
X010944Y002529D02*
X011404Y002529D01*
X011404Y002452D02*
X010944Y002452D01*
X010944Y002375D02*
X011404Y002375D01*
X011404Y002298D02*
X010944Y002298D01*
X010944Y002220D02*
X011404Y002220D01*
X011404Y002143D02*
X010944Y002143D01*
X010944Y002066D02*
X011404Y002066D01*
X011404Y001989D02*
X010975Y001989D01*
X011052Y001912D02*
X011404Y001912D01*
X016194Y008900D02*
X018214Y008900D01*
X018214Y009180D01*
X018034Y009360D01*
X016374Y009360D01*
X016194Y009180D01*
X016194Y008900D01*
X016194Y008933D02*
X018214Y008933D01*
X018214Y009011D02*
X016194Y009011D01*
X016194Y009088D02*
X018214Y009088D01*
X018214Y009165D02*
X016194Y009165D01*
X016256Y009242D02*
X018152Y009242D01*
X018075Y009319D02*
X016333Y009319D01*
D21*
X016304Y005890D03*
X018104Y005890D03*
D22*
X017204Y006310D03*
D23*
X023704Y005600D02*
X023704Y009600D01*
X023804Y009600D01*
X023804Y001600D01*
X026404Y001600D01*
X026404Y002250D01*
X026404Y002950D01*
X026404Y004250D01*
X026404Y004950D01*
X026404Y005600D01*
X023704Y005600D01*
X023704Y001600D01*
X023804Y001600D01*
X026034Y001240D02*
X026374Y001240D01*
X026374Y000960D02*
X026034Y000960D01*
X026404Y001600D02*
X027354Y001600D01*
X027354Y009600D01*
X026404Y009600D01*
X026404Y008950D01*
X026404Y008250D01*
X026404Y006950D01*
X026404Y006250D01*
X026404Y005600D01*
X025114Y006600D02*
X025116Y006648D01*
X025122Y006696D01*
X025132Y006743D01*
X025145Y006789D01*
X025162Y006834D01*
X025183Y006877D01*
X025208Y006919D01*
X025235Y006958D01*
X025266Y006995D01*
X025300Y007030D01*
X025336Y007061D01*
X025375Y007090D01*
X025416Y007115D01*
X025459Y007137D01*
X025503Y007155D01*
X025549Y007169D01*
X025596Y007180D01*
X025644Y007187D01*
X025692Y007190D01*
X025740Y007189D01*
X025788Y007184D01*
X025835Y007175D01*
X025882Y007163D01*
X025927Y007146D01*
X025971Y007126D01*
X026013Y007103D01*
X026053Y007076D01*
X026090Y007046D01*
X026125Y007013D01*
X026158Y006977D01*
X026187Y006939D01*
X026213Y006898D01*
X026236Y006856D01*
X026255Y006812D01*
X026270Y006766D01*
X026282Y006720D01*
X026290Y006672D01*
X026294Y006624D01*
X026294Y006576D01*
X026290Y006528D01*
X026282Y006480D01*
X026270Y006434D01*
X026255Y006388D01*
X026236Y006344D01*
X026213Y006302D01*
X026187Y006261D01*
X026158Y006223D01*
X026125Y006187D01*
X026090Y006154D01*
X026053Y006124D01*
X026013Y006097D01*
X025971Y006074D01*
X025927Y006054D01*
X025882Y006037D01*
X025835Y006025D01*
X025788Y006016D01*
X025740Y006011D01*
X025692Y006010D01*
X025644Y006013D01*
X025596Y006020D01*
X025549Y006031D01*
X025503Y006045D01*
X025459Y006063D01*
X025416Y006085D01*
X025375Y006110D01*
X025336Y006139D01*
X025300Y006170D01*
X025266Y006205D01*
X025235Y006242D01*
X025208Y006281D01*
X025183Y006323D01*
X025162Y006366D01*
X025145Y006411D01*
X025132Y006457D01*
X025122Y006504D01*
X025116Y006552D01*
X025114Y006600D01*
X024134Y006600D02*
X024136Y006628D01*
X024142Y006655D01*
X024151Y006681D01*
X024164Y006706D01*
X024181Y006729D01*
X024200Y006749D01*
X024222Y006766D01*
X024246Y006780D01*
X024272Y006790D01*
X024299Y006797D01*
X024327Y006800D01*
X024355Y006799D01*
X024382Y006794D01*
X024409Y006785D01*
X024434Y006773D01*
X024457Y006758D01*
X024478Y006739D01*
X024496Y006718D01*
X024511Y006694D01*
X024522Y006668D01*
X024530Y006642D01*
X024534Y006614D01*
X024534Y006586D01*
X024530Y006558D01*
X024522Y006532D01*
X024511Y006506D01*
X024496Y006482D01*
X024478Y006461D01*
X024457Y006442D01*
X024434Y006427D01*
X024409Y006415D01*
X024382Y006406D01*
X024355Y006401D01*
X024327Y006400D01*
X024299Y006403D01*
X024272Y006410D01*
X024246Y006420D01*
X024222Y006434D01*
X024200Y006451D01*
X024181Y006471D01*
X024164Y006494D01*
X024151Y006519D01*
X024142Y006545D01*
X024136Y006572D01*
X024134Y006600D01*
X024134Y004600D02*
X024136Y004628D01*
X024142Y004655D01*
X024151Y004681D01*
X024164Y004706D01*
X024181Y004729D01*
X024200Y004749D01*
X024222Y004766D01*
X024246Y004780D01*
X024272Y004790D01*
X024299Y004797D01*
X024327Y004800D01*
X024355Y004799D01*
X024382Y004794D01*
X024409Y004785D01*
X024434Y004773D01*
X024457Y004758D01*
X024478Y004739D01*
X024496Y004718D01*
X024511Y004694D01*
X024522Y004668D01*
X024530Y004642D01*
X024534Y004614D01*
X024534Y004586D01*
X024530Y004558D01*
X024522Y004532D01*
X024511Y004506D01*
X024496Y004482D01*
X024478Y004461D01*
X024457Y004442D01*
X024434Y004427D01*
X024409Y004415D01*
X024382Y004406D01*
X024355Y004401D01*
X024327Y004400D01*
X024299Y004403D01*
X024272Y004410D01*
X024246Y004420D01*
X024222Y004434D01*
X024200Y004451D01*
X024181Y004471D01*
X024164Y004494D01*
X024151Y004519D01*
X024142Y004545D01*
X024136Y004572D01*
X024134Y004600D01*
X025114Y004600D02*
X025116Y004648D01*
X025122Y004696D01*
X025132Y004743D01*
X025145Y004789D01*
X025162Y004834D01*
X025183Y004877D01*
X025208Y004919D01*
X025235Y004958D01*
X025266Y004995D01*
X025300Y005030D01*
X025336Y005061D01*
X025375Y005090D01*
X025416Y005115D01*
X025459Y005137D01*
X025503Y005155D01*
X025549Y005169D01*
X025596Y005180D01*
X025644Y005187D01*
X025692Y005190D01*
X025740Y005189D01*
X025788Y005184D01*
X025835Y005175D01*
X025882Y005163D01*
X025927Y005146D01*
X025971Y005126D01*
X026013Y005103D01*
X026053Y005076D01*
X026090Y005046D01*
X026125Y005013D01*
X026158Y004977D01*
X026187Y004939D01*
X026213Y004898D01*
X026236Y004856D01*
X026255Y004812D01*
X026270Y004766D01*
X026282Y004720D01*
X026290Y004672D01*
X026294Y004624D01*
X026294Y004576D01*
X026290Y004528D01*
X026282Y004480D01*
X026270Y004434D01*
X026255Y004388D01*
X026236Y004344D01*
X026213Y004302D01*
X026187Y004261D01*
X026158Y004223D01*
X026125Y004187D01*
X026090Y004154D01*
X026053Y004124D01*
X026013Y004097D01*
X025971Y004074D01*
X025927Y004054D01*
X025882Y004037D01*
X025835Y004025D01*
X025788Y004016D01*
X025740Y004011D01*
X025692Y004010D01*
X025644Y004013D01*
X025596Y004020D01*
X025549Y004031D01*
X025503Y004045D01*
X025459Y004063D01*
X025416Y004085D01*
X025375Y004110D01*
X025336Y004139D01*
X025300Y004170D01*
X025266Y004205D01*
X025235Y004242D01*
X025208Y004281D01*
X025183Y004323D01*
X025162Y004366D01*
X025145Y004411D01*
X025132Y004457D01*
X025122Y004504D01*
X025116Y004552D01*
X025114Y004600D01*
X025114Y002600D02*
X025116Y002648D01*
X025122Y002696D01*
X025132Y002743D01*
X025145Y002789D01*
X025162Y002834D01*
X025183Y002877D01*
X025208Y002919D01*
X025235Y002958D01*
X025266Y002995D01*
X025300Y003030D01*
X025336Y003061D01*
X025375Y003090D01*
X025416Y003115D01*
X025459Y003137D01*
X025503Y003155D01*
X025549Y003169D01*
X025596Y003180D01*
X025644Y003187D01*
X025692Y003190D01*
X025740Y003189D01*
X025788Y003184D01*
X025835Y003175D01*
X025882Y003163D01*
X025927Y003146D01*
X025971Y003126D01*
X026013Y003103D01*
X026053Y003076D01*
X026090Y003046D01*
X026125Y003013D01*
X026158Y002977D01*
X026187Y002939D01*
X026213Y002898D01*
X026236Y002856D01*
X026255Y002812D01*
X026270Y002766D01*
X026282Y002720D01*
X026290Y002672D01*
X026294Y002624D01*
X026294Y002576D01*
X026290Y002528D01*
X026282Y002480D01*
X026270Y002434D01*
X026255Y002388D01*
X026236Y002344D01*
X026213Y002302D01*
X026187Y002261D01*
X026158Y002223D01*
X026125Y002187D01*
X026090Y002154D01*
X026053Y002124D01*
X026013Y002097D01*
X025971Y002074D01*
X025927Y002054D01*
X025882Y002037D01*
X025835Y002025D01*
X025788Y002016D01*
X025740Y002011D01*
X025692Y002010D01*
X025644Y002013D01*
X025596Y002020D01*
X025549Y002031D01*
X025503Y002045D01*
X025459Y002063D01*
X025416Y002085D01*
X025375Y002110D01*
X025336Y002139D01*
X025300Y002170D01*
X025266Y002205D01*
X025235Y002242D01*
X025208Y002281D01*
X025183Y002323D01*
X025162Y002366D01*
X025145Y002411D01*
X025132Y002457D01*
X025122Y002504D01*
X025116Y002552D01*
X025114Y002600D01*
X024134Y002600D02*
X024136Y002628D01*
X024142Y002655D01*
X024151Y002681D01*
X024164Y002706D01*
X024181Y002729D01*
X024200Y002749D01*
X024222Y002766D01*
X024246Y002780D01*
X024272Y002790D01*
X024299Y002797D01*
X024327Y002800D01*
X024355Y002799D01*
X024382Y002794D01*
X024409Y002785D01*
X024434Y002773D01*
X024457Y002758D01*
X024478Y002739D01*
X024496Y002718D01*
X024511Y002694D01*
X024522Y002668D01*
X024530Y002642D01*
X024534Y002614D01*
X024534Y002586D01*
X024530Y002558D01*
X024522Y002532D01*
X024511Y002506D01*
X024496Y002482D01*
X024478Y002461D01*
X024457Y002442D01*
X024434Y002427D01*
X024409Y002415D01*
X024382Y002406D01*
X024355Y002401D01*
X024327Y002400D01*
X024299Y002403D01*
X024272Y002410D01*
X024246Y002420D01*
X024222Y002434D01*
X024200Y002451D01*
X024181Y002471D01*
X024164Y002494D01*
X024151Y002519D01*
X024142Y002545D01*
X024136Y002572D01*
X024134Y002600D01*
X016344Y003180D02*
X016344Y003520D01*
X016064Y003520D02*
X016064Y003180D01*
X024134Y008600D02*
X024136Y008628D01*
X024142Y008655D01*
X024151Y008681D01*
X024164Y008706D01*
X024181Y008729D01*
X024200Y008749D01*
X024222Y008766D01*
X024246Y008780D01*
X024272Y008790D01*
X024299Y008797D01*
X024327Y008800D01*
X024355Y008799D01*
X024382Y008794D01*
X024409Y008785D01*
X024434Y008773D01*
X024457Y008758D01*
X024478Y008739D01*
X024496Y008718D01*
X024511Y008694D01*
X024522Y008668D01*
X024530Y008642D01*
X024534Y008614D01*
X024534Y008586D01*
X024530Y008558D01*
X024522Y008532D01*
X024511Y008506D01*
X024496Y008482D01*
X024478Y008461D01*
X024457Y008442D01*
X024434Y008427D01*
X024409Y008415D01*
X024382Y008406D01*
X024355Y008401D01*
X024327Y008400D01*
X024299Y008403D01*
X024272Y008410D01*
X024246Y008420D01*
X024222Y008434D01*
X024200Y008451D01*
X024181Y008471D01*
X024164Y008494D01*
X024151Y008519D01*
X024142Y008545D01*
X024136Y008572D01*
X024134Y008600D01*
X025114Y008600D02*
X025116Y008648D01*
X025122Y008696D01*
X025132Y008743D01*
X025145Y008789D01*
X025162Y008834D01*
X025183Y008877D01*
X025208Y008919D01*
X025235Y008958D01*
X025266Y008995D01*
X025300Y009030D01*
X025336Y009061D01*
X025375Y009090D01*
X025416Y009115D01*
X025459Y009137D01*
X025503Y009155D01*
X025549Y009169D01*
X025596Y009180D01*
X025644Y009187D01*
X025692Y009190D01*
X025740Y009189D01*
X025788Y009184D01*
X025835Y009175D01*
X025882Y009163D01*
X025927Y009146D01*
X025971Y009126D01*
X026013Y009103D01*
X026053Y009076D01*
X026090Y009046D01*
X026125Y009013D01*
X026158Y008977D01*
X026187Y008939D01*
X026213Y008898D01*
X026236Y008856D01*
X026255Y008812D01*
X026270Y008766D01*
X026282Y008720D01*
X026290Y008672D01*
X026294Y008624D01*
X026294Y008576D01*
X026290Y008528D01*
X026282Y008480D01*
X026270Y008434D01*
X026255Y008388D01*
X026236Y008344D01*
X026213Y008302D01*
X026187Y008261D01*
X026158Y008223D01*
X026125Y008187D01*
X026090Y008154D01*
X026053Y008124D01*
X026013Y008097D01*
X025971Y008074D01*
X025927Y008054D01*
X025882Y008037D01*
X025835Y008025D01*
X025788Y008016D01*
X025740Y008011D01*
X025692Y008010D01*
X025644Y008013D01*
X025596Y008020D01*
X025549Y008031D01*
X025503Y008045D01*
X025459Y008063D01*
X025416Y008085D01*
X025375Y008110D01*
X025336Y008139D01*
X025300Y008170D01*
X025266Y008205D01*
X025235Y008242D01*
X025208Y008281D01*
X025183Y008323D01*
X025162Y008366D01*
X025145Y008411D01*
X025132Y008457D01*
X025122Y008504D01*
X025116Y008552D01*
X025114Y008600D01*
X026404Y009600D02*
X023804Y009600D01*
D24*
X016204Y003600D03*
X016204Y003100D03*
D25*
X025954Y001100D03*
X026454Y001100D03*
D26*
X024724Y002895D02*
X024724Y003195D01*
X024499Y003120D02*
X024949Y003120D01*
X024724Y002895D01*
X024854Y004915D02*
X024929Y004990D01*
X024929Y005140D01*
X024854Y005215D01*
X024779Y005215D01*
X024704Y005140D01*
X024629Y005215D01*
X024554Y005215D01*
X024479Y005140D01*
X024479Y004990D01*
X024554Y004915D01*
X024704Y005065D02*
X024704Y005140D01*
X024874Y006895D02*
X024949Y006970D01*
X024949Y007120D01*
X024874Y007195D01*
X024799Y007195D01*
X024499Y006895D01*
X024499Y007195D01*
X024479Y008915D02*
X024479Y009215D01*
X024479Y009065D02*
X024929Y009065D01*
X024779Y008915D01*
M02*
