G75*
%MOIN*%
%OFA0B0*%
%FSLAX24Y24*%
%IPPOS*%
%LPD*%
%AMOC8*
5,1,8,0,0,1.08239X$1,22.5*
%
%ADD10C,0.1080*%
%ADD11OC8,0.1080*%
%ADD12C,0.0670*%
%ADD13C,0.1360*%
%ADD14C,0.0674*%
%ADD15R,0.0674X0.0674*%
%ADD16C,0.0790*%
%ADD17C,0.0792*%
%ADD18C,0.0720*%
%ADD19C,0.0965*%
%ADD20R,0.0671X0.0671*%
%ADD21C,0.0680*%
D10*
X021704Y003350D03*
D11*
X021704Y005350D03*
D12*
X010704Y006200D03*
X009704Y006200D03*
X010204Y005200D03*
X009204Y005200D03*
D13*
X003204Y002350D03*
X003204Y006850D03*
X008454Y008700D03*
X011454Y008700D03*
D14*
X006704Y005850D03*
X005704Y005350D03*
X006704Y004850D03*
X005704Y004350D03*
X006704Y003850D03*
X005704Y003350D03*
X006704Y002850D03*
D15*
X005704Y006350D03*
D16*
X020220Y007995D02*
X020220Y008705D01*
X022188Y008705D02*
X022188Y007995D01*
X025349Y008600D02*
X026059Y008600D01*
X026059Y006600D02*
X025349Y006600D01*
X025349Y004600D02*
X026059Y004600D01*
X026059Y002600D02*
X025349Y002600D01*
D17*
X020056Y002600D03*
X008048Y002600D03*
D18*
X013204Y007780D02*
X013204Y008420D01*
X014204Y008420D02*
X014204Y007780D01*
X015204Y007780D02*
X015204Y008420D01*
X006774Y008350D02*
X006134Y008350D01*
X006134Y009350D02*
X006774Y009350D01*
D19*
X013011Y005850D02*
X013896Y005850D01*
X019011Y005850D02*
X019896Y005850D01*
D20*
X025265Y001100D03*
X026643Y001100D03*
D21*
X022704Y001050D02*
X022704Y001650D01*
X021704Y001650D02*
X021704Y001050D01*
X020704Y001050D02*
X020704Y001650D01*
M02*
