G75*
%MOIN*%
%OFA0B0*%
%FSLAX24Y24*%
%IPPOS*%
%LPD*%
%AMOC8*
5,1,8,0,0,1.08239X$1,22.5*
%
%ADD10C,0.0020*%
%ADD11C,0.0040*%
%ADD12C,0.0090*%
%ADD13C,0.0150*%
%ADD14C,0.0110*%
%ADD15C,0.0050*%
%ADD16C,0.0080*%
%ADD17R,0.0295X0.0669*%
%ADD18C,0.0060*%
%ADD19C,0.0300*%
%ADD20R,0.0200X0.0300*%
%ADD21R,0.0400X0.0300*%
%ADD22R,0.0340X0.0160*%
%ADD23R,0.0160X0.0340*%
%ADD24R,0.1140X0.0340*%
%ADD25R,0.0300X0.0340*%
%ADD26C,0.0079*%
%ADD27C,0.0100*%
%ADD28R,0.0197X0.0374*%
%ADD29R,0.0340X0.1140*%
%ADD30R,0.0340X0.0300*%
D10*
X018324Y003804D02*
X018544Y003804D01*
X018324Y003951D01*
X018544Y003951D01*
X018544Y004025D02*
X018544Y004172D01*
X018544Y004099D02*
X018324Y004099D01*
X018324Y004246D02*
X018324Y004357D01*
X018360Y004393D01*
X018507Y004393D01*
X018544Y004357D01*
X018544Y004246D01*
X018324Y004246D01*
X018360Y004467D02*
X018324Y004504D01*
X018324Y004577D01*
X018360Y004614D01*
X018434Y004614D01*
X018471Y004577D01*
X018471Y004541D01*
X018434Y004467D01*
X018544Y004467D01*
X018544Y004614D01*
X018507Y004688D02*
X018471Y004688D01*
X018434Y004725D01*
X018434Y004798D01*
X018397Y004835D01*
X018360Y004835D01*
X018324Y004798D01*
X018324Y004725D01*
X018360Y004688D01*
X018397Y004688D01*
X018434Y004725D01*
X018434Y004798D02*
X018471Y004835D01*
X018507Y004835D01*
X018544Y004798D01*
X018544Y004725D01*
X018507Y004688D01*
X018434Y004909D02*
X018434Y005019D01*
X018397Y005056D01*
X018360Y005056D01*
X018324Y005019D01*
X018324Y004946D01*
X018360Y004909D01*
X018434Y004909D01*
X018507Y004983D01*
X018544Y005056D01*
X018544Y005130D02*
X018544Y005277D01*
X018507Y005277D01*
X018360Y005130D01*
X018324Y005130D01*
X018324Y005351D02*
X018544Y005351D01*
X018324Y005498D01*
X018544Y005498D01*
X018544Y005572D02*
X018324Y005572D01*
X018324Y005719D01*
X018324Y007204D02*
X018544Y007204D01*
X018324Y007351D01*
X018544Y007351D01*
X018544Y007425D02*
X018544Y007572D01*
X018544Y007499D02*
X018324Y007499D01*
X018324Y007646D02*
X018324Y007757D01*
X018360Y007793D01*
X018507Y007793D01*
X018544Y007757D01*
X018544Y007646D01*
X018324Y007646D01*
X018360Y007867D02*
X018324Y007904D01*
X018324Y007977D01*
X018360Y008014D01*
X018434Y008014D01*
X018471Y007977D01*
X018471Y007941D01*
X018434Y007867D01*
X018544Y007867D01*
X018544Y008014D01*
X018507Y008088D02*
X018471Y008088D01*
X018434Y008125D01*
X018434Y008198D01*
X018397Y008235D01*
X018360Y008235D01*
X018324Y008198D01*
X018324Y008125D01*
X018360Y008088D01*
X018397Y008088D01*
X018434Y008125D01*
X018434Y008198D02*
X018471Y008235D01*
X018507Y008235D01*
X018544Y008198D01*
X018544Y008125D01*
X018507Y008088D01*
X018434Y008309D02*
X018434Y008419D01*
X018397Y008456D01*
X018360Y008456D01*
X018324Y008419D01*
X018324Y008346D01*
X018360Y008309D01*
X018434Y008309D01*
X018507Y008383D01*
X018544Y008456D01*
X018544Y008530D02*
X018544Y008677D01*
X018507Y008677D01*
X018360Y008530D01*
X018324Y008530D01*
X018324Y008751D02*
X018544Y008751D01*
X018324Y008898D01*
X018544Y008898D01*
X018544Y008972D02*
X018324Y008972D01*
X018324Y009119D01*
X018302Y009493D02*
X018192Y009493D01*
X018155Y009530D01*
X018155Y009677D01*
X018192Y009714D01*
X018302Y009714D01*
X018302Y009493D01*
X018192Y009493D01*
X018155Y009530D01*
X018155Y009677D01*
X018192Y009714D01*
X018302Y009714D01*
X018302Y009493D01*
X018376Y009493D02*
X018376Y009714D01*
X018376Y009493D01*
X018523Y009714D01*
X018523Y009493D01*
X018523Y009714D01*
X018376Y009493D01*
X018597Y009530D02*
X018597Y009603D01*
X018670Y009603D01*
X018597Y009603D01*
X018597Y009530D01*
X018634Y009493D01*
X018707Y009493D01*
X018744Y009530D01*
X018744Y009677D01*
X018707Y009714D01*
X018634Y009714D01*
X018597Y009677D01*
X018634Y009714D01*
X018707Y009714D01*
X018744Y009677D01*
X018744Y009530D01*
X018707Y009493D01*
X018634Y009493D01*
X018597Y009530D01*
X019255Y009530D02*
X019292Y009493D01*
X019365Y009493D01*
X019402Y009530D01*
X019402Y009677D01*
X019365Y009714D01*
X019292Y009714D01*
X019255Y009677D01*
X019476Y009677D02*
X019513Y009714D01*
X019586Y009714D01*
X019623Y009677D01*
X019623Y009530D01*
X019586Y009493D01*
X019513Y009493D01*
X019476Y009530D01*
X019697Y009567D02*
X019697Y009714D01*
X019844Y009714D02*
X019844Y009567D01*
X019770Y009493D01*
X019697Y009567D01*
X017744Y009530D02*
X017707Y009493D01*
X017634Y009493D01*
X017597Y009530D01*
X017597Y009567D01*
X017634Y009603D01*
X017707Y009603D01*
X017744Y009640D01*
X017744Y009677D01*
X017707Y009714D01*
X017634Y009714D01*
X017597Y009677D01*
X017523Y009714D02*
X017449Y009714D01*
X017486Y009714D02*
X017486Y009493D01*
X017523Y009493D02*
X017449Y009493D01*
X017375Y009530D02*
X017339Y009493D01*
X017265Y009493D01*
X017229Y009530D01*
X017229Y009603D01*
X017302Y009603D01*
X017375Y009677D02*
X017375Y009530D01*
X017375Y009677D02*
X017339Y009714D01*
X017265Y009714D01*
X017229Y009677D01*
X032126Y011543D02*
X032273Y011543D01*
X032126Y011690D01*
X032126Y011727D01*
X032163Y011764D01*
X032236Y011764D01*
X032273Y011727D01*
X032347Y011727D02*
X032384Y011764D01*
X032457Y011764D01*
X032494Y011727D01*
X032494Y011580D01*
X032457Y011543D01*
X032384Y011543D01*
X032347Y011580D01*
X037674Y009269D02*
X037674Y009122D01*
X037821Y009269D01*
X037857Y009269D01*
X037894Y009232D01*
X037894Y009159D01*
X037857Y009122D01*
X037894Y009048D02*
X037674Y008901D01*
X037674Y009048D02*
X037894Y008901D01*
X035775Y008674D02*
X035775Y008490D01*
X035738Y008453D01*
X035665Y008453D01*
X035628Y008490D01*
X035628Y008674D01*
X035554Y008600D02*
X035480Y008674D01*
X035407Y008600D01*
X035407Y008453D01*
X035333Y008453D02*
X035333Y008490D01*
X035186Y008637D01*
X035186Y008674D01*
X035333Y008674D01*
X035407Y008563D02*
X035554Y008563D01*
X035554Y008600D02*
X035554Y008453D01*
X035112Y008490D02*
X035112Y008527D01*
X035075Y008563D01*
X035002Y008563D01*
X034965Y008527D01*
X034965Y008490D01*
X035002Y008453D01*
X035075Y008453D01*
X035112Y008490D01*
X035075Y008563D02*
X035112Y008600D01*
X035112Y008637D01*
X035075Y008674D01*
X035002Y008674D01*
X034965Y008637D01*
X034965Y008600D01*
X035002Y008563D01*
X034891Y008453D02*
X034891Y008674D01*
X034817Y008600D01*
X034744Y008674D01*
X034744Y008453D01*
X034670Y008490D02*
X034633Y008453D01*
X034560Y008453D01*
X034523Y008490D01*
X034523Y008527D01*
X034560Y008563D01*
X034596Y008563D01*
X034560Y008563D02*
X034523Y008600D01*
X034523Y008637D01*
X034560Y008674D01*
X034633Y008674D01*
X034670Y008637D01*
X034449Y008637D02*
X034412Y008674D01*
X034339Y008674D01*
X034302Y008637D01*
X034302Y008600D01*
X034339Y008563D01*
X034302Y008527D01*
X034302Y008490D01*
X034339Y008453D01*
X034412Y008453D01*
X034449Y008490D01*
X034375Y008563D02*
X034339Y008563D01*
X034228Y008490D02*
X034191Y008453D01*
X034118Y008453D01*
X034081Y008490D01*
X034007Y008453D02*
X034007Y008674D01*
X034081Y008637D02*
X034118Y008674D01*
X034191Y008674D01*
X034228Y008637D01*
X034228Y008490D01*
X034007Y008527D02*
X033860Y008674D01*
X033786Y008674D02*
X033786Y008527D01*
X033712Y008453D01*
X033639Y008527D01*
X033639Y008674D01*
X033565Y008674D02*
X033565Y008490D01*
X033528Y008453D01*
X033455Y008453D01*
X033418Y008490D01*
X033418Y008674D01*
X033860Y008453D02*
X033970Y008563D01*
X034268Y007374D02*
X034415Y007374D01*
X034415Y007263D01*
X034341Y007300D01*
X034305Y007300D01*
X034268Y007263D01*
X034268Y007190D01*
X034305Y007153D01*
X034378Y007153D01*
X034415Y007190D01*
X034489Y007190D02*
X034526Y007153D01*
X034599Y007153D01*
X034636Y007190D01*
X034636Y007337D01*
X034599Y007374D01*
X034526Y007374D01*
X034489Y007337D01*
X034399Y006324D02*
X034436Y006287D01*
X034436Y006140D01*
X034399Y006103D01*
X034326Y006103D01*
X034289Y006140D01*
X034215Y006140D02*
X034178Y006103D01*
X034105Y006103D01*
X034068Y006140D01*
X034068Y006177D01*
X034105Y006213D01*
X034141Y006213D01*
X034105Y006213D02*
X034068Y006250D01*
X034068Y006287D01*
X034105Y006324D01*
X034178Y006324D01*
X034215Y006287D01*
X034289Y006287D02*
X034326Y006324D01*
X034399Y006324D01*
X041276Y003893D02*
X041423Y003893D01*
X041349Y003893D02*
X041349Y004114D01*
X041423Y004040D01*
X041497Y004114D02*
X041644Y003893D01*
X041497Y003893D02*
X041644Y004114D01*
D11*
X007607Y003103D02*
X007574Y003137D01*
X007574Y003203D01*
X007607Y003237D01*
X007641Y003237D01*
X007674Y003203D01*
X007674Y003137D01*
X007707Y003103D01*
X007741Y003103D01*
X007774Y003137D01*
X007774Y003203D01*
X007741Y003237D01*
X007774Y003324D02*
X007574Y003324D01*
X007574Y003424D01*
X007607Y003458D01*
X007741Y003458D01*
X007774Y003424D01*
X007774Y003324D01*
X007707Y003545D02*
X007574Y003545D01*
X007674Y003545D02*
X007674Y003679D01*
X007707Y003679D02*
X007574Y003679D01*
X007707Y003679D02*
X007774Y003612D01*
X007707Y003545D01*
X007707Y004103D02*
X007674Y004137D01*
X007674Y004203D01*
X007641Y004237D01*
X007607Y004237D01*
X007574Y004203D01*
X007574Y004137D01*
X007607Y004103D01*
X007707Y004103D02*
X007741Y004103D01*
X007774Y004137D01*
X007774Y004203D01*
X007741Y004237D01*
X007741Y004324D02*
X007607Y004324D01*
X007574Y004358D01*
X007574Y004424D01*
X007607Y004458D01*
X007574Y004545D02*
X007574Y004679D01*
X007574Y004545D02*
X007774Y004545D01*
X007741Y004458D02*
X007774Y004424D01*
X007774Y004358D01*
X007741Y004324D01*
X007774Y005103D02*
X007774Y005170D01*
X007774Y005137D02*
X007574Y005137D01*
X007574Y005170D02*
X007574Y005103D01*
X007574Y005251D02*
X007774Y005251D01*
X007774Y005351D01*
X007741Y005384D01*
X007674Y005384D01*
X007641Y005351D01*
X007641Y005251D01*
X007641Y005317D02*
X007574Y005384D01*
X007574Y005472D02*
X007707Y005605D01*
X007741Y005605D01*
X007774Y005572D01*
X007774Y005505D01*
X007741Y005472D01*
X007574Y005472D02*
X007574Y005605D01*
X007574Y006203D02*
X007574Y006270D01*
X007574Y006237D02*
X007774Y006237D01*
X007774Y006270D02*
X007774Y006203D01*
X007774Y006351D02*
X007574Y006351D01*
X007641Y006351D02*
X007641Y006451D01*
X007674Y006484D01*
X007741Y006484D01*
X007774Y006451D01*
X007774Y006351D01*
X007641Y006417D02*
X007574Y006484D01*
X007574Y006572D02*
X007574Y006705D01*
X007574Y006638D02*
X007774Y006638D01*
X007707Y006572D01*
X007641Y007003D02*
X007641Y007103D01*
X007674Y007137D01*
X007741Y007137D01*
X007774Y007103D01*
X007774Y007003D01*
X007574Y007003D01*
X007574Y007224D02*
X007641Y007291D01*
X007574Y007358D01*
X007774Y007358D01*
X007774Y007445D02*
X007574Y007445D01*
X007574Y007579D02*
X007774Y007579D01*
X007707Y007512D01*
X007774Y007445D01*
X007674Y007666D02*
X007674Y007800D01*
X007774Y007766D02*
X007674Y007666D01*
X007574Y007766D02*
X007774Y007766D01*
X007774Y008003D02*
X007574Y008003D01*
X007641Y008003D02*
X007641Y008103D01*
X007674Y008137D01*
X007741Y008137D01*
X007774Y008103D01*
X007774Y008003D01*
X007774Y008224D02*
X007574Y008224D01*
X007641Y008291D01*
X007574Y008358D01*
X007774Y008358D01*
X007774Y008445D02*
X007707Y008512D01*
X007774Y008579D01*
X007574Y008579D01*
X007607Y008666D02*
X007574Y008700D01*
X007574Y008766D01*
X007607Y008800D01*
X007641Y008800D01*
X007674Y008766D01*
X007674Y008733D01*
X007674Y008766D02*
X007707Y008800D01*
X007741Y008800D01*
X007774Y008766D01*
X007774Y008700D01*
X007741Y008666D01*
X007774Y008445D02*
X007574Y008445D01*
X007574Y009003D02*
X007774Y009003D01*
X007774Y009103D01*
X007741Y009137D01*
X007674Y009137D01*
X007641Y009103D01*
X007641Y009003D01*
X007574Y009224D02*
X007641Y009291D01*
X007574Y009358D01*
X007774Y009358D01*
X007774Y009445D02*
X007574Y009445D01*
X007574Y009579D02*
X007774Y009579D01*
X007707Y009512D01*
X007774Y009445D01*
X007741Y009666D02*
X007774Y009700D01*
X007774Y009766D01*
X007741Y009800D01*
X007707Y009800D01*
X007574Y009666D01*
X007574Y009800D01*
X007574Y010003D02*
X007774Y010003D01*
X007774Y010103D01*
X007741Y010137D01*
X007674Y010137D01*
X007641Y010103D01*
X007641Y010003D01*
X007574Y010224D02*
X007641Y010291D01*
X007574Y010358D01*
X007774Y010358D01*
X007774Y010445D02*
X007574Y010445D01*
X007574Y010579D02*
X007774Y010579D01*
X007707Y010512D01*
X007774Y010445D01*
X007707Y010666D02*
X007774Y010733D01*
X007574Y010733D01*
X007574Y010666D02*
X007574Y010800D01*
X007574Y010224D02*
X007774Y010224D01*
X007774Y009224D02*
X007574Y009224D01*
X007574Y007224D02*
X007774Y007224D01*
X015874Y007220D02*
X015951Y007143D01*
X015874Y007220D02*
X015874Y007373D01*
X015951Y007450D01*
X016257Y007450D01*
X016334Y007373D01*
X016334Y007220D01*
X016257Y007143D01*
X016181Y007143D01*
X016104Y007220D01*
X016104Y007450D01*
X016104Y006989D02*
X016027Y006913D01*
X016027Y006683D01*
X016027Y006836D02*
X015874Y006989D01*
X016104Y006989D02*
X016257Y006989D01*
X016334Y006913D01*
X016334Y006683D01*
X015874Y006683D01*
X016104Y005821D02*
X016104Y005514D01*
X016334Y005744D01*
X015874Y005744D01*
X015874Y005360D02*
X016027Y005207D01*
X016027Y005284D02*
X016027Y005053D01*
X015874Y005053D02*
X016334Y005053D01*
X016334Y005284D01*
X016257Y005360D01*
X016104Y005360D01*
X016027Y005284D01*
X016027Y004100D02*
X015951Y004100D01*
X015874Y004023D01*
X015874Y003870D01*
X015951Y003793D01*
X016027Y003793D01*
X016104Y003870D01*
X016104Y004023D01*
X016027Y004100D01*
X016104Y004023D02*
X016181Y004100D01*
X016257Y004100D01*
X016334Y004023D01*
X016334Y003870D01*
X016257Y003793D01*
X016181Y003793D01*
X016104Y003870D01*
X016104Y003639D02*
X016027Y003563D01*
X016027Y003333D01*
X016027Y003486D02*
X015874Y003639D01*
X016104Y003639D02*
X016257Y003639D01*
X016334Y003563D01*
X016334Y003333D01*
X015874Y003333D01*
X019874Y002154D02*
X020334Y002154D01*
X020104Y001924D01*
X020104Y002231D01*
X019874Y001771D02*
X019874Y001464D01*
X019874Y001617D02*
X020334Y001617D01*
X020181Y001464D01*
X020257Y001310D02*
X020104Y001310D01*
X020027Y001234D01*
X020027Y001003D01*
X019874Y001003D02*
X020334Y001003D01*
X020334Y001234D01*
X020257Y001310D01*
X020027Y001157D02*
X019874Y001310D01*
X021137Y002553D02*
X021444Y002553D01*
X021291Y002553D02*
X021291Y003014D01*
X021444Y002860D01*
X021598Y003014D02*
X021905Y003014D01*
X021751Y003014D02*
X021751Y002553D01*
X023124Y003273D02*
X023884Y003273D01*
X023884Y003893D02*
X023124Y003893D01*
X023293Y004103D02*
X023447Y004103D01*
X023523Y004180D01*
X023523Y004257D01*
X023447Y004334D01*
X023293Y004334D01*
X023216Y004257D01*
X023216Y004180D01*
X023293Y004103D01*
X023677Y004180D02*
X023754Y004103D01*
X023907Y004103D01*
X023984Y004180D01*
X023984Y004487D01*
X023907Y004564D01*
X023754Y004564D01*
X023677Y004487D01*
X023523Y004487D02*
X023523Y004410D01*
X023447Y004334D01*
X023293Y004334D02*
X023216Y004410D01*
X023216Y004487D01*
X023293Y004564D01*
X023447Y004564D01*
X023523Y004487D01*
X027237Y004514D02*
X027391Y004437D01*
X027544Y004284D01*
X027314Y004284D01*
X027237Y004207D01*
X027237Y004130D01*
X027314Y004053D01*
X027467Y004053D01*
X027544Y004130D01*
X027544Y004284D01*
X027698Y004437D02*
X027774Y004514D01*
X027928Y004514D01*
X028005Y004437D01*
X028005Y004130D01*
X027928Y004053D01*
X027774Y004053D01*
X027698Y004130D01*
X028034Y003893D02*
X027274Y003893D01*
X027274Y003273D02*
X028034Y003273D01*
X032724Y003233D02*
X033184Y003233D01*
X033184Y003463D01*
X033107Y003539D01*
X032954Y003539D01*
X032877Y003463D01*
X032877Y003233D01*
X032877Y003386D02*
X032724Y003539D01*
X032724Y003693D02*
X032724Y004000D01*
X032724Y003846D02*
X033184Y003846D01*
X033031Y003693D01*
X033874Y006373D02*
X034634Y006373D01*
X034634Y006993D02*
X033874Y006993D01*
X034314Y007463D02*
X034594Y007463D01*
X034594Y007798D02*
X034314Y007798D01*
X035974Y008403D02*
X035974Y008557D01*
X035974Y008480D02*
X036434Y008480D01*
X036434Y008403D02*
X036434Y008557D01*
X036357Y008710D02*
X036051Y008710D01*
X035974Y008787D01*
X035974Y008940D01*
X036051Y009017D01*
X036051Y009171D02*
X035974Y009247D01*
X035974Y009401D01*
X036051Y009478D01*
X036127Y009478D01*
X036204Y009401D01*
X036204Y009324D01*
X036204Y009401D02*
X036281Y009478D01*
X036357Y009478D01*
X036434Y009401D01*
X036434Y009247D01*
X036357Y009171D01*
X036357Y009017D02*
X036434Y008940D01*
X036434Y008787D01*
X036357Y008710D01*
X036924Y008953D02*
X036924Y009260D01*
X036924Y009107D02*
X037384Y009107D01*
X037231Y008953D01*
X032634Y010873D02*
X031874Y010873D01*
X031874Y011493D02*
X032634Y011493D01*
X029134Y009543D02*
X028374Y009543D01*
X027755Y009287D02*
X027755Y008980D01*
X027678Y008903D01*
X027524Y008903D01*
X027448Y008980D01*
X027294Y008980D02*
X027217Y008903D01*
X027064Y008903D01*
X026987Y008980D01*
X026987Y009287D01*
X027064Y009364D01*
X027217Y009364D01*
X027294Y009287D01*
X027294Y009210D01*
X027217Y009134D01*
X026987Y009134D01*
X027448Y009287D02*
X027524Y009364D01*
X027678Y009364D01*
X027755Y009287D01*
X028374Y008923D02*
X029134Y008923D01*
X029923Y009003D02*
X029923Y009080D01*
X029616Y009387D01*
X029616Y009464D01*
X029923Y009464D01*
X030077Y009387D02*
X030154Y009464D01*
X030307Y009464D01*
X030384Y009387D01*
X030384Y009080D01*
X030307Y009003D01*
X030154Y009003D01*
X030077Y009080D01*
X026384Y008923D02*
X025624Y008923D01*
X025624Y009543D02*
X026384Y009543D01*
X021905Y010114D02*
X021598Y010114D01*
X021751Y010114D02*
X021751Y009653D01*
X021444Y009653D02*
X021137Y009960D01*
X021137Y010037D01*
X021214Y010114D01*
X021367Y010114D01*
X021444Y010037D01*
X021444Y009653D02*
X021137Y009653D01*
X020515Y011303D02*
X020515Y011764D01*
X020285Y011764D01*
X020208Y011687D01*
X020208Y011534D01*
X020285Y011457D01*
X020515Y011457D01*
X020361Y011457D02*
X020208Y011303D01*
X020055Y011303D02*
X019748Y011303D01*
X019901Y011303D02*
X019901Y011764D01*
X020055Y011610D01*
X019594Y011534D02*
X019441Y011610D01*
X019364Y011610D01*
X019287Y011534D01*
X019287Y011380D01*
X019364Y011303D01*
X019517Y011303D01*
X019594Y011380D01*
X019594Y011534D02*
X019594Y011764D01*
X019287Y011764D01*
X016334Y008850D02*
X016334Y008543D01*
X016104Y008543D01*
X016181Y008696D01*
X016181Y008773D01*
X016104Y008850D01*
X015951Y008850D01*
X015874Y008773D01*
X015874Y008620D01*
X015951Y008543D01*
X015874Y008389D02*
X016027Y008236D01*
X016027Y008313D02*
X016027Y008083D01*
X015874Y008083D02*
X016334Y008083D01*
X016334Y008313D01*
X016257Y008389D01*
X016104Y008389D01*
X016027Y008313D01*
D12*
X040999Y008897D02*
X040999Y009034D01*
X041067Y009102D01*
X041204Y009102D01*
X041204Y008965D01*
X041341Y008828D02*
X041067Y008828D01*
X040999Y008897D01*
X041341Y008828D02*
X041409Y008897D01*
X041409Y009034D01*
X041341Y009102D01*
X041409Y009289D02*
X040999Y009289D01*
X040999Y009562D02*
X041409Y009289D01*
X041409Y009562D02*
X040999Y009562D01*
X040999Y009749D02*
X040999Y009954D01*
X041067Y010023D01*
X041341Y010023D01*
X041409Y009954D01*
X041409Y009749D01*
X040999Y009749D01*
X041304Y010428D02*
X041304Y010702D01*
X041441Y010565D02*
X041167Y010565D01*
X041099Y010889D02*
X041099Y011162D01*
X041099Y011026D02*
X041509Y011026D01*
X041372Y010889D01*
X041441Y011349D02*
X041509Y011418D01*
X041509Y011554D01*
X041441Y011623D01*
X041372Y011623D01*
X041099Y011349D01*
X041099Y011623D01*
X041236Y011810D02*
X041099Y011946D01*
X041236Y012083D01*
X041509Y012083D01*
X041509Y011810D02*
X041236Y011810D01*
X041167Y007873D02*
X041441Y007873D01*
X041509Y007804D01*
X041509Y007599D01*
X041099Y007599D01*
X041099Y007804D01*
X041167Y007873D01*
X041099Y007412D02*
X041509Y007412D01*
X041509Y007139D02*
X041099Y007412D01*
X041099Y007139D02*
X041509Y007139D01*
X041441Y006952D02*
X041509Y006884D01*
X041509Y006747D01*
X041441Y006678D01*
X041167Y006678D01*
X041099Y006747D01*
X041099Y006884D01*
X041167Y006952D01*
X041304Y006952D01*
X041304Y006815D01*
X041236Y006083D02*
X041509Y006083D01*
X041236Y006083D02*
X041099Y005946D01*
X041236Y005810D01*
X041509Y005810D01*
X041441Y005623D02*
X041509Y005554D01*
X041509Y005418D01*
X041441Y005349D01*
X041372Y005623D02*
X041099Y005349D01*
X041099Y005623D01*
X041372Y005623D02*
X041441Y005623D01*
X041099Y005162D02*
X041099Y004889D01*
X041099Y005026D02*
X041509Y005026D01*
X041372Y004889D01*
X041304Y004702D02*
X041304Y004428D01*
X041441Y004565D02*
X041167Y004565D01*
D13*
X029729Y000934D02*
X029162Y000934D01*
X027729Y000934D02*
X027162Y000934D01*
X027445Y001217D02*
X027445Y000650D01*
X025729Y000934D02*
X025162Y000934D01*
X023729Y000934D02*
X023162Y000934D01*
X023445Y001217D02*
X023445Y000650D01*
X025445Y011450D02*
X025445Y012017D01*
X025729Y011734D02*
X025162Y011734D01*
X023729Y011734D02*
X023162Y011734D01*
X027062Y011734D02*
X027629Y011734D01*
X029162Y011734D02*
X029729Y011734D01*
X029445Y012017D02*
X029445Y011450D01*
D14*
X014099Y011829D02*
X013705Y011829D01*
X013902Y011829D02*
X013902Y011238D01*
X013454Y011337D02*
X013454Y011534D01*
X013356Y011632D01*
X013159Y011632D01*
X013061Y011534D01*
X013061Y011435D01*
X013454Y011435D01*
X013454Y011337D02*
X013356Y011238D01*
X013159Y011238D01*
X012810Y011238D02*
X012810Y011632D01*
X012514Y011632D01*
X012416Y011534D01*
X012416Y011238D01*
X012067Y011337D02*
X011968Y011238D01*
X012067Y011337D02*
X012067Y011730D01*
X012165Y011632D02*
X011968Y011632D01*
X011637Y011632D02*
X011440Y011632D01*
X011342Y011534D01*
X011342Y011238D01*
X011637Y011238D01*
X011735Y011337D01*
X011637Y011435D01*
X011342Y011435D01*
X011091Y011337D02*
X010992Y011238D01*
X010697Y011238D01*
X010446Y011238D02*
X010249Y011238D01*
X010348Y011238D02*
X010348Y011829D01*
X010446Y011829D01*
X010697Y011632D02*
X010992Y011632D01*
X011091Y011534D01*
X011091Y011337D01*
X010017Y011337D02*
X009918Y011238D01*
X009721Y011238D01*
X009623Y011435D02*
X010017Y011435D01*
X010017Y011337D02*
X010017Y011534D01*
X009918Y011632D01*
X009721Y011632D01*
X009623Y011534D01*
X009623Y011435D01*
X008728Y011238D02*
X008728Y011829D01*
X008531Y011632D01*
X008334Y011829D01*
X008334Y011238D01*
X008083Y011337D02*
X007985Y011238D01*
X007788Y011238D01*
X007689Y011337D01*
X007689Y011534D01*
X007788Y011632D01*
X007985Y011632D01*
X008083Y011534D01*
X008083Y011337D01*
X007438Y011337D02*
X007340Y011238D01*
X007045Y011238D01*
X007045Y011829D01*
X007045Y011632D02*
X007340Y011632D01*
X007438Y011534D01*
X007438Y011337D01*
X006794Y011337D02*
X006695Y011238D01*
X006400Y011238D01*
X006400Y011632D01*
X006149Y011829D02*
X006051Y011829D01*
X006051Y011238D01*
X006149Y011238D02*
X005952Y011238D01*
X005720Y011337D02*
X005720Y011534D01*
X005621Y011632D01*
X005424Y011632D01*
X005326Y011534D01*
X005326Y011435D01*
X005720Y011435D01*
X005720Y011337D02*
X005621Y011238D01*
X005424Y011238D01*
X006794Y011337D02*
X006794Y011632D01*
D15*
X012181Y010743D02*
X012361Y010743D01*
X012226Y010879D01*
X012226Y010608D01*
X012475Y010608D02*
X012656Y010608D01*
X012565Y010608D02*
X012565Y010879D01*
X012656Y010788D01*
X012770Y010834D02*
X012950Y010653D01*
X012905Y010608D01*
X012815Y010608D01*
X012770Y010653D01*
X012770Y010834D01*
X012815Y010879D01*
X012905Y010879D01*
X012950Y010834D01*
X012950Y010653D01*
X013065Y010608D02*
X013245Y010608D01*
X013065Y010788D01*
X013065Y010834D01*
X013110Y010879D01*
X013200Y010879D01*
X013245Y010834D01*
X013359Y010879D02*
X013539Y010608D01*
X013654Y010653D02*
X013699Y010608D01*
X013789Y010608D01*
X013834Y010653D01*
X013834Y010698D01*
X013789Y010743D01*
X013699Y010743D01*
X013654Y010698D01*
X013654Y010653D01*
X013699Y010743D02*
X013654Y010788D01*
X013654Y010834D01*
X013699Y010879D01*
X013789Y010879D01*
X013834Y010834D01*
X013834Y010788D01*
X013789Y010743D01*
X013949Y010653D02*
X013994Y010608D01*
X014084Y010608D01*
X014129Y010653D01*
X013949Y010834D01*
X013949Y010653D01*
X014129Y010653D02*
X014129Y010834D01*
X014084Y010879D01*
X013994Y010879D01*
X013949Y010834D01*
X038879Y011598D02*
X038879Y011898D01*
X038879Y011748D02*
X039329Y011748D01*
X039179Y011598D01*
X039199Y009878D02*
X039274Y009878D01*
X039349Y009803D01*
X039349Y009653D01*
X039274Y009578D01*
X039199Y009878D02*
X038899Y009578D01*
X038899Y009878D01*
X038954Y007898D02*
X038879Y007823D01*
X038879Y007673D01*
X038954Y007598D01*
X039104Y007748D02*
X039104Y007823D01*
X039029Y007898D01*
X038954Y007898D01*
X039104Y007823D02*
X039179Y007898D01*
X039254Y007898D01*
X039329Y007823D01*
X039329Y007673D01*
X039254Y007598D01*
X039124Y005878D02*
X039124Y005578D01*
X039349Y005803D01*
X038899Y005803D01*
D16*
X035744Y008533D02*
X033164Y008533D01*
X033164Y010893D01*
X033163Y010893D02*
X035744Y010893D01*
X035744Y008533D01*
X030764Y007884D02*
X030484Y007884D01*
X028364Y007884D02*
X028084Y007884D01*
X028224Y008024D02*
X028224Y007743D01*
X026764Y007884D02*
X026484Y007884D01*
X024364Y007884D02*
X024084Y007884D01*
X024224Y008024D02*
X024224Y007743D01*
X021714Y007303D02*
X021534Y007123D01*
X021254Y007123D01*
X021254Y009143D01*
X021534Y009143D01*
X021714Y008963D01*
X021714Y007303D01*
X021214Y006843D02*
X018854Y006843D01*
X018854Y009423D01*
X021214Y009423D01*
X021213Y009424D02*
X021214Y006843D01*
X021213Y005924D02*
X021214Y003343D01*
X018854Y003343D01*
X018854Y005923D01*
X021214Y005923D01*
X021254Y005643D02*
X021254Y003623D01*
X021534Y003623D01*
X021714Y003803D01*
X021714Y005463D01*
X021534Y005643D01*
X021254Y005643D01*
X024084Y004884D02*
X024364Y004884D01*
X026584Y004884D02*
X026864Y004884D01*
X026724Y005024D02*
X026724Y004743D01*
X028084Y004884D02*
X028364Y004884D01*
X030484Y004884D02*
X030764Y004884D01*
X030624Y005024D02*
X030624Y004743D01*
X033444Y010933D02*
X035464Y010933D01*
X035464Y011213D01*
X035284Y011393D01*
X033624Y011393D01*
X033444Y011213D01*
X033444Y010933D01*
D17*
X032776Y011183D03*
X031731Y011184D03*
X029276Y009233D03*
X028231Y009234D03*
X026526Y009233D03*
X025481Y009234D03*
X033731Y006684D03*
X034776Y006683D03*
X028176Y003583D03*
X027131Y003584D03*
X024026Y003583D03*
X022981Y003584D03*
D18*
X016844Y003713D02*
X016844Y004053D01*
X016564Y004053D02*
X016564Y003713D01*
X016564Y005213D02*
X016564Y005553D01*
X016844Y005553D02*
X016844Y005213D01*
X016844Y006963D02*
X016844Y007303D01*
X016564Y007303D02*
X016564Y006963D01*
X016564Y008463D02*
X016564Y008803D01*
X016844Y008803D02*
X016844Y008463D01*
X021034Y011493D02*
X021374Y011493D01*
X021374Y011773D02*
X021034Y011773D01*
X038104Y012283D02*
X038104Y008283D01*
X040804Y008283D01*
X040804Y007633D01*
X040804Y006933D01*
X040804Y005633D01*
X040804Y004933D01*
X040804Y004283D01*
X041754Y004283D01*
X041754Y012283D01*
X040804Y012283D01*
X040804Y011633D01*
X040804Y010933D01*
X040804Y009633D01*
X040804Y008933D01*
X040804Y008283D01*
X039154Y009183D02*
X038154Y009183D01*
X038154Y010183D01*
X038154Y011183D01*
X038154Y012183D01*
X039154Y012183D01*
X039154Y011183D01*
X039154Y010183D01*
X039154Y009183D01*
X038534Y009283D02*
X038536Y009311D01*
X038542Y009338D01*
X038551Y009364D01*
X038564Y009389D01*
X038581Y009412D01*
X038600Y009432D01*
X038622Y009449D01*
X038646Y009463D01*
X038672Y009473D01*
X038699Y009480D01*
X038727Y009483D01*
X038755Y009482D01*
X038782Y009477D01*
X038809Y009468D01*
X038834Y009456D01*
X038857Y009441D01*
X038878Y009422D01*
X038896Y009401D01*
X038911Y009377D01*
X038922Y009351D01*
X038930Y009325D01*
X038934Y009297D01*
X038934Y009269D01*
X038930Y009241D01*
X038922Y009215D01*
X038911Y009189D01*
X038896Y009165D01*
X038878Y009144D01*
X038857Y009125D01*
X038834Y009110D01*
X038809Y009098D01*
X038782Y009089D01*
X038755Y009084D01*
X038727Y009083D01*
X038699Y009086D01*
X038672Y009093D01*
X038646Y009103D01*
X038622Y009117D01*
X038600Y009134D01*
X038581Y009154D01*
X038564Y009177D01*
X038551Y009202D01*
X038542Y009228D01*
X038536Y009255D01*
X038534Y009283D01*
X039514Y009283D02*
X039516Y009331D01*
X039522Y009379D01*
X039532Y009426D01*
X039545Y009472D01*
X039562Y009517D01*
X039583Y009560D01*
X039608Y009602D01*
X039635Y009641D01*
X039666Y009678D01*
X039700Y009713D01*
X039736Y009744D01*
X039775Y009773D01*
X039816Y009798D01*
X039859Y009820D01*
X039903Y009838D01*
X039949Y009852D01*
X039996Y009863D01*
X040044Y009870D01*
X040092Y009873D01*
X040140Y009872D01*
X040188Y009867D01*
X040235Y009858D01*
X040282Y009846D01*
X040327Y009829D01*
X040371Y009809D01*
X040413Y009786D01*
X040453Y009759D01*
X040490Y009729D01*
X040525Y009696D01*
X040558Y009660D01*
X040587Y009622D01*
X040613Y009581D01*
X040636Y009539D01*
X040655Y009495D01*
X040670Y009449D01*
X040682Y009403D01*
X040690Y009355D01*
X040694Y009307D01*
X040694Y009259D01*
X040690Y009211D01*
X040682Y009163D01*
X040670Y009117D01*
X040655Y009071D01*
X040636Y009027D01*
X040613Y008985D01*
X040587Y008944D01*
X040558Y008906D01*
X040525Y008870D01*
X040490Y008837D01*
X040453Y008807D01*
X040413Y008780D01*
X040371Y008757D01*
X040327Y008737D01*
X040282Y008720D01*
X040235Y008708D01*
X040188Y008699D01*
X040140Y008694D01*
X040092Y008693D01*
X040044Y008696D01*
X039996Y008703D01*
X039949Y008714D01*
X039903Y008728D01*
X039859Y008746D01*
X039816Y008768D01*
X039775Y008793D01*
X039736Y008822D01*
X039700Y008853D01*
X039666Y008888D01*
X039635Y008925D01*
X039608Y008964D01*
X039583Y009006D01*
X039562Y009049D01*
X039545Y009094D01*
X039532Y009140D01*
X039522Y009187D01*
X039516Y009235D01*
X039514Y009283D01*
X039154Y010183D02*
X038154Y010183D01*
X038154Y011183D02*
X039154Y011183D01*
X038534Y011283D02*
X038536Y011311D01*
X038542Y011338D01*
X038551Y011364D01*
X038564Y011389D01*
X038581Y011412D01*
X038600Y011432D01*
X038622Y011449D01*
X038646Y011463D01*
X038672Y011473D01*
X038699Y011480D01*
X038727Y011483D01*
X038755Y011482D01*
X038782Y011477D01*
X038809Y011468D01*
X038834Y011456D01*
X038857Y011441D01*
X038878Y011422D01*
X038896Y011401D01*
X038911Y011377D01*
X038922Y011351D01*
X038930Y011325D01*
X038934Y011297D01*
X038934Y011269D01*
X038930Y011241D01*
X038922Y011215D01*
X038911Y011189D01*
X038896Y011165D01*
X038878Y011144D01*
X038857Y011125D01*
X038834Y011110D01*
X038809Y011098D01*
X038782Y011089D01*
X038755Y011084D01*
X038727Y011083D01*
X038699Y011086D01*
X038672Y011093D01*
X038646Y011103D01*
X038622Y011117D01*
X038600Y011134D01*
X038581Y011154D01*
X038564Y011177D01*
X038551Y011202D01*
X038542Y011228D01*
X038536Y011255D01*
X038534Y011283D01*
X039514Y011283D02*
X039516Y011331D01*
X039522Y011379D01*
X039532Y011426D01*
X039545Y011472D01*
X039562Y011517D01*
X039583Y011560D01*
X039608Y011602D01*
X039635Y011641D01*
X039666Y011678D01*
X039700Y011713D01*
X039736Y011744D01*
X039775Y011773D01*
X039816Y011798D01*
X039859Y011820D01*
X039903Y011838D01*
X039949Y011852D01*
X039996Y011863D01*
X040044Y011870D01*
X040092Y011873D01*
X040140Y011872D01*
X040188Y011867D01*
X040235Y011858D01*
X040282Y011846D01*
X040327Y011829D01*
X040371Y011809D01*
X040413Y011786D01*
X040453Y011759D01*
X040490Y011729D01*
X040525Y011696D01*
X040558Y011660D01*
X040587Y011622D01*
X040613Y011581D01*
X040636Y011539D01*
X040655Y011495D01*
X040670Y011449D01*
X040682Y011403D01*
X040690Y011355D01*
X040694Y011307D01*
X040694Y011259D01*
X040690Y011211D01*
X040682Y011163D01*
X040670Y011117D01*
X040655Y011071D01*
X040636Y011027D01*
X040613Y010985D01*
X040587Y010944D01*
X040558Y010906D01*
X040525Y010870D01*
X040490Y010837D01*
X040453Y010807D01*
X040413Y010780D01*
X040371Y010757D01*
X040327Y010737D01*
X040282Y010720D01*
X040235Y010708D01*
X040188Y010699D01*
X040140Y010694D01*
X040092Y010693D01*
X040044Y010696D01*
X039996Y010703D01*
X039949Y010714D01*
X039903Y010728D01*
X039859Y010746D01*
X039816Y010768D01*
X039775Y010793D01*
X039736Y010822D01*
X039700Y010853D01*
X039666Y010888D01*
X039635Y010925D01*
X039608Y010964D01*
X039583Y011006D01*
X039562Y011049D01*
X039545Y011094D01*
X039532Y011140D01*
X039522Y011187D01*
X039516Y011235D01*
X039514Y011283D01*
X040804Y012283D02*
X038204Y012283D01*
X038104Y012283D01*
X038204Y012283D02*
X038204Y004283D01*
X040804Y004283D01*
X038204Y004283D02*
X038104Y004283D01*
X038104Y008283D01*
X038534Y007283D02*
X038536Y007311D01*
X038542Y007338D01*
X038551Y007364D01*
X038564Y007389D01*
X038581Y007412D01*
X038600Y007432D01*
X038622Y007449D01*
X038646Y007463D01*
X038672Y007473D01*
X038699Y007480D01*
X038727Y007483D01*
X038755Y007482D01*
X038782Y007477D01*
X038809Y007468D01*
X038834Y007456D01*
X038857Y007441D01*
X038878Y007422D01*
X038896Y007401D01*
X038911Y007377D01*
X038922Y007351D01*
X038930Y007325D01*
X038934Y007297D01*
X038934Y007269D01*
X038930Y007241D01*
X038922Y007215D01*
X038911Y007189D01*
X038896Y007165D01*
X038878Y007144D01*
X038857Y007125D01*
X038834Y007110D01*
X038809Y007098D01*
X038782Y007089D01*
X038755Y007084D01*
X038727Y007083D01*
X038699Y007086D01*
X038672Y007093D01*
X038646Y007103D01*
X038622Y007117D01*
X038600Y007134D01*
X038581Y007154D01*
X038564Y007177D01*
X038551Y007202D01*
X038542Y007228D01*
X038536Y007255D01*
X038534Y007283D01*
X039514Y007283D02*
X039516Y007331D01*
X039522Y007379D01*
X039532Y007426D01*
X039545Y007472D01*
X039562Y007517D01*
X039583Y007560D01*
X039608Y007602D01*
X039635Y007641D01*
X039666Y007678D01*
X039700Y007713D01*
X039736Y007744D01*
X039775Y007773D01*
X039816Y007798D01*
X039859Y007820D01*
X039903Y007838D01*
X039949Y007852D01*
X039996Y007863D01*
X040044Y007870D01*
X040092Y007873D01*
X040140Y007872D01*
X040188Y007867D01*
X040235Y007858D01*
X040282Y007846D01*
X040327Y007829D01*
X040371Y007809D01*
X040413Y007786D01*
X040453Y007759D01*
X040490Y007729D01*
X040525Y007696D01*
X040558Y007660D01*
X040587Y007622D01*
X040613Y007581D01*
X040636Y007539D01*
X040655Y007495D01*
X040670Y007449D01*
X040682Y007403D01*
X040690Y007355D01*
X040694Y007307D01*
X040694Y007259D01*
X040690Y007211D01*
X040682Y007163D01*
X040670Y007117D01*
X040655Y007071D01*
X040636Y007027D01*
X040613Y006985D01*
X040587Y006944D01*
X040558Y006906D01*
X040525Y006870D01*
X040490Y006837D01*
X040453Y006807D01*
X040413Y006780D01*
X040371Y006757D01*
X040327Y006737D01*
X040282Y006720D01*
X040235Y006708D01*
X040188Y006699D01*
X040140Y006694D01*
X040092Y006693D01*
X040044Y006696D01*
X039996Y006703D01*
X039949Y006714D01*
X039903Y006728D01*
X039859Y006746D01*
X039816Y006768D01*
X039775Y006793D01*
X039736Y006822D01*
X039700Y006853D01*
X039666Y006888D01*
X039635Y006925D01*
X039608Y006964D01*
X039583Y007006D01*
X039562Y007049D01*
X039545Y007094D01*
X039532Y007140D01*
X039522Y007187D01*
X039516Y007235D01*
X039514Y007283D01*
X039514Y005283D02*
X039516Y005331D01*
X039522Y005379D01*
X039532Y005426D01*
X039545Y005472D01*
X039562Y005517D01*
X039583Y005560D01*
X039608Y005602D01*
X039635Y005641D01*
X039666Y005678D01*
X039700Y005713D01*
X039736Y005744D01*
X039775Y005773D01*
X039816Y005798D01*
X039859Y005820D01*
X039903Y005838D01*
X039949Y005852D01*
X039996Y005863D01*
X040044Y005870D01*
X040092Y005873D01*
X040140Y005872D01*
X040188Y005867D01*
X040235Y005858D01*
X040282Y005846D01*
X040327Y005829D01*
X040371Y005809D01*
X040413Y005786D01*
X040453Y005759D01*
X040490Y005729D01*
X040525Y005696D01*
X040558Y005660D01*
X040587Y005622D01*
X040613Y005581D01*
X040636Y005539D01*
X040655Y005495D01*
X040670Y005449D01*
X040682Y005403D01*
X040690Y005355D01*
X040694Y005307D01*
X040694Y005259D01*
X040690Y005211D01*
X040682Y005163D01*
X040670Y005117D01*
X040655Y005071D01*
X040636Y005027D01*
X040613Y004985D01*
X040587Y004944D01*
X040558Y004906D01*
X040525Y004870D01*
X040490Y004837D01*
X040453Y004807D01*
X040413Y004780D01*
X040371Y004757D01*
X040327Y004737D01*
X040282Y004720D01*
X040235Y004708D01*
X040188Y004699D01*
X040140Y004694D01*
X040092Y004693D01*
X040044Y004696D01*
X039996Y004703D01*
X039949Y004714D01*
X039903Y004728D01*
X039859Y004746D01*
X039816Y004768D01*
X039775Y004793D01*
X039736Y004822D01*
X039700Y004853D01*
X039666Y004888D01*
X039635Y004925D01*
X039608Y004964D01*
X039583Y005006D01*
X039562Y005049D01*
X039545Y005094D01*
X039532Y005140D01*
X039522Y005187D01*
X039516Y005235D01*
X039514Y005283D01*
X038534Y005283D02*
X038536Y005311D01*
X038542Y005338D01*
X038551Y005364D01*
X038564Y005389D01*
X038581Y005412D01*
X038600Y005432D01*
X038622Y005449D01*
X038646Y005463D01*
X038672Y005473D01*
X038699Y005480D01*
X038727Y005483D01*
X038755Y005482D01*
X038782Y005477D01*
X038809Y005468D01*
X038834Y005456D01*
X038857Y005441D01*
X038878Y005422D01*
X038896Y005401D01*
X038911Y005377D01*
X038922Y005351D01*
X038930Y005325D01*
X038934Y005297D01*
X038934Y005269D01*
X038930Y005241D01*
X038922Y005215D01*
X038911Y005189D01*
X038896Y005165D01*
X038878Y005144D01*
X038857Y005125D01*
X038834Y005110D01*
X038809Y005098D01*
X038782Y005089D01*
X038755Y005084D01*
X038727Y005083D01*
X038699Y005086D01*
X038672Y005093D01*
X038646Y005103D01*
X038622Y005117D01*
X038600Y005134D01*
X038581Y005154D01*
X038564Y005177D01*
X038551Y005202D01*
X038542Y005228D01*
X038536Y005255D01*
X038534Y005283D01*
X033594Y004053D02*
X033594Y003713D01*
X033314Y003713D02*
X033314Y004053D01*
X021374Y001273D02*
X021034Y001273D01*
X021034Y000993D02*
X021374Y000993D01*
D19*
X039404Y009683D02*
X041654Y009683D01*
X041654Y010683D02*
X039404Y010683D01*
X039404Y011683D02*
X041654Y011683D01*
D20*
X039254Y011683D03*
X039254Y010683D03*
X039254Y009683D03*
D21*
X037954Y009683D03*
X037954Y010683D03*
X037954Y011683D03*
D22*
X016704Y008883D03*
X016704Y008383D03*
X016704Y007383D03*
X016704Y006883D03*
X016704Y005633D03*
X016704Y005133D03*
X016704Y004133D03*
X016704Y003633D03*
X033454Y003633D03*
X033454Y004133D03*
D23*
X021454Y001133D03*
X020954Y001133D03*
X020954Y011633D03*
X021454Y011633D03*
D24*
X018244Y009033D03*
X018244Y007233D03*
X018244Y005533D03*
X018244Y003733D03*
D25*
X018664Y004633D03*
X018664Y008133D03*
D26*
X021254Y008099D02*
X021714Y008099D01*
X021714Y008022D02*
X021254Y008022D01*
X021254Y007945D02*
X021714Y007945D01*
X021714Y007868D02*
X021254Y007868D01*
X021254Y007791D02*
X021714Y007791D01*
X021714Y007714D02*
X021254Y007714D01*
X021254Y007637D02*
X021714Y007637D01*
X021714Y007559D02*
X021254Y007559D01*
X021254Y007482D02*
X021714Y007482D01*
X021714Y007405D02*
X021254Y007405D01*
X021254Y007328D02*
X021714Y007328D01*
X021714Y007303D02*
X021714Y008963D01*
X021534Y009143D01*
X021254Y009143D01*
X021254Y007123D01*
X021534Y007123D01*
X021714Y007303D01*
X021661Y007251D02*
X021254Y007251D01*
X021254Y007174D02*
X021584Y007174D01*
X021714Y008177D02*
X021254Y008177D01*
X021254Y008254D02*
X021714Y008254D01*
X021714Y008331D02*
X021254Y008331D01*
X021254Y008408D02*
X021714Y008408D01*
X021714Y008485D02*
X021254Y008485D01*
X021254Y008562D02*
X021714Y008562D01*
X021714Y008640D02*
X021254Y008640D01*
X021254Y008717D02*
X021714Y008717D01*
X021714Y008794D02*
X021254Y008794D01*
X021254Y008871D02*
X021714Y008871D01*
X021714Y008948D02*
X021254Y008948D01*
X021254Y009025D02*
X021652Y009025D01*
X021575Y009103D02*
X021254Y009103D01*
X021254Y005643D02*
X021254Y003623D01*
X021534Y003623D01*
X021714Y003803D01*
X021714Y005463D01*
X021534Y005643D01*
X021254Y005643D01*
X021254Y005630D02*
X021547Y005630D01*
X021624Y005553D02*
X021254Y005553D01*
X021254Y005476D02*
X021701Y005476D01*
X021714Y005399D02*
X021254Y005399D01*
X021254Y005322D02*
X021714Y005322D01*
X021714Y005245D02*
X021254Y005245D01*
X021254Y005167D02*
X021714Y005167D01*
X021714Y005090D02*
X021254Y005090D01*
X021254Y005013D02*
X021714Y005013D01*
X021714Y004936D02*
X021254Y004936D01*
X021254Y004859D02*
X021714Y004859D01*
X021714Y004782D02*
X021254Y004782D01*
X021254Y004704D02*
X021714Y004704D01*
X021714Y004627D02*
X021254Y004627D01*
X021254Y004550D02*
X021714Y004550D01*
X021714Y004473D02*
X021254Y004473D01*
X021254Y004396D02*
X021714Y004396D01*
X021714Y004319D02*
X021254Y004319D01*
X021254Y004241D02*
X021714Y004241D01*
X021714Y004164D02*
X021254Y004164D01*
X021254Y004087D02*
X021714Y004087D01*
X021714Y004010D02*
X021254Y004010D01*
X021254Y003933D02*
X021714Y003933D01*
X021714Y003856D02*
X021254Y003856D01*
X021254Y003778D02*
X021689Y003778D01*
X021612Y003701D02*
X021254Y003701D01*
X021254Y003624D02*
X021535Y003624D01*
X033444Y010933D02*
X035464Y010933D01*
X035464Y011213D01*
X035284Y011393D01*
X033624Y011393D01*
X033444Y011213D01*
X033444Y010933D01*
X033444Y010954D02*
X035464Y010954D01*
X035464Y011032D02*
X033444Y011032D01*
X033444Y011109D02*
X035464Y011109D01*
X035464Y011186D02*
X033444Y011186D01*
X033494Y011263D02*
X035414Y011263D01*
X035337Y011340D02*
X033571Y011340D01*
D27*
X039714Y010883D02*
X040504Y011673D01*
X040514Y009643D02*
X039714Y008893D01*
X040504Y007673D02*
X039714Y006883D01*
X040514Y005643D02*
X039714Y004893D01*
D28*
X034682Y007631D03*
X034222Y007631D03*
D29*
X033554Y007923D03*
X035354Y007923D03*
D30*
X034454Y008343D03*
M02*
