%
M48
M72
T01C0.0236
T02C0.0354
T03C0.0360
T04C0.0400
T05C0.0470
T06C0.0590
T07C0.1280
T08C0.1875
%
T01
X5704Y1633
X6704Y1633
X14954Y2383
X15954Y3633
X18454Y4633
X22454Y5633
X23704Y5383
X27704Y5383
X28704Y6133
X30704Y5383
X32704Y6133
X31454Y6883
X32204Y7383
X30704Y8133
X30954Y9383
X32854Y10383
X28454Y10133
X26454Y10133
X24454Y10633
X22204Y10633
X20954Y10883
X23704Y8633
X17954Y8133
X13104Y7033
X17454Y6383
X13104Y9333
X6204Y10133
X22704Y2133
X24454Y2133
X26454Y2133
X28454Y2133
X30704Y3633
X32954Y2133
X35954Y2883
X20954Y1883
T02
X13954Y4133
X12954Y4133
X11954Y4133
X10954Y4133
X11454Y5133
X12454Y5133
X13454Y5133
X14454Y5133
X6704Y4633
X5704Y5133
X6704Y5633
X5704Y6133
X6704Y6633
X5704Y7133
X6704Y7633
X5704Y8133
X34704Y4223
X34704Y3553
X34704Y2883
X34704Y2213
X34704Y1543
T03
X37454Y3283
X37454Y4283
X37454Y5283
X35954Y5633
X34954Y5633
X33954Y5633
X37454Y6583
X37454Y7583
X37454Y8583
T04
X37404Y9683
X37404Y10683
X37404Y11683
X29954Y7883
X28954Y7883
X25954Y7883
X24954Y7883
X19454Y10383
X18454Y10383
X17454Y10383
X8454Y10383
X8454Y9383
X8454Y8383
X8454Y7383
X8454Y6383
X8454Y5383
X8454Y4383
X8454Y3383
X8954Y1383
X9954Y1383
X10954Y1383
X11954Y1383
X12954Y1383
X13954Y1383
X14954Y1383
X15954Y1383
X24954Y4883
X25954Y4883
X28954Y4883
X29954Y4883
X38954Y2283
X40954Y2283
T05
X40104Y5283
X40104Y7283
X40104Y9283
X40104Y11283
X29438Y10633
X27470Y10633
X25438Y10633
X23470Y10633
X23470Y2133
X25438Y2133
X27470Y2133
X29438Y2133
T06
X31954Y3383
X31954Y9383
T07
X14954Y7633
X10454Y7633
X3204Y8633
X3204Y4133
T08
X3454Y1883
X18454Y1883
X3454Y10883
M30
