G75*
%MOIN*%
%OFA0B0*%
%FSLAX24Y24*%
%IPPOS*%
%LPD*%
%AMOC8*
5,1,8,0,0,1.08239X$1,22.5*
%
%ADD10C,0.0060*%
%ADD11C,0.0040*%
%ADD12C,0.0080*%
%ADD13R,0.1140X0.0340*%
%ADD14R,0.0300X0.0340*%
%ADD15C,0.0079*%
%ADD16C,0.0020*%
%ADD17R,0.0340X0.0160*%
%ADD18C,0.0050*%
%ADD19R,0.0200X0.0200*%
D10*
X006473Y000780D02*
X006900Y000780D01*
X006686Y000567D02*
X006686Y000994D01*
X012473Y000780D02*
X012900Y000780D01*
X012686Y000567D02*
X012686Y000994D01*
X024430Y013680D02*
X024180Y013930D01*
X024180Y014430D01*
X024430Y014680D01*
X024180Y014930D01*
X024180Y015430D01*
X024430Y015680D01*
X024930Y015680D01*
X025180Y015430D01*
X025180Y014930D01*
X024930Y014680D01*
X024430Y014680D01*
X024930Y014680D02*
X025180Y014430D01*
X025180Y013930D01*
X024930Y013680D01*
X024430Y013680D01*
X024430Y015680D02*
X024180Y015930D01*
X024180Y016430D01*
X024430Y016680D01*
X024180Y016930D01*
X024180Y017430D01*
X024430Y017680D01*
X024180Y017930D01*
X024180Y018430D01*
X024430Y018680D01*
X024930Y018680D01*
X025180Y018430D01*
X025180Y017930D01*
X024930Y017680D01*
X024430Y017680D01*
X024930Y017680D02*
X025180Y017430D01*
X025180Y016930D01*
X024930Y016680D01*
X024430Y016680D01*
X024930Y016680D02*
X025180Y016430D01*
X025180Y015930D01*
X024930Y015680D01*
X024930Y021930D02*
X024430Y021930D01*
X024180Y022180D01*
X024180Y022680D01*
X024430Y022930D01*
X024180Y023180D01*
X024180Y023680D01*
X024430Y023930D01*
X024930Y023930D01*
X025180Y023680D01*
X025180Y023180D01*
X024930Y022930D01*
X024430Y022930D01*
X024930Y022930D02*
X025180Y022680D01*
X025180Y022180D01*
X024930Y021930D01*
X024930Y023930D02*
X025180Y024180D01*
X025180Y024680D01*
X024930Y024930D01*
X025180Y025180D01*
X025180Y025680D01*
X024930Y025930D01*
X025180Y026180D01*
X025180Y026680D01*
X024930Y026930D01*
X024430Y026930D01*
X024180Y026680D01*
X024180Y026180D01*
X024430Y025930D01*
X024180Y025680D01*
X024180Y025180D01*
X024430Y024930D01*
X024180Y024680D01*
X024180Y024180D01*
X024430Y023930D01*
X024430Y024930D02*
X024930Y024930D01*
X024930Y025930D02*
X024430Y025930D01*
X010320Y030510D02*
X010320Y030850D01*
X010040Y030850D02*
X010040Y030510D01*
X009320Y030510D02*
X009320Y030850D01*
X009040Y030850D02*
X009040Y030510D01*
X009040Y027850D02*
X009040Y027510D01*
X009320Y027510D02*
X009320Y027850D01*
X007820Y026850D02*
X007820Y026510D01*
X007540Y026510D02*
X007540Y026850D01*
D11*
X008662Y010660D02*
X008893Y010430D01*
X008586Y010430D01*
X008662Y010200D02*
X008662Y010660D01*
X009046Y010584D02*
X009123Y010660D01*
X009276Y010660D01*
X009353Y010584D01*
X009353Y010277D01*
X009276Y010200D01*
X009123Y010200D01*
X009046Y010277D01*
X009507Y010200D02*
X009660Y010200D01*
X009583Y010200D02*
X009583Y010660D01*
X009507Y010660D02*
X009660Y010660D01*
X009083Y000910D02*
X008930Y000910D01*
X008853Y000834D01*
X008853Y000680D02*
X009007Y000680D01*
X008853Y000680D02*
X008853Y000527D01*
X008930Y000450D01*
X009083Y000450D01*
X009160Y000527D01*
X009160Y000834D01*
X009083Y000910D01*
X008700Y000910D02*
X008700Y000450D01*
X008393Y000450D02*
X008393Y000910D01*
X008239Y000910D02*
X008009Y000910D01*
X007932Y000834D01*
X007932Y000527D01*
X008009Y000450D01*
X008239Y000450D01*
X008239Y000910D01*
X008700Y000910D02*
X008393Y000450D01*
X010182Y000527D02*
X010182Y000834D01*
X010259Y000910D01*
X010489Y000910D01*
X010489Y000450D01*
X010259Y000450D01*
X010182Y000527D01*
X010643Y000450D02*
X010643Y000910D01*
X010950Y000910D02*
X010643Y000450D01*
X010950Y000450D02*
X010950Y000910D01*
X011103Y000834D02*
X011180Y000910D01*
X011333Y000910D01*
X011410Y000834D01*
X011410Y000527D01*
X011333Y000450D01*
X011180Y000450D01*
X011103Y000527D01*
X011103Y000680D01*
X011257Y000680D01*
X024259Y018950D02*
X024182Y019027D01*
X024182Y019334D01*
X024259Y019410D01*
X024489Y019410D01*
X024489Y018950D01*
X024259Y018950D01*
X024643Y018950D02*
X024643Y019410D01*
X024950Y019410D02*
X024643Y018950D01*
X024950Y018950D02*
X024950Y019410D01*
X025103Y019334D02*
X025180Y019410D01*
X025333Y019410D01*
X025410Y019334D01*
X025410Y019027D01*
X025333Y018950D01*
X025180Y018950D01*
X025103Y019027D01*
X025103Y019180D01*
X025257Y019180D01*
X025333Y027200D02*
X025180Y027200D01*
X025103Y027277D01*
X025103Y027430D01*
X025257Y027430D01*
X025410Y027277D02*
X025333Y027200D01*
X025410Y027277D02*
X025410Y027584D01*
X025333Y027660D01*
X025180Y027660D01*
X025103Y027584D01*
X024950Y027660D02*
X024643Y027200D01*
X024643Y027660D01*
X024489Y027660D02*
X024259Y027660D01*
X024182Y027584D01*
X024182Y027277D01*
X024259Y027200D01*
X024489Y027200D01*
X024489Y027660D01*
X024950Y027660D02*
X024950Y027200D01*
D12*
X009530Y009970D02*
X007170Y009970D01*
X007170Y007390D01*
X009530Y007390D01*
X009530Y009970D01*
X007130Y009690D02*
X007130Y007670D01*
X006850Y007670D01*
X006670Y007850D01*
X006670Y009510D01*
X006850Y009690D01*
X007130Y009690D01*
X005530Y024390D02*
X003170Y024390D01*
X003170Y026970D01*
X005530Y026970D01*
X005530Y024390D01*
X003130Y024670D02*
X003130Y026690D01*
X002850Y026690D01*
X002670Y026510D01*
X002670Y024850D01*
X002850Y024670D01*
X003130Y024670D01*
X003170Y028640D02*
X003170Y031220D01*
X005530Y031220D01*
X005530Y028640D01*
X003170Y028640D01*
X003130Y028920D02*
X002850Y028920D01*
X002670Y029100D01*
X002670Y030760D01*
X002850Y030940D01*
X003130Y030940D01*
X003130Y028920D01*
D13*
X006140Y029030D03*
X006140Y030830D03*
X006140Y026580D03*
X006140Y024780D03*
X010140Y009580D03*
X010140Y007780D03*
D14*
X009720Y008680D03*
X005720Y025680D03*
X005720Y029930D03*
D15*
X003130Y029964D02*
X002670Y029964D01*
X002670Y029887D02*
X003130Y029887D01*
X003130Y029810D02*
X002670Y029810D01*
X002670Y029733D02*
X003130Y029733D01*
X003130Y029656D02*
X002670Y029656D01*
X002670Y029579D02*
X003130Y029579D01*
X003130Y029501D02*
X002670Y029501D01*
X002670Y029424D02*
X003130Y029424D01*
X003130Y029347D02*
X002670Y029347D01*
X002670Y029270D02*
X003130Y029270D01*
X003130Y029193D02*
X002670Y029193D01*
X002670Y029116D02*
X003130Y029116D01*
X003130Y029038D02*
X002732Y029038D01*
X002670Y029100D02*
X002850Y028920D01*
X003130Y028920D01*
X003130Y030940D01*
X002850Y030940D01*
X002670Y030760D01*
X002670Y029100D01*
X002809Y028961D02*
X003130Y028961D01*
X003130Y030042D02*
X002670Y030042D01*
X002670Y030119D02*
X003130Y030119D01*
X003130Y030196D02*
X002670Y030196D01*
X002670Y030273D02*
X003130Y030273D01*
X003130Y030350D02*
X002670Y030350D01*
X002670Y030427D02*
X003130Y030427D01*
X003130Y030505D02*
X002670Y030505D01*
X002670Y030582D02*
X003130Y030582D01*
X003130Y030659D02*
X002670Y030659D01*
X002670Y030736D02*
X003130Y030736D01*
X003130Y030813D02*
X002723Y030813D01*
X002800Y030890D02*
X003130Y030890D01*
X003130Y026690D02*
X002850Y026690D01*
X002670Y026510D01*
X002670Y024850D01*
X002850Y024670D01*
X003130Y024670D01*
X003130Y026690D01*
X003130Y026646D02*
X002806Y026646D01*
X002729Y026569D02*
X003130Y026569D01*
X003130Y026492D02*
X002670Y026492D01*
X002670Y026415D02*
X003130Y026415D01*
X003130Y026338D02*
X002670Y026338D01*
X002670Y026261D02*
X003130Y026261D01*
X003130Y026183D02*
X002670Y026183D01*
X002670Y026106D02*
X003130Y026106D01*
X003130Y026029D02*
X002670Y026029D01*
X002670Y025952D02*
X003130Y025952D01*
X003130Y025875D02*
X002670Y025875D01*
X002670Y025798D02*
X003130Y025798D01*
X003130Y025721D02*
X002670Y025721D01*
X002670Y025643D02*
X003130Y025643D01*
X003130Y025566D02*
X002670Y025566D01*
X002670Y025489D02*
X003130Y025489D01*
X003130Y025412D02*
X002670Y025412D01*
X002670Y025335D02*
X003130Y025335D01*
X003130Y025258D02*
X002670Y025258D01*
X002670Y025180D02*
X003130Y025180D01*
X003130Y025103D02*
X002670Y025103D01*
X002670Y025026D02*
X003130Y025026D01*
X003130Y024949D02*
X002670Y024949D01*
X002670Y024872D02*
X003130Y024872D01*
X003130Y024795D02*
X002725Y024795D01*
X002803Y024717D02*
X003130Y024717D01*
X006850Y009690D02*
X006670Y009510D01*
X006670Y007850D01*
X006850Y007670D01*
X007130Y007670D01*
X007130Y009690D01*
X006850Y009690D01*
X006831Y009671D02*
X007130Y009671D01*
X007130Y009594D02*
X006754Y009594D01*
X006677Y009517D02*
X007130Y009517D01*
X007130Y009439D02*
X006670Y009439D01*
X006670Y009362D02*
X007130Y009362D01*
X007130Y009285D02*
X006670Y009285D01*
X006670Y009208D02*
X007130Y009208D01*
X007130Y009131D02*
X006670Y009131D01*
X006670Y009054D02*
X007130Y009054D01*
X007130Y008976D02*
X006670Y008976D01*
X006670Y008899D02*
X007130Y008899D01*
X007130Y008822D02*
X006670Y008822D01*
X006670Y008745D02*
X007130Y008745D01*
X007130Y008668D02*
X006670Y008668D01*
X006670Y008591D02*
X007130Y008591D01*
X007130Y008513D02*
X006670Y008513D01*
X006670Y008436D02*
X007130Y008436D01*
X007130Y008359D02*
X006670Y008359D01*
X006670Y008282D02*
X007130Y008282D01*
X007130Y008205D02*
X006670Y008205D01*
X006670Y008128D02*
X007130Y008128D01*
X007130Y008050D02*
X006670Y008050D01*
X006670Y007973D02*
X007130Y007973D01*
X007130Y007896D02*
X006670Y007896D01*
X006701Y007819D02*
X007130Y007819D01*
X007130Y007742D02*
X006778Y007742D01*
D16*
X006470Y025190D02*
X006190Y025190D01*
X006190Y025377D02*
X006470Y025377D01*
X006377Y025283D01*
X006470Y025190D01*
X006424Y025466D02*
X006237Y025466D01*
X006190Y025513D01*
X006190Y025606D01*
X006237Y025653D01*
X006424Y025653D01*
X006470Y025606D01*
X006470Y025513D01*
X006424Y025466D01*
X006424Y025742D02*
X006377Y025742D01*
X006330Y025789D01*
X006330Y025883D01*
X006283Y025929D01*
X006237Y025929D01*
X006190Y025883D01*
X006190Y025789D01*
X006237Y025742D01*
X006424Y025742D02*
X006470Y025789D01*
X006470Y025883D01*
X006424Y025929D01*
X006424Y026019D02*
X006470Y026065D01*
X006470Y026159D01*
X006424Y026206D01*
X006377Y026206D01*
X006190Y026019D01*
X006190Y026206D01*
X008190Y026190D02*
X008470Y026190D01*
X008470Y026330D01*
X008424Y026377D01*
X008330Y026377D01*
X008283Y026330D01*
X008283Y026190D01*
X008283Y026283D02*
X008190Y026377D01*
X008190Y026466D02*
X008190Y026653D01*
X008190Y026742D02*
X008377Y026929D01*
X008424Y026929D01*
X008470Y026883D01*
X008470Y026789D01*
X008424Y026742D01*
X008470Y026560D02*
X008190Y026560D01*
X008190Y026742D02*
X008190Y026929D01*
X008470Y026560D02*
X008377Y026466D01*
X009306Y028390D02*
X009259Y028437D01*
X009259Y028483D01*
X009306Y028530D01*
X009353Y028530D01*
X009306Y028530D02*
X009259Y028577D01*
X009259Y028624D01*
X009306Y028670D01*
X009400Y028670D01*
X009446Y028624D01*
X009446Y028437D02*
X009400Y028390D01*
X009306Y028390D01*
X009536Y028390D02*
X009722Y028390D01*
X009812Y028390D02*
X009905Y028483D01*
X009859Y028483D02*
X009999Y028483D01*
X009999Y028390D02*
X009999Y028670D01*
X009859Y028670D01*
X009812Y028624D01*
X009812Y028530D01*
X009859Y028483D01*
X009722Y028577D02*
X009629Y028670D01*
X009629Y028390D01*
X009670Y029690D02*
X009670Y029970D01*
X009530Y029970D01*
X009483Y029924D01*
X009483Y029830D01*
X009530Y029783D01*
X009670Y029783D01*
X009577Y029783D02*
X009483Y029690D01*
X009394Y029690D02*
X009207Y029690D01*
X009300Y029690D02*
X009300Y029970D01*
X009394Y029877D01*
X009118Y029924D02*
X009118Y029737D01*
X008931Y029924D01*
X008931Y029737D01*
X008977Y029690D01*
X009071Y029690D01*
X009118Y029737D01*
X009118Y029924D02*
X009071Y029970D01*
X008977Y029970D01*
X008931Y029924D01*
X011140Y030111D02*
X011420Y030111D01*
X011420Y030251D01*
X011374Y030298D01*
X011280Y030298D01*
X011233Y030251D01*
X011233Y030111D01*
X011233Y030205D02*
X011140Y030298D01*
X011140Y030388D02*
X011140Y030574D01*
X011140Y030664D02*
X011140Y030851D01*
X011140Y030757D02*
X011420Y030757D01*
X011327Y030664D01*
X011420Y030481D02*
X011140Y030481D01*
X011327Y030388D02*
X011420Y030481D01*
X006470Y030362D02*
X006190Y030362D01*
X006190Y030269D02*
X006190Y030456D01*
X006377Y030269D02*
X006470Y030362D01*
X006424Y030179D02*
X006470Y030133D01*
X006470Y030039D01*
X006424Y029992D01*
X006377Y029992D01*
X006330Y030039D01*
X006330Y030133D01*
X006283Y030179D01*
X006237Y030179D01*
X006190Y030133D01*
X006190Y030039D01*
X006237Y029992D01*
X006237Y029903D02*
X006424Y029903D01*
X006470Y029856D01*
X006470Y029763D01*
X006424Y029716D01*
X006237Y029716D01*
X006190Y029763D01*
X006190Y029856D01*
X006237Y029903D01*
X006190Y029627D02*
X006470Y029627D01*
X006377Y029533D01*
X006470Y029440D01*
X006190Y029440D01*
D17*
X007680Y026930D03*
X007680Y026430D03*
X009180Y027430D03*
X009180Y027930D03*
X009180Y030430D03*
X009180Y030930D03*
X010180Y030930D03*
X010180Y030430D03*
D18*
X025425Y023606D02*
X025425Y023306D01*
X025425Y023456D02*
X025875Y023456D01*
X025725Y023306D01*
X025800Y022686D02*
X025500Y022686D01*
X025425Y022611D01*
X025425Y022385D01*
X025875Y022385D01*
X025875Y022611D01*
X025800Y022686D01*
X025800Y022225D02*
X025875Y022150D01*
X025875Y022000D01*
X025800Y021925D01*
X025725Y021925D01*
X025650Y022000D01*
X025650Y022150D01*
X025575Y022225D01*
X025500Y022225D01*
X025425Y022150D01*
X025425Y022000D01*
X025500Y021925D01*
X025350Y022846D02*
X025350Y023146D01*
X025425Y015356D02*
X025425Y015056D01*
X025725Y015356D01*
X025800Y015356D01*
X025875Y015281D01*
X025875Y015131D01*
X025800Y015056D01*
X025350Y014896D02*
X025350Y014596D01*
X025500Y014436D02*
X025425Y014361D01*
X025425Y014135D01*
X025875Y014135D01*
X025875Y014361D01*
X025800Y014436D01*
X025500Y014436D01*
X025500Y013975D02*
X025425Y013900D01*
X025425Y013750D01*
X025500Y013675D01*
X025650Y013750D02*
X025650Y013900D01*
X025575Y013975D01*
X025500Y013975D01*
X025650Y013750D02*
X025725Y013675D01*
X025800Y013675D01*
X025875Y013750D01*
X025875Y013900D01*
X025800Y013975D01*
D19*
X024680Y014180D03*
X024680Y015180D03*
X024680Y016180D03*
X024680Y017180D03*
X024680Y018180D03*
X024680Y022430D03*
X024680Y023430D03*
X024680Y024430D03*
X024680Y025430D03*
X024680Y026430D03*
M02*
