G75*
%MOIN*%
%OFA0B0*%
%FSLAX24Y24*%
%IPPOS*%
%LPD*%
%AMOC8*
5,1,8,0,0,1.08239X$1,22.5*
%
%ADD10C,0.1000*%
%ADD11OC8,0.1000*%
%ADD12C,0.0885*%
%ADD13C,0.0600*%
%ADD14C,0.0580*%
%ADD15C,0.0705*%
%ADD16C,0.0860*%
%ADD17R,0.2441X0.2126*%
%ADD18R,0.0630X0.0394*%
%ADD19R,0.0433X0.0394*%
%ADD20OC8,0.0600*%
%ADD21C,0.0554*%
%ADD22R,0.0554X0.0554*%
%ADD23C,0.0436*%
%ADD24C,0.0320*%
%ADD25C,0.0160*%
%ADD26C,0.0396*%
D10*
X002430Y006180D03*
X002430Y014680D03*
X024680Y003180D03*
X025680Y029680D03*
D11*
X023680Y029680D03*
X002430Y016680D03*
X002430Y008180D03*
X024680Y001180D03*
D12*
X022123Y001680D02*
X021238Y001680D01*
X016123Y001680D02*
X015238Y001680D01*
D13*
X012480Y010680D02*
X011880Y010680D01*
X011880Y011680D02*
X012480Y011680D01*
X012480Y019180D02*
X011880Y019180D01*
X011880Y020180D02*
X012480Y020180D01*
X012680Y023380D02*
X012680Y023980D01*
X011680Y023980D02*
X011680Y023380D01*
X010680Y023380D02*
X010680Y023980D01*
X009680Y023980D02*
X009680Y023380D01*
X008680Y023380D02*
X008680Y023980D01*
X007680Y023980D02*
X007680Y023380D01*
X006680Y023380D02*
X006680Y023980D01*
X003430Y023230D02*
X003430Y022630D01*
X002430Y022630D02*
X002430Y023230D01*
X001430Y023230D02*
X001430Y022630D01*
X004880Y020180D02*
X005480Y020180D01*
X005480Y019180D02*
X004880Y019180D01*
X004880Y018180D02*
X005480Y018180D01*
X005480Y017180D02*
X004880Y017180D01*
X004880Y016180D02*
X005480Y016180D01*
X005480Y015180D02*
X004880Y015180D01*
X004880Y014180D02*
X005480Y014180D01*
X005480Y011680D02*
X004880Y011680D01*
X004880Y010680D02*
X005480Y010680D01*
X005480Y009680D02*
X004880Y009680D01*
X004880Y008680D02*
X005480Y008680D01*
X005480Y007680D02*
X004880Y007680D01*
X004880Y006680D02*
X005480Y006680D01*
X005480Y005680D02*
X004880Y005680D01*
X004730Y003430D02*
X004130Y003430D01*
X004130Y002430D02*
X004730Y002430D01*
X004730Y001430D02*
X004130Y001430D01*
X019680Y012630D02*
X019680Y013230D01*
X019680Y014130D02*
X019680Y014730D01*
X019680Y015630D02*
X019680Y016230D01*
X020680Y016230D02*
X020680Y015630D01*
X020680Y014730D02*
X020680Y014130D01*
X020680Y013230D02*
X020680Y012630D01*
X021680Y012630D02*
X021680Y013230D01*
X021680Y014130D02*
X021680Y014730D01*
X021680Y015630D02*
X021680Y016230D01*
X024380Y016680D02*
X024980Y016680D01*
X024980Y015680D02*
X024380Y015680D01*
X024380Y014680D02*
X024980Y014680D01*
X024980Y013680D02*
X024380Y013680D01*
X024380Y012680D02*
X024980Y012680D01*
X024980Y022930D02*
X024380Y022930D01*
X024380Y023930D02*
X024980Y023930D01*
X024980Y024930D02*
X024380Y024930D01*
X024380Y025930D02*
X024980Y025930D01*
X024980Y026930D02*
X024380Y026930D01*
X013680Y023980D02*
X013680Y023380D01*
X003430Y027380D02*
X003430Y027980D01*
X002430Y027980D02*
X002430Y027380D01*
X001430Y027380D02*
X001430Y027980D01*
D14*
X015680Y027680D03*
X015680Y026680D03*
X015680Y025680D03*
X015680Y024680D03*
X015680Y023680D03*
X015680Y022680D03*
X015680Y021680D03*
X015680Y020680D03*
X015680Y019680D03*
X015680Y018680D03*
X015680Y017680D03*
X016680Y017680D03*
X017680Y017680D03*
X018680Y017680D03*
X018680Y018680D03*
X018680Y019680D03*
X018680Y020680D03*
X018680Y021680D03*
X019680Y021680D03*
X019680Y020680D03*
X019680Y019680D03*
X019680Y018680D03*
X019680Y017680D03*
X020680Y017680D03*
X021680Y017680D03*
X021680Y018680D03*
X021680Y019680D03*
X021680Y020680D03*
X021680Y021680D03*
X021680Y022680D03*
X021680Y023680D03*
X021680Y024680D03*
X021680Y025680D03*
X021680Y026680D03*
X021680Y027680D03*
X021680Y028680D03*
X021680Y029680D03*
X021680Y030680D03*
X020680Y029680D03*
X020680Y027680D03*
X020680Y026680D03*
X020680Y025680D03*
X019680Y024680D03*
X019680Y023680D03*
X019680Y022680D03*
X018680Y022680D03*
X018680Y023680D03*
X018680Y024680D03*
X015680Y028680D03*
X015680Y029680D03*
X015680Y030680D03*
D15*
X012680Y002283D02*
X012680Y001578D01*
X010680Y001578D02*
X010680Y002283D01*
X008680Y002283D02*
X008680Y001578D01*
X006680Y001578D02*
X006680Y002283D01*
D16*
X001680Y010221D03*
X001680Y011599D03*
X001680Y018721D03*
X001680Y020099D03*
X001680Y024471D03*
X001680Y025849D03*
X001680Y029221D03*
X001680Y030599D03*
D17*
X003696Y029930D03*
X003696Y025680D03*
X007696Y008680D03*
D18*
X010570Y007782D03*
X010570Y009578D03*
X006570Y024782D03*
X006570Y026578D03*
X006570Y029032D03*
X006570Y030828D03*
D19*
X009180Y031015D03*
X009180Y030345D03*
X010180Y030345D03*
X010180Y031015D03*
X009180Y028015D03*
X009180Y027345D03*
X007680Y027015D03*
X007680Y026345D03*
D20*
X013680Y015180D03*
X013680Y014180D03*
X014680Y014180D03*
X014680Y015180D03*
X015680Y015180D03*
X015680Y014180D03*
X016680Y014180D03*
X016680Y015180D03*
X017680Y015180D03*
X017680Y014180D03*
D21*
X011430Y025680D03*
X010430Y025680D03*
X009930Y026680D03*
X010930Y026680D03*
X009430Y025680D03*
X008930Y026680D03*
X008430Y025680D03*
D22*
X011930Y026680D03*
D23*
X009180Y022180D03*
X005680Y022680D03*
X014680Y019180D03*
X015180Y009680D03*
X013180Y007790D03*
X011180Y008680D03*
X010680Y004680D03*
X013680Y004430D03*
X014680Y004180D03*
X018180Y004180D03*
X021180Y007680D03*
X021680Y004180D03*
X024180Y004180D03*
X025180Y007680D03*
X026180Y012680D03*
X023680Y020680D03*
X023180Y021680D03*
D24*
X015680Y016180D02*
X015680Y015180D01*
X015680Y016180D02*
X013180Y016180D01*
X013180Y020180D01*
X012180Y020180D01*
X012180Y015180D02*
X012180Y011680D01*
X010570Y009680D02*
X015180Y009680D01*
X014180Y008680D02*
X011180Y008680D01*
X010680Y007782D02*
X010680Y004680D01*
X010570Y007782D02*
X013180Y007782D01*
X014180Y007680D02*
X014180Y008680D01*
X014180Y007680D02*
X021180Y007680D01*
X025180Y007680D02*
X026180Y012680D01*
X013680Y015180D02*
X012180Y015180D01*
X003696Y024971D02*
X003180Y024971D01*
X003180Y025180D01*
X003180Y024971D02*
X003180Y024471D01*
X001680Y024471D01*
X001680Y029221D02*
X003696Y029221D01*
X003696Y029180D01*
D25*
X000660Y031196D02*
X000660Y000660D01*
X005360Y000660D01*
X005360Y003110D01*
X005174Y003110D01*
X005036Y002972D01*
X004837Y002890D01*
X004023Y002890D01*
X003824Y002972D01*
X003672Y003124D01*
X003590Y003323D01*
X003590Y003537D01*
X003672Y003736D01*
X003824Y003888D01*
X004023Y003970D01*
X004837Y003970D01*
X005036Y003888D01*
X005174Y003750D01*
X005363Y003750D01*
X005409Y003861D01*
X005499Y003951D01*
X005616Y004000D01*
X011360Y004000D01*
X011360Y004494D01*
X011409Y004611D01*
X011499Y004701D01*
X011616Y004750D01*
X013353Y004750D01*
X013421Y004818D01*
X013589Y004888D01*
X013771Y004888D01*
X013939Y004818D01*
X014068Y004689D01*
X014138Y004521D01*
X014138Y004500D01*
X014353Y004500D01*
X014421Y004568D01*
X014589Y004638D01*
X014771Y004638D01*
X014939Y004568D01*
X015068Y004439D01*
X015138Y004271D01*
X015138Y004089D01*
X015068Y003921D01*
X014939Y003792D01*
X014771Y003722D01*
X014589Y003722D01*
X014421Y003792D01*
X014353Y003860D01*
X013952Y003860D01*
X014000Y003744D01*
X014000Y000660D01*
X026570Y000660D01*
X026570Y012425D01*
X026568Y012421D01*
X026528Y012381D01*
X025616Y007823D01*
X025638Y007771D01*
X025638Y007589D01*
X025568Y007421D01*
X025439Y007292D01*
X025271Y007222D01*
X025089Y007222D01*
X024921Y007292D01*
X024792Y007421D01*
X024722Y007589D01*
X024722Y007771D01*
X024792Y007939D01*
X024832Y007979D01*
X025744Y012537D01*
X025722Y012589D01*
X025722Y012771D01*
X025792Y012939D01*
X025921Y013068D01*
X026089Y013138D01*
X026271Y013138D01*
X026439Y013068D01*
X026568Y012939D01*
X026570Y012935D01*
X026570Y031196D01*
X021819Y031196D01*
X021980Y031129D01*
X022129Y030980D01*
X022210Y030785D01*
X022210Y030575D01*
X022129Y030380D01*
X021980Y030231D01*
X021858Y030180D01*
X021980Y030129D01*
X022129Y029980D01*
X022210Y029785D01*
X022210Y029575D01*
X022129Y029380D01*
X021980Y029231D01*
X021858Y029180D01*
X021980Y029129D01*
X022129Y028980D01*
X022210Y028785D01*
X022210Y028575D01*
X022129Y028380D01*
X021980Y028231D01*
X021858Y028180D01*
X021980Y028129D01*
X022129Y027980D01*
X022210Y027785D01*
X022210Y027575D01*
X022129Y027380D01*
X021980Y027231D01*
X021858Y027180D01*
X021980Y027129D01*
X022129Y026980D01*
X022210Y026785D01*
X022210Y026575D01*
X022129Y026380D01*
X021980Y026231D01*
X021858Y026180D01*
X021980Y026129D01*
X022129Y025980D01*
X022210Y025785D01*
X022210Y025575D01*
X022129Y025380D01*
X021980Y025231D01*
X021858Y025180D01*
X021980Y025129D01*
X022129Y024980D01*
X022210Y024785D01*
X022210Y024575D01*
X022179Y024500D01*
X023363Y024500D01*
X023380Y024542D01*
X023397Y024592D01*
X023404Y024600D01*
X023409Y024611D01*
X023446Y024648D01*
X023480Y024688D01*
X023490Y024693D01*
X023499Y024701D01*
X023547Y024721D01*
X023840Y024868D01*
X023840Y025037D01*
X023922Y025236D01*
X024074Y025388D01*
X024176Y025430D01*
X024074Y025472D01*
X023922Y025624D01*
X023840Y025823D01*
X023840Y026037D01*
X023922Y026236D01*
X024074Y026388D01*
X024273Y026470D01*
X025087Y026470D01*
X025286Y026388D01*
X025438Y026236D01*
X025520Y026037D01*
X025520Y025823D01*
X025438Y025624D01*
X025286Y025472D01*
X025184Y025430D01*
X025286Y025388D01*
X025438Y025236D01*
X025520Y025037D01*
X025520Y024823D01*
X025438Y024624D01*
X025286Y024472D01*
X025184Y024430D01*
X025286Y024388D01*
X025438Y024236D01*
X025520Y024037D01*
X025520Y023823D01*
X025438Y023624D01*
X025286Y023472D01*
X025184Y023430D01*
X025286Y023388D01*
X025438Y023236D01*
X025520Y023037D01*
X025520Y022823D01*
X025438Y022624D01*
X025286Y022472D01*
X025087Y022390D01*
X024273Y022390D01*
X024233Y022406D01*
X023551Y022134D01*
X023494Y022110D01*
X023492Y022110D01*
X023490Y022109D01*
X023428Y022110D01*
X023366Y022110D01*
X023364Y022111D01*
X023362Y022111D01*
X023306Y022135D01*
X023249Y022159D01*
X023247Y022160D01*
X023245Y022161D01*
X023202Y022205D01*
X023159Y022249D01*
X023158Y022251D01*
X023157Y022252D01*
X023134Y022309D01*
X023110Y022366D01*
X023110Y022368D01*
X023109Y022370D01*
X022120Y022370D01*
X022129Y022380D02*
X022210Y022575D01*
X022210Y022785D01*
X022179Y022860D01*
X023110Y022860D01*
X023110Y022432D01*
X023109Y022370D01*
X023163Y022245D02*
X023163Y022138D01*
X023089Y022138D02*
X022921Y022068D01*
X022792Y021939D01*
X022722Y021771D01*
X022722Y021589D01*
X022792Y021421D01*
X022860Y021353D01*
X022860Y016250D01*
X022220Y016250D01*
X022220Y016337D01*
X022138Y016536D01*
X021986Y016688D01*
X021787Y016770D01*
X021573Y016770D01*
X021500Y016740D01*
X021500Y017181D01*
X021575Y017150D01*
X021785Y017150D01*
X021980Y017231D01*
X022129Y017380D01*
X022210Y017575D01*
X022210Y017785D01*
X022129Y017980D01*
X021980Y018129D01*
X021858Y018180D01*
X021980Y018231D01*
X022129Y018380D01*
X022210Y018575D01*
X022210Y018785D01*
X022129Y018980D01*
X021980Y019129D01*
X021858Y019180D01*
X021980Y019231D01*
X022129Y019380D01*
X022210Y019575D01*
X022210Y019785D01*
X022129Y019980D01*
X021980Y020129D01*
X021858Y020180D01*
X021980Y020231D01*
X022129Y020380D01*
X022210Y020575D01*
X022210Y020785D01*
X022860Y020785D01*
X022860Y020627D02*
X022210Y020627D01*
X022210Y020785D02*
X022129Y020980D01*
X021980Y021129D01*
X021858Y021180D01*
X021980Y021231D01*
X022129Y021380D01*
X022210Y021575D01*
X022210Y021785D01*
X022129Y021980D01*
X021980Y022129D01*
X021858Y022180D01*
X021980Y022231D01*
X022129Y022380D01*
X022053Y022304D02*
X022053Y022056D01*
X022056Y022053D02*
X022906Y022053D01*
X022846Y021993D02*
X022846Y022860D01*
X023004Y022860D02*
X023004Y022103D01*
X023089Y022138D02*
X023271Y022138D01*
X023439Y022068D01*
X023568Y021939D01*
X023638Y021771D01*
X023638Y021589D01*
X023568Y021421D01*
X023500Y021353D01*
X023500Y021101D01*
X023589Y021138D01*
X023771Y021138D01*
X023939Y021068D01*
X024068Y020939D01*
X024138Y020771D01*
X024138Y020589D01*
X024068Y020421D01*
X024000Y020353D01*
X024000Y016064D01*
X024074Y016138D01*
X024273Y016220D01*
X025087Y016220D01*
X025286Y016138D01*
X025438Y015986D01*
X025520Y015787D01*
X025520Y015573D01*
X025438Y015374D01*
X025286Y015222D01*
X025184Y015180D01*
X025286Y015138D01*
X025438Y014986D01*
X025520Y014787D01*
X025520Y014573D01*
X025438Y014374D01*
X025286Y014222D01*
X025184Y014180D01*
X025286Y014138D01*
X025438Y013986D01*
X025520Y013787D01*
X025520Y013573D01*
X025438Y013374D01*
X025286Y013222D01*
X025184Y013180D01*
X025286Y013138D01*
X025438Y012986D01*
X025520Y012787D01*
X025520Y012573D01*
X025438Y012374D01*
X025286Y012222D01*
X025087Y012140D01*
X024273Y012140D01*
X024074Y012222D01*
X023922Y012374D01*
X023840Y012573D01*
X023840Y012787D01*
X023922Y012986D01*
X024074Y013138D01*
X024176Y013180D01*
X024074Y013222D01*
X023922Y013374D01*
X023840Y013573D01*
X023840Y013787D01*
X023922Y013986D01*
X024074Y014138D01*
X024176Y014180D01*
X024074Y014222D01*
X023979Y014317D01*
X023951Y014249D01*
X023861Y014159D01*
X023744Y014110D01*
X022220Y014110D01*
X022220Y014023D01*
X022138Y013824D01*
X021994Y013680D01*
X022138Y013536D01*
X022220Y013337D01*
X022220Y012523D01*
X022138Y012324D01*
X021986Y012172D01*
X021787Y012090D01*
X021573Y012090D01*
X021374Y012172D01*
X021222Y012324D01*
X021207Y012360D01*
X021116Y012360D01*
X020999Y012409D01*
X020909Y012499D01*
X020860Y012616D01*
X020860Y017181D01*
X020785Y017150D01*
X020785Y008080D01*
X020627Y008080D02*
X020627Y017150D01*
X020575Y017150D02*
X020785Y017150D01*
X020860Y017140D02*
X018500Y017140D01*
X018500Y017298D02*
X019312Y017298D01*
X019359Y017252D02*
X019359Y016672D01*
X019350Y016664D02*
X018500Y016664D01*
X018500Y016506D02*
X019210Y016506D01*
X019200Y016482D02*
X019200Y017454D01*
X019199Y017457D02*
X018500Y017457D01*
X018500Y017615D02*
X019150Y017615D01*
X019150Y017575D02*
X019231Y017380D01*
X019380Y017231D01*
X019575Y017150D01*
X019785Y017150D01*
X019980Y017231D01*
X020129Y017380D01*
X020180Y017502D01*
X020231Y017380D01*
X020380Y017231D01*
X020575Y017150D01*
X020468Y017194D02*
X020468Y008080D01*
X020310Y008080D02*
X020310Y017301D01*
X020312Y017298D02*
X020048Y017298D01*
X019993Y017243D02*
X019993Y016681D01*
X019986Y016688D02*
X019787Y016770D01*
X019573Y016770D01*
X019374Y016688D01*
X019222Y016536D01*
X019140Y016337D01*
X019140Y015523D01*
X019222Y015324D01*
X019366Y015180D01*
X019222Y015036D01*
X019140Y014837D01*
X019140Y014023D01*
X019222Y013824D01*
X019366Y013680D01*
X019222Y013536D01*
X019140Y013337D01*
X019140Y012523D01*
X019222Y012324D01*
X019374Y012172D01*
X019573Y012090D01*
X019787Y012090D01*
X019986Y012172D01*
X020138Y012324D01*
X020220Y012523D01*
X020220Y013337D01*
X020138Y013536D01*
X019994Y013680D01*
X020138Y013824D01*
X020220Y014023D01*
X020220Y014837D01*
X020138Y015036D01*
X019994Y015180D01*
X020138Y015324D01*
X020220Y015523D01*
X020220Y016337D01*
X020138Y016536D01*
X019986Y016688D01*
X020010Y016664D02*
X020860Y016664D01*
X020860Y016506D02*
X020150Y016506D01*
X020151Y016504D02*
X020151Y017432D01*
X020161Y017457D02*
X020199Y017457D01*
X019834Y017170D02*
X019834Y016751D01*
X019676Y016770D02*
X019676Y017150D01*
X019517Y017174D02*
X019517Y016747D01*
X019144Y016347D02*
X018500Y016347D01*
X018500Y016189D02*
X019140Y016189D01*
X019140Y016030D02*
X018500Y016030D01*
X018500Y015872D02*
X019140Y015872D01*
X019140Y015713D02*
X018500Y015713D01*
X018500Y015555D02*
X019140Y015555D01*
X019192Y015396D02*
X018500Y015396D01*
X018500Y015238D02*
X019309Y015238D01*
X019359Y015188D02*
X019359Y015172D01*
X019265Y015079D02*
X018485Y015079D01*
X018500Y015116D02*
X018500Y018181D01*
X018575Y018150D01*
X018785Y018150D01*
X018980Y018231D01*
X019129Y018380D01*
X019180Y018502D01*
X019231Y018380D01*
X019380Y018231D01*
X019502Y018180D01*
X019380Y018129D01*
X019231Y017980D01*
X019150Y017785D01*
X019150Y017575D01*
X019150Y017774D02*
X018500Y017774D01*
X018500Y017932D02*
X019211Y017932D01*
X019200Y017906D02*
X019200Y018454D01*
X019219Y018408D02*
X019141Y018408D01*
X019042Y018292D02*
X019042Y008080D01*
X019200Y008080D02*
X019200Y012378D01*
X019197Y012385D02*
X012580Y012385D01*
X012580Y012543D02*
X019140Y012543D01*
X019140Y012702D02*
X012580Y012702D01*
X012580Y012860D02*
X019140Y012860D01*
X019140Y013019D02*
X012580Y013019D01*
X012580Y013177D02*
X019140Y013177D01*
X019140Y013336D02*
X012580Y013336D01*
X012580Y013494D02*
X019205Y013494D01*
X019200Y013482D02*
X019200Y013878D01*
X019235Y013811D02*
X016075Y013811D01*
X016030Y013766D02*
X016030Y008080D01*
X015872Y008080D02*
X015872Y013640D01*
X015904Y013640D02*
X016220Y013956D01*
X016220Y014404D01*
X015944Y014680D01*
X016180Y014916D01*
X016456Y014640D01*
X016904Y014640D01*
X017180Y014916D01*
X017456Y014640D01*
X017904Y014640D01*
X018124Y014860D01*
X018244Y014860D01*
X018361Y014909D01*
X018451Y014999D01*
X018500Y015116D01*
X018408Y014955D02*
X018408Y008080D01*
X018566Y008080D02*
X018566Y018154D01*
X018500Y018091D02*
X019341Y018091D01*
X019359Y018108D02*
X019359Y018252D01*
X019361Y018249D02*
X018999Y018249D01*
X018883Y018190D02*
X018883Y008080D01*
X018725Y008080D02*
X018725Y018150D01*
X017860Y018179D02*
X017785Y018210D01*
X017575Y018210D01*
X017380Y018129D01*
X017231Y017980D01*
X017180Y017858D01*
X017129Y017980D01*
X016980Y018129D01*
X016785Y018210D01*
X016575Y018210D01*
X016380Y018129D01*
X016231Y017980D01*
X016180Y017858D01*
X016129Y017980D01*
X015980Y018129D01*
X015858Y018180D01*
X015980Y018231D01*
X016129Y018380D01*
X016210Y018575D01*
X016210Y018785D01*
X016129Y018980D01*
X015980Y019129D01*
X015858Y019180D01*
X015980Y019231D01*
X016129Y019380D01*
X016210Y019575D01*
X016210Y019785D01*
X016129Y019980D01*
X015980Y020129D01*
X015858Y020180D01*
X015980Y020231D01*
X016129Y020380D01*
X016210Y020575D01*
X016210Y020785D01*
X017860Y020785D01*
X017860Y020627D02*
X016210Y020627D01*
X016189Y020523D02*
X016189Y019837D01*
X016190Y019834D02*
X017860Y019834D01*
X017860Y019676D02*
X016210Y019676D01*
X016189Y019523D02*
X016189Y018837D01*
X016170Y018883D02*
X017860Y018883D01*
X017860Y018725D02*
X016210Y018725D01*
X016206Y018566D02*
X017860Y018566D01*
X017860Y018408D02*
X016141Y018408D01*
X016189Y018523D02*
X016189Y017878D01*
X016211Y017932D02*
X016149Y017932D01*
X016030Y018080D02*
X016030Y018280D01*
X015999Y018249D02*
X017860Y018249D01*
X017860Y018179D02*
X017860Y023244D01*
X017909Y023361D01*
X017999Y023451D01*
X018116Y023500D01*
X019181Y023500D01*
X019150Y023575D01*
X019150Y023785D01*
X019181Y023860D01*
X016179Y023860D01*
X016210Y023785D01*
X016210Y023575D01*
X016129Y023380D01*
X015980Y023231D01*
X015858Y023180D01*
X015980Y023129D01*
X016129Y022980D01*
X016210Y022785D01*
X016210Y022575D01*
X016129Y022380D01*
X015980Y022231D01*
X015858Y022180D01*
X015980Y022129D01*
X016129Y021980D01*
X016210Y021785D01*
X016210Y021575D01*
X016129Y021380D01*
X015980Y021231D01*
X015858Y021180D01*
X015980Y021129D01*
X016129Y020980D01*
X016210Y020785D01*
X016189Y020837D02*
X016189Y021523D01*
X016210Y021578D02*
X017860Y021578D01*
X017860Y021736D02*
X016210Y021736D01*
X016189Y021837D02*
X016189Y022523D01*
X016191Y022529D02*
X017860Y022529D01*
X017860Y022687D02*
X016210Y022687D01*
X016189Y022837D02*
X016189Y023523D01*
X016171Y023480D02*
X018067Y023480D01*
X018091Y023489D02*
X018091Y023860D01*
X018249Y023860D02*
X018249Y023500D01*
X018408Y023500D02*
X018408Y023860D01*
X018566Y023860D02*
X018566Y023500D01*
X018725Y023500D02*
X018725Y023860D01*
X018883Y023860D02*
X018883Y023500D01*
X019042Y023500D02*
X019042Y023860D01*
X019155Y023797D02*
X016205Y023797D01*
X016189Y023837D02*
X016189Y023860D01*
X016347Y023860D02*
X016347Y018097D01*
X016341Y018091D02*
X016019Y018091D01*
X015872Y018174D02*
X015872Y018186D01*
X015502Y018180D02*
X015380Y018129D01*
X015231Y017980D01*
X015150Y017785D01*
X015150Y017575D01*
X015231Y017380D01*
X015380Y017231D01*
X015575Y017150D01*
X015785Y017150D01*
X015980Y017231D01*
X016129Y017380D01*
X016180Y017502D01*
X016231Y017380D01*
X016380Y017231D01*
X016575Y017150D01*
X016785Y017150D01*
X016980Y017231D01*
X017129Y017380D01*
X017180Y017502D01*
X017231Y017380D01*
X017380Y017231D01*
X017575Y017150D01*
X017785Y017150D01*
X017860Y017181D01*
X017860Y015720D01*
X017456Y015720D01*
X017180Y015444D01*
X016904Y015720D01*
X016456Y015720D01*
X016180Y015444D01*
X016080Y015544D01*
X016080Y016260D01*
X016019Y016407D01*
X015907Y016519D01*
X015760Y016580D01*
X013580Y016580D01*
X013580Y020260D01*
X013519Y020407D01*
X013407Y020519D01*
X013260Y020580D01*
X012844Y020580D01*
X012786Y020638D01*
X012587Y020720D01*
X011773Y020720D01*
X011574Y020638D01*
X011422Y020486D01*
X011340Y020287D01*
X011340Y020073D01*
X011422Y019874D01*
X011574Y019722D01*
X011773Y019640D01*
X012587Y019640D01*
X012780Y019720D01*
X012780Y016100D01*
X012841Y015953D01*
X012953Y015841D01*
X013100Y015780D01*
X015280Y015780D01*
X015280Y015544D01*
X015140Y015404D01*
X015140Y014956D01*
X015416Y014680D01*
X015180Y014444D01*
X014904Y014720D01*
X014456Y014720D01*
X014180Y014444D01*
X013944Y014680D01*
X014220Y014956D01*
X014220Y015404D01*
X013904Y015720D01*
X013456Y015720D01*
X013316Y015580D01*
X012100Y015580D01*
X011953Y015519D01*
X011841Y015407D01*
X011780Y015260D01*
X011780Y012220D01*
X011773Y012220D01*
X011574Y012138D01*
X011422Y011986D01*
X011340Y011787D01*
X011340Y011573D01*
X011422Y011374D01*
X011574Y011222D01*
X011773Y011140D01*
X012587Y011140D01*
X012786Y011222D01*
X012938Y011374D01*
X013020Y011573D01*
X013020Y011787D01*
X012938Y011986D01*
X012786Y012138D01*
X012587Y012220D01*
X012580Y012220D01*
X012580Y014780D01*
X013316Y014780D01*
X013416Y014680D01*
X013140Y014404D01*
X013140Y013956D01*
X013456Y013640D01*
X013904Y013640D01*
X014180Y013916D01*
X014456Y013640D01*
X014904Y013640D01*
X015180Y013916D01*
X015456Y013640D01*
X015904Y013640D01*
X015916Y013653D02*
X019339Y013653D01*
X019359Y013672D02*
X019359Y013688D01*
X019162Y013970D02*
X016220Y013970D01*
X016189Y013925D02*
X016189Y008080D01*
X016347Y008080D02*
X016347Y014749D01*
X016334Y014762D02*
X016026Y014762D01*
X016030Y014766D02*
X016030Y014594D01*
X016020Y014604D02*
X019140Y014604D01*
X019140Y014762D02*
X018026Y014762D01*
X018091Y014827D02*
X018091Y008080D01*
X018249Y008080D02*
X018249Y014862D01*
X018373Y014921D02*
X019174Y014921D01*
X019200Y014982D02*
X019200Y015378D01*
X020051Y015238D02*
X020860Y015238D01*
X020860Y015396D02*
X020168Y015396D01*
X020151Y015356D02*
X020151Y015004D01*
X020186Y014921D02*
X020860Y014921D01*
X020860Y015079D02*
X020095Y015079D01*
X020220Y014762D02*
X020860Y014762D01*
X020860Y014604D02*
X020220Y014604D01*
X020220Y014445D02*
X020860Y014445D01*
X020860Y014287D02*
X020220Y014287D01*
X020220Y014128D02*
X020860Y014128D01*
X020860Y013970D02*
X020198Y013970D01*
X020151Y013856D02*
X020151Y013504D01*
X020155Y013494D02*
X020860Y013494D01*
X020860Y013336D02*
X020220Y013336D01*
X020220Y013177D02*
X020860Y013177D01*
X020860Y013019D02*
X020220Y013019D01*
X020220Y012860D02*
X020860Y012860D01*
X020860Y012702D02*
X020220Y012702D01*
X020220Y012543D02*
X020890Y012543D01*
X020944Y012464D02*
X020944Y008080D01*
X020949Y008080D02*
X014580Y008080D01*
X014580Y008760D01*
X014519Y008907D01*
X014407Y009019D01*
X014260Y009080D01*
X011411Y009080D01*
X011271Y009138D01*
X011089Y009138D01*
X010921Y009068D01*
X010792Y008939D01*
X010722Y008771D01*
X010722Y008589D01*
X010792Y008421D01*
X010921Y008292D01*
X011089Y008222D01*
X011271Y008222D01*
X011411Y008280D01*
X013780Y008280D01*
X013780Y007600D01*
X013841Y007453D01*
X013953Y007341D01*
X014100Y007280D01*
X020949Y007280D01*
X021089Y007222D01*
X021271Y007222D01*
X021439Y007292D01*
X021568Y007421D01*
X021638Y007589D01*
X021638Y007771D01*
X021568Y007939D01*
X021439Y008068D01*
X021271Y008138D01*
X021089Y008138D01*
X020949Y008080D01*
X021010Y008105D02*
X014580Y008105D01*
X014604Y008080D02*
X014604Y009280D01*
X014762Y009280D02*
X014762Y008080D01*
X014921Y008080D02*
X014921Y009280D01*
X014949Y009280D02*
X015089Y009222D01*
X015271Y009222D01*
X015439Y009292D01*
X015568Y009421D01*
X015638Y009589D01*
X015638Y009771D01*
X015568Y009939D01*
X015439Y010068D01*
X015271Y010138D01*
X015089Y010138D01*
X014949Y010080D01*
X010490Y010080D01*
X010343Y010019D01*
X010339Y010014D01*
X010207Y010014D01*
X010119Y009978D01*
X010051Y009910D01*
X010015Y009822D01*
X010015Y009333D01*
X010051Y009245D01*
X010119Y009177D01*
X010207Y009141D01*
X010932Y009141D01*
X011021Y009177D01*
X011088Y009245D01*
X011103Y009280D01*
X014949Y009280D01*
X015079Y009226D02*
X015079Y008080D01*
X015238Y008080D02*
X015238Y009222D01*
X015396Y009274D02*
X015396Y008080D01*
X015555Y008080D02*
X015555Y009407D01*
X015520Y009373D02*
X025111Y009373D01*
X025142Y009532D02*
X015614Y009532D01*
X015638Y009690D02*
X025174Y009690D01*
X025206Y009849D02*
X015606Y009849D01*
X015555Y009953D02*
X015555Y013640D01*
X015444Y013653D02*
X014916Y013653D01*
X014921Y013657D02*
X014921Y010080D01*
X014762Y010080D02*
X014762Y013640D01*
X014604Y013640D02*
X014604Y010080D01*
X014445Y010080D02*
X014445Y013651D01*
X014444Y013653D02*
X013916Y013653D01*
X013970Y013706D02*
X013970Y010080D01*
X014128Y010080D02*
X014128Y013864D01*
X014075Y013811D02*
X014285Y013811D01*
X014287Y013810D02*
X014287Y010080D01*
X013811Y010080D02*
X013811Y013640D01*
X013653Y013640D02*
X013653Y010080D01*
X013494Y010080D02*
X013494Y013640D01*
X013444Y013653D02*
X012580Y013653D01*
X012580Y013811D02*
X013285Y013811D01*
X013336Y013761D02*
X013336Y010080D01*
X013177Y010080D02*
X013177Y013919D01*
X013140Y013970D02*
X012580Y013970D01*
X012580Y014128D02*
X013140Y014128D01*
X013140Y014287D02*
X012580Y014287D01*
X012580Y014445D02*
X013181Y014445D01*
X013177Y014441D02*
X013177Y014780D01*
X013334Y014762D02*
X012580Y014762D01*
X012702Y014780D02*
X012702Y012173D01*
X012580Y012226D02*
X019320Y012226D01*
X019359Y012188D02*
X019359Y008080D01*
X019517Y008080D02*
X019517Y012113D01*
X019676Y012090D02*
X019676Y008080D01*
X019834Y008080D02*
X019834Y012109D01*
X019993Y012179D02*
X019993Y008080D01*
X020151Y008080D02*
X020151Y012356D01*
X020163Y012385D02*
X021057Y012385D01*
X021102Y012366D02*
X021102Y008138D01*
X021261Y008138D02*
X021261Y012286D01*
X021320Y012226D02*
X020040Y012226D01*
X021180Y012680D02*
X021680Y012680D01*
X021680Y012930D01*
X022220Y012860D02*
X023870Y012860D01*
X023840Y012702D02*
X022220Y012702D01*
X022220Y012543D02*
X023852Y012543D01*
X023918Y012385D02*
X022163Y012385D01*
X022212Y012502D02*
X022212Y004500D01*
X022370Y004500D02*
X022370Y014110D01*
X022529Y014110D02*
X022529Y004500D01*
X022687Y004500D02*
X022687Y014110D01*
X022846Y014110D02*
X022846Y004500D01*
X023004Y004500D02*
X023004Y014110D01*
X023163Y014110D02*
X023163Y004500D01*
X023321Y004500D02*
X023321Y014110D01*
X023480Y014110D02*
X023480Y004500D01*
X023638Y004500D02*
X023638Y014110D01*
X023787Y014128D02*
X024064Y014128D01*
X024114Y014154D02*
X024114Y014206D01*
X024010Y014287D02*
X023967Y014287D01*
X023955Y014258D02*
X023955Y014019D01*
X023915Y013970D02*
X022198Y013970D01*
X022212Y014002D02*
X022212Y013358D01*
X022220Y013336D02*
X023961Y013336D01*
X023955Y013341D02*
X023955Y013019D01*
X022220Y013019D01*
X022220Y013177D02*
X024169Y013177D01*
X024114Y013154D02*
X024114Y013206D01*
X023873Y013494D02*
X022155Y013494D01*
X022053Y013621D02*
X022053Y013739D01*
X022021Y013653D02*
X023840Y013653D01*
X023850Y013811D02*
X022125Y013811D01*
X021680Y014430D02*
X023680Y014430D01*
X023680Y020680D01*
X024064Y020944D02*
X026570Y020944D01*
X026570Y021102D02*
X023857Y021102D01*
X023797Y021127D02*
X023797Y022232D01*
X023745Y022212D02*
X026570Y022212D01*
X026570Y022370D02*
X024142Y022370D01*
X024114Y022359D02*
X024114Y020830D01*
X024132Y020785D02*
X026570Y020785D01*
X026570Y020627D02*
X024138Y020627D01*
X024114Y020530D02*
X024114Y016154D01*
X024197Y016189D02*
X024000Y016189D01*
X024000Y016347D02*
X026570Y016347D01*
X026570Y016189D02*
X025163Y016189D01*
X025223Y016164D02*
X025223Y022446D01*
X025342Y022529D02*
X026570Y022529D01*
X026570Y022687D02*
X025464Y022687D01*
X025382Y022568D02*
X025382Y016042D01*
X025394Y016030D02*
X026570Y016030D01*
X026570Y015872D02*
X025485Y015872D01*
X025520Y015713D02*
X026570Y015713D01*
X026570Y015555D02*
X025513Y015555D01*
X025447Y015396D02*
X026570Y015396D01*
X026570Y015238D02*
X025301Y015238D01*
X025223Y015196D02*
X025223Y015164D01*
X025345Y015079D02*
X026570Y015079D01*
X026570Y014921D02*
X025465Y014921D01*
X025382Y015042D02*
X025382Y015318D01*
X025520Y014762D02*
X026570Y014762D01*
X026570Y014604D02*
X025520Y014604D01*
X025467Y014445D02*
X026570Y014445D01*
X026570Y014287D02*
X025350Y014287D01*
X025382Y014318D02*
X025382Y014042D01*
X025445Y013970D02*
X026570Y013970D01*
X026570Y014128D02*
X025296Y014128D01*
X025223Y014164D02*
X025223Y014196D01*
X025510Y013811D02*
X026570Y013811D01*
X026570Y013653D02*
X025520Y013653D01*
X025487Y013494D02*
X026570Y013494D01*
X026570Y013336D02*
X025399Y013336D01*
X025382Y013318D02*
X025382Y013042D01*
X025405Y013019D02*
X025871Y013019D01*
X025857Y013004D02*
X025857Y028952D01*
X025827Y028940D02*
X026099Y029053D01*
X026307Y029261D01*
X026420Y029533D01*
X026420Y029827D01*
X026307Y030099D01*
X026099Y030307D01*
X025827Y030420D01*
X025533Y030420D01*
X025261Y030307D01*
X025053Y030099D01*
X024940Y029827D01*
X024940Y029533D01*
X025053Y029261D01*
X025261Y029053D01*
X025533Y028940D01*
X025827Y028940D01*
X025699Y028940D02*
X025699Y012312D01*
X025713Y012385D02*
X025442Y012385D01*
X025382Y012318D02*
X025382Y010727D01*
X025396Y010800D02*
X006015Y010800D01*
X006020Y010787D02*
X005938Y010986D01*
X005786Y011138D01*
X005684Y011180D01*
X005786Y011222D01*
X005938Y011374D01*
X006020Y011573D01*
X006020Y011787D01*
X005938Y011986D01*
X005786Y012138D01*
X005587Y012220D01*
X004773Y012220D01*
X004574Y012138D01*
X004422Y011986D01*
X004340Y011787D01*
X004340Y011573D01*
X004422Y011374D01*
X004574Y011222D01*
X004676Y011180D01*
X004574Y011138D01*
X004422Y010986D01*
X004340Y010787D01*
X004340Y010573D01*
X004422Y010374D01*
X004574Y010222D01*
X004676Y010180D01*
X004574Y010138D01*
X004422Y009986D01*
X004340Y009787D01*
X004340Y009573D01*
X004422Y009374D01*
X004574Y009222D01*
X004676Y009180D01*
X004574Y009138D01*
X004422Y008986D01*
X004340Y008787D01*
X004340Y008573D01*
X004422Y008374D01*
X004574Y008222D01*
X004773Y008140D01*
X005587Y008140D01*
X005786Y008222D01*
X005938Y008374D01*
X006020Y008573D01*
X006020Y008787D01*
X005938Y008986D01*
X005786Y009138D01*
X005684Y009180D01*
X005786Y009222D01*
X005938Y009374D01*
X006020Y009573D01*
X006020Y009787D01*
X005938Y009986D01*
X005786Y010138D01*
X005684Y010180D01*
X005786Y010222D01*
X005938Y010374D01*
X006020Y010573D01*
X006020Y010787D01*
X006020Y010641D02*
X025364Y010641D01*
X025333Y010483D02*
X005983Y010483D01*
X005888Y010324D02*
X025301Y010324D01*
X025269Y010166D02*
X005719Y010166D01*
X005728Y010162D02*
X005728Y010198D01*
X005886Y010322D02*
X005886Y010038D01*
X005917Y010007D02*
X010189Y010007D01*
X010166Y009997D02*
X010166Y023141D01*
X010174Y023163D02*
X010186Y023163D01*
X010180Y023176D02*
X010222Y023074D01*
X010360Y022936D01*
X010360Y021616D01*
X010409Y021499D01*
X010499Y021409D01*
X010616Y021360D01*
X014360Y021360D01*
X014360Y019507D01*
X014292Y019439D01*
X014222Y019271D01*
X014222Y019089D01*
X014292Y018921D01*
X014421Y018792D01*
X014589Y018722D01*
X014771Y018722D01*
X014939Y018792D01*
X015068Y018921D01*
X015138Y019089D01*
X015138Y019271D01*
X015068Y019439D01*
X015000Y019507D01*
X015000Y021744D01*
X014951Y021861D01*
X014861Y021951D01*
X014744Y022000D01*
X011000Y022000D01*
X011000Y022936D01*
X011138Y023074D01*
X011180Y023176D01*
X011222Y023074D01*
X011374Y022922D01*
X011573Y022840D01*
X011787Y022840D01*
X011986Y022922D01*
X012138Y023074D01*
X012180Y023176D01*
X012222Y023074D01*
X012374Y022922D01*
X012573Y022840D01*
X012787Y022840D01*
X012986Y022922D01*
X013138Y023074D01*
X013180Y023176D01*
X013222Y023074D01*
X013374Y022922D01*
X013573Y022840D01*
X013787Y022840D01*
X013986Y022922D01*
X014138Y023074D01*
X014220Y023273D01*
X014220Y024087D01*
X014138Y024286D01*
X014064Y024360D01*
X014360Y024360D01*
X014360Y024116D01*
X014409Y023999D01*
X014499Y023909D01*
X014616Y023860D01*
X015181Y023860D01*
X015150Y023785D01*
X015150Y023575D01*
X015231Y023380D01*
X015380Y023231D01*
X015502Y023180D01*
X015380Y023129D01*
X015231Y022980D01*
X015150Y022785D01*
X015150Y022575D01*
X015231Y022380D01*
X015380Y022231D01*
X015502Y022180D01*
X015380Y022129D01*
X015231Y021980D01*
X015150Y021785D01*
X015150Y021575D01*
X015231Y021380D01*
X015380Y021231D01*
X015502Y021180D01*
X015380Y021129D01*
X015231Y020980D01*
X015150Y020785D01*
X015000Y020785D01*
X015150Y020785D02*
X015150Y020575D01*
X015231Y020380D01*
X015380Y020231D01*
X015502Y020180D01*
X015380Y020129D01*
X015231Y019980D01*
X015150Y019785D01*
X015150Y019575D01*
X015231Y019380D01*
X015380Y019231D01*
X015502Y019180D01*
X015380Y019129D01*
X015231Y018980D01*
X015150Y018785D01*
X015150Y018575D01*
X015231Y018380D01*
X015380Y018231D01*
X015502Y018180D01*
X015396Y018136D02*
X015396Y018224D01*
X015361Y018249D02*
X013580Y018249D01*
X013580Y018091D02*
X015341Y018091D01*
X015238Y017987D02*
X015238Y018373D01*
X015219Y018408D02*
X013580Y018408D01*
X013580Y018566D02*
X015154Y018566D01*
X015150Y018725D02*
X014777Y018725D01*
X014762Y018722D02*
X014762Y016580D01*
X014604Y016580D02*
X014604Y018722D01*
X014583Y018725D02*
X013580Y018725D01*
X013580Y018883D02*
X014330Y018883D01*
X014287Y018934D02*
X014287Y016580D01*
X014445Y016580D02*
X014445Y018782D01*
X014242Y019042D02*
X013580Y019042D01*
X013580Y019200D02*
X014222Y019200D01*
X014258Y019359D02*
X013580Y019359D01*
X013580Y019517D02*
X014360Y019517D01*
X014287Y019426D02*
X014287Y021360D01*
X014360Y021261D02*
X000660Y021261D01*
X000660Y021419D02*
X010488Y021419D01*
X010483Y021425D02*
X010483Y010077D01*
X010641Y010080D02*
X010641Y021360D01*
X010800Y021360D02*
X010800Y010080D01*
X010958Y010080D02*
X010958Y021360D01*
X011117Y021360D02*
X011117Y010080D01*
X011275Y010080D02*
X011275Y021360D01*
X011434Y021360D02*
X011434Y020497D01*
X011415Y020468D02*
X005945Y020468D01*
X005938Y020486D02*
X005786Y020638D01*
X005587Y020720D01*
X004773Y020720D01*
X004574Y020638D01*
X004422Y020486D01*
X004340Y020287D01*
X004340Y020073D01*
X004422Y019874D01*
X004574Y019722D01*
X004676Y019680D01*
X004574Y019638D01*
X004422Y019486D01*
X004340Y019287D01*
X004340Y019073D01*
X004422Y018874D01*
X004574Y018722D01*
X004676Y018680D01*
X004574Y018638D01*
X004422Y018486D01*
X004340Y018287D01*
X004340Y018073D01*
X004422Y017874D01*
X004574Y017722D01*
X004676Y017680D01*
X004574Y017638D01*
X004422Y017486D01*
X004340Y017287D01*
X004340Y017073D01*
X004422Y016874D01*
X004574Y016722D01*
X004773Y016640D01*
X005587Y016640D01*
X005786Y016722D01*
X005938Y016874D01*
X006020Y017073D01*
X006020Y017287D01*
X005938Y017486D01*
X005786Y017638D01*
X005684Y017680D01*
X005786Y017722D01*
X005938Y017874D01*
X006020Y018073D01*
X006020Y018287D01*
X005938Y018486D01*
X005786Y018638D01*
X005684Y018680D01*
X005786Y018722D01*
X005938Y018874D01*
X006020Y019073D01*
X006020Y019287D01*
X005938Y019486D01*
X005786Y019638D01*
X005684Y019680D01*
X005786Y019722D01*
X005938Y019874D01*
X006020Y020073D01*
X006020Y020287D01*
X005938Y020486D01*
X005886Y020538D02*
X005886Y021860D01*
X005728Y021860D02*
X005728Y020662D01*
X005797Y020627D02*
X011563Y020627D01*
X011592Y020645D02*
X011592Y021360D01*
X011751Y021360D02*
X011751Y020711D01*
X011909Y020720D02*
X011909Y021360D01*
X012068Y021360D02*
X012068Y020720D01*
X012226Y020720D02*
X012226Y021360D01*
X012385Y021360D02*
X012385Y020720D01*
X012543Y020720D02*
X012543Y021360D01*
X012702Y021360D02*
X012702Y020673D01*
X012797Y020627D02*
X014360Y020627D01*
X014360Y020785D02*
X000660Y020785D01*
X000660Y020627D02*
X001260Y020627D01*
X001290Y020656D02*
X001290Y022104D01*
X001323Y022090D02*
X001537Y022090D01*
X001736Y022172D01*
X001888Y022324D01*
X001930Y022426D01*
X001972Y022324D01*
X002124Y022172D01*
X002323Y022090D01*
X002537Y022090D01*
X002736Y022172D01*
X002888Y022324D01*
X002930Y022426D01*
X002972Y022324D01*
X003124Y022172D01*
X003323Y022090D01*
X003537Y022090D01*
X003736Y022172D01*
X003888Y022324D01*
X003970Y022523D01*
X003970Y023337D01*
X003888Y023536D01*
X003736Y023688D01*
X003537Y023770D01*
X003323Y023770D01*
X003124Y023688D01*
X002972Y023536D01*
X002930Y023434D01*
X002888Y023536D01*
X002736Y023688D01*
X002537Y023770D01*
X002323Y023770D01*
X002124Y023688D01*
X001972Y023536D01*
X001930Y023434D01*
X001888Y023536D01*
X001736Y023688D01*
X001537Y023770D01*
X001323Y023770D01*
X001124Y023688D01*
X000972Y023536D01*
X000890Y023337D01*
X000890Y022523D01*
X000972Y022324D01*
X001124Y022172D01*
X001323Y022090D01*
X001448Y022090D02*
X001448Y020728D01*
X001547Y020769D02*
X001300Y020667D01*
X001112Y020479D01*
X001010Y020233D01*
X001010Y019966D01*
X001112Y019720D01*
X001300Y019531D01*
X001547Y019429D01*
X001813Y019429D01*
X002060Y019531D01*
X002248Y019720D01*
X002350Y019966D01*
X002350Y020233D01*
X002248Y020479D01*
X002060Y020667D01*
X001813Y020769D01*
X001547Y020769D01*
X001607Y020769D02*
X001607Y022119D01*
X001765Y022201D02*
X001765Y020769D01*
X001924Y020724D02*
X001924Y022410D01*
X001907Y022370D02*
X001953Y022370D01*
X002082Y022214D02*
X002082Y020645D01*
X002100Y020627D02*
X004563Y020627D01*
X004618Y020656D02*
X004618Y024377D01*
X004460Y024377D02*
X004460Y020523D01*
X004415Y020468D02*
X002252Y020468D01*
X002241Y020486D02*
X002241Y022124D01*
X002399Y022090D02*
X002399Y015420D01*
X002283Y015420D02*
X002011Y015307D01*
X001803Y015099D01*
X001690Y014827D01*
X001690Y014533D01*
X001803Y014261D01*
X002011Y014053D01*
X002283Y013940D01*
X002577Y013940D01*
X002849Y014053D01*
X003057Y014261D01*
X003170Y014533D01*
X003170Y014827D01*
X003057Y015099D01*
X002849Y015307D01*
X002577Y015420D01*
X002283Y015420D01*
X002241Y015402D02*
X002241Y018334D01*
X002248Y018342D02*
X002350Y018588D01*
X002350Y018855D01*
X002248Y019101D01*
X002060Y019289D01*
X001813Y019391D01*
X001547Y019391D01*
X001300Y019289D01*
X001112Y019101D01*
X001010Y018855D01*
X001010Y018588D01*
X001112Y018342D01*
X001300Y018153D01*
X001547Y018051D01*
X001813Y018051D01*
X002060Y018153D01*
X002248Y018342D01*
X002275Y018408D02*
X004390Y018408D01*
X004460Y018523D02*
X004460Y018837D01*
X004419Y018883D02*
X002338Y018883D01*
X002350Y018725D02*
X004572Y018725D01*
X004618Y018704D02*
X004618Y018656D01*
X004502Y018566D02*
X002341Y018566D01*
X002155Y018249D02*
X004340Y018249D01*
X004340Y018091D02*
X001908Y018091D01*
X001924Y018097D02*
X001924Y015220D01*
X001941Y015238D02*
X000660Y015238D01*
X000660Y015396D02*
X002225Y015396D01*
X002082Y015337D02*
X002082Y018176D01*
X001765Y018051D02*
X001765Y015008D01*
X001794Y015079D02*
X000660Y015079D01*
X000660Y014921D02*
X001729Y014921D01*
X001690Y014762D02*
X000660Y014762D01*
X000660Y014604D02*
X001690Y014604D01*
X001726Y014445D02*
X000660Y014445D01*
X000660Y014287D02*
X001792Y014287D01*
X001765Y014352D02*
X001765Y012269D01*
X001813Y012269D02*
X001547Y012269D01*
X001300Y012167D01*
X001112Y011979D01*
X001010Y011733D01*
X001010Y011466D01*
X001112Y011220D01*
X001300Y011031D01*
X001547Y010929D01*
X001813Y010929D01*
X002060Y011031D01*
X002248Y011220D01*
X002350Y011466D01*
X002350Y011733D01*
X002248Y011979D01*
X002060Y012167D01*
X001813Y012269D01*
X001918Y012226D02*
X011780Y012226D01*
X011751Y012211D02*
X011751Y019649D01*
X011687Y019676D02*
X005695Y019676D01*
X005728Y019662D02*
X005728Y019698D01*
X005886Y019822D02*
X005886Y019538D01*
X005907Y019517D02*
X012780Y019517D01*
X012780Y019359D02*
X005991Y019359D01*
X006020Y019200D02*
X012780Y019200D01*
X012780Y019042D02*
X006007Y019042D01*
X005941Y018883D02*
X012780Y018883D01*
X012780Y018725D02*
X005788Y018725D01*
X005728Y018698D02*
X005728Y018662D01*
X005858Y018566D02*
X012780Y018566D01*
X012780Y018408D02*
X005970Y018408D01*
X005886Y018538D02*
X005886Y018822D01*
X006020Y018249D02*
X012780Y018249D01*
X012780Y018091D02*
X006020Y018091D01*
X005962Y017932D02*
X012780Y017932D01*
X012780Y017774D02*
X005837Y017774D01*
X005886Y017822D02*
X005886Y017538D01*
X005950Y017457D02*
X012780Y017457D01*
X012780Y017615D02*
X005809Y017615D01*
X005728Y017662D02*
X005728Y017698D01*
X006016Y017298D02*
X012780Y017298D01*
X012780Y017140D02*
X006020Y017140D01*
X005982Y016981D02*
X012780Y016981D01*
X012780Y016823D02*
X005886Y016823D01*
X005886Y016822D02*
X005886Y015538D01*
X005869Y015555D02*
X012039Y015555D01*
X012068Y015566D02*
X012068Y019640D01*
X012226Y019640D02*
X012226Y015580D01*
X012385Y015580D02*
X012385Y019640D01*
X012543Y019640D02*
X012543Y015580D01*
X012702Y015580D02*
X012702Y019687D01*
X012673Y019676D02*
X012780Y019676D01*
X013580Y019676D02*
X014360Y019676D01*
X014360Y019834D02*
X013580Y019834D01*
X013580Y019993D02*
X014360Y019993D01*
X014360Y020151D02*
X013580Y020151D01*
X013559Y020310D02*
X014360Y020310D01*
X014360Y020468D02*
X013458Y020468D01*
X013494Y020432D02*
X013494Y021360D01*
X013336Y021360D02*
X013336Y020549D01*
X013177Y020580D02*
X013177Y021360D01*
X013019Y021360D02*
X013019Y020580D01*
X012860Y020580D02*
X012860Y021360D01*
X012860Y022000D02*
X012860Y022870D01*
X012801Y022846D02*
X013559Y022846D01*
X013494Y022873D02*
X013494Y022000D01*
X013336Y022000D02*
X013336Y022961D01*
X013292Y023004D02*
X013068Y023004D01*
X013019Y022955D02*
X013019Y022000D01*
X013177Y022000D02*
X013177Y023169D01*
X013174Y023163D02*
X013186Y023163D01*
X013653Y022840D02*
X013653Y022000D01*
X013811Y022000D02*
X013811Y022850D01*
X013801Y022846D02*
X015175Y022846D01*
X015238Y022987D02*
X015238Y023373D01*
X015289Y023321D02*
X014220Y023321D01*
X014220Y023480D02*
X015189Y023480D01*
X015150Y023638D02*
X014220Y023638D01*
X014220Y023797D02*
X015155Y023797D01*
X015079Y023860D02*
X015079Y019413D01*
X015102Y019359D02*
X015252Y019359D01*
X015238Y019373D02*
X015238Y018987D01*
X015292Y019042D02*
X015118Y019042D01*
X015079Y018947D02*
X015079Y016580D01*
X014921Y016580D02*
X014921Y018784D01*
X015030Y018883D02*
X015190Y018883D01*
X015138Y019200D02*
X015454Y019200D01*
X015396Y019224D02*
X015396Y019136D01*
X015174Y019517D02*
X015000Y019517D01*
X015000Y019676D02*
X015150Y019676D01*
X015170Y019834D02*
X015000Y019834D01*
X015000Y019993D02*
X015243Y019993D01*
X015238Y019987D02*
X015238Y020373D01*
X015301Y020310D02*
X015000Y020310D01*
X015000Y020468D02*
X015194Y020468D01*
X015150Y020627D02*
X015000Y020627D01*
X015000Y020944D02*
X015215Y020944D01*
X015238Y020987D02*
X015238Y021373D01*
X015214Y021419D02*
X015000Y021419D01*
X015000Y021261D02*
X015350Y021261D01*
X015396Y021224D02*
X015396Y021136D01*
X015353Y021102D02*
X015000Y021102D01*
X015000Y021578D02*
X015150Y021578D01*
X015150Y021736D02*
X015000Y021736D01*
X014921Y021892D02*
X014921Y023860D01*
X014762Y023860D02*
X014762Y021992D01*
X014604Y022000D02*
X014604Y023865D01*
X014452Y023955D02*
X014220Y023955D01*
X014209Y024114D02*
X014361Y024114D01*
X014360Y024272D02*
X014144Y024272D01*
X014128Y024296D02*
X014128Y024360D01*
X014287Y024360D02*
X014287Y022000D01*
X014445Y022000D02*
X014445Y023962D01*
X014680Y024180D02*
X023680Y024180D01*
X023680Y024430D01*
X024680Y024930D01*
X025185Y024431D02*
X026570Y024431D01*
X026570Y024589D02*
X025403Y024589D01*
X025382Y024568D02*
X025382Y024292D01*
X025402Y024272D02*
X026570Y024272D01*
X026570Y024114D02*
X025488Y024114D01*
X025520Y023955D02*
X026570Y023955D01*
X026570Y023797D02*
X025509Y023797D01*
X025444Y023638D02*
X026570Y023638D01*
X026570Y023480D02*
X025293Y023480D01*
X025223Y023446D02*
X025223Y023414D01*
X025353Y023321D02*
X026570Y023321D01*
X026570Y023163D02*
X025468Y023163D01*
X025382Y023292D02*
X025382Y023568D01*
X025520Y023004D02*
X026570Y023004D01*
X026570Y022846D02*
X025520Y022846D01*
X025065Y022390D02*
X025065Y016220D01*
X024906Y016220D02*
X024906Y022390D01*
X024748Y022390D02*
X024748Y016220D01*
X024589Y016220D02*
X024589Y022390D01*
X024431Y022390D02*
X024431Y016220D01*
X024272Y016220D02*
X024272Y022390D01*
X023955Y022295D02*
X023955Y021052D01*
X023638Y021138D02*
X023638Y022169D01*
X023480Y022109D02*
X023480Y022028D01*
X023454Y022053D02*
X026570Y022053D01*
X026570Y021895D02*
X023587Y021895D01*
X023638Y021736D02*
X026570Y021736D01*
X026570Y021578D02*
X023633Y021578D01*
X023566Y021419D02*
X026570Y021419D01*
X026570Y021261D02*
X023500Y021261D01*
X023500Y021102D02*
X023503Y021102D01*
X023180Y021680D02*
X023180Y015930D01*
X021680Y015930D01*
X022150Y016506D02*
X022860Y016506D01*
X022860Y016664D02*
X022010Y016664D01*
X022053Y016621D02*
X022053Y017304D01*
X022048Y017298D02*
X022860Y017298D01*
X022860Y017140D02*
X021500Y017140D01*
X021578Y017150D02*
X021578Y016770D01*
X021500Y016823D02*
X022860Y016823D01*
X022860Y016981D02*
X021500Y016981D01*
X021736Y017150D02*
X021736Y016770D01*
X021895Y016726D02*
X021895Y017195D01*
X022161Y017457D02*
X022860Y017457D01*
X022860Y017615D02*
X022210Y017615D01*
X022210Y017774D02*
X022860Y017774D01*
X022860Y017932D02*
X022149Y017932D01*
X022053Y018056D02*
X022053Y018304D01*
X021999Y018249D02*
X022860Y018249D01*
X022860Y018091D02*
X022019Y018091D01*
X021895Y018165D02*
X021895Y018195D01*
X022141Y018408D02*
X022860Y018408D01*
X022860Y018566D02*
X022206Y018566D01*
X022210Y018725D02*
X022860Y018725D01*
X022860Y018883D02*
X022170Y018883D01*
X022068Y019042D02*
X022860Y019042D01*
X022860Y019200D02*
X021906Y019200D01*
X021895Y019195D02*
X021895Y019165D01*
X022053Y019056D02*
X022053Y019304D01*
X022108Y019359D02*
X022860Y019359D01*
X022860Y019517D02*
X022186Y019517D01*
X022210Y019676D02*
X022860Y019676D01*
X022860Y019834D02*
X022190Y019834D01*
X022117Y019993D02*
X022860Y019993D01*
X022860Y020151D02*
X021928Y020151D01*
X021895Y020165D02*
X021895Y020195D01*
X022053Y020304D02*
X022053Y020056D01*
X022059Y020310D02*
X022860Y020310D01*
X022860Y020468D02*
X022166Y020468D01*
X022145Y020944D02*
X022860Y020944D01*
X022860Y021102D02*
X022007Y021102D01*
X022053Y021056D02*
X022053Y021304D01*
X022010Y021261D02*
X022860Y021261D01*
X022846Y021367D02*
X022846Y016250D01*
X022860Y016347D02*
X022216Y016347D01*
X022212Y016358D02*
X022212Y022860D01*
X022185Y022846D02*
X023110Y022846D01*
X023110Y022687D02*
X022210Y022687D01*
X022191Y022529D02*
X023110Y022529D01*
X023196Y022212D02*
X021934Y022212D01*
X021895Y022195D02*
X021895Y022165D01*
X022165Y021895D02*
X022773Y021895D01*
X022722Y021736D02*
X022210Y021736D01*
X022210Y021578D02*
X022727Y021578D01*
X022794Y021419D02*
X022146Y021419D01*
X021895Y021195D02*
X021895Y021165D01*
X023321Y022117D02*
X023321Y022129D01*
X023430Y022430D02*
X024680Y022930D01*
X023430Y023180D02*
X023430Y022430D01*
X023430Y023180D02*
X018180Y023180D01*
X018180Y015180D01*
X017680Y015180D01*
X017298Y014798D02*
X017298Y008080D01*
X017140Y008080D02*
X017140Y014876D01*
X017026Y014762D02*
X017334Y014762D01*
X017457Y014640D02*
X017457Y008080D01*
X017615Y008080D02*
X017615Y014640D01*
X017774Y014640D02*
X017774Y008080D01*
X017932Y008080D02*
X017932Y014668D01*
X016981Y014717D02*
X016981Y008080D01*
X016823Y008080D02*
X016823Y014640D01*
X016664Y014640D02*
X016664Y008080D01*
X016506Y008080D02*
X016506Y014640D01*
X016189Y014435D02*
X016189Y014908D01*
X016189Y015452D02*
X016189Y017482D01*
X016199Y017457D02*
X016161Y017457D01*
X016048Y017298D02*
X016312Y017298D01*
X016347Y017263D02*
X016347Y015611D01*
X016291Y015555D02*
X016080Y015555D01*
X016080Y015713D02*
X016449Y015713D01*
X016506Y015720D02*
X016506Y017179D01*
X016664Y017150D02*
X016664Y015720D01*
X016823Y015720D02*
X016823Y017165D01*
X016981Y017231D02*
X016981Y015643D01*
X016911Y015713D02*
X017449Y015713D01*
X017457Y015720D02*
X017457Y017199D01*
X017615Y017150D02*
X017615Y015720D01*
X017774Y015720D02*
X017774Y017150D01*
X017860Y017140D02*
X013580Y017140D01*
X013580Y017298D02*
X015312Y017298D01*
X015238Y017373D02*
X015238Y016580D01*
X015396Y016580D02*
X015396Y017224D01*
X015555Y017158D02*
X015555Y016580D01*
X015713Y016580D02*
X015713Y017150D01*
X015872Y017186D02*
X015872Y016534D01*
X015920Y016506D02*
X017860Y016506D01*
X017860Y016664D02*
X013580Y016664D01*
X013653Y016580D02*
X013653Y021360D01*
X013811Y021360D02*
X013811Y016580D01*
X013970Y016580D02*
X013970Y021360D01*
X014128Y021360D02*
X014128Y016580D01*
X013580Y016823D02*
X017860Y016823D01*
X017860Y016981D02*
X013580Y016981D01*
X013580Y017457D02*
X015199Y017457D01*
X015150Y017615D02*
X013580Y017615D01*
X013580Y017774D02*
X015150Y017774D01*
X015211Y017932D02*
X013580Y017932D01*
X012780Y016664D02*
X005645Y016664D01*
X005569Y016640D02*
X005569Y015720D01*
X005587Y015720D02*
X005786Y015638D01*
X005938Y015486D01*
X006020Y015287D01*
X006020Y015073D01*
X005938Y014874D01*
X005786Y014722D01*
X005684Y014680D01*
X005786Y014638D01*
X005938Y014486D01*
X006020Y014287D01*
X006020Y014073D01*
X005938Y013874D01*
X005786Y013722D01*
X005587Y013640D01*
X004773Y013640D01*
X004574Y013722D01*
X004422Y013874D01*
X004340Y014073D01*
X004340Y014287D01*
X004422Y014486D01*
X004574Y014638D01*
X004676Y014680D01*
X004574Y014722D01*
X004422Y014874D01*
X004340Y015073D01*
X004340Y015287D01*
X004422Y015486D01*
X004574Y015638D01*
X004773Y015720D01*
X005587Y015720D01*
X005604Y015713D02*
X013449Y015713D01*
X013494Y015720D02*
X013494Y015780D01*
X013336Y015780D02*
X013336Y015599D01*
X013177Y015580D02*
X013177Y015780D01*
X013019Y015814D02*
X013019Y015580D01*
X012860Y015580D02*
X012860Y015934D01*
X012923Y015872D02*
X000660Y015872D01*
X000660Y016030D02*
X012809Y016030D01*
X012780Y016189D02*
X000660Y016189D01*
X000660Y016347D02*
X012780Y016347D01*
X012780Y016506D02*
X000660Y016506D01*
X000660Y016664D02*
X004715Y016664D01*
X004777Y016640D02*
X004777Y015720D01*
X004756Y015713D02*
X000660Y015713D01*
X000660Y015555D02*
X004491Y015555D01*
X004460Y015523D02*
X004460Y016837D01*
X004474Y016823D02*
X000660Y016823D01*
X000660Y016981D02*
X004378Y016981D01*
X004340Y017140D02*
X000660Y017140D01*
X000660Y017298D02*
X004344Y017298D01*
X004410Y017457D02*
X000660Y017457D01*
X000660Y017615D02*
X004551Y017615D01*
X004618Y017656D02*
X004618Y017704D01*
X004523Y017774D02*
X000660Y017774D01*
X000660Y017932D02*
X004398Y017932D01*
X004460Y017837D02*
X004460Y017523D01*
X004618Y016704D02*
X004618Y015656D01*
X004385Y015396D02*
X002635Y015396D01*
X002558Y015420D02*
X002558Y022098D01*
X002716Y022164D02*
X002716Y015363D01*
X002875Y015282D02*
X002875Y022311D01*
X002907Y022370D02*
X002953Y022370D01*
X003033Y022263D02*
X003033Y015124D01*
X003066Y015079D02*
X004340Y015079D01*
X004340Y015238D02*
X002919Y015238D01*
X003131Y014921D02*
X004403Y014921D01*
X004460Y014837D02*
X004460Y014523D01*
X004405Y014445D02*
X003134Y014445D01*
X003170Y014604D02*
X004540Y014604D01*
X004618Y014656D02*
X004618Y014704D01*
X004534Y014762D02*
X003170Y014762D01*
X003068Y014287D02*
X004340Y014287D01*
X004340Y014128D02*
X002925Y014128D01*
X002875Y014078D02*
X002875Y006782D01*
X002849Y006807D02*
X002577Y006920D01*
X002283Y006920D01*
X002011Y006807D01*
X001803Y006599D01*
X001690Y006327D01*
X001690Y006033D01*
X001803Y005761D01*
X002011Y005553D01*
X002283Y005440D01*
X002577Y005440D01*
X002849Y005553D01*
X003057Y005761D01*
X003170Y006033D01*
X003170Y006327D01*
X003057Y006599D01*
X002849Y006807D01*
X002778Y006837D02*
X004361Y006837D01*
X004340Y006787D02*
X004340Y006573D01*
X004422Y006374D01*
X004574Y006222D01*
X004676Y006180D01*
X004574Y006138D01*
X004422Y005986D01*
X004340Y005787D01*
X004340Y005573D01*
X004422Y005374D01*
X004574Y005222D01*
X004773Y005140D01*
X005587Y005140D01*
X005786Y005222D01*
X005938Y005374D01*
X006020Y005573D01*
X006020Y005787D01*
X005938Y005986D01*
X005786Y006138D01*
X005684Y006180D01*
X005786Y006222D01*
X005938Y006374D01*
X006020Y006573D01*
X006020Y006787D01*
X005938Y006986D01*
X005786Y007138D01*
X005587Y007220D01*
X004773Y007220D01*
X004574Y007138D01*
X004422Y006986D01*
X004340Y006787D01*
X004340Y006679D02*
X002978Y006679D01*
X003033Y006624D02*
X003033Y014236D01*
X002716Y013997D02*
X002716Y006863D01*
X002558Y006920D02*
X002558Y013940D01*
X002648Y013970D02*
X004383Y013970D01*
X004460Y013837D02*
X004460Y012023D01*
X004504Y012068D02*
X002159Y012068D01*
X002082Y012145D02*
X002082Y014023D01*
X002212Y013970D02*
X000660Y013970D01*
X000660Y014128D02*
X001935Y014128D01*
X001924Y014140D02*
X001924Y012224D01*
X002241Y011986D02*
X002241Y013958D01*
X002399Y013940D02*
X002399Y006920D01*
X002241Y006902D02*
X002241Y009834D01*
X002248Y009842D02*
X002350Y010088D01*
X002350Y010355D01*
X002248Y010601D01*
X002060Y010789D01*
X001813Y010891D01*
X001547Y010891D01*
X001300Y010789D01*
X001112Y010601D01*
X001010Y010355D01*
X001010Y010088D01*
X001112Y009842D01*
X001300Y009653D01*
X001547Y009551D01*
X001813Y009551D01*
X002060Y009653D01*
X002248Y009842D01*
X002251Y009849D02*
X004365Y009849D01*
X004340Y009690D02*
X002096Y009690D01*
X002082Y009676D02*
X002082Y006837D01*
X000660Y006837D01*
X000660Y006679D02*
X001882Y006679D01*
X001924Y006720D02*
X001924Y009597D01*
X001765Y009551D02*
X001765Y006508D01*
X001770Y006520D02*
X000660Y006520D01*
X000660Y006362D02*
X001704Y006362D01*
X001690Y006203D02*
X000660Y006203D01*
X000660Y006045D02*
X001690Y006045D01*
X001751Y005886D02*
X000660Y005886D01*
X000660Y005728D02*
X001836Y005728D01*
X001924Y005640D02*
X001924Y000660D01*
X002082Y000660D02*
X002082Y005523D01*
X001994Y005569D02*
X000660Y005569D01*
X000660Y005411D02*
X004407Y005411D01*
X004460Y005337D02*
X004460Y003970D01*
X004618Y003970D02*
X004618Y005204D01*
X004544Y005252D02*
X000660Y005252D01*
X000660Y005094D02*
X010280Y005094D01*
X010280Y005252D02*
X005816Y005252D01*
X005886Y005322D02*
X005886Y004000D01*
X005728Y004000D02*
X005728Y005198D01*
X005569Y005140D02*
X005569Y003980D01*
X005578Y003984D02*
X000660Y003984D01*
X000660Y003826D02*
X003762Y003826D01*
X003826Y003888D02*
X003826Y022262D01*
X003775Y022212D02*
X005360Y022212D01*
X005360Y022116D02*
X005409Y021999D01*
X005499Y021909D01*
X005616Y021860D01*
X008853Y021860D01*
X008921Y021792D01*
X009089Y021722D01*
X009271Y021722D01*
X009439Y021792D01*
X009568Y021921D01*
X009638Y022089D01*
X009638Y022271D01*
X009568Y022439D01*
X009439Y022568D01*
X009271Y022638D01*
X009089Y022638D01*
X008921Y022568D01*
X008853Y022500D01*
X006101Y022500D01*
X006138Y022589D01*
X006138Y022771D01*
X006068Y022939D01*
X005939Y023068D01*
X005771Y023138D01*
X005589Y023138D01*
X005421Y023068D01*
X005292Y022939D01*
X005222Y022771D01*
X005222Y022589D01*
X005292Y022421D01*
X005360Y022353D01*
X005360Y022116D01*
X005386Y022053D02*
X000660Y022053D01*
X000660Y021895D02*
X005533Y021895D01*
X005569Y021880D02*
X005569Y020720D01*
X005411Y020720D02*
X005411Y021997D01*
X005680Y022180D02*
X005680Y022680D01*
X006003Y023004D02*
X006292Y023004D01*
X006362Y022935D02*
X006362Y022500D01*
X006520Y022500D02*
X006520Y022862D01*
X006559Y022846D02*
X006107Y022846D01*
X006045Y022963D02*
X006045Y026261D01*
X006051Y026245D02*
X006119Y026177D01*
X006207Y026141D01*
X006932Y026141D01*
X007021Y026177D01*
X007088Y026245D01*
X007125Y026333D01*
X007125Y026695D01*
X007255Y026695D01*
X007260Y026682D01*
X007328Y026614D01*
X007416Y026578D01*
X007944Y026578D01*
X008032Y026614D01*
X008100Y026682D01*
X008137Y026770D01*
X008137Y026934D01*
X008723Y027326D01*
X008723Y027154D01*
X008637Y027118D01*
X008492Y026973D01*
X008413Y026783D01*
X008413Y026577D01*
X008492Y026387D01*
X008637Y026242D01*
X008827Y026163D01*
X009033Y026163D01*
X009223Y026242D01*
X009368Y026387D01*
X009430Y026536D01*
X009492Y026387D01*
X009637Y026242D01*
X009827Y026163D01*
X010033Y026163D01*
X010223Y026242D01*
X010368Y026387D01*
X010430Y026536D01*
X010492Y026387D01*
X010610Y026269D01*
X010610Y026165D01*
X010533Y026197D01*
X010327Y026197D01*
X010137Y026118D01*
X009992Y025973D01*
X009930Y025824D01*
X009868Y025973D01*
X009723Y026118D01*
X009533Y026197D01*
X009327Y026197D01*
X009137Y026118D01*
X008992Y025973D01*
X008930Y025824D01*
X008868Y025973D01*
X008723Y026118D01*
X008533Y026197D01*
X008327Y026197D01*
X008137Y026118D01*
X007992Y025973D01*
X007913Y025783D01*
X007913Y025577D01*
X007992Y025387D01*
X008137Y025242D01*
X008327Y025163D01*
X008533Y025163D01*
X008723Y025242D01*
X008868Y025387D01*
X008930Y025536D01*
X008992Y025387D01*
X009137Y025242D01*
X009327Y025163D01*
X009533Y025163D01*
X009723Y025242D01*
X009868Y025387D01*
X009930Y025536D01*
X009992Y025387D01*
X010137Y025242D01*
X010327Y025163D01*
X010533Y025163D01*
X010610Y025195D01*
X010610Y024616D01*
X010650Y024520D01*
X010573Y024520D01*
X010374Y024438D01*
X010222Y024286D01*
X010180Y024184D01*
X010138Y024286D01*
X009986Y024438D01*
X009787Y024520D01*
X009573Y024520D01*
X009374Y024438D01*
X009222Y024286D01*
X009180Y024184D01*
X009138Y024286D01*
X008986Y024438D01*
X008787Y024520D01*
X008573Y024520D01*
X008374Y024438D01*
X008222Y024286D01*
X008180Y024184D01*
X008138Y024286D01*
X007986Y024438D01*
X007787Y024520D01*
X007573Y024520D01*
X007374Y024438D01*
X007222Y024286D01*
X007180Y024184D01*
X007138Y024286D01*
X006986Y024438D01*
X006787Y024520D01*
X006573Y024520D01*
X006374Y024438D01*
X006222Y024286D01*
X006140Y024087D01*
X006140Y023273D01*
X006222Y023074D01*
X006374Y022922D01*
X006573Y022840D01*
X006787Y022840D01*
X006986Y022922D01*
X007138Y023074D01*
X007180Y023176D01*
X007222Y023074D01*
X007374Y022922D01*
X007573Y022840D01*
X007787Y022840D01*
X007986Y022922D01*
X008138Y023074D01*
X008180Y023176D01*
X008222Y023074D01*
X008374Y022922D01*
X008573Y022840D01*
X008787Y022840D01*
X008986Y022922D01*
X009138Y023074D01*
X009180Y023176D01*
X009222Y023074D01*
X009374Y022922D01*
X009573Y022840D01*
X009787Y022840D01*
X009986Y022922D01*
X010138Y023074D01*
X010180Y023176D01*
X010068Y023004D02*
X010292Y023004D01*
X010324Y022972D02*
X010324Y010014D01*
X010026Y009849D02*
X005995Y009849D01*
X006020Y009690D02*
X010015Y009690D01*
X010015Y009532D02*
X006003Y009532D01*
X005937Y009373D02*
X010015Y009373D01*
X010082Y009215D02*
X005767Y009215D01*
X005728Y009198D02*
X005728Y009162D01*
X005868Y009056D02*
X010909Y009056D01*
X010958Y009084D02*
X010958Y009151D01*
X011058Y009215D02*
X025079Y009215D01*
X025065Y009142D02*
X025065Y012140D01*
X024906Y012140D02*
X024906Y008350D01*
X024920Y008422D02*
X014580Y008422D01*
X014580Y008264D02*
X024889Y008264D01*
X024857Y008105D02*
X021350Y008105D01*
X021419Y008077D02*
X021419Y012154D01*
X021578Y012090D02*
X021578Y007917D01*
X021561Y007947D02*
X024799Y007947D01*
X024748Y007832D02*
X024748Y012140D01*
X024589Y012140D02*
X024589Y004389D01*
X024568Y004439D02*
X024439Y004568D01*
X024271Y004638D01*
X024089Y004638D01*
X023921Y004568D01*
X023853Y004500D01*
X022007Y004500D01*
X021939Y004568D01*
X021771Y004638D01*
X021589Y004638D01*
X021421Y004568D01*
X021353Y004500D01*
X018507Y004500D01*
X018439Y004568D01*
X018271Y004638D01*
X018089Y004638D01*
X017921Y004568D01*
X017792Y004439D01*
X017722Y004271D01*
X017722Y004089D01*
X017792Y003921D01*
X017921Y003792D01*
X018089Y003722D01*
X018271Y003722D01*
X018439Y003792D01*
X018507Y003860D01*
X021353Y003860D01*
X021421Y003792D01*
X021589Y003722D01*
X021771Y003722D01*
X021939Y003792D01*
X022007Y003860D01*
X023853Y003860D01*
X023921Y003792D01*
X024089Y003722D01*
X024176Y003722D01*
X024053Y003599D01*
X023940Y003327D01*
X023940Y003033D01*
X014000Y003033D01*
X014000Y002875D02*
X024006Y002875D01*
X024053Y002761D02*
X024261Y002553D01*
X024533Y002440D01*
X024827Y002440D01*
X025099Y002553D01*
X025307Y002761D01*
X025420Y003033D01*
X026570Y003033D01*
X026570Y002875D02*
X025354Y002875D01*
X025382Y002940D02*
X025382Y000660D01*
X025540Y000660D02*
X025540Y007393D01*
X025589Y007471D02*
X026570Y007471D01*
X026570Y007313D02*
X025460Y007313D01*
X025382Y007268D02*
X025382Y003420D01*
X025411Y003350D02*
X026570Y003350D01*
X026570Y003192D02*
X025420Y003192D01*
X025420Y003327D02*
X025420Y003033D01*
X025420Y003327D02*
X025307Y003599D01*
X025099Y003807D01*
X024827Y003920D01*
X024567Y003920D01*
X024568Y003921D01*
X024638Y004089D01*
X024638Y004271D01*
X024568Y004439D01*
X024548Y004460D02*
X026570Y004460D01*
X026570Y004618D02*
X024319Y004618D01*
X024272Y004637D02*
X024272Y012140D01*
X024431Y012140D02*
X024431Y004572D01*
X024114Y004638D02*
X024114Y012206D01*
X024070Y012226D02*
X022040Y012226D01*
X022053Y012239D02*
X022053Y004500D01*
X021895Y004587D02*
X021895Y012134D01*
X021736Y012090D02*
X021736Y004638D01*
X021819Y004618D02*
X024041Y004618D01*
X023955Y004582D02*
X023955Y012341D01*
X025223Y012196D02*
X025223Y009935D01*
X025237Y010007D02*
X015500Y010007D01*
X015396Y010086D02*
X015396Y013700D01*
X015285Y013811D02*
X015075Y013811D01*
X015079Y013815D02*
X015079Y010134D01*
X015238Y010138D02*
X015238Y013859D01*
X015713Y013640D02*
X015713Y008080D01*
X015713Y007280D02*
X015713Y002362D01*
X015555Y002362D02*
X015555Y007280D01*
X015396Y007280D02*
X015396Y002362D01*
X015238Y002362D02*
X015238Y007280D01*
X015079Y007280D02*
X015079Y004413D01*
X015048Y004460D02*
X017812Y004460D01*
X017774Y004395D02*
X017774Y007280D01*
X017932Y007280D02*
X017932Y004573D01*
X018041Y004618D02*
X014819Y004618D01*
X014762Y004638D02*
X014762Y007280D01*
X014604Y007280D02*
X014604Y004638D01*
X014541Y004618D02*
X014098Y004618D01*
X014128Y004545D02*
X014128Y007280D01*
X014022Y007313D02*
X011080Y007313D01*
X011080Y007382D02*
X012968Y007382D01*
X013089Y007332D01*
X013271Y007332D01*
X013439Y007402D01*
X013568Y007531D01*
X013638Y007699D01*
X013638Y007881D01*
X013568Y008050D01*
X013439Y008178D01*
X013271Y008248D01*
X013089Y008248D01*
X012930Y008182D01*
X011021Y008182D01*
X011021Y008183D01*
X010932Y008219D01*
X010207Y008219D01*
X010119Y008183D01*
X010051Y008115D01*
X010015Y008027D01*
X010015Y007538D01*
X010051Y007450D01*
X010119Y007382D01*
X010207Y007346D01*
X010280Y007346D01*
X010280Y004911D01*
X010222Y004771D01*
X010222Y004589D01*
X010292Y004421D01*
X010421Y004292D01*
X010589Y004222D01*
X010771Y004222D01*
X010939Y004292D01*
X011068Y004421D01*
X011138Y004589D01*
X011138Y004771D01*
X011080Y004911D01*
X011080Y007382D01*
X011117Y007382D02*
X011117Y004822D01*
X011136Y004777D02*
X013379Y004777D01*
X013336Y004750D02*
X013336Y007359D01*
X013177Y007332D02*
X013177Y004750D01*
X013019Y004750D02*
X013019Y007362D01*
X012860Y007382D02*
X012860Y004750D01*
X012702Y004750D02*
X012702Y007382D01*
X012543Y007382D02*
X012543Y004750D01*
X012385Y004750D02*
X012385Y007382D01*
X012226Y007382D02*
X012226Y004750D01*
X012068Y004750D02*
X012068Y007382D01*
X011909Y007382D02*
X011909Y004750D01*
X011751Y004750D02*
X011751Y007382D01*
X011592Y007382D02*
X011592Y004740D01*
X011434Y004636D02*
X011434Y007382D01*
X011275Y007382D02*
X011275Y004000D01*
X011117Y004000D02*
X011117Y004538D01*
X011138Y004618D02*
X011415Y004618D01*
X011360Y004460D02*
X011084Y004460D01*
X010958Y004311D02*
X010958Y004000D01*
X010800Y004000D02*
X010800Y004234D01*
X010641Y004222D02*
X010641Y004000D01*
X010483Y004000D02*
X010483Y004266D01*
X010412Y004301D02*
X000660Y004301D01*
X000660Y004143D02*
X011360Y004143D01*
X011360Y004301D02*
X010948Y004301D01*
X011080Y004935D02*
X026570Y004935D01*
X026570Y004777D02*
X013981Y004777D01*
X013970Y004788D02*
X013970Y007334D01*
X013834Y007471D02*
X013508Y007471D01*
X013494Y007457D02*
X013494Y004848D01*
X013653Y004888D02*
X013653Y008280D01*
X013780Y008264D02*
X011371Y008264D01*
X011434Y008280D02*
X011434Y008182D01*
X011592Y008182D02*
X011592Y008280D01*
X011751Y008280D02*
X011751Y008182D01*
X011909Y008182D02*
X011909Y008280D01*
X012068Y008280D02*
X012068Y008182D01*
X012226Y008182D02*
X012226Y008280D01*
X012385Y008280D02*
X012385Y008182D01*
X012543Y008182D02*
X012543Y008280D01*
X012702Y008280D02*
X012702Y008182D01*
X012860Y008182D02*
X012860Y008280D01*
X013019Y008280D02*
X013019Y008219D01*
X013177Y008248D02*
X013177Y008280D01*
X013336Y008280D02*
X013336Y008221D01*
X013494Y008280D02*
X013494Y008124D01*
X013513Y008105D02*
X013780Y008105D01*
X013780Y007947D02*
X013611Y007947D01*
X013638Y007788D02*
X013780Y007788D01*
X013780Y007630D02*
X013609Y007630D01*
X013811Y007526D02*
X013811Y004871D01*
X013680Y004430D02*
X013680Y004180D01*
X014680Y004180D01*
X014973Y003826D02*
X017887Y003826D01*
X017932Y003787D02*
X017932Y000660D01*
X017774Y000660D02*
X017774Y003965D01*
X017766Y003984D02*
X015094Y003984D01*
X015079Y003947D02*
X015079Y002353D01*
X015102Y002362D02*
X014851Y002259D01*
X014659Y002067D01*
X014555Y001816D01*
X014555Y001544D01*
X014659Y001293D01*
X014851Y001101D01*
X015102Y000998D01*
X016258Y000998D01*
X016509Y001101D01*
X016701Y001293D01*
X016805Y001544D01*
X016805Y001816D01*
X016701Y002067D01*
X016509Y002259D01*
X016258Y002362D01*
X015102Y002362D01*
X014921Y002287D02*
X014921Y003784D01*
X014762Y003722D02*
X014762Y002170D01*
X014833Y002241D02*
X014000Y002241D01*
X014000Y002399D02*
X026570Y002399D01*
X026570Y002241D02*
X016527Y002241D01*
X016506Y002260D02*
X016506Y007280D01*
X016664Y007280D02*
X016664Y002104D01*
X016686Y002082D02*
X026570Y002082D01*
X026570Y001924D02*
X016760Y001924D01*
X016805Y001765D02*
X026570Y001765D01*
X026570Y001607D02*
X016805Y001607D01*
X016765Y001448D02*
X026570Y001448D01*
X026570Y001290D02*
X016697Y001290D01*
X016664Y001256D02*
X016664Y000660D01*
X016506Y000660D02*
X016506Y001100D01*
X016539Y001131D02*
X026570Y001131D01*
X026570Y000973D02*
X014000Y000973D01*
X014000Y001131D02*
X014821Y001131D01*
X014762Y001190D02*
X014762Y000660D01*
X014604Y000660D02*
X014604Y001427D01*
X014595Y001448D02*
X014000Y001448D01*
X014000Y001290D02*
X014663Y001290D01*
X014555Y001607D02*
X014000Y001607D01*
X014000Y001765D02*
X014555Y001765D01*
X014600Y001924D02*
X014000Y001924D01*
X014000Y002082D02*
X014674Y002082D01*
X014604Y001933D02*
X014604Y003722D01*
X014445Y003782D02*
X014445Y000660D01*
X014287Y000660D02*
X014287Y003860D01*
X014387Y003826D02*
X013966Y003826D01*
X013970Y003817D02*
X013970Y003860D01*
X014128Y003860D02*
X014128Y000660D01*
X014000Y000814D02*
X026570Y000814D01*
X026491Y000660D02*
X026491Y012196D01*
X026497Y012226D02*
X026570Y012226D01*
X026570Y012068D02*
X026465Y012068D01*
X026434Y011909D02*
X026570Y011909D01*
X026570Y011751D02*
X026402Y011751D01*
X026370Y011592D02*
X026570Y011592D01*
X026570Y011434D02*
X026339Y011434D01*
X026333Y011403D02*
X026333Y000660D01*
X026174Y000660D02*
X026174Y010611D01*
X026180Y010641D02*
X026570Y010641D01*
X026570Y010483D02*
X026148Y010483D01*
X026117Y010324D02*
X026570Y010324D01*
X026570Y010166D02*
X026085Y010166D01*
X026053Y010007D02*
X026570Y010007D01*
X026570Y009849D02*
X026022Y009849D01*
X026016Y009818D02*
X026016Y000660D01*
X025857Y000660D02*
X025857Y009026D01*
X025863Y009056D02*
X026570Y009056D01*
X026570Y008898D02*
X025831Y008898D01*
X025800Y008739D02*
X026570Y008739D01*
X026570Y008581D02*
X025768Y008581D01*
X025736Y008422D02*
X026570Y008422D01*
X026570Y008264D02*
X025705Y008264D01*
X025699Y008233D02*
X025699Y000660D01*
X025223Y000660D02*
X025223Y002677D01*
X025263Y002716D02*
X026570Y002716D01*
X026570Y002558D02*
X025104Y002558D01*
X025065Y002538D02*
X025065Y000660D01*
X024906Y000660D02*
X024906Y002473D01*
X024748Y002440D02*
X024748Y000660D01*
X024589Y000660D02*
X024589Y002440D01*
X024431Y002482D02*
X024431Y000660D01*
X024272Y000660D02*
X024272Y002548D01*
X024256Y002558D02*
X014000Y002558D01*
X014000Y002716D02*
X024097Y002716D01*
X024114Y002700D02*
X024114Y000660D01*
X023955Y000660D02*
X023955Y002997D01*
X023940Y003033D02*
X024053Y002761D01*
X023940Y003192D02*
X014000Y003192D01*
X014000Y003350D02*
X023949Y003350D01*
X023955Y003363D02*
X023955Y003778D01*
X023887Y003826D02*
X021973Y003826D01*
X022053Y003860D02*
X022053Y000660D01*
X021895Y000660D02*
X021895Y003773D01*
X021736Y003722D02*
X021736Y000660D01*
X021578Y000660D02*
X021578Y003727D01*
X021419Y003794D02*
X021419Y000660D01*
X021261Y000660D02*
X021261Y003860D01*
X021387Y003826D02*
X018473Y003826D01*
X018408Y003779D02*
X018408Y000660D01*
X018566Y000660D02*
X018566Y003860D01*
X018725Y003860D02*
X018725Y000660D01*
X018883Y000660D02*
X018883Y003860D01*
X019042Y003860D02*
X019042Y000660D01*
X019200Y000660D02*
X019200Y003860D01*
X019359Y003860D02*
X019359Y000660D01*
X019517Y000660D02*
X019517Y003860D01*
X019676Y003860D02*
X019676Y000660D01*
X019834Y000660D02*
X019834Y003860D01*
X019993Y003860D02*
X019993Y000660D01*
X020151Y000660D02*
X020151Y003860D01*
X020310Y003860D02*
X020310Y000660D01*
X020468Y000660D02*
X020468Y003860D01*
X020627Y003860D02*
X020627Y000660D01*
X020785Y000660D02*
X020785Y003860D01*
X020944Y003860D02*
X020944Y000660D01*
X021102Y000660D02*
X021102Y003860D01*
X021102Y004500D02*
X021102Y007222D01*
X021261Y007222D02*
X021261Y004500D01*
X021419Y004566D02*
X021419Y007283D01*
X021460Y007313D02*
X024900Y007313D01*
X024906Y007307D02*
X024906Y003887D01*
X025055Y003826D02*
X026570Y003826D01*
X026570Y003984D02*
X024594Y003984D01*
X024589Y003971D02*
X024589Y003920D01*
X024748Y003920D02*
X024748Y007528D01*
X024771Y007471D02*
X021589Y007471D01*
X021578Y007443D02*
X021578Y004633D01*
X021541Y004618D02*
X018319Y004618D01*
X018249Y004638D02*
X018249Y007280D01*
X018091Y007280D02*
X018091Y004638D01*
X018408Y004581D02*
X018408Y007280D01*
X018566Y007280D02*
X018566Y004500D01*
X018725Y004500D02*
X018725Y007280D01*
X018883Y007280D02*
X018883Y004500D01*
X019042Y004500D02*
X019042Y007280D01*
X019200Y007280D02*
X019200Y004500D01*
X019359Y004500D02*
X019359Y007280D01*
X019517Y007280D02*
X019517Y004500D01*
X019676Y004500D02*
X019676Y007280D01*
X019834Y007280D02*
X019834Y004500D01*
X019993Y004500D02*
X019993Y007280D01*
X020151Y007280D02*
X020151Y004500D01*
X020310Y004500D02*
X020310Y007280D01*
X020468Y007280D02*
X020468Y004500D01*
X020627Y004500D02*
X020627Y007280D01*
X020785Y007280D02*
X020785Y004500D01*
X020944Y004500D02*
X020944Y007280D01*
X021638Y007630D02*
X024722Y007630D01*
X024729Y007788D02*
X021631Y007788D01*
X023797Y004500D02*
X023797Y014132D01*
X025191Y013177D02*
X026570Y013177D01*
X026570Y013019D02*
X026489Y013019D01*
X026491Y013016D02*
X026491Y031196D01*
X026570Y031088D02*
X022022Y031088D01*
X022053Y031056D02*
X022053Y031196D01*
X021895Y031196D02*
X021895Y031165D01*
X022212Y031196D02*
X022212Y024500D01*
X022210Y024589D02*
X023396Y024589D01*
X023321Y024500D02*
X023321Y031196D01*
X023163Y031196D02*
X023163Y024500D01*
X023004Y024500D02*
X023004Y031196D01*
X022846Y031196D02*
X022846Y024500D01*
X022687Y024500D02*
X022687Y031196D01*
X022529Y031196D02*
X022529Y024500D01*
X022370Y024500D02*
X022370Y031196D01*
X022151Y030929D02*
X026570Y030929D01*
X026570Y030771D02*
X022210Y030771D01*
X022210Y030612D02*
X026570Y030612D01*
X026570Y030454D02*
X022160Y030454D01*
X022053Y030304D02*
X022053Y030056D01*
X022130Y029978D02*
X025002Y029978D01*
X025065Y030111D02*
X025065Y031196D01*
X025223Y031196D02*
X025223Y030270D01*
X025249Y030295D02*
X022045Y030295D01*
X021963Y030137D02*
X025090Y030137D01*
X024940Y029820D02*
X022196Y029820D01*
X022210Y029661D02*
X024940Y029661D01*
X024953Y029503D02*
X022180Y029503D01*
X022094Y029344D02*
X025018Y029344D01*
X025065Y029249D02*
X025065Y026470D01*
X024906Y026470D02*
X024906Y031196D01*
X024748Y031196D02*
X024748Y026470D01*
X024589Y026470D02*
X024589Y031196D01*
X024431Y031196D02*
X024431Y026470D01*
X024272Y026470D02*
X024272Y031196D01*
X024114Y031196D02*
X024114Y026404D01*
X024019Y026333D02*
X022082Y026333D01*
X022053Y026304D02*
X022053Y026056D01*
X022094Y026016D02*
X023840Y026016D01*
X023840Y025857D02*
X022180Y025857D01*
X022210Y025699D02*
X023891Y025699D01*
X023955Y025591D02*
X023955Y025269D01*
X023917Y025223D02*
X021962Y025223D01*
X021895Y025195D02*
X021895Y025165D01*
X022045Y025065D02*
X023851Y025065D01*
X023840Y024906D02*
X022160Y024906D01*
X022210Y024748D02*
X023600Y024748D01*
X023638Y024767D02*
X023638Y031196D01*
X023480Y031196D02*
X023480Y024687D01*
X023797Y024846D02*
X023797Y031196D01*
X023955Y031196D02*
X023955Y026269D01*
X023897Y026174D02*
X021872Y026174D01*
X021895Y026165D02*
X021895Y026195D01*
X022175Y026491D02*
X026570Y026491D01*
X026570Y026333D02*
X025341Y026333D01*
X025382Y026292D02*
X025382Y029003D01*
X025323Y029027D02*
X022082Y029027D01*
X022053Y029056D02*
X022053Y029304D01*
X021895Y029195D02*
X021895Y029165D01*
X021871Y029186D02*
X025128Y029186D01*
X025223Y029090D02*
X025223Y026414D01*
X025463Y026174D02*
X026570Y026174D01*
X026570Y026016D02*
X025520Y026016D01*
X025520Y025857D02*
X026570Y025857D01*
X026570Y025699D02*
X025469Y025699D01*
X025382Y025568D02*
X025382Y025292D01*
X025443Y025223D02*
X026570Y025223D01*
X026570Y025065D02*
X025509Y025065D01*
X025520Y024906D02*
X026570Y024906D01*
X026570Y024748D02*
X025489Y024748D01*
X025223Y024446D02*
X025223Y024414D01*
X025292Y025382D02*
X026570Y025382D01*
X026570Y025540D02*
X025354Y025540D01*
X025223Y025446D02*
X025223Y025414D01*
X024114Y025404D02*
X024114Y025456D01*
X024068Y025382D02*
X022130Y025382D01*
X022053Y025304D02*
X022053Y025056D01*
X022196Y025540D02*
X024006Y025540D01*
X022210Y026650D02*
X026570Y026650D01*
X026570Y026808D02*
X022201Y026808D01*
X022135Y026967D02*
X026570Y026967D01*
X026570Y027125D02*
X021984Y027125D01*
X022053Y027056D02*
X022053Y027304D01*
X022033Y027284D02*
X026570Y027284D01*
X026570Y027442D02*
X022155Y027442D01*
X022210Y027601D02*
X026570Y027601D01*
X026570Y027759D02*
X022210Y027759D01*
X022155Y027918D02*
X026570Y027918D01*
X026570Y028076D02*
X022033Y028076D01*
X022053Y028056D02*
X022053Y028304D01*
X021984Y028235D02*
X026570Y028235D01*
X026570Y028393D02*
X022135Y028393D01*
X022200Y028552D02*
X026570Y028552D01*
X026570Y028710D02*
X022210Y028710D01*
X022176Y028869D02*
X026570Y028869D01*
X026570Y029027D02*
X026037Y029027D01*
X026016Y029018D02*
X026016Y013107D01*
X026174Y013138D02*
X026174Y029128D01*
X026232Y029186D02*
X026570Y029186D01*
X026570Y029344D02*
X026342Y029344D01*
X026333Y029322D02*
X026333Y013112D01*
X025759Y012860D02*
X025490Y012860D01*
X025520Y012702D02*
X025722Y012702D01*
X025741Y012543D02*
X025508Y012543D01*
X025681Y012226D02*
X025290Y012226D01*
X025650Y012068D02*
X012856Y012068D01*
X012860Y012064D02*
X012860Y014780D01*
X013019Y014780D02*
X013019Y011791D01*
X013020Y011751D02*
X025586Y011751D01*
X025618Y011909D02*
X012970Y011909D01*
X013020Y011592D02*
X025554Y011592D01*
X025540Y011520D02*
X025540Y028940D01*
X026407Y029503D02*
X026570Y029503D01*
X026570Y029661D02*
X026420Y029661D01*
X026420Y029820D02*
X026570Y029820D01*
X026570Y029978D02*
X026358Y029978D01*
X026333Y030038D02*
X026333Y031196D01*
X026174Y031196D02*
X026174Y030232D01*
X026111Y030295D02*
X026570Y030295D01*
X026570Y030137D02*
X026270Y030137D01*
X026016Y030342D02*
X026016Y031196D01*
X025857Y031196D02*
X025857Y030408D01*
X025699Y030420D02*
X025699Y031196D01*
X025540Y031196D02*
X025540Y030420D01*
X025382Y030357D02*
X025382Y031196D01*
X021895Y030195D02*
X021895Y030165D01*
X021502Y030180D02*
X021380Y030129D01*
X021231Y029980D01*
X021180Y029858D01*
X021129Y029980D01*
X020980Y030129D01*
X020785Y030210D01*
X020785Y031196D01*
X020627Y031196D02*
X020627Y030210D01*
X020575Y030210D02*
X020380Y030129D01*
X020231Y029980D01*
X020150Y029785D01*
X020150Y029575D01*
X020231Y029380D01*
X020380Y029231D01*
X020575Y029150D01*
X020785Y029150D01*
X020785Y028210D01*
X020575Y028210D01*
X020380Y028129D01*
X020231Y027980D01*
X020150Y027785D01*
X020150Y027575D01*
X020231Y027380D01*
X020380Y027231D01*
X020502Y027180D01*
X020380Y027129D01*
X020231Y026980D01*
X020150Y026785D01*
X020150Y026575D01*
X020231Y026380D01*
X020380Y026231D01*
X020502Y026180D01*
X020380Y026129D01*
X020231Y025980D01*
X020150Y025785D01*
X020150Y025575D01*
X020231Y025380D01*
X020380Y025231D01*
X020575Y025150D01*
X020785Y025150D01*
X020785Y024500D01*
X020627Y024500D02*
X020627Y025150D01*
X020785Y025150D02*
X020980Y025231D01*
X021129Y025380D01*
X021180Y025502D01*
X021231Y025380D01*
X021380Y025231D01*
X021502Y025180D01*
X021380Y025129D01*
X021231Y024980D01*
X021150Y024785D01*
X021150Y024575D01*
X021181Y024500D01*
X020179Y024500D01*
X020210Y024575D01*
X020210Y024785D01*
X020129Y024980D01*
X019980Y025129D01*
X019785Y025210D01*
X019575Y025210D01*
X019380Y025129D01*
X019231Y024980D01*
X019180Y024858D01*
X019129Y024980D01*
X018980Y025129D01*
X018785Y025210D01*
X018575Y025210D01*
X018380Y025129D01*
X018231Y024980D01*
X018150Y024785D01*
X018150Y024575D01*
X018181Y024500D01*
X016179Y024500D01*
X016210Y024575D01*
X016210Y024785D01*
X016129Y024980D01*
X015980Y025129D01*
X015858Y025180D01*
X015980Y025231D01*
X016129Y025380D01*
X016210Y025575D01*
X016210Y025785D01*
X016129Y025980D01*
X015980Y026129D01*
X015858Y026180D01*
X015980Y026231D01*
X016129Y026380D01*
X016210Y026575D01*
X016210Y026785D01*
X016129Y026980D01*
X015980Y027129D01*
X015858Y027180D01*
X015980Y027231D01*
X016129Y027380D01*
X016210Y027575D01*
X016210Y027785D01*
X016129Y027980D01*
X015980Y028129D01*
X015858Y028180D01*
X015980Y028231D01*
X016129Y028380D01*
X016210Y028575D01*
X016210Y028785D01*
X016129Y028980D01*
X015980Y029129D01*
X015858Y029180D01*
X015980Y029231D01*
X016129Y029380D01*
X016210Y029575D01*
X016210Y029785D01*
X016129Y029980D01*
X015980Y030129D01*
X015785Y030210D01*
X015575Y030210D01*
X015380Y030129D01*
X015231Y029980D01*
X015150Y029785D01*
X015150Y029575D01*
X015231Y029380D01*
X015380Y029231D01*
X015502Y029180D01*
X015380Y029129D01*
X015231Y028980D01*
X015150Y028785D01*
X015150Y028575D01*
X015231Y028380D01*
X015380Y028231D01*
X015502Y028180D01*
X015380Y028129D01*
X015231Y027980D01*
X015150Y027785D01*
X015150Y027575D01*
X015231Y027380D01*
X015380Y027231D01*
X015502Y027180D01*
X015380Y027129D01*
X015250Y027000D01*
X014000Y027000D01*
X014000Y030744D01*
X013951Y030861D01*
X013861Y030951D01*
X013744Y031000D01*
X011116Y031000D01*
X010999Y030951D01*
X010909Y030861D01*
X010860Y030744D01*
X010860Y030000D01*
X010587Y030000D01*
X010600Y030013D01*
X010637Y030101D01*
X010637Y030590D01*
X010600Y030678D01*
X010598Y030680D01*
X010600Y030682D01*
X010637Y030770D01*
X010637Y031196D01*
X021541Y031196D01*
X021380Y031129D01*
X021231Y030980D01*
X021150Y030785D01*
X021150Y030575D01*
X021231Y030380D01*
X021380Y030231D01*
X021502Y030180D01*
X021419Y030146D02*
X021419Y030214D01*
X021397Y030137D02*
X020963Y030137D01*
X020944Y030145D02*
X020944Y031196D01*
X021102Y031196D02*
X021102Y030007D01*
X021130Y029978D02*
X021230Y029978D01*
X021261Y030010D02*
X021261Y030350D01*
X021315Y030295D02*
X014000Y030295D01*
X014000Y030137D02*
X015397Y030137D01*
X015396Y030136D02*
X015396Y031196D01*
X015238Y031196D02*
X015238Y029987D01*
X015230Y029978D02*
X014000Y029978D01*
X014000Y029820D02*
X015164Y029820D01*
X015150Y029661D02*
X014000Y029661D01*
X014000Y029503D02*
X015180Y029503D01*
X015238Y029373D02*
X015238Y028987D01*
X015278Y029027D02*
X014000Y029027D01*
X014000Y028869D02*
X015184Y028869D01*
X015150Y028710D02*
X014000Y028710D01*
X014000Y028552D02*
X015160Y028552D01*
X015225Y028393D02*
X014000Y028393D01*
X014000Y028235D02*
X015376Y028235D01*
X015396Y028224D02*
X015396Y028136D01*
X015327Y028076D02*
X014000Y028076D01*
X014000Y027918D02*
X015205Y027918D01*
X015238Y027987D02*
X015238Y028373D01*
X015150Y027759D02*
X014000Y027759D01*
X014000Y027601D02*
X015150Y027601D01*
X015205Y027442D02*
X014000Y027442D01*
X014000Y027284D02*
X015327Y027284D01*
X015396Y027224D02*
X015396Y027136D01*
X015376Y027125D02*
X014000Y027125D01*
X014128Y027000D02*
X014128Y031196D01*
X013970Y031196D02*
X013970Y030817D01*
X013989Y030771D02*
X021150Y030771D01*
X021150Y030612D02*
X014000Y030612D01*
X014000Y030454D02*
X021200Y030454D01*
X021209Y030929D02*
X013883Y030929D01*
X013811Y030972D02*
X013811Y031196D01*
X013653Y031196D02*
X013653Y031000D01*
X013494Y031000D02*
X013494Y031196D01*
X013336Y031196D02*
X013336Y031000D01*
X013177Y031000D02*
X013177Y031196D01*
X013019Y031196D02*
X013019Y031000D01*
X012860Y031000D02*
X012860Y031196D01*
X012702Y031196D02*
X012702Y031000D01*
X012543Y031000D02*
X012543Y031196D01*
X012385Y031196D02*
X012385Y031000D01*
X012226Y031000D02*
X012226Y031196D01*
X012068Y031196D02*
X012068Y031000D01*
X011909Y031000D02*
X011909Y031196D01*
X011751Y031196D02*
X011751Y031000D01*
X011592Y031000D02*
X011592Y031196D01*
X011434Y031196D02*
X011434Y031000D01*
X011275Y031000D02*
X011275Y031196D01*
X011117Y031196D02*
X011117Y031000D01*
X010976Y030929D02*
X010637Y030929D01*
X010637Y030771D02*
X010871Y030771D01*
X010860Y030612D02*
X010627Y030612D01*
X010637Y030454D02*
X010860Y030454D01*
X010860Y030295D02*
X010637Y030295D01*
X010637Y030137D02*
X010860Y030137D01*
X010800Y030000D02*
X010800Y031196D01*
X010958Y031196D02*
X010958Y030911D01*
X011180Y030680D02*
X013680Y030680D01*
X013680Y026680D01*
X015680Y026680D01*
X015872Y027174D02*
X015872Y027186D01*
X015984Y027125D02*
X020376Y027125D01*
X020310Y027059D02*
X020310Y027301D01*
X020327Y027284D02*
X016033Y027284D01*
X016030Y027280D02*
X016030Y027080D01*
X016135Y026967D02*
X020225Y026967D01*
X020159Y026808D02*
X016201Y026808D01*
X016189Y026837D02*
X016189Y027523D01*
X016210Y027601D02*
X020150Y027601D01*
X020151Y027572D02*
X020151Y026788D01*
X020150Y026650D02*
X016210Y026650D01*
X016189Y026523D02*
X016189Y025837D01*
X016180Y025857D02*
X020180Y025857D01*
X020151Y025788D02*
X020151Y026572D01*
X020185Y026491D02*
X016175Y026491D01*
X016082Y026333D02*
X020278Y026333D01*
X020310Y026301D02*
X020310Y026059D01*
X020266Y026016D02*
X016094Y026016D01*
X016030Y026080D02*
X016030Y026280D01*
X015872Y026186D02*
X015872Y026174D01*
X020488Y026174D01*
X020468Y026166D02*
X020468Y026194D01*
X020150Y025699D02*
X016210Y025699D01*
X016196Y025540D02*
X020164Y025540D01*
X020151Y025572D02*
X020151Y024928D01*
X020160Y024906D02*
X021200Y024906D01*
X021261Y025010D02*
X021261Y025350D01*
X021230Y025382D02*
X021130Y025382D01*
X021102Y025353D02*
X021102Y024500D01*
X021150Y024589D02*
X020210Y024589D01*
X020310Y024500D02*
X020310Y025301D01*
X020230Y025382D02*
X016130Y025382D01*
X016030Y025280D02*
X016030Y025080D01*
X016045Y025065D02*
X018315Y025065D01*
X018249Y024999D02*
X018249Y031196D01*
X018091Y031196D02*
X018091Y024500D01*
X018150Y024589D02*
X016210Y024589D01*
X016189Y024523D02*
X016189Y024500D01*
X016347Y024500D02*
X016347Y031196D01*
X016189Y031196D02*
X016189Y029837D01*
X016196Y029820D02*
X020164Y029820D01*
X020151Y029788D02*
X020151Y031196D01*
X019993Y031196D02*
X019993Y025117D01*
X020045Y025065D02*
X021315Y025065D01*
X021419Y025146D02*
X021419Y025214D01*
X021398Y025223D02*
X020962Y025223D01*
X020944Y025215D02*
X020944Y024500D01*
X021150Y024748D02*
X020210Y024748D01*
X020468Y024500D02*
X020468Y025194D01*
X020398Y025223D02*
X015962Y025223D01*
X015872Y025186D02*
X015872Y025174D01*
X016160Y024906D02*
X018200Y024906D01*
X018150Y024748D02*
X016210Y024748D01*
X016189Y024837D02*
X016189Y025523D01*
X015680Y025680D02*
X013180Y025680D01*
X013180Y027180D01*
X009180Y027180D01*
X009180Y027345D01*
X008723Y027284D02*
X008660Y027284D01*
X008581Y027230D02*
X008581Y027062D01*
X008653Y027125D02*
X008422Y027125D01*
X008422Y026805D01*
X008423Y026808D02*
X008137Y026808D01*
X008105Y026694D02*
X008105Y026086D01*
X008034Y026016D02*
X005156Y026016D01*
X005156Y026174D02*
X006127Y026174D01*
X006203Y026142D02*
X006203Y024240D01*
X006216Y024272D02*
X003530Y024272D01*
X003519Y024245D02*
X003574Y024377D01*
X004964Y024377D01*
X005052Y024414D01*
X005120Y024481D01*
X005156Y024569D01*
X005156Y026791D01*
X005120Y026879D01*
X005052Y026946D01*
X004964Y026983D01*
X003797Y026983D01*
X003888Y027074D01*
X003970Y027273D01*
X003970Y028087D01*
X003888Y028286D01*
X003736Y028438D01*
X003537Y028520D01*
X003323Y028520D01*
X003124Y028438D01*
X002972Y028286D01*
X002930Y028184D01*
X002888Y028286D01*
X002736Y028438D01*
X002537Y028520D01*
X002323Y028520D01*
X002124Y028438D01*
X001972Y028286D01*
X001930Y028184D01*
X001888Y028286D01*
X001736Y028438D01*
X001537Y028520D01*
X001323Y028520D01*
X001124Y028438D01*
X000972Y028286D01*
X000890Y028087D01*
X000890Y027273D01*
X000972Y027074D01*
X001124Y026922D01*
X001323Y026840D01*
X001537Y026840D01*
X001736Y026922D01*
X001888Y027074D01*
X001930Y027176D01*
X001972Y027074D01*
X002124Y026922D01*
X002265Y026864D01*
X002235Y026791D01*
X002235Y026242D01*
X002060Y026417D01*
X001813Y026519D01*
X001547Y026519D01*
X001300Y026417D01*
X001112Y026229D01*
X001010Y025983D01*
X001010Y025716D01*
X001112Y025470D01*
X001300Y025281D01*
X001547Y025179D01*
X001813Y025179D01*
X002060Y025281D01*
X002235Y025457D01*
X002235Y024871D01*
X002228Y024871D01*
X002060Y025039D01*
X001813Y025141D01*
X001547Y025141D01*
X001300Y025039D01*
X001112Y024851D01*
X001010Y024605D01*
X001010Y024338D01*
X001112Y024092D01*
X001300Y023903D01*
X001547Y023801D01*
X001813Y023801D01*
X002060Y023903D01*
X002228Y024071D01*
X003260Y024071D01*
X003407Y024132D01*
X003519Y024245D01*
X003509Y024234D02*
X003509Y023770D01*
X003350Y023770D02*
X003350Y024109D01*
X003361Y024114D02*
X006151Y024114D01*
X006140Y023955D02*
X002111Y023955D01*
X002082Y023926D02*
X002082Y023646D01*
X002074Y023638D02*
X001786Y023638D01*
X001765Y023659D02*
X001765Y023801D01*
X001607Y023801D02*
X001607Y023741D01*
X001448Y023770D02*
X001448Y023842D01*
X001290Y023914D02*
X001290Y023756D01*
X001131Y023691D02*
X001131Y024073D01*
X001103Y024114D02*
X000660Y024114D01*
X000660Y024272D02*
X001037Y024272D01*
X001010Y024431D02*
X000660Y024431D01*
X000660Y024589D02*
X001010Y024589D01*
X001069Y024748D02*
X000660Y024748D01*
X000660Y024906D02*
X001167Y024906D01*
X001131Y024870D02*
X001131Y025451D01*
X001200Y025382D02*
X000660Y025382D01*
X000660Y025540D02*
X001083Y025540D01*
X001017Y025699D02*
X000660Y025699D01*
X000660Y025857D02*
X001010Y025857D01*
X001024Y026016D02*
X000660Y026016D01*
X000660Y026174D02*
X001089Y026174D01*
X001131Y026248D02*
X001131Y026919D01*
X001080Y026967D02*
X000660Y026967D01*
X000660Y027125D02*
X000951Y027125D01*
X000973Y027074D02*
X000973Y023536D01*
X000949Y023480D02*
X000660Y023480D01*
X000660Y023638D02*
X001074Y023638D01*
X001249Y023955D02*
X000660Y023955D01*
X000660Y023797D02*
X006140Y023797D01*
X006140Y023638D02*
X003786Y023638D01*
X003826Y023598D02*
X003826Y024377D01*
X003984Y024377D02*
X003984Y003954D01*
X004143Y003970D02*
X004143Y024377D01*
X004301Y024377D02*
X004301Y003970D01*
X004777Y003970D02*
X004777Y005140D01*
X004935Y005140D02*
X004935Y003930D01*
X005094Y003830D02*
X005094Y005140D01*
X005252Y005140D02*
X005252Y003750D01*
X005394Y003826D02*
X005098Y003826D01*
X005411Y003863D02*
X005411Y005140D01*
X005953Y005411D02*
X010280Y005411D01*
X010280Y005569D02*
X006019Y005569D01*
X006020Y005728D02*
X010280Y005728D01*
X010280Y005886D02*
X005979Y005886D01*
X005886Y006038D02*
X005886Y006322D01*
X005925Y006362D02*
X010280Y006362D01*
X010280Y006520D02*
X005998Y006520D01*
X006020Y006679D02*
X010280Y006679D01*
X010280Y006837D02*
X005999Y006837D01*
X005928Y006996D02*
X010280Y006996D01*
X010280Y007154D02*
X005747Y007154D01*
X005728Y007162D02*
X005728Y008198D01*
X005827Y008264D02*
X010989Y008264D01*
X010958Y008276D02*
X010958Y008209D01*
X010800Y008219D02*
X010800Y008413D01*
X010791Y008422D02*
X005958Y008422D01*
X005886Y008322D02*
X005886Y007038D01*
X005569Y007220D02*
X005569Y008140D01*
X005411Y008140D02*
X005411Y007220D01*
X005252Y007220D02*
X005252Y008140D01*
X005094Y008140D02*
X005094Y007220D01*
X004935Y007220D02*
X004935Y008140D01*
X004777Y008140D02*
X004777Y007220D01*
X004618Y007156D02*
X004618Y008204D01*
X004533Y008264D02*
X000660Y008264D01*
X000660Y008422D02*
X004402Y008422D01*
X004460Y008337D02*
X004460Y007023D01*
X004432Y006996D02*
X000660Y006996D01*
X000660Y007154D02*
X004613Y007154D01*
X004362Y006520D02*
X003090Y006520D01*
X003156Y006362D02*
X004435Y006362D01*
X004460Y006337D02*
X004460Y006023D01*
X004481Y006045D02*
X003170Y006045D01*
X003170Y006203D02*
X004620Y006203D01*
X004618Y006204D02*
X004618Y006156D01*
X004381Y005886D02*
X003109Y005886D01*
X003033Y005736D02*
X003033Y000660D01*
X002875Y000660D02*
X002875Y005578D01*
X002866Y005569D02*
X004341Y005569D01*
X004340Y005728D02*
X003024Y005728D01*
X002716Y005497D02*
X002716Y000660D01*
X002558Y000660D02*
X002558Y005440D01*
X002399Y005440D02*
X002399Y000660D01*
X002241Y000660D02*
X002241Y005458D01*
X001765Y005852D02*
X001765Y000660D01*
X001607Y000660D02*
X001607Y009551D01*
X001448Y009592D02*
X001448Y000660D01*
X001290Y000660D02*
X001290Y009664D01*
X001264Y009690D02*
X000660Y009690D01*
X000660Y009532D02*
X004357Y009532D01*
X004423Y009373D02*
X000660Y009373D01*
X000660Y009215D02*
X004593Y009215D01*
X004618Y009204D02*
X004618Y009156D01*
X004492Y009056D02*
X000660Y009056D01*
X000660Y008898D02*
X004386Y008898D01*
X004460Y009023D02*
X004460Y009337D01*
X004340Y008739D02*
X000660Y008739D01*
X000660Y008581D02*
X004340Y008581D01*
X004443Y010007D02*
X002316Y010007D01*
X002350Y010166D02*
X004641Y010166D01*
X004618Y010156D02*
X004618Y010204D01*
X004472Y010324D02*
X002350Y010324D01*
X002297Y010483D02*
X004377Y010483D01*
X004340Y010641D02*
X002208Y010641D01*
X002241Y010608D02*
X002241Y011212D01*
X002271Y011275D02*
X004521Y011275D01*
X004460Y011337D02*
X004460Y011023D01*
X004411Y010958D02*
X001883Y010958D01*
X001924Y010975D02*
X001924Y010846D01*
X002035Y010800D02*
X004345Y010800D01*
X004553Y011117D02*
X002145Y011117D01*
X002082Y011054D02*
X002082Y010767D01*
X001765Y010891D02*
X001765Y010929D01*
X001607Y010929D02*
X001607Y010891D01*
X001477Y010958D02*
X000660Y010958D01*
X000660Y010800D02*
X001325Y010800D01*
X001290Y010778D02*
X001290Y011042D01*
X001215Y011117D02*
X000660Y011117D01*
X000660Y011275D02*
X001089Y011275D01*
X001131Y011201D02*
X001131Y010620D01*
X001152Y010641D02*
X000660Y010641D01*
X000660Y010483D02*
X001063Y010483D01*
X001010Y010324D02*
X000660Y010324D01*
X000660Y010166D02*
X001010Y010166D01*
X001044Y010007D02*
X000660Y010007D01*
X000660Y009849D02*
X001109Y009849D01*
X001131Y009823D02*
X001131Y000660D01*
X000973Y000660D02*
X000973Y022324D01*
X000953Y022370D02*
X000660Y022370D01*
X000660Y022212D02*
X001085Y022212D01*
X001131Y022169D02*
X001131Y020498D01*
X001108Y020468D02*
X000660Y020468D01*
X000660Y020310D02*
X001042Y020310D01*
X001010Y020151D02*
X000660Y020151D01*
X000660Y019993D02*
X001010Y019993D01*
X001065Y019834D02*
X000660Y019834D01*
X000660Y019676D02*
X001156Y019676D01*
X001131Y019701D02*
X001131Y019120D01*
X001087Y019042D02*
X000660Y019042D01*
X000660Y019200D02*
X001211Y019200D01*
X001290Y019278D02*
X001290Y019542D01*
X001335Y019517D02*
X000660Y019517D01*
X000660Y019359D02*
X001468Y019359D01*
X001448Y019350D02*
X001448Y019470D01*
X001607Y019429D02*
X001607Y019391D01*
X001765Y019391D02*
X001765Y019429D01*
X001892Y019359D02*
X004369Y019359D01*
X004340Y019200D02*
X002149Y019200D01*
X002082Y019267D02*
X002082Y019554D01*
X002025Y019517D02*
X004453Y019517D01*
X004460Y019523D02*
X004460Y019837D01*
X004462Y019834D02*
X002295Y019834D01*
X002241Y019712D02*
X002241Y019108D01*
X002273Y019042D02*
X004353Y019042D01*
X004618Y019656D02*
X004618Y019704D01*
X004665Y019676D02*
X002204Y019676D01*
X001924Y019475D02*
X001924Y019346D01*
X002350Y019993D02*
X004373Y019993D01*
X004340Y020151D02*
X002350Y020151D01*
X002318Y020310D02*
X004349Y020310D01*
X004777Y020720D02*
X004777Y024377D01*
X004935Y024377D02*
X004935Y020720D01*
X005094Y020720D02*
X005094Y024455D01*
X005069Y024431D02*
X006367Y024431D01*
X006362Y024425D02*
X006362Y026141D01*
X006520Y026141D02*
X006520Y024498D01*
X006679Y024520D02*
X006679Y026141D01*
X006837Y026141D02*
X006837Y024499D01*
X006993Y024431D02*
X007367Y024431D01*
X007313Y024376D02*
X007313Y026629D01*
X007292Y026650D02*
X007125Y026650D01*
X007154Y026695D02*
X007154Y024247D01*
X007144Y024272D02*
X007216Y024272D01*
X006996Y024428D02*
X006996Y026167D01*
X007013Y026174D02*
X008271Y026174D01*
X008264Y026171D02*
X008264Y027019D01*
X008185Y026967D02*
X008489Y026967D01*
X008413Y026650D02*
X008068Y026650D01*
X007947Y026579D02*
X007947Y025864D01*
X007944Y025857D02*
X005156Y025857D01*
X005156Y025699D02*
X007913Y025699D01*
X007928Y025540D02*
X005156Y025540D01*
X005156Y025382D02*
X007997Y025382D01*
X007947Y025496D02*
X007947Y024454D01*
X007993Y024431D02*
X008367Y024431D01*
X008422Y024458D02*
X008422Y025163D01*
X008581Y025183D02*
X008581Y024520D01*
X008739Y024520D02*
X008739Y025258D01*
X008678Y025223D02*
X009182Y025223D01*
X009215Y025209D02*
X009215Y024267D01*
X009216Y024272D02*
X009144Y024272D01*
X009056Y024368D02*
X009056Y025323D01*
X008997Y025382D02*
X008863Y025382D01*
X008898Y025457D02*
X008898Y024474D01*
X008993Y024431D02*
X009367Y024431D01*
X009373Y024437D02*
X009373Y025163D01*
X009532Y025163D02*
X009532Y024503D01*
X009690Y024520D02*
X009690Y025228D01*
X009678Y025223D02*
X010182Y025223D01*
X010166Y025230D02*
X010166Y024219D01*
X010144Y024272D02*
X010216Y024272D01*
X010324Y024388D02*
X010324Y025164D01*
X010483Y025163D02*
X010483Y024483D01*
X010367Y024431D02*
X009993Y024431D01*
X010007Y024417D02*
X010007Y025372D01*
X009997Y025382D02*
X009863Y025382D01*
X009849Y025367D02*
X009849Y024495D01*
X010621Y024589D02*
X005156Y024589D01*
X005156Y024748D02*
X010610Y024748D01*
X010610Y024906D02*
X005156Y024906D01*
X005156Y025065D02*
X010610Y025065D01*
X010930Y024680D02*
X011680Y024680D01*
X014680Y024680D01*
X014680Y024180D01*
X014174Y023163D02*
X015460Y023163D01*
X015396Y023136D02*
X015396Y023224D01*
X015255Y023004D02*
X014068Y023004D01*
X014128Y023064D02*
X014128Y022000D01*
X013970Y022000D02*
X013970Y022915D01*
X014918Y021895D02*
X015195Y021895D01*
X015238Y021987D02*
X015238Y022373D01*
X015240Y022370D02*
X011000Y022370D01*
X011000Y022212D02*
X015426Y022212D01*
X015396Y022224D02*
X015396Y022136D01*
X015304Y022053D02*
X011000Y022053D01*
X011117Y022000D02*
X011117Y023053D01*
X011068Y023004D02*
X011292Y023004D01*
X011275Y023021D02*
X011275Y022000D01*
X011434Y022000D02*
X011434Y022898D01*
X011559Y022846D02*
X011000Y022846D01*
X011000Y022687D02*
X015150Y022687D01*
X015169Y022529D02*
X011000Y022529D01*
X011174Y023163D02*
X011186Y023163D01*
X011592Y022840D02*
X011592Y022000D01*
X011751Y022000D02*
X011751Y022840D01*
X011801Y022846D02*
X012559Y022846D01*
X012543Y022852D02*
X012543Y022000D01*
X012385Y022000D02*
X012385Y022918D01*
X012292Y023004D02*
X012068Y023004D01*
X012068Y022000D01*
X012226Y022000D02*
X012226Y023070D01*
X012186Y023163D02*
X012174Y023163D01*
X011909Y022890D02*
X011909Y022000D01*
X012702Y022000D02*
X012702Y022840D01*
X011680Y023680D02*
X011680Y024680D01*
X010930Y024680D02*
X010930Y026680D01*
X010448Y026491D02*
X010412Y026491D01*
X010483Y026409D02*
X010483Y026197D01*
X010589Y026174D02*
X010610Y026174D01*
X010546Y026333D02*
X010314Y026333D01*
X010324Y026343D02*
X010324Y026196D01*
X010271Y026174D02*
X010060Y026174D01*
X010007Y026163D02*
X010007Y025988D01*
X010034Y026016D02*
X009826Y026016D01*
X009849Y025993D02*
X009849Y026163D01*
X009800Y026174D02*
X009589Y026174D01*
X009532Y026197D02*
X009532Y026347D01*
X009546Y026333D02*
X009314Y026333D01*
X009373Y026398D02*
X009373Y026197D01*
X009271Y026174D02*
X009060Y026174D01*
X009056Y026172D02*
X009056Y026037D01*
X009034Y026016D02*
X008826Y026016D01*
X008739Y026102D02*
X008739Y026199D01*
X008800Y026174D02*
X008589Y026174D01*
X008581Y026177D02*
X008581Y026298D01*
X008546Y026333D02*
X007125Y026333D01*
X007125Y026491D02*
X008448Y026491D01*
X008422Y026555D02*
X008422Y026197D01*
X008898Y026163D02*
X008898Y025903D01*
X008916Y025857D02*
X008944Y025857D01*
X009215Y026151D02*
X009215Y026238D01*
X009412Y026491D02*
X009448Y026491D01*
X009690Y026220D02*
X009690Y026132D01*
X009916Y025857D02*
X009944Y025857D01*
X010166Y026130D02*
X010166Y026218D01*
X010166Y027500D02*
X010166Y029360D01*
X010116Y029360D02*
X011244Y029360D01*
X011328Y029395D01*
X011310Y029327D01*
X011310Y029033D01*
X011386Y028748D01*
X011534Y028492D01*
X011742Y028284D01*
X011998Y028136D01*
X012283Y028060D01*
X012577Y028060D01*
X012862Y028136D01*
X013118Y028284D01*
X013326Y028492D01*
X013360Y028551D01*
X013360Y027452D01*
X013244Y027500D01*
X009637Y027500D01*
X009637Y027590D01*
X009600Y027678D01*
X009598Y027680D01*
X009600Y027682D01*
X009637Y027770D01*
X009637Y028259D01*
X009600Y028347D01*
X009532Y028415D01*
X009444Y028451D01*
X008916Y028451D01*
X008828Y028415D01*
X008760Y028347D01*
X008723Y028259D01*
X008723Y028095D01*
X007758Y027451D01*
X007416Y027451D01*
X007328Y027415D01*
X007260Y027347D01*
X007255Y027335D01*
X006506Y027335D01*
X006388Y027286D01*
X006298Y027196D01*
X006250Y027078D01*
X006250Y027014D01*
X006207Y027014D01*
X006119Y026978D01*
X006051Y026910D01*
X006015Y026822D01*
X006015Y026333D01*
X006051Y026245D01*
X006015Y026333D02*
X005156Y026333D01*
X005156Y026491D02*
X006015Y026491D01*
X006015Y026650D02*
X005156Y026650D01*
X005149Y026808D02*
X006015Y026808D01*
X006045Y026894D02*
X006045Y030511D01*
X006051Y030495D02*
X006119Y030427D01*
X006207Y030391D01*
X006932Y030391D01*
X007021Y030427D01*
X007088Y030495D01*
X007125Y030583D01*
X007125Y030695D01*
X008755Y030695D01*
X008760Y030682D01*
X008828Y030614D01*
X008916Y030578D01*
X009444Y030578D01*
X009532Y030614D01*
X009532Y028415D01*
X009554Y028393D02*
X011633Y028393D01*
X011592Y028434D02*
X011592Y027500D01*
X011434Y027500D02*
X011434Y028666D01*
X011408Y028710D02*
X008952Y028710D01*
X008974Y028748D02*
X009050Y029033D01*
X009050Y029327D01*
X008974Y029612D01*
X008826Y029868D01*
X008618Y030076D01*
X008362Y030224D01*
X008077Y030300D01*
X007783Y030300D01*
X007498Y030224D01*
X007242Y030076D01*
X007034Y029868D01*
X006886Y029612D01*
X006810Y029327D01*
X006810Y029033D01*
X006886Y028748D01*
X007034Y028492D01*
X007242Y028284D01*
X007498Y028136D01*
X007783Y028060D01*
X008077Y028060D01*
X008362Y028136D01*
X008618Y028284D01*
X008826Y028492D01*
X008974Y028748D01*
X009006Y028869D02*
X011354Y028869D01*
X011311Y029027D02*
X009049Y029027D01*
X009050Y029186D02*
X011310Y029186D01*
X011314Y029344D02*
X009046Y029344D01*
X009003Y029503D02*
X009907Y029503D01*
X009909Y029499D02*
X009999Y029409D01*
X010116Y029360D01*
X010007Y029405D02*
X010007Y027500D01*
X009849Y027500D02*
X009849Y029936D01*
X009860Y029932D02*
X009828Y029945D01*
X009760Y030013D01*
X009723Y030101D01*
X009723Y030590D01*
X009760Y030678D01*
X009762Y030680D01*
X009760Y030682D01*
X009755Y030695D01*
X009605Y030695D01*
X009600Y030682D01*
X009532Y030614D01*
X009527Y030612D02*
X009733Y030612D01*
X009690Y030695D02*
X009690Y027500D01*
X009632Y027601D02*
X013360Y027601D01*
X013336Y027462D02*
X013336Y028508D01*
X013360Y028393D02*
X013227Y028393D01*
X013177Y028343D02*
X013177Y027500D01*
X013019Y027500D02*
X013019Y028227D01*
X013032Y028235D02*
X013360Y028235D01*
X013360Y028076D02*
X012637Y028076D01*
X012702Y028093D02*
X012702Y027500D01*
X012860Y027500D02*
X012860Y028136D01*
X013360Y027918D02*
X009637Y027918D01*
X009637Y028076D02*
X012223Y028076D01*
X012226Y028075D02*
X012226Y027500D01*
X012068Y027500D02*
X012068Y028118D01*
X011909Y028188D02*
X011909Y027500D01*
X011751Y027500D02*
X011751Y028279D01*
X011828Y028235D02*
X009637Y028235D01*
X009373Y028451D02*
X009373Y030578D01*
X009215Y030578D02*
X009215Y028451D01*
X009056Y028451D02*
X009056Y030578D01*
X008898Y030585D02*
X008898Y029744D01*
X008854Y029820D02*
X009860Y029820D01*
X009860Y029932D02*
X009860Y029616D01*
X009909Y029499D01*
X009860Y029661D02*
X008946Y029661D01*
X008739Y029955D02*
X008739Y030695D01*
X008833Y030612D02*
X007125Y030612D01*
X007154Y030695D02*
X007154Y029988D01*
X007144Y029978D02*
X005156Y029978D01*
X005156Y029820D02*
X007006Y029820D01*
X006996Y029801D02*
X006996Y030417D01*
X007047Y030454D02*
X009723Y030454D01*
X009723Y030295D02*
X008096Y030295D01*
X008105Y030293D02*
X008105Y030695D01*
X007947Y030695D02*
X007947Y030300D01*
X007788Y030300D02*
X007788Y030695D01*
X007630Y030695D02*
X007630Y030259D01*
X007764Y030295D02*
X005156Y030295D01*
X005156Y030137D02*
X007347Y030137D01*
X007313Y030117D02*
X007313Y030695D01*
X007471Y030695D02*
X007471Y030208D01*
X006914Y029661D02*
X005156Y029661D01*
X005156Y029503D02*
X006857Y029503D01*
X006837Y029428D02*
X006837Y030391D01*
X006679Y030391D02*
X006679Y027335D01*
X006837Y027335D02*
X006837Y028932D01*
X006854Y028869D02*
X005156Y028869D01*
X005156Y028819D02*
X005156Y031041D01*
X005120Y031129D01*
X005053Y031196D01*
X006087Y031196D01*
X006051Y031160D01*
X006015Y031072D01*
X006015Y030583D01*
X006051Y030495D01*
X006093Y030454D02*
X005156Y030454D01*
X005156Y030612D02*
X006015Y030612D01*
X006015Y030771D02*
X005156Y030771D01*
X005156Y030929D02*
X006015Y030929D01*
X006021Y031088D02*
X005137Y031088D01*
X005094Y031155D02*
X005094Y031196D01*
X005252Y031196D02*
X005252Y022843D01*
X005253Y022846D02*
X003970Y022846D01*
X003970Y023004D02*
X005357Y023004D01*
X005411Y023058D02*
X005411Y031196D01*
X005569Y031196D02*
X005569Y023130D01*
X005728Y023138D02*
X005728Y031196D01*
X005886Y031196D02*
X005886Y023090D01*
X006186Y023163D02*
X003970Y023163D01*
X003970Y023321D02*
X006140Y023321D01*
X006140Y023480D02*
X003911Y023480D01*
X003667Y023716D02*
X003667Y024377D01*
X003192Y024071D02*
X003192Y023716D01*
X003074Y023638D02*
X002786Y023638D01*
X002716Y023696D02*
X002716Y024071D01*
X002558Y024071D02*
X002558Y023762D01*
X002399Y023770D02*
X002399Y024071D01*
X002241Y024071D02*
X002241Y023736D01*
X001924Y023847D02*
X001924Y023450D01*
X001911Y023480D02*
X001949Y023480D01*
X002875Y023549D02*
X002875Y024071D01*
X003033Y024071D02*
X003033Y023597D01*
X002949Y023480D02*
X002911Y023480D01*
X002775Y022212D02*
X003085Y022212D01*
X003192Y022144D02*
X003192Y000660D01*
X003350Y000660D02*
X003350Y022090D01*
X003509Y022090D02*
X003509Y000660D01*
X003667Y000660D02*
X003667Y001137D01*
X003669Y001131D02*
X000660Y001131D01*
X000660Y000973D02*
X003824Y000973D01*
X003824Y000972D02*
X004023Y000890D01*
X004837Y000890D01*
X005036Y000972D01*
X005188Y001124D01*
X005270Y001323D01*
X005270Y001537D01*
X005188Y001736D01*
X005036Y001888D01*
X004837Y001970D01*
X004023Y001970D01*
X003824Y001888D01*
X003672Y001736D01*
X003590Y001537D01*
X003590Y001323D01*
X003672Y001124D01*
X003824Y000972D01*
X003826Y000972D02*
X003826Y000660D01*
X003984Y000660D02*
X003984Y000906D01*
X004143Y000890D02*
X004143Y000660D01*
X004301Y000660D02*
X004301Y000890D01*
X004460Y000890D02*
X004460Y000660D01*
X004618Y000660D02*
X004618Y000890D01*
X004777Y000890D02*
X004777Y000660D01*
X004935Y000660D02*
X004935Y000930D01*
X005036Y000973D02*
X005360Y000973D01*
X005360Y001131D02*
X005191Y001131D01*
X005094Y001030D02*
X005094Y000660D01*
X005252Y000660D02*
X005252Y001279D01*
X005256Y001290D02*
X005360Y001290D01*
X005360Y001448D02*
X005270Y001448D01*
X005252Y001581D02*
X005252Y003110D01*
X005360Y003033D02*
X005097Y003033D01*
X005094Y003030D02*
X005094Y001830D01*
X005159Y001765D02*
X005360Y001765D01*
X005360Y001607D02*
X005241Y001607D01*
X005360Y001924D02*
X004950Y001924D01*
X004935Y001930D02*
X004935Y002930D01*
X004777Y002890D02*
X004777Y001970D01*
X004618Y001970D02*
X004618Y002890D01*
X004460Y002890D02*
X004460Y001970D01*
X004301Y001970D02*
X004301Y002890D01*
X004143Y002890D02*
X004143Y001970D01*
X003984Y001954D02*
X003984Y002906D01*
X003826Y002972D02*
X003826Y001888D01*
X003910Y001924D02*
X000660Y001924D01*
X000660Y002082D02*
X005360Y002082D01*
X005360Y002241D02*
X000660Y002241D01*
X000660Y002399D02*
X005360Y002399D01*
X005360Y002558D02*
X000660Y002558D01*
X000660Y002716D02*
X005360Y002716D01*
X005360Y002875D02*
X000660Y002875D01*
X000660Y003033D02*
X003763Y003033D01*
X003667Y003137D02*
X003667Y001723D01*
X003701Y001765D02*
X000660Y001765D01*
X000660Y001607D02*
X003619Y001607D01*
X003590Y001448D02*
X000660Y001448D01*
X000660Y001290D02*
X003604Y001290D01*
X005360Y000814D02*
X000660Y000814D01*
X000814Y000660D02*
X000814Y031196D01*
X000660Y031196D02*
X001370Y031196D01*
X001300Y031167D01*
X001112Y030979D01*
X001010Y030733D01*
X001010Y030466D01*
X001112Y030220D01*
X001300Y030031D01*
X001547Y029929D01*
X001813Y029929D01*
X002060Y030031D01*
X002235Y030207D01*
X002235Y029621D01*
X002228Y029621D01*
X002060Y029789D01*
X001813Y029891D01*
X001547Y029891D01*
X001300Y029789D01*
X001112Y029601D01*
X001010Y029355D01*
X001010Y029088D01*
X001112Y028842D01*
X001300Y028653D01*
X001547Y028551D01*
X001813Y028551D01*
X002060Y028653D01*
X002228Y028821D01*
X002235Y028821D01*
X002235Y028819D01*
X002272Y028731D01*
X002339Y028664D01*
X002428Y028627D01*
X004964Y028627D01*
X005052Y028664D01*
X005120Y028731D01*
X005156Y028819D01*
X005099Y028710D02*
X006908Y028710D01*
X006996Y028559D02*
X006996Y027335D01*
X007154Y027335D02*
X007154Y028372D01*
X007133Y028393D02*
X003781Y028393D01*
X003826Y028348D02*
X003826Y028627D01*
X003984Y028627D02*
X003984Y026983D01*
X003826Y026983D02*
X003826Y027012D01*
X003909Y027125D02*
X006269Y027125D01*
X006203Y027013D02*
X006203Y030392D01*
X006362Y030391D02*
X006362Y027259D01*
X006386Y027284D02*
X003970Y027284D01*
X003970Y027442D02*
X007393Y027442D01*
X007471Y027451D02*
X007471Y028152D01*
X007328Y028235D02*
X003909Y028235D01*
X003970Y028076D02*
X007723Y028076D01*
X007788Y028060D02*
X007788Y027471D01*
X007630Y027451D02*
X007630Y028101D01*
X007313Y028243D02*
X007313Y027400D01*
X007680Y027015D02*
X006570Y027015D01*
X006570Y026578D01*
X006107Y026967D02*
X005004Y026967D01*
X004935Y026983D02*
X004935Y028627D01*
X004777Y028627D02*
X004777Y026983D01*
X004618Y026983D02*
X004618Y028627D01*
X004460Y028627D02*
X004460Y026983D01*
X004301Y026983D02*
X004301Y028627D01*
X004143Y028627D02*
X004143Y026983D01*
X003970Y027601D02*
X007982Y027601D01*
X007947Y027577D02*
X007947Y028060D01*
X008105Y028067D02*
X008105Y027683D01*
X008220Y027759D02*
X003970Y027759D01*
X003970Y027918D02*
X008457Y027918D01*
X008422Y027894D02*
X008422Y028171D01*
X008532Y028235D02*
X008723Y028235D01*
X008739Y028297D02*
X008739Y028405D01*
X008727Y028393D02*
X008806Y028393D01*
X008898Y028444D02*
X008898Y028616D01*
X008860Y028552D02*
X011500Y028552D01*
X011275Y029373D02*
X011275Y027500D01*
X011117Y027500D02*
X011117Y029360D01*
X010958Y029360D02*
X010958Y027500D01*
X010800Y027500D02*
X010800Y029360D01*
X010641Y029360D02*
X010641Y027500D01*
X010483Y027500D02*
X010483Y029360D01*
X010324Y029360D02*
X010324Y027500D01*
X009632Y027759D02*
X013360Y027759D01*
X012543Y027500D02*
X012543Y028060D01*
X012385Y028060D02*
X012385Y027500D01*
X014000Y029186D02*
X015489Y029186D01*
X015396Y029224D02*
X015396Y029136D01*
X015266Y029344D02*
X014000Y029344D01*
X015555Y030202D02*
X015555Y031196D01*
X015713Y031196D02*
X015713Y030210D01*
X015872Y030174D02*
X015872Y031196D01*
X016030Y031196D02*
X016030Y030080D01*
X015963Y030137D02*
X020397Y030137D01*
X020468Y030166D02*
X020468Y031196D01*
X020310Y031196D02*
X020310Y030059D01*
X020230Y029978D02*
X016130Y029978D01*
X016210Y029661D02*
X020150Y029661D01*
X020151Y029572D02*
X020151Y027788D01*
X020150Y027759D02*
X016210Y027759D01*
X016189Y027837D02*
X016189Y028523D01*
X016200Y028552D02*
X021160Y028552D01*
X021150Y028575D02*
X021231Y028380D01*
X021380Y028231D01*
X021502Y028180D01*
X021380Y028129D01*
X021231Y027980D01*
X021180Y027858D01*
X021129Y027980D01*
X020980Y028129D01*
X020785Y028210D01*
X020627Y028210D02*
X020627Y029150D01*
X020489Y029186D02*
X015871Y029186D01*
X015872Y029186D02*
X015872Y029174D01*
X016030Y029080D02*
X016030Y029280D01*
X016094Y029344D02*
X020266Y029344D01*
X020310Y029301D02*
X020310Y028059D01*
X020327Y028076D02*
X016033Y028076D01*
X016030Y028080D02*
X016030Y028280D01*
X015984Y028235D02*
X021376Y028235D01*
X021419Y028214D02*
X021419Y028146D01*
X021327Y028076D02*
X021033Y028076D01*
X021102Y028007D02*
X021102Y029353D01*
X021094Y029344D02*
X021266Y029344D01*
X021261Y029350D02*
X021261Y029010D01*
X021278Y029027D02*
X016082Y029027D01*
X016176Y028869D02*
X021184Y028869D01*
X021150Y028785D02*
X021231Y028980D01*
X021380Y029129D01*
X021502Y029180D01*
X021380Y029231D01*
X021231Y029380D01*
X021180Y029502D01*
X021129Y029380D01*
X020980Y029231D01*
X020785Y029150D01*
X020871Y029186D02*
X021489Y029186D01*
X021419Y029214D02*
X021419Y029146D01*
X021150Y028785D02*
X021150Y028575D01*
X021150Y028710D02*
X016210Y028710D01*
X016189Y028837D02*
X016189Y029523D01*
X016180Y029503D02*
X020180Y029503D01*
X020468Y029194D02*
X020468Y028166D01*
X020205Y027918D02*
X016155Y027918D01*
X015872Y028174D02*
X015872Y028186D01*
X016135Y028393D02*
X021225Y028393D01*
X021261Y028350D02*
X021261Y028010D01*
X021205Y027918D02*
X021155Y027918D01*
X020944Y028145D02*
X020944Y029215D01*
X020785Y030210D02*
X020575Y030210D01*
X021261Y031010D02*
X021261Y031196D01*
X021338Y031088D02*
X010637Y031088D01*
X010641Y031196D02*
X010641Y030000D01*
X010180Y029680D02*
X011180Y029680D01*
X011180Y030680D01*
X010180Y030345D02*
X010180Y029680D01*
X009795Y029978D02*
X008716Y029978D01*
X008581Y030098D02*
X008581Y030695D01*
X008422Y030695D02*
X008422Y030189D01*
X008513Y030137D02*
X009723Y030137D01*
X010180Y031015D02*
X009180Y031015D01*
X006570Y031015D01*
X006570Y030828D01*
X006520Y030391D02*
X006520Y027335D01*
X007471Y026578D02*
X007471Y024478D01*
X007630Y024520D02*
X007630Y026578D01*
X007788Y026578D02*
X007788Y024520D01*
X008105Y024319D02*
X008105Y025274D01*
X008182Y025223D02*
X005156Y025223D01*
X003696Y024971D02*
X003696Y025680D01*
X002235Y025382D02*
X002160Y025382D01*
X002082Y025304D02*
X002082Y025017D01*
X001999Y025065D02*
X002235Y025065D01*
X002235Y025223D02*
X001919Y025223D01*
X001924Y025225D02*
X001924Y025096D01*
X001765Y025141D02*
X001765Y025179D01*
X001607Y025179D02*
X001607Y025141D01*
X001448Y025100D02*
X001448Y025220D01*
X001441Y025223D02*
X000660Y025223D01*
X000660Y025065D02*
X001361Y025065D01*
X001290Y025028D02*
X001290Y025292D01*
X001216Y026333D02*
X000660Y026333D01*
X000660Y026491D02*
X001479Y026491D01*
X001448Y026478D02*
X001448Y026840D01*
X001290Y026854D02*
X001290Y026406D01*
X001607Y026519D02*
X001607Y026869D01*
X001765Y026951D02*
X001765Y026519D01*
X001881Y026491D02*
X002235Y026491D01*
X002235Y026333D02*
X002144Y026333D01*
X002082Y026395D02*
X002082Y026964D01*
X002080Y026967D02*
X001780Y026967D01*
X001909Y027125D02*
X001951Y027125D01*
X001924Y027160D02*
X001924Y026474D01*
X002235Y026650D02*
X000660Y026650D01*
X000660Y026808D02*
X002242Y026808D01*
X002241Y026803D02*
X002241Y026874D01*
X001924Y028200D02*
X001924Y028597D01*
X001814Y028552D02*
X007000Y028552D01*
X006811Y029027D02*
X005156Y029027D01*
X005156Y029186D02*
X006810Y029186D01*
X006814Y029344D02*
X005156Y029344D01*
X005094Y028705D02*
X005094Y026905D01*
X003667Y028466D02*
X003667Y028627D01*
X003509Y028627D02*
X003509Y028520D01*
X003350Y028520D02*
X003350Y028627D01*
X003192Y028627D02*
X003192Y028466D01*
X003079Y028393D02*
X002781Y028393D01*
X002716Y028446D02*
X002716Y028627D01*
X002558Y028627D02*
X002558Y028512D01*
X002399Y028520D02*
X002399Y028639D01*
X002293Y028710D02*
X002116Y028710D01*
X002082Y028676D02*
X002082Y028396D01*
X002079Y028393D02*
X001781Y028393D01*
X001765Y028409D02*
X001765Y028551D01*
X001607Y028551D02*
X001607Y028491D01*
X001546Y028552D02*
X000660Y028552D01*
X000660Y028710D02*
X001244Y028710D01*
X001290Y028664D02*
X001290Y028506D01*
X001448Y028520D02*
X001448Y028592D01*
X001131Y028441D02*
X001131Y028823D01*
X001101Y028869D02*
X000660Y028869D01*
X000660Y029027D02*
X001035Y029027D01*
X001010Y029186D02*
X000660Y029186D01*
X000660Y029344D02*
X001010Y029344D01*
X001071Y029503D02*
X000660Y029503D01*
X000660Y029661D02*
X001172Y029661D01*
X001131Y029620D02*
X001131Y030201D01*
X001195Y030137D02*
X000660Y030137D01*
X000660Y030295D02*
X001081Y030295D01*
X001015Y030454D02*
X000660Y030454D01*
X000660Y030612D02*
X001010Y030612D01*
X001026Y030771D02*
X000660Y030771D01*
X000660Y030929D02*
X001091Y030929D01*
X001131Y030998D02*
X001131Y031196D01*
X001221Y031088D02*
X000660Y031088D01*
X000973Y031196D02*
X000973Y028286D01*
X000951Y028235D02*
X000660Y028235D01*
X000660Y028393D02*
X001079Y028393D01*
X000890Y028076D02*
X000660Y028076D01*
X000660Y027918D02*
X000890Y027918D01*
X000890Y027759D02*
X000660Y027759D01*
X000660Y027601D02*
X000890Y027601D01*
X000890Y027442D02*
X000660Y027442D01*
X000660Y027284D02*
X000890Y027284D01*
X001909Y028235D02*
X001951Y028235D01*
X002241Y028486D02*
X002241Y028807D01*
X002875Y028627D02*
X002875Y028299D01*
X002909Y028235D02*
X002951Y028235D01*
X003033Y028347D02*
X003033Y028627D01*
X003696Y028971D02*
X003696Y029180D01*
X003696Y029930D01*
X002235Y029978D02*
X001931Y029978D01*
X001924Y029975D02*
X001924Y029846D01*
X001987Y029820D02*
X002235Y029820D01*
X002235Y029661D02*
X002188Y029661D01*
X002082Y029767D02*
X002082Y030054D01*
X002165Y030137D02*
X002235Y030137D01*
X001765Y029929D02*
X001765Y029891D01*
X001607Y029891D02*
X001607Y029929D01*
X001448Y029970D02*
X001448Y029850D01*
X001373Y029820D02*
X000660Y029820D01*
X000660Y029978D02*
X001429Y029978D01*
X001290Y030042D02*
X001290Y029778D01*
X001290Y031156D02*
X001290Y031196D01*
X006045Y031144D02*
X006045Y031196D01*
X008264Y030695D02*
X008264Y030250D01*
X008581Y028262D02*
X008581Y028000D01*
X008695Y028076D02*
X008137Y028076D01*
X008264Y028110D02*
X008264Y027788D01*
X009180Y028015D02*
X007680Y027015D01*
X008264Y025189D02*
X008264Y024327D01*
X008216Y024272D02*
X008144Y024272D01*
X008174Y023163D02*
X008186Y023163D01*
X008105Y023041D02*
X008105Y022500D01*
X007947Y022500D02*
X007947Y022906D01*
X008068Y023004D02*
X008292Y023004D01*
X008264Y023033D02*
X008264Y022500D01*
X008422Y022500D02*
X008422Y022902D01*
X008559Y022846D02*
X007801Y022846D01*
X007788Y022840D02*
X007788Y022500D01*
X007630Y022500D02*
X007630Y022840D01*
X007559Y022846D02*
X006801Y022846D01*
X006837Y022861D02*
X006837Y022500D01*
X006679Y022500D02*
X006679Y022840D01*
X006996Y022932D02*
X006996Y022500D01*
X007154Y022500D02*
X007154Y023113D01*
X007174Y023163D02*
X007186Y023163D01*
X007292Y023004D02*
X007068Y023004D01*
X007313Y022984D02*
X007313Y022500D01*
X007471Y022500D02*
X007471Y022882D01*
X007471Y021860D02*
X007471Y004000D01*
X007313Y004000D02*
X007313Y021860D01*
X007154Y021860D02*
X007154Y004000D01*
X006996Y004000D02*
X006996Y021860D01*
X006837Y021860D02*
X006837Y004000D01*
X006679Y004000D02*
X006679Y021860D01*
X006520Y021860D02*
X006520Y004000D01*
X006362Y004000D02*
X006362Y021860D01*
X006203Y021860D02*
X006203Y004000D01*
X006045Y004000D02*
X006045Y021860D01*
X005680Y022180D02*
X009180Y022180D01*
X009373Y022596D02*
X009373Y022923D01*
X009292Y023004D02*
X009068Y023004D01*
X009056Y022992D02*
X009056Y022624D01*
X009215Y022638D02*
X009215Y023093D01*
X009186Y023163D02*
X009174Y023163D01*
X008898Y022886D02*
X008898Y022545D01*
X008881Y022529D02*
X006113Y022529D01*
X006203Y022500D02*
X006203Y023120D01*
X006138Y022687D02*
X010360Y022687D01*
X010360Y022529D02*
X009479Y022529D01*
X009532Y022476D02*
X009532Y022857D01*
X009559Y022846D02*
X008801Y022846D01*
X008739Y022840D02*
X008739Y022500D01*
X008581Y022500D02*
X008581Y022840D01*
X008581Y021860D02*
X008581Y004000D01*
X008739Y004000D02*
X008739Y021860D01*
X008898Y021815D02*
X008898Y004000D01*
X009056Y004000D02*
X009056Y021736D01*
X000660Y021736D01*
X000660Y021578D02*
X010376Y021578D01*
X010360Y021736D02*
X009304Y021736D01*
X009373Y021764D02*
X009373Y004000D01*
X009215Y004000D02*
X009215Y021722D01*
X009532Y021884D02*
X009532Y004000D01*
X009690Y004000D02*
X009690Y022840D01*
X009801Y022846D02*
X010360Y022846D01*
X010007Y022943D02*
X010007Y004000D01*
X009849Y004000D02*
X009849Y022865D01*
X009597Y022370D02*
X010360Y022370D01*
X010360Y022212D02*
X009638Y022212D01*
X009623Y022053D02*
X010360Y022053D01*
X010360Y021895D02*
X009542Y021895D01*
X008422Y021860D02*
X008422Y004000D01*
X008264Y004000D02*
X008264Y021860D01*
X008105Y021860D02*
X008105Y004000D01*
X007947Y004000D02*
X007947Y021860D01*
X007788Y021860D02*
X007788Y004000D01*
X007630Y004000D02*
X007630Y021860D01*
X006020Y020151D02*
X011340Y020151D01*
X011349Y020310D02*
X006011Y020310D01*
X005987Y019993D02*
X011373Y019993D01*
X011434Y019863D02*
X011434Y011997D01*
X011390Y011909D02*
X005970Y011909D01*
X005886Y012038D02*
X005886Y013822D01*
X005875Y013811D02*
X011780Y013811D01*
X011780Y013653D02*
X005618Y013653D01*
X005569Y013640D02*
X005569Y012220D01*
X005411Y012220D02*
X005411Y013640D01*
X005252Y013640D02*
X005252Y012220D01*
X005094Y012220D02*
X005094Y013640D01*
X004935Y013640D02*
X004935Y012220D01*
X004777Y012220D02*
X004777Y013640D01*
X004742Y013653D02*
X000660Y013653D01*
X000660Y013811D02*
X004485Y013811D01*
X004618Y013704D02*
X004618Y012156D01*
X004390Y011909D02*
X002277Y011909D01*
X002343Y011751D02*
X004340Y011751D01*
X004340Y011592D02*
X002350Y011592D01*
X002337Y011434D02*
X004398Y011434D01*
X004618Y011204D02*
X004618Y011156D01*
X004460Y010337D02*
X004460Y010023D01*
X005728Y011162D02*
X005728Y011198D01*
X005807Y011117D02*
X025459Y011117D01*
X025491Y011275D02*
X012839Y011275D01*
X012860Y011296D02*
X012860Y010080D01*
X012702Y010080D02*
X012702Y011187D01*
X012543Y011140D02*
X012543Y010080D01*
X012385Y010080D02*
X012385Y011140D01*
X012226Y011140D02*
X012226Y010080D01*
X012068Y010080D02*
X012068Y011140D01*
X011909Y011140D02*
X011909Y010080D01*
X011751Y010080D02*
X011751Y011149D01*
X011592Y011215D02*
X011592Y010080D01*
X011434Y010080D02*
X011434Y011363D01*
X011398Y011434D02*
X005962Y011434D01*
X005886Y011322D02*
X005886Y011038D01*
X005949Y010958D02*
X025428Y010958D01*
X025523Y011434D02*
X012962Y011434D01*
X013019Y011569D02*
X013019Y010080D01*
X013019Y009280D02*
X013019Y009080D01*
X013177Y009080D02*
X013177Y009280D01*
X013336Y009280D02*
X013336Y009080D01*
X013494Y009080D02*
X013494Y009280D01*
X013653Y009280D02*
X013653Y009080D01*
X013811Y009080D02*
X013811Y009280D01*
X013970Y009280D02*
X013970Y009080D01*
X014128Y009080D02*
X014128Y009280D01*
X014287Y009280D02*
X014287Y009069D01*
X014317Y009056D02*
X025047Y009056D01*
X025016Y008898D02*
X014523Y008898D01*
X014445Y008981D02*
X014445Y009280D01*
X014580Y008739D02*
X024984Y008739D01*
X024952Y008581D02*
X014580Y008581D01*
X014445Y007280D02*
X014445Y004578D01*
X014287Y004500D02*
X014287Y007280D01*
X014921Y007280D02*
X014921Y004576D01*
X015125Y004301D02*
X017735Y004301D01*
X017722Y004143D02*
X015138Y004143D01*
X014000Y003667D02*
X024120Y003667D01*
X024114Y003660D02*
X024114Y003722D01*
X024015Y003509D02*
X014000Y003509D01*
X013680Y003509D02*
X012000Y003509D01*
X012000Y003494D02*
X012000Y003680D01*
X013680Y003680D01*
X013680Y000660D01*
X005680Y000660D01*
X005680Y003110D01*
X011744Y003110D01*
X011861Y003159D01*
X011951Y003249D01*
X012000Y003366D01*
X012000Y003494D01*
X011993Y003350D02*
X013680Y003350D01*
X013680Y003192D02*
X011894Y003192D01*
X011909Y003206D02*
X011909Y000660D01*
X011751Y000660D02*
X011751Y003113D01*
X011592Y003110D02*
X011592Y000660D01*
X011434Y000660D02*
X011434Y003110D01*
X011275Y003110D02*
X011275Y000660D01*
X011117Y000660D02*
X011117Y001176D01*
X011071Y001131D02*
X013680Y001131D01*
X013680Y000973D02*
X005680Y000973D01*
X005680Y001131D02*
X008289Y001131D01*
X008264Y001156D02*
X008264Y000660D01*
X008422Y000660D02*
X008422Y001043D01*
X008344Y001075D02*
X008562Y000985D01*
X008798Y000985D01*
X009016Y001075D01*
X009182Y001242D01*
X009272Y001460D01*
X009272Y002400D01*
X009182Y002618D01*
X009016Y002785D01*
X008798Y002875D01*
X008562Y002875D01*
X008344Y002785D01*
X008178Y002618D01*
X008088Y002400D01*
X008088Y001460D01*
X008178Y001242D01*
X008344Y001075D01*
X008581Y000985D02*
X008581Y000660D01*
X008739Y000660D02*
X008739Y000985D01*
X008898Y001026D02*
X008898Y000660D01*
X009056Y000660D02*
X009056Y001116D01*
X009071Y001131D02*
X010289Y001131D01*
X010324Y001096D02*
X010324Y000660D01*
X010166Y000660D02*
X010166Y001271D01*
X010158Y001290D02*
X009202Y001290D01*
X009215Y001320D02*
X009215Y000660D01*
X009373Y000660D02*
X009373Y003110D01*
X009215Y003110D02*
X009215Y002540D01*
X009207Y002558D02*
X010153Y002558D01*
X010166Y002589D02*
X010166Y003110D01*
X010324Y003110D02*
X010324Y002764D01*
X010344Y002785D02*
X010178Y002618D01*
X010088Y002400D01*
X010088Y001460D01*
X010178Y001242D01*
X010344Y001075D01*
X010562Y000985D01*
X010798Y000985D01*
X011016Y001075D01*
X011182Y001242D01*
X011272Y001460D01*
X011272Y002400D01*
X011182Y002618D01*
X011016Y002785D01*
X010798Y002875D01*
X010562Y002875D01*
X010344Y002785D01*
X010276Y002716D02*
X009084Y002716D01*
X009056Y002744D02*
X009056Y003110D01*
X008898Y003110D02*
X008898Y002834D01*
X008799Y002875D02*
X010561Y002875D01*
X010641Y002875D02*
X010641Y003110D01*
X010483Y003110D02*
X010483Y002842D01*
X010799Y002875D02*
X013680Y002875D01*
X013680Y003033D02*
X005680Y003033D01*
X005728Y003110D02*
X005728Y000660D01*
X005886Y000660D02*
X005886Y003110D01*
X006045Y003110D02*
X006045Y000660D01*
X006203Y000660D02*
X006203Y003110D01*
X006362Y003110D02*
X006362Y000660D01*
X006520Y000660D02*
X006520Y003110D01*
X006679Y003110D02*
X006679Y000660D01*
X006837Y000660D02*
X006837Y003110D01*
X006996Y003110D02*
X006996Y000660D01*
X007154Y000660D02*
X007154Y003110D01*
X007313Y003110D02*
X007313Y000660D01*
X007471Y000660D02*
X007471Y003110D01*
X007630Y003110D02*
X007630Y000660D01*
X007788Y000660D02*
X007788Y003110D01*
X007947Y003110D02*
X007947Y000660D01*
X008105Y000660D02*
X008105Y001417D01*
X008092Y001448D02*
X005680Y001448D01*
X005680Y001290D02*
X008158Y001290D01*
X008088Y001607D02*
X005680Y001607D01*
X005680Y001765D02*
X008088Y001765D01*
X008088Y001924D02*
X005680Y001924D01*
X005680Y002082D02*
X008088Y002082D01*
X008088Y002241D02*
X005680Y002241D01*
X005680Y002399D02*
X008088Y002399D01*
X008105Y002443D02*
X008105Y003110D01*
X008264Y003110D02*
X008264Y002704D01*
X008276Y002716D02*
X005680Y002716D01*
X005680Y002558D02*
X008153Y002558D01*
X008422Y002817D02*
X008422Y003110D01*
X008581Y003110D02*
X008581Y002875D01*
X008561Y002875D02*
X005680Y002875D01*
X004430Y003430D02*
X011680Y003430D01*
X011680Y004430D01*
X013680Y004430D01*
X013653Y003680D02*
X013653Y000660D01*
X013680Y000814D02*
X005680Y000814D01*
X003644Y003192D02*
X000660Y003192D01*
X000660Y003350D02*
X003590Y003350D01*
X003590Y003509D02*
X000660Y003509D01*
X000660Y003667D02*
X003644Y003667D01*
X003667Y003723D02*
X003667Y022144D01*
X003907Y022370D02*
X005343Y022370D01*
X005252Y022517D02*
X005252Y020720D01*
X005898Y019834D02*
X011462Y019834D01*
X011592Y019715D02*
X011592Y012145D01*
X011504Y012068D02*
X005856Y012068D01*
X005728Y012162D02*
X005728Y013698D01*
X005977Y013970D02*
X011780Y013970D01*
X011780Y014128D02*
X006020Y014128D01*
X006020Y014287D02*
X011780Y014287D01*
X011780Y014445D02*
X005955Y014445D01*
X005886Y014538D02*
X005886Y014822D01*
X005826Y014762D02*
X011780Y014762D01*
X011780Y014604D02*
X005820Y014604D01*
X005728Y014662D02*
X005728Y014698D01*
X005957Y014921D02*
X011780Y014921D01*
X011780Y015079D02*
X006020Y015079D01*
X006020Y015238D02*
X011780Y015238D01*
X011837Y015396D02*
X005975Y015396D01*
X005728Y015662D02*
X005728Y016698D01*
X005411Y016640D02*
X005411Y015720D01*
X005252Y015720D02*
X005252Y016640D01*
X005094Y016640D02*
X005094Y015720D01*
X004935Y015720D02*
X004935Y016640D01*
X001607Y018051D02*
X001607Y012269D01*
X001448Y012228D02*
X001448Y018092D01*
X001452Y018091D02*
X000660Y018091D01*
X000660Y018249D02*
X001205Y018249D01*
X001131Y018323D02*
X001131Y011998D01*
X001201Y012068D02*
X000660Y012068D01*
X000660Y012226D02*
X001442Y012226D01*
X001290Y012156D02*
X001290Y018164D01*
X001085Y018408D02*
X000660Y018408D01*
X000660Y018566D02*
X001019Y018566D01*
X001010Y018725D02*
X000660Y018725D01*
X000660Y018883D02*
X001022Y018883D01*
X000660Y020944D02*
X014360Y020944D01*
X014360Y021102D02*
X000660Y021102D01*
X000660Y022529D02*
X000890Y022529D01*
X000890Y022687D02*
X000660Y022687D01*
X000660Y022846D02*
X000890Y022846D01*
X000890Y023004D02*
X000660Y023004D01*
X000660Y023163D02*
X000890Y023163D01*
X000890Y023321D02*
X000660Y023321D01*
X001775Y022212D02*
X002085Y022212D01*
X003970Y022529D02*
X005247Y022529D01*
X005222Y022687D02*
X003970Y022687D01*
X002235Y024906D02*
X002193Y024906D01*
X010641Y024541D02*
X010641Y024520D01*
X010680Y023680D02*
X010680Y021680D01*
X014680Y021680D01*
X014680Y019180D01*
X015000Y020151D02*
X015432Y020151D01*
X015396Y020136D02*
X015396Y020224D01*
X015872Y020186D02*
X015872Y020174D01*
X015928Y020151D02*
X017860Y020151D01*
X017860Y019993D02*
X016117Y019993D01*
X016030Y020080D02*
X016030Y020280D01*
X016059Y020310D02*
X017860Y020310D01*
X017860Y020468D02*
X016166Y020468D01*
X016145Y020944D02*
X017860Y020944D01*
X017860Y021102D02*
X016007Y021102D01*
X016030Y021080D02*
X016030Y021280D01*
X016010Y021261D02*
X017860Y021261D01*
X017860Y021419D02*
X016146Y021419D01*
X015872Y021186D02*
X015872Y021174D01*
X016165Y021895D02*
X017860Y021895D01*
X017860Y022053D02*
X016056Y022053D01*
X016030Y022080D02*
X016030Y022280D01*
X015934Y022212D02*
X017860Y022212D01*
X017860Y022370D02*
X016120Y022370D01*
X015872Y022186D02*
X015872Y022174D01*
X016185Y022846D02*
X017860Y022846D01*
X017860Y023004D02*
X016105Y023004D01*
X016030Y023080D02*
X016030Y023280D01*
X016071Y023321D02*
X017892Y023321D01*
X017932Y023385D02*
X017932Y023860D01*
X017774Y023860D02*
X017774Y018210D01*
X017615Y018210D02*
X017615Y023860D01*
X017457Y023860D02*
X017457Y018161D01*
X017341Y018091D02*
X017019Y018091D01*
X016981Y018129D02*
X016981Y023860D01*
X016823Y023860D02*
X016823Y018195D01*
X016664Y018210D02*
X016664Y023860D01*
X016506Y023860D02*
X016506Y018181D01*
X017140Y017956D02*
X017140Y023860D01*
X017298Y023860D02*
X017298Y018048D01*
X017211Y017932D02*
X017149Y017932D01*
X017161Y017457D02*
X017199Y017457D01*
X017140Y017404D02*
X017140Y015484D01*
X017069Y015555D02*
X017291Y015555D01*
X017298Y015562D02*
X017298Y017312D01*
X017312Y017298D02*
X017048Y017298D01*
X017860Y016347D02*
X016044Y016347D01*
X016030Y016380D02*
X016030Y017280D01*
X016080Y016189D02*
X017860Y016189D01*
X017860Y016030D02*
X016080Y016030D01*
X016080Y015872D02*
X017860Y015872D01*
X018500Y016823D02*
X020860Y016823D01*
X020860Y016981D02*
X018500Y016981D01*
X020216Y016347D02*
X020860Y016347D01*
X020860Y016189D02*
X020220Y016189D01*
X020220Y016030D02*
X020860Y016030D01*
X020860Y015872D02*
X020220Y015872D01*
X020220Y015713D02*
X020860Y015713D01*
X020860Y015555D02*
X020220Y015555D01*
X019140Y014445D02*
X016179Y014445D01*
X016220Y014287D02*
X019140Y014287D01*
X019140Y014128D02*
X016220Y014128D01*
X015396Y014660D02*
X015396Y014700D01*
X015334Y014762D02*
X014026Y014762D01*
X013970Y014706D02*
X013970Y014654D01*
X014020Y014604D02*
X014340Y014604D01*
X014287Y014550D02*
X014287Y015780D01*
X014445Y015780D02*
X014445Y014709D01*
X014604Y014720D02*
X014604Y015780D01*
X014762Y015780D02*
X014762Y014720D01*
X014921Y014703D02*
X014921Y015780D01*
X015079Y015780D02*
X015079Y014545D01*
X015020Y014604D02*
X015340Y014604D01*
X015238Y014501D02*
X015238Y014859D01*
X015176Y014921D02*
X014184Y014921D01*
X014128Y014864D02*
X014128Y014496D01*
X014179Y014445D02*
X014181Y014445D01*
X014220Y015079D02*
X015140Y015079D01*
X015140Y015238D02*
X014220Y015238D01*
X014220Y015396D02*
X015140Y015396D01*
X015238Y015501D02*
X015238Y015780D01*
X015280Y015713D02*
X013911Y015713D01*
X013970Y015654D02*
X013970Y015780D01*
X014128Y015780D02*
X014128Y015496D01*
X014069Y015555D02*
X015280Y015555D01*
X015179Y014445D02*
X015181Y014445D01*
X013811Y015720D02*
X013811Y015780D01*
X013653Y015780D02*
X013653Y015720D01*
X013336Y014761D02*
X013336Y014599D01*
X013340Y014604D02*
X012580Y014604D01*
X011909Y015475D02*
X011909Y019640D01*
X015872Y019186D02*
X015872Y019174D01*
X015906Y019200D02*
X017860Y019200D01*
X017860Y019042D02*
X016068Y019042D01*
X016030Y019080D02*
X016030Y019280D01*
X016108Y019359D02*
X017860Y019359D01*
X017860Y019517D02*
X016186Y019517D01*
X015900Y023163D02*
X017860Y023163D01*
X017932Y024500D02*
X017932Y031196D01*
X017774Y031196D02*
X017774Y024500D01*
X017615Y024500D02*
X017615Y031196D01*
X017457Y031196D02*
X017457Y024500D01*
X017298Y024500D02*
X017298Y031196D01*
X017140Y031196D02*
X017140Y024500D01*
X016981Y024500D02*
X016981Y031196D01*
X016823Y031196D02*
X016823Y024500D01*
X016664Y024500D02*
X016664Y031196D01*
X016506Y031196D02*
X016506Y024500D01*
X016210Y023638D02*
X019150Y023638D01*
X019160Y024906D02*
X019200Y024906D01*
X019200Y031196D01*
X019042Y031196D02*
X019042Y025068D01*
X019045Y025065D02*
X019315Y025065D01*
X019359Y025108D02*
X019359Y031196D01*
X019517Y031196D02*
X019517Y025186D01*
X019676Y025210D02*
X019676Y031196D01*
X019834Y031196D02*
X019834Y025190D01*
X018883Y025170D02*
X018883Y031196D01*
X018725Y031196D02*
X018725Y025210D01*
X018566Y025206D02*
X018566Y031196D01*
X018408Y031196D02*
X018408Y025141D01*
X020468Y027166D02*
X020468Y027194D01*
X020205Y027442D02*
X016155Y027442D01*
X015238Y027373D02*
X015238Y027000D01*
X015079Y027000D02*
X015079Y031196D01*
X014921Y031196D02*
X014921Y027000D01*
X014762Y027000D02*
X014762Y031196D01*
X014604Y031196D02*
X014604Y027000D01*
X014445Y027000D02*
X014445Y031196D01*
X014287Y031196D02*
X014287Y027000D01*
X015872Y023186D02*
X015872Y023174D01*
X020680Y017680D02*
X021180Y017680D01*
X021180Y012680D01*
X020860Y013653D02*
X020021Y013653D01*
X020125Y013811D02*
X020860Y013811D01*
X022370Y016250D02*
X022370Y022860D01*
X022529Y022860D02*
X022529Y016250D01*
X022687Y016250D02*
X022687Y022860D01*
X024088Y020468D02*
X026570Y020468D01*
X026570Y020310D02*
X024000Y020310D01*
X024000Y020151D02*
X026570Y020151D01*
X026570Y019993D02*
X024000Y019993D01*
X024000Y019834D02*
X026570Y019834D01*
X026570Y019676D02*
X024000Y019676D01*
X024000Y019517D02*
X026570Y019517D01*
X026570Y019359D02*
X024000Y019359D01*
X024000Y019200D02*
X026570Y019200D01*
X026570Y019042D02*
X024000Y019042D01*
X024000Y018883D02*
X026570Y018883D01*
X026570Y018725D02*
X024000Y018725D01*
X024000Y018566D02*
X026570Y018566D01*
X026570Y018408D02*
X024000Y018408D01*
X024000Y018249D02*
X026570Y018249D01*
X026570Y018091D02*
X024000Y018091D01*
X024000Y017932D02*
X026570Y017932D01*
X026570Y017774D02*
X024000Y017774D01*
X024000Y017615D02*
X026570Y017615D01*
X026570Y017457D02*
X024000Y017457D01*
X024000Y017298D02*
X026570Y017298D01*
X026570Y017140D02*
X024000Y017140D01*
X024000Y016981D02*
X026570Y016981D01*
X026570Y016823D02*
X024000Y016823D01*
X024000Y016664D02*
X026570Y016664D01*
X026570Y016506D02*
X024000Y016506D01*
X025223Y013196D02*
X025223Y013164D01*
X026532Y012385D02*
X026570Y012385D01*
X026570Y011275D02*
X026307Y011275D01*
X026275Y011117D02*
X026570Y011117D01*
X026570Y010958D02*
X026244Y010958D01*
X026212Y010800D02*
X026570Y010800D01*
X026570Y009690D02*
X025990Y009690D01*
X025958Y009532D02*
X026570Y009532D01*
X026570Y009373D02*
X025927Y009373D01*
X025895Y009215D02*
X026570Y009215D01*
X026570Y008105D02*
X025673Y008105D01*
X025641Y007947D02*
X026570Y007947D01*
X026570Y007788D02*
X025631Y007788D01*
X025638Y007630D02*
X026570Y007630D01*
X026570Y007154D02*
X011080Y007154D01*
X011080Y006996D02*
X026570Y006996D01*
X026570Y006837D02*
X011080Y006837D01*
X011080Y006679D02*
X026570Y006679D01*
X026570Y006520D02*
X011080Y006520D01*
X011080Y006362D02*
X026570Y006362D01*
X026570Y006203D02*
X011080Y006203D01*
X011080Y006045D02*
X026570Y006045D01*
X026570Y005886D02*
X011080Y005886D01*
X011080Y005728D02*
X026570Y005728D01*
X026570Y005569D02*
X011080Y005569D01*
X011080Y005411D02*
X026570Y005411D01*
X026570Y005252D02*
X011080Y005252D01*
X011080Y005094D02*
X026570Y005094D01*
X026570Y004301D02*
X024625Y004301D01*
X024638Y004143D02*
X026570Y004143D01*
X026570Y003667D02*
X025240Y003667D01*
X025223Y003683D02*
X025223Y007222D01*
X025065Y007232D02*
X025065Y003822D01*
X025345Y003509D02*
X026570Y003509D01*
X024180Y004180D02*
X021680Y004180D01*
X018180Y004180D01*
X018249Y003722D02*
X018249Y000660D01*
X018091Y000660D02*
X018091Y003722D01*
X016347Y002326D02*
X016347Y007280D01*
X016189Y007280D02*
X016189Y002362D01*
X016030Y002362D02*
X016030Y007280D01*
X015872Y007280D02*
X015872Y002362D01*
X015872Y000998D02*
X015872Y000660D01*
X016030Y000660D02*
X016030Y000998D01*
X016189Y000998D02*
X016189Y000660D01*
X016347Y000660D02*
X016347Y001034D01*
X016823Y000660D02*
X016823Y007280D01*
X016981Y007280D02*
X016981Y000660D01*
X017140Y000660D02*
X017140Y007280D01*
X017298Y007280D02*
X017298Y000660D01*
X017457Y000660D02*
X017457Y007280D01*
X017615Y007280D02*
X017615Y000660D01*
X015713Y000660D02*
X015713Y000998D01*
X015555Y000998D02*
X015555Y000660D01*
X015396Y000660D02*
X015396Y000998D01*
X015238Y000998D02*
X015238Y000660D01*
X015079Y000660D02*
X015079Y001007D01*
X014921Y001073D02*
X014921Y000660D01*
X013680Y001290D02*
X011202Y001290D01*
X011268Y001448D02*
X013680Y001448D01*
X013680Y001607D02*
X011272Y001607D01*
X011272Y001765D02*
X013680Y001765D01*
X013680Y001924D02*
X011272Y001924D01*
X011272Y002082D02*
X013680Y002082D01*
X013680Y002241D02*
X011272Y002241D01*
X011272Y002399D02*
X013680Y002399D01*
X013680Y002558D02*
X011207Y002558D01*
X011117Y002684D02*
X011117Y003110D01*
X010958Y003110D02*
X010958Y002809D01*
X011084Y002716D02*
X013680Y002716D01*
X013680Y003667D02*
X012000Y003667D01*
X012068Y003680D02*
X012068Y000660D01*
X012226Y000660D02*
X012226Y003680D01*
X012385Y003680D02*
X012385Y000660D01*
X012543Y000660D02*
X012543Y003680D01*
X012702Y003680D02*
X012702Y000660D01*
X012860Y000660D02*
X012860Y003680D01*
X013019Y003680D02*
X013019Y000660D01*
X013177Y000660D02*
X013177Y003680D01*
X013336Y003680D02*
X013336Y000660D01*
X013494Y000660D02*
X013494Y003680D01*
X010958Y001051D02*
X010958Y000660D01*
X010800Y000660D02*
X010800Y000986D01*
X010641Y000985D02*
X010641Y000660D01*
X010483Y000660D02*
X010483Y001018D01*
X010092Y001448D02*
X009268Y001448D01*
X009272Y001607D02*
X010088Y001607D01*
X010088Y001765D02*
X009272Y001765D01*
X009272Y001924D02*
X010088Y001924D01*
X010088Y002082D02*
X009272Y002082D01*
X009272Y002241D02*
X010088Y002241D01*
X010088Y002399D02*
X009272Y002399D01*
X008739Y002875D02*
X008739Y003110D01*
X009532Y003110D02*
X009532Y000660D01*
X009690Y000660D02*
X009690Y003110D01*
X009849Y003110D02*
X009849Y000660D01*
X010007Y000660D02*
X010007Y003110D01*
X010800Y003110D02*
X010800Y002874D01*
X010324Y004000D02*
X010324Y004389D01*
X010276Y004460D02*
X000660Y004460D01*
X000660Y004618D02*
X010222Y004618D01*
X010224Y004777D02*
X000660Y004777D01*
X000660Y004935D02*
X010280Y004935D01*
X010166Y004000D02*
X010166Y007363D01*
X010280Y007313D02*
X000660Y007313D01*
X000660Y007471D02*
X010042Y007471D01*
X010015Y007630D02*
X000660Y007630D01*
X000660Y007788D02*
X010015Y007788D01*
X010015Y007947D02*
X000660Y007947D01*
X000660Y008105D02*
X010047Y008105D01*
X010166Y008202D02*
X010166Y009158D01*
X010324Y009141D02*
X010324Y008219D01*
X010483Y008219D02*
X010483Y009141D01*
X010641Y009141D02*
X010641Y008219D01*
X010726Y008581D02*
X006020Y008581D01*
X006020Y008739D02*
X010722Y008739D01*
X010775Y008898D02*
X005974Y008898D01*
X005886Y009038D02*
X005886Y009322D01*
X005839Y011275D02*
X011521Y011275D01*
X011340Y011592D02*
X006020Y011592D01*
X006020Y011751D02*
X011340Y011751D01*
X011780Y012385D02*
X000660Y012385D01*
X000660Y012543D02*
X011780Y012543D01*
X011780Y012702D02*
X000660Y012702D01*
X000660Y012860D02*
X011780Y012860D01*
X011780Y013019D02*
X000660Y013019D01*
X000660Y013177D02*
X011780Y013177D01*
X011780Y013336D02*
X000660Y013336D01*
X000660Y013494D02*
X011780Y013494D01*
X010570Y009680D02*
X010570Y009578D01*
X010800Y009141D02*
X010800Y008947D01*
X011117Y009138D02*
X011117Y009280D01*
X011275Y009280D02*
X011275Y009136D01*
X011434Y009080D02*
X011434Y009280D01*
X011592Y009280D02*
X011592Y009080D01*
X011751Y009080D02*
X011751Y009280D01*
X011909Y009280D02*
X011909Y009080D01*
X012068Y009080D02*
X012068Y009280D01*
X012226Y009280D02*
X012226Y009080D01*
X012385Y009080D02*
X012385Y009280D01*
X012543Y009280D02*
X012543Y009080D01*
X012702Y009080D02*
X012702Y009280D01*
X012860Y009280D02*
X012860Y009080D01*
X013180Y007790D02*
X013180Y007782D01*
X011275Y008182D02*
X011275Y008224D01*
X011117Y008222D02*
X011117Y008182D01*
X010680Y007782D02*
X010570Y007782D01*
X010280Y006203D02*
X005740Y006203D01*
X005728Y006198D02*
X005728Y006162D01*
X005879Y006045D02*
X010280Y006045D01*
X001448Y010850D02*
X001448Y010970D01*
X001023Y011434D02*
X000660Y011434D01*
X000660Y011592D02*
X001010Y011592D01*
X001017Y011751D02*
X000660Y011751D01*
X000660Y011909D02*
X001083Y011909D01*
X021419Y031146D02*
X021419Y031196D01*
X021895Y028195D02*
X021895Y028165D01*
X021895Y027195D02*
X021895Y027165D01*
X022212Y003860D02*
X022212Y000660D01*
X022370Y000660D02*
X022370Y003860D01*
X022529Y003860D02*
X022529Y000660D01*
X022687Y000660D02*
X022687Y003860D01*
X022846Y003860D02*
X022846Y000660D01*
X023004Y000660D02*
X023004Y003860D01*
X023163Y003860D02*
X023163Y000660D01*
X023321Y000660D02*
X023321Y003860D01*
X023480Y003860D02*
X023480Y000660D01*
X023638Y000660D02*
X023638Y003860D01*
X023797Y003860D02*
X023797Y000660D01*
D26*
X022430Y005680D03*
X026180Y005680D03*
X023180Y010180D03*
X018430Y005680D03*
X014430Y005680D03*
X014430Y010680D03*
X010680Y028180D03*
X006180Y028180D03*
M02*
