G75*
%MOIN*%
%OFA0B0*%
%FSLAX24Y24*%
%IPPOS*%
%LPD*%
%AMOC8*
5,1,8,0,0,1.08239X$1,22.5*
%
%ADD10C,0.1080*%
%ADD11OC8,0.1080*%
%ADD12R,0.0474X0.0513*%
%ADD13C,0.0965*%
%ADD14R,0.2206X0.2521*%
%ADD15R,0.0474X0.0710*%
%ADD16R,0.0671X0.0671*%
%ADD17R,0.0513X0.0474*%
%ADD18C,0.0680*%
%ADD19C,0.0660*%
%ADD20C,0.0785*%
%ADD21C,0.0940*%
%ADD22OC8,0.0680*%
%ADD23C,0.0634*%
%ADD24R,0.0634X0.0634*%
%ADD25C,0.1360*%
%ADD26C,0.0516*%
%ADD27C,0.0476*%
D10*
X002430Y006180D03*
X002430Y014680D03*
X024680Y003180D03*
X025680Y029680D03*
D11*
X023680Y029680D03*
X002430Y016680D03*
X002430Y008180D03*
X024680Y001180D03*
D12*
X024845Y005180D03*
X025515Y005180D03*
X025180Y006345D03*
X025180Y007015D03*
X026180Y007015D03*
X026180Y006345D03*
X022180Y006345D03*
X022180Y007015D03*
X021180Y007015D03*
X021180Y006345D03*
X020845Y005180D03*
X021515Y005180D03*
X018180Y006345D03*
X018180Y007015D03*
X017180Y007015D03*
X017180Y006345D03*
X016845Y005180D03*
X017515Y005180D03*
X015515Y003430D03*
X014845Y003430D03*
X013515Y005180D03*
X012845Y005180D03*
X013180Y006345D03*
X013180Y007015D03*
X014180Y007015D03*
X014180Y006345D03*
X003765Y021680D03*
X003095Y021680D03*
X003095Y026430D03*
X003765Y026430D03*
D13*
X015238Y001680D02*
X016123Y001680D01*
X021238Y001680D02*
X022123Y001680D01*
D14*
X021180Y010664D03*
X017180Y010664D03*
X025180Y010664D03*
D15*
X024282Y007790D03*
X026078Y007790D03*
X022078Y007790D03*
X020282Y007790D03*
X018078Y007790D03*
X016282Y007790D03*
D16*
X016180Y006869D03*
X016180Y005491D03*
X015869Y002680D03*
X014491Y002680D03*
X012180Y005491D03*
X012180Y006869D03*
X020180Y006869D03*
X020180Y005491D03*
X024180Y005491D03*
X024180Y006869D03*
X004430Y022241D03*
X004430Y023619D03*
X004430Y026991D03*
X004430Y028369D03*
D17*
X006680Y022515D03*
X006680Y021845D03*
X007680Y021845D03*
X007680Y022515D03*
X004180Y014015D03*
X004180Y013345D03*
X004180Y005515D03*
X004180Y004845D03*
X026180Y024845D03*
X026180Y025515D03*
D18*
X004730Y001430D02*
X004130Y001430D01*
X004130Y002430D02*
X004730Y002430D01*
X004730Y003430D02*
X004130Y003430D01*
X004880Y005680D02*
X005480Y005680D01*
X005480Y006680D02*
X004880Y006680D01*
X004880Y007680D02*
X005480Y007680D01*
X005480Y008680D02*
X004880Y008680D01*
X004880Y009680D02*
X005480Y009680D01*
X005480Y010680D02*
X004880Y010680D01*
X004880Y011680D02*
X005480Y011680D01*
X005480Y014180D02*
X004880Y014180D01*
X004880Y015180D02*
X005480Y015180D01*
X005480Y016180D02*
X004880Y016180D01*
X004880Y017180D02*
X005480Y017180D01*
X005480Y018180D02*
X004880Y018180D01*
X004880Y019180D02*
X005480Y019180D01*
X005480Y020180D02*
X004880Y020180D01*
X003430Y022630D02*
X003430Y023230D01*
X002430Y023230D02*
X002430Y022630D01*
X001430Y022630D02*
X001430Y023230D01*
X001430Y027380D02*
X001430Y027980D01*
X002430Y027980D02*
X002430Y027380D01*
X003430Y027380D02*
X003430Y027980D01*
X006680Y023980D02*
X006680Y023380D01*
X007680Y023380D02*
X007680Y023980D01*
X008680Y023980D02*
X008680Y023380D01*
X009680Y023380D02*
X009680Y023980D01*
X010680Y023980D02*
X010680Y023380D01*
X011680Y023380D02*
X011680Y023980D01*
X012680Y023980D02*
X012680Y023380D01*
X013680Y023380D02*
X013680Y023980D01*
X012480Y020180D02*
X011880Y020180D01*
X011880Y019180D02*
X012480Y019180D01*
X012480Y011680D02*
X011880Y011680D01*
X011880Y010680D02*
X012480Y010680D01*
X019680Y012630D02*
X019680Y013230D01*
X019680Y014130D02*
X019680Y014730D01*
X019680Y015630D02*
X019680Y016230D01*
X020680Y016230D02*
X020680Y015630D01*
X020680Y014730D02*
X020680Y014130D01*
X020680Y013230D02*
X020680Y012630D01*
X021680Y012630D02*
X021680Y013230D01*
X021680Y014130D02*
X021680Y014730D01*
X021680Y015630D02*
X021680Y016230D01*
X024380Y016680D02*
X024980Y016680D01*
X024980Y015680D02*
X024380Y015680D01*
X024380Y014680D02*
X024980Y014680D01*
X024980Y013680D02*
X024380Y013680D01*
X024380Y012680D02*
X024980Y012680D01*
X024980Y022930D02*
X024380Y022930D01*
X024380Y023930D02*
X024980Y023930D01*
X024980Y024930D02*
X024380Y024930D01*
X024380Y025930D02*
X024980Y025930D01*
X024980Y026930D02*
X024380Y026930D01*
D19*
X021680Y026680D03*
X021680Y025680D03*
X021680Y024680D03*
X021680Y023680D03*
X021680Y022680D03*
X021680Y021680D03*
X021680Y020680D03*
X021680Y019680D03*
X021680Y018680D03*
X021680Y017680D03*
X020680Y017680D03*
X019680Y017680D03*
X019680Y018680D03*
X019680Y019680D03*
X019680Y020680D03*
X019680Y021680D03*
X018680Y021680D03*
X018680Y020680D03*
X018680Y019680D03*
X018680Y018680D03*
X018680Y017680D03*
X017680Y017680D03*
X016680Y017680D03*
X015680Y017680D03*
X015680Y018680D03*
X015680Y019680D03*
X015680Y020680D03*
X015680Y021680D03*
X015680Y022680D03*
X015680Y023680D03*
X015680Y024680D03*
X015680Y025680D03*
X015680Y026680D03*
X015680Y027680D03*
X015680Y028680D03*
X015680Y029680D03*
X015680Y030680D03*
X020680Y029680D03*
X021680Y029680D03*
X021680Y028680D03*
X021680Y027680D03*
X020680Y027680D03*
X020680Y026680D03*
X020680Y025680D03*
X019680Y024680D03*
X019680Y023680D03*
X019680Y022680D03*
X018680Y022680D03*
X018680Y023680D03*
X018680Y024680D03*
X021680Y030680D03*
D20*
X012680Y002283D02*
X012680Y001578D01*
X010680Y001578D02*
X010680Y002283D01*
X008680Y002283D02*
X008680Y001578D01*
X006680Y001578D02*
X006680Y002283D01*
D21*
X001680Y010221D03*
X001680Y011599D03*
X001680Y018721D03*
X001680Y020099D03*
X001680Y024471D03*
X001680Y025849D03*
X001680Y029221D03*
X001680Y030599D03*
D22*
X013680Y015180D03*
X013680Y014180D03*
X014680Y014180D03*
X014680Y015180D03*
X015680Y015180D03*
X015680Y014180D03*
X016680Y014180D03*
X016680Y015180D03*
X017680Y015180D03*
X017680Y014180D03*
D23*
X011430Y025680D03*
X010430Y025680D03*
X009930Y026680D03*
X010930Y026680D03*
X009430Y025680D03*
X008930Y026680D03*
X008430Y025680D03*
D24*
X011930Y026680D03*
D25*
X012430Y029180D03*
X007930Y029180D03*
D26*
X005680Y022680D03*
X009180Y022180D03*
X014680Y019180D03*
X015180Y009680D03*
X013180Y007790D03*
X011180Y008680D03*
X010680Y004680D03*
X013680Y004430D03*
X014680Y004180D03*
X018180Y004180D03*
X021180Y007680D03*
X021680Y004180D03*
X024180Y004180D03*
X025180Y007680D03*
X026180Y012680D03*
X023680Y020680D03*
X023180Y021680D03*
D27*
X014430Y010680D03*
X014430Y005680D03*
X018430Y005680D03*
X022430Y005680D03*
X026180Y005680D03*
X023180Y010180D03*
X010680Y028180D03*
X006180Y028180D03*
M02*
