%
M48
M72
T01C0.0236
T02C0.0276
T03C0.0354
T04C0.0380
T05C0.0394
T06C0.0400
T07C0.0470
T08C0.0590
T09C0.1280
%
T01
X14430Y5680
X18430Y5680
X22430Y5680
X26180Y5680
X23180Y10180
X14430Y10680
X10680Y28180
X6180Y28180
T02
X5680Y22680
X9180Y22180
X14680Y19180
X15180Y9680
X13180Y7790
X11180Y8680
X10680Y4680
X13680Y4430
X14680Y4180
X18180Y4180
X21180Y7680
X21680Y4180
X24180Y4180
X25180Y7680
X26180Y12680
X23680Y20680
X23180Y21680
T03
X11930Y26680
X11430Y25680
X10430Y25680
X9930Y26680
X10930Y26680
X9430Y25680
X8930Y26680
X8430Y25680
T04
X15680Y25680
X15680Y24680
X15680Y23680
X15680Y22680
X15680Y21680
X15680Y20680
X15680Y19680
X15680Y18680
X15680Y17680
X16680Y17680
X17680Y17680
X18680Y17680
X18680Y18680
X18680Y19680
X18680Y20680
X18680Y21680
X19680Y21680
X19680Y20680
X19680Y19680
X19680Y18680
X19680Y17680
X20680Y17680
X21680Y17680
X21680Y18680
X21680Y19680
X21680Y20680
X21680Y21680
X21680Y22680
X21680Y23680
X21680Y24680
X21680Y25680
X21680Y26680
X21680Y27680
X21680Y28680
X21680Y29680
X21680Y30680
X20680Y29680
X20680Y27680
X20680Y26680
X20680Y25680
X19680Y24680
X19680Y23680
X19680Y22680
X18680Y22680
X18680Y23680
X18680Y24680
X15680Y26680
X15680Y27680
X15680Y28680
X15680Y29680
X15680Y30680
T05
X1680Y30599
X1680Y29221
X1680Y25849
X1680Y24471
X1680Y20099
X1680Y18721
X1680Y11599
X1680Y10221
T06
X4430Y1430
X4430Y2430
X4430Y3430
X5180Y5680
X5180Y6680
X5180Y7680
X5180Y8680
X5180Y9680
X5180Y10680
X5180Y11680
X5180Y14180
X5180Y15180
X5180Y16180
X5180Y17180
X5180Y18180
X5180Y19180
X5180Y20180
X3430Y22930
X2430Y22930
X1430Y22930
X1430Y27680
X2430Y27680
X3430Y27680
X6680Y23680
X7680Y23680
X8680Y23680
X9680Y23680
X10680Y23680
X11680Y23680
X12680Y23680
X13680Y23680
X12180Y20180
X12180Y19180
X13680Y15180
X13680Y14180
X14680Y14180
X14680Y15180
X15680Y15180
X15680Y14180
X16680Y14180
X16680Y15180
X17680Y15180
X17680Y14180
X19680Y14430
X20680Y14430
X21680Y14430
X21680Y12930
X20680Y12930
X19680Y12930
X19680Y15930
X20680Y15930
X21680Y15930
X24680Y15680
X24680Y14680
X24680Y13680
X24680Y12680
X24680Y16680
X24680Y22930
X24680Y23930
X24680Y24930
X24680Y25930
X24680Y26930
X23680Y29680
X25680Y29680
X12180Y11680
X12180Y10680
X2430Y8180
X2430Y6180
X2430Y14680
X2430Y16680
X24680Y3180
X24680Y1180
T07
X12680Y1930
X10680Y1930
X8680Y1930
X6680Y1930
T08
X15680Y1680
X21680Y1680
T09
X12430Y29180
X7930Y29180
M30
