%
M48
M72
T01C0.0354
T02C0.0400
T03C0.1280
%
T01
X4600Y3033
X5600Y3533
X4600Y4033
X5600Y4533
X4600Y5033
X5600Y5533
X4600Y6033
X5600Y6533
X4600Y11033
X5600Y11533
X4600Y12033
X5600Y12533
X4600Y13033
X5600Y13533
X4600Y14033
X5600Y14533
X4600Y19033
X5600Y19533
X5600Y20533
X4600Y20033
X4600Y21033
X5600Y21533
X4600Y22033
X5600Y22533
X24200Y22033
X24200Y21033
X24200Y20033
X24200Y19033
X25200Y19533
X25200Y20533
X25200Y21533
X25200Y22533
X25200Y14533
X25200Y13533
X25200Y12533
X25200Y11533
X24200Y11033
X24200Y12033
X24200Y13033
X24200Y14033
X25200Y6533
X25200Y5533
X25200Y4533
X25200Y3533
X24200Y3033
X24200Y4033
X24200Y5033
X24200Y6033
T02
X1900Y1183
X1900Y2183
X1900Y3183
X1900Y4183
X1900Y5183
X1900Y6183
X1900Y7183
X1900Y8183
X1900Y9183
X1900Y10183
X1900Y11183
X1900Y12183
X1900Y13183
X1900Y14183
X1900Y15183
X1900Y16183
X1900Y17183
X1900Y18183
X1900Y19183
X1900Y20183
X1900Y21183
X1900Y22183
X1900Y23183
X1900Y24183
X27900Y24183
X27900Y23183
X27900Y22183
X27900Y21183
X27900Y20183
X27900Y19183
X27900Y18183
X27900Y17183
X27900Y16183
X27900Y15183
X27900Y14183
X27900Y13183
X27900Y12183
X27900Y11183
X27900Y10183
X27900Y9183
X27900Y8183
X27900Y7183
X27900Y6183
X27900Y5183
X27900Y4183
X27900Y3183
X27900Y2183
X27900Y1183
T03
X21700Y2533
X21700Y7033
X21700Y10533
X21700Y15033
X21700Y18533
X21700Y23033
X8100Y23033
X8100Y18533
X8100Y15033
X8100Y10533
X8100Y7033
X8100Y2533
M30
