G75*
%MOIN*%
%OFA0B0*%
%FSLAX24Y24*%
%IPPOS*%
%LPD*%
%AMOC8*
5,1,8,0,0,1.08239X$1,22.5*
%
%ADD10C,0.0554*%
%ADD11R,0.0554X0.0554*%
%ADD12C,0.0600*%
D10*
X004600Y003033D03*
X005600Y003533D03*
X004600Y004033D03*
X005600Y004533D03*
X004600Y005033D03*
X005600Y005533D03*
X004600Y006033D03*
X004600Y011033D03*
X005600Y011533D03*
X004600Y012033D03*
X005600Y012533D03*
X004600Y013033D03*
X005600Y013533D03*
X004600Y014033D03*
X004600Y019033D03*
X005600Y019533D03*
X005600Y020533D03*
X004600Y020033D03*
X004600Y021033D03*
X005600Y021533D03*
X004600Y022033D03*
X024200Y022033D03*
X024200Y021033D03*
X024200Y020033D03*
X025200Y019533D03*
X025200Y020533D03*
X025200Y021533D03*
X025200Y022533D03*
X025200Y014533D03*
X025200Y013533D03*
X025200Y012533D03*
X025200Y011533D03*
X024200Y012033D03*
X024200Y013033D03*
X024200Y014033D03*
X025200Y006533D03*
X025200Y005533D03*
X025200Y004533D03*
X025200Y003533D03*
X024200Y004033D03*
X024200Y005033D03*
X024200Y006033D03*
D11*
X024200Y003033D03*
X024200Y011033D03*
X024200Y019033D03*
X005600Y022533D03*
X005600Y014533D03*
X005600Y006533D03*
D12*
X002200Y001183D02*
X001600Y001183D01*
X001600Y002183D02*
X002200Y002183D01*
X002200Y003183D02*
X001600Y003183D01*
X001600Y004183D02*
X002200Y004183D01*
X002200Y005183D02*
X001600Y005183D01*
X001600Y006183D02*
X002200Y006183D01*
X002200Y007183D02*
X001600Y007183D01*
X001600Y008183D02*
X002200Y008183D01*
X002200Y009183D02*
X001600Y009183D01*
X001600Y010183D02*
X002200Y010183D01*
X002200Y011183D02*
X001600Y011183D01*
X001600Y012183D02*
X002200Y012183D01*
X002200Y013183D02*
X001600Y013183D01*
X001600Y014183D02*
X002200Y014183D01*
X002200Y015183D02*
X001600Y015183D01*
X001600Y016183D02*
X002200Y016183D01*
X002200Y017183D02*
X001600Y017183D01*
X001600Y018183D02*
X002200Y018183D01*
X002200Y019183D02*
X001600Y019183D01*
X001600Y020183D02*
X002200Y020183D01*
X002200Y021183D02*
X001600Y021183D01*
X001600Y022183D02*
X002200Y022183D01*
X002200Y023183D02*
X001600Y023183D01*
X001600Y024183D02*
X002200Y024183D01*
X027600Y024183D02*
X028200Y024183D01*
X028200Y023183D02*
X027600Y023183D01*
X027600Y022183D02*
X028200Y022183D01*
X028200Y021183D02*
X027600Y021183D01*
X027600Y020183D02*
X028200Y020183D01*
X028200Y019183D02*
X027600Y019183D01*
X027600Y018183D02*
X028200Y018183D01*
X028200Y017183D02*
X027600Y017183D01*
X027600Y016183D02*
X028200Y016183D01*
X028200Y015183D02*
X027600Y015183D01*
X027600Y014183D02*
X028200Y014183D01*
X028200Y013183D02*
X027600Y013183D01*
X027600Y012183D02*
X028200Y012183D01*
X028200Y011183D02*
X027600Y011183D01*
X027600Y010183D02*
X028200Y010183D01*
X028200Y009183D02*
X027600Y009183D01*
X027600Y008183D02*
X028200Y008183D01*
X028200Y007183D02*
X027600Y007183D01*
X027600Y006183D02*
X028200Y006183D01*
X028200Y005183D02*
X027600Y005183D01*
X027600Y004183D02*
X028200Y004183D01*
X028200Y003183D02*
X027600Y003183D01*
X027600Y002183D02*
X028200Y002183D01*
X028200Y001183D02*
X027600Y001183D01*
M02*
