G75*
%MOIN*%
%OFA0B0*%
%FSLAX24Y24*%
%IPPOS*%
%LPD*%
%AMOC8*
5,1,8,0,0,1.08239X$1,22.5*
%
%ADD10C,0.0060*%
%ADD11C,0.0040*%
%ADD12C,0.0050*%
%ADD13R,0.0200X0.0200*%
D10*
X001400Y000933D02*
X001400Y001433D01*
X001650Y001683D01*
X001400Y001933D01*
X001400Y002433D01*
X001650Y002683D01*
X001400Y002933D01*
X001400Y003433D01*
X001650Y003683D01*
X001400Y003933D01*
X001400Y004433D01*
X001650Y004683D01*
X001400Y004933D01*
X001400Y005433D01*
X001650Y005683D01*
X001400Y005933D01*
X001400Y006433D01*
X001650Y006683D01*
X001400Y006933D01*
X001400Y007433D01*
X001650Y007683D01*
X001400Y007933D01*
X001400Y008433D01*
X001650Y008683D01*
X002150Y008683D01*
X002400Y008433D01*
X002400Y007933D01*
X002150Y007683D01*
X002400Y007433D01*
X002400Y006933D01*
X002150Y006683D01*
X002400Y006433D01*
X002400Y005933D01*
X002150Y005683D01*
X002400Y005433D01*
X002400Y004933D01*
X002150Y004683D01*
X002400Y004433D01*
X002400Y003933D01*
X002150Y003683D01*
X002400Y003433D01*
X002400Y002933D01*
X002150Y002683D01*
X002400Y002433D01*
X002400Y001933D01*
X002150Y001683D01*
X002400Y001433D01*
X002400Y000933D01*
X002150Y000683D01*
X001650Y000683D01*
X001400Y000933D01*
X006370Y004720D02*
X006477Y004613D01*
X006584Y004613D01*
X006690Y004720D01*
X006690Y005254D01*
X006584Y005254D02*
X006797Y005254D01*
X007121Y005040D02*
X007335Y005040D01*
X007442Y004934D01*
X007442Y004613D01*
X007121Y004613D01*
X007015Y004720D01*
X007121Y004827D01*
X007442Y004827D01*
X007659Y004934D02*
X007659Y004720D01*
X007766Y004613D01*
X008086Y004613D01*
X008304Y004613D02*
X008304Y005254D01*
X008086Y005040D02*
X007766Y005040D01*
X007659Y004934D01*
X008304Y004827D02*
X008624Y005040D01*
X008304Y004827D02*
X008624Y004613D01*
X009485Y004720D02*
X009592Y004613D01*
X009806Y004613D01*
X009912Y004720D01*
X009912Y004827D01*
X009806Y004934D01*
X009699Y004934D01*
X009806Y004934D02*
X009912Y005040D01*
X009912Y005147D01*
X009806Y005254D01*
X009592Y005254D01*
X009485Y005147D01*
X013229Y007713D02*
X013229Y008034D01*
X013336Y008140D01*
X013550Y008140D01*
X013656Y008034D01*
X013656Y007713D01*
X013656Y007927D02*
X013870Y008140D01*
X013763Y008358D02*
X013870Y008465D01*
X013870Y008571D01*
X013763Y008678D01*
X013229Y008678D01*
X013229Y008571D02*
X013229Y008785D01*
X013550Y009002D02*
X013550Y009429D01*
X013550Y009647D02*
X013229Y009647D01*
X013229Y010074D01*
X013443Y009967D02*
X013550Y010074D01*
X013763Y010074D01*
X013870Y009967D01*
X013870Y009754D01*
X013763Y009647D01*
X013550Y009647D02*
X013443Y009860D01*
X013443Y009967D01*
X013229Y009323D02*
X013550Y009002D01*
X013870Y009323D02*
X013229Y009323D01*
X013229Y007713D02*
X013870Y007713D01*
X013763Y010936D02*
X013336Y010936D01*
X013229Y011043D01*
X013229Y011256D01*
X013336Y011363D01*
X013550Y011581D02*
X013443Y011687D01*
X013443Y011901D01*
X013550Y012008D01*
X013763Y012008D01*
X013870Y011901D01*
X013870Y011687D01*
X013763Y011581D01*
X013550Y011581D01*
X013763Y011363D02*
X013870Y011256D01*
X013870Y011043D01*
X013763Y010936D01*
X013870Y012225D02*
X013443Y012225D01*
X013443Y012545D01*
X013550Y012652D01*
X013870Y012652D01*
X013870Y012870D02*
X013443Y012870D01*
X013443Y013190D01*
X013550Y013297D01*
X013870Y013297D01*
X013763Y013514D02*
X013550Y013514D01*
X013443Y013621D01*
X013443Y013835D01*
X013550Y013941D01*
X013656Y013941D01*
X013656Y013514D01*
X013763Y013514D02*
X013870Y013621D01*
X013870Y013835D01*
X013763Y014159D02*
X013870Y014266D01*
X013870Y014586D01*
X013763Y014159D02*
X013550Y014159D01*
X013443Y014266D01*
X013443Y014586D01*
X013443Y014803D02*
X013443Y015017D01*
X013336Y014910D02*
X013763Y014910D01*
X013870Y015017D01*
X013763Y015233D02*
X013870Y015340D01*
X013870Y015553D01*
X013763Y015660D01*
X013550Y015660D01*
X013443Y015553D01*
X013443Y015340D01*
X013550Y015233D01*
X013763Y015233D01*
X013656Y015878D02*
X013443Y016091D01*
X013443Y016198D01*
X013550Y016415D02*
X013443Y016522D01*
X013443Y016842D01*
X013656Y016735D02*
X013656Y016522D01*
X013550Y016415D01*
X013870Y016415D02*
X013870Y016735D01*
X013763Y016842D01*
X013656Y016735D01*
X013550Y017704D02*
X013550Y018024D01*
X013656Y018131D01*
X013763Y018131D01*
X013870Y018024D01*
X013870Y017704D01*
X013229Y017704D01*
X013229Y018024D01*
X013336Y018131D01*
X013443Y018131D01*
X013550Y018024D01*
X013550Y018348D02*
X013443Y018455D01*
X013443Y018669D01*
X013550Y018775D01*
X013763Y018775D01*
X013870Y018669D01*
X013870Y018455D01*
X013763Y018348D01*
X013550Y018348D01*
X013763Y018993D02*
X013656Y019100D01*
X013656Y019420D01*
X013550Y019420D02*
X013870Y019420D01*
X013870Y019100D01*
X013763Y018993D01*
X013443Y019100D02*
X013443Y019313D01*
X013550Y019420D01*
X013656Y019638D02*
X013443Y019851D01*
X013443Y019958D01*
X013550Y020175D02*
X013443Y020281D01*
X013443Y020602D01*
X013229Y020602D02*
X013870Y020602D01*
X013870Y020281D01*
X013763Y020175D01*
X013550Y020175D01*
X013443Y019638D02*
X013870Y019638D01*
X009912Y020613D02*
X009485Y020613D01*
X009699Y020613D02*
X009699Y021254D01*
X009485Y021040D01*
X008624Y021040D02*
X008304Y020827D01*
X008624Y020613D01*
X008304Y020613D02*
X008304Y021254D01*
X008086Y021040D02*
X007766Y021040D01*
X007659Y020934D01*
X007659Y020720D01*
X007766Y020613D01*
X008086Y020613D01*
X007442Y020613D02*
X007121Y020613D01*
X007015Y020720D01*
X007121Y020827D01*
X007442Y020827D01*
X007442Y020934D02*
X007442Y020613D01*
X007442Y020934D02*
X007335Y021040D01*
X007121Y021040D01*
X006797Y021254D02*
X006584Y021254D01*
X006690Y021254D02*
X006690Y020720D01*
X006584Y020613D01*
X006477Y020613D01*
X006370Y020720D01*
X002400Y020933D02*
X002150Y020683D01*
X002400Y020433D01*
X002400Y019933D01*
X002150Y019683D01*
X002400Y019433D01*
X002400Y018933D01*
X002150Y018683D01*
X002400Y018433D01*
X002400Y017933D01*
X002150Y017683D01*
X002400Y017433D01*
X002400Y016933D01*
X002150Y016683D01*
X002400Y016433D01*
X002400Y015933D01*
X002150Y015683D01*
X002400Y015433D01*
X002400Y014933D01*
X002150Y014683D01*
X002400Y014433D01*
X002400Y013933D01*
X002150Y013683D01*
X002400Y013433D01*
X002400Y012933D01*
X002150Y012683D01*
X002400Y012433D01*
X002400Y011933D01*
X002150Y011683D01*
X002400Y011433D01*
X002400Y010933D01*
X002150Y010683D01*
X002400Y010433D01*
X002400Y009933D01*
X002150Y009683D01*
X002400Y009433D01*
X002400Y008933D01*
X002150Y008683D01*
X001650Y008683D01*
X001400Y008933D01*
X001400Y009433D01*
X001650Y009683D01*
X001400Y009933D01*
X001400Y010433D01*
X001650Y010683D01*
X001400Y010933D01*
X001400Y011433D01*
X001650Y011683D01*
X001400Y011933D01*
X001400Y012433D01*
X001650Y012683D01*
X001400Y012933D01*
X001400Y013433D01*
X001650Y013683D01*
X001400Y013933D01*
X001400Y014433D01*
X001650Y014683D01*
X001400Y014933D01*
X001400Y015433D01*
X001650Y015683D01*
X001400Y015933D01*
X001400Y016433D01*
X001650Y016683D01*
X002150Y016683D01*
X001650Y016683D01*
X001400Y016933D01*
X001400Y017433D01*
X001650Y017683D01*
X001400Y017933D01*
X001400Y018433D01*
X001650Y018683D01*
X001400Y018933D01*
X001400Y019433D01*
X001650Y019683D01*
X001400Y019933D01*
X001400Y020433D01*
X001650Y020683D01*
X001400Y020933D01*
X001400Y021433D01*
X001650Y021683D01*
X001400Y021933D01*
X001400Y022433D01*
X001650Y022683D01*
X001400Y022933D01*
X001400Y023433D01*
X001650Y023683D01*
X001400Y023933D01*
X001400Y024433D01*
X001650Y024683D01*
X002150Y024683D01*
X002400Y024433D01*
X002400Y023933D01*
X002150Y023683D01*
X002400Y023433D01*
X002400Y022933D01*
X002150Y022683D01*
X002400Y022433D01*
X002400Y021933D01*
X002150Y021683D01*
X002400Y021433D01*
X002400Y020933D01*
X006584Y013254D02*
X006797Y013254D01*
X006690Y013254D02*
X006690Y012720D01*
X006584Y012613D01*
X006477Y012613D01*
X006370Y012720D01*
X007015Y012720D02*
X007121Y012827D01*
X007442Y012827D01*
X007442Y012934D02*
X007442Y012613D01*
X007121Y012613D01*
X007015Y012720D01*
X007121Y013040D02*
X007335Y013040D01*
X007442Y012934D01*
X007659Y012934D02*
X007659Y012720D01*
X007766Y012613D01*
X008086Y012613D01*
X008304Y012613D02*
X008304Y013254D01*
X008086Y013040D02*
X007766Y013040D01*
X007659Y012934D01*
X008304Y012827D02*
X008624Y013040D01*
X008304Y012827D02*
X008624Y012613D01*
X009485Y012613D02*
X009912Y013040D01*
X009912Y013147D01*
X009806Y013254D01*
X009592Y013254D01*
X009485Y013147D01*
X009485Y012613D02*
X009912Y012613D01*
X013443Y015878D02*
X013870Y015878D01*
X020084Y013254D02*
X020297Y013254D01*
X020190Y013254D02*
X020190Y012720D01*
X020084Y012613D01*
X019977Y012613D01*
X019870Y012720D01*
X020515Y012720D02*
X020621Y012827D01*
X020942Y012827D01*
X020942Y012934D02*
X020942Y012613D01*
X020621Y012613D01*
X020515Y012720D01*
X020621Y013040D02*
X020835Y013040D01*
X020942Y012934D01*
X021159Y012934D02*
X021159Y012720D01*
X021266Y012613D01*
X021586Y012613D01*
X021804Y012613D02*
X021804Y013254D01*
X021586Y013040D02*
X021266Y013040D01*
X021159Y012934D01*
X021804Y012827D02*
X022124Y013040D01*
X021804Y012827D02*
X022124Y012613D01*
X022985Y012720D02*
X023092Y012613D01*
X023306Y012613D01*
X023412Y012720D01*
X023412Y012934D01*
X023306Y013040D01*
X023199Y013040D01*
X022985Y012934D01*
X022985Y013254D01*
X023412Y013254D01*
X027400Y013433D02*
X027400Y012933D01*
X027650Y012683D01*
X027400Y012433D01*
X027400Y011933D01*
X027650Y011683D01*
X027400Y011433D01*
X027400Y010933D01*
X027650Y010683D01*
X027400Y010433D01*
X027400Y009933D01*
X027650Y009683D01*
X027400Y009433D01*
X027400Y008933D01*
X027650Y008683D01*
X028150Y008683D01*
X028400Y008433D01*
X028400Y007933D01*
X028150Y007683D01*
X028400Y007433D01*
X028400Y006933D01*
X028150Y006683D01*
X028400Y006433D01*
X028400Y005933D01*
X028150Y005683D01*
X028400Y005433D01*
X028400Y004933D01*
X028150Y004683D01*
X028400Y004433D01*
X028400Y003933D01*
X028150Y003683D01*
X028400Y003433D01*
X028400Y002933D01*
X028150Y002683D01*
X028400Y002433D01*
X028400Y001933D01*
X028150Y001683D01*
X028400Y001433D01*
X028400Y000933D01*
X028150Y000683D01*
X027650Y000683D01*
X027400Y000933D01*
X027400Y001433D01*
X027650Y001683D01*
X027400Y001933D01*
X027400Y002433D01*
X027650Y002683D01*
X027400Y002933D01*
X027400Y003433D01*
X027650Y003683D01*
X027400Y003933D01*
X027400Y004433D01*
X027650Y004683D01*
X027400Y004933D01*
X027400Y005433D01*
X027650Y005683D01*
X027400Y005933D01*
X027400Y006433D01*
X027650Y006683D01*
X027400Y006933D01*
X027400Y007433D01*
X027650Y007683D01*
X027400Y007933D01*
X027400Y008433D01*
X027650Y008683D01*
X028150Y008683D01*
X028400Y008933D01*
X028400Y009433D01*
X028150Y009683D01*
X028400Y009933D01*
X028400Y010433D01*
X028150Y010683D01*
X028400Y010933D01*
X028400Y011433D01*
X028150Y011683D01*
X028400Y011933D01*
X028400Y012433D01*
X028150Y012683D01*
X028400Y012933D01*
X028400Y013433D01*
X028150Y013683D01*
X028400Y013933D01*
X028400Y014433D01*
X028150Y014683D01*
X028400Y014933D01*
X028400Y015433D01*
X028150Y015683D01*
X028400Y015933D01*
X028400Y016433D01*
X028150Y016683D01*
X027650Y016683D01*
X027400Y016433D01*
X027400Y015933D01*
X027650Y015683D01*
X027400Y015433D01*
X027400Y014933D01*
X027650Y014683D01*
X027400Y014433D01*
X027400Y013933D01*
X027650Y013683D01*
X027400Y013433D01*
X027650Y016683D02*
X027400Y016933D01*
X027400Y017433D01*
X027650Y017683D01*
X027400Y017933D01*
X027400Y018433D01*
X027650Y018683D01*
X027400Y018933D01*
X027400Y019433D01*
X027650Y019683D01*
X027400Y019933D01*
X027400Y020433D01*
X027650Y020683D01*
X027400Y020933D01*
X027400Y021433D01*
X027650Y021683D01*
X027400Y021933D01*
X027400Y022433D01*
X027650Y022683D01*
X027400Y022933D01*
X027400Y023433D01*
X027650Y023683D01*
X027400Y023933D01*
X027400Y024433D01*
X027650Y024683D01*
X028150Y024683D01*
X028400Y024433D01*
X028400Y023933D01*
X028150Y023683D01*
X028400Y023433D01*
X028400Y022933D01*
X028150Y022683D01*
X028400Y022433D01*
X028400Y021933D01*
X028150Y021683D01*
X028400Y021433D01*
X028400Y020933D01*
X028150Y020683D01*
X028400Y020433D01*
X028400Y019933D01*
X028150Y019683D01*
X028400Y019433D01*
X028400Y018933D01*
X028150Y018683D01*
X028400Y018433D01*
X028400Y017933D01*
X028150Y017683D01*
X028400Y017433D01*
X028400Y016933D01*
X028150Y016683D01*
X027650Y016683D01*
X023306Y020613D02*
X023306Y021254D01*
X022985Y020934D01*
X023412Y020934D01*
X022124Y021040D02*
X021804Y020827D01*
X022124Y020613D01*
X021804Y020613D02*
X021804Y021254D01*
X021586Y021040D02*
X021266Y021040D01*
X021159Y020934D01*
X021159Y020720D01*
X021266Y020613D01*
X021586Y020613D01*
X020942Y020613D02*
X020621Y020613D01*
X020515Y020720D01*
X020621Y020827D01*
X020942Y020827D01*
X020942Y020934D02*
X020942Y020613D01*
X020942Y020934D02*
X020835Y021040D01*
X020621Y021040D01*
X020297Y021254D02*
X020084Y021254D01*
X020190Y021254D02*
X020190Y020720D01*
X020084Y020613D01*
X019977Y020613D01*
X019870Y020720D01*
X020084Y005254D02*
X020297Y005254D01*
X020190Y005254D02*
X020190Y004720D01*
X020084Y004613D01*
X019977Y004613D01*
X019870Y004720D01*
X020515Y004720D02*
X020621Y004613D01*
X020942Y004613D01*
X020942Y004934D01*
X020835Y005040D01*
X020621Y005040D01*
X020621Y004827D02*
X020942Y004827D01*
X021159Y004934D02*
X021159Y004720D01*
X021266Y004613D01*
X021586Y004613D01*
X021804Y004613D02*
X021804Y005254D01*
X021586Y005040D02*
X021266Y005040D01*
X021159Y004934D01*
X020621Y004827D02*
X020515Y004720D01*
X021804Y004827D02*
X022124Y005040D01*
X021804Y004827D02*
X022124Y004613D01*
X022985Y004720D02*
X023092Y004613D01*
X023306Y004613D01*
X023412Y004720D01*
X023412Y004827D01*
X023306Y004934D01*
X022985Y004934D01*
X022985Y004720D01*
X022985Y004934D02*
X023199Y005147D01*
X023412Y005254D01*
D11*
X016033Y008317D02*
X016033Y008394D01*
X015957Y008471D01*
X015573Y008471D01*
X015880Y008471D02*
X015880Y008240D01*
X015803Y008164D01*
X015573Y008164D01*
X015650Y008010D02*
X015573Y007934D01*
X015573Y007703D01*
X015420Y007703D02*
X015880Y007703D01*
X015880Y007934D01*
X015803Y008010D01*
X015650Y008010D01*
X014880Y008010D02*
X014880Y007703D01*
X014880Y007857D02*
X014420Y007857D01*
X014573Y007703D01*
X014496Y008164D02*
X014420Y008240D01*
X014420Y008394D01*
X014496Y008471D01*
X014803Y008164D01*
X014880Y008240D01*
X014880Y008394D01*
X014803Y008471D01*
X014496Y008471D01*
X014496Y008164D02*
X014803Y008164D01*
X014880Y008624D02*
X014420Y008931D01*
X014573Y009085D02*
X014420Y009238D01*
X014880Y009238D01*
X014880Y009085D02*
X014880Y009391D01*
X014650Y009545D02*
X014650Y009852D01*
X014880Y009775D02*
X014420Y009775D01*
X014650Y009545D01*
X015420Y009545D02*
X015420Y009775D01*
X015496Y009852D01*
X015573Y009852D01*
X015650Y009775D01*
X015650Y009545D01*
X015650Y009391D02*
X015496Y009391D01*
X015420Y009315D01*
X015420Y009085D01*
X015880Y009085D01*
X015727Y009085D02*
X015727Y009315D01*
X015650Y009391D01*
X015880Y009545D02*
X015420Y009545D01*
X015650Y009775D02*
X015727Y009852D01*
X015803Y009852D01*
X015880Y009775D01*
X015880Y009545D01*
X015880Y010005D02*
X015573Y010005D01*
X015420Y010159D01*
X015573Y010312D01*
X015880Y010312D01*
X015880Y010466D02*
X015880Y010619D01*
X015880Y010542D02*
X015420Y010542D01*
X015420Y010466D02*
X015420Y010619D01*
X015650Y010312D02*
X015650Y010005D01*
X015727Y011233D02*
X015573Y011386D01*
X015496Y011386D01*
X015420Y011310D01*
X015496Y011233D01*
X015573Y011233D01*
X015880Y011540D01*
X015727Y011540D02*
X015880Y011386D01*
X015880Y011310D01*
X015803Y011233D01*
X015727Y011233D01*
X015803Y012154D02*
X015420Y012154D01*
X015420Y012461D02*
X015803Y012461D01*
X015880Y012384D01*
X015880Y012231D01*
X015803Y012154D01*
X015880Y012614D02*
X015420Y012614D01*
X015420Y012921D02*
X015880Y012921D01*
X015727Y012768D01*
X015880Y012614D01*
X015803Y013075D02*
X015727Y013151D01*
X015727Y013382D01*
X015650Y013382D02*
X015880Y013382D01*
X015880Y013151D01*
X015803Y013075D01*
X015573Y013151D02*
X015573Y013305D01*
X015650Y013382D01*
X015573Y013535D02*
X015573Y013688D01*
X015496Y013612D02*
X015803Y013612D01*
X015880Y013688D01*
X015803Y013842D02*
X015650Y013842D01*
X015573Y013919D01*
X015573Y014072D01*
X015650Y014149D01*
X015727Y014149D01*
X015727Y013842D01*
X015803Y013842D02*
X015880Y013919D01*
X015880Y014072D01*
X015880Y014302D02*
X015573Y014302D01*
X015727Y014302D02*
X015573Y014456D01*
X015573Y014532D01*
X015420Y014686D02*
X015420Y014763D01*
X015880Y014763D01*
X015880Y014839D02*
X015880Y014686D01*
X015803Y014993D02*
X015880Y015070D01*
X015880Y015223D01*
X015803Y015300D01*
X015650Y015300D01*
X015573Y015223D01*
X015573Y015070D01*
X015650Y014993D01*
X015803Y014993D01*
X015803Y015453D02*
X015880Y015530D01*
X015880Y015683D01*
X015803Y015760D01*
X015650Y015760D01*
X015573Y015683D01*
X015573Y015530D01*
X015650Y015453D01*
X015803Y015453D01*
D12*
X026775Y016033D02*
X026775Y016184D01*
X026850Y016259D01*
X026925Y016259D01*
X027000Y016184D01*
X027075Y016259D01*
X027150Y016259D01*
X027225Y016184D01*
X027225Y016033D01*
X027150Y015958D01*
X027075Y015958D01*
X027000Y016033D01*
X027000Y016184D01*
X027000Y016033D02*
X026925Y015958D01*
X026850Y015958D01*
X026775Y016033D01*
X028575Y017158D02*
X029025Y017158D01*
X029025Y017008D02*
X029025Y017309D01*
X028725Y017008D02*
X028575Y017158D01*
X027150Y023958D02*
X027075Y023958D01*
X027000Y024033D01*
X027000Y024184D01*
X027075Y024259D01*
X027150Y024259D01*
X027225Y024184D01*
X027225Y024033D01*
X027150Y023958D01*
X027000Y024033D02*
X026925Y023958D01*
X026850Y023958D01*
X026775Y024033D01*
X026775Y024184D01*
X026850Y024259D01*
X026925Y024259D01*
X027000Y024184D01*
X029025Y009309D02*
X029025Y009008D01*
X029025Y009158D02*
X028575Y009158D01*
X028725Y009008D01*
X027225Y008184D02*
X027225Y008033D01*
X027150Y007958D01*
X027075Y007958D01*
X027000Y008033D01*
X026925Y007958D01*
X026850Y007958D01*
X026775Y008033D01*
X026775Y008184D01*
X026850Y008259D01*
X026925Y008259D01*
X027000Y008184D01*
X027075Y008259D01*
X027150Y008259D01*
X027225Y008184D01*
X027000Y008184D02*
X027000Y008033D01*
X029025Y001309D02*
X029025Y001008D01*
X029025Y001158D02*
X028575Y001158D01*
X028725Y001008D01*
X003025Y001073D02*
X002950Y000998D01*
X002875Y000998D01*
X002800Y001073D01*
X002800Y001223D01*
X002875Y001298D01*
X002950Y001298D01*
X003025Y001223D01*
X003025Y001073D01*
X002800Y001073D02*
X002725Y000998D01*
X002650Y000998D01*
X002575Y001073D01*
X002575Y001223D01*
X002650Y001298D01*
X002725Y001298D01*
X002800Y001223D01*
X001225Y007948D02*
X001225Y008248D01*
X001225Y008098D02*
X000775Y008098D01*
X000925Y007948D01*
X002575Y009073D02*
X002575Y009223D01*
X002650Y009298D01*
X002725Y009298D01*
X002800Y009223D01*
X002800Y009073D01*
X002725Y008998D01*
X002650Y008998D01*
X002575Y009073D01*
X002800Y009073D02*
X002875Y008998D01*
X002950Y008998D01*
X003025Y009073D01*
X003025Y009223D01*
X002950Y009298D01*
X002875Y009298D01*
X002800Y009223D01*
X001225Y015948D02*
X001225Y016248D01*
X001225Y016098D02*
X000775Y016098D01*
X000925Y015948D01*
X002575Y017073D02*
X002575Y017223D01*
X002650Y017298D01*
X002725Y017298D01*
X002800Y017223D01*
X002800Y017073D01*
X002725Y016998D01*
X002650Y016998D01*
X002575Y017073D01*
X002800Y017073D02*
X002875Y016998D01*
X002950Y016998D01*
X003025Y017073D01*
X003025Y017223D01*
X002950Y017298D01*
X002875Y017298D01*
X002800Y017223D01*
X001225Y023948D02*
X001225Y024248D01*
X001225Y024098D02*
X000775Y024098D01*
X000925Y023948D01*
D13*
X001900Y024183D03*
X001900Y023183D03*
X001900Y022183D03*
X001900Y021183D03*
X001900Y020183D03*
X001900Y019183D03*
X001900Y018183D03*
X001900Y017183D03*
X001900Y016183D03*
X001900Y015183D03*
X001900Y014183D03*
X001900Y013183D03*
X001900Y012183D03*
X001900Y011183D03*
X001900Y010183D03*
X001900Y009183D03*
X001900Y008183D03*
X001900Y007183D03*
X001900Y006183D03*
X001900Y005183D03*
X001900Y004183D03*
X001900Y003183D03*
X001900Y002183D03*
X001900Y001183D03*
X027900Y001183D03*
X027900Y002183D03*
X027900Y003183D03*
X027900Y004183D03*
X027900Y005183D03*
X027900Y006183D03*
X027900Y007183D03*
X027900Y008183D03*
X027900Y009183D03*
X027900Y010183D03*
X027900Y011183D03*
X027900Y012183D03*
X027900Y013183D03*
X027900Y014183D03*
X027900Y015183D03*
X027900Y016183D03*
X027900Y017183D03*
X027900Y018183D03*
X027900Y019183D03*
X027900Y020183D03*
X027900Y021183D03*
X027900Y022183D03*
X027900Y023183D03*
X027900Y024183D03*
M02*
