G75*
%MOIN*%
%OFA0B0*%
%FSLAX24Y24*%
%IPPOS*%
%LPD*%
%AMOC8*
5,1,8,0,0,1.08239X$1,22.5*
%
%ADD10C,0.0000*%
%ADD11C,0.0554*%
%ADD12R,0.0554X0.0554*%
%ADD13C,0.0600*%
%ADD14C,0.0320*%
%ADD15C,0.0120*%
D10*
X000100Y000283D02*
X000100Y025583D01*
X029900Y025583D01*
X029900Y000283D01*
X000100Y000283D01*
X007460Y002533D02*
X007462Y002583D01*
X007468Y002633D01*
X007478Y002682D01*
X007491Y002731D01*
X007509Y002778D01*
X007530Y002824D01*
X007554Y002867D01*
X007582Y002909D01*
X007613Y002949D01*
X007647Y002986D01*
X007684Y003020D01*
X007724Y003051D01*
X007766Y003079D01*
X007809Y003103D01*
X007855Y003124D01*
X007902Y003142D01*
X007951Y003155D01*
X008000Y003165D01*
X008050Y003171D01*
X008100Y003173D01*
X008150Y003171D01*
X008200Y003165D01*
X008249Y003155D01*
X008298Y003142D01*
X008345Y003124D01*
X008391Y003103D01*
X008434Y003079D01*
X008476Y003051D01*
X008516Y003020D01*
X008553Y002986D01*
X008587Y002949D01*
X008618Y002909D01*
X008646Y002867D01*
X008670Y002824D01*
X008691Y002778D01*
X008709Y002731D01*
X008722Y002682D01*
X008732Y002633D01*
X008738Y002583D01*
X008740Y002533D01*
X008738Y002483D01*
X008732Y002433D01*
X008722Y002384D01*
X008709Y002335D01*
X008691Y002288D01*
X008670Y002242D01*
X008646Y002199D01*
X008618Y002157D01*
X008587Y002117D01*
X008553Y002080D01*
X008516Y002046D01*
X008476Y002015D01*
X008434Y001987D01*
X008391Y001963D01*
X008345Y001942D01*
X008298Y001924D01*
X008249Y001911D01*
X008200Y001901D01*
X008150Y001895D01*
X008100Y001893D01*
X008050Y001895D01*
X008000Y001901D01*
X007951Y001911D01*
X007902Y001924D01*
X007855Y001942D01*
X007809Y001963D01*
X007766Y001987D01*
X007724Y002015D01*
X007684Y002046D01*
X007647Y002080D01*
X007613Y002117D01*
X007582Y002157D01*
X007554Y002199D01*
X007530Y002242D01*
X007509Y002288D01*
X007491Y002335D01*
X007478Y002384D01*
X007468Y002433D01*
X007462Y002483D01*
X007460Y002533D01*
X007460Y007033D02*
X007462Y007083D01*
X007468Y007133D01*
X007478Y007182D01*
X007491Y007231D01*
X007509Y007278D01*
X007530Y007324D01*
X007554Y007367D01*
X007582Y007409D01*
X007613Y007449D01*
X007647Y007486D01*
X007684Y007520D01*
X007724Y007551D01*
X007766Y007579D01*
X007809Y007603D01*
X007855Y007624D01*
X007902Y007642D01*
X007951Y007655D01*
X008000Y007665D01*
X008050Y007671D01*
X008100Y007673D01*
X008150Y007671D01*
X008200Y007665D01*
X008249Y007655D01*
X008298Y007642D01*
X008345Y007624D01*
X008391Y007603D01*
X008434Y007579D01*
X008476Y007551D01*
X008516Y007520D01*
X008553Y007486D01*
X008587Y007449D01*
X008618Y007409D01*
X008646Y007367D01*
X008670Y007324D01*
X008691Y007278D01*
X008709Y007231D01*
X008722Y007182D01*
X008732Y007133D01*
X008738Y007083D01*
X008740Y007033D01*
X008738Y006983D01*
X008732Y006933D01*
X008722Y006884D01*
X008709Y006835D01*
X008691Y006788D01*
X008670Y006742D01*
X008646Y006699D01*
X008618Y006657D01*
X008587Y006617D01*
X008553Y006580D01*
X008516Y006546D01*
X008476Y006515D01*
X008434Y006487D01*
X008391Y006463D01*
X008345Y006442D01*
X008298Y006424D01*
X008249Y006411D01*
X008200Y006401D01*
X008150Y006395D01*
X008100Y006393D01*
X008050Y006395D01*
X008000Y006401D01*
X007951Y006411D01*
X007902Y006424D01*
X007855Y006442D01*
X007809Y006463D01*
X007766Y006487D01*
X007724Y006515D01*
X007684Y006546D01*
X007647Y006580D01*
X007613Y006617D01*
X007582Y006657D01*
X007554Y006699D01*
X007530Y006742D01*
X007509Y006788D01*
X007491Y006835D01*
X007478Y006884D01*
X007468Y006933D01*
X007462Y006983D01*
X007460Y007033D01*
X007460Y010533D02*
X007462Y010583D01*
X007468Y010633D01*
X007478Y010682D01*
X007491Y010731D01*
X007509Y010778D01*
X007530Y010824D01*
X007554Y010867D01*
X007582Y010909D01*
X007613Y010949D01*
X007647Y010986D01*
X007684Y011020D01*
X007724Y011051D01*
X007766Y011079D01*
X007809Y011103D01*
X007855Y011124D01*
X007902Y011142D01*
X007951Y011155D01*
X008000Y011165D01*
X008050Y011171D01*
X008100Y011173D01*
X008150Y011171D01*
X008200Y011165D01*
X008249Y011155D01*
X008298Y011142D01*
X008345Y011124D01*
X008391Y011103D01*
X008434Y011079D01*
X008476Y011051D01*
X008516Y011020D01*
X008553Y010986D01*
X008587Y010949D01*
X008618Y010909D01*
X008646Y010867D01*
X008670Y010824D01*
X008691Y010778D01*
X008709Y010731D01*
X008722Y010682D01*
X008732Y010633D01*
X008738Y010583D01*
X008740Y010533D01*
X008738Y010483D01*
X008732Y010433D01*
X008722Y010384D01*
X008709Y010335D01*
X008691Y010288D01*
X008670Y010242D01*
X008646Y010199D01*
X008618Y010157D01*
X008587Y010117D01*
X008553Y010080D01*
X008516Y010046D01*
X008476Y010015D01*
X008434Y009987D01*
X008391Y009963D01*
X008345Y009942D01*
X008298Y009924D01*
X008249Y009911D01*
X008200Y009901D01*
X008150Y009895D01*
X008100Y009893D01*
X008050Y009895D01*
X008000Y009901D01*
X007951Y009911D01*
X007902Y009924D01*
X007855Y009942D01*
X007809Y009963D01*
X007766Y009987D01*
X007724Y010015D01*
X007684Y010046D01*
X007647Y010080D01*
X007613Y010117D01*
X007582Y010157D01*
X007554Y010199D01*
X007530Y010242D01*
X007509Y010288D01*
X007491Y010335D01*
X007478Y010384D01*
X007468Y010433D01*
X007462Y010483D01*
X007460Y010533D01*
X007460Y015033D02*
X007462Y015083D01*
X007468Y015133D01*
X007478Y015182D01*
X007491Y015231D01*
X007509Y015278D01*
X007530Y015324D01*
X007554Y015367D01*
X007582Y015409D01*
X007613Y015449D01*
X007647Y015486D01*
X007684Y015520D01*
X007724Y015551D01*
X007766Y015579D01*
X007809Y015603D01*
X007855Y015624D01*
X007902Y015642D01*
X007951Y015655D01*
X008000Y015665D01*
X008050Y015671D01*
X008100Y015673D01*
X008150Y015671D01*
X008200Y015665D01*
X008249Y015655D01*
X008298Y015642D01*
X008345Y015624D01*
X008391Y015603D01*
X008434Y015579D01*
X008476Y015551D01*
X008516Y015520D01*
X008553Y015486D01*
X008587Y015449D01*
X008618Y015409D01*
X008646Y015367D01*
X008670Y015324D01*
X008691Y015278D01*
X008709Y015231D01*
X008722Y015182D01*
X008732Y015133D01*
X008738Y015083D01*
X008740Y015033D01*
X008738Y014983D01*
X008732Y014933D01*
X008722Y014884D01*
X008709Y014835D01*
X008691Y014788D01*
X008670Y014742D01*
X008646Y014699D01*
X008618Y014657D01*
X008587Y014617D01*
X008553Y014580D01*
X008516Y014546D01*
X008476Y014515D01*
X008434Y014487D01*
X008391Y014463D01*
X008345Y014442D01*
X008298Y014424D01*
X008249Y014411D01*
X008200Y014401D01*
X008150Y014395D01*
X008100Y014393D01*
X008050Y014395D01*
X008000Y014401D01*
X007951Y014411D01*
X007902Y014424D01*
X007855Y014442D01*
X007809Y014463D01*
X007766Y014487D01*
X007724Y014515D01*
X007684Y014546D01*
X007647Y014580D01*
X007613Y014617D01*
X007582Y014657D01*
X007554Y014699D01*
X007530Y014742D01*
X007509Y014788D01*
X007491Y014835D01*
X007478Y014884D01*
X007468Y014933D01*
X007462Y014983D01*
X007460Y015033D01*
X007460Y018533D02*
X007462Y018583D01*
X007468Y018633D01*
X007478Y018682D01*
X007491Y018731D01*
X007509Y018778D01*
X007530Y018824D01*
X007554Y018867D01*
X007582Y018909D01*
X007613Y018949D01*
X007647Y018986D01*
X007684Y019020D01*
X007724Y019051D01*
X007766Y019079D01*
X007809Y019103D01*
X007855Y019124D01*
X007902Y019142D01*
X007951Y019155D01*
X008000Y019165D01*
X008050Y019171D01*
X008100Y019173D01*
X008150Y019171D01*
X008200Y019165D01*
X008249Y019155D01*
X008298Y019142D01*
X008345Y019124D01*
X008391Y019103D01*
X008434Y019079D01*
X008476Y019051D01*
X008516Y019020D01*
X008553Y018986D01*
X008587Y018949D01*
X008618Y018909D01*
X008646Y018867D01*
X008670Y018824D01*
X008691Y018778D01*
X008709Y018731D01*
X008722Y018682D01*
X008732Y018633D01*
X008738Y018583D01*
X008740Y018533D01*
X008738Y018483D01*
X008732Y018433D01*
X008722Y018384D01*
X008709Y018335D01*
X008691Y018288D01*
X008670Y018242D01*
X008646Y018199D01*
X008618Y018157D01*
X008587Y018117D01*
X008553Y018080D01*
X008516Y018046D01*
X008476Y018015D01*
X008434Y017987D01*
X008391Y017963D01*
X008345Y017942D01*
X008298Y017924D01*
X008249Y017911D01*
X008200Y017901D01*
X008150Y017895D01*
X008100Y017893D01*
X008050Y017895D01*
X008000Y017901D01*
X007951Y017911D01*
X007902Y017924D01*
X007855Y017942D01*
X007809Y017963D01*
X007766Y017987D01*
X007724Y018015D01*
X007684Y018046D01*
X007647Y018080D01*
X007613Y018117D01*
X007582Y018157D01*
X007554Y018199D01*
X007530Y018242D01*
X007509Y018288D01*
X007491Y018335D01*
X007478Y018384D01*
X007468Y018433D01*
X007462Y018483D01*
X007460Y018533D01*
X007460Y023033D02*
X007462Y023083D01*
X007468Y023133D01*
X007478Y023182D01*
X007491Y023231D01*
X007509Y023278D01*
X007530Y023324D01*
X007554Y023367D01*
X007582Y023409D01*
X007613Y023449D01*
X007647Y023486D01*
X007684Y023520D01*
X007724Y023551D01*
X007766Y023579D01*
X007809Y023603D01*
X007855Y023624D01*
X007902Y023642D01*
X007951Y023655D01*
X008000Y023665D01*
X008050Y023671D01*
X008100Y023673D01*
X008150Y023671D01*
X008200Y023665D01*
X008249Y023655D01*
X008298Y023642D01*
X008345Y023624D01*
X008391Y023603D01*
X008434Y023579D01*
X008476Y023551D01*
X008516Y023520D01*
X008553Y023486D01*
X008587Y023449D01*
X008618Y023409D01*
X008646Y023367D01*
X008670Y023324D01*
X008691Y023278D01*
X008709Y023231D01*
X008722Y023182D01*
X008732Y023133D01*
X008738Y023083D01*
X008740Y023033D01*
X008738Y022983D01*
X008732Y022933D01*
X008722Y022884D01*
X008709Y022835D01*
X008691Y022788D01*
X008670Y022742D01*
X008646Y022699D01*
X008618Y022657D01*
X008587Y022617D01*
X008553Y022580D01*
X008516Y022546D01*
X008476Y022515D01*
X008434Y022487D01*
X008391Y022463D01*
X008345Y022442D01*
X008298Y022424D01*
X008249Y022411D01*
X008200Y022401D01*
X008150Y022395D01*
X008100Y022393D01*
X008050Y022395D01*
X008000Y022401D01*
X007951Y022411D01*
X007902Y022424D01*
X007855Y022442D01*
X007809Y022463D01*
X007766Y022487D01*
X007724Y022515D01*
X007684Y022546D01*
X007647Y022580D01*
X007613Y022617D01*
X007582Y022657D01*
X007554Y022699D01*
X007530Y022742D01*
X007509Y022788D01*
X007491Y022835D01*
X007478Y022884D01*
X007468Y022933D01*
X007462Y022983D01*
X007460Y023033D01*
X021060Y023033D02*
X021062Y023083D01*
X021068Y023133D01*
X021078Y023182D01*
X021091Y023231D01*
X021109Y023278D01*
X021130Y023324D01*
X021154Y023367D01*
X021182Y023409D01*
X021213Y023449D01*
X021247Y023486D01*
X021284Y023520D01*
X021324Y023551D01*
X021366Y023579D01*
X021409Y023603D01*
X021455Y023624D01*
X021502Y023642D01*
X021551Y023655D01*
X021600Y023665D01*
X021650Y023671D01*
X021700Y023673D01*
X021750Y023671D01*
X021800Y023665D01*
X021849Y023655D01*
X021898Y023642D01*
X021945Y023624D01*
X021991Y023603D01*
X022034Y023579D01*
X022076Y023551D01*
X022116Y023520D01*
X022153Y023486D01*
X022187Y023449D01*
X022218Y023409D01*
X022246Y023367D01*
X022270Y023324D01*
X022291Y023278D01*
X022309Y023231D01*
X022322Y023182D01*
X022332Y023133D01*
X022338Y023083D01*
X022340Y023033D01*
X022338Y022983D01*
X022332Y022933D01*
X022322Y022884D01*
X022309Y022835D01*
X022291Y022788D01*
X022270Y022742D01*
X022246Y022699D01*
X022218Y022657D01*
X022187Y022617D01*
X022153Y022580D01*
X022116Y022546D01*
X022076Y022515D01*
X022034Y022487D01*
X021991Y022463D01*
X021945Y022442D01*
X021898Y022424D01*
X021849Y022411D01*
X021800Y022401D01*
X021750Y022395D01*
X021700Y022393D01*
X021650Y022395D01*
X021600Y022401D01*
X021551Y022411D01*
X021502Y022424D01*
X021455Y022442D01*
X021409Y022463D01*
X021366Y022487D01*
X021324Y022515D01*
X021284Y022546D01*
X021247Y022580D01*
X021213Y022617D01*
X021182Y022657D01*
X021154Y022699D01*
X021130Y022742D01*
X021109Y022788D01*
X021091Y022835D01*
X021078Y022884D01*
X021068Y022933D01*
X021062Y022983D01*
X021060Y023033D01*
X021060Y018533D02*
X021062Y018583D01*
X021068Y018633D01*
X021078Y018682D01*
X021091Y018731D01*
X021109Y018778D01*
X021130Y018824D01*
X021154Y018867D01*
X021182Y018909D01*
X021213Y018949D01*
X021247Y018986D01*
X021284Y019020D01*
X021324Y019051D01*
X021366Y019079D01*
X021409Y019103D01*
X021455Y019124D01*
X021502Y019142D01*
X021551Y019155D01*
X021600Y019165D01*
X021650Y019171D01*
X021700Y019173D01*
X021750Y019171D01*
X021800Y019165D01*
X021849Y019155D01*
X021898Y019142D01*
X021945Y019124D01*
X021991Y019103D01*
X022034Y019079D01*
X022076Y019051D01*
X022116Y019020D01*
X022153Y018986D01*
X022187Y018949D01*
X022218Y018909D01*
X022246Y018867D01*
X022270Y018824D01*
X022291Y018778D01*
X022309Y018731D01*
X022322Y018682D01*
X022332Y018633D01*
X022338Y018583D01*
X022340Y018533D01*
X022338Y018483D01*
X022332Y018433D01*
X022322Y018384D01*
X022309Y018335D01*
X022291Y018288D01*
X022270Y018242D01*
X022246Y018199D01*
X022218Y018157D01*
X022187Y018117D01*
X022153Y018080D01*
X022116Y018046D01*
X022076Y018015D01*
X022034Y017987D01*
X021991Y017963D01*
X021945Y017942D01*
X021898Y017924D01*
X021849Y017911D01*
X021800Y017901D01*
X021750Y017895D01*
X021700Y017893D01*
X021650Y017895D01*
X021600Y017901D01*
X021551Y017911D01*
X021502Y017924D01*
X021455Y017942D01*
X021409Y017963D01*
X021366Y017987D01*
X021324Y018015D01*
X021284Y018046D01*
X021247Y018080D01*
X021213Y018117D01*
X021182Y018157D01*
X021154Y018199D01*
X021130Y018242D01*
X021109Y018288D01*
X021091Y018335D01*
X021078Y018384D01*
X021068Y018433D01*
X021062Y018483D01*
X021060Y018533D01*
X021060Y015033D02*
X021062Y015083D01*
X021068Y015133D01*
X021078Y015182D01*
X021091Y015231D01*
X021109Y015278D01*
X021130Y015324D01*
X021154Y015367D01*
X021182Y015409D01*
X021213Y015449D01*
X021247Y015486D01*
X021284Y015520D01*
X021324Y015551D01*
X021366Y015579D01*
X021409Y015603D01*
X021455Y015624D01*
X021502Y015642D01*
X021551Y015655D01*
X021600Y015665D01*
X021650Y015671D01*
X021700Y015673D01*
X021750Y015671D01*
X021800Y015665D01*
X021849Y015655D01*
X021898Y015642D01*
X021945Y015624D01*
X021991Y015603D01*
X022034Y015579D01*
X022076Y015551D01*
X022116Y015520D01*
X022153Y015486D01*
X022187Y015449D01*
X022218Y015409D01*
X022246Y015367D01*
X022270Y015324D01*
X022291Y015278D01*
X022309Y015231D01*
X022322Y015182D01*
X022332Y015133D01*
X022338Y015083D01*
X022340Y015033D01*
X022338Y014983D01*
X022332Y014933D01*
X022322Y014884D01*
X022309Y014835D01*
X022291Y014788D01*
X022270Y014742D01*
X022246Y014699D01*
X022218Y014657D01*
X022187Y014617D01*
X022153Y014580D01*
X022116Y014546D01*
X022076Y014515D01*
X022034Y014487D01*
X021991Y014463D01*
X021945Y014442D01*
X021898Y014424D01*
X021849Y014411D01*
X021800Y014401D01*
X021750Y014395D01*
X021700Y014393D01*
X021650Y014395D01*
X021600Y014401D01*
X021551Y014411D01*
X021502Y014424D01*
X021455Y014442D01*
X021409Y014463D01*
X021366Y014487D01*
X021324Y014515D01*
X021284Y014546D01*
X021247Y014580D01*
X021213Y014617D01*
X021182Y014657D01*
X021154Y014699D01*
X021130Y014742D01*
X021109Y014788D01*
X021091Y014835D01*
X021078Y014884D01*
X021068Y014933D01*
X021062Y014983D01*
X021060Y015033D01*
X021060Y010533D02*
X021062Y010583D01*
X021068Y010633D01*
X021078Y010682D01*
X021091Y010731D01*
X021109Y010778D01*
X021130Y010824D01*
X021154Y010867D01*
X021182Y010909D01*
X021213Y010949D01*
X021247Y010986D01*
X021284Y011020D01*
X021324Y011051D01*
X021366Y011079D01*
X021409Y011103D01*
X021455Y011124D01*
X021502Y011142D01*
X021551Y011155D01*
X021600Y011165D01*
X021650Y011171D01*
X021700Y011173D01*
X021750Y011171D01*
X021800Y011165D01*
X021849Y011155D01*
X021898Y011142D01*
X021945Y011124D01*
X021991Y011103D01*
X022034Y011079D01*
X022076Y011051D01*
X022116Y011020D01*
X022153Y010986D01*
X022187Y010949D01*
X022218Y010909D01*
X022246Y010867D01*
X022270Y010824D01*
X022291Y010778D01*
X022309Y010731D01*
X022322Y010682D01*
X022332Y010633D01*
X022338Y010583D01*
X022340Y010533D01*
X022338Y010483D01*
X022332Y010433D01*
X022322Y010384D01*
X022309Y010335D01*
X022291Y010288D01*
X022270Y010242D01*
X022246Y010199D01*
X022218Y010157D01*
X022187Y010117D01*
X022153Y010080D01*
X022116Y010046D01*
X022076Y010015D01*
X022034Y009987D01*
X021991Y009963D01*
X021945Y009942D01*
X021898Y009924D01*
X021849Y009911D01*
X021800Y009901D01*
X021750Y009895D01*
X021700Y009893D01*
X021650Y009895D01*
X021600Y009901D01*
X021551Y009911D01*
X021502Y009924D01*
X021455Y009942D01*
X021409Y009963D01*
X021366Y009987D01*
X021324Y010015D01*
X021284Y010046D01*
X021247Y010080D01*
X021213Y010117D01*
X021182Y010157D01*
X021154Y010199D01*
X021130Y010242D01*
X021109Y010288D01*
X021091Y010335D01*
X021078Y010384D01*
X021068Y010433D01*
X021062Y010483D01*
X021060Y010533D01*
X021060Y007033D02*
X021062Y007083D01*
X021068Y007133D01*
X021078Y007182D01*
X021091Y007231D01*
X021109Y007278D01*
X021130Y007324D01*
X021154Y007367D01*
X021182Y007409D01*
X021213Y007449D01*
X021247Y007486D01*
X021284Y007520D01*
X021324Y007551D01*
X021366Y007579D01*
X021409Y007603D01*
X021455Y007624D01*
X021502Y007642D01*
X021551Y007655D01*
X021600Y007665D01*
X021650Y007671D01*
X021700Y007673D01*
X021750Y007671D01*
X021800Y007665D01*
X021849Y007655D01*
X021898Y007642D01*
X021945Y007624D01*
X021991Y007603D01*
X022034Y007579D01*
X022076Y007551D01*
X022116Y007520D01*
X022153Y007486D01*
X022187Y007449D01*
X022218Y007409D01*
X022246Y007367D01*
X022270Y007324D01*
X022291Y007278D01*
X022309Y007231D01*
X022322Y007182D01*
X022332Y007133D01*
X022338Y007083D01*
X022340Y007033D01*
X022338Y006983D01*
X022332Y006933D01*
X022322Y006884D01*
X022309Y006835D01*
X022291Y006788D01*
X022270Y006742D01*
X022246Y006699D01*
X022218Y006657D01*
X022187Y006617D01*
X022153Y006580D01*
X022116Y006546D01*
X022076Y006515D01*
X022034Y006487D01*
X021991Y006463D01*
X021945Y006442D01*
X021898Y006424D01*
X021849Y006411D01*
X021800Y006401D01*
X021750Y006395D01*
X021700Y006393D01*
X021650Y006395D01*
X021600Y006401D01*
X021551Y006411D01*
X021502Y006424D01*
X021455Y006442D01*
X021409Y006463D01*
X021366Y006487D01*
X021324Y006515D01*
X021284Y006546D01*
X021247Y006580D01*
X021213Y006617D01*
X021182Y006657D01*
X021154Y006699D01*
X021130Y006742D01*
X021109Y006788D01*
X021091Y006835D01*
X021078Y006884D01*
X021068Y006933D01*
X021062Y006983D01*
X021060Y007033D01*
X021060Y002533D02*
X021062Y002583D01*
X021068Y002633D01*
X021078Y002682D01*
X021091Y002731D01*
X021109Y002778D01*
X021130Y002824D01*
X021154Y002867D01*
X021182Y002909D01*
X021213Y002949D01*
X021247Y002986D01*
X021284Y003020D01*
X021324Y003051D01*
X021366Y003079D01*
X021409Y003103D01*
X021455Y003124D01*
X021502Y003142D01*
X021551Y003155D01*
X021600Y003165D01*
X021650Y003171D01*
X021700Y003173D01*
X021750Y003171D01*
X021800Y003165D01*
X021849Y003155D01*
X021898Y003142D01*
X021945Y003124D01*
X021991Y003103D01*
X022034Y003079D01*
X022076Y003051D01*
X022116Y003020D01*
X022153Y002986D01*
X022187Y002949D01*
X022218Y002909D01*
X022246Y002867D01*
X022270Y002824D01*
X022291Y002778D01*
X022309Y002731D01*
X022322Y002682D01*
X022332Y002633D01*
X022338Y002583D01*
X022340Y002533D01*
X022338Y002483D01*
X022332Y002433D01*
X022322Y002384D01*
X022309Y002335D01*
X022291Y002288D01*
X022270Y002242D01*
X022246Y002199D01*
X022218Y002157D01*
X022187Y002117D01*
X022153Y002080D01*
X022116Y002046D01*
X022076Y002015D01*
X022034Y001987D01*
X021991Y001963D01*
X021945Y001942D01*
X021898Y001924D01*
X021849Y001911D01*
X021800Y001901D01*
X021750Y001895D01*
X021700Y001893D01*
X021650Y001895D01*
X021600Y001901D01*
X021551Y001911D01*
X021502Y001924D01*
X021455Y001942D01*
X021409Y001963D01*
X021366Y001987D01*
X021324Y002015D01*
X021284Y002046D01*
X021247Y002080D01*
X021213Y002117D01*
X021182Y002157D01*
X021154Y002199D01*
X021130Y002242D01*
X021109Y002288D01*
X021091Y002335D01*
X021078Y002384D01*
X021068Y002433D01*
X021062Y002483D01*
X021060Y002533D01*
D11*
X024200Y004033D03*
X024200Y005033D03*
X024200Y006033D03*
X025200Y005533D03*
X025200Y004533D03*
X025200Y003533D03*
X025200Y006533D03*
X025200Y011533D03*
X025200Y012533D03*
X025200Y013533D03*
X025200Y014533D03*
X024200Y014033D03*
X024200Y013033D03*
X024200Y012033D03*
X025200Y019533D03*
X025200Y020533D03*
X025200Y021533D03*
X025200Y022533D03*
X024200Y022033D03*
X024200Y021033D03*
X024200Y020033D03*
X005600Y019533D03*
X005600Y020533D03*
X004600Y020033D03*
X004600Y021033D03*
X005600Y021533D03*
X004600Y022033D03*
X004600Y019033D03*
X004600Y014033D03*
X005600Y013533D03*
X004600Y013033D03*
X005600Y012533D03*
X004600Y012033D03*
X005600Y011533D03*
X004600Y011033D03*
X004600Y006033D03*
X005600Y005533D03*
X004600Y005033D03*
X005600Y004533D03*
X004600Y004033D03*
X005600Y003533D03*
X004600Y003033D03*
D12*
X005600Y006533D03*
X005600Y014533D03*
X005600Y022533D03*
X024200Y019033D03*
X024200Y011033D03*
X024200Y003033D03*
D13*
X027600Y003183D02*
X028200Y003183D01*
X028200Y002183D02*
X027600Y002183D01*
X027600Y001183D02*
X028200Y001183D01*
X028200Y004183D02*
X027600Y004183D01*
X027600Y005183D02*
X028200Y005183D01*
X028200Y006183D02*
X027600Y006183D01*
X027600Y007183D02*
X028200Y007183D01*
X028200Y008183D02*
X027600Y008183D01*
X027600Y009183D02*
X028200Y009183D01*
X028200Y010183D02*
X027600Y010183D01*
X027600Y011183D02*
X028200Y011183D01*
X028200Y012183D02*
X027600Y012183D01*
X027600Y013183D02*
X028200Y013183D01*
X028200Y014183D02*
X027600Y014183D01*
X027600Y015183D02*
X028200Y015183D01*
X028200Y016183D02*
X027600Y016183D01*
X027600Y017183D02*
X028200Y017183D01*
X028200Y018183D02*
X027600Y018183D01*
X027600Y019183D02*
X028200Y019183D01*
X028200Y020183D02*
X027600Y020183D01*
X027600Y021183D02*
X028200Y021183D01*
X028200Y022183D02*
X027600Y022183D01*
X027600Y023183D02*
X028200Y023183D01*
X028200Y024183D02*
X027600Y024183D01*
X002200Y024183D02*
X001600Y024183D01*
X001600Y023183D02*
X002200Y023183D01*
X002200Y022183D02*
X001600Y022183D01*
X001600Y021183D02*
X002200Y021183D01*
X002200Y020183D02*
X001600Y020183D01*
X001600Y019183D02*
X002200Y019183D01*
X002200Y018183D02*
X001600Y018183D01*
X001600Y017183D02*
X002200Y017183D01*
X002200Y016183D02*
X001600Y016183D01*
X001600Y015183D02*
X002200Y015183D01*
X002200Y014183D02*
X001600Y014183D01*
X001600Y013183D02*
X002200Y013183D01*
X002200Y012183D02*
X001600Y012183D01*
X001600Y011183D02*
X002200Y011183D01*
X002200Y010183D02*
X001600Y010183D01*
X001600Y009183D02*
X002200Y009183D01*
X002200Y008183D02*
X001600Y008183D01*
X001600Y007183D02*
X002200Y007183D01*
X002200Y006183D02*
X001600Y006183D01*
X001600Y005183D02*
X002200Y005183D01*
X002200Y004183D02*
X001600Y004183D01*
X001600Y003183D02*
X002200Y003183D01*
X002200Y002183D02*
X001600Y002183D01*
X001600Y001183D02*
X002200Y001183D01*
D14*
X001900Y001183D02*
X003500Y001183D01*
X004600Y002283D01*
X004600Y003033D01*
X004600Y004033D02*
X004100Y004033D01*
X003250Y003183D01*
X001900Y003183D01*
X001900Y002183D02*
X003000Y002183D01*
X003350Y002533D01*
X003250Y004183D02*
X001900Y004183D01*
X001900Y005183D02*
X003200Y005183D01*
X003350Y005033D01*
X004600Y005033D01*
X003600Y005783D02*
X003200Y006183D01*
X001900Y006183D01*
X001900Y007183D02*
X003450Y007183D01*
X004600Y006033D01*
X005600Y006533D02*
X003950Y008183D01*
X001900Y008183D01*
X001900Y009183D02*
X003500Y009183D01*
X004600Y010283D01*
X004600Y011033D01*
X004600Y012033D02*
X004100Y012033D01*
X003250Y011183D01*
X001900Y011183D01*
X001900Y010183D02*
X003000Y010183D01*
X003350Y010533D01*
X003250Y012183D02*
X001900Y012183D01*
X001900Y013183D02*
X003200Y013183D01*
X003350Y013033D01*
X004600Y013033D01*
X003600Y013783D02*
X003200Y014183D01*
X001900Y014183D01*
X001900Y015183D02*
X003450Y015183D01*
X004600Y014033D01*
X005600Y014533D02*
X003950Y016183D01*
X001900Y016183D01*
X001900Y017183D02*
X003500Y017183D01*
X004600Y018283D01*
X004600Y019033D01*
X004600Y020033D02*
X004100Y020033D01*
X003250Y019183D01*
X001900Y019183D01*
X001900Y018183D02*
X003000Y018183D01*
X003350Y018533D01*
X003250Y020183D02*
X001900Y020183D01*
X001900Y021183D02*
X003200Y021183D01*
X003350Y021033D01*
X004600Y021033D01*
X003600Y021783D02*
X003200Y022183D01*
X001900Y022183D01*
X001900Y023183D02*
X003450Y023183D01*
X004600Y022033D01*
X005600Y022533D02*
X003950Y024183D01*
X001900Y024183D01*
X003350Y020283D02*
X003250Y020183D01*
X003350Y012283D02*
X003250Y012183D01*
X003350Y004283D02*
X003250Y004183D01*
X024200Y003033D02*
X026050Y001183D01*
X027900Y001183D01*
X027900Y002183D02*
X026550Y002183D01*
X025200Y003533D01*
X025200Y004533D02*
X026350Y004533D01*
X026700Y004183D01*
X027900Y004183D01*
X027900Y005183D02*
X027100Y005183D01*
X026900Y004983D01*
X026400Y005583D02*
X025250Y005583D01*
X025200Y005533D01*
X025200Y006533D02*
X025200Y007283D01*
X026100Y008183D01*
X027900Y008183D01*
X027900Y007183D02*
X027000Y007183D01*
X026600Y006783D01*
X027000Y006183D02*
X026400Y005583D01*
X027000Y006183D02*
X027900Y006183D01*
X027900Y009183D02*
X026050Y009183D01*
X024200Y011033D01*
X025200Y011533D02*
X026550Y010183D01*
X027900Y010183D01*
X027900Y011183D02*
X026700Y011183D01*
X026300Y011583D01*
X026800Y012183D02*
X027900Y012183D01*
X027900Y013183D02*
X026900Y013183D01*
X026150Y013533D02*
X025200Y013533D01*
X026150Y013533D02*
X026800Y014183D01*
X027900Y014183D01*
X027900Y015183D02*
X027000Y015183D01*
X026600Y014783D01*
X025200Y014533D02*
X025200Y015283D01*
X026100Y016183D01*
X027900Y016183D01*
X027900Y017183D02*
X026050Y017183D01*
X024200Y019033D01*
X025200Y019533D02*
X026550Y018183D01*
X027900Y018183D01*
X027900Y019183D02*
X026700Y019183D01*
X026350Y019533D01*
X026950Y020183D02*
X026600Y020533D01*
X025200Y020533D01*
X025200Y021533D02*
X026050Y021533D01*
X026700Y022183D01*
X027900Y022183D01*
X027900Y021183D02*
X026700Y021183D01*
X026950Y020183D02*
X027900Y020183D01*
X025200Y022533D02*
X025200Y023283D01*
X026100Y024183D01*
X027900Y024183D01*
X027900Y023183D02*
X027000Y023183D01*
X026600Y022783D01*
X026450Y012533D02*
X025200Y012533D01*
X026450Y012533D02*
X026800Y012183D01*
D15*
X026300Y011583D02*
X025850Y012033D01*
X024200Y012033D01*
X024200Y013033D02*
X026750Y013033D01*
X026900Y013183D01*
X025850Y014033D02*
X024200Y014033D01*
X025850Y014033D02*
X026600Y014783D01*
X026350Y019533D02*
X025850Y020033D01*
X024200Y020033D01*
X024200Y021033D02*
X026550Y021033D01*
X026700Y021183D01*
X025850Y022033D02*
X026600Y022783D01*
X025850Y022033D02*
X024200Y022033D01*
X026600Y006783D02*
X025850Y006033D01*
X024200Y006033D01*
X024200Y005033D02*
X026850Y005033D01*
X026900Y004983D01*
X025850Y004033D02*
X026700Y003183D01*
X027900Y003183D01*
X025850Y004033D02*
X024200Y004033D01*
X005600Y003533D02*
X004350Y003533D01*
X003350Y002533D01*
X003350Y004283D02*
X003600Y004533D01*
X005600Y004533D01*
X005600Y005533D02*
X003850Y005533D01*
X003600Y005783D01*
X003350Y010533D02*
X004350Y011533D01*
X005600Y011533D01*
X005600Y012533D02*
X003600Y012533D01*
X003350Y012283D01*
X003850Y013533D02*
X005600Y013533D01*
X003850Y013533D02*
X003600Y013783D01*
X003350Y018533D02*
X004350Y019533D01*
X005600Y019533D01*
X005600Y020533D02*
X003600Y020533D01*
X003350Y020283D01*
X003850Y021533D02*
X005600Y021533D01*
X003850Y021533D02*
X003600Y021783D01*
M02*
