G75*
%MOIN*%
%OFA0B0*%
%FSLAX24Y24*%
%IPPOS*%
%LPD*%
%AMOC8*
5,1,8,0,0,1.08239X$1,22.5*
%
%ADD10C,0.0070*%
%ADD11C,0.0100*%
%ADD12C,0.0050*%
%ADD13C,0.0080*%
%ADD14C,0.0030*%
%ADD15C,0.0200*%
%ADD16C,0.0020*%
%ADD17C,0.0010*%
%ADD18C,0.0060*%
%ADD19R,0.0900X0.0250*%
%ADD20R,0.0450X0.0502*%
%ADD21R,0.0450X0.0492*%
%ADD22C,0.0335*%
%ADD23C,0.0300*%
%ADD24R,0.0300X0.0200*%
%ADD25R,0.0300X0.0400*%
%ADD26C,0.0040*%
%ADD27R,0.0200X0.0300*%
%ADD28R,0.0400X0.0300*%
%ADD29R,0.2200X0.0300*%
%ADD30R,0.0500X0.0350*%
%ADD31C,0.0098*%
%ADD32R,0.0079X0.0079*%
D10*
X012739Y004727D02*
X012739Y004947D01*
X012849Y005057D01*
X012959Y004947D01*
X012959Y004727D01*
X013107Y004727D02*
X013327Y004727D01*
X013475Y004782D02*
X013530Y004727D01*
X013641Y004727D01*
X013696Y004782D01*
X013696Y004837D01*
X013641Y004892D01*
X013530Y004892D01*
X013475Y004947D01*
X013475Y005002D01*
X013530Y005057D01*
X013641Y005057D01*
X013696Y005002D01*
X013107Y005057D02*
X013107Y004727D01*
X012959Y004892D02*
X012739Y004892D01*
X023634Y002852D02*
X023634Y002632D01*
X023689Y002577D01*
X023799Y002577D01*
X023854Y002632D01*
X023854Y002742D01*
X023744Y002742D01*
X023854Y002852D02*
X023799Y002907D01*
X023689Y002907D01*
X023634Y002852D01*
X024002Y002907D02*
X024222Y002577D01*
X024222Y002907D01*
X024370Y002907D02*
X024536Y002907D01*
X024591Y002852D01*
X024591Y002632D01*
X024536Y002577D01*
X024370Y002577D01*
X024370Y002907D01*
X024002Y002907D02*
X024002Y002577D01*
X024884Y004077D02*
X025104Y004077D01*
X024994Y004077D02*
X024994Y004407D01*
X024884Y004297D01*
X024736Y004242D02*
X024516Y004242D01*
X024626Y004352D02*
X024626Y004132D01*
X025252Y004077D02*
X025472Y004297D01*
X025472Y004352D01*
X025417Y004407D01*
X025307Y004407D01*
X025252Y004352D01*
X025620Y004407D02*
X025620Y004187D01*
X025731Y004077D01*
X025841Y004187D01*
X025841Y004407D01*
X025472Y004077D02*
X025252Y004077D01*
X025307Y001157D02*
X025252Y001102D01*
X025307Y001157D02*
X025417Y001157D01*
X025472Y001102D01*
X025472Y001047D01*
X025252Y000827D01*
X025472Y000827D01*
X025620Y000937D02*
X025731Y000827D01*
X025841Y000937D01*
X025841Y001157D01*
X025620Y001157D02*
X025620Y000937D01*
X025104Y000827D02*
X024884Y000827D01*
X024994Y000827D02*
X024994Y001157D01*
X024884Y001047D01*
X024736Y000992D02*
X024516Y000992D01*
X024626Y001102D02*
X024626Y000882D01*
X005537Y009922D02*
X005482Y009867D01*
X005427Y009867D01*
X005372Y009977D02*
X005537Y009977D01*
X005537Y009922D02*
X005537Y010197D01*
X005317Y010197D02*
X005317Y010032D01*
X005372Y009977D01*
X005169Y010032D02*
X005114Y010087D01*
X005004Y010087D01*
X004949Y010142D01*
X005004Y010197D01*
X005169Y010197D01*
X005169Y010032D02*
X005114Y009977D01*
X004949Y009977D01*
X004801Y009977D02*
X004801Y010142D01*
X004745Y010197D01*
X004580Y010197D01*
X004580Y009977D01*
X004432Y010087D02*
X004212Y010087D01*
X004212Y010032D02*
X004212Y010142D01*
X004267Y010197D01*
X004377Y010197D01*
X004432Y010142D01*
X004432Y010087D01*
X004377Y009977D02*
X004267Y009977D01*
X004212Y010032D01*
X004064Y010087D02*
X003844Y010087D01*
X003844Y010032D02*
X003844Y010142D01*
X003899Y010197D01*
X004009Y010197D01*
X004064Y010142D01*
X004064Y010087D01*
X004009Y009977D02*
X003899Y009977D01*
X003844Y010032D01*
X003586Y009977D02*
X003586Y010307D01*
X003696Y010307D02*
X003475Y010307D01*
X003327Y010142D02*
X003107Y010142D01*
X002959Y009977D02*
X002739Y010142D01*
X002959Y010307D01*
D11*
X029193Y008346D02*
X029500Y008346D01*
X029654Y008192D01*
X029500Y008039D01*
X029193Y008039D01*
X029270Y007830D02*
X029193Y007753D01*
X029193Y007600D01*
X029270Y007523D01*
X029347Y007830D02*
X029654Y007523D01*
X029654Y007830D01*
X029347Y007830D02*
X029270Y007830D01*
X029654Y007314D02*
X029654Y007008D01*
X029347Y007008D02*
X029193Y007161D01*
X029654Y007161D01*
X029424Y006799D02*
X029424Y006492D01*
X029577Y006645D02*
X029270Y006645D01*
X029270Y006080D02*
X029193Y006003D01*
X029193Y005773D01*
X029654Y005773D01*
X029654Y006003D01*
X029577Y006080D01*
X029270Y006080D01*
X029193Y005564D02*
X029654Y005564D01*
X029193Y005258D01*
X029654Y005258D01*
X029577Y005049D02*
X029424Y005049D01*
X029424Y004895D01*
X029577Y004742D02*
X029270Y004742D01*
X029193Y004819D01*
X029193Y004972D01*
X029270Y005049D01*
X029577Y005049D02*
X029654Y004972D01*
X029654Y004819D01*
X029577Y004742D01*
X029577Y004330D02*
X029270Y004330D01*
X029193Y004253D01*
X029193Y004023D01*
X029654Y004023D01*
X029654Y004253D01*
X029577Y004330D01*
X029654Y003814D02*
X029193Y003814D01*
X029193Y003508D02*
X029654Y003814D01*
X029654Y003508D02*
X029193Y003508D01*
X029270Y003299D02*
X029193Y003222D01*
X029193Y003069D01*
X029270Y002992D01*
X029577Y002992D01*
X029654Y003069D01*
X029654Y003222D01*
X029577Y003299D01*
X029424Y003299D01*
X029424Y003145D01*
X029500Y002596D02*
X029193Y002596D01*
X029500Y002596D02*
X029654Y002442D01*
X029500Y002289D01*
X029193Y002289D01*
X029270Y002080D02*
X029193Y002003D01*
X029193Y001850D01*
X029270Y001773D01*
X029347Y002080D02*
X029654Y001773D01*
X029654Y002080D01*
X029347Y002080D02*
X029270Y002080D01*
X029654Y001564D02*
X029654Y001258D01*
X029347Y001258D02*
X029193Y001411D01*
X029654Y001411D01*
X029424Y001049D02*
X029424Y000742D01*
X029577Y000895D02*
X029270Y000895D01*
D12*
X021839Y001047D02*
X021539Y001047D01*
X021689Y001047D02*
X021689Y001497D01*
X021539Y001347D01*
X021379Y001422D02*
X021304Y001497D01*
X021154Y001497D01*
X021079Y001422D01*
X021079Y001122D01*
X021154Y001047D01*
X021304Y001047D01*
X021379Y001122D01*
X018928Y000125D02*
X018928Y004259D01*
X009676Y004259D01*
X009676Y000125D01*
X018928Y000125D01*
X016545Y001433D02*
X016443Y001331D01*
X016240Y001331D01*
X016138Y001433D01*
X016138Y001636D01*
X016443Y001636D01*
X016545Y001535D01*
X016545Y001433D01*
X016138Y001636D02*
X016341Y001840D01*
X016545Y001942D01*
X015937Y001840D02*
X015937Y001738D01*
X015530Y001331D01*
X015937Y001331D01*
X015329Y001433D02*
X015228Y001331D01*
X015024Y001331D01*
X014922Y001433D01*
X015024Y001636D02*
X015329Y001636D01*
X015329Y001433D02*
X015329Y001840D01*
X015228Y001942D01*
X015024Y001942D01*
X014922Y001840D01*
X014922Y001738D01*
X015024Y001636D01*
X015530Y001840D02*
X015632Y001942D01*
X015835Y001942D01*
X015937Y001840D01*
X015936Y002321D02*
X016139Y002321D01*
X016241Y002423D01*
X016241Y002830D01*
X016139Y002932D01*
X015936Y002932D01*
X015834Y002830D01*
X015834Y002423D01*
X015936Y002321D01*
X016442Y002321D02*
X016442Y002932D01*
X016849Y002932D02*
X016849Y002321D01*
X017049Y002321D02*
X017049Y002932D01*
X017253Y002728D01*
X017456Y002932D01*
X017456Y002321D01*
X016849Y002626D02*
X016442Y002626D01*
X015025Y002525D02*
X015025Y002423D01*
X014924Y002321D01*
X014720Y002321D01*
X014618Y002423D01*
X014618Y002626D01*
X014924Y002626D01*
X015025Y002525D01*
X014822Y002830D02*
X014618Y002626D01*
X014416Y002423D02*
X014416Y002321D01*
X014315Y002321D01*
X014315Y002423D01*
X014416Y002423D01*
X014114Y002423D02*
X014012Y002321D01*
X013809Y002321D01*
X013707Y002423D01*
X014114Y002423D02*
X014114Y002626D01*
X014012Y002728D01*
X013910Y002728D01*
X013707Y002626D01*
X013707Y002932D01*
X014114Y002932D01*
X014822Y002830D02*
X015025Y002932D01*
X012898Y002932D02*
X012898Y002321D01*
X012695Y002525D01*
X012491Y002321D01*
X012491Y002932D01*
X011683Y002932D02*
X011276Y002932D01*
X011276Y002626D01*
X011480Y002728D01*
X011581Y002728D01*
X011683Y002626D01*
X011683Y002423D01*
X011581Y002321D01*
X011378Y002321D01*
X011276Y002423D01*
X011276Y001942D02*
X011276Y001840D01*
X011480Y001636D01*
X011480Y001331D01*
X011884Y001331D02*
X011884Y001738D01*
X012087Y001942D01*
X012291Y001738D01*
X012291Y001331D01*
X012491Y001433D02*
X012593Y001331D01*
X012797Y001331D01*
X012898Y001433D01*
X012898Y001636D01*
X012695Y001636D01*
X012491Y001433D02*
X012491Y001840D01*
X012593Y001942D01*
X012797Y001942D01*
X012898Y001840D01*
X013099Y001942D02*
X013099Y001331D01*
X013506Y001331D01*
X013707Y001433D02*
X013809Y001331D01*
X014012Y001331D01*
X014114Y001433D01*
X014114Y001840D01*
X014012Y001942D01*
X013809Y001942D01*
X013707Y001840D01*
X013707Y001433D01*
X013303Y001636D02*
X013099Y001636D01*
X013099Y001942D02*
X013506Y001942D01*
X012291Y001636D02*
X011884Y001636D01*
X011683Y001840D02*
X011480Y001636D01*
X011683Y001840D02*
X011683Y001942D01*
X018265Y002423D02*
X018367Y002321D01*
X018468Y002321D01*
X018570Y002423D01*
X018570Y002932D01*
X018468Y002932D02*
X018672Y002932D01*
X024139Y005692D02*
X024185Y005647D01*
X024275Y005647D01*
X024320Y005692D01*
X024320Y005872D01*
X024275Y005917D01*
X024185Y005917D01*
X024139Y005872D01*
X024139Y005692D01*
X024434Y005647D02*
X024434Y005917D01*
X024614Y005647D01*
X024614Y005917D01*
X026138Y005830D02*
X026479Y005830D01*
X026479Y005717D02*
X026479Y005944D01*
X026252Y005717D02*
X026138Y005830D01*
X026195Y006717D02*
X026138Y006774D01*
X026138Y006887D01*
X026195Y006944D01*
X026252Y006944D01*
X026479Y006717D01*
X026479Y006944D01*
X024748Y007237D02*
X024568Y007237D01*
X024568Y006967D01*
X024568Y007102D02*
X024658Y007102D01*
X024454Y007237D02*
X024273Y007237D01*
X024273Y006967D01*
X024159Y007012D02*
X024159Y007192D01*
X024114Y007237D01*
X024024Y007237D01*
X023979Y007192D01*
X023979Y007012D01*
X024024Y006967D01*
X024114Y006967D01*
X024159Y007012D01*
X024273Y007102D02*
X024364Y007102D01*
X026138Y007774D02*
X026138Y007887D01*
X026195Y007944D01*
X026252Y007944D01*
X026309Y007887D01*
X026365Y007944D01*
X026422Y007944D01*
X026479Y007887D01*
X026479Y007774D01*
X026422Y007717D01*
X026309Y007830D02*
X026309Y007887D01*
X026195Y007717D02*
X026138Y007774D01*
X024353Y008217D02*
X024053Y008217D01*
X024203Y008217D02*
X024203Y008667D01*
X024053Y008517D01*
X022403Y008517D02*
X022403Y008592D01*
X022328Y008667D01*
X022178Y008667D01*
X022103Y008592D01*
X022403Y008517D02*
X022103Y008217D01*
X022403Y008217D01*
X024979Y009717D02*
X025159Y009717D01*
X025273Y009717D02*
X025454Y009717D01*
X025568Y009717D02*
X025703Y009717D01*
X025748Y009762D01*
X025748Y009942D01*
X025703Y009987D01*
X025568Y009987D01*
X025568Y009717D01*
X025273Y009717D02*
X025273Y009987D01*
X025454Y009987D01*
X025364Y009852D02*
X025273Y009852D01*
X024979Y009987D02*
X024979Y009717D01*
X024979Y010197D02*
X024979Y010467D01*
X024979Y010332D02*
X025159Y010332D01*
X025159Y010467D02*
X025159Y010197D01*
X025273Y010197D02*
X025364Y010197D01*
X025318Y010197D02*
X025318Y010467D01*
X025273Y010467D02*
X025364Y010467D01*
X025470Y010332D02*
X025650Y010332D01*
X025765Y010287D02*
X025900Y010287D01*
X025945Y010332D01*
X025945Y010422D01*
X025900Y010467D01*
X025765Y010467D01*
X025765Y010197D01*
X026059Y010197D02*
X026149Y010287D01*
X026239Y010197D01*
X026239Y010467D01*
X026354Y010467D02*
X026489Y010467D01*
X026534Y010422D01*
X026534Y010332D01*
X026489Y010287D01*
X026354Y010287D01*
X026444Y010287D02*
X026534Y010197D01*
X026354Y010197D02*
X026354Y010467D01*
X026059Y010467D02*
X026059Y010197D01*
X000954Y007192D02*
X000954Y001192D01*
D13*
X000140Y001229D02*
X007463Y001229D01*
X007463Y007155D01*
X000140Y007155D01*
X000140Y001229D01*
X002818Y000902D02*
X002818Y000482D01*
X002818Y000622D02*
X003028Y000622D01*
X003098Y000692D01*
X003098Y000832D01*
X003028Y000902D01*
X002818Y000902D01*
X003278Y000762D02*
X003278Y000482D01*
X003278Y000622D02*
X003419Y000762D01*
X003489Y000762D01*
X003662Y000692D02*
X003662Y000552D01*
X003732Y000482D01*
X003872Y000482D01*
X003942Y000552D01*
X003942Y000692D01*
X003872Y000762D01*
X003732Y000762D01*
X003662Y000692D01*
X004123Y000762D02*
X004263Y000762D01*
X004193Y000832D02*
X004193Y000552D01*
X004263Y000482D01*
X004429Y000552D02*
X004500Y000482D01*
X004640Y000482D01*
X004710Y000552D01*
X004710Y000692D01*
X004640Y000762D01*
X004500Y000762D01*
X004429Y000692D01*
X004429Y000552D01*
X004890Y000552D02*
X004960Y000482D01*
X005170Y000482D01*
X005350Y000552D02*
X005350Y000692D01*
X005420Y000762D01*
X005560Y000762D01*
X005630Y000692D01*
X005630Y000622D01*
X005350Y000622D01*
X005350Y000552D02*
X005420Y000482D01*
X005560Y000482D01*
X005811Y000482D02*
X005951Y000482D01*
X005881Y000482D02*
X005881Y000902D01*
X005811Y000902D01*
X006118Y000902D02*
X006188Y000902D01*
X006188Y000482D01*
X006118Y000482D02*
X006258Y000482D01*
X006885Y000482D02*
X006885Y000902D01*
X007025Y000762D01*
X007165Y000902D01*
X007165Y000482D01*
X007345Y000552D02*
X007345Y000692D01*
X007415Y000762D01*
X007555Y000762D01*
X007626Y000692D01*
X007626Y000552D01*
X007555Y000482D01*
X007415Y000482D01*
X007345Y000552D01*
X007806Y000552D02*
X007806Y000692D01*
X007876Y000762D01*
X008086Y000762D01*
X008086Y000902D02*
X008086Y000482D01*
X007876Y000482D01*
X007806Y000552D01*
X008266Y000552D02*
X008266Y000762D01*
X008546Y000762D02*
X008546Y000482D01*
X008336Y000482D01*
X008266Y000552D01*
X008726Y000482D02*
X008867Y000482D01*
X008797Y000482D02*
X008797Y000902D01*
X008726Y000902D01*
X009033Y000692D02*
X009103Y000762D01*
X009244Y000762D01*
X009314Y000692D01*
X009314Y000622D01*
X009033Y000622D01*
X009033Y000552D02*
X009033Y000692D01*
X009033Y000552D02*
X009103Y000482D01*
X009244Y000482D01*
X005170Y000762D02*
X004960Y000762D01*
X004890Y000692D01*
X004890Y000552D01*
X007670Y005082D02*
X008804Y005082D01*
X009570Y005082D02*
X009804Y005082D01*
X010604Y005082D02*
X012237Y005082D01*
X012237Y011302D01*
X007670Y011302D01*
X007670Y005082D01*
X009054Y006942D02*
X009054Y007192D01*
X007954Y007192D01*
X007954Y009392D01*
X008554Y009392D01*
X008554Y009742D01*
X008554Y010192D01*
X009354Y010192D01*
X009354Y010592D01*
X010554Y010592D01*
X010554Y010192D01*
X009354Y010192D01*
X008554Y009742D02*
X007954Y009742D01*
X007954Y009392D01*
X010554Y010192D02*
X011354Y010192D01*
X011354Y009742D01*
X011354Y009392D01*
X011954Y009392D01*
X011954Y009742D01*
X011354Y009742D01*
X011954Y009392D02*
X011954Y007192D01*
X010854Y007192D01*
X010854Y006942D01*
X010554Y006942D01*
X010554Y007192D01*
X010354Y007192D01*
X010354Y006942D01*
X010054Y006942D01*
X010054Y007192D01*
X009854Y007192D01*
X009854Y006942D01*
X009554Y006942D01*
X009554Y007192D01*
X009354Y007192D01*
X009354Y006942D01*
X009054Y006942D01*
D14*
X007259Y006557D02*
X007259Y006461D01*
X007210Y006412D01*
X007259Y006311D02*
X006969Y006118D01*
X006969Y006311D02*
X007259Y006118D01*
X007017Y006412D02*
X006969Y006461D01*
X006969Y006557D01*
X007017Y006606D01*
X007065Y006606D01*
X007114Y006557D01*
X007162Y006606D01*
X007210Y006606D01*
X007259Y006557D01*
X007114Y006557D02*
X007114Y006509D01*
X005509Y007868D02*
X005219Y008061D01*
X005364Y008162D02*
X005364Y008356D01*
X005509Y008307D02*
X005219Y008307D01*
X005364Y008162D01*
X005509Y008061D02*
X005219Y007868D01*
X011379Y005677D02*
X011573Y005387D01*
X011674Y005435D02*
X011723Y005387D01*
X011819Y005387D01*
X011868Y005435D01*
X011868Y005484D01*
X011819Y005532D01*
X011723Y005532D01*
X011674Y005580D01*
X011674Y005629D01*
X011723Y005677D01*
X011819Y005677D01*
X011868Y005629D01*
X011868Y005580D01*
X011819Y005532D01*
X011723Y005532D02*
X011674Y005484D01*
X011674Y005435D01*
X011573Y005677D02*
X011379Y005387D01*
X014719Y007707D02*
X014912Y007997D01*
X015013Y007997D02*
X015207Y007997D01*
X015207Y007949D01*
X015013Y007755D01*
X015013Y007707D01*
X014912Y007707D02*
X014719Y007997D01*
X021144Y007397D02*
X021337Y007107D01*
X021438Y007155D02*
X021487Y007107D01*
X021584Y007107D01*
X021632Y007155D01*
X021632Y007204D01*
X021584Y007252D01*
X021438Y007252D01*
X021438Y007155D01*
X021438Y007252D02*
X021535Y007349D01*
X021632Y007397D01*
X021337Y007397D02*
X021144Y007107D01*
X018189Y005195D02*
X018189Y005002D01*
X018189Y005098D02*
X017899Y005098D01*
X017995Y005002D01*
X017947Y004900D02*
X017899Y004852D01*
X017899Y004707D01*
X018189Y004707D01*
X018189Y004852D01*
X018140Y004900D01*
X017947Y004900D01*
X009340Y001427D02*
X009220Y001307D01*
X009380Y001307D01*
X009340Y001187D02*
X009340Y001427D01*
X009052Y001427D02*
X009052Y001187D01*
X008972Y001187D02*
X009132Y001187D01*
X008972Y001347D02*
X009052Y001427D01*
X008883Y001387D02*
X008723Y001227D01*
X008763Y001187D01*
X008843Y001187D01*
X008883Y001227D01*
X008883Y001387D01*
X008843Y001427D01*
X008763Y001427D01*
X008723Y001387D01*
X008723Y001227D01*
X008634Y001187D02*
X008474Y001187D01*
X008634Y001347D01*
X008634Y001387D01*
X008594Y001427D01*
X008514Y001427D01*
X008474Y001387D01*
X008386Y001427D02*
X008226Y001187D01*
X008137Y001227D02*
X008097Y001187D01*
X008017Y001187D01*
X007977Y001227D01*
X007977Y001267D01*
X008017Y001307D01*
X008097Y001307D01*
X008137Y001267D01*
X008137Y001227D01*
X008097Y001307D02*
X008137Y001347D01*
X008137Y001387D01*
X008097Y001427D01*
X008017Y001427D01*
X007977Y001387D01*
X007977Y001347D01*
X008017Y001307D01*
X007889Y001387D02*
X007889Y001227D01*
X007849Y001187D01*
X007769Y001187D01*
X007728Y001227D01*
X007889Y001387D01*
X007849Y001427D01*
X007769Y001427D01*
X007728Y001387D01*
X007728Y001227D01*
X026719Y008207D02*
X026912Y008497D01*
X027013Y008449D02*
X027062Y008497D01*
X027159Y008497D01*
X027207Y008449D01*
X027207Y008400D01*
X027013Y008207D01*
X027207Y008207D01*
X026912Y008207D02*
X026719Y008497D01*
X029269Y009118D02*
X029559Y009311D01*
X029559Y009412D02*
X029559Y009606D01*
X029559Y009509D02*
X029269Y009509D01*
X029365Y009412D01*
X029269Y009311D02*
X029559Y009118D01*
D15*
X024088Y010692D02*
X023554Y010692D01*
X023821Y010959D02*
X023821Y010425D01*
X021838Y010692D02*
X021304Y010692D01*
D16*
X024944Y009320D02*
X024944Y009173D01*
X024944Y009246D02*
X024724Y009246D01*
X024797Y009173D01*
X024834Y009099D02*
X024870Y009062D01*
X024870Y008952D01*
X024870Y009025D02*
X024944Y009099D01*
X024834Y009099D02*
X024760Y009099D01*
X024724Y009062D01*
X024724Y008952D01*
X024944Y008952D01*
X025137Y008572D02*
X025211Y008572D01*
X025174Y008572D02*
X025174Y008389D01*
X025137Y008352D01*
X025100Y008352D01*
X025064Y008389D01*
X025285Y008425D02*
X025395Y008425D01*
X025432Y008462D01*
X025432Y008535D01*
X025395Y008572D01*
X025285Y008572D01*
X025285Y008352D01*
X025506Y008352D02*
X025653Y008352D01*
X025579Y008352D02*
X025579Y008572D01*
X025506Y008499D01*
X027373Y009596D02*
X027520Y009596D01*
X027594Y009596D02*
X027741Y009596D01*
X027815Y009596D02*
X027925Y009596D01*
X027962Y009632D01*
X027962Y009779D01*
X027925Y009816D01*
X027815Y009816D01*
X027815Y009596D01*
X027668Y009706D02*
X027594Y009706D01*
X027594Y009816D02*
X027594Y009596D01*
X027373Y009596D02*
X027373Y009816D01*
X027594Y009816D02*
X027741Y009816D01*
X028036Y009742D02*
X028110Y009816D01*
X028110Y009596D01*
X028183Y009596D02*
X028036Y009596D01*
X015405Y005702D02*
X015355Y005752D01*
X015255Y005752D01*
X015205Y005702D01*
X015205Y005502D01*
X015255Y005452D01*
X015355Y005452D01*
X015405Y005502D01*
X015405Y005602D01*
X015305Y005602D01*
X015109Y005452D02*
X015008Y005452D01*
X015058Y005452D02*
X015058Y005752D01*
X015008Y005752D02*
X015109Y005752D01*
X014914Y005702D02*
X014864Y005752D01*
X014764Y005752D01*
X014714Y005702D01*
X014714Y005652D01*
X014764Y005602D01*
X014864Y005602D01*
X014914Y005552D01*
X014914Y005502D01*
X014864Y005452D01*
X014764Y005452D01*
X014714Y005502D01*
X014353Y005502D02*
X014353Y005702D01*
X014303Y005752D01*
X014153Y005752D01*
X014153Y005452D01*
X014303Y005452D01*
X014353Y005502D01*
X014059Y005452D02*
X014059Y005752D01*
X013858Y005752D02*
X014059Y005452D01*
X013858Y005452D02*
X013858Y005752D01*
X013764Y005702D02*
X013714Y005752D01*
X013614Y005752D01*
X013564Y005702D01*
X013564Y005502D01*
X013614Y005452D01*
X013714Y005452D01*
X013764Y005502D01*
X013764Y005602D01*
X013664Y005602D01*
X013159Y005552D02*
X013159Y005752D01*
X012958Y005752D02*
X012958Y005552D01*
X013059Y005452D01*
X013159Y005552D01*
X012864Y005502D02*
X012814Y005452D01*
X012714Y005452D01*
X012664Y005502D01*
X012664Y005602D02*
X012764Y005652D01*
X012814Y005652D01*
X012864Y005602D01*
X012864Y005502D01*
X012664Y005602D02*
X012664Y005752D01*
X012864Y005752D01*
D17*
X004188Y009447D02*
X004035Y009447D01*
X004111Y009447D02*
X004111Y009677D01*
X004035Y009600D01*
X003967Y009562D02*
X003890Y009562D01*
X003967Y009562D02*
X003967Y009485D01*
X003929Y009447D01*
X003852Y009447D01*
X003814Y009485D01*
X003814Y009639D01*
X003852Y009677D01*
X003929Y009677D01*
X003967Y009639D01*
X003746Y009639D02*
X003708Y009677D01*
X003631Y009677D01*
X003593Y009639D01*
X003593Y009485D01*
X003631Y009447D01*
X003708Y009447D01*
X003746Y009485D01*
X003746Y009639D01*
X003372Y009677D02*
X003372Y009447D01*
X003525Y009447D01*
X003304Y009447D02*
X003304Y009600D01*
X003227Y009677D01*
X003151Y009600D01*
X003151Y009447D01*
X003083Y009447D02*
X003083Y009677D01*
X003151Y009562D02*
X003304Y009562D01*
X003083Y009447D02*
X002930Y009677D01*
X002930Y009447D01*
X002862Y009447D02*
X002862Y009600D01*
X002786Y009677D01*
X002709Y009600D01*
X002709Y009447D01*
X002709Y009562D02*
X002862Y009562D01*
X002824Y007927D02*
X002709Y007927D01*
X002709Y007697D01*
X002709Y007774D02*
X002824Y007774D01*
X002862Y007812D01*
X002862Y007889D01*
X002824Y007927D01*
X002930Y007927D02*
X002930Y007697D01*
X003006Y007774D01*
X003083Y007697D01*
X003083Y007927D01*
X003151Y007927D02*
X003227Y007850D01*
X003304Y007927D01*
X003304Y007697D01*
X003372Y007697D02*
X003525Y007697D01*
X003448Y007697D02*
X003448Y007927D01*
X003372Y007850D01*
X003151Y007927D02*
X003151Y007697D01*
D18*
X004704Y007692D02*
X005704Y007692D01*
X005704Y008692D01*
X005704Y009692D01*
X004704Y009692D01*
X004704Y008692D01*
X004704Y007692D01*
X004704Y008692D02*
X005704Y008692D01*
X012454Y008442D02*
X012454Y007442D01*
X013454Y007442D01*
X014454Y007442D01*
X015454Y007442D01*
X015454Y008442D01*
X014454Y008442D01*
X013454Y008442D01*
X012454Y008442D01*
X013454Y008442D02*
X013454Y007442D01*
X014454Y007442D02*
X014454Y008442D01*
X018354Y008692D02*
X018354Y004692D01*
X020554Y004692D01*
X020554Y008692D01*
X018354Y008692D01*
X019454Y007592D02*
X019454Y006692D01*
X019704Y006692D01*
X019704Y006842D01*
X019634Y006842D01*
X019454Y006692D02*
X019204Y006692D01*
X019204Y006542D01*
X019274Y006542D01*
X019454Y006692D02*
X019684Y007142D01*
X019224Y007142D01*
X019454Y006692D01*
X019454Y006192D01*
X020738Y007472D02*
X024668Y007472D01*
X024668Y007552D01*
X020738Y007552D01*
X020738Y010152D01*
X020738Y011092D01*
X024668Y011092D01*
X024668Y010152D01*
X024668Y007552D01*
X024954Y007292D02*
X025054Y007192D01*
X024954Y007092D01*
X024954Y006292D01*
X025054Y006192D01*
X024954Y006092D01*
X024954Y005292D01*
X025054Y005192D01*
X025854Y005192D01*
X025954Y005292D01*
X025954Y006092D01*
X025854Y006192D01*
X025954Y006292D01*
X025954Y007092D01*
X025854Y007192D01*
X025954Y007292D01*
X025954Y008092D01*
X025854Y008192D01*
X025054Y008192D01*
X024954Y008092D01*
X024954Y007292D01*
X023488Y008072D02*
X023490Y008100D01*
X023496Y008127D01*
X023505Y008153D01*
X023518Y008178D01*
X023535Y008201D01*
X023554Y008221D01*
X023576Y008238D01*
X023600Y008252D01*
X023626Y008262D01*
X023653Y008269D01*
X023681Y008272D01*
X023709Y008271D01*
X023736Y008266D01*
X023763Y008257D01*
X023788Y008245D01*
X023811Y008230D01*
X023832Y008211D01*
X023850Y008190D01*
X023865Y008166D01*
X023876Y008140D01*
X023884Y008114D01*
X023888Y008086D01*
X023888Y008058D01*
X023884Y008030D01*
X023876Y008004D01*
X023865Y007978D01*
X023850Y007954D01*
X023832Y007933D01*
X023811Y007914D01*
X023788Y007899D01*
X023763Y007887D01*
X023736Y007878D01*
X023709Y007873D01*
X023681Y007872D01*
X023653Y007875D01*
X023626Y007882D01*
X023600Y007892D01*
X023576Y007906D01*
X023554Y007923D01*
X023535Y007943D01*
X023518Y007966D01*
X023505Y007991D01*
X023496Y008017D01*
X023490Y008044D01*
X023488Y008072D01*
X021518Y008072D02*
X021520Y008100D01*
X021526Y008127D01*
X021535Y008153D01*
X021548Y008178D01*
X021565Y008201D01*
X021584Y008221D01*
X021606Y008238D01*
X021630Y008252D01*
X021656Y008262D01*
X021683Y008269D01*
X021711Y008272D01*
X021739Y008271D01*
X021766Y008266D01*
X021793Y008257D01*
X021818Y008245D01*
X021841Y008230D01*
X021862Y008211D01*
X021880Y008190D01*
X021895Y008166D01*
X021906Y008140D01*
X021914Y008114D01*
X021918Y008086D01*
X021918Y008058D01*
X021914Y008030D01*
X021906Y008004D01*
X021895Y007978D01*
X021880Y007954D01*
X021862Y007933D01*
X021841Y007914D01*
X021818Y007899D01*
X021793Y007887D01*
X021766Y007878D01*
X021739Y007873D01*
X021711Y007872D01*
X021683Y007875D01*
X021656Y007882D01*
X021630Y007892D01*
X021606Y007906D01*
X021584Y007923D01*
X021565Y007943D01*
X021548Y007966D01*
X021535Y007991D01*
X021526Y008017D01*
X021520Y008044D01*
X021518Y008072D01*
X020738Y007552D02*
X020738Y007472D01*
X026204Y008692D02*
X026204Y004692D01*
X026204Y000692D01*
X026304Y000692D01*
X026304Y008692D01*
X028904Y008692D01*
X028904Y008042D01*
X028904Y008692D02*
X029854Y008692D01*
X029854Y000692D01*
X028904Y000692D01*
X028904Y001342D01*
X027204Y001192D02*
X027204Y002192D01*
X027204Y003192D01*
X027204Y004192D01*
X026204Y004192D01*
X026204Y003192D01*
X026204Y002192D01*
X026204Y001192D01*
X027204Y001192D01*
X026634Y001692D02*
X026636Y001720D01*
X026642Y001747D01*
X026651Y001773D01*
X026664Y001798D01*
X026681Y001821D01*
X026700Y001841D01*
X026722Y001858D01*
X026746Y001872D01*
X026772Y001882D01*
X026799Y001889D01*
X026827Y001892D01*
X026855Y001891D01*
X026882Y001886D01*
X026909Y001877D01*
X026934Y001865D01*
X026957Y001850D01*
X026978Y001831D01*
X026996Y001810D01*
X027011Y001786D01*
X027022Y001760D01*
X027030Y001734D01*
X027034Y001706D01*
X027034Y001678D01*
X027030Y001650D01*
X027022Y001624D01*
X027011Y001598D01*
X026996Y001574D01*
X026978Y001553D01*
X026957Y001534D01*
X026934Y001519D01*
X026909Y001507D01*
X026882Y001498D01*
X026855Y001493D01*
X026827Y001492D01*
X026799Y001495D01*
X026772Y001502D01*
X026746Y001512D01*
X026722Y001526D01*
X026700Y001543D01*
X026681Y001563D01*
X026664Y001586D01*
X026651Y001611D01*
X026642Y001637D01*
X026636Y001664D01*
X026634Y001692D01*
X026204Y002192D02*
X027204Y002192D01*
X028904Y002042D02*
X028904Y003342D01*
X027204Y003192D02*
X026204Y003192D01*
X026634Y003692D02*
X026636Y003720D01*
X026642Y003747D01*
X026651Y003773D01*
X026664Y003798D01*
X026681Y003821D01*
X026700Y003841D01*
X026722Y003858D01*
X026746Y003872D01*
X026772Y003882D01*
X026799Y003889D01*
X026827Y003892D01*
X026855Y003891D01*
X026882Y003886D01*
X026909Y003877D01*
X026934Y003865D01*
X026957Y003850D01*
X026978Y003831D01*
X026996Y003810D01*
X027011Y003786D01*
X027022Y003760D01*
X027030Y003734D01*
X027034Y003706D01*
X027034Y003678D01*
X027030Y003650D01*
X027022Y003624D01*
X027011Y003598D01*
X026996Y003574D01*
X026978Y003553D01*
X026957Y003534D01*
X026934Y003519D01*
X026909Y003507D01*
X026882Y003498D01*
X026855Y003493D01*
X026827Y003492D01*
X026799Y003495D01*
X026772Y003502D01*
X026746Y003512D01*
X026722Y003526D01*
X026700Y003543D01*
X026681Y003563D01*
X026664Y003586D01*
X026651Y003611D01*
X026642Y003637D01*
X026636Y003664D01*
X026634Y003692D01*
X028904Y004042D02*
X028904Y004692D01*
X028904Y005342D01*
X028904Y004692D02*
X026204Y004692D01*
X026634Y005692D02*
X026636Y005720D01*
X026642Y005747D01*
X026651Y005773D01*
X026664Y005798D01*
X026681Y005821D01*
X026700Y005841D01*
X026722Y005858D01*
X026746Y005872D01*
X026772Y005882D01*
X026799Y005889D01*
X026827Y005892D01*
X026855Y005891D01*
X026882Y005886D01*
X026909Y005877D01*
X026934Y005865D01*
X026957Y005850D01*
X026978Y005831D01*
X026996Y005810D01*
X027011Y005786D01*
X027022Y005760D01*
X027030Y005734D01*
X027034Y005706D01*
X027034Y005678D01*
X027030Y005650D01*
X027022Y005624D01*
X027011Y005598D01*
X026996Y005574D01*
X026978Y005553D01*
X026957Y005534D01*
X026934Y005519D01*
X026909Y005507D01*
X026882Y005498D01*
X026855Y005493D01*
X026827Y005492D01*
X026799Y005495D01*
X026772Y005502D01*
X026746Y005512D01*
X026722Y005526D01*
X026700Y005543D01*
X026681Y005563D01*
X026664Y005586D01*
X026651Y005611D01*
X026642Y005637D01*
X026636Y005664D01*
X026634Y005692D01*
X028904Y006042D02*
X028904Y007342D01*
X026634Y007692D02*
X026636Y007720D01*
X026642Y007747D01*
X026651Y007773D01*
X026664Y007798D01*
X026681Y007821D01*
X026700Y007841D01*
X026722Y007858D01*
X026746Y007872D01*
X026772Y007882D01*
X026799Y007889D01*
X026827Y007892D01*
X026855Y007891D01*
X026882Y007886D01*
X026909Y007877D01*
X026934Y007865D01*
X026957Y007850D01*
X026978Y007831D01*
X026996Y007810D01*
X027011Y007786D01*
X027022Y007760D01*
X027030Y007734D01*
X027034Y007706D01*
X027034Y007678D01*
X027030Y007650D01*
X027022Y007624D01*
X027011Y007598D01*
X026996Y007574D01*
X026978Y007553D01*
X026957Y007534D01*
X026934Y007519D01*
X026909Y007507D01*
X026882Y007498D01*
X026855Y007493D01*
X026827Y007492D01*
X026799Y007495D01*
X026772Y007502D01*
X026746Y007512D01*
X026722Y007526D01*
X026700Y007543D01*
X026681Y007563D01*
X026664Y007586D01*
X026651Y007611D01*
X026642Y007637D01*
X026636Y007664D01*
X026634Y007692D01*
X026304Y008692D02*
X026204Y008692D01*
X024668Y010152D02*
X024038Y010152D01*
X023338Y010152D02*
X022068Y010152D01*
X021368Y010152D02*
X020738Y010152D01*
X023204Y005092D02*
X023204Y004792D01*
X023354Y004942D02*
X023054Y004942D01*
X022704Y003892D02*
X022704Y003792D01*
X023154Y003792D01*
X023154Y003542D01*
X022254Y003542D01*
X022254Y003792D01*
X022704Y003792D01*
X020704Y003442D02*
X020706Y003531D01*
X020712Y003620D01*
X020722Y003709D01*
X020736Y003797D01*
X020753Y003884D01*
X020775Y003970D01*
X020801Y004056D01*
X020830Y004140D01*
X020863Y004223D01*
X020899Y004304D01*
X020940Y004384D01*
X020983Y004461D01*
X021030Y004537D01*
X021081Y004610D01*
X021134Y004681D01*
X021191Y004750D01*
X021251Y004816D01*
X021314Y004880D01*
X021379Y004940D01*
X021447Y004998D01*
X021518Y005052D01*
X021591Y005103D01*
X021666Y005151D01*
X021743Y005196D01*
X021822Y005237D01*
X021903Y005274D01*
X021985Y005308D01*
X022069Y005339D01*
X022154Y005365D01*
X022240Y005388D01*
X022327Y005406D01*
X022415Y005421D01*
X022504Y005432D01*
X022593Y005439D01*
X022682Y005442D01*
X022771Y005441D01*
X022860Y005436D01*
X022948Y005427D01*
X023037Y005414D01*
X023124Y005397D01*
X023211Y005377D01*
X023297Y005352D01*
X023381Y005324D01*
X023464Y005292D01*
X023546Y005256D01*
X023626Y005217D01*
X023704Y005174D01*
X023780Y005128D01*
X023854Y005078D01*
X023926Y005025D01*
X023995Y004969D01*
X024062Y004910D01*
X024126Y004848D01*
X024187Y004784D01*
X024246Y004716D01*
X024301Y004646D01*
X024353Y004574D01*
X024402Y004499D01*
X024447Y004423D01*
X024489Y004344D01*
X024527Y004264D01*
X024562Y004182D01*
X024593Y004098D01*
X024621Y004013D01*
X024644Y003927D01*
X024664Y003840D01*
X024680Y003753D01*
X024692Y003664D01*
X024700Y003576D01*
X024704Y003487D01*
X024704Y003397D01*
X024700Y003308D01*
X024692Y003220D01*
X024680Y003131D01*
X024664Y003044D01*
X024644Y002957D01*
X024621Y002871D01*
X024593Y002786D01*
X024562Y002702D01*
X024527Y002620D01*
X024489Y002540D01*
X024447Y002461D01*
X024402Y002385D01*
X024353Y002310D01*
X024301Y002238D01*
X024246Y002168D01*
X024187Y002100D01*
X024126Y002036D01*
X024062Y001974D01*
X023995Y001915D01*
X023926Y001859D01*
X023854Y001806D01*
X023780Y001756D01*
X023704Y001710D01*
X023626Y001667D01*
X023546Y001628D01*
X023464Y001592D01*
X023381Y001560D01*
X023297Y001532D01*
X023211Y001507D01*
X023124Y001487D01*
X023037Y001470D01*
X022948Y001457D01*
X022860Y001448D01*
X022771Y001443D01*
X022682Y001442D01*
X022593Y001445D01*
X022504Y001452D01*
X022415Y001463D01*
X022327Y001478D01*
X022240Y001496D01*
X022154Y001519D01*
X022069Y001545D01*
X021985Y001576D01*
X021903Y001610D01*
X021822Y001647D01*
X021743Y001688D01*
X021666Y001733D01*
X021591Y001781D01*
X021518Y001832D01*
X021447Y001886D01*
X021379Y001944D01*
X021314Y002004D01*
X021251Y002068D01*
X021191Y002134D01*
X021134Y002203D01*
X021081Y002274D01*
X021030Y002347D01*
X020983Y002423D01*
X020940Y002500D01*
X020899Y002580D01*
X020863Y002661D01*
X020830Y002744D01*
X020801Y002828D01*
X020775Y002914D01*
X020753Y003000D01*
X020736Y003087D01*
X020722Y003175D01*
X020712Y003264D01*
X020706Y003353D01*
X020704Y003442D01*
X022704Y003192D02*
X022704Y002992D01*
X026304Y000692D02*
X028904Y000692D01*
D19*
X022704Y003217D03*
D20*
X001269Y000949D03*
D21*
X001269Y007440D03*
D22*
X008889Y002192D02*
X009381Y002192D01*
X019223Y002192D02*
X019716Y002192D01*
D23*
X027454Y002692D02*
X029704Y002692D01*
X029704Y001692D02*
X027454Y001692D01*
X027454Y003692D02*
X029704Y003692D01*
X014954Y008692D02*
X014954Y010942D01*
X013954Y010942D02*
X013954Y008692D01*
X012954Y008692D02*
X012954Y010942D01*
X004454Y009192D02*
X002204Y009192D01*
X002204Y008192D02*
X004454Y008192D01*
D24*
X012954Y008542D03*
X013954Y008542D03*
X014954Y008542D03*
D25*
X014954Y007242D03*
X013954Y007242D03*
X012954Y007242D03*
D26*
X012377Y006672D02*
X012377Y006212D01*
X012224Y006212D02*
X012531Y006212D01*
X012224Y006519D02*
X012377Y006672D01*
X006934Y007462D02*
X006934Y007769D01*
X006934Y007615D02*
X006473Y007615D01*
X006627Y007462D01*
X024973Y004155D02*
X025434Y004155D01*
X025434Y004002D02*
X025434Y004308D01*
X025127Y004002D02*
X024973Y004155D01*
D27*
X027304Y003692D03*
X027304Y002692D03*
X027304Y001692D03*
X004604Y008192D03*
X004604Y009192D03*
D28*
X005904Y009192D03*
X005904Y008192D03*
X026004Y003692D03*
X026004Y002692D03*
X026004Y001692D03*
D29*
X019454Y005192D03*
D30*
X019454Y004517D03*
X019454Y008867D03*
D31*
X027668Y009399D03*
D32*
X027954Y009192D03*
M02*
