%
M48
M72
T01C0.0236
T02C0.0400
T03C0.2598
%
T01
X2420Y1720
X3420Y1720
X6420Y2170
X10220Y2720
X10270Y3870
X13370Y3870
X11020Y5220
X15770Y2220
X15770Y1470
X11970Y1470
T02
X4602Y1661
X5602Y1661
X5602Y2661
X4602Y2661
X4602Y3661
X5602Y3661
X5602Y4661
X4602Y4661
X7720Y4917
X8720Y4917
X9720Y4917
T03
X16440Y4157
X1874Y4157
M30
