G75*
%MOIN*%
%OFA0B0*%
%FSLAX24Y24*%
%IPPOS*%
%LPD*%
%AMOC8*
5,1,8,0,0,1.08239X$1,22.5*
%
%ADD10C,0.0020*%
%ADD11C,0.0080*%
%ADD12C,0.0040*%
%ADD13C,0.0060*%
%ADD14C,0.0300*%
%ADD15R,0.0300X0.0200*%
%ADD16R,0.0300X0.0400*%
%ADD17C,0.0010*%
%ADD18C,0.0050*%
D10*
X003417Y001107D02*
X003454Y001071D01*
X003527Y001071D01*
X003564Y001107D01*
X003564Y001181D01*
X003490Y001181D01*
X003417Y001254D02*
X003417Y001107D01*
X003638Y001071D02*
X003638Y001291D01*
X003785Y001071D01*
X003785Y001291D01*
X003859Y001291D02*
X003969Y001291D01*
X004006Y001254D01*
X004006Y001107D01*
X003969Y001071D01*
X003859Y001071D01*
X003859Y001291D01*
X003564Y001254D02*
X003527Y001291D01*
X003454Y001291D01*
X003417Y001254D01*
X006348Y001254D02*
X006385Y001291D01*
X006458Y001291D01*
X006495Y001254D01*
X006495Y001217D01*
X006458Y001181D01*
X006495Y001144D01*
X006495Y001107D01*
X006458Y001071D01*
X006385Y001071D01*
X006348Y001107D01*
X006422Y001181D02*
X006458Y001181D01*
X006569Y001107D02*
X006606Y001107D01*
X006606Y001071D01*
X006569Y001071D01*
X006569Y001107D01*
X006680Y001107D02*
X006716Y001071D01*
X006790Y001071D01*
X006826Y001107D01*
X006826Y001144D01*
X006790Y001181D01*
X006753Y001181D01*
X006790Y001181D02*
X006826Y001217D01*
X006826Y001254D01*
X006790Y001291D01*
X006716Y001291D01*
X006680Y001254D01*
X006901Y001291D02*
X006901Y001144D01*
X006974Y001071D01*
X007047Y001144D01*
X007047Y001291D01*
X006627Y002592D02*
X006700Y002666D01*
X006700Y002812D01*
X006553Y002812D02*
X006553Y002666D01*
X006627Y002592D01*
X006479Y002629D02*
X006442Y002592D01*
X006369Y002592D01*
X006332Y002629D01*
X006332Y002702D02*
X006406Y002739D01*
X006442Y002739D01*
X006479Y002702D01*
X006479Y002629D01*
X006332Y002702D02*
X006332Y002812D01*
X006479Y002812D01*
X006442Y003576D02*
X006369Y003576D01*
X006332Y003613D01*
X006369Y003576D01*
X006442Y003576D01*
X006479Y003613D01*
X006479Y003650D01*
X006442Y003687D01*
X006369Y003687D01*
X006332Y003723D01*
X006332Y003760D01*
X006369Y003797D01*
X006442Y003797D01*
X006479Y003760D01*
X006442Y003797D01*
X006369Y003797D01*
X006332Y003760D01*
X006332Y003723D01*
X006369Y003687D01*
X006442Y003687D01*
X006479Y003650D01*
X006479Y003613D01*
X006442Y003576D01*
X006553Y003576D02*
X006663Y003576D01*
X006700Y003613D01*
X006700Y003760D01*
X006663Y003797D01*
X006553Y003797D01*
X006553Y003576D01*
X006663Y003576D01*
X006700Y003613D01*
X006700Y003760D01*
X006663Y003797D01*
X006553Y003797D01*
X006553Y003576D01*
X006774Y003576D02*
X006774Y003723D01*
X006848Y003797D01*
X006921Y003723D01*
X006921Y003576D01*
X006921Y003723D01*
X006848Y003797D01*
X006774Y003723D01*
X006774Y003576D01*
X006774Y003687D02*
X006921Y003687D01*
X006774Y003687D01*
X003968Y003576D02*
X003822Y003576D01*
X003822Y003797D01*
X003747Y003760D02*
X003711Y003797D01*
X003637Y003797D01*
X003601Y003760D01*
X003601Y003613D01*
X003637Y003576D01*
X003711Y003576D01*
X003747Y003613D01*
X003526Y003613D02*
X003490Y003576D01*
X003416Y003576D01*
X003380Y003613D01*
X003416Y003687D02*
X003490Y003687D01*
X003526Y003650D01*
X003526Y003613D01*
X003416Y003687D02*
X003380Y003723D01*
X003380Y003760D01*
X003416Y003797D01*
X003490Y003797D01*
X003526Y003760D01*
X003527Y002812D02*
X003637Y002812D01*
X003674Y002776D01*
X003674Y002702D01*
X003637Y002666D01*
X003527Y002666D01*
X003600Y002666D02*
X003674Y002592D01*
X003748Y002592D02*
X003895Y002739D01*
X003895Y002776D01*
X003858Y002812D01*
X003785Y002812D01*
X003748Y002776D01*
X003527Y002812D02*
X003527Y002592D01*
X003453Y002592D02*
X003380Y002592D01*
X003416Y002592D02*
X003416Y002812D01*
X003380Y002812D02*
X003453Y002812D01*
X003748Y002592D02*
X003895Y002592D01*
X010233Y004380D02*
X010380Y004600D01*
X010454Y004563D02*
X010491Y004600D01*
X010564Y004600D01*
X010601Y004563D01*
X010601Y004527D01*
X010454Y004380D01*
X010601Y004380D01*
X010380Y004380D02*
X010233Y004600D01*
X010590Y004103D02*
X010590Y003956D01*
X010700Y003956D01*
X010663Y004029D01*
X010663Y004066D01*
X010700Y004103D01*
X010773Y004103D01*
X010810Y004066D01*
X010810Y003993D01*
X010773Y003956D01*
X010700Y003882D02*
X010700Y003735D01*
X010590Y003845D01*
X010810Y003845D01*
X010773Y003661D02*
X010810Y003624D01*
X010810Y003551D01*
X010773Y003514D01*
X010810Y003440D02*
X010810Y003293D01*
X010590Y003293D01*
X010627Y003219D02*
X010590Y003182D01*
X010590Y003072D01*
X010810Y003072D01*
X010810Y003182D01*
X010773Y003219D01*
X010627Y003219D01*
X010590Y002998D02*
X010810Y002851D01*
X010810Y002777D02*
X010663Y002777D01*
X010590Y002703D01*
X010663Y002630D01*
X010810Y002630D01*
X010700Y002630D02*
X010700Y002777D01*
X010590Y002851D02*
X010810Y002998D01*
X010627Y003514D02*
X010590Y003551D01*
X010590Y003624D01*
X010627Y003661D01*
X010663Y003661D01*
X010700Y003624D01*
X010737Y003661D01*
X010773Y003661D01*
X010700Y003624D02*
X010700Y003587D01*
X014430Y004567D02*
X014467Y004530D01*
X014540Y004530D01*
X014577Y004567D01*
X014651Y004530D02*
X014798Y004530D01*
X014724Y004530D02*
X014724Y004750D01*
X014651Y004677D01*
X014577Y004713D02*
X014540Y004750D01*
X014467Y004750D01*
X014430Y004713D01*
X014430Y004567D01*
X014411Y005580D02*
X014338Y005580D01*
X014301Y005617D01*
X014227Y005617D02*
X014190Y005580D01*
X014117Y005580D01*
X014080Y005617D01*
X014080Y005763D01*
X014117Y005800D01*
X014190Y005800D01*
X014227Y005763D01*
X014301Y005763D02*
X014338Y005800D01*
X014411Y005800D01*
X014448Y005763D01*
X014448Y005727D01*
X014411Y005690D01*
X014448Y005653D01*
X014448Y005617D01*
X014411Y005580D01*
X014411Y005690D02*
X014374Y005690D01*
X009997Y005779D02*
X009997Y005852D01*
X009924Y005852D01*
X009997Y005779D02*
X009960Y005742D01*
X009887Y005742D01*
X009850Y005779D01*
X009850Y005925D01*
X009887Y005962D01*
X009960Y005962D01*
X009997Y005925D01*
X009776Y005962D02*
X009703Y005962D01*
X009740Y005962D02*
X009740Y005742D01*
X009776Y005742D02*
X009703Y005742D01*
X009629Y005779D02*
X009592Y005742D01*
X009519Y005742D01*
X009482Y005779D01*
X009519Y005852D02*
X009592Y005852D01*
X009629Y005815D01*
X009629Y005779D01*
X009519Y005852D02*
X009482Y005889D01*
X009482Y005925D01*
X009519Y005962D01*
X009592Y005962D01*
X009629Y005925D01*
X009005Y005925D02*
X009005Y005779D01*
X008969Y005742D01*
X008859Y005742D01*
X008859Y005962D01*
X008969Y005962D01*
X009005Y005925D01*
X008784Y005962D02*
X008784Y005742D01*
X008638Y005962D01*
X008638Y005742D01*
X008563Y005779D02*
X008563Y005852D01*
X008490Y005852D01*
X008417Y005925D02*
X008417Y005779D01*
X008453Y005742D01*
X008527Y005742D01*
X008563Y005779D01*
X008563Y005925D02*
X008527Y005962D01*
X008453Y005962D01*
X008417Y005925D01*
X007865Y005962D02*
X007865Y005815D01*
X007792Y005742D01*
X007719Y005815D01*
X007719Y005962D01*
X007645Y005962D02*
X007498Y005962D01*
X007498Y005852D01*
X007571Y005889D01*
X007608Y005889D01*
X007645Y005852D01*
X007645Y005779D01*
X007608Y005742D01*
X007534Y005742D01*
X007498Y005779D01*
X005839Y005298D02*
X005692Y005298D01*
X005765Y005298D02*
X005765Y005518D01*
X005692Y005445D01*
X005618Y005518D02*
X005471Y005298D01*
X005618Y005298D02*
X005471Y005518D01*
X014630Y002363D02*
X014630Y002217D01*
X014667Y002180D01*
X014740Y002180D01*
X014777Y002217D01*
X014851Y002180D02*
X014998Y002327D01*
X014998Y002363D01*
X014961Y002400D01*
X014888Y002400D01*
X014851Y002363D01*
X014777Y002363D02*
X014740Y002400D01*
X014667Y002400D01*
X014630Y002363D01*
X014851Y002180D02*
X014998Y002180D01*
X012898Y000763D02*
X012861Y000800D01*
X012788Y000800D01*
X012751Y000763D01*
X012677Y000763D02*
X012677Y000690D01*
X012640Y000653D01*
X012530Y000653D01*
X012530Y000580D02*
X012530Y000800D01*
X012640Y000800D01*
X012677Y000763D01*
X012603Y000653D02*
X012677Y000580D01*
X012751Y000580D02*
X012898Y000727D01*
X012898Y000763D01*
X012898Y000580D02*
X012751Y000580D01*
X011356Y000540D02*
X011209Y000540D01*
X011282Y000540D02*
X011282Y000760D01*
X011209Y000687D01*
X011135Y000723D02*
X011135Y000650D01*
X011098Y000613D01*
X010988Y000613D01*
X010988Y000540D02*
X010988Y000760D01*
X011098Y000760D01*
X011135Y000723D01*
X011061Y000613D02*
X011135Y000540D01*
D11*
X013160Y001080D02*
X013440Y001080D01*
X013300Y001080D02*
X013300Y000660D01*
X013620Y000730D02*
X013620Y000870D01*
X013690Y000940D01*
X013831Y000940D01*
X013901Y000870D01*
X013901Y000800D01*
X013620Y000800D01*
X013620Y000730D02*
X013690Y000660D01*
X013831Y000660D01*
X014081Y000660D02*
X014081Y000940D01*
X014291Y000940D01*
X014361Y000870D01*
X014361Y000660D01*
X014611Y000730D02*
X014681Y000660D01*
X014611Y000730D02*
X014611Y001010D01*
X014541Y000940D02*
X014681Y000940D01*
X014918Y000940D02*
X015058Y000940D01*
X015128Y000870D01*
X015128Y000660D01*
X014918Y000660D01*
X014848Y000730D01*
X014918Y000800D01*
X015128Y000800D01*
X015308Y000730D02*
X015379Y000660D01*
X015589Y000660D01*
X015769Y000660D02*
X015909Y000660D01*
X015839Y000660D02*
X015839Y001080D01*
X015769Y001080D01*
X015589Y000940D02*
X015379Y000940D01*
X015308Y000870D01*
X015308Y000730D01*
X016076Y000730D02*
X016146Y000660D01*
X016286Y000660D01*
X016076Y000730D02*
X016076Y000870D01*
X016146Y000940D01*
X016286Y000940D01*
X016356Y000870D01*
X016356Y000800D01*
X016076Y000800D01*
X016997Y001080D02*
X017277Y001080D01*
X017137Y001080D02*
X017137Y000660D01*
X017457Y000660D02*
X017597Y000660D01*
X017527Y000660D02*
X017527Y000940D01*
X017457Y000940D01*
X017527Y001080D02*
X017527Y001150D01*
X017764Y000940D02*
X017974Y000940D01*
X018044Y000870D01*
X018044Y000730D01*
X017974Y000660D01*
X017764Y000660D01*
X017764Y000520D02*
X017764Y000940D01*
X012561Y002486D02*
X012246Y002486D01*
X011694Y002486D02*
X011379Y002486D01*
X011931Y003076D02*
X011933Y003088D01*
X011938Y003099D01*
X011947Y003108D01*
X011958Y003113D01*
X011970Y003115D01*
X011982Y003113D01*
X011993Y003108D01*
X012002Y003099D01*
X012007Y003088D01*
X012009Y003076D01*
X012007Y003064D01*
X012002Y003053D01*
X011993Y003044D01*
X011982Y003039D01*
X011970Y003037D01*
X011958Y003039D01*
X011947Y003044D01*
X011938Y003053D01*
X011933Y003064D01*
X011931Y003076D01*
X011694Y004454D02*
X011379Y004454D01*
X012246Y004454D02*
X012561Y004454D01*
D12*
X010337Y004937D02*
X010030Y004937D01*
X010183Y004937D02*
X010183Y005397D01*
X010030Y005244D01*
X016540Y001507D02*
X016573Y001540D01*
X016640Y001540D01*
X016673Y001507D01*
X016540Y001373D01*
X016573Y001340D01*
X016640Y001340D01*
X016673Y001373D01*
X016673Y001507D01*
X016761Y001507D02*
X016761Y001473D01*
X016794Y001440D01*
X016861Y001440D01*
X016894Y001407D01*
X016894Y001373D01*
X016861Y001340D01*
X016794Y001340D01*
X016761Y001373D01*
X016761Y001407D01*
X016794Y001440D01*
X016861Y001440D02*
X016894Y001473D01*
X016894Y001507D01*
X016861Y001540D01*
X016794Y001540D01*
X016761Y001507D01*
X016540Y001507D02*
X016540Y001373D01*
X016982Y001340D02*
X017115Y001540D01*
X017203Y001507D02*
X017236Y001540D01*
X017303Y001540D01*
X017336Y001507D01*
X017336Y001473D01*
X017203Y001340D01*
X017336Y001340D01*
X017424Y001373D02*
X017457Y001340D01*
X017524Y001340D01*
X017557Y001373D01*
X017557Y001507D01*
X017424Y001373D01*
X017424Y001507D01*
X017457Y001540D01*
X017524Y001540D01*
X017557Y001507D01*
X017645Y001473D02*
X017712Y001540D01*
X017712Y001340D01*
X017778Y001340D02*
X017645Y001340D01*
X017866Y001440D02*
X017999Y001440D01*
X017966Y001340D02*
X017966Y001540D01*
X017866Y001440D01*
D13*
X010220Y003167D02*
X010220Y004167D01*
X009220Y004167D01*
X008220Y004167D01*
X007220Y004167D01*
X007220Y003167D01*
X008220Y003167D01*
X009220Y003167D01*
X010220Y003167D01*
X009220Y003167D02*
X009220Y004167D01*
X008220Y004167D02*
X008220Y003167D01*
X006102Y003411D02*
X006102Y003911D01*
X005852Y004161D01*
X006102Y004411D01*
X006102Y004911D01*
X005852Y005161D01*
X004352Y005161D01*
X004102Y004911D01*
X004102Y004411D01*
X004352Y004161D01*
X004102Y003911D01*
X004102Y003411D01*
X004352Y003161D01*
X004102Y002911D01*
X004102Y002411D01*
X004352Y002161D01*
X004102Y001911D01*
X004102Y001411D01*
X004352Y001161D01*
X005852Y001161D01*
X006102Y001411D01*
X006102Y001911D01*
X005852Y002161D01*
X006102Y002411D01*
X006102Y002911D01*
X005852Y003161D01*
X006102Y003411D01*
D14*
X007720Y002917D02*
X007720Y000667D01*
X008720Y000667D02*
X008720Y002917D01*
X009720Y002917D02*
X009720Y000667D01*
D15*
X009720Y003067D03*
X008720Y003067D03*
X007720Y003067D03*
D16*
X007720Y004367D03*
X008720Y004367D03*
X009720Y004367D03*
D17*
X013219Y004178D02*
X013369Y004178D01*
X013369Y004128D02*
X013369Y004228D01*
X013269Y004128D02*
X013219Y004178D01*
X013219Y004080D02*
X013344Y004080D01*
X013369Y004055D01*
X013369Y004005D01*
X013344Y003980D01*
X013219Y003980D01*
D18*
X006727Y001786D02*
X006727Y001486D01*
X006727Y001636D02*
X006277Y001636D01*
X006427Y001486D01*
X003852Y004686D02*
X003777Y004686D01*
X003702Y004761D01*
X003702Y004911D01*
X003777Y004986D01*
X003852Y004986D01*
X003927Y004911D01*
X003927Y004761D01*
X003852Y004686D01*
X003702Y004761D02*
X003627Y004686D01*
X003552Y004686D01*
X003477Y004761D01*
X003477Y004911D01*
X003552Y004986D01*
X003627Y004986D01*
X003702Y004911D01*
M02*
