G75*
%MOIN*%
%OFA0B0*%
%FSLAX24Y24*%
%IPPOS*%
%LPD*%
%AMOC8*
5,1,8,0,0,1.08239X$1,22.5*
%
%ADD10C,0.0060*%
%ADD11C,0.0040*%
%ADD12C,0.0020*%
%ADD13C,0.0030*%
%ADD14R,0.0374X0.0197*%
%ADD15C,0.0500*%
%ADD16R,0.0300X0.2200*%
%ADD17R,0.0350X0.0500*%
%ADD18C,0.0080*%
%ADD19R,0.1140X0.0340*%
%ADD20R,0.0300X0.0340*%
%ADD21C,0.0079*%
%ADD22C,0.0050*%
%ADD23R,0.0240X0.0240*%
%ADD24R,0.0340X0.0160*%
%ADD25R,0.0160X0.0340*%
%ADD26R,0.0200X0.0200*%
%ADD27C,0.0000*%
%ADD28C,0.0100*%
D10*
X001700Y007900D02*
X001450Y008150D01*
X001450Y008650D01*
X001700Y008900D01*
X001450Y009150D01*
X001450Y009650D01*
X001700Y009900D01*
X001450Y010150D01*
X001450Y010650D01*
X001700Y010900D01*
X001450Y011150D01*
X001450Y011650D01*
X001700Y011900D01*
X001450Y012150D01*
X001450Y012650D01*
X001700Y012900D01*
X001450Y013150D01*
X001450Y013650D01*
X001700Y013900D01*
X001450Y014150D01*
X001450Y014650D01*
X001700Y014900D01*
X001450Y015150D01*
X001450Y015650D01*
X001700Y015900D01*
X002200Y015900D01*
X002450Y015650D01*
X002450Y015150D01*
X002200Y014900D01*
X002450Y014650D01*
X002450Y014150D01*
X002200Y013900D01*
X002450Y013650D01*
X002450Y013150D01*
X002200Y012900D01*
X002450Y012650D01*
X002450Y012150D01*
X002200Y011900D01*
X002450Y011650D01*
X002450Y011150D01*
X002200Y010900D01*
X002450Y010650D01*
X002450Y010150D01*
X002200Y009900D01*
X002450Y009650D01*
X002450Y009150D01*
X002200Y008900D01*
X002450Y008650D01*
X002450Y008150D01*
X002200Y007900D01*
X001700Y007900D01*
X004579Y010644D02*
X004579Y010857D01*
X004579Y010750D02*
X005113Y010750D01*
X005220Y010644D01*
X005220Y010537D01*
X005113Y010430D01*
X005220Y011075D02*
X004793Y011075D01*
X004579Y011288D01*
X004793Y011502D01*
X005220Y011502D01*
X005113Y011719D02*
X005220Y011826D01*
X005220Y012039D01*
X005113Y012146D01*
X005006Y012364D02*
X004579Y012791D01*
X004579Y012364D02*
X005220Y012364D01*
X004900Y012470D02*
X005220Y012791D01*
X004686Y012146D02*
X004579Y012039D01*
X004579Y011826D01*
X004686Y011719D01*
X005113Y011719D01*
X004900Y011502D02*
X004900Y011075D01*
X005113Y013653D02*
X005220Y013760D01*
X005220Y013973D01*
X005113Y014080D01*
X005006Y014080D01*
X004900Y013973D01*
X004900Y013866D01*
X004900Y013973D02*
X004793Y014080D01*
X004686Y014080D01*
X004579Y013973D01*
X004579Y013760D01*
X004686Y013653D01*
X002450Y016150D02*
X002200Y015900D01*
X001700Y015900D01*
X001450Y016150D01*
X001450Y016650D01*
X001700Y016900D01*
X001450Y017150D01*
X001450Y017650D01*
X001700Y017900D01*
X001450Y018150D01*
X001450Y018650D01*
X001700Y018900D01*
X001450Y019150D01*
X001450Y019650D01*
X001700Y019900D01*
X001450Y020150D01*
X001450Y020650D01*
X001700Y020900D01*
X001450Y021150D01*
X001450Y021650D01*
X001700Y021900D01*
X001450Y022150D01*
X001450Y022650D01*
X001700Y022900D01*
X001450Y023150D01*
X001450Y023650D01*
X001700Y023900D01*
X002200Y023900D01*
X002450Y023650D01*
X002450Y023150D01*
X002200Y022900D01*
X002450Y022650D01*
X002450Y022150D01*
X002200Y021900D01*
X002450Y021650D01*
X002450Y021150D01*
X002200Y020900D01*
X002450Y020650D01*
X002450Y020150D01*
X002200Y019900D01*
X002450Y019650D01*
X002450Y019150D01*
X002200Y018900D01*
X002450Y018650D01*
X002450Y018150D01*
X002200Y017900D01*
X002450Y017650D01*
X002450Y017150D01*
X002200Y016900D01*
X002450Y016650D01*
X002450Y016150D01*
X005013Y019430D02*
X005120Y019537D01*
X005120Y019644D01*
X005013Y019750D01*
X004479Y019750D01*
X004479Y019644D02*
X004479Y019857D01*
X004693Y020075D02*
X004479Y020288D01*
X004693Y020502D01*
X005120Y020502D01*
X005013Y020719D02*
X005120Y020826D01*
X005120Y021039D01*
X005013Y021146D01*
X004906Y021364D02*
X004479Y021791D01*
X004479Y021364D02*
X005120Y021364D01*
X004800Y021470D02*
X005120Y021791D01*
X004586Y021146D02*
X004479Y021039D01*
X004479Y020826D01*
X004586Y020719D01*
X005013Y020719D01*
X004800Y020502D02*
X004800Y020075D01*
X004693Y020075D02*
X005120Y020075D01*
X005120Y022653D02*
X004693Y023080D01*
X004586Y023080D01*
X004479Y022973D01*
X004479Y022760D01*
X004586Y022653D01*
X005120Y022653D02*
X005120Y023080D01*
X002450Y024150D02*
X002200Y023900D01*
X001700Y023900D01*
X001450Y024150D01*
X001450Y024650D01*
X001700Y024900D01*
X001450Y025150D01*
X001450Y025650D01*
X001700Y025900D01*
X001450Y026150D01*
X001450Y026650D01*
X001700Y026900D01*
X001450Y027150D01*
X001450Y027650D01*
X001700Y027900D01*
X001450Y028150D01*
X001450Y028650D01*
X001700Y028900D01*
X001450Y029150D01*
X001450Y029650D01*
X001700Y029900D01*
X001450Y030150D01*
X001450Y030650D01*
X001700Y030900D01*
X001450Y031150D01*
X001450Y031650D01*
X001700Y031900D01*
X002200Y031900D01*
X002450Y031650D01*
X002450Y031150D01*
X002200Y030900D01*
X002450Y030650D01*
X002450Y030150D01*
X002200Y029900D01*
X002450Y029650D01*
X002450Y029150D01*
X002200Y028900D01*
X002450Y028650D01*
X002450Y028150D01*
X002200Y027900D01*
X002450Y027650D01*
X002450Y027150D01*
X002200Y026900D01*
X002450Y026650D01*
X002450Y026150D01*
X002200Y025900D01*
X002450Y025650D01*
X002450Y025150D01*
X002200Y024900D01*
X002450Y024650D01*
X002450Y024150D01*
X004479Y026244D02*
X004479Y026457D01*
X004479Y026350D02*
X005013Y026350D01*
X005120Y026244D01*
X005120Y026137D01*
X005013Y026030D01*
X005120Y026675D02*
X004693Y026675D01*
X004479Y026888D01*
X004693Y027102D01*
X005120Y027102D01*
X005013Y027319D02*
X005120Y027426D01*
X005120Y027639D01*
X005013Y027746D01*
X004906Y027964D02*
X004479Y028391D01*
X004479Y027964D02*
X005120Y027964D01*
X004800Y028070D02*
X005120Y028391D01*
X004586Y027746D02*
X004479Y027639D01*
X004479Y027426D01*
X004586Y027319D01*
X005013Y027319D01*
X004800Y027102D02*
X004800Y026675D01*
X004693Y029253D02*
X004479Y029466D01*
X005120Y029466D01*
X005120Y029253D02*
X005120Y029680D01*
X005500Y029900D02*
X006000Y029900D01*
X006250Y030150D01*
X006500Y029900D01*
X007000Y029900D01*
X007250Y030150D01*
X007500Y029900D01*
X008000Y029900D01*
X008250Y030150D01*
X008500Y029900D01*
X009000Y029900D01*
X009250Y030150D01*
X009250Y031650D01*
X009000Y031900D01*
X008500Y031900D01*
X008250Y031650D01*
X008000Y031900D01*
X007500Y031900D01*
X007250Y031650D01*
X007000Y031900D01*
X006500Y031900D01*
X006250Y031650D01*
X006000Y031900D01*
X005500Y031900D01*
X005250Y031650D01*
X005250Y030150D01*
X005500Y029900D01*
X009650Y030150D02*
X009900Y029900D01*
X010400Y029900D01*
X010650Y030150D01*
X010650Y030650D01*
X010400Y030900D01*
X010650Y031150D01*
X010650Y031650D01*
X010400Y031900D01*
X009900Y031900D01*
X009650Y031650D01*
X009650Y031150D01*
X009900Y030900D01*
X010400Y030900D01*
X009900Y030900D02*
X009650Y030650D01*
X009650Y030150D01*
X009680Y023240D02*
X010020Y023240D01*
X010020Y022960D02*
X009680Y022960D01*
X013710Y017400D02*
X014330Y017400D01*
X014570Y017400D01*
X015190Y017400D01*
X014570Y017400D02*
X014568Y017379D01*
X014563Y017359D01*
X014554Y017340D01*
X014542Y017323D01*
X014527Y017308D01*
X014510Y017296D01*
X014491Y017287D01*
X014471Y017282D01*
X014450Y017280D01*
X014429Y017282D01*
X014409Y017287D01*
X014390Y017296D01*
X014373Y017308D01*
X014358Y017323D01*
X014346Y017340D01*
X014337Y017359D01*
X014332Y017379D01*
X014330Y017400D01*
X013710Y015400D02*
X015190Y015400D01*
X015190Y014900D02*
X014570Y014900D01*
X014330Y014900D01*
X013710Y014900D01*
X014330Y014900D02*
X014332Y014879D01*
X014337Y014859D01*
X014346Y014840D01*
X014358Y014823D01*
X014373Y014808D01*
X014390Y014796D01*
X014409Y014787D01*
X014429Y014782D01*
X014450Y014780D01*
X014471Y014782D01*
X014491Y014787D01*
X014510Y014796D01*
X014527Y014808D01*
X014542Y014823D01*
X014554Y014840D01*
X014563Y014859D01*
X014568Y014879D01*
X014570Y014900D01*
X016030Y015760D02*
X016430Y015760D01*
X016430Y013260D02*
X016030Y013260D01*
X015190Y012900D02*
X013710Y012900D01*
X013560Y012330D02*
X013560Y012260D01*
X013560Y012330D02*
X014330Y012330D01*
X014570Y012330D01*
X015340Y012330D01*
X015340Y012260D01*
X014570Y012330D02*
X014568Y012309D01*
X014563Y012289D01*
X014554Y012270D01*
X014542Y012253D01*
X014527Y012238D01*
X014510Y012226D01*
X014491Y012217D01*
X014471Y012212D01*
X014450Y012210D01*
X014429Y012212D01*
X014409Y012217D01*
X014390Y012226D01*
X014373Y012238D01*
X014358Y012253D01*
X014346Y012270D01*
X014337Y012289D01*
X014332Y012309D01*
X014330Y012330D01*
X016010Y010000D02*
X016410Y010000D01*
X017080Y008340D02*
X017420Y008340D01*
X017420Y008060D02*
X017080Y008060D01*
X016450Y007650D02*
X016450Y007150D01*
X016200Y006900D01*
X015700Y006900D01*
X015450Y007150D01*
X015200Y006900D01*
X014700Y006900D01*
X014450Y007150D01*
X014200Y006900D01*
X013700Y006900D01*
X013450Y007150D01*
X013200Y006900D01*
X012700Y006900D01*
X012450Y007150D01*
X012450Y007650D01*
X012700Y007900D01*
X013200Y007900D01*
X013450Y007650D01*
X013700Y007900D01*
X014200Y007900D01*
X014450Y007650D01*
X014700Y007900D01*
X015200Y007900D01*
X015450Y007650D01*
X015700Y007900D01*
X016200Y007900D01*
X016450Y007650D01*
X015340Y008470D02*
X015340Y008540D01*
X015340Y008470D02*
X013560Y008470D01*
X013560Y008540D01*
X012890Y009750D02*
X012490Y009750D01*
X010450Y008800D02*
X010450Y008000D01*
X010350Y007900D01*
X010450Y007800D01*
X010450Y007000D01*
X010350Y006900D01*
X010450Y006800D01*
X010450Y006000D01*
X010350Y005900D01*
X009550Y005900D01*
X009450Y006000D01*
X009450Y006800D01*
X009550Y006900D01*
X009450Y007000D01*
X009450Y007800D01*
X009550Y007900D01*
X009450Y008000D01*
X009450Y008800D01*
X009550Y008900D01*
X010350Y008900D01*
X010450Y008800D01*
X011610Y007270D02*
X011610Y006930D01*
X011890Y006930D02*
X011890Y007270D01*
X012250Y004750D02*
X016250Y004750D01*
X016250Y002050D01*
X016900Y002050D01*
X017600Y002050D01*
X018900Y002050D01*
X019600Y002050D01*
X020250Y002050D01*
X020250Y001100D01*
X012250Y001100D01*
X012250Y002050D01*
X012900Y002050D01*
X013600Y002050D01*
X014900Y002050D01*
X015600Y002050D01*
X016250Y002050D01*
X014660Y002750D02*
X014662Y002798D01*
X014668Y002846D01*
X014678Y002893D01*
X014691Y002939D01*
X014708Y002984D01*
X014729Y003027D01*
X014754Y003069D01*
X014781Y003108D01*
X014812Y003145D01*
X014846Y003180D01*
X014882Y003211D01*
X014921Y003240D01*
X014962Y003265D01*
X015005Y003287D01*
X015049Y003305D01*
X015095Y003319D01*
X015142Y003330D01*
X015190Y003337D01*
X015238Y003340D01*
X015286Y003339D01*
X015334Y003334D01*
X015381Y003325D01*
X015428Y003313D01*
X015473Y003296D01*
X015517Y003276D01*
X015559Y003253D01*
X015599Y003226D01*
X015636Y003196D01*
X015671Y003163D01*
X015704Y003127D01*
X015733Y003089D01*
X015759Y003048D01*
X015782Y003006D01*
X015801Y002962D01*
X015816Y002916D01*
X015828Y002870D01*
X015836Y002822D01*
X015840Y002774D01*
X015840Y002726D01*
X015836Y002678D01*
X015828Y002630D01*
X015816Y002584D01*
X015801Y002538D01*
X015782Y002494D01*
X015759Y002452D01*
X015733Y002411D01*
X015704Y002373D01*
X015671Y002337D01*
X015636Y002304D01*
X015599Y002274D01*
X015559Y002247D01*
X015517Y002224D01*
X015473Y002204D01*
X015428Y002187D01*
X015381Y002175D01*
X015334Y002166D01*
X015286Y002161D01*
X015238Y002160D01*
X015190Y002163D01*
X015142Y002170D01*
X015095Y002181D01*
X015049Y002195D01*
X015005Y002213D01*
X014962Y002235D01*
X014921Y002260D01*
X014882Y002289D01*
X014846Y002320D01*
X014812Y002355D01*
X014781Y002392D01*
X014754Y002431D01*
X014729Y002473D01*
X014708Y002516D01*
X014691Y002561D01*
X014678Y002607D01*
X014668Y002654D01*
X014662Y002702D01*
X014660Y002750D01*
X012660Y002750D02*
X012662Y002798D01*
X012668Y002846D01*
X012678Y002893D01*
X012691Y002939D01*
X012708Y002984D01*
X012729Y003027D01*
X012754Y003069D01*
X012781Y003108D01*
X012812Y003145D01*
X012846Y003180D01*
X012882Y003211D01*
X012921Y003240D01*
X012962Y003265D01*
X013005Y003287D01*
X013049Y003305D01*
X013095Y003319D01*
X013142Y003330D01*
X013190Y003337D01*
X013238Y003340D01*
X013286Y003339D01*
X013334Y003334D01*
X013381Y003325D01*
X013428Y003313D01*
X013473Y003296D01*
X013517Y003276D01*
X013559Y003253D01*
X013599Y003226D01*
X013636Y003196D01*
X013671Y003163D01*
X013704Y003127D01*
X013733Y003089D01*
X013759Y003048D01*
X013782Y003006D01*
X013801Y002962D01*
X013816Y002916D01*
X013828Y002870D01*
X013836Y002822D01*
X013840Y002774D01*
X013840Y002726D01*
X013836Y002678D01*
X013828Y002630D01*
X013816Y002584D01*
X013801Y002538D01*
X013782Y002494D01*
X013759Y002452D01*
X013733Y002411D01*
X013704Y002373D01*
X013671Y002337D01*
X013636Y002304D01*
X013599Y002274D01*
X013559Y002247D01*
X013517Y002224D01*
X013473Y002204D01*
X013428Y002187D01*
X013381Y002175D01*
X013334Y002166D01*
X013286Y002161D01*
X013238Y002160D01*
X013190Y002163D01*
X013142Y002170D01*
X013095Y002181D01*
X013049Y002195D01*
X013005Y002213D01*
X012962Y002235D01*
X012921Y002260D01*
X012882Y002289D01*
X012846Y002320D01*
X012812Y002355D01*
X012781Y002392D01*
X012754Y002431D01*
X012729Y002473D01*
X012708Y002516D01*
X012691Y002561D01*
X012678Y002607D01*
X012668Y002654D01*
X012662Y002702D01*
X012660Y002750D01*
X012250Y002050D02*
X012250Y004650D01*
X012250Y004750D01*
X012250Y004650D02*
X020250Y004650D01*
X020250Y002050D01*
X020850Y002050D02*
X021500Y002050D01*
X022200Y002050D01*
X023500Y002050D01*
X024200Y002050D01*
X024850Y002050D01*
X025500Y002050D01*
X026200Y002050D01*
X027500Y002050D01*
X028200Y002050D01*
X028850Y002050D01*
X028850Y001100D01*
X020850Y001100D01*
X020850Y002050D01*
X020850Y004650D01*
X020850Y004750D01*
X024850Y004750D01*
X024850Y002050D01*
X023260Y002750D02*
X023262Y002798D01*
X023268Y002846D01*
X023278Y002893D01*
X023291Y002939D01*
X023308Y002984D01*
X023329Y003027D01*
X023354Y003069D01*
X023381Y003108D01*
X023412Y003145D01*
X023446Y003180D01*
X023482Y003211D01*
X023521Y003240D01*
X023562Y003265D01*
X023605Y003287D01*
X023649Y003305D01*
X023695Y003319D01*
X023742Y003330D01*
X023790Y003337D01*
X023838Y003340D01*
X023886Y003339D01*
X023934Y003334D01*
X023981Y003325D01*
X024028Y003313D01*
X024073Y003296D01*
X024117Y003276D01*
X024159Y003253D01*
X024199Y003226D01*
X024236Y003196D01*
X024271Y003163D01*
X024304Y003127D01*
X024333Y003089D01*
X024359Y003048D01*
X024382Y003006D01*
X024401Y002962D01*
X024416Y002916D01*
X024428Y002870D01*
X024436Y002822D01*
X024440Y002774D01*
X024440Y002726D01*
X024436Y002678D01*
X024428Y002630D01*
X024416Y002584D01*
X024401Y002538D01*
X024382Y002494D01*
X024359Y002452D01*
X024333Y002411D01*
X024304Y002373D01*
X024271Y002337D01*
X024236Y002304D01*
X024199Y002274D01*
X024159Y002247D01*
X024117Y002224D01*
X024073Y002204D01*
X024028Y002187D01*
X023981Y002175D01*
X023934Y002166D01*
X023886Y002161D01*
X023838Y002160D01*
X023790Y002163D01*
X023742Y002170D01*
X023695Y002181D01*
X023649Y002195D01*
X023605Y002213D01*
X023562Y002235D01*
X023521Y002260D01*
X023482Y002289D01*
X023446Y002320D01*
X023412Y002355D01*
X023381Y002392D01*
X023354Y002431D01*
X023329Y002473D01*
X023308Y002516D01*
X023291Y002561D01*
X023278Y002607D01*
X023268Y002654D01*
X023262Y002702D01*
X023260Y002750D01*
X023650Y004120D02*
X023652Y004148D01*
X023658Y004175D01*
X023667Y004201D01*
X023680Y004226D01*
X023697Y004249D01*
X023716Y004269D01*
X023738Y004286D01*
X023762Y004300D01*
X023788Y004310D01*
X023815Y004317D01*
X023843Y004320D01*
X023871Y004319D01*
X023898Y004314D01*
X023925Y004305D01*
X023950Y004293D01*
X023973Y004278D01*
X023994Y004259D01*
X024012Y004238D01*
X024027Y004214D01*
X024038Y004188D01*
X024046Y004162D01*
X024050Y004134D01*
X024050Y004106D01*
X024046Y004078D01*
X024038Y004052D01*
X024027Y004026D01*
X024012Y004002D01*
X023994Y003981D01*
X023973Y003962D01*
X023950Y003947D01*
X023925Y003935D01*
X023898Y003926D01*
X023871Y003921D01*
X023843Y003920D01*
X023815Y003923D01*
X023788Y003930D01*
X023762Y003940D01*
X023738Y003954D01*
X023716Y003971D01*
X023697Y003991D01*
X023680Y004014D01*
X023667Y004039D01*
X023658Y004065D01*
X023652Y004092D01*
X023650Y004120D01*
X024850Y004750D02*
X028850Y004750D01*
X028850Y004650D01*
X028850Y002050D01*
X027260Y002750D02*
X027262Y002798D01*
X027268Y002846D01*
X027278Y002893D01*
X027291Y002939D01*
X027308Y002984D01*
X027329Y003027D01*
X027354Y003069D01*
X027381Y003108D01*
X027412Y003145D01*
X027446Y003180D01*
X027482Y003211D01*
X027521Y003240D01*
X027562Y003265D01*
X027605Y003287D01*
X027649Y003305D01*
X027695Y003319D01*
X027742Y003330D01*
X027790Y003337D01*
X027838Y003340D01*
X027886Y003339D01*
X027934Y003334D01*
X027981Y003325D01*
X028028Y003313D01*
X028073Y003296D01*
X028117Y003276D01*
X028159Y003253D01*
X028199Y003226D01*
X028236Y003196D01*
X028271Y003163D01*
X028304Y003127D01*
X028333Y003089D01*
X028359Y003048D01*
X028382Y003006D01*
X028401Y002962D01*
X028416Y002916D01*
X028428Y002870D01*
X028436Y002822D01*
X028440Y002774D01*
X028440Y002726D01*
X028436Y002678D01*
X028428Y002630D01*
X028416Y002584D01*
X028401Y002538D01*
X028382Y002494D01*
X028359Y002452D01*
X028333Y002411D01*
X028304Y002373D01*
X028271Y002337D01*
X028236Y002304D01*
X028199Y002274D01*
X028159Y002247D01*
X028117Y002224D01*
X028073Y002204D01*
X028028Y002187D01*
X027981Y002175D01*
X027934Y002166D01*
X027886Y002161D01*
X027838Y002160D01*
X027790Y002163D01*
X027742Y002170D01*
X027695Y002181D01*
X027649Y002195D01*
X027605Y002213D01*
X027562Y002235D01*
X027521Y002260D01*
X027482Y002289D01*
X027446Y002320D01*
X027412Y002355D01*
X027381Y002392D01*
X027354Y002431D01*
X027329Y002473D01*
X027308Y002516D01*
X027291Y002561D01*
X027278Y002607D01*
X027268Y002654D01*
X027262Y002702D01*
X027260Y002750D01*
X027650Y004120D02*
X027652Y004148D01*
X027658Y004175D01*
X027667Y004201D01*
X027680Y004226D01*
X027697Y004249D01*
X027716Y004269D01*
X027738Y004286D01*
X027762Y004300D01*
X027788Y004310D01*
X027815Y004317D01*
X027843Y004320D01*
X027871Y004319D01*
X027898Y004314D01*
X027925Y004305D01*
X027950Y004293D01*
X027973Y004278D01*
X027994Y004259D01*
X028012Y004238D01*
X028027Y004214D01*
X028038Y004188D01*
X028046Y004162D01*
X028050Y004134D01*
X028050Y004106D01*
X028046Y004078D01*
X028038Y004052D01*
X028027Y004026D01*
X028012Y004002D01*
X027994Y003981D01*
X027973Y003962D01*
X027950Y003947D01*
X027925Y003935D01*
X027898Y003926D01*
X027871Y003921D01*
X027843Y003920D01*
X027815Y003923D01*
X027788Y003930D01*
X027762Y003940D01*
X027738Y003954D01*
X027716Y003971D01*
X027697Y003991D01*
X027680Y004014D01*
X027667Y004039D01*
X027658Y004065D01*
X027652Y004092D01*
X027650Y004120D01*
X028850Y004650D02*
X020850Y004650D01*
X020250Y004650D02*
X020250Y004750D01*
X016250Y004750D01*
X015050Y004120D02*
X015052Y004148D01*
X015058Y004175D01*
X015067Y004201D01*
X015080Y004226D01*
X015097Y004249D01*
X015116Y004269D01*
X015138Y004286D01*
X015162Y004300D01*
X015188Y004310D01*
X015215Y004317D01*
X015243Y004320D01*
X015271Y004319D01*
X015298Y004314D01*
X015325Y004305D01*
X015350Y004293D01*
X015373Y004278D01*
X015394Y004259D01*
X015412Y004238D01*
X015427Y004214D01*
X015438Y004188D01*
X015446Y004162D01*
X015450Y004134D01*
X015450Y004106D01*
X015446Y004078D01*
X015438Y004052D01*
X015427Y004026D01*
X015412Y004002D01*
X015394Y003981D01*
X015373Y003962D01*
X015350Y003947D01*
X015325Y003935D01*
X015298Y003926D01*
X015271Y003921D01*
X015243Y003920D01*
X015215Y003923D01*
X015188Y003930D01*
X015162Y003940D01*
X015138Y003954D01*
X015116Y003971D01*
X015097Y003991D01*
X015080Y004014D01*
X015067Y004039D01*
X015058Y004065D01*
X015052Y004092D01*
X015050Y004120D01*
X013050Y004120D02*
X013052Y004148D01*
X013058Y004175D01*
X013067Y004201D01*
X013080Y004226D01*
X013097Y004249D01*
X013116Y004269D01*
X013138Y004286D01*
X013162Y004300D01*
X013188Y004310D01*
X013215Y004317D01*
X013243Y004320D01*
X013271Y004319D01*
X013298Y004314D01*
X013325Y004305D01*
X013350Y004293D01*
X013373Y004278D01*
X013394Y004259D01*
X013412Y004238D01*
X013427Y004214D01*
X013438Y004188D01*
X013446Y004162D01*
X013450Y004134D01*
X013450Y004106D01*
X013446Y004078D01*
X013438Y004052D01*
X013427Y004026D01*
X013412Y004002D01*
X013394Y003981D01*
X013373Y003962D01*
X013350Y003947D01*
X013325Y003935D01*
X013298Y003926D01*
X013271Y003921D01*
X013243Y003920D01*
X013215Y003923D01*
X013188Y003930D01*
X013162Y003940D01*
X013138Y003954D01*
X013116Y003971D01*
X013097Y003991D01*
X013080Y004014D01*
X013067Y004039D01*
X013058Y004065D01*
X013052Y004092D01*
X013050Y004120D01*
X017050Y004120D02*
X017052Y004148D01*
X017058Y004175D01*
X017067Y004201D01*
X017080Y004226D01*
X017097Y004249D01*
X017116Y004269D01*
X017138Y004286D01*
X017162Y004300D01*
X017188Y004310D01*
X017215Y004317D01*
X017243Y004320D01*
X017271Y004319D01*
X017298Y004314D01*
X017325Y004305D01*
X017350Y004293D01*
X017373Y004278D01*
X017394Y004259D01*
X017412Y004238D01*
X017427Y004214D01*
X017438Y004188D01*
X017446Y004162D01*
X017450Y004134D01*
X017450Y004106D01*
X017446Y004078D01*
X017438Y004052D01*
X017427Y004026D01*
X017412Y004002D01*
X017394Y003981D01*
X017373Y003962D01*
X017350Y003947D01*
X017325Y003935D01*
X017298Y003926D01*
X017271Y003921D01*
X017243Y003920D01*
X017215Y003923D01*
X017188Y003930D01*
X017162Y003940D01*
X017138Y003954D01*
X017116Y003971D01*
X017097Y003991D01*
X017080Y004014D01*
X017067Y004039D01*
X017058Y004065D01*
X017052Y004092D01*
X017050Y004120D01*
X016660Y002750D02*
X016662Y002798D01*
X016668Y002846D01*
X016678Y002893D01*
X016691Y002939D01*
X016708Y002984D01*
X016729Y003027D01*
X016754Y003069D01*
X016781Y003108D01*
X016812Y003145D01*
X016846Y003180D01*
X016882Y003211D01*
X016921Y003240D01*
X016962Y003265D01*
X017005Y003287D01*
X017049Y003305D01*
X017095Y003319D01*
X017142Y003330D01*
X017190Y003337D01*
X017238Y003340D01*
X017286Y003339D01*
X017334Y003334D01*
X017381Y003325D01*
X017428Y003313D01*
X017473Y003296D01*
X017517Y003276D01*
X017559Y003253D01*
X017599Y003226D01*
X017636Y003196D01*
X017671Y003163D01*
X017704Y003127D01*
X017733Y003089D01*
X017759Y003048D01*
X017782Y003006D01*
X017801Y002962D01*
X017816Y002916D01*
X017828Y002870D01*
X017836Y002822D01*
X017840Y002774D01*
X017840Y002726D01*
X017836Y002678D01*
X017828Y002630D01*
X017816Y002584D01*
X017801Y002538D01*
X017782Y002494D01*
X017759Y002452D01*
X017733Y002411D01*
X017704Y002373D01*
X017671Y002337D01*
X017636Y002304D01*
X017599Y002274D01*
X017559Y002247D01*
X017517Y002224D01*
X017473Y002204D01*
X017428Y002187D01*
X017381Y002175D01*
X017334Y002166D01*
X017286Y002161D01*
X017238Y002160D01*
X017190Y002163D01*
X017142Y002170D01*
X017095Y002181D01*
X017049Y002195D01*
X017005Y002213D01*
X016962Y002235D01*
X016921Y002260D01*
X016882Y002289D01*
X016846Y002320D01*
X016812Y002355D01*
X016781Y002392D01*
X016754Y002431D01*
X016729Y002473D01*
X016708Y002516D01*
X016691Y002561D01*
X016678Y002607D01*
X016668Y002654D01*
X016662Y002702D01*
X016660Y002750D01*
X018660Y002750D02*
X018662Y002798D01*
X018668Y002846D01*
X018678Y002893D01*
X018691Y002939D01*
X018708Y002984D01*
X018729Y003027D01*
X018754Y003069D01*
X018781Y003108D01*
X018812Y003145D01*
X018846Y003180D01*
X018882Y003211D01*
X018921Y003240D01*
X018962Y003265D01*
X019005Y003287D01*
X019049Y003305D01*
X019095Y003319D01*
X019142Y003330D01*
X019190Y003337D01*
X019238Y003340D01*
X019286Y003339D01*
X019334Y003334D01*
X019381Y003325D01*
X019428Y003313D01*
X019473Y003296D01*
X019517Y003276D01*
X019559Y003253D01*
X019599Y003226D01*
X019636Y003196D01*
X019671Y003163D01*
X019704Y003127D01*
X019733Y003089D01*
X019759Y003048D01*
X019782Y003006D01*
X019801Y002962D01*
X019816Y002916D01*
X019828Y002870D01*
X019836Y002822D01*
X019840Y002774D01*
X019840Y002726D01*
X019836Y002678D01*
X019828Y002630D01*
X019816Y002584D01*
X019801Y002538D01*
X019782Y002494D01*
X019759Y002452D01*
X019733Y002411D01*
X019704Y002373D01*
X019671Y002337D01*
X019636Y002304D01*
X019599Y002274D01*
X019559Y002247D01*
X019517Y002224D01*
X019473Y002204D01*
X019428Y002187D01*
X019381Y002175D01*
X019334Y002166D01*
X019286Y002161D01*
X019238Y002160D01*
X019190Y002163D01*
X019142Y002170D01*
X019095Y002181D01*
X019049Y002195D01*
X019005Y002213D01*
X018962Y002235D01*
X018921Y002260D01*
X018882Y002289D01*
X018846Y002320D01*
X018812Y002355D01*
X018781Y002392D01*
X018754Y002431D01*
X018729Y002473D01*
X018708Y002516D01*
X018691Y002561D01*
X018678Y002607D01*
X018668Y002654D01*
X018662Y002702D01*
X018660Y002750D01*
X019050Y004120D02*
X019052Y004148D01*
X019058Y004175D01*
X019067Y004201D01*
X019080Y004226D01*
X019097Y004249D01*
X019116Y004269D01*
X019138Y004286D01*
X019162Y004300D01*
X019188Y004310D01*
X019215Y004317D01*
X019243Y004320D01*
X019271Y004319D01*
X019298Y004314D01*
X019325Y004305D01*
X019350Y004293D01*
X019373Y004278D01*
X019394Y004259D01*
X019412Y004238D01*
X019427Y004214D01*
X019438Y004188D01*
X019446Y004162D01*
X019450Y004134D01*
X019450Y004106D01*
X019446Y004078D01*
X019438Y004052D01*
X019427Y004026D01*
X019412Y004002D01*
X019394Y003981D01*
X019373Y003962D01*
X019350Y003947D01*
X019325Y003935D01*
X019298Y003926D01*
X019271Y003921D01*
X019243Y003920D01*
X019215Y003923D01*
X019188Y003930D01*
X019162Y003940D01*
X019138Y003954D01*
X019116Y003971D01*
X019097Y003991D01*
X019080Y004014D01*
X019067Y004039D01*
X019058Y004065D01*
X019052Y004092D01*
X019050Y004120D01*
X019050Y006400D02*
X018950Y006500D01*
X018850Y006400D01*
X018050Y006400D01*
X017950Y006500D01*
X017950Y007300D01*
X018050Y007400D01*
X018850Y007400D01*
X018950Y007300D01*
X019050Y007400D01*
X019850Y007400D01*
X019950Y007300D01*
X020050Y007400D01*
X020850Y007400D01*
X020950Y007300D01*
X020950Y006500D01*
X020850Y006400D01*
X020050Y006400D01*
X019950Y006500D01*
X019850Y006400D01*
X019050Y006400D01*
X021650Y004120D02*
X021652Y004148D01*
X021658Y004175D01*
X021667Y004201D01*
X021680Y004226D01*
X021697Y004249D01*
X021716Y004269D01*
X021738Y004286D01*
X021762Y004300D01*
X021788Y004310D01*
X021815Y004317D01*
X021843Y004320D01*
X021871Y004319D01*
X021898Y004314D01*
X021925Y004305D01*
X021950Y004293D01*
X021973Y004278D01*
X021994Y004259D01*
X022012Y004238D01*
X022027Y004214D01*
X022038Y004188D01*
X022046Y004162D01*
X022050Y004134D01*
X022050Y004106D01*
X022046Y004078D01*
X022038Y004052D01*
X022027Y004026D01*
X022012Y004002D01*
X021994Y003981D01*
X021973Y003962D01*
X021950Y003947D01*
X021925Y003935D01*
X021898Y003926D01*
X021871Y003921D01*
X021843Y003920D01*
X021815Y003923D01*
X021788Y003930D01*
X021762Y003940D01*
X021738Y003954D01*
X021716Y003971D01*
X021697Y003991D01*
X021680Y004014D01*
X021667Y004039D01*
X021658Y004065D01*
X021652Y004092D01*
X021650Y004120D01*
X021260Y002750D02*
X021262Y002798D01*
X021268Y002846D01*
X021278Y002893D01*
X021291Y002939D01*
X021308Y002984D01*
X021329Y003027D01*
X021354Y003069D01*
X021381Y003108D01*
X021412Y003145D01*
X021446Y003180D01*
X021482Y003211D01*
X021521Y003240D01*
X021562Y003265D01*
X021605Y003287D01*
X021649Y003305D01*
X021695Y003319D01*
X021742Y003330D01*
X021790Y003337D01*
X021838Y003340D01*
X021886Y003339D01*
X021934Y003334D01*
X021981Y003325D01*
X022028Y003313D01*
X022073Y003296D01*
X022117Y003276D01*
X022159Y003253D01*
X022199Y003226D01*
X022236Y003196D01*
X022271Y003163D01*
X022304Y003127D01*
X022333Y003089D01*
X022359Y003048D01*
X022382Y003006D01*
X022401Y002962D01*
X022416Y002916D01*
X022428Y002870D01*
X022436Y002822D01*
X022440Y002774D01*
X022440Y002726D01*
X022436Y002678D01*
X022428Y002630D01*
X022416Y002584D01*
X022401Y002538D01*
X022382Y002494D01*
X022359Y002452D01*
X022333Y002411D01*
X022304Y002373D01*
X022271Y002337D01*
X022236Y002304D01*
X022199Y002274D01*
X022159Y002247D01*
X022117Y002224D01*
X022073Y002204D01*
X022028Y002187D01*
X021981Y002175D01*
X021934Y002166D01*
X021886Y002161D01*
X021838Y002160D01*
X021790Y002163D01*
X021742Y002170D01*
X021695Y002181D01*
X021649Y002195D01*
X021605Y002213D01*
X021562Y002235D01*
X021521Y002260D01*
X021482Y002289D01*
X021446Y002320D01*
X021412Y002355D01*
X021381Y002392D01*
X021354Y002431D01*
X021329Y002473D01*
X021308Y002516D01*
X021291Y002561D01*
X021278Y002607D01*
X021268Y002654D01*
X021262Y002702D01*
X021260Y002750D01*
X022950Y006000D02*
X026950Y006000D01*
X026950Y008200D01*
X022950Y008200D01*
X022950Y006000D01*
X024450Y007100D02*
X024950Y007100D01*
X024950Y006850D01*
X025100Y006850D01*
X025100Y006920D01*
X024950Y007100D02*
X024950Y007350D01*
X024800Y007350D01*
X024800Y007280D01*
X024950Y007100D02*
X025850Y007100D01*
X025400Y006870D02*
X024950Y007100D01*
X025400Y007330D01*
X025400Y006870D01*
X027450Y008150D02*
X027700Y007900D01*
X028200Y007900D01*
X028450Y008150D01*
X028450Y008650D01*
X028200Y008900D01*
X028450Y009150D01*
X028450Y009650D01*
X028200Y009900D01*
X028450Y010150D01*
X028450Y010650D01*
X028200Y010900D01*
X028450Y011150D01*
X028450Y011650D01*
X028200Y011900D01*
X028450Y012150D01*
X028450Y012650D01*
X028200Y012900D01*
X028450Y013150D01*
X028450Y013650D01*
X028200Y013900D01*
X028450Y014150D01*
X028450Y014650D01*
X028200Y014900D01*
X028450Y015150D01*
X028450Y015650D01*
X028200Y015900D01*
X027700Y015900D01*
X027450Y015650D01*
X027450Y015150D01*
X027700Y014900D01*
X027450Y014650D01*
X027450Y014150D01*
X027700Y013900D01*
X027450Y013650D01*
X027450Y013150D01*
X027700Y012900D01*
X027450Y012650D01*
X027450Y012150D01*
X027700Y011900D01*
X027450Y011650D01*
X027450Y011150D01*
X027700Y010900D01*
X027450Y010650D01*
X027450Y010150D01*
X027700Y009900D01*
X027450Y009650D01*
X027450Y009150D01*
X027700Y008900D01*
X027450Y008650D01*
X027450Y008150D01*
X025420Y010037D02*
X025420Y010144D01*
X025313Y010250D01*
X024779Y010250D01*
X024779Y010144D02*
X024779Y010357D01*
X024993Y010575D02*
X024779Y010788D01*
X024993Y011002D01*
X025420Y011002D01*
X025313Y011219D02*
X025420Y011326D01*
X025420Y011539D01*
X025313Y011646D01*
X025206Y011864D02*
X024779Y012291D01*
X025100Y011970D02*
X025420Y012291D01*
X025420Y011864D02*
X024779Y011864D01*
X024886Y011646D02*
X024779Y011539D01*
X024779Y011326D01*
X024886Y011219D01*
X025313Y011219D01*
X025100Y011002D02*
X025100Y010575D01*
X024993Y010575D02*
X025420Y010575D01*
X025420Y010037D02*
X025313Y009930D01*
X025313Y013153D02*
X025100Y013153D01*
X025100Y013473D01*
X025206Y013580D01*
X025313Y013580D01*
X025420Y013473D01*
X025420Y013260D01*
X025313Y013153D01*
X025100Y013153D02*
X024886Y013366D01*
X024779Y013580D01*
X027450Y016150D02*
X027450Y016650D01*
X027700Y016900D01*
X027450Y017150D01*
X027450Y017650D01*
X027700Y017900D01*
X027450Y018150D01*
X027450Y018650D01*
X027700Y018900D01*
X027450Y019150D01*
X027450Y019650D01*
X027700Y019900D01*
X027450Y020150D01*
X027450Y020650D01*
X027700Y020900D01*
X027450Y021150D01*
X027450Y021650D01*
X027700Y021900D01*
X027450Y022150D01*
X027450Y022650D01*
X027700Y022900D01*
X027450Y023150D01*
X027450Y023650D01*
X027700Y023900D01*
X028200Y023900D01*
X028450Y023650D01*
X028450Y023150D01*
X028200Y022900D01*
X028450Y022650D01*
X028450Y022150D01*
X028200Y021900D01*
X028450Y021650D01*
X028450Y021150D01*
X028200Y020900D01*
X028450Y020650D01*
X028450Y020150D01*
X028200Y019900D01*
X028450Y019650D01*
X028450Y019150D01*
X028200Y018900D01*
X028450Y018650D01*
X028450Y018150D01*
X028200Y017900D01*
X028450Y017650D01*
X028450Y017150D01*
X028200Y016900D01*
X028450Y016650D01*
X028450Y016150D01*
X028200Y015900D01*
X027700Y015900D01*
X027450Y016150D01*
X025420Y018037D02*
X025420Y018144D01*
X025313Y018250D01*
X024779Y018250D01*
X024779Y018144D02*
X024779Y018357D01*
X024993Y018575D02*
X024779Y018788D01*
X024993Y019002D01*
X025420Y019002D01*
X025313Y019219D02*
X025420Y019326D01*
X025420Y019539D01*
X025313Y019646D01*
X025206Y019864D02*
X024779Y020291D01*
X024779Y019864D02*
X025420Y019864D01*
X025100Y019970D02*
X025420Y020291D01*
X024886Y019646D02*
X024779Y019539D01*
X024779Y019326D01*
X024886Y019219D01*
X025313Y019219D01*
X025100Y019002D02*
X025100Y018575D01*
X024993Y018575D02*
X025420Y018575D01*
X025420Y018037D02*
X025313Y017930D01*
X025313Y021153D02*
X025420Y021260D01*
X025420Y021473D01*
X025313Y021580D01*
X025100Y021580D01*
X024993Y021473D01*
X024993Y021366D01*
X025100Y021153D01*
X024779Y021153D01*
X024779Y021580D01*
X027450Y024150D02*
X027450Y024650D01*
X027700Y024900D01*
X027450Y025150D01*
X027450Y025650D01*
X027700Y025900D01*
X027450Y026150D01*
X027450Y026650D01*
X027700Y026900D01*
X027450Y027150D01*
X027450Y027650D01*
X027700Y027900D01*
X027450Y028150D01*
X027450Y028650D01*
X027700Y028900D01*
X027450Y029150D01*
X027450Y029650D01*
X027700Y029900D01*
X027450Y030150D01*
X027450Y030650D01*
X027700Y030900D01*
X027450Y031150D01*
X027450Y031650D01*
X027700Y031900D01*
X028200Y031900D01*
X028450Y031650D01*
X028450Y031150D01*
X028200Y030900D01*
X028450Y030650D01*
X028450Y030150D01*
X028200Y029900D01*
X028450Y029650D01*
X028450Y029150D01*
X028200Y028900D01*
X028450Y028650D01*
X028450Y028150D01*
X028200Y027900D01*
X028450Y027650D01*
X028450Y027150D01*
X028200Y026900D01*
X028450Y026650D01*
X028450Y026150D01*
X028200Y025900D01*
X028450Y025650D01*
X028450Y025150D01*
X028200Y024900D01*
X028450Y024650D01*
X028450Y024150D01*
X028200Y023900D01*
X027700Y023900D01*
X027450Y024150D01*
X025420Y026037D02*
X025420Y026144D01*
X025313Y026250D01*
X024779Y026250D01*
X024779Y026144D02*
X024779Y026357D01*
X024993Y026575D02*
X024779Y026788D01*
X024993Y027002D01*
X025420Y027002D01*
X025313Y027219D02*
X025420Y027326D01*
X025420Y027539D01*
X025313Y027646D01*
X025206Y027864D02*
X024779Y028291D01*
X024779Y027864D02*
X025420Y027864D01*
X025100Y027970D02*
X025420Y028291D01*
X024886Y027646D02*
X024779Y027539D01*
X024779Y027326D01*
X024886Y027219D01*
X025313Y027219D01*
X025100Y027002D02*
X025100Y026575D01*
X024993Y026575D02*
X025420Y026575D01*
X025420Y026037D02*
X025313Y025930D01*
X025100Y029153D02*
X025100Y029580D01*
X025420Y029473D02*
X024779Y029473D01*
X025100Y029153D01*
X020920Y026377D02*
X020920Y026164D01*
X020813Y026057D01*
X020600Y026057D01*
X020493Y026164D01*
X020493Y026377D01*
X020600Y026484D01*
X020706Y026484D01*
X020706Y026057D01*
X020920Y025841D02*
X020920Y025627D01*
X020920Y025734D02*
X020279Y025734D01*
X020279Y025627D01*
X020493Y025410D02*
X020920Y025410D01*
X020920Y025090D01*
X020813Y024983D01*
X020493Y024983D01*
X020493Y024765D02*
X020493Y024445D01*
X020600Y024338D01*
X020813Y024338D01*
X020920Y024445D01*
X020920Y024765D01*
X020279Y024765D01*
X020600Y024121D02*
X020493Y024014D01*
X020493Y023801D01*
X020600Y023694D01*
X020813Y023694D01*
X020920Y023801D01*
X020920Y024014D01*
X020813Y024121D01*
X020600Y024121D01*
X020279Y023476D02*
X020920Y023476D01*
X020493Y023263D02*
X020279Y023476D01*
X020493Y023263D02*
X020279Y023049D01*
X020920Y023049D01*
X020920Y022189D02*
X020920Y021975D01*
X020920Y022082D02*
X020279Y022082D01*
X020279Y021975D01*
X020600Y021758D02*
X020493Y021651D01*
X020493Y021437D01*
X020600Y021330D01*
X020813Y021330D01*
X020920Y021437D01*
X020920Y021651D01*
X020813Y021758D01*
X020600Y021758D01*
X020493Y021114D02*
X020493Y021007D01*
X020706Y020793D01*
X020493Y020793D02*
X020920Y020793D01*
X020920Y020577D02*
X020813Y020470D01*
X020386Y020470D01*
X020493Y020364D02*
X020493Y020577D01*
X020600Y020146D02*
X020920Y020146D01*
X020600Y020146D02*
X020493Y020039D01*
X020493Y019719D01*
X020920Y019719D01*
X020813Y019502D02*
X020600Y019502D01*
X020493Y019395D01*
X020493Y019181D01*
X020600Y019075D01*
X020813Y019075D01*
X020920Y019181D01*
X020920Y019395D01*
X020813Y019502D01*
X020813Y018857D02*
X020920Y018750D01*
X020920Y018537D01*
X020813Y018430D01*
X020386Y018430D01*
X020279Y018537D01*
X020279Y018750D01*
X020386Y018857D01*
X018790Y018070D02*
X018790Y017730D01*
X018510Y017730D02*
X018510Y018070D01*
X011090Y014370D02*
X011090Y014030D01*
X010810Y014030D02*
X010810Y014370D01*
X018400Y030400D02*
X018150Y030650D01*
X018150Y031150D01*
X018400Y031400D01*
X018150Y031650D01*
X018150Y032150D01*
X018400Y032400D01*
X018900Y032400D01*
X019150Y032150D01*
X019150Y031650D01*
X018900Y031400D01*
X019150Y031150D01*
X019150Y030650D01*
X018900Y030400D01*
X018400Y030400D01*
X018400Y031400D02*
X018900Y031400D01*
X025650Y004120D02*
X025652Y004148D01*
X025658Y004175D01*
X025667Y004201D01*
X025680Y004226D01*
X025697Y004249D01*
X025716Y004269D01*
X025738Y004286D01*
X025762Y004300D01*
X025788Y004310D01*
X025815Y004317D01*
X025843Y004320D01*
X025871Y004319D01*
X025898Y004314D01*
X025925Y004305D01*
X025950Y004293D01*
X025973Y004278D01*
X025994Y004259D01*
X026012Y004238D01*
X026027Y004214D01*
X026038Y004188D01*
X026046Y004162D01*
X026050Y004134D01*
X026050Y004106D01*
X026046Y004078D01*
X026038Y004052D01*
X026027Y004026D01*
X026012Y004002D01*
X025994Y003981D01*
X025973Y003962D01*
X025950Y003947D01*
X025925Y003935D01*
X025898Y003926D01*
X025871Y003921D01*
X025843Y003920D01*
X025815Y003923D01*
X025788Y003930D01*
X025762Y003940D01*
X025738Y003954D01*
X025716Y003971D01*
X025697Y003991D01*
X025680Y004014D01*
X025667Y004039D01*
X025658Y004065D01*
X025652Y004092D01*
X025650Y004120D01*
X025260Y002750D02*
X025262Y002798D01*
X025268Y002846D01*
X025278Y002893D01*
X025291Y002939D01*
X025308Y002984D01*
X025329Y003027D01*
X025354Y003069D01*
X025381Y003108D01*
X025412Y003145D01*
X025446Y003180D01*
X025482Y003211D01*
X025521Y003240D01*
X025562Y003265D01*
X025605Y003287D01*
X025649Y003305D01*
X025695Y003319D01*
X025742Y003330D01*
X025790Y003337D01*
X025838Y003340D01*
X025886Y003339D01*
X025934Y003334D01*
X025981Y003325D01*
X026028Y003313D01*
X026073Y003296D01*
X026117Y003276D01*
X026159Y003253D01*
X026199Y003226D01*
X026236Y003196D01*
X026271Y003163D01*
X026304Y003127D01*
X026333Y003089D01*
X026359Y003048D01*
X026382Y003006D01*
X026401Y002962D01*
X026416Y002916D01*
X026428Y002870D01*
X026436Y002822D01*
X026440Y002774D01*
X026440Y002726D01*
X026436Y002678D01*
X026428Y002630D01*
X026416Y002584D01*
X026401Y002538D01*
X026382Y002494D01*
X026359Y002452D01*
X026333Y002411D01*
X026304Y002373D01*
X026271Y002337D01*
X026236Y002304D01*
X026199Y002274D01*
X026159Y002247D01*
X026117Y002224D01*
X026073Y002204D01*
X026028Y002187D01*
X025981Y002175D01*
X025934Y002166D01*
X025886Y002161D01*
X025838Y002160D01*
X025790Y002163D01*
X025742Y002170D01*
X025695Y002181D01*
X025649Y002195D01*
X025605Y002213D01*
X025562Y002235D01*
X025521Y002260D01*
X025482Y002289D01*
X025446Y002320D01*
X025412Y002355D01*
X025381Y002392D01*
X025354Y002431D01*
X025329Y002473D01*
X025308Y002516D01*
X025291Y002561D01*
X025278Y002607D01*
X025268Y002654D01*
X025262Y002702D01*
X025260Y002750D01*
D11*
X002985Y002540D02*
X002985Y002260D01*
X003320Y002260D02*
X003320Y002540D01*
X003315Y003760D02*
X003315Y004040D01*
X002980Y004040D02*
X002980Y003760D01*
X002985Y005760D02*
X002985Y006040D01*
X003320Y006040D02*
X003320Y005760D01*
X003315Y007260D02*
X003315Y007540D01*
X002980Y007540D02*
X002980Y007260D01*
X012470Y005150D02*
X012777Y005150D01*
X012930Y005227D02*
X013084Y005380D01*
X013084Y004920D01*
X013237Y004920D02*
X012930Y004920D01*
X012623Y004997D02*
X012623Y005304D01*
X013391Y005304D02*
X013468Y005380D01*
X013621Y005380D01*
X013698Y005304D01*
X013698Y005227D01*
X013391Y004920D01*
X013698Y004920D01*
X014670Y004997D02*
X014747Y004920D01*
X014900Y004920D01*
X014977Y004997D01*
X014977Y005150D01*
X014823Y005150D01*
X014670Y004997D02*
X014670Y005304D01*
X014747Y005380D01*
X014900Y005380D01*
X014977Y005304D01*
X015130Y005380D02*
X015437Y004920D01*
X015437Y005380D01*
X015591Y005380D02*
X015821Y005380D01*
X015898Y005304D01*
X015898Y004997D01*
X015821Y004920D01*
X015591Y004920D01*
X015591Y005380D01*
X015130Y005380D02*
X015130Y004920D01*
X016670Y004997D02*
X016747Y004920D01*
X016900Y004920D01*
X016977Y004997D01*
X016977Y005150D01*
X016823Y005150D01*
X016670Y004997D02*
X016670Y005304D01*
X016747Y005380D01*
X016900Y005380D01*
X016977Y005304D01*
X017130Y005380D02*
X017437Y004920D01*
X017437Y005380D01*
X017591Y005380D02*
X017821Y005380D01*
X017898Y005304D01*
X017898Y004997D01*
X017821Y004920D01*
X017591Y004920D01*
X017591Y005380D01*
X017130Y005380D02*
X017130Y004920D01*
X018670Y005150D02*
X018977Y005150D01*
X019130Y005227D02*
X019284Y005380D01*
X019284Y004920D01*
X019437Y004920D02*
X019130Y004920D01*
X018823Y004997D02*
X018823Y005304D01*
X019591Y005304D02*
X019668Y005380D01*
X019821Y005380D01*
X019898Y005304D01*
X019898Y005227D01*
X019591Y004920D01*
X019898Y004920D01*
X020970Y005150D02*
X021277Y005150D01*
X021430Y005227D02*
X021584Y005380D01*
X021584Y004920D01*
X021737Y004920D02*
X021430Y004920D01*
X021123Y004997D02*
X021123Y005304D01*
X021891Y005304D02*
X021968Y005380D01*
X022121Y005380D01*
X022198Y005304D01*
X022198Y005227D01*
X021891Y004920D01*
X022198Y004920D01*
X023170Y004997D02*
X023247Y004920D01*
X023400Y004920D01*
X023477Y004997D01*
X023477Y005150D01*
X023323Y005150D01*
X023170Y004997D02*
X023170Y005304D01*
X023247Y005380D01*
X023400Y005380D01*
X023477Y005304D01*
X023630Y005380D02*
X023937Y004920D01*
X023937Y005380D01*
X024091Y005380D02*
X024321Y005380D01*
X024398Y005304D01*
X024398Y004997D01*
X024321Y004920D01*
X024091Y004920D01*
X024091Y005380D01*
X023630Y005380D02*
X023630Y004920D01*
X025170Y004997D02*
X025247Y004920D01*
X025400Y004920D01*
X025477Y004997D01*
X025477Y005150D01*
X025323Y005150D01*
X025170Y004997D02*
X025170Y005304D01*
X025247Y005380D01*
X025400Y005380D01*
X025477Y005304D01*
X025630Y005380D02*
X025937Y004920D01*
X025937Y005380D01*
X026091Y005380D02*
X026321Y005380D01*
X026398Y005304D01*
X026398Y004997D01*
X026321Y004920D01*
X026091Y004920D01*
X026091Y005380D01*
X025630Y005380D02*
X025630Y004920D01*
X027170Y005150D02*
X027477Y005150D01*
X027630Y005227D02*
X027784Y005380D01*
X027784Y004920D01*
X027937Y004920D02*
X027630Y004920D01*
X027323Y004997D02*
X027323Y005304D01*
X028091Y005304D02*
X028168Y005380D01*
X028321Y005380D01*
X028398Y005304D01*
X028398Y005227D01*
X028091Y004920D01*
X028398Y004920D01*
X023930Y018420D02*
X023930Y018727D01*
X023930Y018880D02*
X023623Y019187D01*
X023546Y019187D01*
X023470Y019111D01*
X023470Y018957D01*
X023546Y018880D01*
X023470Y018573D02*
X023930Y018573D01*
X023930Y018880D02*
X023930Y019187D01*
X023930Y019341D02*
X023470Y019648D01*
X023623Y019801D02*
X023470Y019955D01*
X023930Y019955D01*
X023930Y020108D02*
X023930Y019801D01*
X023700Y020262D02*
X023700Y020568D01*
X023930Y020492D02*
X023470Y020492D01*
X023700Y020262D01*
X022930Y020262D02*
X022930Y020492D01*
X022853Y020568D01*
X022777Y020568D01*
X022700Y020492D01*
X022700Y020262D01*
X022700Y020108D02*
X022546Y020108D01*
X022470Y020031D01*
X022470Y019801D01*
X022930Y019801D01*
X022777Y019801D02*
X022777Y020031D01*
X022700Y020108D01*
X022930Y020262D02*
X022470Y020262D01*
X022470Y020492D01*
X022546Y020568D01*
X022623Y020568D01*
X022700Y020492D01*
X022700Y020722D02*
X022700Y021029D01*
X022623Y021029D02*
X022930Y021029D01*
X022930Y021182D02*
X022930Y021336D01*
X022930Y021259D02*
X022470Y021259D01*
X022470Y021182D02*
X022470Y021336D01*
X022623Y021029D02*
X022470Y020875D01*
X022623Y020722D01*
X022930Y020722D01*
X021930Y020799D02*
X021853Y020875D01*
X021700Y020875D01*
X021623Y020799D01*
X021623Y020645D01*
X021700Y020568D01*
X021853Y020568D01*
X021930Y020645D01*
X021930Y020799D01*
X021930Y021029D02*
X021930Y021182D01*
X021930Y021106D02*
X021623Y021106D01*
X021623Y021029D01*
X021470Y021106D02*
X021393Y021106D01*
X021623Y021413D02*
X021700Y021336D01*
X021853Y021336D01*
X021930Y021413D01*
X021930Y021643D01*
X021623Y021643D02*
X021623Y021413D01*
X021623Y022257D02*
X021700Y022333D01*
X021700Y022487D01*
X021777Y022564D01*
X021853Y022564D01*
X021930Y022487D01*
X021930Y022333D01*
X021853Y022257D01*
X021623Y022257D02*
X021546Y022257D01*
X021470Y022333D01*
X021470Y022487D01*
X021546Y022564D01*
X021700Y022717D02*
X021623Y022794D01*
X021623Y022947D01*
X021700Y023024D01*
X021777Y023024D01*
X021777Y022717D01*
X021853Y022717D02*
X021700Y022717D01*
X021853Y022717D02*
X021930Y022794D01*
X021930Y022947D01*
X021930Y023177D02*
X021623Y023177D01*
X021777Y023177D02*
X021623Y023331D01*
X021623Y023408D01*
X021623Y023561D02*
X021623Y023638D01*
X021930Y023638D01*
X021930Y023561D02*
X021930Y023715D01*
X021853Y023868D02*
X021700Y023868D01*
X021623Y023945D01*
X021623Y024098D01*
X021700Y024175D01*
X021777Y024175D01*
X021777Y023868D01*
X021853Y023868D02*
X021930Y023945D01*
X021930Y024098D01*
X021930Y024328D02*
X021930Y024559D01*
X021853Y024635D01*
X021777Y024559D01*
X021777Y024405D01*
X021700Y024328D01*
X021623Y024405D01*
X021623Y024635D01*
X021546Y025249D02*
X021470Y025326D01*
X021470Y025479D01*
X021546Y025556D01*
X021623Y025556D01*
X021700Y025479D01*
X021777Y025556D01*
X021853Y025556D01*
X021930Y025479D01*
X021930Y025326D01*
X021853Y025249D01*
X021700Y025403D02*
X021700Y025479D01*
X022470Y025479D02*
X022470Y025403D01*
X022470Y025479D02*
X022930Y025479D01*
X022930Y025403D02*
X022930Y025556D01*
X022853Y025710D02*
X022930Y025786D01*
X022930Y025940D01*
X022853Y026016D01*
X022700Y026016D01*
X022623Y025940D01*
X022623Y025786D01*
X022700Y025710D01*
X022853Y025710D01*
X022623Y025249D02*
X022623Y025172D01*
X022777Y025019D01*
X022930Y025019D02*
X022623Y025019D01*
X022700Y024865D02*
X022777Y024865D01*
X022777Y024559D01*
X022853Y024559D02*
X022700Y024559D01*
X022623Y024635D01*
X022623Y024789D01*
X022700Y024865D01*
X022930Y024789D02*
X022930Y024635D01*
X022853Y024559D01*
X022930Y024405D02*
X022853Y024328D01*
X022546Y024328D01*
X022623Y024252D02*
X022623Y024405D01*
X022700Y024098D02*
X022930Y024098D01*
X022930Y023868D01*
X022853Y023791D01*
X022777Y023868D01*
X022777Y024098D01*
X022700Y024098D02*
X022623Y024021D01*
X022623Y023868D01*
X022470Y023638D02*
X022930Y023638D01*
X022777Y023484D01*
X022930Y023331D01*
X022470Y023331D01*
X022470Y023177D02*
X022853Y023177D01*
X022930Y023101D01*
X022930Y022947D01*
X022853Y022870D01*
X022470Y022870D01*
X022777Y022257D02*
X022930Y022103D01*
X022930Y022026D01*
X022853Y021950D01*
X022777Y021950D01*
X022623Y022103D01*
X022546Y022103D01*
X022470Y022026D01*
X022546Y021950D01*
X022623Y021950D01*
X022930Y022257D01*
X021470Y023638D02*
X021393Y023638D01*
X022700Y026170D02*
X022853Y026170D01*
X022930Y026247D01*
X022930Y026400D01*
X022853Y026477D01*
X022700Y026477D01*
X022623Y026400D01*
X022623Y026247D01*
X022700Y026170D01*
X019130Y029920D02*
X019130Y030227D01*
X019130Y030073D02*
X018670Y030073D01*
X018823Y029920D01*
X011158Y032480D02*
X010851Y032480D01*
X011005Y032480D02*
X011005Y032020D01*
X010698Y032020D02*
X010544Y032173D01*
X010621Y032173D02*
X010391Y032173D01*
X010391Y032020D02*
X010391Y032480D01*
X010621Y032480D01*
X010698Y032404D01*
X010698Y032250D01*
X010621Y032173D01*
X010237Y032250D02*
X009930Y032250D01*
X009930Y032327D02*
X010084Y032480D01*
X010237Y032327D01*
X010237Y032020D01*
X009930Y032020D02*
X009930Y032327D01*
X009777Y032480D02*
X009777Y032097D01*
X009700Y032020D01*
X009547Y032020D01*
X009470Y032097D01*
X009470Y032480D01*
X010630Y029727D02*
X010630Y029420D01*
X010630Y029573D02*
X010170Y029573D01*
X010323Y029420D01*
X007817Y029380D02*
X007663Y029380D01*
X007740Y029380D02*
X007740Y028920D01*
X007663Y028920D02*
X007817Y028920D01*
X007510Y029150D02*
X007433Y029073D01*
X007203Y029073D01*
X007203Y028920D02*
X007203Y029380D01*
X007433Y029380D01*
X007510Y029304D01*
X007510Y029150D01*
X007049Y029073D02*
X007049Y028997D01*
X006972Y028920D01*
X006819Y028920D01*
X006742Y028997D01*
X006819Y029150D02*
X006972Y029150D01*
X007049Y029073D01*
X007049Y029304D02*
X006972Y029380D01*
X006819Y029380D01*
X006742Y029304D01*
X006742Y029227D01*
X006819Y029150D01*
X021623Y020415D02*
X021623Y020108D01*
X021700Y019955D02*
X021623Y019878D01*
X021623Y019724D01*
X021700Y019648D01*
X021853Y019648D01*
X021930Y019724D01*
X021930Y019878D01*
X021853Y019955D01*
X021700Y019955D01*
X021930Y020108D02*
X021930Y020415D01*
X021623Y020415D02*
X021930Y020108D01*
X021930Y019494D02*
X021930Y019341D01*
X021930Y019418D02*
X021470Y019418D01*
X021470Y019341D01*
X021623Y019187D02*
X022007Y019187D01*
X022083Y019111D01*
X022083Y019034D01*
X021930Y018957D02*
X021930Y019187D01*
X021930Y018957D02*
X021853Y018880D01*
X021623Y018880D01*
X021700Y018727D02*
X021700Y018420D01*
X021930Y018420D02*
X021470Y018420D01*
X021470Y018727D02*
X021930Y018727D01*
X022470Y018420D02*
X022930Y018420D01*
X022930Y018650D01*
X022853Y018727D01*
X022700Y018727D01*
X022623Y018650D01*
X022623Y018420D01*
X022623Y018880D02*
X022853Y018880D01*
X022930Y018957D01*
X022930Y019187D01*
X023007Y019187D02*
X023083Y019111D01*
X023083Y019034D01*
X023007Y019187D02*
X022623Y019187D01*
X023470Y018573D02*
X023623Y018420D01*
D12*
X025860Y018457D02*
X025897Y018420D01*
X025970Y018420D01*
X026007Y018383D01*
X026007Y018347D01*
X025970Y018310D01*
X025897Y018310D01*
X025860Y018347D01*
X025860Y018457D02*
X025860Y018493D01*
X025897Y018530D01*
X025970Y018530D01*
X026007Y018493D01*
X026081Y018530D02*
X026081Y018310D01*
X026081Y018383D02*
X026191Y018383D01*
X026228Y018420D01*
X026228Y018493D01*
X026191Y018530D01*
X026081Y018530D01*
X026302Y018530D02*
X026302Y018310D01*
X026375Y018383D01*
X026449Y018310D01*
X026449Y018530D01*
X026523Y018530D02*
X026596Y018457D01*
X026670Y018530D01*
X026670Y018310D01*
X026744Y018273D02*
X026891Y018273D01*
X026965Y018310D02*
X027112Y018310D01*
X027038Y018310D02*
X027038Y018530D01*
X026965Y018457D01*
X026523Y018530D02*
X026523Y018310D01*
X026523Y017530D02*
X026596Y017457D01*
X026670Y017530D01*
X026670Y017310D01*
X026744Y017273D02*
X026891Y017273D01*
X026965Y017310D02*
X027112Y017457D01*
X027112Y017493D01*
X027075Y017530D01*
X027002Y017530D01*
X026965Y017493D01*
X026965Y017310D02*
X027112Y017310D01*
X026523Y017310D02*
X026523Y017530D01*
X026449Y017530D02*
X026449Y017310D01*
X026375Y017383D01*
X026302Y017310D01*
X026302Y017530D01*
X026228Y017493D02*
X026191Y017530D01*
X026081Y017530D01*
X026081Y017310D01*
X026081Y017383D02*
X026191Y017383D01*
X026228Y017420D01*
X026228Y017493D01*
X026007Y017530D02*
X025860Y017530D01*
X025860Y017310D01*
X025860Y017420D02*
X025933Y017420D01*
X025860Y016530D02*
X026007Y016530D01*
X026081Y016530D02*
X026191Y016530D01*
X026228Y016493D01*
X026228Y016420D01*
X026191Y016383D01*
X026081Y016383D01*
X026081Y016310D02*
X026081Y016530D01*
X025933Y016420D02*
X025860Y016420D01*
X025860Y016310D02*
X025860Y016530D01*
X026302Y016530D02*
X026302Y016310D01*
X026375Y016383D01*
X026449Y016310D01*
X026449Y016530D01*
X026523Y016530D02*
X026596Y016457D01*
X026670Y016530D01*
X026670Y016310D01*
X026744Y016273D02*
X026891Y016273D01*
X026965Y016310D02*
X027112Y016310D01*
X027038Y016310D02*
X027038Y016530D01*
X026965Y016457D01*
X026523Y016530D02*
X026523Y016310D01*
X026375Y015530D02*
X026449Y015457D01*
X026449Y015310D01*
X026449Y015420D02*
X026302Y015420D01*
X026302Y015457D02*
X026375Y015530D01*
X026302Y015457D02*
X026302Y015310D01*
X026228Y015347D02*
X026228Y015493D01*
X026191Y015530D01*
X026081Y015530D01*
X026081Y015310D01*
X026191Y015310D01*
X026228Y015347D01*
X026007Y015347D02*
X025970Y015310D01*
X025897Y015310D01*
X025860Y015347D01*
X025897Y015420D02*
X025860Y015457D01*
X025860Y015493D01*
X025897Y015530D01*
X025970Y015530D01*
X026007Y015493D01*
X025970Y015420D02*
X026007Y015383D01*
X026007Y015347D01*
X025970Y015420D02*
X025897Y015420D01*
X025897Y014530D02*
X025860Y014493D01*
X025860Y014457D01*
X025897Y014420D01*
X025970Y014420D01*
X026007Y014383D01*
X026007Y014347D01*
X025970Y014310D01*
X025897Y014310D01*
X025860Y014347D01*
X025897Y014530D02*
X025970Y014530D01*
X026007Y014493D01*
X026081Y014493D02*
X026081Y014347D01*
X026118Y014310D01*
X026191Y014310D01*
X026228Y014347D01*
X026302Y014310D02*
X026449Y014310D01*
X026302Y014310D02*
X026302Y014530D01*
X026228Y014493D02*
X026191Y014530D01*
X026118Y014530D01*
X026081Y014493D01*
X026081Y013530D02*
X026228Y013310D01*
X026228Y013530D01*
X026302Y013530D02*
X026302Y013310D01*
X026449Y013310D01*
X026523Y013347D02*
X026560Y013310D01*
X026633Y013310D01*
X026670Y013347D01*
X026670Y013420D01*
X026596Y013420D01*
X026523Y013493D02*
X026523Y013347D01*
X026523Y013493D02*
X026560Y013530D01*
X026633Y013530D01*
X026670Y013493D01*
X026744Y013273D02*
X026891Y013273D01*
X026965Y013310D02*
X027112Y013457D01*
X027112Y013493D01*
X027075Y013530D01*
X027002Y013530D01*
X026965Y013493D01*
X026965Y013310D02*
X027112Y013310D01*
X027038Y012530D02*
X027038Y012310D01*
X026965Y012310D02*
X027112Y012310D01*
X026965Y012457D02*
X027038Y012530D01*
X026891Y012273D02*
X026744Y012273D01*
X026670Y012347D02*
X026670Y012420D01*
X026596Y012420D01*
X026523Y012347D02*
X026560Y012310D01*
X026633Y012310D01*
X026670Y012347D01*
X026670Y012493D02*
X026633Y012530D01*
X026560Y012530D01*
X026523Y012493D01*
X026523Y012347D01*
X026449Y012310D02*
X026302Y012310D01*
X026302Y012530D01*
X026228Y012530D02*
X026228Y012310D01*
X026081Y012530D01*
X026081Y012310D01*
X026007Y012310D02*
X026007Y012457D01*
X025933Y012530D01*
X025860Y012457D01*
X025860Y012310D01*
X025860Y012420D02*
X026007Y012420D01*
X026007Y013310D02*
X026007Y013457D01*
X025933Y013530D01*
X025860Y013457D01*
X025860Y013310D01*
X025860Y013420D02*
X026007Y013420D01*
X026081Y013310D02*
X026081Y013530D01*
X026081Y011530D02*
X026191Y011530D01*
X026228Y011493D01*
X026228Y011420D01*
X026191Y011383D01*
X026081Y011383D01*
X026081Y011310D02*
X026081Y011530D01*
X026007Y011493D02*
X025970Y011530D01*
X025897Y011530D01*
X025860Y011493D01*
X025860Y011457D01*
X025897Y011420D01*
X025970Y011420D01*
X026007Y011383D01*
X026007Y011347D01*
X025970Y011310D01*
X025897Y011310D01*
X025860Y011347D01*
X026302Y011310D02*
X026375Y011383D01*
X026449Y011310D01*
X026449Y011530D01*
X026523Y011530D02*
X026596Y011457D01*
X026670Y011530D01*
X026670Y011310D01*
X026744Y011273D02*
X026891Y011273D01*
X026965Y011420D02*
X027112Y011420D01*
X027075Y011310D02*
X027075Y011530D01*
X026965Y011420D01*
X026523Y011310D02*
X026523Y011530D01*
X026302Y011530D02*
X026302Y011310D01*
X026302Y010530D02*
X026302Y010310D01*
X026375Y010383D01*
X026449Y010310D01*
X026449Y010530D01*
X026523Y010530D02*
X026596Y010457D01*
X026670Y010530D01*
X026670Y010310D01*
X026744Y010273D02*
X026891Y010273D01*
X026965Y010347D02*
X027002Y010310D01*
X027075Y010310D01*
X027112Y010347D01*
X027112Y010383D01*
X027075Y010420D01*
X027038Y010420D01*
X027075Y010420D02*
X027112Y010457D01*
X027112Y010493D01*
X027075Y010530D01*
X027002Y010530D01*
X026965Y010493D01*
X026523Y010530D02*
X026523Y010310D01*
X026228Y010420D02*
X026191Y010383D01*
X026081Y010383D01*
X026081Y010310D02*
X026081Y010530D01*
X026191Y010530D01*
X026228Y010493D01*
X026228Y010420D01*
X026007Y010383D02*
X026007Y010347D01*
X025970Y010310D01*
X025897Y010310D01*
X025860Y010347D01*
X025897Y010420D02*
X025860Y010457D01*
X025860Y010493D01*
X025897Y010530D01*
X025970Y010530D01*
X026007Y010493D01*
X025970Y010420D02*
X026007Y010383D01*
X025970Y010420D02*
X025897Y010420D01*
X025897Y009530D02*
X025860Y009493D01*
X025860Y009457D01*
X025897Y009420D01*
X025970Y009420D01*
X026007Y009383D01*
X026007Y009347D01*
X025970Y009310D01*
X025897Y009310D01*
X025860Y009347D01*
X025897Y009530D02*
X025970Y009530D01*
X026007Y009493D01*
X026081Y009530D02*
X026191Y009530D01*
X026228Y009493D01*
X026228Y009420D01*
X026191Y009383D01*
X026081Y009383D01*
X026081Y009310D02*
X026081Y009530D01*
X026302Y009530D02*
X026302Y009310D01*
X026375Y009383D01*
X026449Y009310D01*
X026449Y009530D01*
X026523Y009530D02*
X026596Y009457D01*
X026670Y009530D01*
X026670Y009310D01*
X026744Y009273D02*
X026891Y009273D01*
X026965Y009310D02*
X027112Y009457D01*
X027112Y009493D01*
X027075Y009530D01*
X027002Y009530D01*
X026965Y009493D01*
X026965Y009310D02*
X027112Y009310D01*
X026523Y009310D02*
X026523Y009530D01*
X026523Y008530D02*
X026596Y008457D01*
X026670Y008530D01*
X026670Y008310D01*
X026744Y008273D02*
X026891Y008273D01*
X026965Y008310D02*
X027112Y008310D01*
X027038Y008310D02*
X027038Y008530D01*
X026965Y008457D01*
X026523Y008530D02*
X026523Y008310D01*
X026449Y008310D02*
X026449Y008530D01*
X026302Y008530D02*
X026302Y008310D01*
X026375Y008383D01*
X026449Y008310D01*
X026228Y008420D02*
X026191Y008383D01*
X026081Y008383D01*
X026081Y008310D02*
X026081Y008530D01*
X026191Y008530D01*
X026228Y008493D01*
X026228Y008420D01*
X026007Y008383D02*
X026007Y008347D01*
X025970Y008310D01*
X025897Y008310D01*
X025860Y008347D01*
X025897Y008420D02*
X025860Y008457D01*
X025860Y008493D01*
X025897Y008530D01*
X025970Y008530D01*
X026007Y008493D01*
X025970Y008420D02*
X026007Y008383D01*
X025970Y008420D02*
X025897Y008420D01*
X021086Y007890D02*
X021086Y007853D01*
X021012Y007780D01*
X021012Y007670D01*
X021012Y007780D02*
X020939Y007853D01*
X020939Y007890D01*
X020865Y007853D02*
X020828Y007890D01*
X020755Y007890D01*
X020718Y007853D01*
X020718Y007817D01*
X020755Y007780D01*
X020828Y007780D01*
X020865Y007743D01*
X020865Y007707D01*
X020828Y007670D01*
X020755Y007670D01*
X020718Y007707D01*
X020644Y007670D02*
X020644Y007890D01*
X020497Y007890D02*
X020644Y007670D01*
X020497Y007670D02*
X020497Y007890D01*
X020423Y007890D02*
X020276Y007890D01*
X020276Y007670D01*
X020423Y007670D01*
X020349Y007780D02*
X020276Y007780D01*
X020202Y007670D02*
X020055Y007670D01*
X020055Y007890D01*
X020202Y007890D01*
X020128Y007780D02*
X020055Y007780D01*
X019981Y007890D02*
X019834Y007890D01*
X019907Y007890D02*
X019907Y007670D01*
X018686Y007707D02*
X018686Y007780D01*
X018612Y007780D01*
X018539Y007707D02*
X018576Y007670D01*
X018649Y007670D01*
X018686Y007707D01*
X018686Y007853D02*
X018649Y007890D01*
X018576Y007890D01*
X018539Y007853D01*
X018539Y007707D01*
X018465Y007670D02*
X018318Y007670D01*
X018318Y007890D01*
X018465Y007890D01*
X018391Y007780D02*
X018318Y007780D01*
X018244Y007780D02*
X018207Y007743D01*
X018097Y007743D01*
X018097Y007670D02*
X018097Y007890D01*
X018207Y007890D01*
X018244Y007853D01*
X018244Y007780D01*
X018170Y007743D02*
X018244Y007670D01*
X016486Y006490D02*
X016486Y006343D01*
X016412Y006270D01*
X016339Y006343D01*
X016339Y006490D01*
X016265Y006453D02*
X016265Y006417D01*
X016228Y006380D01*
X016265Y006343D01*
X016265Y006307D01*
X016228Y006270D01*
X016155Y006270D01*
X016118Y006307D01*
X016044Y006307D02*
X016044Y006270D01*
X016008Y006270D01*
X016008Y006307D01*
X016044Y006307D01*
X015933Y006307D02*
X015897Y006270D01*
X015823Y006270D01*
X015787Y006307D01*
X015860Y006380D02*
X015897Y006380D01*
X015933Y006343D01*
X015933Y006307D01*
X015897Y006380D02*
X015933Y006417D01*
X015933Y006453D01*
X015897Y006490D01*
X015823Y006490D01*
X015787Y006453D01*
X015712Y006380D02*
X015566Y006380D01*
X015639Y006453D02*
X015639Y006307D01*
X015186Y006270D02*
X015039Y006270D01*
X015039Y006490D01*
X014965Y006453D02*
X014928Y006490D01*
X014855Y006490D01*
X014818Y006453D01*
X014818Y006307D01*
X014855Y006270D01*
X014928Y006270D01*
X014965Y006307D01*
X014744Y006307D02*
X014707Y006270D01*
X014634Y006270D01*
X014597Y006307D01*
X014634Y006380D02*
X014707Y006380D01*
X014744Y006343D01*
X014744Y006307D01*
X014634Y006380D02*
X014597Y006417D01*
X014597Y006453D01*
X014634Y006490D01*
X014707Y006490D01*
X014744Y006453D01*
X014186Y006417D02*
X014186Y006270D01*
X014186Y006380D02*
X014039Y006380D01*
X014039Y006417D02*
X014112Y006490D01*
X014186Y006417D01*
X014039Y006417D02*
X014039Y006270D01*
X013965Y006307D02*
X013928Y006270D01*
X013818Y006270D01*
X013818Y006490D01*
X013928Y006490D01*
X013965Y006453D01*
X013965Y006307D01*
X013744Y006307D02*
X013707Y006270D01*
X013634Y006270D01*
X013597Y006307D01*
X013634Y006380D02*
X013707Y006380D01*
X013744Y006343D01*
X013744Y006307D01*
X013634Y006380D02*
X013597Y006417D01*
X013597Y006453D01*
X013634Y006490D01*
X013707Y006490D01*
X013744Y006453D01*
X013186Y006453D02*
X013149Y006490D01*
X013039Y006490D01*
X013039Y006270D01*
X013149Y006270D01*
X013186Y006307D01*
X013186Y006453D01*
X012965Y006490D02*
X012965Y006270D01*
X012818Y006490D01*
X012818Y006270D01*
X012744Y006307D02*
X012707Y006270D01*
X012634Y006270D01*
X012597Y006307D01*
X012597Y006453D01*
X012634Y006490D01*
X012707Y006490D01*
X012744Y006453D01*
X012744Y006380D02*
X012670Y006380D01*
X012744Y006380D02*
X012744Y006307D01*
X016118Y006453D02*
X016155Y006490D01*
X016228Y006490D01*
X016265Y006453D01*
X016228Y006380D02*
X016191Y006380D01*
X009180Y006415D02*
X008960Y006415D01*
X008960Y006489D02*
X008960Y006636D01*
X008960Y006562D02*
X009180Y006562D01*
X009180Y006415D02*
X008960Y006268D01*
X009180Y006268D01*
X009180Y006194D02*
X009180Y006121D01*
X009180Y006157D02*
X008960Y006157D01*
X008960Y006121D02*
X008960Y006194D01*
X008960Y008047D02*
X009143Y008047D01*
X009180Y008084D01*
X009180Y008157D01*
X009143Y008194D01*
X008960Y008194D01*
X008997Y008268D02*
X009033Y008268D01*
X009070Y008305D01*
X009070Y008378D01*
X009107Y008415D01*
X009143Y008415D01*
X009180Y008378D01*
X009180Y008305D01*
X009143Y008268D01*
X008997Y008268D02*
X008960Y008305D01*
X008960Y008378D01*
X008997Y008415D01*
X008960Y008489D02*
X008960Y008599D01*
X008997Y008636D01*
X009033Y008636D01*
X009070Y008599D01*
X009070Y008489D01*
X009180Y008489D02*
X009180Y008599D01*
X009143Y008636D01*
X009107Y008636D01*
X009070Y008599D01*
X009180Y008489D02*
X008960Y008489D01*
X003986Y008417D02*
X003986Y008270D01*
X003986Y008380D02*
X003839Y008380D01*
X003839Y008417D02*
X003912Y008490D01*
X003986Y008417D01*
X003839Y008417D02*
X003839Y008270D01*
X003765Y008307D02*
X003765Y008453D01*
X003728Y008490D01*
X003618Y008490D01*
X003618Y008270D01*
X003728Y008270D01*
X003765Y008307D01*
X003544Y008307D02*
X003507Y008270D01*
X003434Y008270D01*
X003397Y008307D01*
X003434Y008380D02*
X003507Y008380D01*
X003544Y008343D01*
X003544Y008307D01*
X003434Y008380D02*
X003397Y008417D01*
X003397Y008453D01*
X003434Y008490D01*
X003507Y008490D01*
X003544Y008453D01*
X003507Y009270D02*
X003434Y009270D01*
X003397Y009307D01*
X003434Y009380D02*
X003507Y009380D01*
X003544Y009343D01*
X003544Y009307D01*
X003507Y009270D01*
X003618Y009307D02*
X003655Y009270D01*
X003728Y009270D01*
X003765Y009307D01*
X003839Y009270D02*
X003986Y009270D01*
X003839Y009270D02*
X003839Y009490D01*
X003765Y009453D02*
X003728Y009490D01*
X003655Y009490D01*
X003618Y009453D01*
X003618Y009307D01*
X003544Y009453D02*
X003507Y009490D01*
X003434Y009490D01*
X003397Y009453D01*
X003397Y009417D01*
X003434Y009380D01*
X003618Y010233D02*
X003765Y010233D01*
X003839Y010270D02*
X003986Y010417D01*
X003986Y010453D01*
X003949Y010490D01*
X003876Y010490D01*
X003839Y010453D01*
X003839Y010270D02*
X003986Y010270D01*
X003544Y010307D02*
X003544Y010380D01*
X003470Y010380D01*
X003397Y010307D02*
X003434Y010270D01*
X003507Y010270D01*
X003544Y010307D01*
X003544Y010453D02*
X003507Y010490D01*
X003434Y010490D01*
X003397Y010453D01*
X003397Y010307D01*
X003323Y010270D02*
X003176Y010270D01*
X003176Y010490D01*
X003102Y010490D02*
X003102Y010270D01*
X002955Y010490D01*
X002955Y010270D01*
X002881Y010270D02*
X002881Y010417D01*
X002807Y010490D01*
X002734Y010417D01*
X002734Y010270D01*
X002734Y010380D02*
X002881Y010380D01*
X002881Y011270D02*
X002881Y011417D01*
X002807Y011490D01*
X002734Y011417D01*
X002734Y011270D01*
X002734Y011380D02*
X002881Y011380D01*
X002955Y011270D02*
X002955Y011490D01*
X003102Y011270D01*
X003102Y011490D01*
X003176Y011490D02*
X003176Y011270D01*
X003323Y011270D01*
X003397Y011307D02*
X003434Y011270D01*
X003507Y011270D01*
X003544Y011307D01*
X003544Y011380D01*
X003470Y011380D01*
X003397Y011453D02*
X003397Y011307D01*
X003397Y011453D02*
X003434Y011490D01*
X003507Y011490D01*
X003544Y011453D01*
X003618Y011233D02*
X003765Y011233D01*
X003839Y011270D02*
X003986Y011270D01*
X003912Y011270D02*
X003912Y011490D01*
X003839Y011417D01*
X003765Y012233D02*
X003618Y012233D01*
X003544Y012270D02*
X003544Y012490D01*
X003470Y012417D01*
X003397Y012490D01*
X003397Y012270D01*
X003323Y012270D02*
X003323Y012490D01*
X003176Y012490D02*
X003176Y012270D01*
X003249Y012343D01*
X003323Y012270D01*
X003102Y012380D02*
X003065Y012343D01*
X002955Y012343D01*
X002955Y012270D02*
X002955Y012490D01*
X003065Y012490D01*
X003102Y012453D01*
X003102Y012380D01*
X002881Y012343D02*
X002881Y012307D01*
X002844Y012270D01*
X002771Y012270D01*
X002734Y012307D01*
X002771Y012380D02*
X002844Y012380D01*
X002881Y012343D01*
X002881Y012453D02*
X002844Y012490D01*
X002771Y012490D01*
X002734Y012453D01*
X002734Y012417D01*
X002771Y012380D01*
X002771Y013270D02*
X002734Y013307D01*
X002771Y013270D02*
X002844Y013270D01*
X002881Y013307D01*
X002881Y013343D01*
X002844Y013380D01*
X002771Y013380D01*
X002734Y013417D01*
X002734Y013453D01*
X002771Y013490D01*
X002844Y013490D01*
X002881Y013453D01*
X002955Y013490D02*
X003065Y013490D01*
X003102Y013453D01*
X003102Y013380D01*
X003065Y013343D01*
X002955Y013343D01*
X002955Y013270D02*
X002955Y013490D01*
X003176Y013490D02*
X003176Y013270D01*
X003249Y013343D01*
X003323Y013270D01*
X003323Y013490D01*
X003397Y013490D02*
X003470Y013417D01*
X003544Y013490D01*
X003544Y013270D01*
X003618Y013233D02*
X003765Y013233D01*
X003839Y013307D02*
X003876Y013270D01*
X003949Y013270D01*
X003986Y013307D01*
X003986Y013343D01*
X003949Y013380D01*
X003912Y013380D01*
X003949Y013380D02*
X003986Y013417D01*
X003986Y013453D01*
X003949Y013490D01*
X003876Y013490D01*
X003839Y013453D01*
X003397Y013490D02*
X003397Y013270D01*
X003949Y012490D02*
X003839Y012380D01*
X003986Y012380D01*
X003949Y012270D02*
X003949Y012490D01*
X003765Y014233D02*
X003618Y014233D01*
X003544Y014270D02*
X003544Y014490D01*
X003470Y014417D01*
X003397Y014490D01*
X003397Y014270D01*
X003323Y014270D02*
X003323Y014490D01*
X003176Y014490D02*
X003176Y014270D01*
X003249Y014343D01*
X003323Y014270D01*
X003102Y014380D02*
X003065Y014343D01*
X002955Y014343D01*
X002955Y014270D02*
X002955Y014490D01*
X003065Y014490D01*
X003102Y014453D01*
X003102Y014380D01*
X002881Y014343D02*
X002881Y014307D01*
X002844Y014270D01*
X002771Y014270D01*
X002734Y014307D01*
X002771Y014380D02*
X002844Y014380D01*
X002881Y014343D01*
X002881Y014453D02*
X002844Y014490D01*
X002771Y014490D01*
X002734Y014453D01*
X002734Y014417D01*
X002771Y014380D01*
X002771Y015270D02*
X002734Y015307D01*
X002771Y015270D02*
X002844Y015270D01*
X002881Y015307D01*
X002881Y015343D01*
X002844Y015380D01*
X002771Y015380D01*
X002734Y015417D01*
X002734Y015453D01*
X002771Y015490D01*
X002844Y015490D01*
X002881Y015453D01*
X002955Y015490D02*
X003065Y015490D01*
X003102Y015453D01*
X003102Y015380D01*
X003065Y015343D01*
X002955Y015343D01*
X002955Y015270D02*
X002955Y015490D01*
X003176Y015490D02*
X003176Y015270D01*
X003249Y015343D01*
X003323Y015270D01*
X003323Y015490D01*
X003397Y015490D02*
X003470Y015417D01*
X003544Y015490D01*
X003544Y015270D01*
X003618Y015233D02*
X003765Y015233D01*
X003839Y015270D02*
X003986Y015270D01*
X003912Y015270D02*
X003912Y015490D01*
X003839Y015417D01*
X003397Y015490D02*
X003397Y015270D01*
X003876Y014490D02*
X003839Y014453D01*
X003876Y014490D02*
X003949Y014490D01*
X003986Y014453D01*
X003986Y014417D01*
X003839Y014270D01*
X003986Y014270D01*
X003986Y016270D02*
X003986Y016417D01*
X003912Y016490D01*
X003839Y016417D01*
X003839Y016270D01*
X003765Y016307D02*
X003765Y016453D01*
X003728Y016490D01*
X003618Y016490D01*
X003618Y016270D01*
X003728Y016270D01*
X003765Y016307D01*
X003839Y016380D02*
X003986Y016380D01*
X003544Y016343D02*
X003544Y016307D01*
X003507Y016270D01*
X003434Y016270D01*
X003397Y016307D01*
X003434Y016380D02*
X003507Y016380D01*
X003544Y016343D01*
X003544Y016453D02*
X003507Y016490D01*
X003434Y016490D01*
X003397Y016453D01*
X003397Y016417D01*
X003434Y016380D01*
X003434Y017270D02*
X003397Y017307D01*
X003434Y017270D02*
X003507Y017270D01*
X003544Y017307D01*
X003544Y017343D01*
X003507Y017380D01*
X003434Y017380D01*
X003397Y017417D01*
X003397Y017453D01*
X003434Y017490D01*
X003507Y017490D01*
X003544Y017453D01*
X003618Y017453D02*
X003618Y017307D01*
X003655Y017270D01*
X003728Y017270D01*
X003765Y017307D01*
X003839Y017270D02*
X003986Y017270D01*
X003839Y017270D02*
X003839Y017490D01*
X003765Y017453D02*
X003728Y017490D01*
X003655Y017490D01*
X003618Y017453D01*
X003618Y018233D02*
X003765Y018233D01*
X003839Y018270D02*
X003986Y018417D01*
X003986Y018453D01*
X003949Y018490D01*
X003876Y018490D01*
X003839Y018453D01*
X003839Y018270D02*
X003986Y018270D01*
X003544Y018307D02*
X003544Y018380D01*
X003470Y018380D01*
X003397Y018307D02*
X003434Y018270D01*
X003507Y018270D01*
X003544Y018307D01*
X003544Y018453D02*
X003507Y018490D01*
X003434Y018490D01*
X003397Y018453D01*
X003397Y018307D01*
X003323Y018270D02*
X003176Y018270D01*
X003176Y018490D01*
X003102Y018490D02*
X003102Y018270D01*
X002955Y018490D01*
X002955Y018270D01*
X002881Y018270D02*
X002881Y018417D01*
X002807Y018490D01*
X002734Y018417D01*
X002734Y018270D01*
X002734Y018380D02*
X002881Y018380D01*
X002881Y019270D02*
X002881Y019417D01*
X002807Y019490D01*
X002734Y019417D01*
X002734Y019270D01*
X002734Y019380D02*
X002881Y019380D01*
X002955Y019270D02*
X002955Y019490D01*
X003102Y019270D01*
X003102Y019490D01*
X003176Y019490D02*
X003176Y019270D01*
X003323Y019270D01*
X003397Y019307D02*
X003434Y019270D01*
X003507Y019270D01*
X003544Y019307D01*
X003544Y019380D01*
X003470Y019380D01*
X003397Y019453D02*
X003397Y019307D01*
X003397Y019453D02*
X003434Y019490D01*
X003507Y019490D01*
X003544Y019453D01*
X003618Y019233D02*
X003765Y019233D01*
X003839Y019270D02*
X003986Y019270D01*
X003912Y019270D02*
X003912Y019490D01*
X003839Y019417D01*
X003765Y020233D02*
X003618Y020233D01*
X003544Y020270D02*
X003544Y020490D01*
X003470Y020417D01*
X003397Y020490D01*
X003397Y020270D01*
X003323Y020270D02*
X003323Y020490D01*
X003176Y020490D02*
X003176Y020270D01*
X003249Y020343D01*
X003323Y020270D01*
X003102Y020380D02*
X003065Y020343D01*
X002955Y020343D01*
X002955Y020270D02*
X002955Y020490D01*
X003065Y020490D01*
X003102Y020453D01*
X003102Y020380D01*
X002881Y020343D02*
X002881Y020307D01*
X002844Y020270D01*
X002771Y020270D01*
X002734Y020307D01*
X002771Y020380D02*
X002844Y020380D01*
X002881Y020343D01*
X002881Y020453D02*
X002844Y020490D01*
X002771Y020490D01*
X002734Y020453D01*
X002734Y020417D01*
X002771Y020380D01*
X002771Y021270D02*
X002734Y021307D01*
X002771Y021270D02*
X002844Y021270D01*
X002881Y021307D01*
X002881Y021343D01*
X002844Y021380D01*
X002771Y021380D01*
X002734Y021417D01*
X002734Y021453D01*
X002771Y021490D01*
X002844Y021490D01*
X002881Y021453D01*
X002955Y021490D02*
X002955Y021270D01*
X002955Y021343D02*
X003065Y021343D01*
X003102Y021380D01*
X003102Y021453D01*
X003065Y021490D01*
X002955Y021490D01*
X003176Y021490D02*
X003176Y021270D01*
X003249Y021343D01*
X003323Y021270D01*
X003323Y021490D01*
X003397Y021490D02*
X003470Y021417D01*
X003544Y021490D01*
X003544Y021270D01*
X003618Y021233D02*
X003765Y021233D01*
X003839Y021270D02*
X003986Y021270D01*
X003912Y021270D02*
X003912Y021490D01*
X003839Y021417D01*
X003397Y021490D02*
X003397Y021270D01*
X003876Y020490D02*
X003839Y020453D01*
X003876Y020490D02*
X003949Y020490D01*
X003986Y020453D01*
X003986Y020417D01*
X003839Y020270D01*
X003986Y020270D01*
X003765Y022233D02*
X003618Y022233D01*
X003544Y022270D02*
X003544Y022490D01*
X003470Y022417D01*
X003397Y022490D01*
X003397Y022270D01*
X003323Y022270D02*
X003323Y022490D01*
X003176Y022490D02*
X003176Y022270D01*
X003249Y022343D01*
X003323Y022270D01*
X003102Y022380D02*
X003065Y022343D01*
X002955Y022343D01*
X002955Y022270D02*
X002955Y022490D01*
X003065Y022490D01*
X003102Y022453D01*
X003102Y022380D01*
X002881Y022490D02*
X002734Y022490D01*
X002734Y022270D01*
X002734Y022380D02*
X002807Y022380D01*
X002734Y023270D02*
X002734Y023490D01*
X002881Y023490D01*
X002955Y023490D02*
X003065Y023490D01*
X003102Y023453D01*
X003102Y023380D01*
X003065Y023343D01*
X002955Y023343D01*
X002955Y023270D02*
X002955Y023490D01*
X002807Y023380D02*
X002734Y023380D01*
X003176Y023490D02*
X003176Y023270D01*
X003249Y023343D01*
X003323Y023270D01*
X003323Y023490D01*
X003397Y023490D02*
X003470Y023417D01*
X003544Y023490D01*
X003544Y023270D01*
X003618Y023233D02*
X003765Y023233D01*
X003839Y023270D02*
X003986Y023270D01*
X003912Y023270D02*
X003912Y023490D01*
X003839Y023417D01*
X003397Y023490D02*
X003397Y023270D01*
X003876Y022490D02*
X003839Y022453D01*
X003876Y022490D02*
X003949Y022490D01*
X003986Y022453D01*
X003986Y022417D01*
X003839Y022270D01*
X003986Y022270D01*
X003986Y024270D02*
X003986Y024417D01*
X003912Y024490D01*
X003839Y024417D01*
X003839Y024270D01*
X003765Y024307D02*
X003765Y024453D01*
X003728Y024490D01*
X003618Y024490D01*
X003618Y024270D01*
X003728Y024270D01*
X003765Y024307D01*
X003839Y024380D02*
X003986Y024380D01*
X003544Y024343D02*
X003544Y024307D01*
X003507Y024270D01*
X003434Y024270D01*
X003397Y024307D01*
X003434Y024380D02*
X003507Y024380D01*
X003544Y024343D01*
X003544Y024453D02*
X003507Y024490D01*
X003434Y024490D01*
X003397Y024453D01*
X003397Y024417D01*
X003434Y024380D01*
X003434Y025270D02*
X003397Y025307D01*
X003434Y025270D02*
X003507Y025270D01*
X003544Y025307D01*
X003544Y025343D01*
X003507Y025380D01*
X003434Y025380D01*
X003397Y025417D01*
X003397Y025453D01*
X003434Y025490D01*
X003507Y025490D01*
X003544Y025453D01*
X003618Y025453D02*
X003618Y025307D01*
X003655Y025270D01*
X003728Y025270D01*
X003765Y025307D01*
X003839Y025270D02*
X003986Y025270D01*
X003839Y025270D02*
X003839Y025490D01*
X003765Y025453D02*
X003728Y025490D01*
X003655Y025490D01*
X003618Y025453D01*
X003618Y026233D02*
X003765Y026233D01*
X003839Y026270D02*
X003986Y026417D01*
X003986Y026453D01*
X003949Y026490D01*
X003876Y026490D01*
X003839Y026453D01*
X003839Y026270D02*
X003986Y026270D01*
X003544Y026307D02*
X003544Y026380D01*
X003470Y026380D01*
X003397Y026307D02*
X003434Y026270D01*
X003507Y026270D01*
X003544Y026307D01*
X003544Y026453D02*
X003507Y026490D01*
X003434Y026490D01*
X003397Y026453D01*
X003397Y026307D01*
X003323Y026270D02*
X003176Y026270D01*
X003176Y026490D01*
X003102Y026490D02*
X003102Y026270D01*
X002955Y026490D01*
X002955Y026270D01*
X002881Y026270D02*
X002881Y026417D01*
X002807Y026490D01*
X002734Y026417D01*
X002734Y026270D01*
X002734Y026380D02*
X002881Y026380D01*
X002881Y027270D02*
X002881Y027417D01*
X002807Y027490D01*
X002734Y027417D01*
X002734Y027270D01*
X002734Y027380D02*
X002881Y027380D01*
X002955Y027270D02*
X002955Y027490D01*
X003102Y027270D01*
X003102Y027490D01*
X003176Y027490D02*
X003176Y027270D01*
X003323Y027270D01*
X003397Y027307D02*
X003434Y027270D01*
X003507Y027270D01*
X003544Y027307D01*
X003544Y027380D01*
X003470Y027380D01*
X003397Y027453D02*
X003397Y027307D01*
X003397Y027453D02*
X003434Y027490D01*
X003507Y027490D01*
X003544Y027453D01*
X003618Y027233D02*
X003765Y027233D01*
X003839Y027270D02*
X003986Y027270D01*
X003912Y027270D02*
X003912Y027490D01*
X003839Y027417D01*
X003765Y028233D02*
X003618Y028233D01*
X003544Y028270D02*
X003544Y028490D01*
X003470Y028417D01*
X003397Y028490D01*
X003397Y028270D01*
X003323Y028270D02*
X003323Y028490D01*
X003176Y028490D02*
X003176Y028270D01*
X003249Y028343D01*
X003323Y028270D01*
X003102Y028380D02*
X003102Y028453D01*
X003065Y028490D01*
X002955Y028490D01*
X002955Y028270D01*
X002955Y028343D02*
X003065Y028343D01*
X003102Y028380D01*
X002881Y028343D02*
X002881Y028307D01*
X002844Y028270D01*
X002771Y028270D01*
X002734Y028307D01*
X002771Y028380D02*
X002844Y028380D01*
X002881Y028343D01*
X002881Y028453D02*
X002844Y028490D01*
X002771Y028490D01*
X002734Y028453D01*
X002734Y028417D01*
X002771Y028380D01*
X002771Y029270D02*
X002734Y029307D01*
X002771Y029270D02*
X002844Y029270D01*
X002881Y029307D01*
X002881Y029343D01*
X002844Y029380D01*
X002771Y029380D01*
X002734Y029417D01*
X002734Y029453D01*
X002771Y029490D01*
X002844Y029490D01*
X002881Y029453D01*
X002955Y029490D02*
X003065Y029490D01*
X003102Y029453D01*
X003102Y029380D01*
X003065Y029343D01*
X002955Y029343D01*
X002955Y029270D02*
X002955Y029490D01*
X003176Y029490D02*
X003176Y029270D01*
X003249Y029343D01*
X003323Y029270D01*
X003323Y029490D01*
X003397Y029490D02*
X003470Y029417D01*
X003544Y029490D01*
X003544Y029270D01*
X003618Y029233D02*
X003765Y029233D01*
X003839Y029270D02*
X003986Y029270D01*
X003912Y029270D02*
X003912Y029490D01*
X003839Y029417D01*
X003397Y029490D02*
X003397Y029270D01*
X003876Y028490D02*
X003839Y028453D01*
X003876Y028490D02*
X003949Y028490D01*
X003986Y028453D01*
X003986Y028417D01*
X003839Y028270D01*
X003986Y028270D01*
X004534Y029870D02*
X004497Y029907D01*
X004497Y030053D01*
X004534Y030090D01*
X004607Y030090D01*
X004644Y030053D01*
X004644Y029980D02*
X004570Y029980D01*
X004644Y029980D02*
X004644Y029907D01*
X004607Y029870D01*
X004534Y029870D01*
X004718Y029870D02*
X004718Y030090D01*
X004865Y029870D01*
X004865Y030090D01*
X004939Y030090D02*
X005049Y030090D01*
X005086Y030053D01*
X005086Y029907D01*
X005049Y029870D01*
X004939Y029870D01*
X004939Y030090D01*
X003986Y030270D02*
X003839Y030270D01*
X003986Y030417D01*
X003986Y030453D01*
X003949Y030490D01*
X003876Y030490D01*
X003839Y030453D01*
X003765Y030233D02*
X003618Y030233D01*
X003544Y030270D02*
X003544Y030490D01*
X003470Y030417D01*
X003397Y030490D01*
X003397Y030270D01*
X003323Y030270D02*
X003323Y030490D01*
X003176Y030490D02*
X003176Y030270D01*
X003249Y030343D01*
X003323Y030270D01*
X003102Y030380D02*
X003102Y030453D01*
X003065Y030490D01*
X002955Y030490D01*
X002955Y030270D01*
X002955Y030343D02*
X003065Y030343D01*
X003102Y030380D01*
X002881Y030490D02*
X002734Y030490D01*
X002734Y030270D01*
X002734Y030380D02*
X002807Y030380D01*
X002734Y031270D02*
X002734Y031490D01*
X002881Y031490D01*
X002955Y031490D02*
X003065Y031490D01*
X003102Y031453D01*
X003102Y031380D01*
X003065Y031343D01*
X002955Y031343D01*
X002955Y031270D02*
X002955Y031490D01*
X002807Y031380D02*
X002734Y031380D01*
X003176Y031490D02*
X003176Y031270D01*
X003249Y031343D01*
X003323Y031270D01*
X003323Y031490D01*
X003397Y031490D02*
X003470Y031417D01*
X003544Y031490D01*
X003544Y031270D01*
X003618Y031233D02*
X003765Y031233D01*
X003839Y031270D02*
X003986Y031270D01*
X003912Y031270D02*
X003912Y031490D01*
X003839Y031417D01*
X003397Y031490D02*
X003397Y031270D01*
X004266Y031680D02*
X004412Y031680D01*
X004339Y031753D02*
X004339Y031607D01*
X004487Y031607D02*
X004523Y031570D01*
X004597Y031570D01*
X004633Y031607D01*
X004633Y031643D01*
X004597Y031680D01*
X004560Y031680D01*
X004597Y031680D02*
X004633Y031717D01*
X004633Y031753D01*
X004597Y031790D01*
X004523Y031790D01*
X004487Y031753D01*
X004708Y031607D02*
X004744Y031607D01*
X004744Y031570D01*
X004708Y031570D01*
X004708Y031607D01*
X004818Y031607D02*
X004855Y031570D01*
X004928Y031570D01*
X004965Y031607D01*
X004965Y031643D01*
X004928Y031680D01*
X004891Y031680D01*
X004928Y031680D02*
X004965Y031717D01*
X004965Y031753D01*
X004928Y031790D01*
X004855Y031790D01*
X004818Y031753D01*
X005039Y031790D02*
X005039Y031643D01*
X005112Y031570D01*
X005186Y031643D01*
X005186Y031790D01*
X006497Y032107D02*
X006534Y032070D01*
X006607Y032070D01*
X006644Y032107D01*
X006718Y032107D02*
X006755Y032070D01*
X006828Y032070D01*
X006865Y032107D01*
X006865Y032143D01*
X006828Y032180D01*
X006755Y032180D01*
X006718Y032217D01*
X006718Y032253D01*
X006755Y032290D01*
X006828Y032290D01*
X006865Y032253D01*
X006939Y032290D02*
X007086Y032070D01*
X007086Y032290D01*
X006939Y032290D02*
X006939Y032070D01*
X006644Y032253D02*
X006607Y032290D01*
X006534Y032290D01*
X006497Y032253D01*
X006497Y032107D01*
X007350Y032070D02*
X007350Y032290D01*
X007423Y032217D01*
X007496Y032290D01*
X007496Y032070D01*
X007571Y032107D02*
X007607Y032070D01*
X007681Y032070D01*
X007717Y032107D01*
X007717Y032253D01*
X007681Y032290D01*
X007607Y032290D01*
X007571Y032253D01*
X007571Y032107D01*
X007792Y032107D02*
X007828Y032070D01*
X007902Y032070D01*
X007938Y032107D01*
X007938Y032143D01*
X007902Y032180D01*
X007828Y032180D01*
X007792Y032217D01*
X007792Y032253D01*
X007828Y032290D01*
X007902Y032290D01*
X007938Y032253D01*
X008013Y032290D02*
X008086Y032290D01*
X008049Y032290D02*
X008049Y032070D01*
X008013Y032070D02*
X008086Y032070D01*
X009360Y031036D02*
X009580Y030889D01*
X009580Y030815D02*
X009507Y030741D01*
X009507Y030778D02*
X009507Y030668D01*
X009580Y030668D02*
X009360Y030668D01*
X009360Y030778D01*
X009397Y030815D01*
X009470Y030815D01*
X009507Y030778D01*
X009360Y030889D02*
X009580Y031036D01*
X009580Y030036D02*
X009360Y029889D01*
X009360Y029815D02*
X009360Y029668D01*
X009360Y029741D02*
X009580Y029741D01*
X009580Y029889D02*
X009360Y030036D01*
X009086Y029753D02*
X009086Y029607D01*
X009049Y029570D01*
X008976Y029570D01*
X008939Y029607D01*
X008939Y029753D01*
X008976Y029790D01*
X009049Y029790D01*
X009086Y029753D01*
X008865Y029753D02*
X008828Y029790D01*
X008755Y029790D01*
X008718Y029753D01*
X008718Y029717D01*
X008755Y029680D01*
X008828Y029680D01*
X008865Y029643D01*
X008865Y029607D01*
X008828Y029570D01*
X008755Y029570D01*
X008718Y029607D01*
X008644Y029570D02*
X008571Y029570D01*
X008607Y029570D02*
X008607Y029790D01*
X008571Y029790D02*
X008644Y029790D01*
X008496Y029790D02*
X008496Y029570D01*
X008350Y029570D02*
X008350Y029790D01*
X008423Y029717D01*
X008496Y029790D01*
X007986Y029790D02*
X007839Y029643D01*
X007876Y029680D02*
X007986Y029570D01*
X007839Y029570D02*
X007839Y029790D01*
X007765Y029753D02*
X007728Y029790D01*
X007655Y029790D01*
X007618Y029753D01*
X007618Y029607D01*
X007655Y029570D01*
X007728Y029570D01*
X007765Y029607D01*
X007544Y029607D02*
X007507Y029570D01*
X007434Y029570D01*
X007397Y029607D01*
X007434Y029680D02*
X007507Y029680D01*
X007544Y029643D01*
X007544Y029607D01*
X007434Y029680D02*
X007397Y029717D01*
X007397Y029753D01*
X007434Y029790D01*
X007507Y029790D01*
X007544Y029753D01*
X006886Y029790D02*
X006739Y029790D01*
X006739Y029570D01*
X006886Y029570D01*
X006812Y029680D02*
X006739Y029680D01*
X006665Y029607D02*
X006628Y029570D01*
X006555Y029570D01*
X006518Y029607D01*
X006518Y029753D01*
X006555Y029790D01*
X006628Y029790D01*
X006665Y029753D01*
X025860Y029457D02*
X025860Y029310D01*
X025860Y029420D02*
X026007Y029420D01*
X026007Y029457D02*
X026007Y029310D01*
X026081Y029310D02*
X026081Y029530D01*
X026228Y029310D01*
X026228Y029530D01*
X026302Y029530D02*
X026302Y029310D01*
X026449Y029310D01*
X026523Y029347D02*
X026523Y029493D01*
X026560Y029530D01*
X026633Y029530D01*
X026670Y029493D01*
X026670Y029420D02*
X026596Y029420D01*
X026670Y029420D02*
X026670Y029347D01*
X026633Y029310D01*
X026560Y029310D01*
X026523Y029347D01*
X026744Y029273D02*
X026891Y029273D01*
X026965Y029310D02*
X027112Y029457D01*
X027112Y029493D01*
X027075Y029530D01*
X027002Y029530D01*
X026965Y029493D01*
X026965Y029310D02*
X027112Y029310D01*
X027038Y028530D02*
X027038Y028310D01*
X026965Y028310D02*
X027112Y028310D01*
X026965Y028457D02*
X027038Y028530D01*
X026891Y028273D02*
X026744Y028273D01*
X026670Y028347D02*
X026670Y028420D01*
X026596Y028420D01*
X026523Y028347D02*
X026560Y028310D01*
X026633Y028310D01*
X026670Y028347D01*
X026670Y028493D02*
X026633Y028530D01*
X026560Y028530D01*
X026523Y028493D01*
X026523Y028347D01*
X026449Y028310D02*
X026302Y028310D01*
X026302Y028530D01*
X026228Y028530D02*
X026228Y028310D01*
X026081Y028530D01*
X026081Y028310D01*
X026007Y028310D02*
X026007Y028457D01*
X025933Y028530D01*
X025860Y028457D01*
X025860Y028310D01*
X025860Y028420D02*
X026007Y028420D01*
X025970Y027530D02*
X025897Y027530D01*
X025860Y027493D01*
X025860Y027457D01*
X025897Y027420D01*
X025970Y027420D01*
X026007Y027383D01*
X026007Y027347D01*
X025970Y027310D01*
X025897Y027310D01*
X025860Y027347D01*
X026007Y027493D02*
X025970Y027530D01*
X026081Y027530D02*
X026191Y027530D01*
X026228Y027493D01*
X026228Y027420D01*
X026191Y027383D01*
X026081Y027383D01*
X026081Y027310D02*
X026081Y027530D01*
X026302Y027530D02*
X026302Y027310D01*
X026375Y027383D01*
X026449Y027310D01*
X026449Y027530D01*
X026523Y027530D02*
X026523Y027310D01*
X026670Y027310D02*
X026670Y027530D01*
X026596Y027457D01*
X026523Y027530D01*
X026744Y027273D02*
X026891Y027273D01*
X026965Y027310D02*
X027112Y027457D01*
X027112Y027493D01*
X027075Y027530D01*
X027002Y027530D01*
X026965Y027493D01*
X026965Y027310D02*
X027112Y027310D01*
X027038Y026530D02*
X027038Y026310D01*
X026965Y026310D02*
X027112Y026310D01*
X026965Y026457D02*
X027038Y026530D01*
X026891Y026273D02*
X026744Y026273D01*
X026670Y026310D02*
X026670Y026530D01*
X026596Y026457D01*
X026523Y026530D01*
X026523Y026310D01*
X026449Y026310D02*
X026449Y026530D01*
X026302Y026530D02*
X026302Y026310D01*
X026375Y026383D01*
X026449Y026310D01*
X026228Y026420D02*
X026191Y026383D01*
X026081Y026383D01*
X026081Y026310D02*
X026081Y026530D01*
X026191Y026530D01*
X026228Y026493D01*
X026228Y026420D01*
X026007Y026383D02*
X026007Y026347D01*
X025970Y026310D01*
X025897Y026310D01*
X025860Y026347D01*
X025897Y026420D02*
X025860Y026457D01*
X025860Y026493D01*
X025897Y026530D01*
X025970Y026530D01*
X026007Y026493D01*
X025970Y026420D02*
X026007Y026383D01*
X025970Y026420D02*
X025897Y026420D01*
X025860Y025530D02*
X026007Y025530D01*
X026081Y025530D02*
X026191Y025530D01*
X026228Y025493D01*
X026228Y025420D01*
X026191Y025383D01*
X026081Y025383D01*
X026081Y025310D02*
X026081Y025530D01*
X025933Y025420D02*
X025860Y025420D01*
X025860Y025310D02*
X025860Y025530D01*
X026302Y025530D02*
X026302Y025310D01*
X026375Y025383D01*
X026449Y025310D01*
X026449Y025530D01*
X026523Y025530D02*
X026523Y025310D01*
X026670Y025310D02*
X026670Y025530D01*
X026596Y025457D01*
X026523Y025530D01*
X026744Y025273D02*
X026891Y025273D01*
X026965Y025310D02*
X027112Y025457D01*
X027112Y025493D01*
X027075Y025530D01*
X027002Y025530D01*
X026965Y025493D01*
X026965Y025310D02*
X027112Y025310D01*
X027038Y024530D02*
X027038Y024310D01*
X026965Y024310D02*
X027112Y024310D01*
X026965Y024457D02*
X027038Y024530D01*
X026891Y024273D02*
X026744Y024273D01*
X026670Y024310D02*
X026670Y024530D01*
X026596Y024457D01*
X026523Y024530D01*
X026523Y024310D01*
X026449Y024310D02*
X026449Y024530D01*
X026302Y024530D02*
X026302Y024310D01*
X026375Y024383D01*
X026449Y024310D01*
X026228Y024420D02*
X026191Y024383D01*
X026081Y024383D01*
X026081Y024310D02*
X026081Y024530D01*
X026191Y024530D01*
X026228Y024493D01*
X026228Y024420D01*
X026007Y024530D02*
X025860Y024530D01*
X025860Y024310D01*
X025860Y024420D02*
X025933Y024420D01*
X025897Y023530D02*
X025860Y023493D01*
X025860Y023457D01*
X025897Y023420D01*
X025970Y023420D01*
X026007Y023383D01*
X026007Y023347D01*
X025970Y023310D01*
X025897Y023310D01*
X025860Y023347D01*
X025897Y023530D02*
X025970Y023530D01*
X026007Y023493D01*
X026081Y023530D02*
X026191Y023530D01*
X026228Y023493D01*
X026228Y023347D01*
X026191Y023310D01*
X026081Y023310D01*
X026081Y023530D01*
X026302Y023457D02*
X026375Y023530D01*
X026449Y023457D01*
X026449Y023310D01*
X026449Y023420D02*
X026302Y023420D01*
X026302Y023457D02*
X026302Y023310D01*
X026302Y022530D02*
X026302Y022310D01*
X026449Y022310D01*
X026228Y022347D02*
X026191Y022310D01*
X026118Y022310D01*
X026081Y022347D01*
X026081Y022493D01*
X026118Y022530D01*
X026191Y022530D01*
X026228Y022493D01*
X026007Y022493D02*
X025970Y022530D01*
X025897Y022530D01*
X025860Y022493D01*
X025860Y022457D01*
X025897Y022420D01*
X025970Y022420D01*
X026007Y022383D01*
X026007Y022347D01*
X025970Y022310D01*
X025897Y022310D01*
X025860Y022347D01*
X025933Y021530D02*
X026007Y021457D01*
X026007Y021310D01*
X026081Y021310D02*
X026081Y021530D01*
X026228Y021310D01*
X026228Y021530D01*
X026302Y021530D02*
X026302Y021310D01*
X026449Y021310D01*
X026523Y021347D02*
X026523Y021493D01*
X026560Y021530D01*
X026633Y021530D01*
X026670Y021493D01*
X026670Y021420D02*
X026596Y021420D01*
X026670Y021420D02*
X026670Y021347D01*
X026633Y021310D01*
X026560Y021310D01*
X026523Y021347D01*
X026744Y021273D02*
X026891Y021273D01*
X026965Y021310D02*
X027112Y021457D01*
X027112Y021493D01*
X027075Y021530D01*
X027002Y021530D01*
X026965Y021493D01*
X026965Y021310D02*
X027112Y021310D01*
X027038Y020530D02*
X027038Y020310D01*
X026965Y020310D02*
X027112Y020310D01*
X026965Y020457D02*
X027038Y020530D01*
X026891Y020273D02*
X026744Y020273D01*
X026670Y020347D02*
X026670Y020420D01*
X026596Y020420D01*
X026523Y020347D02*
X026560Y020310D01*
X026633Y020310D01*
X026670Y020347D01*
X026670Y020493D02*
X026633Y020530D01*
X026560Y020530D01*
X026523Y020493D01*
X026523Y020347D01*
X026449Y020310D02*
X026302Y020310D01*
X026302Y020530D01*
X026228Y020530D02*
X026228Y020310D01*
X026081Y020530D01*
X026081Y020310D01*
X026007Y020310D02*
X026007Y020457D01*
X025933Y020530D01*
X025860Y020457D01*
X025860Y020310D01*
X025860Y020420D02*
X026007Y020420D01*
X025970Y019530D02*
X025897Y019530D01*
X025860Y019493D01*
X025860Y019457D01*
X025897Y019420D01*
X025970Y019420D01*
X026007Y019383D01*
X026007Y019347D01*
X025970Y019310D01*
X025897Y019310D01*
X025860Y019347D01*
X026007Y019493D02*
X025970Y019530D01*
X026081Y019530D02*
X026191Y019530D01*
X026228Y019493D01*
X026228Y019420D01*
X026191Y019383D01*
X026081Y019383D01*
X026081Y019310D02*
X026081Y019530D01*
X026302Y019530D02*
X026302Y019310D01*
X026375Y019383D01*
X026449Y019310D01*
X026449Y019530D01*
X026523Y019530D02*
X026596Y019457D01*
X026670Y019530D01*
X026670Y019310D01*
X026744Y019273D02*
X026891Y019273D01*
X026965Y019310D02*
X027112Y019457D01*
X027112Y019493D01*
X027075Y019530D01*
X027002Y019530D01*
X026965Y019493D01*
X026965Y019310D02*
X027112Y019310D01*
X026523Y019310D02*
X026523Y019530D01*
X025860Y021310D02*
X025860Y021457D01*
X025933Y021530D01*
X025860Y021420D02*
X026007Y021420D01*
X026007Y029457D02*
X025933Y029530D01*
X025860Y029457D01*
X025897Y030310D02*
X025860Y030347D01*
X025897Y030310D02*
X025970Y030310D01*
X026007Y030347D01*
X026007Y030383D01*
X025970Y030420D01*
X025897Y030420D01*
X025860Y030457D01*
X025860Y030493D01*
X025897Y030530D01*
X025970Y030530D01*
X026007Y030493D01*
X026081Y030493D02*
X026081Y030347D01*
X026118Y030310D01*
X026191Y030310D01*
X026228Y030347D01*
X026302Y030310D02*
X026449Y030310D01*
X026302Y030310D02*
X026302Y030530D01*
X026228Y030493D02*
X026191Y030530D01*
X026118Y030530D01*
X026081Y030493D01*
X026081Y031310D02*
X026191Y031310D01*
X026228Y031347D01*
X026228Y031493D01*
X026191Y031530D01*
X026081Y031530D01*
X026081Y031310D01*
X026007Y031347D02*
X025970Y031310D01*
X025897Y031310D01*
X025860Y031347D01*
X025897Y031420D02*
X025860Y031457D01*
X025860Y031493D01*
X025897Y031530D01*
X025970Y031530D01*
X026007Y031493D01*
X025970Y031420D02*
X026007Y031383D01*
X026007Y031347D01*
X025970Y031420D02*
X025897Y031420D01*
X026302Y031420D02*
X026449Y031420D01*
X026449Y031457D02*
X026449Y031310D01*
X026449Y031457D02*
X026375Y031530D01*
X026302Y031457D01*
X026302Y031310D01*
D13*
X013299Y017787D02*
X012985Y017473D01*
X013299Y017787D01*
X013299Y017630D02*
X012985Y017630D01*
X013299Y017630D01*
X013299Y017473D02*
X012985Y017787D01*
X013299Y017473D01*
X013142Y017473D02*
X013142Y017787D01*
X013142Y017473D01*
X013142Y015287D02*
X013142Y014973D01*
X013142Y015287D01*
X013299Y015287D02*
X012985Y014973D01*
X013299Y015287D01*
X013299Y015130D02*
X012985Y015130D01*
X013299Y015130D01*
X013299Y014973D02*
X012985Y015287D01*
X013299Y014973D01*
X013299Y012557D02*
X012985Y012243D01*
X013299Y012557D01*
X013299Y012400D02*
X012985Y012400D01*
X013299Y012400D01*
X013299Y012243D02*
X012985Y012557D01*
X013299Y012243D01*
X013142Y012243D02*
X013142Y012557D01*
X013142Y012243D01*
X011862Y009505D02*
X011717Y009505D01*
X011717Y009215D01*
X011717Y009312D02*
X011862Y009312D01*
X011910Y009360D01*
X011910Y009457D01*
X011862Y009505D01*
X011814Y009312D02*
X011910Y009215D01*
X011616Y009215D02*
X011616Y009505D01*
X011422Y009505D02*
X011422Y009215D01*
X011519Y009312D01*
X011616Y009215D01*
X011321Y009360D02*
X011273Y009312D01*
X011128Y009312D01*
X011128Y009215D02*
X011128Y009505D01*
X011273Y009505D01*
X011321Y009457D01*
X011321Y009360D01*
X010732Y009457D02*
X010732Y009505D01*
X010732Y009457D02*
X010635Y009360D01*
X010635Y009215D01*
X010635Y009360D02*
X010538Y009457D01*
X010538Y009505D01*
X010437Y009457D02*
X010389Y009505D01*
X010292Y009505D01*
X010244Y009457D01*
X010244Y009408D01*
X010292Y009360D01*
X010389Y009360D01*
X010437Y009312D01*
X010437Y009263D01*
X010389Y009215D01*
X010292Y009215D01*
X010244Y009263D01*
X010142Y009215D02*
X010142Y009505D01*
X009949Y009505D02*
X010142Y009215D01*
X009949Y009215D02*
X009949Y009505D01*
X009848Y009505D02*
X009654Y009505D01*
X009654Y009215D01*
X009848Y009215D01*
X009751Y009360D02*
X009654Y009360D01*
X009553Y009215D02*
X009360Y009215D01*
X009360Y009505D01*
X009553Y009505D01*
X009456Y009360D02*
X009360Y009360D01*
X009258Y009505D02*
X009065Y009505D01*
X009162Y009505D02*
X009162Y009215D01*
X013265Y006105D02*
X013265Y005815D01*
X013265Y005912D02*
X013410Y005912D01*
X013458Y005960D01*
X013458Y006057D01*
X013410Y006105D01*
X013265Y006105D01*
X013560Y006105D02*
X013560Y005815D01*
X013656Y005912D01*
X013753Y005815D01*
X013753Y006105D01*
X013854Y006105D02*
X013854Y005815D01*
X014048Y005815D02*
X014048Y006105D01*
X013951Y006008D01*
X013854Y006105D01*
X014444Y006105D02*
X014540Y006105D01*
X014492Y006105D02*
X014492Y005815D01*
X014444Y005815D02*
X014540Y005815D01*
X014640Y005815D02*
X014834Y006008D01*
X014834Y006057D01*
X014785Y006105D01*
X014688Y006105D01*
X014640Y006057D01*
X014640Y005815D02*
X014834Y005815D01*
X014935Y005863D02*
X014983Y005815D01*
X015080Y005815D01*
X015128Y005863D01*
X014935Y005863D02*
X014935Y006057D01*
X014983Y006105D01*
X015080Y006105D01*
X015128Y006057D01*
X018565Y008215D02*
X018565Y008505D01*
X018710Y008505D01*
X018758Y008457D01*
X018758Y008360D01*
X018710Y008312D01*
X018565Y008312D01*
X018860Y008215D02*
X018956Y008312D01*
X019053Y008215D01*
X019053Y008505D01*
X019154Y008505D02*
X019251Y008408D01*
X019348Y008505D01*
X019348Y008215D01*
X019154Y008215D02*
X019154Y008505D01*
X018860Y008505D02*
X018860Y008215D01*
X019744Y008215D02*
X019840Y008215D01*
X019792Y008215D02*
X019792Y008505D01*
X019744Y008505D02*
X019840Y008505D01*
X019940Y008457D02*
X019988Y008505D01*
X020085Y008505D01*
X020134Y008457D01*
X020134Y008408D01*
X019940Y008215D01*
X020134Y008215D01*
X020235Y008263D02*
X020283Y008215D01*
X020380Y008215D01*
X020428Y008263D01*
X020235Y008263D02*
X020235Y008457D01*
X020283Y008505D01*
X020380Y008505D01*
X020428Y008457D01*
D14*
X003148Y007628D03*
X003148Y007168D03*
X003152Y006132D03*
X003152Y005672D03*
X003148Y004128D03*
X003148Y003668D03*
X003152Y002632D03*
X003152Y002172D03*
D15*
X021950Y007100D02*
X022500Y007100D01*
X027400Y007100D02*
X027950Y007100D01*
D16*
X023450Y007100D03*
D17*
X022775Y007100D03*
X027125Y007100D03*
D18*
X017950Y017900D02*
X010950Y017900D01*
X010950Y031900D01*
X013950Y031900D01*
X013950Y031400D01*
X014950Y031400D01*
X014950Y031900D01*
X017950Y031900D01*
X017950Y017900D01*
X010286Y021180D02*
X009236Y021180D01*
X009236Y021630D01*
X010286Y021630D01*
X010286Y021180D01*
X007300Y007690D02*
X004940Y007690D01*
X004940Y005110D01*
X007300Y005110D01*
X007300Y007690D01*
X004900Y007410D02*
X004900Y005390D01*
X004620Y005390D01*
X004440Y005570D01*
X004440Y007230D01*
X004620Y007410D01*
X004900Y007410D01*
X004940Y004190D02*
X004940Y001610D01*
X007300Y001610D01*
X007300Y004190D01*
X004940Y004190D01*
X004900Y003910D02*
X004620Y003910D01*
X004440Y003730D01*
X004440Y002070D01*
X004620Y001890D01*
X004900Y001890D01*
X004900Y003910D01*
D19*
X007910Y003800D03*
X007910Y005500D03*
X007910Y007300D03*
X007910Y002000D03*
D20*
X007490Y002900D03*
X007490Y006400D03*
D21*
X004900Y006401D02*
X004440Y006401D01*
X004440Y006324D02*
X004900Y006324D01*
X004900Y006247D02*
X004440Y006247D01*
X004440Y006170D02*
X004900Y006170D01*
X004900Y006093D02*
X004440Y006093D01*
X004440Y006016D02*
X004900Y006016D01*
X004900Y005938D02*
X004440Y005938D01*
X004440Y005861D02*
X004900Y005861D01*
X004900Y005784D02*
X004440Y005784D01*
X004440Y005707D02*
X004900Y005707D01*
X004900Y005630D02*
X004440Y005630D01*
X004440Y005570D02*
X004440Y007230D01*
X004620Y007410D01*
X004900Y007410D01*
X004900Y005390D01*
X004620Y005390D01*
X004440Y005570D01*
X004457Y005553D02*
X004900Y005553D01*
X004900Y005475D02*
X004535Y005475D01*
X004612Y005398D02*
X004900Y005398D01*
X004900Y006478D02*
X004440Y006478D01*
X004440Y006556D02*
X004900Y006556D01*
X004900Y006633D02*
X004440Y006633D01*
X004440Y006710D02*
X004900Y006710D01*
X004900Y006787D02*
X004440Y006787D01*
X004440Y006864D02*
X004900Y006864D01*
X004900Y006941D02*
X004440Y006941D01*
X004440Y007019D02*
X004900Y007019D01*
X004900Y007096D02*
X004440Y007096D01*
X004440Y007173D02*
X004900Y007173D01*
X004900Y007250D02*
X004460Y007250D01*
X004537Y007327D02*
X004900Y007327D01*
X004900Y007404D02*
X004614Y007404D01*
X004620Y003910D02*
X004440Y003730D01*
X004440Y002070D01*
X004620Y001890D01*
X004900Y001890D01*
X004900Y003910D01*
X004620Y003910D01*
X004565Y003855D02*
X004900Y003855D01*
X004900Y003778D02*
X004488Y003778D01*
X004440Y003701D02*
X004900Y003701D01*
X004900Y003623D02*
X004440Y003623D01*
X004440Y003546D02*
X004900Y003546D01*
X004900Y003469D02*
X004440Y003469D01*
X004440Y003392D02*
X004900Y003392D01*
X004900Y003315D02*
X004440Y003315D01*
X004440Y003238D02*
X004900Y003238D01*
X004900Y003161D02*
X004440Y003161D01*
X004440Y003083D02*
X004900Y003083D01*
X004900Y003006D02*
X004440Y003006D01*
X004440Y002929D02*
X004900Y002929D01*
X004900Y002852D02*
X004440Y002852D01*
X004440Y002775D02*
X004900Y002775D01*
X004900Y002698D02*
X004440Y002698D01*
X004440Y002620D02*
X004900Y002620D01*
X004900Y002543D02*
X004440Y002543D01*
X004440Y002466D02*
X004900Y002466D01*
X004900Y002389D02*
X004440Y002389D01*
X004440Y002312D02*
X004900Y002312D01*
X004900Y002235D02*
X004440Y002235D01*
X004440Y002157D02*
X004900Y002157D01*
X004900Y002080D02*
X004440Y002080D01*
X004507Y002003D02*
X004900Y002003D01*
X004900Y001926D02*
X004584Y001926D01*
D22*
X003000Y008215D02*
X002925Y008215D01*
X002850Y008290D01*
X002850Y008440D01*
X002925Y008515D01*
X003000Y008515D01*
X003075Y008440D01*
X003075Y008290D01*
X003000Y008215D01*
X002850Y008290D02*
X002775Y008215D01*
X002700Y008215D01*
X002625Y008290D01*
X002625Y008440D01*
X002700Y008515D01*
X002775Y008515D01*
X002850Y008440D01*
X001275Y015165D02*
X001275Y015465D01*
X001275Y015315D02*
X000825Y015315D01*
X000975Y015165D01*
X002625Y016290D02*
X002625Y016440D01*
X002700Y016515D01*
X002775Y016515D01*
X002850Y016440D01*
X002850Y016290D01*
X002775Y016215D01*
X002700Y016215D01*
X002625Y016290D01*
X002850Y016290D02*
X002925Y016215D01*
X003000Y016215D01*
X003075Y016290D01*
X003075Y016440D01*
X003000Y016515D01*
X002925Y016515D01*
X002850Y016440D01*
X001275Y023165D02*
X001275Y023465D01*
X001275Y023315D02*
X000825Y023315D01*
X000975Y023165D01*
X002625Y024290D02*
X002625Y024440D01*
X002700Y024515D01*
X002775Y024515D01*
X002850Y024440D01*
X002850Y024290D01*
X002775Y024215D01*
X002700Y024215D01*
X002625Y024290D01*
X002850Y024290D02*
X002925Y024215D01*
X003000Y024215D01*
X003075Y024290D01*
X003075Y024440D01*
X003000Y024515D01*
X002925Y024515D01*
X002850Y024440D01*
X005575Y029275D02*
X005875Y029275D01*
X005725Y029275D02*
X005725Y029725D01*
X005575Y029575D01*
X008775Y032150D02*
X008775Y032225D01*
X008850Y032300D01*
X009000Y032300D01*
X009075Y032225D01*
X009075Y032150D01*
X009000Y032075D01*
X008850Y032075D01*
X008775Y032150D01*
X008850Y032300D02*
X008775Y032375D01*
X008775Y032450D01*
X008850Y032525D01*
X009000Y032525D01*
X009075Y032450D01*
X009075Y032375D01*
X009000Y032300D01*
X010950Y031900D02*
X010950Y017900D01*
X017950Y017900D01*
X017950Y031900D01*
X010950Y031900D01*
X001275Y031465D02*
X001275Y031165D01*
X001275Y031315D02*
X000825Y031315D01*
X000975Y031165D01*
X010691Y008652D02*
X010748Y008652D01*
X010805Y008595D01*
X010862Y008652D01*
X010918Y008652D01*
X010975Y008595D01*
X010975Y008482D01*
X010918Y008425D01*
X010805Y008538D02*
X010805Y008595D01*
X010691Y008652D02*
X010635Y008595D01*
X010635Y008482D01*
X010691Y008425D01*
X010691Y007652D02*
X010635Y007595D01*
X010635Y007482D01*
X010691Y007425D01*
X010691Y007652D02*
X010748Y007652D01*
X010975Y007425D01*
X010975Y007652D01*
X010975Y006652D02*
X010975Y006425D01*
X010975Y006538D02*
X010635Y006538D01*
X010748Y006425D01*
X012025Y007175D02*
X012325Y007175D01*
X012175Y007175D02*
X012175Y007625D01*
X012025Y007475D01*
X012675Y003975D02*
X012675Y003525D01*
X012525Y003525D02*
X012825Y003525D01*
X012525Y003825D02*
X012675Y003975D01*
X014545Y003880D02*
X014620Y003955D01*
X014770Y003955D01*
X014845Y003880D01*
X014845Y003805D01*
X014545Y003505D01*
X014845Y003505D01*
X016525Y003600D02*
X016600Y003525D01*
X016750Y003525D01*
X016825Y003600D01*
X016825Y003675D01*
X016750Y003750D01*
X016675Y003750D01*
X016750Y003750D02*
X016825Y003825D01*
X016825Y003900D01*
X016750Y003975D01*
X016600Y003975D01*
X016525Y003900D01*
X018545Y003730D02*
X018845Y003730D01*
X018770Y003505D02*
X018770Y003955D01*
X018545Y003730D01*
X018588Y005875D02*
X018588Y006215D01*
X018475Y006102D01*
X018475Y005875D02*
X018702Y005875D01*
X019475Y005875D02*
X019702Y006102D01*
X019702Y006159D01*
X019645Y006215D01*
X019532Y006215D01*
X019475Y006159D01*
X019475Y005875D02*
X019702Y005875D01*
X020475Y005932D02*
X020532Y005875D01*
X020645Y005875D01*
X020702Y005932D01*
X020702Y005988D01*
X020645Y006045D01*
X020588Y006045D01*
X020645Y006045D02*
X020702Y006102D01*
X020702Y006159D01*
X020645Y006215D01*
X020532Y006215D01*
X020475Y006159D01*
X021275Y003975D02*
X021275Y003525D01*
X021125Y003525D02*
X021425Y003525D01*
X021125Y003825D02*
X021275Y003975D01*
X023145Y003880D02*
X023220Y003955D01*
X023370Y003955D01*
X023445Y003880D01*
X023445Y003805D01*
X023145Y003505D01*
X023445Y003505D01*
X025125Y003600D02*
X025200Y003525D01*
X025350Y003525D01*
X025425Y003600D01*
X025425Y003675D01*
X025350Y003750D01*
X025275Y003750D01*
X025350Y003750D02*
X025425Y003825D01*
X025425Y003900D01*
X025350Y003975D01*
X025200Y003975D01*
X025125Y003900D01*
X027145Y003730D02*
X027445Y003730D01*
X027370Y003505D02*
X027370Y003955D01*
X027145Y003730D01*
X028775Y008225D02*
X028625Y008375D01*
X029075Y008375D01*
X029075Y008225D02*
X029075Y008525D01*
X027200Y015175D02*
X027125Y015175D01*
X027050Y015250D01*
X027050Y015400D01*
X027125Y015475D01*
X027200Y015475D01*
X027275Y015400D01*
X027275Y015250D01*
X027200Y015175D01*
X027050Y015250D02*
X026975Y015175D01*
X026900Y015175D01*
X026825Y015250D01*
X026825Y015400D01*
X026900Y015475D01*
X026975Y015475D01*
X027050Y015400D01*
X028625Y016375D02*
X029075Y016375D01*
X029075Y016225D02*
X029075Y016525D01*
X028775Y016225D02*
X028625Y016375D01*
X027200Y023175D02*
X027125Y023175D01*
X027050Y023250D01*
X027050Y023400D01*
X027125Y023475D01*
X027200Y023475D01*
X027275Y023400D01*
X027275Y023250D01*
X027200Y023175D01*
X027050Y023250D02*
X026975Y023175D01*
X026900Y023175D01*
X026825Y023250D01*
X026825Y023400D01*
X026900Y023475D01*
X026975Y023475D01*
X027050Y023400D01*
X028625Y024375D02*
X029075Y024375D01*
X029075Y024225D02*
X029075Y024525D01*
X028775Y024225D02*
X028625Y024375D01*
X027200Y031175D02*
X027125Y031175D01*
X027050Y031250D01*
X027050Y031400D01*
X027125Y031475D01*
X027200Y031475D01*
X027275Y031400D01*
X027275Y031250D01*
X027200Y031175D01*
X027050Y031250D02*
X026975Y031175D01*
X026900Y031175D01*
X026825Y031250D01*
X026825Y031400D01*
X026900Y031475D01*
X026975Y031475D01*
X027050Y031400D01*
X016800Y007625D02*
X016575Y007400D01*
X016875Y007400D01*
X016800Y007175D02*
X016800Y007625D01*
D23*
X018450Y006900D03*
X019450Y006900D03*
X020450Y006900D03*
X009950Y006400D03*
X009950Y007400D03*
X009950Y008400D03*
D24*
X011750Y007350D03*
X011750Y006850D03*
X010950Y013950D03*
X010950Y014450D03*
X018650Y017650D03*
X018650Y018150D03*
D25*
X010100Y023100D03*
X009600Y023100D03*
X017000Y008200D03*
X017500Y008200D03*
D26*
X015950Y007400D03*
X014950Y007400D03*
X013950Y007400D03*
X012950Y007400D03*
X001950Y008400D03*
X001950Y009400D03*
X001950Y010400D03*
X001950Y011400D03*
X001950Y012400D03*
X001950Y013400D03*
X001950Y014400D03*
X001950Y015400D03*
X001950Y016400D03*
X001950Y017400D03*
X001950Y018400D03*
X001950Y019400D03*
X001950Y020400D03*
X001950Y021400D03*
X001950Y022400D03*
X001950Y023400D03*
X001950Y024400D03*
X001950Y025400D03*
X001950Y026400D03*
X001950Y027400D03*
X001950Y028400D03*
X001950Y029400D03*
X001950Y030400D03*
X001950Y031400D03*
X005750Y031400D03*
X006750Y031400D03*
X007750Y031400D03*
X007750Y030400D03*
X006750Y030400D03*
X005750Y030400D03*
X008750Y030400D03*
X008750Y031400D03*
X010150Y031400D03*
X010150Y030400D03*
X018650Y030900D03*
X018650Y031900D03*
X027950Y031400D03*
X027950Y030400D03*
X027950Y029400D03*
X027950Y028400D03*
X027950Y027400D03*
X027950Y026400D03*
X027950Y025400D03*
X027950Y024400D03*
X027950Y023400D03*
X027950Y022400D03*
X027950Y021400D03*
X027950Y020400D03*
X027950Y019400D03*
X027950Y018400D03*
X027950Y017400D03*
X027950Y016400D03*
X027950Y015400D03*
X027950Y014400D03*
X027950Y013400D03*
X027950Y012400D03*
X027950Y011400D03*
X027950Y010400D03*
X027950Y009400D03*
X027950Y008400D03*
D27*
X015750Y008680D02*
X015750Y008800D01*
X015340Y008800D01*
X015340Y008680D01*
X015750Y008680D01*
X015750Y008930D02*
X015750Y009050D01*
X015340Y009050D01*
X015340Y008930D01*
X015750Y008930D01*
X015750Y009190D02*
X015750Y009310D01*
X015340Y009310D01*
X015340Y009190D01*
X015750Y009190D01*
X015750Y009440D02*
X015750Y009560D01*
X015340Y009560D01*
X015340Y009440D01*
X015750Y009440D01*
X015750Y009700D02*
X015750Y009820D01*
X015340Y009820D01*
X015340Y009700D01*
X015750Y009700D01*
X015750Y009960D02*
X015750Y010080D01*
X015340Y010080D01*
X015340Y009960D01*
X015750Y009960D01*
X015750Y010210D02*
X015750Y010330D01*
X015340Y010330D01*
X015340Y010210D01*
X015750Y010210D01*
X015750Y010470D02*
X015750Y010590D01*
X015340Y010590D01*
X015340Y010470D01*
X015750Y010470D01*
X015750Y010720D02*
X015750Y010840D01*
X015340Y010840D01*
X015340Y010720D01*
X015750Y010720D01*
X015750Y010980D02*
X015750Y011100D01*
X015340Y011100D01*
X015340Y010980D01*
X015750Y010980D01*
X015750Y011240D02*
X015750Y011360D01*
X015340Y011360D01*
X015340Y011240D01*
X015750Y011240D01*
X015750Y011490D02*
X015750Y011610D01*
X015340Y011610D01*
X015340Y011490D01*
X015750Y011490D01*
X015750Y011750D02*
X015750Y011870D01*
X015340Y011870D01*
X015340Y011750D01*
X015750Y011750D01*
X015750Y012000D02*
X015750Y012120D01*
X015340Y012120D01*
X015340Y012000D01*
X015750Y012000D01*
X015340Y012330D02*
X014570Y012330D01*
X014330Y012330D01*
X013560Y012330D01*
X013560Y008470D01*
X015340Y008470D01*
X015340Y012330D01*
X015340Y012900D02*
X015340Y014900D01*
X014570Y014900D01*
X014330Y014900D01*
X013560Y014900D01*
X013560Y012900D01*
X015340Y012900D01*
X015340Y012950D02*
X015750Y012950D01*
X015750Y013060D01*
X015340Y013060D01*
X015340Y012950D01*
X015340Y013200D02*
X015750Y013200D01*
X015750Y013320D01*
X015340Y013320D01*
X015340Y013200D01*
X015340Y013460D02*
X015750Y013460D01*
X015750Y013580D01*
X015340Y013580D01*
X015340Y013460D01*
X015340Y013710D02*
X015750Y013710D01*
X015750Y013830D01*
X015340Y013830D01*
X015340Y013710D01*
X015340Y013970D02*
X015750Y013970D01*
X015750Y014090D01*
X015340Y014090D01*
X015340Y013970D01*
X015340Y014220D02*
X015750Y014220D01*
X015750Y014340D01*
X015340Y014340D01*
X015340Y014220D01*
X015340Y014480D02*
X015750Y014480D01*
X015750Y014600D01*
X015340Y014600D01*
X015340Y014480D01*
X015340Y014740D02*
X015750Y014740D01*
X015750Y014850D01*
X015340Y014850D01*
X015340Y014740D01*
X015340Y015400D02*
X015340Y017400D01*
X014570Y017400D01*
X014330Y017400D01*
X013560Y017400D01*
X013560Y015400D01*
X015340Y015400D01*
X015340Y015450D02*
X015750Y015450D01*
X015750Y015560D01*
X015340Y015560D01*
X015340Y015450D01*
X015340Y015700D02*
X015750Y015700D01*
X015750Y015820D01*
X015340Y015820D01*
X015340Y015700D01*
X015340Y015960D02*
X015750Y015960D01*
X015750Y016080D01*
X015340Y016080D01*
X015340Y015960D01*
X015340Y016210D02*
X015750Y016210D01*
X015750Y016330D01*
X015340Y016330D01*
X015340Y016210D01*
X015340Y016470D02*
X015750Y016470D01*
X015750Y016590D01*
X015340Y016590D01*
X015340Y016470D01*
X015340Y016720D02*
X015750Y016720D01*
X015750Y016840D01*
X015340Y016840D01*
X015340Y016720D01*
X015340Y016980D02*
X015750Y016980D01*
X015750Y017100D01*
X015340Y017100D01*
X015340Y016980D01*
X015340Y017240D02*
X015750Y017240D01*
X015750Y017350D01*
X015340Y017350D01*
X015340Y017240D01*
X014570Y017400D02*
X014568Y017379D01*
X014563Y017359D01*
X014554Y017340D01*
X014542Y017323D01*
X014527Y017308D01*
X014510Y017296D01*
X014491Y017287D01*
X014471Y017282D01*
X014450Y017280D01*
X014429Y017282D01*
X014409Y017287D01*
X014390Y017296D01*
X014373Y017308D01*
X014358Y017323D01*
X014346Y017340D01*
X014337Y017359D01*
X014332Y017379D01*
X014330Y017400D01*
X013560Y017350D02*
X013150Y017350D01*
X013150Y017240D01*
X013560Y017240D01*
X013560Y017350D01*
X013560Y017100D02*
X013150Y017100D01*
X013150Y016980D01*
X013560Y016980D01*
X013560Y017100D01*
X013560Y016840D02*
X013150Y016840D01*
X013150Y016720D01*
X013560Y016720D01*
X013560Y016840D01*
X013560Y016590D02*
X013150Y016590D01*
X013150Y016470D01*
X013560Y016470D01*
X013560Y016590D01*
X013560Y016330D02*
X013150Y016330D01*
X013150Y016210D01*
X013560Y016210D01*
X013560Y016330D01*
X013560Y016080D02*
X013150Y016080D01*
X013150Y015960D01*
X013560Y015960D01*
X013560Y016080D01*
X013560Y015820D02*
X013150Y015820D01*
X013150Y015700D01*
X013560Y015700D01*
X013560Y015820D01*
X013560Y015560D02*
X013150Y015560D01*
X013150Y015450D01*
X013560Y015450D01*
X013560Y015560D01*
X013560Y014850D02*
X013150Y014850D01*
X013150Y014740D01*
X013560Y014740D01*
X013560Y014850D01*
X013560Y014600D02*
X013150Y014600D01*
X013150Y014480D01*
X013560Y014480D01*
X013560Y014600D01*
X013560Y014340D02*
X013150Y014340D01*
X013150Y014220D01*
X013560Y014220D01*
X013560Y014340D01*
X013560Y014090D02*
X013150Y014090D01*
X013150Y013970D01*
X013560Y013970D01*
X013560Y014090D01*
X013560Y013830D02*
X013150Y013830D01*
X013150Y013710D01*
X013560Y013710D01*
X013560Y013830D01*
X013560Y013580D02*
X013150Y013580D01*
X013150Y013460D01*
X013560Y013460D01*
X013560Y013580D01*
X013560Y013320D02*
X013150Y013320D01*
X013150Y013200D01*
X013560Y013200D01*
X013560Y013320D01*
X013560Y013060D02*
X013150Y013060D01*
X013150Y012950D01*
X013560Y012950D01*
X013560Y013060D01*
X013560Y012120D02*
X013150Y012120D01*
X013150Y012000D01*
X013560Y012000D01*
X013560Y012120D01*
X013560Y011870D02*
X013150Y011870D01*
X013150Y011750D01*
X013560Y011750D01*
X013560Y011870D01*
X013560Y011610D02*
X013150Y011610D01*
X013150Y011490D01*
X013560Y011490D01*
X013560Y011610D01*
X013560Y011360D02*
X013150Y011360D01*
X013150Y011240D01*
X013560Y011240D01*
X013560Y011360D01*
X013560Y011100D02*
X013150Y011100D01*
X013150Y010980D01*
X013560Y010980D01*
X013560Y011100D01*
X013560Y010840D02*
X013150Y010840D01*
X013150Y010720D01*
X013560Y010720D01*
X013560Y010840D01*
X013560Y010590D02*
X013150Y010590D01*
X013150Y010470D01*
X013560Y010470D01*
X013560Y010590D01*
X013560Y010330D02*
X013150Y010330D01*
X013150Y010210D01*
X013560Y010210D01*
X013560Y010330D01*
X013560Y010080D02*
X013150Y010080D01*
X013150Y009960D01*
X013560Y009960D01*
X013560Y010080D01*
X013560Y009820D02*
X013150Y009820D01*
X013150Y009700D01*
X013560Y009700D01*
X013560Y009820D01*
X013560Y009560D02*
X013150Y009560D01*
X013150Y009440D01*
X013560Y009440D01*
X013560Y009560D01*
X013560Y009310D02*
X013150Y009310D01*
X013150Y009190D01*
X013560Y009190D01*
X013560Y009310D01*
X013560Y009050D02*
X013150Y009050D01*
X013150Y008930D01*
X013560Y008930D01*
X013560Y009050D01*
X013560Y008800D02*
X013150Y008800D01*
X013150Y008680D01*
X013560Y008680D01*
X013560Y008800D01*
X014330Y012330D02*
X014332Y012309D01*
X014337Y012289D01*
X014346Y012270D01*
X014358Y012253D01*
X014373Y012238D01*
X014390Y012226D01*
X014409Y012217D01*
X014429Y012212D01*
X014450Y012210D01*
X014471Y012212D01*
X014491Y012217D01*
X014510Y012226D01*
X014527Y012238D01*
X014542Y012253D01*
X014554Y012270D01*
X014563Y012289D01*
X014568Y012309D01*
X014570Y012330D01*
X014570Y014900D02*
X014568Y014879D01*
X014563Y014859D01*
X014554Y014840D01*
X014542Y014823D01*
X014527Y014808D01*
X014510Y014796D01*
X014491Y014787D01*
X014471Y014782D01*
X014450Y014780D01*
X014429Y014782D01*
X014409Y014787D01*
X014390Y014796D01*
X014373Y014808D01*
X014358Y014823D01*
X014346Y014840D01*
X014337Y014859D01*
X014332Y014879D01*
X014330Y014900D01*
D28*
X013650Y003140D02*
X012860Y002350D01*
X014890Y002340D02*
X015640Y003140D01*
X016860Y002350D02*
X017650Y003140D01*
X018890Y002340D02*
X019640Y003140D01*
X021460Y002350D02*
X022250Y003140D01*
X023490Y002340D02*
X024240Y003140D01*
X025460Y002350D02*
X026250Y003140D01*
X027490Y002340D02*
X028240Y003140D01*
M02*
