%
M48
M72
T01C0.0236
T02C0.0350
T03C0.0354
T04C0.0360
T05C0.0400
T06C0.0470
T07C0.0472
T08C0.0590
T09C0.1280
%
T01
X5454Y2100
X7954Y3850
X8454Y5850
X9954Y7850
X4204Y8100
X17204Y2350
X19204Y1350
X24454Y1100
X22704Y4350
X19204Y4350
T02
X10704Y6200
X9704Y6200
X10204Y5200
X9204Y5200
T03
X6704Y4850
X5704Y4350
X6704Y3850
X5704Y3350
X6704Y2850
X5704Y5350
X6704Y5850
X5704Y6350
T04
X20704Y1350
X21704Y1350
X22704Y1350
T05
X21704Y3350
X21704Y5350
X15204Y8100
X14204Y8100
X13204Y8100
X6454Y8350
X6454Y9350
T06
X20220Y8350
X22188Y8350
X25704Y8600
X25704Y6600
X25704Y4600
X25704Y2600
T07
X20056Y2600
X8048Y2600
T08
X13454Y5850
X19454Y5850
T09
X11454Y8700
X8454Y8700
X3204Y6850
X3204Y2350
M30
